<?xml version="1.0" encoding="utf-8" standalone="no"?>
<!DOCTYPE svg PUBLIC "-//W3C//DTD SVG 1.1//EN"
  "http://www.w3.org/Graphics/SVG/1.1/DTD/svg11.dtd">
<svg xmlns:xlink="http://www.w3.org/1999/xlink" width="187.2pt" height="187.2pt" viewBox="0 0 187.2 187.2" xmlns="http://www.w3.org/2000/svg" version="1.1">
 <metadata>
  <rdf:RDF xmlns:dc="http://purl.org/dc/elements/1.1/" xmlns:cc="http://creativecommons.org/ns#" xmlns:rdf="http://www.w3.org/1999/02/22-rdf-syntax-ns#">
   <cc:Work>
    <dc:type rdf:resource="http://purl.org/dc/dcmitype/StillImage"/>
    <dc:date>2025-01-06T14:44:51.100482</dc:date>
    <dc:format>image/svg+xml</dc:format>
    <dc:creator>
     <cc:Agent>
      <dc:title>Matplotlib v3.6.3, https://matplotlib.org/</dc:title>
     </cc:Agent>
    </dc:creator>
   </cc:Work>
  </rdf:RDF>
 </metadata>
 <defs>
  <style type="text/css">*{stroke-linejoin: round; stroke-linecap: butt}</style>
 </defs>
 <g id="figure_1">
  <g id="patch_1">
   <path d="M 0 187.2 
L 187.2 187.2 
L 187.2 0 
L 0 0 
z
" style="fill: #ffffff"/>
  </g>
  <g id="axes_1">
   <g id="patch_2">
    <path d="M 41.073 147.612 
L 176.832 147.612 
L 176.832 23.208 
L 41.073 23.208 
z
" style="fill: #ffffff"/>
   </g>
   <g id="matplotlib.axis_1">
    <g id="xtick_1">
     <g id="line2d_1">
      <path d="M 46.243183 147.612 
L 46.243183 23.208 
" clip-path="url(#pa9c4f593b0)" style="fill: none; stroke-dasharray: 2.96,1.28; stroke-dashoffset: 0; stroke: #cccccc; stroke-opacity: 0.5; stroke-width: 0.8"/>
     </g>
     <g id="text_1">
      <!-- 0 -->
      <g style="fill: #262626" transform="translate(43.796371 162.210875) scale(0.088 -0.088)">
       <defs>
        <path id="ArialMT-30" d="M 266 2259 
Q 266 3072 433 3567 
Q 600 4063 929 4331 
Q 1259 4600 1759 4600 
Q 2128 4600 2406 4451 
Q 2684 4303 2865 4023 
Q 3047 3744 3150 3342 
Q 3253 2941 3253 2259 
Q 3253 1453 3087 958 
Q 2922 463 2592 192 
Q 2263 -78 1759 -78 
Q 1097 -78 719 397 
Q 266 969 266 2259 
z
M 844 2259 
Q 844 1131 1108 757 
Q 1372 384 1759 384 
Q 2147 384 2411 759 
Q 2675 1134 2675 2259 
Q 2675 3391 2411 3762 
Q 2147 4134 1753 4134 
Q 1366 4134 1134 3806 
Q 844 3388 844 2259 
z
" transform="scale(0.015625)"/>
       </defs>
       <use xlink:href="#ArialMT-30"/>
      </g>
     </g>
    </g>
    <g id="xtick_2">
     <g id="line2d_2">
      <path d="M 79.599203 147.612 
L 79.599203 23.208 
" clip-path="url(#pa9c4f593b0)" style="fill: none; stroke-dasharray: 2.96,1.28; stroke-dashoffset: 0; stroke: #cccccc; stroke-opacity: 0.5; stroke-width: 0.8"/>
     </g>
     <g id="text_2">
      <!-- 100 -->
      <g style="fill: #262626" transform="translate(72.258765 162.210875) scale(0.088 -0.088)">
       <defs>
        <path id="ArialMT-31" d="M 2384 0 
L 1822 0 
L 1822 3584 
Q 1619 3391 1289 3197 
Q 959 3003 697 2906 
L 697 3450 
Q 1169 3672 1522 3987 
Q 1875 4303 2022 4600 
L 2384 4600 
L 2384 0 
z
" transform="scale(0.015625)"/>
       </defs>
       <use xlink:href="#ArialMT-31"/>
       <use xlink:href="#ArialMT-30" x="55.615234"/>
       <use xlink:href="#ArialMT-30" x="111.230469"/>
      </g>
     </g>
    </g>
    <g id="xtick_3">
     <g id="line2d_3">
      <path d="M 112.955222 147.612 
L 112.955222 23.208 
" clip-path="url(#pa9c4f593b0)" style="fill: none; stroke-dasharray: 2.96,1.28; stroke-dashoffset: 0; stroke: #cccccc; stroke-opacity: 0.5; stroke-width: 0.8"/>
     </g>
     <g id="text_3">
      <!-- 200 -->
      <g style="fill: #262626" transform="translate(105.614785 162.210875) scale(0.088 -0.088)">
       <defs>
        <path id="ArialMT-32" d="M 3222 541 
L 3222 0 
L 194 0 
Q 188 203 259 391 
Q 375 700 629 1000 
Q 884 1300 1366 1694 
Q 2113 2306 2375 2664 
Q 2638 3022 2638 3341 
Q 2638 3675 2398 3904 
Q 2159 4134 1775 4134 
Q 1369 4134 1125 3890 
Q 881 3647 878 3216 
L 300 3275 
Q 359 3922 746 4261 
Q 1134 4600 1788 4600 
Q 2447 4600 2831 4234 
Q 3216 3869 3216 3328 
Q 3216 3053 3103 2787 
Q 2991 2522 2730 2228 
Q 2469 1934 1863 1422 
Q 1356 997 1212 845 
Q 1069 694 975 541 
L 3222 541 
z
" transform="scale(0.015625)"/>
       </defs>
       <use xlink:href="#ArialMT-32"/>
       <use xlink:href="#ArialMT-30" x="55.615234"/>
       <use xlink:href="#ArialMT-30" x="111.230469"/>
      </g>
     </g>
    </g>
    <g id="xtick_4">
     <g id="line2d_4">
      <path d="M 146.311242 147.612 
L 146.311242 23.208 
" clip-path="url(#pa9c4f593b0)" style="fill: none; stroke-dasharray: 2.96,1.28; stroke-dashoffset: 0; stroke: #cccccc; stroke-opacity: 0.5; stroke-width: 0.8"/>
     </g>
     <g id="text_4">
      <!-- 300 -->
      <g style="fill: #262626" transform="translate(138.970805 162.210875) scale(0.088 -0.088)">
       <defs>
        <path id="ArialMT-33" d="M 269 1209 
L 831 1284 
Q 928 806 1161 595 
Q 1394 384 1728 384 
Q 2125 384 2398 659 
Q 2672 934 2672 1341 
Q 2672 1728 2419 1979 
Q 2166 2231 1775 2231 
Q 1616 2231 1378 2169 
L 1441 2663 
Q 1497 2656 1531 2656 
Q 1891 2656 2178 2843 
Q 2466 3031 2466 3422 
Q 2466 3731 2256 3934 
Q 2047 4138 1716 4138 
Q 1388 4138 1169 3931 
Q 950 3725 888 3313 
L 325 3413 
Q 428 3978 793 4289 
Q 1159 4600 1703 4600 
Q 2078 4600 2393 4439 
Q 2709 4278 2876 4000 
Q 3044 3722 3044 3409 
Q 3044 3113 2884 2869 
Q 2725 2625 2413 2481 
Q 2819 2388 3044 2092 
Q 3269 1797 3269 1353 
Q 3269 753 2831 336 
Q 2394 -81 1725 -81 
Q 1122 -81 723 278 
Q 325 638 269 1209 
z
" transform="scale(0.015625)"/>
       </defs>
       <use xlink:href="#ArialMT-33"/>
       <use xlink:href="#ArialMT-30" x="55.615234"/>
       <use xlink:href="#ArialMT-30" x="111.230469"/>
      </g>
     </g>
    </g>
    <g id="text_5">
     <!-- Agonist length -->
     <g style="fill: #262626" transform="translate(78.5325 174.831375) scale(0.096 -0.096)">
      <defs>
       <path id="ArialMT-41" d="M -9 0 
L 1750 4581 
L 2403 4581 
L 4278 0 
L 3588 0 
L 3053 1388 
L 1138 1388 
L 634 0 
L -9 0 
z
M 1313 1881 
L 2866 1881 
L 2388 3150 
Q 2169 3728 2063 4100 
Q 1975 3659 1816 3225 
L 1313 1881 
z
" transform="scale(0.015625)"/>
       <path id="ArialMT-67" d="M 319 -275 
L 866 -356 
Q 900 -609 1056 -725 
Q 1266 -881 1628 -881 
Q 2019 -881 2231 -725 
Q 2444 -569 2519 -288 
Q 2563 -116 2559 434 
Q 2191 0 1641 0 
Q 956 0 581 494 
Q 206 988 206 1678 
Q 206 2153 378 2554 
Q 550 2956 876 3175 
Q 1203 3394 1644 3394 
Q 2231 3394 2613 2919 
L 2613 3319 
L 3131 3319 
L 3131 450 
Q 3131 -325 2973 -648 
Q 2816 -972 2473 -1159 
Q 2131 -1347 1631 -1347 
Q 1038 -1347 672 -1080 
Q 306 -813 319 -275 
z
M 784 1719 
Q 784 1066 1043 766 
Q 1303 466 1694 466 
Q 2081 466 2343 764 
Q 2606 1063 2606 1700 
Q 2606 2309 2336 2618 
Q 2066 2928 1684 2928 
Q 1309 2928 1046 2623 
Q 784 2319 784 1719 
z
" transform="scale(0.015625)"/>
       <path id="ArialMT-6f" d="M 213 1659 
Q 213 2581 725 3025 
Q 1153 3394 1769 3394 
Q 2453 3394 2887 2945 
Q 3322 2497 3322 1706 
Q 3322 1066 3130 698 
Q 2938 331 2570 128 
Q 2203 -75 1769 -75 
Q 1072 -75 642 372 
Q 213 819 213 1659 
z
M 791 1659 
Q 791 1022 1069 705 
Q 1347 388 1769 388 
Q 2188 388 2466 706 
Q 2744 1025 2744 1678 
Q 2744 2294 2464 2611 
Q 2184 2928 1769 2928 
Q 1347 2928 1069 2612 
Q 791 2297 791 1659 
z
" transform="scale(0.015625)"/>
       <path id="ArialMT-6e" d="M 422 0 
L 422 3319 
L 928 3319 
L 928 2847 
Q 1294 3394 1984 3394 
Q 2284 3394 2536 3286 
Q 2788 3178 2913 3003 
Q 3038 2828 3088 2588 
Q 3119 2431 3119 2041 
L 3119 0 
L 2556 0 
L 2556 2019 
Q 2556 2363 2490 2533 
Q 2425 2703 2258 2804 
Q 2091 2906 1866 2906 
Q 1506 2906 1245 2678 
Q 984 2450 984 1813 
L 984 0 
L 422 0 
z
" transform="scale(0.015625)"/>
       <path id="ArialMT-69" d="M 425 3934 
L 425 4581 
L 988 4581 
L 988 3934 
L 425 3934 
z
M 425 0 
L 425 3319 
L 988 3319 
L 988 0 
L 425 0 
z
" transform="scale(0.015625)"/>
       <path id="ArialMT-73" d="M 197 991 
L 753 1078 
Q 800 744 1014 566 
Q 1228 388 1613 388 
Q 2000 388 2187 545 
Q 2375 703 2375 916 
Q 2375 1106 2209 1216 
Q 2094 1291 1634 1406 
Q 1016 1563 777 1677 
Q 538 1791 414 1992 
Q 291 2194 291 2438 
Q 291 2659 392 2848 
Q 494 3038 669 3163 
Q 800 3259 1026 3326 
Q 1253 3394 1513 3394 
Q 1903 3394 2198 3281 
Q 2494 3169 2634 2976 
Q 2775 2784 2828 2463 
L 2278 2388 
Q 2241 2644 2061 2787 
Q 1881 2931 1553 2931 
Q 1166 2931 1000 2803 
Q 834 2675 834 2503 
Q 834 2394 903 2306 
Q 972 2216 1119 2156 
Q 1203 2125 1616 2013 
Q 2213 1853 2448 1751 
Q 2684 1650 2818 1456 
Q 2953 1263 2953 975 
Q 2953 694 2789 445 
Q 2625 197 2315 61 
Q 2006 -75 1616 -75 
Q 969 -75 630 194 
Q 291 463 197 991 
z
" transform="scale(0.015625)"/>
       <path id="ArialMT-74" d="M 1650 503 
L 1731 6 
Q 1494 -44 1306 -44 
Q 1000 -44 831 53 
Q 663 150 594 308 
Q 525 466 525 972 
L 525 2881 
L 113 2881 
L 113 3319 
L 525 3319 
L 525 4141 
L 1084 4478 
L 1084 3319 
L 1650 3319 
L 1650 2881 
L 1084 2881 
L 1084 941 
Q 1084 700 1114 631 
Q 1144 563 1211 522 
Q 1278 481 1403 481 
Q 1497 481 1650 503 
z
" transform="scale(0.015625)"/>
       <path id="ArialMT-20" transform="scale(0.015625)"/>
       <path id="ArialMT-6c" d="M 409 0 
L 409 4581 
L 972 4581 
L 972 0 
L 409 0 
z
" transform="scale(0.015625)"/>
       <path id="ArialMT-65" d="M 2694 1069 
L 3275 997 
Q 3138 488 2766 206 
Q 2394 -75 1816 -75 
Q 1088 -75 661 373 
Q 234 822 234 1631 
Q 234 2469 665 2931 
Q 1097 3394 1784 3394 
Q 2450 3394 2872 2941 
Q 3294 2488 3294 1666 
Q 3294 1616 3291 1516 
L 816 1516 
Q 847 969 1125 678 
Q 1403 388 1819 388 
Q 2128 388 2347 550 
Q 2566 713 2694 1069 
z
M 847 1978 
L 2700 1978 
Q 2663 2397 2488 2606 
Q 2219 2931 1791 2931 
Q 1403 2931 1139 2672 
Q 875 2413 847 1978 
z
" transform="scale(0.015625)"/>
       <path id="ArialMT-68" d="M 422 0 
L 422 4581 
L 984 4581 
L 984 2938 
Q 1378 3394 1978 3394 
Q 2347 3394 2619 3248 
Q 2891 3103 3008 2847 
Q 3125 2591 3125 2103 
L 3125 0 
L 2563 0 
L 2563 2103 
Q 2563 2525 2380 2717 
Q 2197 2909 1863 2909 
Q 1613 2909 1392 2779 
Q 1172 2650 1078 2428 
Q 984 2206 984 1816 
L 984 0 
L 422 0 
z
" transform="scale(0.015625)"/>
      </defs>
      <use xlink:href="#ArialMT-41"/>
      <use xlink:href="#ArialMT-67" x="66.699219"/>
      <use xlink:href="#ArialMT-6f" x="122.314453"/>
      <use xlink:href="#ArialMT-6e" x="177.929688"/>
      <use xlink:href="#ArialMT-69" x="233.544922"/>
      <use xlink:href="#ArialMT-73" x="255.761719"/>
      <use xlink:href="#ArialMT-74" x="305.761719"/>
      <use xlink:href="#ArialMT-20" x="333.544922"/>
      <use xlink:href="#ArialMT-6c" x="361.328125"/>
      <use xlink:href="#ArialMT-65" x="383.544922"/>
      <use xlink:href="#ArialMT-6e" x="439.160156"/>
      <use xlink:href="#ArialMT-67" x="494.775391"/>
      <use xlink:href="#ArialMT-74" x="550.390625"/>
      <use xlink:href="#ArialMT-68" x="578.173828"/>
     </g>
    </g>
   </g>
   <g id="matplotlib.axis_2">
    <g id="ytick_1">
     <g id="line2d_5">
      <path d="M 41.073 140.886261 
L 176.832 140.886261 
" clip-path="url(#pa9c4f593b0)" style="fill: none; stroke-dasharray: 2.96,1.28; stroke-dashoffset: 0; stroke: #cccccc; stroke-opacity: 0.5; stroke-width: 0.8"/>
     </g>
     <g id="text_6">
      <!-- 1 -->
      <g style="fill: #262626" transform="translate(27.879375 144.035698) scale(0.088 -0.088)">
       <use xlink:href="#ArialMT-31"/>
      </g>
     </g>
    </g>
    <g id="ytick_2">
     <g id="line2d_6">
      <path d="M 41.073 129.715035 
L 176.832 129.715035 
" clip-path="url(#pa9c4f593b0)" style="fill: none; stroke-dasharray: 2.96,1.28; stroke-dashoffset: 0; stroke: #cccccc; stroke-opacity: 0.5; stroke-width: 0.8"/>
     </g>
     <g id="text_7">
      <!-- 2 -->
      <g style="fill: #262626" transform="translate(27.879375 132.864473) scale(0.088 -0.088)">
       <use xlink:href="#ArialMT-32"/>
      </g>
     </g>
    </g>
    <g id="ytick_3">
     <g id="line2d_7">
      <path d="M 41.073 118.543809 
L 176.832 118.543809 
" clip-path="url(#pa9c4f593b0)" style="fill: none; stroke-dasharray: 2.96,1.28; stroke-dashoffset: 0; stroke: #cccccc; stroke-opacity: 0.5; stroke-width: 0.8"/>
     </g>
     <g id="text_8">
      <!-- 3 -->
      <g style="fill: #262626" transform="translate(27.879375 121.693247) scale(0.088 -0.088)">
       <use xlink:href="#ArialMT-33"/>
      </g>
     </g>
    </g>
    <g id="ytick_4">
     <g id="line2d_8">
      <path d="M 41.073 107.372583 
L 176.832 107.372583 
" clip-path="url(#pa9c4f593b0)" style="fill: none; stroke-dasharray: 2.96,1.28; stroke-dashoffset: 0; stroke: #cccccc; stroke-opacity: 0.5; stroke-width: 0.8"/>
     </g>
     <g id="text_9">
      <!-- 4 -->
      <g style="fill: #262626" transform="translate(27.879375 110.522021) scale(0.088 -0.088)">
       <defs>
        <path id="ArialMT-34" d="M 2069 0 
L 2069 1097 
L 81 1097 
L 81 1613 
L 2172 4581 
L 2631 4581 
L 2631 1613 
L 3250 1613 
L 3250 1097 
L 2631 1097 
L 2631 0 
L 2069 0 
z
M 2069 1613 
L 2069 3678 
L 634 1613 
L 2069 1613 
z
" transform="scale(0.015625)"/>
       </defs>
       <use xlink:href="#ArialMT-34"/>
      </g>
     </g>
    </g>
    <g id="ytick_5">
     <g id="line2d_9">
      <path d="M 41.073 96.201358 
L 176.832 96.201358 
" clip-path="url(#pa9c4f593b0)" style="fill: none; stroke-dasharray: 2.96,1.28; stroke-dashoffset: 0; stroke: #cccccc; stroke-opacity: 0.5; stroke-width: 0.8"/>
     </g>
     <g id="text_10">
      <!-- 5 -->
      <g style="fill: #262626" transform="translate(27.879375 99.350795) scale(0.088 -0.088)">
       <defs>
        <path id="ArialMT-35" d="M 266 1200 
L 856 1250 
Q 922 819 1161 601 
Q 1400 384 1738 384 
Q 2144 384 2425 690 
Q 2706 997 2706 1503 
Q 2706 1984 2436 2262 
Q 2166 2541 1728 2541 
Q 1456 2541 1237 2417 
Q 1019 2294 894 2097 
L 366 2166 
L 809 4519 
L 3088 4519 
L 3088 3981 
L 1259 3981 
L 1013 2750 
Q 1425 3038 1878 3038 
Q 2478 3038 2890 2622 
Q 3303 2206 3303 1553 
Q 3303 931 2941 478 
Q 2500 -78 1738 -78 
Q 1113 -78 717 272 
Q 322 622 266 1200 
z
" transform="scale(0.015625)"/>
       </defs>
       <use xlink:href="#ArialMT-35"/>
      </g>
     </g>
    </g>
    <g id="ytick_6">
     <g id="line2d_10">
      <path d="M 41.073 85.030132 
L 176.832 85.030132 
" clip-path="url(#pa9c4f593b0)" style="fill: none; stroke-dasharray: 2.96,1.28; stroke-dashoffset: 0; stroke: #cccccc; stroke-opacity: 0.5; stroke-width: 0.8"/>
     </g>
     <g id="text_11">
      <!-- 6 -->
      <g style="fill: #262626" transform="translate(27.879375 88.179569) scale(0.088 -0.088)">
       <defs>
        <path id="ArialMT-36" d="M 3184 3459 
L 2625 3416 
Q 2550 3747 2413 3897 
Q 2184 4138 1850 4138 
Q 1581 4138 1378 3988 
Q 1113 3794 959 3422 
Q 806 3050 800 2363 
Q 1003 2672 1297 2822 
Q 1591 2972 1913 2972 
Q 2475 2972 2870 2558 
Q 3266 2144 3266 1488 
Q 3266 1056 3080 686 
Q 2894 316 2569 119 
Q 2244 -78 1831 -78 
Q 1128 -78 684 439 
Q 241 956 241 2144 
Q 241 3472 731 4075 
Q 1159 4600 1884 4600 
Q 2425 4600 2770 4297 
Q 3116 3994 3184 3459 
z
M 888 1484 
Q 888 1194 1011 928 
Q 1134 663 1356 523 
Q 1578 384 1822 384 
Q 2178 384 2434 671 
Q 2691 959 2691 1453 
Q 2691 1928 2437 2201 
Q 2184 2475 1800 2475 
Q 1419 2475 1153 2201 
Q 888 1928 888 1484 
z
" transform="scale(0.015625)"/>
       </defs>
       <use xlink:href="#ArialMT-36"/>
      </g>
     </g>
    </g>
    <g id="ytick_7">
     <g id="line2d_11">
      <path d="M 41.073 73.858906 
L 176.832 73.858906 
" clip-path="url(#pa9c4f593b0)" style="fill: none; stroke-dasharray: 2.96,1.28; stroke-dashoffset: 0; stroke: #cccccc; stroke-opacity: 0.5; stroke-width: 0.8"/>
     </g>
     <g id="text_12">
      <!-- 7 -->
      <g style="fill: #262626" transform="translate(27.879375 77.008343) scale(0.088 -0.088)">
       <defs>
        <path id="ArialMT-37" d="M 303 3981 
L 303 4522 
L 3269 4522 
L 3269 4084 
Q 2831 3619 2401 2847 
Q 1972 2075 1738 1259 
Q 1569 684 1522 0 
L 944 0 
Q 953 541 1156 1306 
Q 1359 2072 1739 2783 
Q 2119 3494 2547 3981 
L 303 3981 
z
" transform="scale(0.015625)"/>
       </defs>
       <use xlink:href="#ArialMT-37"/>
      </g>
     </g>
    </g>
    <g id="ytick_8">
     <g id="line2d_12">
      <path d="M 41.073 62.68768 
L 176.832 62.68768 
" clip-path="url(#pa9c4f593b0)" style="fill: none; stroke-dasharray: 2.96,1.28; stroke-dashoffset: 0; stroke: #cccccc; stroke-opacity: 0.5; stroke-width: 0.8"/>
     </g>
     <g id="text_13">
      <!-- 8 -->
      <g style="fill: #262626" transform="translate(27.879375 65.837118) scale(0.088 -0.088)">
       <defs>
        <path id="ArialMT-38" d="M 1131 2484 
Q 781 2613 612 2850 
Q 444 3088 444 3419 
Q 444 3919 803 4259 
Q 1163 4600 1759 4600 
Q 2359 4600 2725 4251 
Q 3091 3903 3091 3403 
Q 3091 3084 2923 2848 
Q 2756 2613 2416 2484 
Q 2838 2347 3058 2040 
Q 3278 1734 3278 1309 
Q 3278 722 2862 322 
Q 2447 -78 1769 -78 
Q 1091 -78 675 323 
Q 259 725 259 1325 
Q 259 1772 486 2073 
Q 713 2375 1131 2484 
z
M 1019 3438 
Q 1019 3113 1228 2906 
Q 1438 2700 1772 2700 
Q 2097 2700 2305 2904 
Q 2513 3109 2513 3406 
Q 2513 3716 2298 3927 
Q 2084 4138 1766 4138 
Q 1444 4138 1231 3931 
Q 1019 3725 1019 3438 
z
M 838 1322 
Q 838 1081 952 856 
Q 1066 631 1291 507 
Q 1516 384 1775 384 
Q 2178 384 2440 643 
Q 2703 903 2703 1303 
Q 2703 1709 2433 1975 
Q 2163 2241 1756 2241 
Q 1359 2241 1098 1978 
Q 838 1716 838 1322 
z
" transform="scale(0.015625)"/>
       </defs>
       <use xlink:href="#ArialMT-38"/>
      </g>
     </g>
    </g>
    <g id="ytick_9">
     <g id="line2d_13">
      <path d="M 41.073 51.516454 
L 176.832 51.516454 
" clip-path="url(#pa9c4f593b0)" style="fill: none; stroke-dasharray: 2.96,1.28; stroke-dashoffset: 0; stroke: #cccccc; stroke-opacity: 0.5; stroke-width: 0.8"/>
     </g>
     <g id="text_14">
      <!-- 9 -->
      <g style="fill: #262626" transform="translate(27.879375 54.665892) scale(0.088 -0.088)">
       <defs>
        <path id="ArialMT-39" d="M 350 1059 
L 891 1109 
Q 959 728 1153 556 
Q 1347 384 1650 384 
Q 1909 384 2104 503 
Q 2300 622 2425 820 
Q 2550 1019 2634 1356 
Q 2719 1694 2719 2044 
Q 2719 2081 2716 2156 
Q 2547 1888 2255 1720 
Q 1963 1553 1622 1553 
Q 1053 1553 659 1965 
Q 266 2378 266 3053 
Q 266 3750 677 4175 
Q 1088 4600 1706 4600 
Q 2153 4600 2523 4359 
Q 2894 4119 3086 3673 
Q 3278 3228 3278 2384 
Q 3278 1506 3087 986 
Q 2897 466 2520 194 
Q 2144 -78 1638 -78 
Q 1100 -78 759 220 
Q 419 519 350 1059 
z
M 2653 3081 
Q 2653 3566 2395 3850 
Q 2138 4134 1775 4134 
Q 1400 4134 1122 3828 
Q 844 3522 844 3034 
Q 844 2597 1108 2323 
Q 1372 2050 1759 2050 
Q 2150 2050 2401 2323 
Q 2653 2597 2653 3081 
z
" transform="scale(0.015625)"/>
       </defs>
       <use xlink:href="#ArialMT-39"/>
      </g>
     </g>
    </g>
    <g id="ytick_10">
     <g id="line2d_14">
      <path d="M 41.073 40.345228 
L 176.832 40.345228 
" clip-path="url(#pa9c4f593b0)" style="fill: none; stroke-dasharray: 2.96,1.28; stroke-dashoffset: 0; stroke: #cccccc; stroke-opacity: 0.5; stroke-width: 0.8"/>
     </g>
     <g id="text_15">
      <!-- 10 -->
      <g style="fill: #262626" transform="translate(22.98575 43.494666) scale(0.088 -0.088)">
       <use xlink:href="#ArialMT-31"/>
       <use xlink:href="#ArialMT-30" x="55.615234"/>
      </g>
     </g>
    </g>
    <g id="ytick_11">
     <g id="line2d_15">
      <path d="M 41.073 29.174003 
L 176.832 29.174003 
" clip-path="url(#pa9c4f593b0)" style="fill: none; stroke-dasharray: 2.96,1.28; stroke-dashoffset: 0; stroke: #cccccc; stroke-opacity: 0.5; stroke-width: 0.8"/>
     </g>
     <g id="text_16">
      <!-- 11 -->
      <g style="fill: #262626" transform="translate(23.63475 32.32344) scale(0.088 -0.088)">
       <use xlink:href="#ArialMT-31"/>
       <use xlink:href="#ArialMT-31" x="48.240234"/>
      </g>
     </g>
    </g>
    <g id="text_17">
     <!-- Rank -->
     <g style="fill: #262626" transform="translate(17.07775 96.615) rotate(-90) scale(0.096 -0.096)">
      <defs>
       <path id="ArialMT-52" d="M 503 0 
L 503 4581 
L 2534 4581 
Q 3147 4581 3465 4457 
Q 3784 4334 3975 4021 
Q 4166 3709 4166 3331 
Q 4166 2844 3850 2509 
Q 3534 2175 2875 2084 
Q 3116 1969 3241 1856 
Q 3506 1613 3744 1247 
L 4541 0 
L 3778 0 
L 3172 953 
Q 2906 1366 2734 1584 
Q 2563 1803 2427 1890 
Q 2291 1978 2150 2013 
Q 2047 2034 1813 2034 
L 1109 2034 
L 1109 0 
L 503 0 
z
M 1109 2559 
L 2413 2559 
Q 2828 2559 3062 2645 
Q 3297 2731 3419 2920 
Q 3541 3109 3541 3331 
Q 3541 3656 3305 3865 
Q 3069 4075 2559 4075 
L 1109 4075 
L 1109 2559 
z
" transform="scale(0.015625)"/>
       <path id="ArialMT-61" d="M 2588 409 
Q 2275 144 1986 34 
Q 1697 -75 1366 -75 
Q 819 -75 525 192 
Q 231 459 231 875 
Q 231 1119 342 1320 
Q 453 1522 633 1644 
Q 813 1766 1038 1828 
Q 1203 1872 1538 1913 
Q 2219 1994 2541 2106 
Q 2544 2222 2544 2253 
Q 2544 2597 2384 2738 
Q 2169 2928 1744 2928 
Q 1347 2928 1158 2789 
Q 969 2650 878 2297 
L 328 2372 
Q 403 2725 575 2942 
Q 747 3159 1072 3276 
Q 1397 3394 1825 3394 
Q 2250 3394 2515 3294 
Q 2781 3194 2906 3042 
Q 3031 2891 3081 2659 
Q 3109 2516 3109 2141 
L 3109 1391 
Q 3109 606 3145 398 
Q 3181 191 3288 0 
L 2700 0 
Q 2613 175 2588 409 
z
M 2541 1666 
Q 2234 1541 1622 1453 
Q 1275 1403 1131 1340 
Q 988 1278 909 1158 
Q 831 1038 831 891 
Q 831 666 1001 516 
Q 1172 366 1500 366 
Q 1825 366 2078 508 
Q 2331 650 2450 897 
Q 2541 1088 2541 1459 
L 2541 1666 
z
" transform="scale(0.015625)"/>
       <path id="ArialMT-6b" d="M 425 0 
L 425 4581 
L 988 4581 
L 988 1969 
L 2319 3319 
L 3047 3319 
L 1778 2088 
L 3175 0 
L 2481 0 
L 1384 1697 
L 988 1316 
L 988 0 
L 425 0 
z
" transform="scale(0.015625)"/>
      </defs>
      <use xlink:href="#ArialMT-52"/>
      <use xlink:href="#ArialMT-61" x="72.216797"/>
      <use xlink:href="#ArialMT-6e" x="127.832031"/>
      <use xlink:href="#ArialMT-6b" x="183.447266"/>
     </g>
    </g>
   </g>
   <g id="PathCollection_1">
    <defs>
     <path id="me734588524" d="M 0 0.612372 
C 0.162403 0.612372 0.318176 0.547849 0.433013 0.433013 
C 0.547849 0.318176 0.612372 0.162403 0.612372 0 
C 0.612372 -0.162403 0.547849 -0.318176 0.433013 -0.433013 
C 0.318176 -0.547849 0.162403 -0.612372 0 -0.612372 
C -0.162403 -0.612372 -0.318176 -0.547849 -0.433013 -0.433013 
C -0.547849 -0.318176 -0.612372 -0.162403 -0.612372 0 
C -0.612372 0.162403 -0.547849 0.318176 -0.433013 0.433013 
C -0.318176 0.547849 -0.162403 0.612372 0 0.612372 
z
" style="stroke: #9e005d; stroke-opacity: 0.8"/>
    </defs>
    <g clip-path="url(#pa9c4f593b0)">
     <use xlink:href="#me734588524" x="56.249989" y="141.367163" style="fill: #9e005d; fill-opacity: 0.8; stroke: #9e005d; stroke-opacity: 0.8"/>
     <use xlink:href="#me734588524" x="48.911665" y="62.147879" style="fill: #9e005d; fill-opacity: 0.8; stroke: #9e005d; stroke-opacity: 0.8"/>
     <use xlink:href="#me734588524" x="48.911665" y="83.933428" style="fill: #9e005d; fill-opacity: 0.8; stroke: #9e005d; stroke-opacity: 0.8"/>
     <use xlink:href="#me734588524" x="48.578104" y="130.214576" style="fill: #9e005d; fill-opacity: 0.8; stroke: #9e005d; stroke-opacity: 0.8"/>
     <use xlink:href="#me734588524" x="53.915068" y="140.113915" style="fill: #9e005d; fill-opacity: 0.8; stroke: #9e005d; stroke-opacity: 0.8"/>
     <use xlink:href="#me734588524" x="49.578785" y="118.254936" style="fill: #9e005d; fill-opacity: 0.8; stroke: #9e005d; stroke-opacity: 0.8"/>
     <use xlink:href="#me734588524" x="49.245225" y="83.916094" style="fill: #9e005d; fill-opacity: 0.8; stroke: #9e005d; stroke-opacity: 0.8"/>
     <use xlink:href="#me734588524" x="53.915068" y="118.480256" style="fill: #9e005d; fill-opacity: 0.8; stroke: #9e005d; stroke-opacity: 0.8"/>
     <use xlink:href="#me734588524" x="53.247947" y="140.239409" style="fill: #9e005d; fill-opacity: 0.8; stroke: #9e005d; stroke-opacity: 0.8"/>
     <use xlink:href="#me734588524" x="50.579466" y="140.656087" style="fill: #9e005d; fill-opacity: 0.8; stroke: #9e005d; stroke-opacity: 0.8"/>
     <use xlink:href="#me734588524" x="51.246586" y="97.027658" style="fill: #9e005d; fill-opacity: 0.8; stroke: #9e005d; stroke-opacity: 0.8"/>
     <use xlink:href="#me734588524" x="50.913026" y="63.133415" style="fill: #9e005d; fill-opacity: 0.8; stroke: #9e005d; stroke-opacity: 0.8"/>
     <use xlink:href="#me734588524" x="54.248628" y="129.995631" style="fill: #9e005d; fill-opacity: 0.8; stroke: #9e005d; stroke-opacity: 0.8"/>
     <use xlink:href="#me734588524" x="50.579466" y="141.752891" style="fill: #9e005d; fill-opacity: 0.8; stroke: #9e005d; stroke-opacity: 0.8"/>
     <use xlink:href="#me734588524" x="51.913706" y="118.588502" style="fill: #9e005d; fill-opacity: 0.8; stroke: #9e005d; stroke-opacity: 0.8"/>
     <use xlink:href="#me734588524" x="49.912345" y="108.427411" style="fill: #9e005d; fill-opacity: 0.8; stroke: #9e005d; stroke-opacity: 0.8"/>
     <use xlink:href="#me734588524" x="52.247267" y="84.624029" style="fill: #9e005d; fill-opacity: 0.8; stroke: #9e005d; stroke-opacity: 0.8"/>
     <use xlink:href="#me734588524" x="48.578104" y="128.631283" style="fill: #9e005d; fill-opacity: 0.8; stroke: #9e005d; stroke-opacity: 0.8"/>
     <use xlink:href="#me734588524" x="49.245225" y="96.063788" style="fill: #9e005d; fill-opacity: 0.8; stroke: #9e005d; stroke-opacity: 0.8"/>
     <use xlink:href="#me734588524" x="52.914387" y="130.342142" style="fill: #9e005d; fill-opacity: 0.8; stroke: #9e005d; stroke-opacity: 0.8"/>
     <use xlink:href="#me734588524" x="49.912345" y="84.776239" style="fill: #9e005d; fill-opacity: 0.8; stroke: #9e005d; stroke-opacity: 0.8"/>
     <use xlink:href="#me734588524" x="49.578785" y="106.925735" style="fill: #9e005d; fill-opacity: 0.8; stroke: #9e005d; stroke-opacity: 0.8"/>
     <use xlink:href="#me734588524" x="50.913026" y="74.033151" style="fill: #9e005d; fill-opacity: 0.8; stroke: #9e005d; stroke-opacity: 0.8"/>
     <use xlink:href="#me734588524" x="49.578785" y="130.508876" style="fill: #9e005d; fill-opacity: 0.8; stroke: #9e005d; stroke-opacity: 0.8"/>
     <use xlink:href="#me734588524" x="50.913026" y="97.278977" style="fill: #9e005d; fill-opacity: 0.8; stroke: #9e005d; stroke-opacity: 0.8"/>
     <use xlink:href="#me734588524" x="49.912345" y="118.38823" style="fill: #9e005d; fill-opacity: 0.8; stroke: #9e005d; stroke-opacity: 0.8"/>
     <use xlink:href="#me734588524" x="51.913706" y="118.395263" style="fill: #9e005d; fill-opacity: 0.8; stroke: #9e005d; stroke-opacity: 0.8"/>
     <use xlink:href="#me734588524" x="52.580827" y="108.140859" style="fill: #9e005d; fill-opacity: 0.8; stroke: #9e005d; stroke-opacity: 0.8"/>
     <use xlink:href="#me734588524" x="47.577424" y="107.68218" style="fill: #9e005d; fill-opacity: 0.8; stroke: #9e005d; stroke-opacity: 0.8"/>
     <use xlink:href="#me734588524" x="50.913026" y="73.334757" style="fill: #9e005d; fill-opacity: 0.8; stroke: #9e005d; stroke-opacity: 0.8"/>
     <use xlink:href="#me734588524" x="52.580827" y="140.720702" style="fill: #9e005d; fill-opacity: 0.8; stroke: #9e005d; stroke-opacity: 0.8"/>
     <use xlink:href="#me734588524" x="50.913026" y="84.972849" style="fill: #9e005d; fill-opacity: 0.8; stroke: #9e005d; stroke-opacity: 0.8"/>
     <use xlink:href="#me734588524" x="52.914387" y="117.640914" style="fill: #9e005d; fill-opacity: 0.8; stroke: #9e005d; stroke-opacity: 0.8"/>
     <use xlink:href="#me734588524" x="50.913026" y="108.063482" style="fill: #9e005d; fill-opacity: 0.8; stroke: #9e005d; stroke-opacity: 0.8"/>
     <use xlink:href="#me734588524" x="55.249308" y="117.441783" style="fill: #9e005d; fill-opacity: 0.8; stroke: #9e005d; stroke-opacity: 0.8"/>
     <use xlink:href="#me734588524" x="55.916429" y="128.735506" style="fill: #9e005d; fill-opacity: 0.8; stroke: #9e005d; stroke-opacity: 0.8"/>
     <use xlink:href="#me734588524" x="55.582869" y="140.002784" style="fill: #9e005d; fill-opacity: 0.8; stroke: #9e005d; stroke-opacity: 0.8"/>
     <use xlink:href="#me734588524" x="55.916429" y="108.381353" style="fill: #9e005d; fill-opacity: 0.8; stroke: #9e005d; stroke-opacity: 0.8"/>
     <use xlink:href="#me734588524" x="55.582869" y="141.154362" style="fill: #9e005d; fill-opacity: 0.8; stroke: #9e005d; stroke-opacity: 0.8"/>
     <use xlink:href="#me734588524" x="55.249308" y="130.696372" style="fill: #9e005d; fill-opacity: 0.8; stroke: #9e005d; stroke-opacity: 0.8"/>
    </g>
   </g>
   <g id="PolyCollection_1">
    <defs>
     <path id="m6f00559466" d="M 47.577424 -107.431013 
L 47.577424 -79.606162 
L 47.665026 -79.385145 
L 47.752627 -79.164129 
L 47.840229 -78.943112 
L 47.927831 -78.722096 
L 48.015432 -78.501079 
L 48.103034 -78.283992 
L 48.190636 -78.120185 
L 48.278237 -77.957433 
L 48.365839 -77.794681 
L 48.453441 -77.631928 
L 48.541042 -77.469176 
L 48.628644 -77.306424 
L 48.716246 -77.093213 
L 48.803847 -76.866653 
L 48.891449 -76.640092 
L 48.979051 -76.428617 
L 49.066652 -76.183181 
L 49.154254 -75.888866 
L 49.241856 -75.571927 
L 49.329457 -75.341046 
L 49.417059 -75.134442 
L 49.504661 -74.923696 
L 49.592262 -74.717841 
L 49.679864 -74.488198 
L 49.767466 -74.181342 
L 49.855067 -73.876357 
L 49.942669 -73.638716 
L 50.030271 -73.4177 
L 50.117872 -73.196683 
L 50.205474 -72.975667 
L 50.293076 -72.765656 
L 50.380677 -72.552181 
L 50.468279 -72.281785 
L 50.555881 -72.005224 
L 50.643482 -71.748837 
L 50.731084 -71.537292 
L 50.818686 -71.354608 
L 50.906287 -71.169782 
L 50.993889 -70.935074 
L 51.081491 -70.690122 
L 51.169092 -70.490979 
L 51.256694 -70.227572 
L 51.344296 -69.857305 
L 51.431897 -69.538882 
L 51.519499 -69.260017 
L 51.607101 -68.98227 
L 51.694702 -68.789493 
L 51.782304 -68.435194 
L 51.869906 -68.142791 
L 51.957507 -67.861672 
L 52.045109 -67.464058 
L 52.132711 -67.22181 
L 52.220312 -66.918239 
L 52.307914 -66.528747 
L 52.395516 -66.260298 
L 52.483117 -65.949251 
L 52.570719 -65.657403 
L 52.658321 -65.177801 
L 52.745922 -64.84384 
L 52.833524 -64.447321 
L 52.921126 -64.094365 
L 53.008727 -63.660318 
L 53.096329 -63.202313 
L 53.183931 -62.831461 
L 53.271532 -62.443748 
L 53.359134 -61.997729 
L 53.446736 -61.658057 
L 53.534337 -61.188553 
L 53.621939 -60.825587 
L 53.709541 -60.346257 
L 53.797142 -59.932365 
L 53.884744 -59.471476 
L 53.972346 -59.01847 
L 54.059947 -58.60534 
L 54.147549 -58.290229 
L 54.235151 -57.891039 
L 54.322752 -57.427077 
L 54.410354 -56.897976 
L 54.497956 -56.479608 
L 54.585557 -56.05829 
L 54.673159 -55.534067 
L 54.760761 -54.976328 
L 54.848362 -54.418388 
L 54.935964 -53.93498 
L 55.023566 -53.524071 
L 55.111167 -52.995575 
L 55.198769 -52.545572 
L 55.286371 -52.049721 
L 55.373972 -51.46645 
L 55.461574 -50.88318 
L 55.549176 -50.299909 
L 55.636777 -49.717941 
L 55.724379 -49.136149 
L 55.811981 -48.635382 
L 55.899582 -48.150576 
L 55.987184 -47.666316 
L 56.074786 -47.093986 
L 56.162387 -46.500258 
L 56.249989 -45.906531 
L 56.249989 -65.517222 
L 56.249989 -65.517222 
L 56.162387 -65.835013 
L 56.074786 -66.152918 
L 55.987184 -66.470822 
L 55.899582 -66.766109 
L 55.811981 -67.043164 
L 55.724379 -67.318542 
L 55.636777 -67.593771 
L 55.549176 -67.852522 
L 55.461574 -68.145681 
L 55.373972 -68.423151 
L 55.286371 -68.6986 
L 55.198769 -68.938339 
L 55.111167 -69.108277 
L 55.023566 -69.398175 
L 54.935964 -69.61327 
L 54.848362 -69.823033 
L 54.760761 -70.067817 
L 54.673159 -70.311472 
L 54.585557 -70.557385 
L 54.497956 -70.694295 
L 54.410354 -70.872262 
L 54.322752 -71.161936 
L 54.235151 -71.487888 
L 54.147549 -71.796105 
L 54.059947 -72.034658 
L 53.972346 -72.285719 
L 53.884744 -72.636061 
L 53.797142 -72.877254 
L 53.709541 -73.11507 
L 53.621939 -73.327398 
L 53.534337 -73.587842 
L 53.446736 -73.980119 
L 53.359134 -74.352215 
L 53.271532 -74.606258 
L 53.183931 -74.862008 
L 53.096329 -75.119211 
L 53.008727 -75.526791 
L 52.921126 -75.962434 
L 52.833524 -76.325516 
L 52.745922 -76.593847 
L 52.658321 -76.976841 
L 52.570719 -77.303829 
L 52.483117 -77.670825 
L 52.395516 -78.090046 
L 52.307914 -78.444711 
L 52.220312 -78.925712 
L 52.132711 -79.417683 
L 52.045109 -79.910498 
L 51.957507 -80.398366 
L 51.869906 -80.762207 
L 51.782304 -81.192682 
L 51.694702 -81.684167 
L 51.607101 -81.981608 
L 51.519499 -82.525804 
L 51.431897 -83.05784 
L 51.344296 -83.402787 
L 51.256694 -83.973683 
L 51.169092 -84.469734 
L 51.081491 -85.12091 
L 50.993889 -85.660264 
L 50.906287 -86.152467 
L 50.818686 -86.66424 
L 50.731084 -87.093901 
L 50.643482 -87.622936 
L 50.555881 -88.093489 
L 50.468279 -88.563032 
L 50.380677 -89.114745 
L 50.293076 -89.671725 
L 50.205474 -90.225045 
L 50.117872 -90.717958 
L 50.030271 -91.211238 
L 49.942669 -91.777387 
L 49.855067 -92.359872 
L 49.767466 -92.9427 
L 49.679864 -93.525835 
L 49.592262 -94.139448 
L 49.504661 -94.741866 
L 49.417059 -95.338487 
L 49.329457 -95.86841 
L 49.241856 -96.464215 
L 49.154254 -97.023061 
L 49.066652 -97.620059 
L 48.979051 -98.220979 
L 48.891449 -98.82132 
L 48.803847 -99.354497 
L 48.716246 -99.937032 
L 48.628644 -100.515499 
L 48.541042 -101.069809 
L 48.453441 -101.684361 
L 48.365839 -102.267172 
L 48.278237 -102.846116 
L 48.190636 -103.419228 
L 48.103034 -103.99234 
L 48.015432 -104.565452 
L 47.927831 -105.138564 
L 47.840229 -105.711676 
L 47.752627 -106.284789 
L 47.665026 -106.857901 
L 47.577424 -107.431013 
z
" style="stroke: #ffffff; stroke-opacity: 0.15; stroke-width: 0.8"/>
    </defs>
    <g clip-path="url(#pa9c4f593b0)">
     <use xlink:href="#m6f00559466" x="0" y="187.2" style="fill: #9e005d; fill-opacity: 0.15; stroke: #ffffff; stroke-opacity: 0.15; stroke-width: 0.8"/>
    </g>
   </g>
   <g id="PathCollection_2">
    <defs>
     <path id="mbf723eccd2" d="M 0 0.612372 
C 0.162403 0.612372 0.318176 0.547849 0.433013 0.433013 
C 0.547849 0.318176 0.612372 0.162403 0.612372 0 
C 0.612372 -0.162403 0.547849 -0.318176 0.433013 -0.433013 
C 0.318176 -0.547849 0.162403 -0.612372 0 -0.612372 
C -0.162403 -0.612372 -0.318176 -0.547849 -0.433013 -0.433013 
C -0.547849 -0.318176 -0.612372 -0.162403 -0.612372 0 
C -0.612372 0.162403 -0.547849 0.318176 -0.433013 0.433013 
C -0.318176 0.547849 -0.162403 0.612372 0 0.612372 
z
" style="stroke: #008fd7; stroke-opacity: 0.8"/>
    </defs>
    <g clip-path="url(#pa9c4f593b0)">
     <use xlink:href="#mbf723eccd2" x="53.247947" y="140.501192" style="fill: #008fd7; fill-opacity: 0.8; stroke: #008fd7; stroke-opacity: 0.8"/>
     <use xlink:href="#mbf723eccd2" x="53.247947" y="140.143773" style="fill: #008fd7; fill-opacity: 0.8; stroke: #008fd7; stroke-opacity: 0.8"/>
     <use xlink:href="#mbf723eccd2" x="68.925276" y="140.325768" style="fill: #008fd7; fill-opacity: 0.8; stroke: #008fd7; stroke-opacity: 0.8"/>
     <use xlink:href="#mbf723eccd2" x="49.245225" y="140.762555" style="fill: #008fd7; fill-opacity: 0.8; stroke: #008fd7; stroke-opacity: 0.8"/>
     <use xlink:href="#mbf723eccd2" x="50.913026" y="141.109493" style="fill: #008fd7; fill-opacity: 0.8; stroke: #008fd7; stroke-opacity: 0.8"/>
     <use xlink:href="#mbf723eccd2" x="69.258837" y="140.479293" style="fill: #008fd7; fill-opacity: 0.8; stroke: #008fd7; stroke-opacity: 0.8"/>
     <use xlink:href="#mbf723eccd2" x="70.926638" y="128.964227" style="fill: #008fd7; fill-opacity: 0.8; stroke: #008fd7; stroke-opacity: 0.8"/>
     <use xlink:href="#mbf723eccd2" x="70.593077" y="141.655563" style="fill: #008fd7; fill-opacity: 0.8; stroke: #008fd7; stroke-opacity: 0.8"/>
     <use xlink:href="#mbf723eccd2" x="58.25135" y="140.071551" style="fill: #008fd7; fill-opacity: 0.8; stroke: #008fd7; stroke-opacity: 0.8"/>
     <use xlink:href="#mbf723eccd2" x="50.913026" y="139.793675" style="fill: #008fd7; fill-opacity: 0.8; stroke: #008fd7; stroke-opacity: 0.8"/>
     <use xlink:href="#mbf723eccd2" x="49.245225" y="140.51624" style="fill: #008fd7; fill-opacity: 0.8; stroke: #008fd7; stroke-opacity: 0.8"/>
     <use xlink:href="#mbf723eccd2" x="48.911665" y="140.918828" style="fill: #008fd7; fill-opacity: 0.8; stroke: #008fd7; stroke-opacity: 0.8"/>
     <use xlink:href="#mbf723eccd2" x="48.578104" y="141.670217" style="fill: #008fd7; fill-opacity: 0.8; stroke: #008fd7; stroke-opacity: 0.8"/>
     <use xlink:href="#mbf723eccd2" x="49.245225" y="140.881838" style="fill: #008fd7; fill-opacity: 0.8; stroke: #008fd7; stroke-opacity: 0.8"/>
     <use xlink:href="#mbf723eccd2" x="53.581507" y="141.9558" style="fill: #008fd7; fill-opacity: 0.8; stroke: #008fd7; stroke-opacity: 0.8"/>
     <use xlink:href="#mbf723eccd2" x="68.925276" y="141.055345" style="fill: #008fd7; fill-opacity: 0.8; stroke: #008fd7; stroke-opacity: 0.8"/>
     <use xlink:href="#mbf723eccd2" x="50.579466" y="128.833361" style="fill: #008fd7; fill-opacity: 0.8; stroke: #008fd7; stroke-opacity: 0.8"/>
     <use xlink:href="#mbf723eccd2" x="51.913706" y="95.999668" style="fill: #008fd7; fill-opacity: 0.8; stroke: #008fd7; stroke-opacity: 0.8"/>
     <use xlink:href="#mbf723eccd2" x="58.25135" y="141.631867" style="fill: #008fd7; fill-opacity: 0.8; stroke: #008fd7; stroke-opacity: 0.8"/>
     <use xlink:href="#mbf723eccd2" x="58.25135" y="141.520708" style="fill: #008fd7; fill-opacity: 0.8; stroke: #008fd7; stroke-opacity: 0.8"/>
     <use xlink:href="#mbf723eccd2" x="69.592397" y="141.835711" style="fill: #008fd7; fill-opacity: 0.8; stroke: #008fd7; stroke-opacity: 0.8"/>
     <use xlink:href="#mbf723eccd2" x="71.927318" y="129.717518" style="fill: #008fd7; fill-opacity: 0.8; stroke: #008fd7; stroke-opacity: 0.8"/>
     <use xlink:href="#mbf723eccd2" x="68.925276" y="140.291613" style="fill: #008fd7; fill-opacity: 0.8; stroke: #008fd7; stroke-opacity: 0.8"/>
     <use xlink:href="#mbf723eccd2" x="49.578785" y="139.8052" style="fill: #008fd7; fill-opacity: 0.8; stroke: #008fd7; stroke-opacity: 0.8"/>
     <use xlink:href="#mbf723eccd2" x="50.913026" y="141.518621" style="fill: #008fd7; fill-opacity: 0.8; stroke: #008fd7; stroke-opacity: 0.8"/>
     <use xlink:href="#mbf723eccd2" x="71.593758" y="139.966566" style="fill: #008fd7; fill-opacity: 0.8; stroke: #008fd7; stroke-opacity: 0.8"/>
     <use xlink:href="#mbf723eccd2" x="49.578785" y="141.480223" style="fill: #008fd7; fill-opacity: 0.8; stroke: #008fd7; stroke-opacity: 0.8"/>
     <use xlink:href="#mbf723eccd2" x="68.925276" y="141.813361" style="fill: #008fd7; fill-opacity: 0.8; stroke: #008fd7; stroke-opacity: 0.8"/>
     <use xlink:href="#mbf723eccd2" x="76.930721" y="107.249135" style="fill: #008fd7; fill-opacity: 0.8; stroke: #008fd7; stroke-opacity: 0.8"/>
     <use xlink:href="#mbf723eccd2" x="49.578785" y="141.698506" style="fill: #008fd7; fill-opacity: 0.8; stroke: #008fd7; stroke-opacity: 0.8"/>
     <use xlink:href="#mbf723eccd2" x="66.256795" y="117.710807" style="fill: #008fd7; fill-opacity: 0.8; stroke: #008fd7; stroke-opacity: 0.8"/>
     <use xlink:href="#mbf723eccd2" x="75.59648" y="106.847541" style="fill: #008fd7; fill-opacity: 0.8; stroke: #008fd7; stroke-opacity: 0.8"/>
     <use xlink:href="#mbf723eccd2" x="68.925276" y="141.058191" style="fill: #008fd7; fill-opacity: 0.8; stroke: #008fd7; stroke-opacity: 0.8"/>
     <use xlink:href="#mbf723eccd2" x="50.913026" y="141.436819" style="fill: #008fd7; fill-opacity: 0.8; stroke: #008fd7; stroke-opacity: 0.8"/>
     <use xlink:href="#mbf723eccd2" x="71.927318" y="140.969504" style="fill: #008fd7; fill-opacity: 0.8; stroke: #008fd7; stroke-opacity: 0.8"/>
     <use xlink:href="#mbf723eccd2" x="70.593077" y="140.119019" style="fill: #008fd7; fill-opacity: 0.8; stroke: #008fd7; stroke-opacity: 0.8"/>
     <use xlink:href="#mbf723eccd2" x="48.911665" y="140.296988" style="fill: #008fd7; fill-opacity: 0.8; stroke: #008fd7; stroke-opacity: 0.8"/>
     <use xlink:href="#mbf723eccd2" x="70.593077" y="140.343031" style="fill: #008fd7; fill-opacity: 0.8; stroke: #008fd7; stroke-opacity: 0.8"/>
     <use xlink:href="#mbf723eccd2" x="80.266323" y="140.82161" style="fill: #008fd7; fill-opacity: 0.8; stroke: #008fd7; stroke-opacity: 0.8"/>
     <use xlink:href="#mbf723eccd2" x="53.915068" y="140.680091" style="fill: #008fd7; fill-opacity: 0.8; stroke: #008fd7; stroke-opacity: 0.8"/>
     <use xlink:href="#mbf723eccd2" x="88.605328" y="118.227151" style="fill: #008fd7; fill-opacity: 0.8; stroke: #008fd7; stroke-opacity: 0.8"/>
     <use xlink:href="#mbf723eccd2" x="80.266323" y="141.518599" style="fill: #008fd7; fill-opacity: 0.8; stroke: #008fd7; stroke-opacity: 0.8"/>
     <use xlink:href="#mbf723eccd2" x="55.582869" y="85.997451" style="fill: #008fd7; fill-opacity: 0.8; stroke: #008fd7; stroke-opacity: 0.8"/>
     <use xlink:href="#mbf723eccd2" x="49.912345" y="141.888519" style="fill: #008fd7; fill-opacity: 0.8; stroke: #008fd7; stroke-opacity: 0.8"/>
     <use xlink:href="#mbf723eccd2" x="71.927318" y="141.388973" style="fill: #008fd7; fill-opacity: 0.8; stroke: #008fd7; stroke-opacity: 0.8"/>
     <use xlink:href="#mbf723eccd2" x="56.249989" y="130.35314" style="fill: #008fd7; fill-opacity: 0.8; stroke: #008fd7; stroke-opacity: 0.8"/>
     <use xlink:href="#mbf723eccd2" x="69.925957" y="129.919173" style="fill: #008fd7; fill-opacity: 0.8; stroke: #008fd7; stroke-opacity: 0.8"/>
     <use xlink:href="#mbf723eccd2" x="49.912345" y="140.312052" style="fill: #008fd7; fill-opacity: 0.8; stroke: #008fd7; stroke-opacity: 0.8"/>
     <use xlink:href="#mbf723eccd2" x="52.580827" y="140.76576" style="fill: #008fd7; fill-opacity: 0.8; stroke: #008fd7; stroke-opacity: 0.8"/>
     <use xlink:href="#mbf723eccd2" x="58.25135" y="140.293699" style="fill: #008fd7; fill-opacity: 0.8; stroke: #008fd7; stroke-opacity: 0.8"/>
     <use xlink:href="#mbf723eccd2" x="117.958625" y="85.894681" style="fill: #008fd7; fill-opacity: 0.8; stroke: #008fd7; stroke-opacity: 0.8"/>
     <use xlink:href="#mbf723eccd2" x="54.915748" y="141.169315" style="fill: #008fd7; fill-opacity: 0.8; stroke: #008fd7; stroke-opacity: 0.8"/>
     <use xlink:href="#mbf723eccd2" x="117.958625" y="74.344216" style="fill: #008fd7; fill-opacity: 0.8; stroke: #008fd7; stroke-opacity: 0.8"/>
     <use xlink:href="#mbf723eccd2" x="48.911665" y="141.133683" style="fill: #008fd7; fill-opacity: 0.8; stroke: #008fd7; stroke-opacity: 0.8"/>
     <use xlink:href="#mbf723eccd2" x="68.925276" y="106.523929" style="fill: #008fd7; fill-opacity: 0.8; stroke: #008fd7; stroke-opacity: 0.8"/>
     <use xlink:href="#mbf723eccd2" x="52.914387" y="140.24593" style="fill: #008fd7; fill-opacity: 0.8; stroke: #008fd7; stroke-opacity: 0.8"/>
     <use xlink:href="#mbf723eccd2" x="51.913706" y="140.696221" style="fill: #008fd7; fill-opacity: 0.8; stroke: #008fd7; stroke-opacity: 0.8"/>
     <use xlink:href="#mbf723eccd2" x="48.578104" y="129.702399" style="fill: #008fd7; fill-opacity: 0.8; stroke: #008fd7; stroke-opacity: 0.8"/>
     <use xlink:href="#mbf723eccd2" x="50.913026" y="141.925519" style="fill: #008fd7; fill-opacity: 0.8; stroke: #008fd7; stroke-opacity: 0.8"/>
     <use xlink:href="#mbf723eccd2" x="117.958625" y="97.018173" style="fill: #008fd7; fill-opacity: 0.8; stroke: #008fd7; stroke-opacity: 0.8"/>
     <use xlink:href="#mbf723eccd2" x="71.927318" y="140.133506" style="fill: #008fd7; fill-opacity: 0.8; stroke: #008fd7; stroke-opacity: 0.8"/>
     <use xlink:href="#mbf723eccd2" x="53.915068" y="129.824115" style="fill: #008fd7; fill-opacity: 0.8; stroke: #008fd7; stroke-opacity: 0.8"/>
     <use xlink:href="#mbf723eccd2" x="75.26292" y="118.175879" style="fill: #008fd7; fill-opacity: 0.8; stroke: #008fd7; stroke-opacity: 0.8"/>
     <use xlink:href="#mbf723eccd2" x="48.911665" y="117.492335" style="fill: #008fd7; fill-opacity: 0.8; stroke: #008fd7; stroke-opacity: 0.8"/>
     <use xlink:href="#mbf723eccd2" x="54.582188" y="118.574277" style="fill: #008fd7; fill-opacity: 0.8; stroke: #008fd7; stroke-opacity: 0.8"/>
     <use xlink:href="#mbf723eccd2" x="52.580827" y="141.44278" style="fill: #008fd7; fill-opacity: 0.8; stroke: #008fd7; stroke-opacity: 0.8"/>
     <use xlink:href="#mbf723eccd2" x="52.914387" y="119.231679" style="fill: #008fd7; fill-opacity: 0.8; stroke: #008fd7; stroke-opacity: 0.8"/>
     <use xlink:href="#mbf723eccd2" x="52.247267" y="140.632463" style="fill: #008fd7; fill-opacity: 0.8; stroke: #008fd7; stroke-opacity: 0.8"/>
     <use xlink:href="#mbf723eccd2" x="54.248628" y="86.13034" style="fill: #008fd7; fill-opacity: 0.8; stroke: #008fd7; stroke-opacity: 0.8"/>
     <use xlink:href="#mbf723eccd2" x="50.579466" y="129.998263" style="fill: #008fd7; fill-opacity: 0.8; stroke: #008fd7; stroke-opacity: 0.8"/>
     <use xlink:href="#mbf723eccd2" x="170.661136" y="117.738183" style="fill: #008fd7; fill-opacity: 0.8; stroke: #008fd7; stroke-opacity: 0.8"/>
     <use xlink:href="#mbf723eccd2" x="49.245225" y="141.353249" style="fill: #008fd7; fill-opacity: 0.8; stroke: #008fd7; stroke-opacity: 0.8"/>
     <use xlink:href="#mbf723eccd2" x="52.247267" y="140.514846" style="fill: #008fd7; fill-opacity: 0.8; stroke: #008fd7; stroke-opacity: 0.8"/>
     <use xlink:href="#mbf723eccd2" x="124.629829" y="141.957273" style="fill: #008fd7; fill-opacity: 0.8; stroke: #008fd7; stroke-opacity: 0.8"/>
     <use xlink:href="#mbf723eccd2" x="49.245225" y="139.885558" style="fill: #008fd7; fill-opacity: 0.8; stroke: #008fd7; stroke-opacity: 0.8"/>
     <use xlink:href="#mbf723eccd2" x="68.925276" y="29.004383" style="fill: #008fd7; fill-opacity: 0.8; stroke: #008fd7; stroke-opacity: 0.8"/>
     <use xlink:href="#mbf723eccd2" x="90.940249" y="118.75807" style="fill: #008fd7; fill-opacity: 0.8; stroke: #008fd7; stroke-opacity: 0.8"/>
     <use xlink:href="#mbf723eccd2" x="54.582188" y="141.39318" style="fill: #008fd7; fill-opacity: 0.8; stroke: #008fd7; stroke-opacity: 0.8"/>
     <use xlink:href="#mbf723eccd2" x="55.582869" y="117.444417" style="fill: #008fd7; fill-opacity: 0.8; stroke: #008fd7; stroke-opacity: 0.8"/>
     <use xlink:href="#mbf723eccd2" x="49.578785" y="140.47835" style="fill: #008fd7; fill-opacity: 0.8; stroke: #008fd7; stroke-opacity: 0.8"/>
     <use xlink:href="#mbf723eccd2" x="55.249308" y="141.645466" style="fill: #008fd7; fill-opacity: 0.8; stroke: #008fd7; stroke-opacity: 0.8"/>
     <use xlink:href="#mbf723eccd2" x="90.940249" y="118.54495" style="fill: #008fd7; fill-opacity: 0.8; stroke: #008fd7; stroke-opacity: 0.8"/>
     <use xlink:href="#mbf723eccd2" x="55.582869" y="129.161539" style="fill: #008fd7; fill-opacity: 0.8; stroke: #008fd7; stroke-opacity: 0.8"/>
     <use xlink:href="#mbf723eccd2" x="47.243864" y="141.941477" style="fill: #008fd7; fill-opacity: 0.8; stroke: #008fd7; stroke-opacity: 0.8"/>
     <use xlink:href="#mbf723eccd2" x="50.913026" y="128.710017" style="fill: #008fd7; fill-opacity: 0.8; stroke: #008fd7; stroke-opacity: 0.8"/>
     <use xlink:href="#mbf723eccd2" x="47.577424" y="140.484605" style="fill: #008fd7; fill-opacity: 0.8; stroke: #008fd7; stroke-opacity: 0.8"/>
     <use xlink:href="#mbf723eccd2" x="47.577424" y="139.85146" style="fill: #008fd7; fill-opacity: 0.8; stroke: #008fd7; stroke-opacity: 0.8"/>
     <use xlink:href="#mbf723eccd2" x="53.247947" y="96.417788" style="fill: #008fd7; fill-opacity: 0.8; stroke: #008fd7; stroke-opacity: 0.8"/>
     <use xlink:href="#mbf723eccd2" x="121.294227" y="117.884238" style="fill: #008fd7; fill-opacity: 0.8; stroke: #008fd7; stroke-opacity: 0.8"/>
     <use xlink:href="#mbf723eccd2" x="56.583549" y="74.474905" style="fill: #008fd7; fill-opacity: 0.8; stroke: #008fd7; stroke-opacity: 0.8"/>
     <use xlink:href="#mbf723eccd2" x="50.579466" y="140.005214" style="fill: #008fd7; fill-opacity: 0.8; stroke: #008fd7; stroke-opacity: 0.8"/>
     <use xlink:href="#mbf723eccd2" x="50.579466" y="140.659437" style="fill: #008fd7; fill-opacity: 0.8; stroke: #008fd7; stroke-opacity: 0.8"/>
     <use xlink:href="#mbf723eccd2" x="49.578785" y="129.783053" style="fill: #008fd7; fill-opacity: 0.8; stroke: #008fd7; stroke-opacity: 0.8"/>
     <use xlink:href="#mbf723eccd2" x="53.915068" y="108.147189" style="fill: #008fd7; fill-opacity: 0.8; stroke: #008fd7; stroke-opacity: 0.8"/>
     <use xlink:href="#mbf723eccd2" x="77.264281" y="128.852283" style="fill: #008fd7; fill-opacity: 0.8; stroke: #008fd7; stroke-opacity: 0.8"/>
     <use xlink:href="#mbf723eccd2" x="55.249308" y="106.596965" style="fill: #008fd7; fill-opacity: 0.8; stroke: #008fd7; stroke-opacity: 0.8"/>
     <use xlink:href="#mbf723eccd2" x="52.914387" y="62.160612" style="fill: #008fd7; fill-opacity: 0.8; stroke: #008fd7; stroke-opacity: 0.8"/>
     <use xlink:href="#mbf723eccd2" x="124.629829" y="106.716815" style="fill: #008fd7; fill-opacity: 0.8; stroke: #008fd7; stroke-opacity: 0.8"/>
     <use xlink:href="#mbf723eccd2" x="49.245225" y="108.344242" style="fill: #008fd7; fill-opacity: 0.8; stroke: #008fd7; stroke-opacity: 0.8"/>
     <use xlink:href="#mbf723eccd2" x="51.246586" y="130.433161" style="fill: #008fd7; fill-opacity: 0.8; stroke: #008fd7; stroke-opacity: 0.8"/>
     <use xlink:href="#mbf723eccd2" x="59.252031" y="63.667315" style="fill: #008fd7; fill-opacity: 0.8; stroke: #008fd7; stroke-opacity: 0.8"/>
     <use xlink:href="#mbf723eccd2" x="49.912345" y="119.608201" style="fill: #008fd7; fill-opacity: 0.8; stroke: #008fd7; stroke-opacity: 0.8"/>
     <use xlink:href="#mbf723eccd2" x="78.598522" y="28.862727" style="fill: #008fd7; fill-opacity: 0.8; stroke: #008fd7; stroke-opacity: 0.8"/>
     <use xlink:href="#mbf723eccd2" x="53.581507" y="108.116006" style="fill: #008fd7; fill-opacity: 0.8; stroke: #008fd7; stroke-opacity: 0.8"/>
     <use xlink:href="#mbf723eccd2" x="53.581507" y="62.709913" style="fill: #008fd7; fill-opacity: 0.8; stroke: #008fd7; stroke-opacity: 0.8"/>
     <use xlink:href="#mbf723eccd2" x="55.916429" y="140.91233" style="fill: #008fd7; fill-opacity: 0.8; stroke: #008fd7; stroke-opacity: 0.8"/>
     <use xlink:href="#mbf723eccd2" x="58.25135" y="141.56607" style="fill: #008fd7; fill-opacity: 0.8; stroke: #008fd7; stroke-opacity: 0.8"/>
     <use xlink:href="#mbf723eccd2" x="58.58491" y="141.727422" style="fill: #008fd7; fill-opacity: 0.8; stroke: #008fd7; stroke-opacity: 0.8"/>
     <use xlink:href="#mbf723eccd2" x="55.916429" y="139.782496" style="fill: #008fd7; fill-opacity: 0.8; stroke: #008fd7; stroke-opacity: 0.8"/>
     <use xlink:href="#mbf723eccd2" x="57.25067" y="129.961204" style="fill: #008fd7; fill-opacity: 0.8; stroke: #008fd7; stroke-opacity: 0.8"/>
     <use xlink:href="#mbf723eccd2" x="55.249308" y="140.5887" style="fill: #008fd7; fill-opacity: 0.8; stroke: #008fd7; stroke-opacity: 0.8"/>
     <use xlink:href="#mbf723eccd2" x="60.919832" y="95.686846" style="fill: #008fd7; fill-opacity: 0.8; stroke: #008fd7; stroke-opacity: 0.8"/>
     <use xlink:href="#mbf723eccd2" x="55.582869" y="141.50067" style="fill: #008fd7; fill-opacity: 0.8; stroke: #008fd7; stroke-opacity: 0.8"/>
     <use xlink:href="#mbf723eccd2" x="55.249308" y="108.454044" style="fill: #008fd7; fill-opacity: 0.8; stroke: #008fd7; stroke-opacity: 0.8"/>
     <use xlink:href="#mbf723eccd2" x="55.582869" y="140.958983" style="fill: #008fd7; fill-opacity: 0.8; stroke: #008fd7; stroke-opacity: 0.8"/>
     <use xlink:href="#mbf723eccd2" x="60.252711" y="96.101939" style="fill: #008fd7; fill-opacity: 0.8; stroke: #008fd7; stroke-opacity: 0.8"/>
     <use xlink:href="#mbf723eccd2" x="58.25135" y="140.592629" style="fill: #008fd7; fill-opacity: 0.8; stroke: #008fd7; stroke-opacity: 0.8"/>
     <use xlink:href="#mbf723eccd2" x="58.58491" y="139.822762" style="fill: #008fd7; fill-opacity: 0.8; stroke: #008fd7; stroke-opacity: 0.8"/>
     <use xlink:href="#mbf723eccd2" x="58.918471" y="140.767986" style="fill: #008fd7; fill-opacity: 0.8; stroke: #008fd7; stroke-opacity: 0.8"/>
     <use xlink:href="#mbf723eccd2" x="58.918471" y="140.98933" style="fill: #008fd7; fill-opacity: 0.8; stroke: #008fd7; stroke-opacity: 0.8"/>
     <use xlink:href="#mbf723eccd2" x="152.648886" y="128.764986" style="fill: #008fd7; fill-opacity: 0.8; stroke: #008fd7; stroke-opacity: 0.8"/>
     <use xlink:href="#mbf723eccd2" x="152.648886" y="141.755447" style="fill: #008fd7; fill-opacity: 0.8; stroke: #008fd7; stroke-opacity: 0.8"/>
     <use xlink:href="#mbf723eccd2" x="152.648886" y="141.30699" style="fill: #008fd7; fill-opacity: 0.8; stroke: #008fd7; stroke-opacity: 0.8"/>
    </g>
   </g>
   <g id="PolyCollection_2">
    <defs>
     <path id="m7afa8faca5" d="M 47.243864 -62.301203 
L 47.243864 -53.080777 
L 48.490503 -53.422901 
L 49.737142 -53.736188 
L 50.983781 -54.065384 
L 52.23042 -54.313803 
L 53.477059 -54.646221 
L 54.723698 -54.851331 
L 55.970337 -55.118141 
L 57.216977 -55.382262 
L 58.463616 -55.567168 
L 59.710255 -55.756609 
L 60.956894 -55.954852 
L 62.203533 -56.151963 
L 63.450172 -56.330056 
L 64.696811 -56.503804 
L 65.94345 -56.652286 
L 67.19009 -56.847233 
L 68.436729 -56.95479 
L 69.683368 -57.087151 
L 70.930007 -57.172431 
L 72.176646 -57.252553 
L 73.423285 -57.319779 
L 74.669924 -57.352249 
L 75.916563 -57.483159 
L 77.163202 -57.597123 
L 78.409842 -57.682564 
L 79.656481 -57.834811 
L 80.90312 -57.868304 
L 82.149759 -57.936944 
L 83.396398 -58.021737 
L 84.643037 -58.091673 
L 85.889676 -58.146172 
L 87.136315 -58.226622 
L 88.382955 -58.306289 
L 89.629594 -58.413366 
L 90.876233 -58.518158 
L 92.122872 -58.575544 
L 93.369511 -58.63653 
L 94.61615 -58.683119 
L 95.862789 -58.796371 
L 97.109428 -58.835748 
L 98.356067 -58.91001 
L 99.602707 -58.985787 
L 100.849346 -59.000813 
L 102.095985 -58.99281 
L 103.342624 -59.015177 
L 104.589263 -59.115972 
L 105.835902 -59.109691 
L 107.082541 -59.154559 
L 108.32918 -59.146341 
L 109.57582 -59.176276 
L 110.822459 -59.244675 
L 112.069098 -59.278556 
L 113.315737 -59.331057 
L 114.562376 -59.383121 
L 115.809015 -59.353394 
L 117.055654 -59.324765 
L 118.302293 -59.370907 
L 119.548933 -59.430528 
L 120.795572 -59.453257 
L 122.042211 -59.456003 
L 123.28885 -59.458749 
L 124.535489 -59.461495 
L 125.782128 -59.465373 
L 127.028767 -59.469437 
L 128.275406 -59.473501 
L 129.522045 -59.477565 
L 130.768685 -59.481629 
L 132.015324 -59.485693 
L 133.261963 -59.490402 
L 134.508602 -59.517707 
L 135.755241 -59.545013 
L 137.00188 -59.572318 
L 138.248519 -59.599624 
L 139.495158 -59.626929 
L 140.741798 -59.654235 
L 141.988437 -59.681541 
L 143.235076 -59.708846 
L 144.481715 -59.736152 
L 145.728354 -59.763892 
L 146.974993 -59.791916 
L 148.221632 -59.819939 
L 149.468271 -59.847963 
L 150.71491 -59.851965 
L 151.96155 -59.842319 
L 153.208189 -59.832672 
L 154.454828 -59.823026 
L 155.701467 -59.81338 
L 156.948106 -59.830977 
L 158.194745 -59.863329 
L 159.441384 -59.899701 
L 160.688023 -59.938868 
L 161.934663 -59.978034 
L 163.181302 -60.017201 
L 164.427941 -60.056367 
L 165.67458 -60.095534 
L 166.921219 -60.109799 
L 168.167858 -60.119629 
L 169.414497 -60.150104 
L 170.661136 -60.137345 
L 170.661136 -101.622332 
L 170.661136 -101.622332 
L 169.414497 -101.148983 
L 168.167858 -100.675635 
L 166.921219 -100.202286 
L 165.67458 -99.728937 
L 164.427941 -99.255589 
L 163.181302 -98.78224 
L 161.934663 -98.308801 
L 160.688023 -97.834154 
L 159.441384 -97.359508 
L 158.194745 -96.884862 
L 156.948106 -96.410216 
L 155.701467 -95.93557 
L 154.454828 -95.460924 
L 153.208189 -94.986277 
L 151.96155 -94.511631 
L 150.71491 -94.036985 
L 149.468271 -93.562339 
L 148.221632 -93.087693 
L 146.974993 -92.613047 
L 145.728354 -92.138401 
L 144.481715 -91.663754 
L 143.235076 -91.189108 
L 141.988437 -90.714462 
L 140.741798 -90.245112 
L 139.495158 -89.812421 
L 138.248519 -89.379731 
L 137.00188 -88.947041 
L 135.755241 -88.514351 
L 134.508602 -88.069841 
L 133.261963 -87.637036 
L 132.015324 -87.20423 
L 130.768685 -86.771424 
L 129.522045 -86.338618 
L 128.275406 -85.905813 
L 127.028767 -85.473007 
L 125.782128 -85.040201 
L 124.535489 -84.607395 
L 123.28885 -84.17459 
L 122.042211 -83.741196 
L 120.795572 -83.250224 
L 119.548933 -82.756217 
L 118.302293 -82.26221 
L 117.055654 -81.775828 
L 115.809015 -81.346719 
L 114.562376 -80.91761 
L 113.315737 -80.4885 
L 112.069098 -80.05767 
L 110.822459 -79.625785 
L 109.57582 -79.1236 
L 108.32918 -78.687598 
L 107.082541 -78.255734 
L 105.835902 -77.823497 
L 104.589263 -77.387884 
L 103.342624 -76.883762 
L 102.095985 -76.379641 
L 100.849346 -75.87475 
L 99.602707 -75.368118 
L 98.356067 -74.891051 
L 97.109428 -74.470373 
L 95.862789 -73.944558 
L 94.61615 -73.414096 
L 93.369511 -72.960207 
L 92.122872 -72.527773 
L 90.876233 -72.138446 
L 89.629594 -71.835474 
L 88.382955 -71.418141 
L 87.136315 -70.970418 
L 85.889676 -70.480667 
L 84.643037 -69.998038 
L 83.396398 -69.507494 
L 82.149759 -69.128153 
L 80.90312 -68.709816 
L 79.656481 -68.334552 
L 78.409842 -67.911827 
L 77.163202 -67.495314 
L 75.916563 -67.243981 
L 74.669924 -66.767906 
L 73.423285 -66.48445 
L 72.176646 -66.172082 
L 70.930007 -65.815566 
L 69.683368 -65.468079 
L 68.436729 -65.129328 
L 67.19009 -64.747568 
L 65.94345 -64.508402 
L 64.696811 -64.224765 
L 63.450172 -63.976719 
L 62.203533 -63.794984 
L 60.956894 -63.602311 
L 59.710255 -63.471362 
L 58.463616 -63.312823 
L 57.216977 -63.208163 
L 55.970337 -63.019537 
L 54.723698 -62.893343 
L 53.477059 -62.836009 
L 52.23042 -62.734812 
L 50.983781 -62.596692 
L 49.737142 -62.459127 
L 48.490503 -62.359596 
L 47.243864 -62.301203 
z
" style="stroke: #ffffff; stroke-opacity: 0.15; stroke-width: 0.8"/>
    </defs>
    <g clip-path="url(#pa9c4f593b0)">
     <use xlink:href="#m7afa8faca5" x="0" y="187.2" style="fill: #008fd7; fill-opacity: 0.15; stroke: #ffffff; stroke-opacity: 0.15; stroke-width: 0.8"/>
    </g>
   </g>
   <g id="line2d_16">
    <path d="M 47.577424 93.999822 
L 47.665026 94.387179 
L 47.752627 94.774536 
L 47.840229 95.161892 
L 47.927831 95.549249 
L 48.015432 95.936606 
L 48.103034 96.323962 
L 48.190636 96.711319 
L 48.278237 97.098675 
L 48.365839 97.486032 
L 48.453441 97.873389 
L 48.541042 98.260745 
L 48.628644 98.648102 
L 48.716246 99.035459 
L 48.803847 99.422815 
L 48.891449 99.810172 
L 48.979051 100.197529 
L 49.066652 100.584885 
L 49.154254 100.972242 
L 49.241856 101.359598 
L 49.329457 101.746955 
L 49.417059 102.134312 
L 49.504661 102.521668 
L 49.592262 102.909025 
L 49.679864 103.296382 
L 49.767466 103.683738 
L 49.855067 104.071095 
L 49.942669 104.458452 
L 50.030271 104.845808 
L 50.117872 105.233165 
L 50.205474 105.620521 
L 50.293076 106.007878 
L 50.380677 106.395235 
L 50.468279 106.782591 
L 50.555881 107.169948 
L 50.643482 107.557305 
L 50.731084 107.944661 
L 50.818686 108.332018 
L 50.906287 108.719375 
L 50.993889 109.106731 
L 51.081491 109.494088 
L 51.169092 109.881444 
L 51.256694 110.268801 
L 51.344296 110.656158 
L 51.431897 111.043514 
L 51.519499 111.430871 
L 51.607101 111.818228 
L 51.694702 112.205584 
L 51.782304 112.592941 
L 51.869906 112.980298 
L 51.957507 113.367654 
L 52.045109 113.755011 
L 52.132711 114.142368 
L 52.220312 114.529724 
L 52.307914 114.917081 
L 52.395516 115.304437 
L 52.483117 115.691794 
L 52.570719 116.079151 
L 52.658321 116.466507 
L 52.745922 116.853864 
L 52.833524 117.241221 
L 52.921126 117.628577 
L 53.008727 118.015934 
L 53.096329 118.403291 
L 53.183931 118.790647 
L 53.271532 119.178004 
L 53.359134 119.56536 
L 53.446736 119.952717 
L 53.534337 120.340074 
L 53.621939 120.72743 
L 53.709541 121.114787 
L 53.797142 121.502144 
L 53.884744 121.8895 
L 53.972346 122.276857 
L 54.059947 122.664214 
L 54.147549 123.05157 
L 54.235151 123.438927 
L 54.322752 123.826283 
L 54.410354 124.21364 
L 54.497956 124.600997 
L 54.585557 124.988353 
L 54.673159 125.37571 
L 54.760761 125.763067 
L 54.848362 126.150423 
L 54.935964 126.53778 
L 55.023566 126.925137 
L 55.111167 127.312493 
L 55.198769 127.69985 
L 55.286371 128.087206 
L 55.373972 128.474563 
L 55.461574 128.86192 
L 55.549176 129.249276 
L 55.636777 129.636633 
L 55.724379 130.02399 
L 55.811981 130.411346 
L 55.899582 130.798703 
L 55.987184 131.18606 
L 56.074786 131.573416 
L 56.162387 131.960773 
L 56.249989 132.348129 
" clip-path="url(#pa9c4f593b0)" style="fill: none; stroke: #9e005d; stroke-width: 2; stroke-linecap: round"/>
   </g>
   <g id="line2d_17">
    <path d="M 47.243864 129.606141 
L 48.490503 129.41419 
L 49.737142 129.222239 
L 50.983781 129.030289 
L 52.23042 128.838338 
L 53.477059 128.646387 
L 54.723698 128.454437 
L 55.970337 128.262486 
L 57.216977 128.070536 
L 58.463616 127.878585 
L 59.710255 127.686634 
L 60.956894 127.494684 
L 62.203533 127.302733 
L 63.450172 127.110783 
L 64.696811 126.918832 
L 65.94345 126.726881 
L 67.19009 126.534931 
L 68.436729 126.34298 
L 69.683368 126.151029 
L 70.930007 125.959079 
L 72.176646 125.767128 
L 73.423285 125.575178 
L 74.669924 125.383227 
L 75.916563 125.191276 
L 77.163202 124.999326 
L 78.409842 124.807375 
L 79.656481 124.615424 
L 80.90312 124.423474 
L 82.149759 124.231523 
L 83.396398 124.039573 
L 84.643037 123.847622 
L 85.889676 123.655671 
L 87.136315 123.463721 
L 88.382955 123.27177 
L 89.629594 123.079819 
L 90.876233 122.887869 
L 92.122872 122.695918 
L 93.369511 122.503968 
L 94.61615 122.312017 
L 95.862789 122.120066 
L 97.109428 121.928116 
L 98.356067 121.736165 
L 99.602707 121.544214 
L 100.849346 121.352264 
L 102.095985 121.160313 
L 103.342624 120.968363 
L 104.589263 120.776412 
L 105.835902 120.584461 
L 107.082541 120.392511 
L 108.32918 120.20056 
L 109.57582 120.008609 
L 110.822459 119.816659 
L 112.069098 119.624708 
L 113.315737 119.432758 
L 114.562376 119.240807 
L 115.809015 119.048856 
L 117.055654 118.856906 
L 118.302293 118.664955 
L 119.548933 118.473005 
L 120.795572 118.281054 
L 122.042211 118.089103 
L 123.28885 117.897153 
L 124.535489 117.705202 
L 125.782128 117.513251 
L 127.028767 117.321301 
L 128.275406 117.12935 
L 129.522045 116.9374 
L 130.768685 116.745449 
L 132.015324 116.553498 
L 133.261963 116.361548 
L 134.508602 116.169597 
L 135.755241 115.977646 
L 137.00188 115.785696 
L 138.248519 115.593745 
L 139.495158 115.401795 
L 140.741798 115.209844 
L 141.988437 115.017893 
L 143.235076 114.825943 
L 144.481715 114.633992 
L 145.728354 114.442041 
L 146.974993 114.250091 
L 148.221632 114.05814 
L 149.468271 113.86619 
L 150.71491 113.674239 
L 151.96155 113.482288 
L 153.208189 113.290338 
L 154.454828 113.098387 
L 155.701467 112.906436 
L 156.948106 112.714486 
L 158.194745 112.522535 
L 159.441384 112.330585 
L 160.688023 112.138634 
L 161.934663 111.946683 
L 163.181302 111.754733 
L 164.427941 111.562782 
L 165.67458 111.370831 
L 166.921219 111.178881 
L 168.167858 110.98693 
L 169.414497 110.79498 
L 170.661136 110.603029 
" clip-path="url(#pa9c4f593b0)" style="fill: none; stroke: #008fd7; stroke-width: 1.8; stroke-linecap: round"/>
   </g>
   <g id="line2d_18"/>
   <g id="line2d_19"/>
   <g id="patch_3">
    <path d="M 41.073 147.612 
L 41.073 23.208 
" style="fill: none; stroke: #cccccc; stroke-linejoin: miter; stroke-linecap: square"/>
   </g>
   <g id="patch_4">
    <path d="M 176.832 147.612 
L 176.832 23.208 
" style="fill: none; stroke: #cccccc; stroke-linejoin: miter; stroke-linecap: square"/>
   </g>
   <g id="patch_5">
    <path d="M 41.073 147.612 
L 176.832 147.612 
" style="fill: none; stroke: #cccccc; stroke-linejoin: miter; stroke-linecap: square"/>
   </g>
   <g id="patch_6">
    <path d="M 41.073 23.208 
L 176.832 23.208 
" style="fill: none; stroke: #cccccc; stroke-linejoin: miter; stroke-linecap: square"/>
   </g>
   <g id="text_18">
    <!-- Rank vs agonist length -->
    <g style="fill: #262626" transform="translate(60.393 17.208) scale(0.096 -0.096)">
     <defs>
      <path id="ArialMT-76" d="M 1344 0 
L 81 3319 
L 675 3319 
L 1388 1331 
Q 1503 1009 1600 663 
Q 1675 925 1809 1294 
L 2547 3319 
L 3125 3319 
L 1869 0 
L 1344 0 
z
" transform="scale(0.015625)"/>
     </defs>
     <use xlink:href="#ArialMT-52"/>
     <use xlink:href="#ArialMT-61" x="72.216797"/>
     <use xlink:href="#ArialMT-6e" x="127.832031"/>
     <use xlink:href="#ArialMT-6b" x="183.447266"/>
     <use xlink:href="#ArialMT-20" x="233.447266"/>
     <use xlink:href="#ArialMT-76" x="261.230469"/>
     <use xlink:href="#ArialMT-73" x="311.230469"/>
     <use xlink:href="#ArialMT-20" x="361.230469"/>
     <use xlink:href="#ArialMT-61" x="389.013672"/>
     <use xlink:href="#ArialMT-67" x="444.628906"/>
     <use xlink:href="#ArialMT-6f" x="500.244141"/>
     <use xlink:href="#ArialMT-6e" x="555.859375"/>
     <use xlink:href="#ArialMT-69" x="611.474609"/>
     <use xlink:href="#ArialMT-73" x="633.691406"/>
     <use xlink:href="#ArialMT-74" x="683.691406"/>
     <use xlink:href="#ArialMT-20" x="711.474609"/>
     <use xlink:href="#ArialMT-6c" x="739.257812"/>
     <use xlink:href="#ArialMT-65" x="761.474609"/>
     <use xlink:href="#ArialMT-6e" x="817.089844"/>
     <use xlink:href="#ArialMT-67" x="872.705078"/>
     <use xlink:href="#ArialMT-74" x="928.320312"/>
     <use xlink:href="#ArialMT-68" x="956.103516"/>
    </g>
   </g>
   <g id="legend_1">
    <g id="patch_7">
     <path d="M 77.6095 69.77625 
L 171.232 69.77625 
Q 172.832 69.77625 172.832 68.17625 
L 172.832 28.808 
Q 172.832 27.208 171.232 27.208 
L 77.6095 27.208 
Q 76.0095 27.208 76.0095 28.808 
L 76.0095 68.17625 
Q 76.0095 69.77625 77.6095 69.77625 
z
" style="fill: #ffffff; opacity: 0.8; stroke: #cccccc; stroke-width: 0.8; stroke-linejoin: miter"/>
    </g>
    <g id="line2d_20">
     <path d="M 79.2095 38.465375 
L 87.2095 38.465375 
L 95.2095 38.465375 
" style="fill: none; stroke: #9e005d; stroke-width: 1.2; stroke-linecap: round"/>
     <defs>
      <path id="m8c4538ba68" d="M 0 1.2 
C 0.318244 1.2 0.623496 1.07356 0.848528 0.848528 
C 1.07356 0.623496 1.2 0.318244 1.2 0 
C 1.2 -0.318244 1.07356 -0.623496 0.848528 -0.848528 
C 0.623496 -1.07356 0.318244 -1.2 0 -1.2 
C -0.318244 -1.2 -0.623496 -1.07356 -0.848528 -0.848528 
C -1.07356 -0.623496 -1.2 -0.318244 -1.2 0 
C -1.2 0.318244 -1.07356 0.623496 -0.848528 0.848528 
C -0.623496 1.07356 -0.318244 1.2 0 1.2 
z
" style="stroke: #9e005d"/>
     </defs>
     <g>
      <use xlink:href="#m8c4538ba68" x="87.2095" y="38.465375" style="fill: #9e005d; stroke: #9e005d"/>
     </g>
    </g>
    <g id="text_19">
     <!-- Peptriever -->
     <g style="fill: #262626" transform="translate(101.6095 36.13425) scale(0.08 -0.08)">
      <defs>
       <path id="ArialMT-50" d="M 494 0 
L 494 4581 
L 2222 4581 
Q 2678 4581 2919 4538 
Q 3256 4481 3484 4323 
Q 3713 4166 3852 3881 
Q 3991 3597 3991 3256 
Q 3991 2672 3619 2267 
Q 3247 1863 2275 1863 
L 1100 1863 
L 1100 0 
L 494 0 
z
M 1100 2403 
L 2284 2403 
Q 2872 2403 3119 2622 
Q 3366 2841 3366 3238 
Q 3366 3525 3220 3729 
Q 3075 3934 2838 4000 
Q 2684 4041 2272 4041 
L 1100 4041 
L 1100 2403 
z
" transform="scale(0.015625)"/>
       <path id="ArialMT-70" d="M 422 -1272 
L 422 3319 
L 934 3319 
L 934 2888 
Q 1116 3141 1344 3267 
Q 1572 3394 1897 3394 
Q 2322 3394 2647 3175 
Q 2972 2956 3137 2557 
Q 3303 2159 3303 1684 
Q 3303 1175 3120 767 
Q 2938 359 2589 142 
Q 2241 -75 1856 -75 
Q 1575 -75 1351 44 
Q 1128 163 984 344 
L 984 -1272 
L 422 -1272 
z
M 931 1641 
Q 931 1000 1190 694 
Q 1450 388 1819 388 
Q 2194 388 2461 705 
Q 2728 1022 2728 1688 
Q 2728 2322 2467 2637 
Q 2206 2953 1844 2953 
Q 1484 2953 1207 2617 
Q 931 2281 931 1641 
z
" transform="scale(0.015625)"/>
       <path id="ArialMT-72" d="M 416 0 
L 416 3319 
L 922 3319 
L 922 2816 
Q 1116 3169 1280 3281 
Q 1444 3394 1641 3394 
Q 1925 3394 2219 3213 
L 2025 2691 
Q 1819 2813 1613 2813 
Q 1428 2813 1281 2702 
Q 1134 2591 1072 2394 
Q 978 2094 978 1738 
L 978 0 
L 416 0 
z
" transform="scale(0.015625)"/>
      </defs>
      <use xlink:href="#ArialMT-50"/>
      <use xlink:href="#ArialMT-65" x="66.699219"/>
      <use xlink:href="#ArialMT-70" x="122.314453"/>
      <use xlink:href="#ArialMT-74" x="177.929688"/>
      <use xlink:href="#ArialMT-72" x="205.712891"/>
      <use xlink:href="#ArialMT-69" x="239.013672"/>
      <use xlink:href="#ArialMT-65" x="261.230469"/>
      <use xlink:href="#ArialMT-76" x="316.845703"/>
      <use xlink:href="#ArialMT-65" x="366.845703"/>
      <use xlink:href="#ArialMT-72" x="422.460938"/>
     </g>
     <!-- (rho = -0.428) -->
     <g style="fill: #262626" transform="translate(101.6095 44.71275) scale(0.08 -0.08)">
      <defs>
       <path id="ArialMT-28" d="M 1497 -1347 
Q 1031 -759 709 28 
Q 388 816 388 1659 
Q 388 2403 628 3084 
Q 909 3875 1497 4659 
L 1900 4659 
Q 1522 4009 1400 3731 
Q 1209 3300 1100 2831 
Q 966 2247 966 1656 
Q 966 153 1900 -1347 
L 1497 -1347 
z
" transform="scale(0.015625)"/>
       <path id="ArialMT-3d" d="M 3381 2694 
L 356 2694 
L 356 3219 
L 3381 3219 
L 3381 2694 
z
M 3381 1303 
L 356 1303 
L 356 1828 
L 3381 1828 
L 3381 1303 
z
" transform="scale(0.015625)"/>
       <path id="ArialMT-2d" d="M 203 1375 
L 203 1941 
L 1931 1941 
L 1931 1375 
L 203 1375 
z
" transform="scale(0.015625)"/>
       <path id="ArialMT-2e" d="M 581 0 
L 581 641 
L 1222 641 
L 1222 0 
L 581 0 
z
" transform="scale(0.015625)"/>
       <path id="ArialMT-29" d="M 791 -1347 
L 388 -1347 
Q 1322 153 1322 1656 
Q 1322 2244 1188 2822 
Q 1081 3291 891 3722 
Q 769 4003 388 4659 
L 791 4659 
Q 1378 3875 1659 3084 
Q 1900 2403 1900 1659 
Q 1900 816 1576 28 
Q 1253 -759 791 -1347 
z
" transform="scale(0.015625)"/>
      </defs>
      <use xlink:href="#ArialMT-28"/>
      <use xlink:href="#ArialMT-72" x="33.300781"/>
      <use xlink:href="#ArialMT-68" x="66.601562"/>
      <use xlink:href="#ArialMT-6f" x="122.216797"/>
      <use xlink:href="#ArialMT-20" x="177.832031"/>
      <use xlink:href="#ArialMT-3d" x="205.615234"/>
      <use xlink:href="#ArialMT-20" x="264.013672"/>
      <use xlink:href="#ArialMT-2d" x="291.796875"/>
      <use xlink:href="#ArialMT-30" x="325.097656"/>
      <use xlink:href="#ArialMT-2e" x="380.712891"/>
      <use xlink:href="#ArialMT-34" x="408.496094"/>
      <use xlink:href="#ArialMT-32" x="464.111328"/>
      <use xlink:href="#ArialMT-38" x="519.726562"/>
      <use xlink:href="#ArialMT-29" x="575.341797"/>
     </g>
    </g>
    <g id="line2d_21">
     <path d="M 79.2095 58.5495 
L 87.2095 58.5495 
L 95.2095 58.5495 
" style="fill: none; stroke: #008fd7; stroke-width: 1.2; stroke-linecap: round"/>
     <defs>
      <path id="m2f2fe0dfdc" d="M 0 1.2 
C 0.318244 1.2 0.623496 1.07356 0.848528 0.848528 
C 1.07356 0.623496 1.2 0.318244 1.2 0 
C 1.2 -0.318244 1.07356 -0.623496 0.848528 -0.848528 
C 0.623496 -1.07356 0.318244 -1.2 0 -1.2 
C -0.318244 -1.2 -0.623496 -1.07356 -0.848528 -0.848528 
C -1.07356 -0.623496 -1.2 -0.318244 -1.2 0 
C -1.2 0.318244 -1.07356 0.623496 -0.848528 0.848528 
C -0.623496 1.07356 -0.318244 1.2 0 1.2 
z
" style="stroke: #008fd7"/>
     </defs>
     <g>
      <use xlink:href="#m2f2fe0dfdc" x="87.2095" y="58.5495" style="fill: #008fd7; stroke: #008fd7"/>
     </g>
    </g>
    <g id="text_20">
     <!-- AF2 (no templates) -->
     <g style="fill: #262626" transform="translate(101.6095 56.22025) scale(0.08 -0.08)">
      <defs>
       <path id="ArialMT-46" d="M 525 0 
L 525 4581 
L 3616 4581 
L 3616 4041 
L 1131 4041 
L 1131 2622 
L 3281 2622 
L 3281 2081 
L 1131 2081 
L 1131 0 
L 525 0 
z
" transform="scale(0.015625)"/>
       <path id="ArialMT-6d" d="M 422 0 
L 422 3319 
L 925 3319 
L 925 2853 
Q 1081 3097 1340 3245 
Q 1600 3394 1931 3394 
Q 2300 3394 2536 3241 
Q 2772 3088 2869 2813 
Q 3263 3394 3894 3394 
Q 4388 3394 4653 3120 
Q 4919 2847 4919 2278 
L 4919 0 
L 4359 0 
L 4359 2091 
Q 4359 2428 4304 2576 
Q 4250 2725 4106 2815 
Q 3963 2906 3769 2906 
Q 3419 2906 3187 2673 
Q 2956 2441 2956 1928 
L 2956 0 
L 2394 0 
L 2394 2156 
Q 2394 2531 2256 2718 
Q 2119 2906 1806 2906 
Q 1569 2906 1367 2781 
Q 1166 2656 1075 2415 
Q 984 2175 984 1722 
L 984 0 
L 422 0 
z
" transform="scale(0.015625)"/>
      </defs>
      <use xlink:href="#ArialMT-41"/>
      <use xlink:href="#ArialMT-46" x="66.699219"/>
      <use xlink:href="#ArialMT-32" x="127.783203"/>
      <use xlink:href="#ArialMT-20" x="183.398438"/>
      <use xlink:href="#ArialMT-28" x="211.181641"/>
      <use xlink:href="#ArialMT-6e" x="244.482422"/>
      <use xlink:href="#ArialMT-6f" x="300.097656"/>
      <use xlink:href="#ArialMT-20" x="355.712891"/>
      <use xlink:href="#ArialMT-74" x="383.496094"/>
      <use xlink:href="#ArialMT-65" x="411.279297"/>
      <use xlink:href="#ArialMT-6d" x="466.894531"/>
      <use xlink:href="#ArialMT-70" x="550.195312"/>
      <use xlink:href="#ArialMT-6c" x="605.810547"/>
      <use xlink:href="#ArialMT-61" x="628.027344"/>
      <use xlink:href="#ArialMT-74" x="683.642578"/>
      <use xlink:href="#ArialMT-65" x="711.425781"/>
      <use xlink:href="#ArialMT-73" x="767.041016"/>
      <use xlink:href="#ArialMT-29" x="817.041016"/>
     </g>
     <!-- (rho = 0.247) -->
     <g style="fill: #262626" transform="translate(101.6095 64.8925) scale(0.08 -0.08)">
      <use xlink:href="#ArialMT-28"/>
      <use xlink:href="#ArialMT-72" x="33.300781"/>
      <use xlink:href="#ArialMT-68" x="66.601562"/>
      <use xlink:href="#ArialMT-6f" x="122.216797"/>
      <use xlink:href="#ArialMT-20" x="177.832031"/>
      <use xlink:href="#ArialMT-3d" x="205.615234"/>
      <use xlink:href="#ArialMT-20" x="264.013672"/>
      <use xlink:href="#ArialMT-30" x="291.796875"/>
      <use xlink:href="#ArialMT-2e" x="347.412109"/>
      <use xlink:href="#ArialMT-32" x="375.195312"/>
      <use xlink:href="#ArialMT-34" x="430.810547"/>
      <use xlink:href="#ArialMT-37" x="486.425781"/>
      <use xlink:href="#ArialMT-29" x="542.041016"/>
     </g>
    </g>
   </g>
  </g>
 </g>
 <defs>
  <clipPath id="pa9c4f593b0">
   <rect x="41.073" y="23.208" width="135.759" height="124.404"/>
  </clipPath>
 </defs>
</svg>
