<?xml version="1.0" encoding="utf-8" standalone="no"?>
<!DOCTYPE svg PUBLIC "-//W3C//DTD SVG 1.1//EN"
  "http://www.w3.org/Graphics/SVG/1.1/DTD/svg11.dtd">
<svg xmlns:xlink="http://www.w3.org/1999/xlink" width="460.8pt" height="345.6pt" viewBox="0 0 460.8 345.6" xmlns="http://www.w3.org/2000/svg" version="1.1">
 <metadata>
  <rdf:RDF xmlns:dc="http://purl.org/dc/elements/1.1/" xmlns:cc="http://creativecommons.org/ns#" xmlns:rdf="http://www.w3.org/1999/02/22-rdf-syntax-ns#">
   <cc:Work>
    <dc:type rdf:resource="http://purl.org/dc/dcmitype/StillImage"/>
    <dc:date>2024-06-06T12:25:58.667920</dc:date>
    <dc:format>image/svg+xml</dc:format>
    <dc:creator>
     <cc:Agent>
      <dc:title>Matplotlib v3.5.1, https://matplotlib.org/</dc:title>
     </cc:Agent>
    </dc:creator>
   </cc:Work>
  </rdf:RDF>
 </metadata>
 <defs>
  <style type="text/css">*{stroke-linejoin: round; stroke-linecap: butt}</style>
 </defs>
 <g id="figure_1">
  <g id="patch_1">
   <path d="M 0 345.6 
L 460.8 345.6 
L 460.8 0 
L 0 0 
z
" style="fill: #ffffff"/>
  </g>
  <g id="axes_1">
   <g id="patch_2">
    <path d="M 57.6 307.584 
L 414.72 307.584 
L 414.72 41.472 
L 57.6 41.472 
z
" style="fill: #ffffff"/>
   </g>
   <g id="PathCollection_1">
    <defs>
     <path id="ma7d44b0e17" d="M 0 1.936492 
C 0.513564 1.936492 1.006162 1.732451 1.369306 1.369306 
C 1.732451 1.006162 1.936492 0.513564 1.936492 0 
C 1.936492 -0.513564 1.732451 -1.006162 1.369306 -1.369306 
C 1.006162 -1.732451 0.513564 -1.936492 0 -1.936492 
C -0.513564 -1.936492 -1.006162 -1.732451 -1.369306 -1.369306 
C -1.732451 -1.006162 -1.936492 -0.513564 -1.936492 0 
C -1.936492 0.513564 -1.732451 1.006162 -1.369306 1.369306 
C -1.006162 1.732451 -0.513564 1.936492 0 1.936492 
z
" style="stroke: #1f77b4"/>
    </defs>
    <g clip-path="url(#p76dfd313e0)">
     <use xlink:href="#ma7d44b0e17" x="337.306742" y="100.043632" style="fill: #1f77b4; stroke: #1f77b4"/>
     <use xlink:href="#ma7d44b0e17" x="284.44447" y="144.928577" style="fill: #1f77b4; stroke: #1f77b4"/>
     <use xlink:href="#ma7d44b0e17" x="305.738459" y="92.401963" style="fill: #1f77b4; stroke: #1f77b4"/>
     <use xlink:href="#ma7d44b0e17" x="343.456704" y="136.232521" style="fill: #1f77b4; stroke: #1f77b4"/>
     <use xlink:href="#ma7d44b0e17" x="282.703371" y="119.997808" style="fill: #1f77b4; stroke: #1f77b4"/>
     <use xlink:href="#ma7d44b0e17" x="302.737953" y="113.957258" style="fill: #1f77b4; stroke: #1f77b4"/>
     <use xlink:href="#ma7d44b0e17" x="360.743331" y="123.288641" style="fill: #1f77b4; stroke: #1f77b4"/>
     <use xlink:href="#ma7d44b0e17" x="355.677464" y="133.603494" style="fill: #1f77b4; stroke: #1f77b4"/>
     <use xlink:href="#ma7d44b0e17" x="381.086214" y="107.518024" style="fill: #1f77b4; stroke: #1f77b4"/>
     <use xlink:href="#ma7d44b0e17" x="327.894437" y="102.426133" style="fill: #1f77b4; stroke: #1f77b4"/>
     <use xlink:href="#ma7d44b0e17" x="329.22976" y="99.722353" style="fill: #1f77b4; stroke: #1f77b4"/>
     <use xlink:href="#ma7d44b0e17" x="363.645281" y="91.514525" style="fill: #1f77b4; stroke: #1f77b4"/>
     <use xlink:href="#ma7d44b0e17" x="355.101022" y="112.052472" style="fill: #1f77b4; stroke: #1f77b4"/>
     <use xlink:href="#ma7d44b0e17" x="326.06309" y="177.82866" style="fill: #1f77b4; stroke: #1f77b4"/>
     <use xlink:href="#ma7d44b0e17" x="356.555616" y="122.993065" style="fill: #1f77b4; stroke: #1f77b4"/>
     <use xlink:href="#ma7d44b0e17" x="272.137257" y="98.311362" style="fill: #1f77b4; stroke: #1f77b4"/>
     <use xlink:href="#ma7d44b0e17" x="343.822892" y="55.310384" style="fill: #1f77b4; stroke: #1f77b4"/>
     <use xlink:href="#ma7d44b0e17" x="352.113979" y="64.004619" style="fill: #1f77b4; stroke: #1f77b4"/>
     <use xlink:href="#ma7d44b0e17" x="345.686819" y="75.773997" style="fill: #1f77b4; stroke: #1f77b4"/>
     <use xlink:href="#ma7d44b0e17" x="316.194275" y="78.568853" style="fill: #1f77b4; stroke: #1f77b4"/>
     <use xlink:href="#ma7d44b0e17" x="307.810356" y="302.315857" style="fill: #1f77b4; stroke: #1f77b4"/>
     <use xlink:href="#ma7d44b0e17" x="348.288495" y="133.590889" style="fill: #1f77b4; stroke: #1f77b4"/>
     <use xlink:href="#ma7d44b0e17" x="307.185333" y="129.953267" style="fill: #1f77b4; stroke: #1f77b4"/>
     <use xlink:href="#ma7d44b0e17" x="326.261139" y="103.423603" style="fill: #1f77b4; stroke: #1f77b4"/>
     <use xlink:href="#ma7d44b0e17" x="336.159729" y="93.359763" style="fill: #1f77b4; stroke: #1f77b4"/>
     <use xlink:href="#ma7d44b0e17" x="326.547706" y="258.604926" style="fill: #1f77b4; stroke: #1f77b4"/>
     <use xlink:href="#ma7d44b0e17" x="333.956122" y="220.013032" style="fill: #1f77b4; stroke: #1f77b4"/>
     <use xlink:href="#ma7d44b0e17" x="339.911843" y="146.288981" style="fill: #1f77b4; stroke: #1f77b4"/>
     <use xlink:href="#ma7d44b0e17" x="342.653393" y="211.982662" style="fill: #1f77b4; stroke: #1f77b4"/>
     <use xlink:href="#ma7d44b0e17" x="279.087088" y="101.546417" style="fill: #1f77b4; stroke: #1f77b4"/>
     <use xlink:href="#ma7d44b0e17" x="330.140172" y="110.608342" style="fill: #1f77b4; stroke: #1f77b4"/>
     <use xlink:href="#ma7d44b0e17" x="320.482192" y="145.166791" style="fill: #1f77b4; stroke: #1f77b4"/>
     <use xlink:href="#ma7d44b0e17" x="334.802704" y="93.036862" style="fill: #1f77b4; stroke: #1f77b4"/>
     <use xlink:href="#ma7d44b0e17" x="275.703685" y="93.605227" style="fill: #1f77b4; stroke: #1f77b4"/>
     <use xlink:href="#ma7d44b0e17" x="296.80835" y="107.426712" style="fill: #1f77b4; stroke: #1f77b4"/>
     <use xlink:href="#ma7d44b0e17" x="313.039083" y="72.714437" style="fill: #1f77b4; stroke: #1f77b4"/>
     <use xlink:href="#ma7d44b0e17" x="310.573714" y="92.767832" style="fill: #1f77b4; stroke: #1f77b4"/>
     <use xlink:href="#ma7d44b0e17" x="336.365508" y="97.350258" style="fill: #1f77b4; stroke: #1f77b4"/>
     <use xlink:href="#ma7d44b0e17" x="352.725312" y="89.322344" style="fill: #1f77b4; stroke: #1f77b4"/>
     <use xlink:href="#ma7d44b0e17" x="346.788583" y="88.275622" style="fill: #1f77b4; stroke: #1f77b4"/>
     <use xlink:href="#ma7d44b0e17" x="339.142506" y="129.158026" style="fill: #1f77b4; stroke: #1f77b4"/>
     <use xlink:href="#ma7d44b0e17" x="306.599422" y="202.681495" style="fill: #1f77b4; stroke: #1f77b4"/>
     <use xlink:href="#ma7d44b0e17" x="306.518976" y="147.626018" style="fill: #1f77b4; stroke: #1f77b4"/>
     <use xlink:href="#ma7d44b0e17" x="309.49955" y="137.788064" style="fill: #1f77b4; stroke: #1f77b4"/>
     <use xlink:href="#ma7d44b0e17" x="332.621192" y="180.128961" style="fill: #1f77b4; stroke: #1f77b4"/>
     <use xlink:href="#ma7d44b0e17" x="335.388636" y="98.056823" style="fill: #1f77b4; stroke: #1f77b4"/>
     <use xlink:href="#ma7d44b0e17" x="307.796171" y="110.223949" style="fill: #1f77b4; stroke: #1f77b4"/>
     <use xlink:href="#ma7d44b0e17" x="310.894045" y="88.371574" style="fill: #1f77b4; stroke: #1f77b4"/>
     <use xlink:href="#ma7d44b0e17" x="310.046149" y="111.121711" style="fill: #1f77b4; stroke: #1f77b4"/>
     <use xlink:href="#ma7d44b0e17" x="264.724776" y="116.120736" style="fill: #1f77b4; stroke: #1f77b4"/>
     <use xlink:href="#ma7d44b0e17" x="323.805602" y="146.884066" style="fill: #1f77b4; stroke: #1f77b4"/>
     <use xlink:href="#ma7d44b0e17" x="303.621337" y="121.592816" style="fill: #1f77b4; stroke: #1f77b4"/>
    </g>
   </g>
   <g id="PolyCollection_1">
    <defs>
     <path id="m61e4100102" d="M 264.724776 -181.344209 
L 264.724776 -249.035316 
L 265.900144 -248.602312 
L 267.075512 -248.171107 
L 268.25088 -247.741796 
L 269.426248 -247.31448 
L 270.601616 -246.889266 
L 271.776984 -246.466271 
L 272.952352 -246.045617 
L 274.12772 -245.627438 
L 275.303088 -245.211875 
L 276.478456 -244.799081 
L 277.653824 -244.389218 
L 278.829192 -243.982462 
L 280.004561 -243.579003 
L 281.179929 -243.179043 
L 282.355297 -242.7828 
L 283.530665 -242.39051 
L 284.706033 -242.002427 
L 285.881401 -241.618824 
L 287.056769 -241.239996 
L 288.232137 -240.866262 
L 289.407505 -240.497965 
L 290.582873 -240.135478 
L 291.758241 -239.7792 
L 292.933609 -239.429565 
L 294.108977 -239.087041 
L 295.284345 -238.752131 
L 296.459713 -238.42538 
L 297.635081 -238.107373 
L 298.810449 -237.798742 
L 299.985818 -237.500164 
L 301.161186 -237.212367 
L 302.336554 -236.936128 
L 303.511922 -236.672277 
L 304.68729 -236.421697 
L 305.862658 -236.185321 
L 307.038026 -235.964135 
L 308.213394 -235.759168 
L 309.388762 -235.571493 
L 310.56413 -235.402218 
L 311.739498 -235.252474 
L 312.914866 -235.123403 
L 314.090234 -235.016148 
L 315.265602 -234.931827 
L 316.44097 -234.871523 
L 317.616338 -234.836255 
L 318.791706 -234.826955 
L 319.967075 -234.844451 
L 321.142443 -234.889439 
L 322.317811 -234.962467 
L 323.493179 -235.063914 
L 324.668547 -235.193985 
L 325.843915 -235.352698 
L 327.019283 -235.539886 
L 328.194651 -235.755202 
L 329.370019 -235.998132 
L 330.545387 -236.268008 
L 331.720755 -236.564026 
L 332.896123 -236.885273 
L 334.071491 -237.230745 
L 335.246859 -237.599371 
L 336.422227 -237.990038 
L 337.597595 -238.401606 
L 338.772963 -238.832932 
L 339.948332 -239.28288 
L 341.1237 -239.750339 
L 342.299068 -240.234229 
L 343.474436 -240.733509 
L 344.649804 -241.247185 
L 345.825172 -241.774314 
L 347.00054 -242.314003 
L 348.175908 -242.86541 
L 349.351276 -243.427749 
L 350.526644 -244.000282 
L 351.702012 -244.582322 
L 352.87738 -245.173228 
L 354.052748 -245.772407 
L 355.228116 -246.379305 
L 356.403484 -246.99341 
L 357.578852 -247.614249 
L 358.75422 -248.241381 
L 359.929589 -248.874399 
L 361.104957 -249.512927 
L 362.280325 -250.156614 
L 363.455693 -250.805139 
L 364.631061 -251.4582 
L 365.806429 -252.115521 
L 366.981797 -252.776844 
L 368.157165 -253.44193 
L 369.332533 -254.110557 
L 370.507901 -254.78252 
L 371.683269 -255.457626 
L 372.858637 -256.135698 
L 374.034005 -256.81657 
L 375.209373 -257.500088 
L 376.384741 -258.186108 
L 377.560109 -258.874495 
L 378.735477 -259.565124 
L 379.910846 -260.257878 
L 381.086214 -260.952648 
L 381.086214 -195.745797 
L 381.086214 -195.745797 
L 379.910846 -196.174719 
L 378.735477 -196.601626 
L 377.560109 -197.026407 
L 376.384741 -197.448947 
L 375.209373 -197.869119 
L 374.034005 -198.286789 
L 372.858637 -198.701813 
L 371.683269 -199.114038 
L 370.507901 -199.523296 
L 369.332533 -199.929411 
L 368.157165 -200.332191 
L 366.981797 -200.731429 
L 365.806429 -201.126904 
L 364.631061 -201.518377 
L 363.455693 -201.905591 
L 362.280325 -202.288268 
L 361.104957 -202.666108 
L 359.929589 -203.038788 
L 358.75422 -203.405959 
L 357.578852 -203.767243 
L 356.403484 -204.122234 
L 355.228116 -204.470492 
L 354.052748 -204.811542 
L 352.87738 -205.144872 
L 351.702012 -205.469931 
L 350.526644 -205.786123 
L 349.351276 -206.092809 
L 348.175908 -206.3893 
L 347.00054 -206.67486 
L 345.825172 -206.948701 
L 344.649804 -207.209982 
L 343.474436 -207.457811 
L 342.299068 -207.691243 
L 341.1237 -207.909285 
L 339.948332 -208.110896 
L 338.772963 -208.294997 
L 337.597595 -208.460475 
L 336.422227 -208.606196 
L 335.246859 -208.731014 
L 334.071491 -208.833793 
L 332.896123 -208.913417 
L 331.720755 -208.968816 
L 330.545387 -208.998987 
L 329.370019 -209.003015 
L 328.194651 -208.980098 
L 327.019283 -208.929566 
L 325.843915 -208.850906 
L 324.668547 -208.743771 
L 323.493179 -208.607994 
L 322.317811 -208.443595 
L 321.142443 -208.250774 
L 319.967075 -208.029915 
L 318.791706 -207.781563 
L 317.616338 -207.506416 
L 316.44097 -207.205299 
L 315.265602 -206.879148 
L 314.090234 -206.52898 
L 312.914866 -206.155876 
L 311.739498 -205.760958 
L 310.56413 -205.345366 
L 309.388762 -204.910243 
L 308.213394 -204.456721 
L 307.038026 -203.985907 
L 305.862658 -203.498872 
L 304.68729 -202.996649 
L 303.511922 -202.480221 
L 302.336554 -201.950522 
L 301.161186 -201.408436 
L 299.985818 -200.854791 
L 298.810449 -200.290365 
L 297.635081 -199.715887 
L 296.459713 -199.132033 
L 295.284345 -198.539434 
L 294.108977 -197.938676 
L 292.933609 -197.330304 
L 291.758241 -196.714821 
L 290.582873 -196.092696 
L 289.407505 -195.464361 
L 288.232137 -194.830217 
L 287.056769 -194.190635 
L 285.881401 -193.545959 
L 284.706033 -192.896509 
L 283.530665 -192.242578 
L 282.355297 -191.58444 
L 281.179929 -190.92235 
L 280.004561 -190.256542 
L 278.829192 -189.587235 
L 277.653824 -188.914631 
L 276.478456 -188.238921 
L 275.303088 -187.560279 
L 274.12772 -186.878868 
L 272.952352 -186.194841 
L 271.776984 -185.50834 
L 270.601616 -184.819497 
L 269.426248 -184.128436 
L 268.25088 -183.435271 
L 267.075512 -182.740113 
L 265.900144 -182.04306 
L 264.724776 -181.344209 
z
" style="stroke: #0b3d91; stroke-opacity: 0.1"/>
    </defs>
    <g clip-path="url(#p76dfd313e0)">
     <use xlink:href="#m61e4100102" x="0" y="345.6" style="fill: #0b3d91; fill-opacity: 0.1; stroke: #0b3d91; stroke-opacity: 0.1"/>
    </g>
   </g>
   <g id="matplotlib.axis_1">
    <g id="xtick_1">
     <g id="line2d_1">
      <defs>
       <path id="m38dad405bb" d="M 0 0 
L 0 -3.5 
" style="stroke: #000000; stroke-width: 0.8"/>
      </defs>
      <g>
       <use xlink:href="#m38dad405bb" x="57.6" y="307.584" style="stroke: #000000; stroke-width: 0.8"/>
      </g>
     </g>
     <g id="text_1">
      <!-- 0 -->
      <g transform="translate(54.462187 318.97025)scale(0.12 -0.12)">
       <defs>
        <path id="AptosDisplay-30" d="M 1672 -56 
Q 1291 -56 1028 105 
Q 766 266 605 552 
Q 444 838 372 1216 
Q 300 1594 300 2031 
Q 300 2475 372 2856 
Q 444 3238 605 3525 
Q 766 3813 1028 3973 
Q 1291 4134 1672 4134 
Q 2053 4134 2317 3975 
Q 2581 3816 2742 3527 
Q 2903 3238 2975 2858 
Q 3047 2478 3047 2038 
Q 3047 1597 2975 1217 
Q 2903 838 2742 552 
Q 2581 266 2318 105 
Q 2056 -56 1672 -56 
z
M 1672 409 
Q 1916 409 2073 550 
Q 2231 691 2322 925 
Q 2413 1159 2448 1448 
Q 2484 1738 2484 2038 
Q 2484 2338 2448 2628 
Q 2413 2919 2322 3153 
Q 2231 3388 2073 3527 
Q 1916 3666 1669 3666 
Q 1428 3666 1268 3527 
Q 1109 3388 1020 3153 
Q 931 2919 893 2628 
Q 856 2338 856 2038 
Q 856 1741 893 1450 
Q 931 1159 1020 925 
Q 1109 691 1268 550 
Q 1428 409 1672 409 
z
" transform="scale(0.015625)"/>
       </defs>
       <use xlink:href="#AptosDisplay-30"/>
      </g>
     </g>
    </g>
    <g id="xtick_2">
     <g id="line2d_2">
      <g>
       <use xlink:href="#m38dad405bb" x="129.024" y="307.584" style="stroke: #000000; stroke-width: 0.8"/>
      </g>
     </g>
     <g id="text_2">
      <!-- 20 -->
      <g transform="translate(122.748375 318.97025)scale(0.12 -0.12)">
       <defs>
        <path id="AptosDisplay-32" d="M 247 0 
L 247 413 
L 1725 1741 
Q 2100 2081 2269 2351 
Q 2438 2622 2438 2938 
Q 2438 3256 2263 3461 
Q 2088 3666 1691 3666 
Q 1247 3666 1055 3439 
Q 863 3213 863 2869 
L 341 2869 
Q 341 3250 491 3534 
Q 641 3819 941 3975 
Q 1241 4131 1691 4131 
Q 2103 4131 2390 3986 
Q 2678 3841 2828 3578 
Q 2978 3316 2978 2959 
Q 2978 2638 2853 2375 
Q 2728 2113 2517 1883 
Q 2306 1653 2044 1425 
L 959 463 
L 3097 463 
L 3097 0 
L 247 0 
z
" transform="scale(0.015625)"/>
       </defs>
       <use xlink:href="#AptosDisplay-32"/>
       <use xlink:href="#AptosDisplay-30" x="52.294922"/>
      </g>
     </g>
    </g>
    <g id="xtick_3">
     <g id="line2d_3">
      <g>
       <use xlink:href="#m38dad405bb" x="200.448" y="307.584" style="stroke: #000000; stroke-width: 0.8"/>
      </g>
     </g>
     <g id="text_3">
      <!-- 40 -->
      <g transform="translate(194.172375 318.97025)scale(0.12 -0.12)">
       <defs>
        <path id="AptosDisplay-34" d="M 2106 0 
L 2106 825 
L 125 825 
L 125 1297 
L 2100 4103 
L 2631 4103 
L 2631 1284 
L 3191 1284 
L 3191 825 
L 2631 825 
L 2631 0 
L 2106 0 
z
M 638 1284 
L 2113 1284 
L 2113 3369 
L 638 1284 
z
" transform="scale(0.015625)"/>
       </defs>
       <use xlink:href="#AptosDisplay-34"/>
       <use xlink:href="#AptosDisplay-30" x="52.294922"/>
      </g>
     </g>
    </g>
    <g id="xtick_4">
     <g id="line2d_4">
      <g>
       <use xlink:href="#m38dad405bb" x="271.872" y="307.584" style="stroke: #000000; stroke-width: 0.8"/>
      </g>
     </g>
     <g id="text_4">
      <!-- 60 -->
      <g transform="translate(265.596375 318.97025)scale(0.12 -0.12)">
       <defs>
        <path id="AptosDisplay-36" d="M 1759 -56 
Q 1325 -56 984 151 
Q 644 359 447 815 
Q 250 1272 250 2013 
Q 250 2738 439 3206 
Q 628 3675 968 3903 
Q 1309 4131 1759 4131 
Q 2253 4131 2595 3875 
Q 2938 3619 3034 3097 
L 2503 3097 
Q 2441 3388 2250 3534 
Q 2059 3681 1759 3681 
Q 1306 3681 1047 3279 
Q 788 2878 788 2013 
L 788 1850 
Q 788 1313 922 992 
Q 1056 672 1279 531 
Q 1503 391 1763 391 
Q 2175 391 2369 644 
Q 2563 897 2563 1272 
Q 2563 1650 2373 1869 
Q 2184 2088 1838 2088 
Q 1422 2088 1114 1897 
Q 806 1706 644 1456 
L 597 1856 
Q 728 2047 922 2201 
Q 1116 2356 1362 2447 
Q 1609 2538 1909 2538 
Q 2253 2538 2523 2395 
Q 2794 2253 2951 1975 
Q 3109 1697 3109 1291 
Q 3109 897 2951 592 
Q 2794 288 2492 116 
Q 2191 -56 1759 -56 
z
" transform="scale(0.015625)"/>
       </defs>
       <use xlink:href="#AptosDisplay-36"/>
       <use xlink:href="#AptosDisplay-30" x="52.294922"/>
      </g>
     </g>
    </g>
    <g id="xtick_5">
     <g id="line2d_5">
      <g>
       <use xlink:href="#m38dad405bb" x="343.296" y="307.584" style="stroke: #000000; stroke-width: 0.8"/>
      </g>
     </g>
     <g id="text_5">
      <!-- 80 -->
      <g transform="translate(337.020375 318.97025)scale(0.12 -0.12)">
       <defs>
        <path id="AptosDisplay-38" d="M 1675 -56 
Q 1391 -56 1137 16 
Q 884 88 686 234 
Q 488 381 373 606 
Q 259 831 259 1141 
Q 259 1531 495 1797 
Q 731 2063 1084 2150 
Q 781 2250 604 2490 
Q 428 2731 428 3081 
Q 428 3447 609 3681 
Q 791 3916 1075 4025 
Q 1359 4134 1669 4134 
Q 1981 4134 2265 4023 
Q 2550 3913 2733 3680 
Q 2916 3447 2916 3081 
Q 2916 2725 2716 2481 
Q 2516 2238 2238 2150 
Q 2606 2063 2843 1800 
Q 3081 1538 3081 1141 
Q 3081 831 2968 606 
Q 2856 381 2661 234 
Q 2466 88 2211 16 
Q 1956 -56 1675 -56 
z
M 1672 388 
Q 1909 388 2109 470 
Q 2309 553 2429 725 
Q 2550 897 2550 1163 
Q 2550 1416 2426 1587 
Q 2303 1759 2104 1846 
Q 1906 1934 1672 1928 
Q 1453 1934 1253 1850 
Q 1053 1766 926 1594 
Q 800 1422 800 1163 
Q 800 775 1058 581 
Q 1316 388 1672 388 
z
M 1672 2363 
Q 1863 2356 2030 2434 
Q 2197 2513 2300 2667 
Q 2403 2822 2403 3050 
Q 2403 3388 2189 3544 
Q 1975 3700 1675 3700 
Q 1484 3700 1317 3631 
Q 1150 3563 1047 3419 
Q 944 3275 944 3050 
Q 944 2825 1048 2670 
Q 1153 2516 1320 2436 
Q 1488 2356 1672 2363 
z
" transform="scale(0.015625)"/>
       </defs>
       <use xlink:href="#AptosDisplay-38"/>
       <use xlink:href="#AptosDisplay-30" x="52.294922"/>
      </g>
     </g>
    </g>
    <g id="xtick_6">
     <g id="line2d_6">
      <g>
       <use xlink:href="#m38dad405bb" x="414.72" y="307.584" style="stroke: #000000; stroke-width: 0.8"/>
      </g>
     </g>
     <g id="text_6">
      <!-- 100 -->
      <g transform="translate(405.306563 318.97025)scale(0.12 -0.12)">
       <defs>
        <path id="AptosDisplay-31" d="M 1659 0 
L 1659 3425 
Q 1575 3309 1420 3201 
Q 1266 3094 1052 3009 
Q 838 2925 578 2888 
L 578 3381 
Q 834 3425 1057 3540 
Q 1281 3656 1453 3806 
Q 1625 3956 1719 4094 
L 2206 4094 
L 2206 0 
L 1659 0 
z
" transform="scale(0.015625)"/>
       </defs>
       <use xlink:href="#AptosDisplay-31"/>
       <use xlink:href="#AptosDisplay-30" x="52.294922"/>
       <use xlink:href="#AptosDisplay-30" x="104.589844"/>
      </g>
     </g>
    </g>
    <g id="text_7">
     <!-- average_plddt -->
     <g transform="translate(196.174688 334.285875)scale(0.14 -0.14)">
      <defs>
       <path id="AptosDisplay-61" d="M 1163 -56 
Q 916 -56 712 41 
Q 509 138 387 331 
Q 266 525 266 813 
Q 266 1225 508 1437 
Q 750 1650 1194 1725 
Q 1638 1800 2231 1806 
L 2231 2028 
Q 2231 2419 2053 2564 
Q 1875 2709 1606 2709 
Q 1313 2709 1113 2554 
Q 913 2400 913 2059 
L 406 2059 
Q 406 2428 561 2658 
Q 716 2888 987 2992 
Q 1259 3097 1606 3097 
Q 1825 3097 2028 3053 
Q 2231 3009 2393 2893 
Q 2556 2778 2650 2570 
Q 2744 2363 2744 2034 
L 2744 0 
L 2263 0 
L 2244 444 
Q 2044 213 1778 78 
Q 1513 -56 1163 -56 
z
M 1300 344 
Q 1597 344 1831 483 
Q 2066 622 2228 847 
L 2228 1481 
Q 1456 1472 1122 1323 
Q 788 1175 788 834 
Q 788 609 916 476 
Q 1044 344 1300 344 
z
" transform="scale(0.015625)"/>
       <path id="AptosDisplay-76" d="M 1103 0 
L -13 3044 
L 538 3044 
L 1391 513 
L 2250 3044 
L 2781 3044 
L 1678 0 
L 1103 0 
z
" transform="scale(0.015625)"/>
       <path id="AptosDisplay-65" d="M 1663 -56 
Q 1188 -56 878 151 
Q 569 359 417 717 
Q 266 1075 266 1522 
Q 266 1988 412 2342 
Q 559 2697 857 2897 
Q 1156 3097 1606 3097 
Q 2209 3097 2550 2722 
Q 2891 2347 2891 1644 
Q 2891 1597 2889 1533 
Q 2888 1469 2881 1441 
L 791 1441 
Q 794 1144 881 895 
Q 969 647 1161 497 
Q 1353 347 1663 347 
Q 1997 347 2183 511 
Q 2369 675 2378 984 
L 2894 984 
Q 2884 663 2732 430 
Q 2581 197 2309 70 
Q 2038 -56 1663 -56 
z
M 794 1822 
L 2375 1822 
Q 2366 2247 2166 2472 
Q 1966 2697 1606 2697 
Q 1241 2697 1036 2473 
Q 831 2250 794 1822 
z
" transform="scale(0.015625)"/>
       <path id="AptosDisplay-72" d="M 413 0 
L 413 3044 
L 903 3044 
L 922 2528 
Q 1053 2763 1281 2922 
Q 1509 3081 1872 3081 
L 1934 3081 
L 1934 2603 
L 1863 2603 
Q 1634 2603 1462 2543 
Q 1291 2484 1164 2379 
Q 1038 2275 934 2138 
L 934 0 
L 413 0 
z
" transform="scale(0.015625)"/>
       <path id="AptosDisplay-67" d="M 1397 -1178 
Q 925 -1178 640 -1065 
Q 356 -953 229 -765 
Q 103 -578 103 -359 
Q 103 -94 329 112 
Q 556 319 1031 403 
L 1128 575 
L 1475 575 
Q 2184 575 2489 376 
Q 2794 178 2794 -238 
Q 2794 -650 2437 -914 
Q 2081 -1178 1397 -1178 
z
M 1384 -800 
Q 1878 -800 2086 -650 
Q 2294 -500 2294 -278 
Q 2294 -147 2225 -51 
Q 2156 44 1975 97 
Q 1794 150 1456 150 
L 1034 150 
Q 819 97 708 -31 
Q 597 -159 597 -328 
Q 597 -516 778 -658 
Q 959 -800 1384 -800 
z
M 1025 216 
Q 722 228 550 312 
Q 378 397 306 511 
Q 234 625 234 722 
Q 234 866 362 1009 
Q 491 1153 772 1241 
L 1038 1069 
Q 866 1031 772 953 
Q 678 875 678 791 
Q 678 731 734 682 
Q 791 634 928 606 
Q 1066 578 1303 575 
L 1025 216 
z
M 1363 984 
Q 1003 984 753 1128 
Q 503 1272 375 1509 
Q 247 1747 247 2022 
Q 247 2313 376 2550 
Q 506 2788 754 2928 
Q 1003 3069 1366 3069 
Q 1738 3069 1983 2928 
Q 2228 2788 2351 2550 
Q 2475 2313 2475 2022 
Q 2475 1741 2350 1505 
Q 2225 1269 1979 1126 
Q 1734 984 1363 984 
z
M 1366 1341 
Q 1641 1341 1812 1512 
Q 1984 1684 1984 2022 
Q 1984 2375 1817 2545 
Q 1650 2716 1372 2716 
Q 1094 2716 919 2541 
Q 744 2366 744 2025 
Q 744 1681 931 1511 
Q 1119 1341 1366 1341 
z
M 2131 2734 
L 1922 2931 
Q 2038 3225 2252 3331 
Q 2466 3438 2794 3447 
L 2794 3006 
Q 2588 3006 2416 2961 
Q 2244 2916 2131 2734 
z
" transform="scale(0.015625)"/>
       <path id="AptosDisplay-5f" d="M 0 -738 
L 0 -441 
L 2944 -441 
L 2944 -738 
L 0 -738 
z
" transform="scale(0.015625)"/>
       <path id="AptosDisplay-70" d="M 413 -1128 
L 413 3044 
L 931 3044 
L 934 2547 
Q 1091 2797 1331 2947 
Q 1572 3097 1897 3097 
Q 2253 3097 2512 2920 
Q 2772 2744 2911 2394 
Q 3050 2044 3050 1522 
Q 3050 1003 2906 650 
Q 2763 297 2500 120 
Q 2238 -56 1881 -56 
Q 1556 -56 1320 70 
Q 1084 197 925 428 
L 925 -1128 
L 413 -1128 
z
M 1784 372 
Q 2153 372 2333 672 
Q 2513 972 2513 1522 
Q 2513 2078 2330 2376 
Q 2147 2675 1788 2675 
Q 1472 2675 1264 2498 
Q 1056 2322 938 2081 
L 938 906 
Q 1056 675 1265 523 
Q 1475 372 1784 372 
z
" transform="scale(0.015625)"/>
       <path id="AptosDisplay-6c" d="M 1297 0 
Q 928 0 731 117 
Q 534 234 461 454 
Q 388 675 388 984 
L 388 4206 
L 909 4206 
L 909 1009 
Q 909 725 982 575 
Q 1056 425 1331 425 
L 1472 425 
L 1472 0 
L 1297 0 
z
" transform="scale(0.015625)"/>
       <path id="AptosDisplay-64" d="M 1434 -56 
Q 1078 -56 815 120 
Q 553 297 409 644 
Q 266 991 266 1503 
Q 266 2031 412 2386 
Q 559 2741 831 2920 
Q 1103 3100 1472 3100 
Q 1803 3100 2029 2959 
Q 2256 2819 2397 2578 
L 2397 4206 
L 2906 4206 
L 2906 0 
L 2425 0 
L 2391 459 
Q 2244 228 2006 86 
Q 1769 -56 1434 -56 
z
M 1525 372 
Q 1841 372 2052 534 
Q 2263 697 2381 922 
L 2381 2103 
Q 2266 2356 2064 2514 
Q 1863 2672 1566 2672 
Q 1184 2672 993 2370 
Q 803 2069 803 1506 
Q 803 956 986 664 
Q 1169 372 1525 372 
z
" transform="scale(0.015625)"/>
       <path id="AptosDisplay-74" d="M 1466 0 
Q 1100 0 901 117 
Q 703 234 629 454 
Q 556 675 556 984 
L 556 2622 
L 50 2622 
L 50 3044 
L 556 3044 
L 556 3741 
L 1078 3741 
L 1078 3044 
L 1831 3044 
L 1831 2622 
L 1078 2622 
L 1078 1009 
Q 1078 725 1151 575 
Q 1225 425 1500 425 
L 1831 425 
L 1831 0 
L 1466 0 
z
" transform="scale(0.015625)"/>
      </defs>
      <use xlink:href="#AptosDisplay-61"/>
      <use xlink:href="#AptosDisplay-76" x="48.925781"/>
      <use xlink:href="#AptosDisplay-65" x="92.1875"/>
      <use xlink:href="#AptosDisplay-72" x="141.601562"/>
      <use xlink:href="#AptosDisplay-61" x="172.607422"/>
      <use xlink:href="#AptosDisplay-67" x="221.533203"/>
      <use xlink:href="#AptosDisplay-65" x="265.478516"/>
      <use xlink:href="#AptosDisplay-5f" x="314.892578"/>
      <use xlink:href="#AptosDisplay-70" x="360.888672"/>
      <use xlink:href="#AptosDisplay-6c" x="412.744141"/>
      <use xlink:href="#AptosDisplay-64" x="437.109375"/>
      <use xlink:href="#AptosDisplay-64" x="488.964844"/>
      <use xlink:href="#AptosDisplay-74" x="540.820312"/>
     </g>
    </g>
   </g>
   <g id="matplotlib.axis_2">
    <g id="ytick_1">
     <g id="line2d_7">
      <defs>
       <path id="m866101bddb" d="M 0 0 
L 3.5 0 
" style="stroke: #000000; stroke-width: 0.8"/>
      </defs>
      <g>
       <use xlink:href="#m866101bddb" x="57.6" y="307.584" style="stroke: #000000; stroke-width: 0.8"/>
      </g>
     </g>
     <g id="text_8">
      <!-- 0.0 -->
      <g transform="translate(38.595625 311.527125)scale(0.12 -0.12)">
       <defs>
        <path id="AptosDisplay-2e" d="M 794 -31 
Q 619 -31 503 83 
Q 388 197 388 363 
Q 388 534 503 645 
Q 619 756 794 756 
Q 963 756 1077 645 
Q 1191 534 1191 363 
Q 1191 197 1077 83 
Q 963 -31 794 -31 
z
" transform="scale(0.015625)"/>
       </defs>
       <use xlink:href="#AptosDisplay-30"/>
       <use xlink:href="#AptosDisplay-2e" x="52.294922"/>
       <use xlink:href="#AptosDisplay-30" x="76.904297"/>
      </g>
     </g>
    </g>
    <g id="ytick_2">
     <g id="line2d_8">
      <g>
       <use xlink:href="#m866101bddb" x="57.6" y="254.3616" style="stroke: #000000; stroke-width: 0.8"/>
      </g>
     </g>
     <g id="text_9">
      <!-- 0.2 -->
      <g transform="translate(38.595625 258.304725)scale(0.12 -0.12)">
       <use xlink:href="#AptosDisplay-30"/>
       <use xlink:href="#AptosDisplay-2e" x="52.294922"/>
       <use xlink:href="#AptosDisplay-32" x="76.904297"/>
      </g>
     </g>
    </g>
    <g id="ytick_3">
     <g id="line2d_9">
      <g>
       <use xlink:href="#m866101bddb" x="57.6" y="201.1392" style="stroke: #000000; stroke-width: 0.8"/>
      </g>
     </g>
     <g id="text_10">
      <!-- 0.4 -->
      <g transform="translate(38.595625 205.082325)scale(0.12 -0.12)">
       <use xlink:href="#AptosDisplay-30"/>
       <use xlink:href="#AptosDisplay-2e" x="52.294922"/>
       <use xlink:href="#AptosDisplay-34" x="76.904297"/>
      </g>
     </g>
    </g>
    <g id="ytick_4">
     <g id="line2d_10">
      <g>
       <use xlink:href="#m866101bddb" x="57.6" y="147.9168" style="stroke: #000000; stroke-width: 0.8"/>
      </g>
     </g>
     <g id="text_11">
      <!-- 0.6 -->
      <g transform="translate(38.595625 151.859925)scale(0.12 -0.12)">
       <use xlink:href="#AptosDisplay-30"/>
       <use xlink:href="#AptosDisplay-2e" x="52.294922"/>
       <use xlink:href="#AptosDisplay-36" x="76.904297"/>
      </g>
     </g>
    </g>
    <g id="ytick_5">
     <g id="line2d_11">
      <g>
       <use xlink:href="#m866101bddb" x="57.6" y="94.6944" style="stroke: #000000; stroke-width: 0.8"/>
      </g>
     </g>
     <g id="text_12">
      <!-- 0.8 -->
      <g transform="translate(38.595625 98.637525)scale(0.12 -0.12)">
       <use xlink:href="#AptosDisplay-30"/>
       <use xlink:href="#AptosDisplay-2e" x="52.294922"/>
       <use xlink:href="#AptosDisplay-38" x="76.904297"/>
      </g>
     </g>
    </g>
    <g id="ytick_6">
     <g id="line2d_12">
      <g>
       <use xlink:href="#m866101bddb" x="57.6" y="41.472" style="stroke: #000000; stroke-width: 0.8"/>
      </g>
     </g>
     <g id="text_13">
      <!-- 1.0 -->
      <g transform="translate(38.595625 45.415125)scale(0.12 -0.12)">
       <use xlink:href="#AptosDisplay-31"/>
       <use xlink:href="#AptosDisplay-2e" x="52.294922"/>
       <use xlink:href="#AptosDisplay-30" x="76.904297"/>
      </g>
     </g>
    </g>
    <g id="text_14">
     <!-- DockQ -->
     <g transform="translate(32.128125 194.147687)rotate(-90)scale(0.14 -0.14)">
      <defs>
       <path id="AptosDisplay-44" d="M 472 0 
L 472 4206 
L 1822 4206 
Q 2481 4206 2947 3957 
Q 3413 3709 3658 3237 
Q 3903 2766 3903 2103 
Q 3903 1438 3656 966 
Q 3409 494 2945 247 
Q 2481 0 1822 0 
L 472 0 
z
M 1034 472 
L 1697 472 
Q 2250 472 2609 648 
Q 2969 825 3147 1189 
Q 3325 1553 3325 2106 
Q 3325 2656 3144 3017 
Q 2963 3378 2602 3556 
Q 2241 3734 1697 3734 
L 1034 3734 
L 1034 472 
z
" transform="scale(0.015625)"/>
       <path id="AptosDisplay-6f" d="M 1622 -50 
Q 1194 -50 891 137 
Q 588 325 427 676 
Q 266 1028 266 1516 
Q 266 2009 427 2364 
Q 588 2719 891 2909 
Q 1194 3100 1622 3100 
Q 2059 3100 2371 2909 
Q 2684 2719 2850 2364 
Q 3016 2009 3016 1516 
Q 3016 1028 2850 676 
Q 2684 325 2371 137 
Q 2059 -50 1622 -50 
z
M 1622 363 
Q 1938 363 2123 513 
Q 2309 663 2392 922 
Q 2475 1181 2475 1516 
Q 2475 1850 2392 2112 
Q 2309 2375 2123 2526 
Q 1938 2678 1622 2678 
Q 1325 2678 1144 2526 
Q 963 2375 883 2112 
Q 803 1850 803 1513 
Q 803 1181 883 922 
Q 963 663 1144 513 
Q 1325 363 1622 363 
z
" transform="scale(0.015625)"/>
       <path id="AptosDisplay-63" d="M 1634 -53 
Q 1234 -53 925 122 
Q 616 297 441 645 
Q 266 994 266 1513 
Q 266 2031 437 2384 
Q 609 2738 917 2916 
Q 1225 3094 1634 3094 
Q 1978 3094 2251 2978 
Q 2525 2863 2689 2630 
Q 2853 2397 2866 2041 
L 2350 2041 
Q 2328 2334 2139 2503 
Q 1950 2672 1644 2672 
Q 1228 2672 1015 2367 
Q 803 2063 803 1513 
Q 803 1150 897 894 
Q 991 638 1178 503 
Q 1366 369 1644 369 
Q 1956 369 2159 541 
Q 2363 713 2372 1047 
L 2884 1047 
Q 2878 681 2711 436 
Q 2544 191 2264 69 
Q 1984 -53 1634 -53 
z
" transform="scale(0.015625)"/>
       <path id="AptosDisplay-6b" d="M 413 0 
L 413 4206 
L 934 4206 
L 934 1609 
L 2163 3044 
L 2756 3044 
L 1525 1616 
L 2888 0 
L 2272 0 
L 934 1581 
L 934 0 
L 413 0 
z
" transform="scale(0.015625)"/>
       <path id="AptosDisplay-51" d="M 3934 -884 
Q 3547 -884 3289 -814 
Q 3031 -744 2865 -612 
Q 2700 -481 2590 -303 
Q 2481 -125 2384 91 
L 2813 216 
Q 2906 56 2990 -59 
Q 3075 -175 3192 -247 
Q 3309 -319 3495 -355 
Q 3681 -391 3978 -391 
L 4147 -391 
L 4147 -884 
L 3934 -884 
z
M 2231 -56 
Q 1588 -56 1156 219 
Q 725 494 506 978 
Q 288 1463 288 2100 
Q 288 2738 506 3225 
Q 725 3713 1156 3988 
Q 1588 4263 2231 4263 
Q 2869 4263 3298 3988 
Q 3728 3713 3947 3225 
Q 4166 2738 4166 2100 
Q 4166 1463 3947 978 
Q 3728 494 3298 219 
Q 2869 -56 2231 -56 
z
M 2228 403 
Q 2713 403 3011 631 
Q 3309 859 3448 1245 
Q 3588 1631 3588 2100 
Q 3588 2572 3448 2958 
Q 3309 3344 3011 3573 
Q 2713 3803 2228 3803 
Q 1744 3803 1444 3573 
Q 1144 3344 1005 2958 
Q 866 2572 866 2100 
Q 866 1631 1005 1245 
Q 1144 859 1444 631 
Q 1744 403 2228 403 
z
" transform="scale(0.015625)"/>
      </defs>
      <use xlink:href="#AptosDisplay-44"/>
      <use xlink:href="#AptosDisplay-6f" x="65.478516"/>
      <use xlink:href="#AptosDisplay-63" x="116.748047"/>
      <use xlink:href="#AptosDisplay-6b" x="166.015625"/>
      <use xlink:href="#AptosDisplay-51" x="210.742188"/>
     </g>
    </g>
   </g>
   <g id="line2d_13">
    <path d="M 264.724776 130.410238 
L 265.900144 130.277314 
L 267.075512 130.14439 
L 268.25088 130.011466 
L 269.426248 129.878542 
L 270.601616 129.745618 
L 271.776984 129.612695 
L 272.952352 129.479771 
L 274.12772 129.346847 
L 275.303088 129.213923 
L 276.478456 129.080999 
L 277.653824 128.948075 
L 278.829192 128.815152 
L 280.004561 128.682228 
L 281.179929 128.549304 
L 282.355297 128.41638 
L 283.530665 128.283456 
L 284.706033 128.150532 
L 285.881401 128.017609 
L 287.056769 127.884685 
L 288.232137 127.751761 
L 289.407505 127.618837 
L 290.582873 127.485913 
L 291.758241 127.352989 
L 292.933609 127.220065 
L 294.108977 127.087142 
L 295.284345 126.954218 
L 296.459713 126.821294 
L 297.635081 126.68837 
L 298.810449 126.555446 
L 299.985818 126.422522 
L 301.161186 126.289599 
L 302.336554 126.156675 
L 303.511922 126.023751 
L 304.68729 125.890827 
L 305.862658 125.757903 
L 307.038026 125.624979 
L 308.213394 125.492056 
L 309.388762 125.359132 
L 310.56413 125.226208 
L 311.739498 125.093284 
L 312.914866 124.96036 
L 314.090234 124.827436 
L 315.265602 124.694512 
L 316.44097 124.561589 
L 317.616338 124.428665 
L 318.791706 124.295741 
L 319.967075 124.162817 
L 321.142443 124.029893 
L 322.317811 123.896969 
L 323.493179 123.764046 
L 324.668547 123.631122 
L 325.843915 123.498198 
L 327.019283 123.365274 
L 328.194651 123.23235 
L 329.370019 123.099426 
L 330.545387 122.966503 
L 331.720755 122.833579 
L 332.896123 122.700655 
L 334.071491 122.567731 
L 335.246859 122.434807 
L 336.422227 122.301883 
L 337.597595 122.168959 
L 338.772963 122.036036 
L 339.948332 121.903112 
L 341.1237 121.770188 
L 342.299068 121.637264 
L 343.474436 121.50434 
L 344.649804 121.371416 
L 345.825172 121.238493 
L 347.00054 121.105569 
L 348.175908 120.972645 
L 349.351276 120.839721 
L 350.526644 120.706797 
L 351.702012 120.573873 
L 352.87738 120.44095 
L 354.052748 120.308026 
L 355.228116 120.175102 
L 356.403484 120.042178 
L 357.578852 119.909254 
L 358.75422 119.77633 
L 359.929589 119.643406 
L 361.104957 119.510483 
L 362.280325 119.377559 
L 363.455693 119.244635 
L 364.631061 119.111711 
L 365.806429 118.978787 
L 366.981797 118.845863 
L 368.157165 118.71294 
L 369.332533 118.580016 
L 370.507901 118.447092 
L 371.683269 118.314168 
L 372.858637 118.181244 
L 374.034005 118.04832 
L 375.209373 117.915397 
L 376.384741 117.782473 
L 377.560109 117.649549 
L 378.735477 117.516625 
L 379.910846 117.383701 
L 381.086214 117.250777 
" clip-path="url(#p76dfd313e0)" style="fill: none; stroke: #0b3d91; stroke-width: 1.5; stroke-linecap: square"/>
   </g>
   <g id="patch_3">
    <path d="M 57.6 307.584 
L 57.6 41.472 
" style="fill: none; stroke: #000000; stroke-width: 0.8; stroke-linejoin: miter; stroke-linecap: square"/>
   </g>
   <g id="patch_4">
    <path d="M 414.72 307.584 
L 414.72 41.472 
" style="fill: none; stroke: #000000; stroke-width: 0.8; stroke-linejoin: miter; stroke-linecap: square"/>
   </g>
   <g id="patch_5">
    <path d="M 57.6 307.584 
L 414.72 307.584 
" style="fill: none; stroke: #000000; stroke-width: 0.8; stroke-linejoin: miter; stroke-linecap: square"/>
   </g>
   <g id="patch_6">
    <path d="M 57.6 41.472 
L 414.72 41.472 
" style="fill: none; stroke: #000000; stroke-width: 0.8; stroke-linejoin: miter; stroke-linecap: square"/>
   </g>
   <g id="text_15">
    <!-- y = 0.58 + 0.0x -->
    <g transform="translate(70.0992 56.9853)scale(0.12 -0.12)">
     <defs>
      <path id="AptosDisplay-79" d="M 266 -1128 
L 266 -697 
L 525 -697 
Q 716 -697 831 -598 
Q 947 -500 1038 -275 
L 1153 0 
L -13 3044 
L 538 3044 
L 1428 553 
L 2250 3044 
L 2781 3044 
L 1688 0 
L 1550 -356 
Q 1441 -647 1314 -815 
Q 1188 -984 1013 -1056 
Q 838 -1128 578 -1128 
L 266 -1128 
z
" transform="scale(0.015625)"/>
      <path id="AptosDisplay-20" transform="scale(0.015625)"/>
      <path id="AptosDisplay-3d" d="M 319 1344 
L 319 1803 
L 3022 1803 
L 3022 1344 
L 319 1344 
z
M 319 2391 
L 319 2844 
L 3022 2844 
L 3022 2391 
L 319 2391 
z
" transform="scale(0.015625)"/>
      <path id="AptosDisplay-35" d="M 1669 -56 
Q 1278 -56 964 83 
Q 650 222 465 483 
Q 281 744 281 1113 
L 816 1113 
Q 816 778 1055 584 
Q 1294 391 1669 391 
Q 2069 391 2291 625 
Q 2513 859 2513 1319 
Q 2513 1772 2291 1989 
Q 2069 2206 1697 2206 
Q 1409 2206 1223 2123 
Q 1038 2041 916 1894 
L 444 1894 
L 622 4078 
L 2788 4078 
L 2788 3613 
L 1041 3613 
L 931 2322 
Q 1044 2453 1251 2550 
Q 1459 2647 1775 2647 
Q 2131 2647 2420 2506 
Q 2709 2366 2881 2072 
Q 3053 1778 3053 1319 
Q 3053 863 2875 558 
Q 2697 253 2384 98 
Q 2072 -56 1669 -56 
z
" transform="scale(0.015625)"/>
      <path id="AptosDisplay-2b" d="M 319 2319 
L 3022 2319 
L 3022 1866 
L 319 1866 
L 319 2319 
z
M 1444 741 
L 1444 3444 
L 1897 3444 
L 1897 741 
L 1444 741 
z
" transform="scale(0.015625)"/>
      <path id="AptosDisplay-78" d="M 22 0 
L 1125 1653 
L 1363 1825 
L 2134 3044 
L 2694 3044 
L 1666 1513 
L 1453 1347 
L 575 0 
L 22 0 
z
M 2241 0 
L 1350 1347 
L 1150 1509 
L 119 3044 
L 678 3044 
L 1453 1825 
L 1691 1656 
L 2797 0 
L 2241 0 
z
" transform="scale(0.015625)"/>
     </defs>
     <use xlink:href="#AptosDisplay-79"/>
     <use xlink:href="#AptosDisplay-20" x="43.261719"/>
     <use xlink:href="#AptosDisplay-3d" x="62.548828"/>
     <use xlink:href="#AptosDisplay-20" x="114.84375"/>
     <use xlink:href="#AptosDisplay-30" x="134.130859"/>
     <use xlink:href="#AptosDisplay-2e" x="186.425781"/>
     <use xlink:href="#AptosDisplay-35" x="211.035156"/>
     <use xlink:href="#AptosDisplay-38" x="263.330078"/>
     <use xlink:href="#AptosDisplay-20" x="315.625"/>
     <use xlink:href="#AptosDisplay-2b" x="334.912109"/>
     <use xlink:href="#AptosDisplay-20" x="387.207031"/>
     <use xlink:href="#AptosDisplay-30" x="406.494141"/>
     <use xlink:href="#AptosDisplay-2e" x="458.789062"/>
     <use xlink:href="#AptosDisplay-30" x="483.398438"/>
     <use xlink:href="#AptosDisplay-78" x="535.693359"/>
    </g>
    <!-- r$^2$ = 0.004 -->
    <g transform="translate(70.0992 69.8103)scale(0.12 -0.12)">
     <defs>
      <path id="DejaVuSans-32" d="M 1228 531 
L 3431 531 
L 3431 0 
L 469 0 
L 469 531 
Q 828 903 1448 1529 
Q 2069 2156 2228 2338 
Q 2531 2678 2651 2914 
Q 2772 3150 2772 3378 
Q 2772 3750 2511 3984 
Q 2250 4219 1831 4219 
Q 1534 4219 1204 4116 
Q 875 4013 500 3803 
L 500 4441 
Q 881 4594 1212 4672 
Q 1544 4750 1819 4750 
Q 2544 4750 2975 4387 
Q 3406 4025 3406 3419 
Q 3406 3131 3298 2873 
Q 3191 2616 2906 2266 
Q 2828 2175 2409 1742 
Q 1991 1309 1228 531 
z
" transform="scale(0.015625)"/>
     </defs>
     <use xlink:href="#AptosDisplay-72" transform="translate(0 0.765625)"/>
     <use xlink:href="#DejaVuSans-32" transform="translate(31.962891 39.046875)scale(0.7)"/>
     <use xlink:href="#AptosDisplay-20" transform="translate(79.233398 0.765625)"/>
     <use xlink:href="#AptosDisplay-3d" transform="translate(98.520508 0.765625)"/>
     <use xlink:href="#AptosDisplay-20" transform="translate(150.81543 0.765625)"/>
     <use xlink:href="#AptosDisplay-30" transform="translate(170.102539 0.765625)"/>
     <use xlink:href="#AptosDisplay-2e" transform="translate(222.397461 0.765625)"/>
     <use xlink:href="#AptosDisplay-30" transform="translate(247.006836 0.765625)"/>
     <use xlink:href="#AptosDisplay-30" transform="translate(299.301758 0.765625)"/>
     <use xlink:href="#AptosDisplay-34" transform="translate(351.59668 0.765625)"/>
    </g>
    <!-- MSE = 0.031 -->
    <g transform="translate(70.0992 81.3888)scale(0.12 -0.12)">
     <defs>
      <path id="AptosDisplay-4d" d="M 472 0 
L 472 4206 
L 1084 4206 
L 2584 1728 
L 2356 1728 
L 3822 4206 
L 4425 4206 
L 4425 0 
L 3869 0 
L 3869 3738 
L 4063 3738 
L 2634 1322 
L 2266 1322 
L 816 3738 
L 1013 3738 
L 1013 0 
L 472 0 
z
" transform="scale(0.015625)"/>
      <path id="AptosDisplay-53" d="M 1778 -56 
Q 1328 -56 962 81 
Q 597 219 384 512 
Q 172 806 172 1275 
L 734 1275 
Q 738 941 883 750 
Q 1028 559 1267 481 
Q 1506 403 1794 403 
Q 2063 403 2283 483 
Q 2503 563 2634 723 
Q 2766 884 2766 1134 
Q 2766 1356 2662 1497 
Q 2559 1638 2321 1742 
Q 2084 1847 1678 1950 
Q 1203 2075 897 2223 
Q 591 2372 442 2594 
Q 294 2816 294 3156 
Q 294 3516 462 3761 
Q 631 4006 945 4134 
Q 1259 4263 1697 4263 
Q 2103 4263 2440 4131 
Q 2778 4000 2979 3737 
Q 3181 3475 3181 3084 
L 2616 3084 
Q 2622 3441 2356 3623 
Q 2091 3806 1700 3806 
Q 1300 3806 1073 3645 
Q 847 3484 847 3175 
Q 847 2991 944 2867 
Q 1041 2744 1280 2644 
Q 1519 2544 1941 2434 
Q 2428 2303 2731 2153 
Q 3034 2003 3178 1768 
Q 3322 1534 3322 1153 
Q 3322 747 3117 480 
Q 2913 213 2564 78 
Q 2216 -56 1778 -56 
z
" transform="scale(0.015625)"/>
      <path id="AptosDisplay-45" d="M 472 0 
L 472 4206 
L 3153 4206 
L 3153 3738 
L 1034 3738 
L 1034 2397 
L 2984 2397 
L 2984 1934 
L 1034 1934 
L 1034 469 
L 3153 469 
L 3153 0 
L 472 0 
z
" transform="scale(0.015625)"/>
      <path id="AptosDisplay-33" d="M 1700 -56 
Q 1047 -56 655 275 
Q 263 606 263 1225 
L 781 1225 
Q 781 844 1023 617 
Q 1266 391 1697 391 
Q 2094 391 2322 581 
Q 2550 772 2550 1172 
Q 2550 1556 2297 1737 
Q 2044 1919 1609 1919 
L 1366 1919 
L 1366 2363 
L 1622 2363 
Q 2013 2363 2222 2555 
Q 2431 2747 2431 3066 
Q 2431 3372 2226 3526 
Q 2022 3681 1684 3681 
Q 1306 3681 1095 3481 
Q 884 3281 891 2956 
L 372 2956 
Q 372 3319 536 3583 
Q 700 3847 995 3990 
Q 1291 4134 1681 4134 
Q 2031 4134 2318 4017 
Q 2606 3900 2778 3670 
Q 2950 3441 2950 3097 
Q 2950 2738 2745 2498 
Q 2541 2259 2206 2166 
Q 2591 2097 2841 1836 
Q 3091 1575 3091 1150 
Q 3091 763 2916 494 
Q 2741 225 2428 84 
Q 2116 -56 1700 -56 
z
" transform="scale(0.015625)"/>
     </defs>
     <use xlink:href="#AptosDisplay-4d"/>
     <use xlink:href="#AptosDisplay-53" x="76.513672"/>
     <use xlink:href="#AptosDisplay-45" x="131.103516"/>
     <use xlink:href="#AptosDisplay-20" x="185.15625"/>
     <use xlink:href="#AptosDisplay-3d" x="204.443359"/>
     <use xlink:href="#AptosDisplay-20" x="256.738281"/>
     <use xlink:href="#AptosDisplay-30" x="276.025391"/>
     <use xlink:href="#AptosDisplay-2e" x="328.320312"/>
     <use xlink:href="#AptosDisplay-30" x="352.929688"/>
     <use xlink:href="#AptosDisplay-33" x="405.224609"/>
     <use xlink:href="#AptosDisplay-31" x="457.519531"/>
    </g>
   </g>
   <g id="text_16">
    <!-- AF2 -->
    <g transform="translate(223.26125 35.472)scale(0.16 -0.16)">
     <defs>
      <path id="AptosDisplay-41" d="M -6 0 
L 1569 4206 
L 2159 4206 
L 3719 0 
L 3134 0 
L 2738 1178 
L 988 1178 
L 572 0 
L -6 0 
z
M 1141 1650 
L 2572 1650 
L 1863 3647 
L 1141 1650 
z
" transform="scale(0.015625)"/>
      <path id="AptosDisplay-46" d="M 472 0 
L 472 4206 
L 3091 4206 
L 3091 3738 
L 1034 3738 
L 1034 2394 
L 2894 2394 
L 2894 1934 
L 1034 1934 
L 1034 0 
L 472 0 
z
" transform="scale(0.015625)"/>
     </defs>
     <use xlink:href="#AptosDisplay-41"/>
     <use xlink:href="#AptosDisplay-46" x="58.007812"/>
     <use xlink:href="#AptosDisplay-32" x="108.935547"/>
    </g>
   </g>
  </g>
 </g>
 <defs>
  <clipPath id="p76dfd313e0">
   <rect x="57.6" y="41.472" width="357.12" height="266.112"/>
  </clipPath>
 </defs>
</svg>
