<?xml version="1.0" encoding="utf-8" standalone="no"?>
<!DOCTYPE svg PUBLIC "-//W3C//DTD SVG 1.1//EN"
  "http://www.w3.org/Graphics/SVG/1.1/DTD/svg11.dtd">
<svg xmlns:xlink="http://www.w3.org/1999/xlink" width="720pt" height="504pt" viewBox="0 0 720 504" xmlns="http://www.w3.org/2000/svg" version="1.1">
 <metadata>
  <rdf:RDF xmlns:dc="http://purl.org/dc/elements/1.1/" xmlns:cc="http://creativecommons.org/ns#" xmlns:rdf="http://www.w3.org/1999/02/22-rdf-syntax-ns#">
   <cc:Work>
    <dc:type rdf:resource="http://purl.org/dc/dcmitype/StillImage"/>
    <dc:date>2024-07-26T15:02:09.276938</dc:date>
    <dc:format>image/svg+xml</dc:format>
    <dc:creator>
     <cc:Agent>
      <dc:title>Matplotlib v3.8.3, https://matplotlib.org/</dc:title>
     </cc:Agent>
    </dc:creator>
   </cc:Work>
  </rdf:RDF>
 </metadata>
 <defs>
  <style type="text/css">*{stroke-linejoin: round; stroke-linecap: butt}</style>
 </defs>
 <g id="figure_1">
  <g id="patch_1">
   <path d="M 0 504 
L 720 504 
L 720 0 
L 0 0 
z
" style="fill: #ffffff"/>
  </g>
  <g id="axes_1">
   <g id="patch_2">
    <path d="M 90 448.56 
L 648 448.56 
L 648 60.48 
L 90 60.48 
z
" style="fill: #ffffff"/>
   </g>
   <g id="patch_3">
    <path d="M 115.363636 448.56 
L 152.939394 448.56 
L 152.939394 448.56 
L 115.363636 448.56 
z
" clip-path="url(#p2d5b7fa0de)" style="fill: #2ca02c; fill-opacity: 0.75; stroke: #000000; stroke-linejoin: miter"/>
   </g>
   <g id="patch_4">
    <path d="M 162.333333 448.56 
L 199.909091 448.56 
L 199.909091 448.56 
L 162.333333 448.56 
z
" clip-path="url(#p2d5b7fa0de)" style="fill: #2ca02c; fill-opacity: 0.75; stroke: #000000; stroke-linejoin: miter"/>
   </g>
   <g id="patch_5">
    <path d="M 209.30303 448.56 
L 246.878788 448.56 
L 246.878788 448.56 
L 209.30303 448.56 
z
" clip-path="url(#p2d5b7fa0de)" style="fill: #2ca02c; fill-opacity: 0.75; stroke: #000000; stroke-linejoin: miter"/>
   </g>
   <g id="patch_6">
    <path d="M 256.272727 448.56 
L 293.848485 448.56 
L 293.848485 448.56 
L 256.272727 448.56 
z
" clip-path="url(#p2d5b7fa0de)" style="fill: #2ca02c; fill-opacity: 0.75; stroke: #000000; stroke-linejoin: miter"/>
   </g>
   <g id="patch_7">
    <path d="M 303.242424 448.56 
L 340.818182 448.56 
L 340.818182 438.704 
L 303.242424 438.704 
z
" clip-path="url(#p2d5b7fa0de)" style="fill: #2ca02c; fill-opacity: 0.75; stroke: #000000; stroke-linejoin: miter"/>
   </g>
   <g id="patch_8">
    <path d="M 350.212121 448.56 
L 387.787879 448.56 
L 387.787879 443.632 
L 350.212121 443.632 
z
" clip-path="url(#p2d5b7fa0de)" style="fill: #2ca02c; fill-opacity: 0.75; stroke: #000000; stroke-linejoin: miter"/>
   </g>
   <g id="patch_9">
    <path d="M 397.181818 448.56 
L 434.757576 448.56 
L 434.757576 448.56 
L 397.181818 448.56 
z
" clip-path="url(#p2d5b7fa0de)" style="fill: #2ca02c; fill-opacity: 0.75; stroke: #000000; stroke-linejoin: miter"/>
   </g>
   <g id="patch_10">
    <path d="M 444.151515 448.56 
L 481.727273 448.56 
L 481.727273 448.56 
L 444.151515 448.56 
z
" clip-path="url(#p2d5b7fa0de)" style="fill: #2ca02c; fill-opacity: 0.75; stroke: #000000; stroke-linejoin: miter"/>
   </g>
   <g id="patch_11">
    <path d="M 491.121212 448.56 
L 528.69697 448.56 
L 528.69697 448.56 
L 491.121212 448.56 
z
" clip-path="url(#p2d5b7fa0de)" style="fill: #2ca02c; fill-opacity: 0.75; stroke: #000000; stroke-linejoin: miter"/>
   </g>
   <g id="patch_12">
    <path d="M 538.090909 448.56 
L 575.666667 448.56 
L 575.666667 448.56 
L 538.090909 448.56 
z
" clip-path="url(#p2d5b7fa0de)" style="fill: #2ca02c; fill-opacity: 0.75; stroke: #000000; stroke-linejoin: miter"/>
   </g>
   <g id="patch_13">
    <path d="M 585.060606 448.56 
L 622.636364 448.56 
L 622.636364 448.56 
L 585.060606 448.56 
z
" clip-path="url(#p2d5b7fa0de)" style="fill: #2ca02c; fill-opacity: 0.75; stroke: #000000; stroke-linejoin: miter"/>
   </g>
   <g id="patch_14">
    <path d="M 115.363636 448.56 
L 152.939394 448.56 
L 152.939394 448.56 
L 115.363636 448.56 
z
" clip-path="url(#p2d5b7fa0de)" style="fill: #ff7f0e; fill-opacity: 0.75; stroke: #000000; stroke-linejoin: miter"/>
   </g>
   <g id="patch_15">
    <path d="M 162.333333 448.56 
L 199.909091 448.56 
L 199.909091 448.56 
L 162.333333 448.56 
z
" clip-path="url(#p2d5b7fa0de)" style="fill: #ff7f0e; fill-opacity: 0.75; stroke: #000000; stroke-linejoin: miter"/>
   </g>
   <g id="patch_16">
    <path d="M 209.30303 448.56 
L 246.878788 448.56 
L 246.878788 448.56 
L 209.30303 448.56 
z
" clip-path="url(#p2d5b7fa0de)" style="fill: #ff7f0e; fill-opacity: 0.75; stroke: #000000; stroke-linejoin: miter"/>
   </g>
   <g id="patch_17">
    <path d="M 256.272727 448.56 
L 293.848485 448.56 
L 293.848485 438.704 
L 256.272727 438.704 
z
" clip-path="url(#p2d5b7fa0de)" style="fill: #ff7f0e; fill-opacity: 0.75; stroke: #000000; stroke-linejoin: miter"/>
   </g>
   <g id="patch_18">
    <path d="M 303.242424 438.704 
L 340.818182 438.704 
L 340.818182 389.424 
L 303.242424 389.424 
z
" clip-path="url(#p2d5b7fa0de)" style="fill: #ff7f0e; fill-opacity: 0.75; stroke: #000000; stroke-linejoin: miter"/>
   </g>
   <g id="patch_19">
    <path d="M 350.212121 443.632 
L 387.787879 443.632 
L 387.787879 438.704 
L 350.212121 438.704 
z
" clip-path="url(#p2d5b7fa0de)" style="fill: #ff7f0e; fill-opacity: 0.75; stroke: #000000; stroke-linejoin: miter"/>
   </g>
   <g id="patch_20">
    <path d="M 397.181818 448.56 
L 434.757576 448.56 
L 434.757576 443.632 
L 397.181818 443.632 
z
" clip-path="url(#p2d5b7fa0de)" style="fill: #ff7f0e; fill-opacity: 0.75; stroke: #000000; stroke-linejoin: miter"/>
   </g>
   <g id="patch_21">
    <path d="M 444.151515 448.56 
L 481.727273 448.56 
L 481.727273 448.56 
L 444.151515 448.56 
z
" clip-path="url(#p2d5b7fa0de)" style="fill: #ff7f0e; fill-opacity: 0.75; stroke: #000000; stroke-linejoin: miter"/>
   </g>
   <g id="patch_22">
    <path d="M 491.121212 448.56 
L 528.69697 448.56 
L 528.69697 443.632 
L 491.121212 443.632 
z
" clip-path="url(#p2d5b7fa0de)" style="fill: #ff7f0e; fill-opacity: 0.75; stroke: #000000; stroke-linejoin: miter"/>
   </g>
   <g id="patch_23">
    <path d="M 538.090909 448.56 
L 575.666667 448.56 
L 575.666667 448.56 
L 538.090909 448.56 
z
" clip-path="url(#p2d5b7fa0de)" style="fill: #ff7f0e; fill-opacity: 0.75; stroke: #000000; stroke-linejoin: miter"/>
   </g>
   <g id="patch_24">
    <path d="M 585.060606 448.56 
L 622.636364 448.56 
L 622.636364 448.56 
L 585.060606 448.56 
z
" clip-path="url(#p2d5b7fa0de)" style="fill: #ff7f0e; fill-opacity: 0.75; stroke: #000000; stroke-linejoin: miter"/>
   </g>
   <g id="patch_25">
    <path d="M 115.363636 448.56 
L 152.939394 448.56 
L 152.939394 443.632 
L 115.363636 443.632 
z
" clip-path="url(#p2d5b7fa0de)" style="fill: #1f77b4; fill-opacity: 0.75; stroke: #000000; stroke-linejoin: miter"/>
   </g>
   <g id="patch_26">
    <path d="M 162.333333 448.56 
L 199.909091 448.56 
L 199.909091 438.704 
L 162.333333 438.704 
z
" clip-path="url(#p2d5b7fa0de)" style="fill: #1f77b4; fill-opacity: 0.75; stroke: #000000; stroke-linejoin: miter"/>
   </g>
   <g id="patch_27">
    <path d="M 209.30303 448.56 
L 246.878788 448.56 
L 246.878788 438.704 
L 209.30303 438.704 
z
" clip-path="url(#p2d5b7fa0de)" style="fill: #1f77b4; fill-opacity: 0.75; stroke: #000000; stroke-linejoin: miter"/>
   </g>
   <g id="patch_28">
    <path d="M 256.272727 438.704 
L 293.848485 438.704 
L 293.848485 399.28 
L 256.272727 399.28 
z
" clip-path="url(#p2d5b7fa0de)" style="fill: #1f77b4; fill-opacity: 0.75; stroke: #000000; stroke-linejoin: miter"/>
   </g>
   <g id="patch_29">
    <path d="M 303.242424 389.424 
L 340.818182 389.424 
L 340.818182 78.96 
L 303.242424 78.96 
z
" clip-path="url(#p2d5b7fa0de)" style="fill: #1f77b4; fill-opacity: 0.75; stroke: #000000; stroke-linejoin: miter"/>
   </g>
   <g id="patch_30">
    <path d="M 350.212121 438.704 
L 387.787879 438.704 
L 387.787879 379.568 
L 350.212121 379.568 
z
" clip-path="url(#p2d5b7fa0de)" style="fill: #1f77b4; fill-opacity: 0.75; stroke: #000000; stroke-linejoin: miter"/>
   </g>
   <g id="patch_31">
    <path d="M 397.181818 443.632 
L 434.757576 443.632 
L 434.757576 394.352 
L 397.181818 394.352 
z
" clip-path="url(#p2d5b7fa0de)" style="fill: #1f77b4; fill-opacity: 0.75; stroke: #000000; stroke-linejoin: miter"/>
   </g>
   <g id="patch_32">
    <path d="M 444.151515 448.56 
L 481.727273 448.56 
L 481.727273 438.704 
L 444.151515 438.704 
z
" clip-path="url(#p2d5b7fa0de)" style="fill: #1f77b4; fill-opacity: 0.75; stroke: #000000; stroke-linejoin: miter"/>
   </g>
   <g id="patch_33">
    <path d="M 491.121212 443.632 
L 528.69697 443.632 
L 528.69697 433.776 
L 491.121212 433.776 
z
" clip-path="url(#p2d5b7fa0de)" style="fill: #1f77b4; fill-opacity: 0.75; stroke: #000000; stroke-linejoin: miter"/>
   </g>
   <g id="patch_34">
    <path d="M 538.090909 448.56 
L 575.666667 448.56 
L 575.666667 443.632 
L 538.090909 443.632 
z
" clip-path="url(#p2d5b7fa0de)" style="fill: #1f77b4; fill-opacity: 0.75; stroke: #000000; stroke-linejoin: miter"/>
   </g>
   <g id="patch_35">
    <path d="M 585.060606 448.56 
L 622.636364 448.56 
L 622.636364 438.704 
L 585.060606 438.704 
z
" clip-path="url(#p2d5b7fa0de)" style="fill: #1f77b4; fill-opacity: 0.75; stroke: #000000; stroke-linejoin: miter"/>
   </g>
   <g id="matplotlib.axis_1">
    <g id="xtick_1">
     <g id="line2d_1">
      <defs>
       <path id="md4b1beeac6" d="M 0 0 
L 0 3.5 
" style="stroke: #000000; stroke-width: 0.8"/>
      </defs>
      <g>
       <use xlink:href="#md4b1beeac6" x="134.151515" y="448.56" style="stroke: #000000; stroke-width: 0.8"/>
      </g>
     </g>
     <g id="text_1">
      <!-- −4 -->
      <g transform="translate(126.780421 463.158437) scale(0.1 -0.1)">
       <defs>
        <path id="DejaVuSans-2212" d="M 678 2272 
L 4684 2272 
L 4684 1741 
L 678 1741 
L 678 2272 
z
" transform="scale(0.015625)"/>
        <path id="DejaVuSans-34" d="M 2419 4116 
L 825 1625 
L 2419 1625 
L 2419 4116 
z
M 2253 4666 
L 3047 4666 
L 3047 1625 
L 3713 1625 
L 3713 1100 
L 3047 1100 
L 3047 0 
L 2419 0 
L 2419 1100 
L 313 1100 
L 313 1709 
L 2253 4666 
z
" transform="scale(0.015625)"/>
       </defs>
       <use xlink:href="#DejaVuSans-2212"/>
       <use xlink:href="#DejaVuSans-34" x="83.789062"/>
      </g>
     </g>
    </g>
    <g id="xtick_2">
     <g id="line2d_2">
      <g>
       <use xlink:href="#md4b1beeac6" x="181.121212" y="448.56" style="stroke: #000000; stroke-width: 0.8"/>
      </g>
     </g>
     <g id="text_2">
      <!-- −3 -->
      <g transform="translate(173.750118 463.158437) scale(0.1 -0.1)">
       <defs>
        <path id="DejaVuSans-33" d="M 2597 2516 
Q 3050 2419 3304 2112 
Q 3559 1806 3559 1356 
Q 3559 666 3084 287 
Q 2609 -91 1734 -91 
Q 1441 -91 1130 -33 
Q 819 25 488 141 
L 488 750 
Q 750 597 1062 519 
Q 1375 441 1716 441 
Q 2309 441 2620 675 
Q 2931 909 2931 1356 
Q 2931 1769 2642 2001 
Q 2353 2234 1838 2234 
L 1294 2234 
L 1294 2753 
L 1863 2753 
Q 2328 2753 2575 2939 
Q 2822 3125 2822 3475 
Q 2822 3834 2567 4026 
Q 2313 4219 1838 4219 
Q 1578 4219 1281 4162 
Q 984 4106 628 3988 
L 628 4550 
Q 988 4650 1302 4700 
Q 1616 4750 1894 4750 
Q 2613 4750 3031 4423 
Q 3450 4097 3450 3541 
Q 3450 3153 3228 2886 
Q 3006 2619 2597 2516 
z
" transform="scale(0.015625)"/>
       </defs>
       <use xlink:href="#DejaVuSans-2212"/>
       <use xlink:href="#DejaVuSans-33" x="83.789062"/>
      </g>
     </g>
    </g>
    <g id="xtick_3">
     <g id="line2d_3">
      <g>
       <use xlink:href="#md4b1beeac6" x="228.090909" y="448.56" style="stroke: #000000; stroke-width: 0.8"/>
      </g>
     </g>
     <g id="text_3">
      <!-- −2 -->
      <g transform="translate(220.719815 463.158437) scale(0.1 -0.1)">
       <defs>
        <path id="DejaVuSans-32" d="M 1228 531 
L 3431 531 
L 3431 0 
L 469 0 
L 469 531 
Q 828 903 1448 1529 
Q 2069 2156 2228 2338 
Q 2531 2678 2651 2914 
Q 2772 3150 2772 3378 
Q 2772 3750 2511 3984 
Q 2250 4219 1831 4219 
Q 1534 4219 1204 4116 
Q 875 4013 500 3803 
L 500 4441 
Q 881 4594 1212 4672 
Q 1544 4750 1819 4750 
Q 2544 4750 2975 4387 
Q 3406 4025 3406 3419 
Q 3406 3131 3298 2873 
Q 3191 2616 2906 2266 
Q 2828 2175 2409 1742 
Q 1991 1309 1228 531 
z
" transform="scale(0.015625)"/>
       </defs>
       <use xlink:href="#DejaVuSans-2212"/>
       <use xlink:href="#DejaVuSans-32" x="83.789062"/>
      </g>
     </g>
    </g>
    <g id="xtick_4">
     <g id="line2d_4">
      <g>
       <use xlink:href="#md4b1beeac6" x="275.060606" y="448.56" style="stroke: #000000; stroke-width: 0.8"/>
      </g>
     </g>
     <g id="text_4">
      <!-- −1 -->
      <g transform="translate(267.689512 463.158437) scale(0.1 -0.1)">
       <defs>
        <path id="DejaVuSans-31" d="M 794 531 
L 1825 531 
L 1825 4091 
L 703 3866 
L 703 4441 
L 1819 4666 
L 2450 4666 
L 2450 531 
L 3481 531 
L 3481 0 
L 794 0 
L 794 531 
z
" transform="scale(0.015625)"/>
       </defs>
       <use xlink:href="#DejaVuSans-2212"/>
       <use xlink:href="#DejaVuSans-31" x="83.789062"/>
      </g>
     </g>
    </g>
    <g id="xtick_5">
     <g id="line2d_5">
      <g>
       <use xlink:href="#md4b1beeac6" x="322.030303" y="448.56" style="stroke: #000000; stroke-width: 0.8"/>
      </g>
     </g>
     <g id="text_5">
      <!-- 0 -->
      <g transform="translate(318.849053 463.158437) scale(0.1 -0.1)">
       <defs>
        <path id="DejaVuSans-30" d="M 2034 4250 
Q 1547 4250 1301 3770 
Q 1056 3291 1056 2328 
Q 1056 1369 1301 889 
Q 1547 409 2034 409 
Q 2525 409 2770 889 
Q 3016 1369 3016 2328 
Q 3016 3291 2770 3770 
Q 2525 4250 2034 4250 
z
M 2034 4750 
Q 2819 4750 3233 4129 
Q 3647 3509 3647 2328 
Q 3647 1150 3233 529 
Q 2819 -91 2034 -91 
Q 1250 -91 836 529 
Q 422 1150 422 2328 
Q 422 3509 836 4129 
Q 1250 4750 2034 4750 
z
" transform="scale(0.015625)"/>
       </defs>
       <use xlink:href="#DejaVuSans-30"/>
      </g>
     </g>
    </g>
    <g id="xtick_6">
     <g id="line2d_6">
      <g>
       <use xlink:href="#md4b1beeac6" x="369" y="448.56" style="stroke: #000000; stroke-width: 0.8"/>
      </g>
     </g>
     <g id="text_6">
      <!-- 1 -->
      <g transform="translate(365.81875 463.158437) scale(0.1 -0.1)">
       <use xlink:href="#DejaVuSans-31"/>
      </g>
     </g>
    </g>
    <g id="xtick_7">
     <g id="line2d_7">
      <g>
       <use xlink:href="#md4b1beeac6" x="415.969697" y="448.56" style="stroke: #000000; stroke-width: 0.8"/>
      </g>
     </g>
     <g id="text_7">
      <!-- 2 -->
      <g transform="translate(412.788447 463.158437) scale(0.1 -0.1)">
       <use xlink:href="#DejaVuSans-32"/>
      </g>
     </g>
    </g>
    <g id="xtick_8">
     <g id="line2d_8">
      <g>
       <use xlink:href="#md4b1beeac6" x="462.939394" y="448.56" style="stroke: #000000; stroke-width: 0.8"/>
      </g>
     </g>
     <g id="text_8">
      <!-- 3 -->
      <g transform="translate(459.758144 463.158437) scale(0.1 -0.1)">
       <use xlink:href="#DejaVuSans-33"/>
      </g>
     </g>
    </g>
    <g id="xtick_9">
     <g id="line2d_9">
      <g>
       <use xlink:href="#md4b1beeac6" x="509.909091" y="448.56" style="stroke: #000000; stroke-width: 0.8"/>
      </g>
     </g>
     <g id="text_9">
      <!-- 4 -->
      <g transform="translate(506.727841 463.158437) scale(0.1 -0.1)">
       <use xlink:href="#DejaVuSans-34"/>
      </g>
     </g>
    </g>
    <g id="xtick_10">
     <g id="line2d_10">
      <g>
       <use xlink:href="#md4b1beeac6" x="556.878788" y="448.56" style="stroke: #000000; stroke-width: 0.8"/>
      </g>
     </g>
     <g id="text_10">
      <!-- 5 -->
      <g transform="translate(553.697538 463.158437) scale(0.1 -0.1)">
       <defs>
        <path id="DejaVuSans-35" d="M 691 4666 
L 3169 4666 
L 3169 4134 
L 1269 4134 
L 1269 2991 
Q 1406 3038 1543 3061 
Q 1681 3084 1819 3084 
Q 2600 3084 3056 2656 
Q 3513 2228 3513 1497 
Q 3513 744 3044 326 
Q 2575 -91 1722 -91 
Q 1428 -91 1123 -41 
Q 819 9 494 109 
L 494 744 
Q 775 591 1075 516 
Q 1375 441 1709 441 
Q 2250 441 2565 725 
Q 2881 1009 2881 1497 
Q 2881 1984 2565 2268 
Q 2250 2553 1709 2553 
Q 1456 2553 1204 2497 
Q 953 2441 691 2322 
L 691 4666 
z
" transform="scale(0.015625)"/>
       </defs>
       <use xlink:href="#DejaVuSans-35"/>
      </g>
     </g>
    </g>
    <g id="xtick_11">
     <g id="line2d_11">
      <g>
       <use xlink:href="#md4b1beeac6" x="603.848485" y="448.56" style="stroke: #000000; stroke-width: 0.8"/>
      </g>
     </g>
     <g id="text_11">
      <!-- 6 -->
      <g transform="translate(600.667235 463.158437) scale(0.1 -0.1)">
       <defs>
        <path id="DejaVuSans-36" d="M 2113 2584 
Q 1688 2584 1439 2293 
Q 1191 2003 1191 1497 
Q 1191 994 1439 701 
Q 1688 409 2113 409 
Q 2538 409 2786 701 
Q 3034 994 3034 1497 
Q 3034 2003 2786 2293 
Q 2538 2584 2113 2584 
z
M 3366 4563 
L 3366 3988 
Q 3128 4100 2886 4159 
Q 2644 4219 2406 4219 
Q 1781 4219 1451 3797 
Q 1122 3375 1075 2522 
Q 1259 2794 1537 2939 
Q 1816 3084 2150 3084 
Q 2853 3084 3261 2657 
Q 3669 2231 3669 1497 
Q 3669 778 3244 343 
Q 2819 -91 2113 -91 
Q 1303 -91 875 529 
Q 447 1150 447 2328 
Q 447 3434 972 4092 
Q 1497 4750 2381 4750 
Q 2619 4750 2861 4703 
Q 3103 4656 3366 4563 
z
" transform="scale(0.015625)"/>
       </defs>
       <use xlink:href="#DejaVuSans-36"/>
      </g>
     </g>
    </g>
    <g id="text_12">
     <!-- Rank difference (AF2 - AF2 LIS) -->
     <g transform="translate(291.295313 476.836563) scale(0.1 -0.1)">
      <defs>
       <path id="DejaVuSans-52" d="M 2841 2188 
Q 3044 2119 3236 1894 
Q 3428 1669 3622 1275 
L 4263 0 
L 3584 0 
L 2988 1197 
Q 2756 1666 2539 1819 
Q 2322 1972 1947 1972 
L 1259 1972 
L 1259 0 
L 628 0 
L 628 4666 
L 2053 4666 
Q 2853 4666 3247 4331 
Q 3641 3997 3641 3322 
Q 3641 2881 3436 2590 
Q 3231 2300 2841 2188 
z
M 1259 4147 
L 1259 2491 
L 2053 2491 
Q 2509 2491 2742 2702 
Q 2975 2913 2975 3322 
Q 2975 3731 2742 3939 
Q 2509 4147 2053 4147 
L 1259 4147 
z
" transform="scale(0.015625)"/>
       <path id="DejaVuSans-61" d="M 2194 1759 
Q 1497 1759 1228 1600 
Q 959 1441 959 1056 
Q 959 750 1161 570 
Q 1363 391 1709 391 
Q 2188 391 2477 730 
Q 2766 1069 2766 1631 
L 2766 1759 
L 2194 1759 
z
M 3341 1997 
L 3341 0 
L 2766 0 
L 2766 531 
Q 2569 213 2275 61 
Q 1981 -91 1556 -91 
Q 1019 -91 701 211 
Q 384 513 384 1019 
Q 384 1609 779 1909 
Q 1175 2209 1959 2209 
L 2766 2209 
L 2766 2266 
Q 2766 2663 2505 2880 
Q 2244 3097 1772 3097 
Q 1472 3097 1187 3025 
Q 903 2953 641 2809 
L 641 3341 
Q 956 3463 1253 3523 
Q 1550 3584 1831 3584 
Q 2591 3584 2966 3190 
Q 3341 2797 3341 1997 
z
" transform="scale(0.015625)"/>
       <path id="DejaVuSans-6e" d="M 3513 2113 
L 3513 0 
L 2938 0 
L 2938 2094 
Q 2938 2591 2744 2837 
Q 2550 3084 2163 3084 
Q 1697 3084 1428 2787 
Q 1159 2491 1159 1978 
L 1159 0 
L 581 0 
L 581 3500 
L 1159 3500 
L 1159 2956 
Q 1366 3272 1645 3428 
Q 1925 3584 2291 3584 
Q 2894 3584 3203 3211 
Q 3513 2838 3513 2113 
z
" transform="scale(0.015625)"/>
       <path id="DejaVuSans-6b" d="M 581 4863 
L 1159 4863 
L 1159 1991 
L 2875 3500 
L 3609 3500 
L 1753 1863 
L 3688 0 
L 2938 0 
L 1159 1709 
L 1159 0 
L 581 0 
L 581 4863 
z
" transform="scale(0.015625)"/>
       <path id="DejaVuSans-20" transform="scale(0.015625)"/>
       <path id="DejaVuSans-64" d="M 2906 2969 
L 2906 4863 
L 3481 4863 
L 3481 0 
L 2906 0 
L 2906 525 
Q 2725 213 2448 61 
Q 2172 -91 1784 -91 
Q 1150 -91 751 415 
Q 353 922 353 1747 
Q 353 2572 751 3078 
Q 1150 3584 1784 3584 
Q 2172 3584 2448 3432 
Q 2725 3281 2906 2969 
z
M 947 1747 
Q 947 1113 1208 752 
Q 1469 391 1925 391 
Q 2381 391 2643 752 
Q 2906 1113 2906 1747 
Q 2906 2381 2643 2742 
Q 2381 3103 1925 3103 
Q 1469 3103 1208 2742 
Q 947 2381 947 1747 
z
" transform="scale(0.015625)"/>
       <path id="DejaVuSans-69" d="M 603 3500 
L 1178 3500 
L 1178 0 
L 603 0 
L 603 3500 
z
M 603 4863 
L 1178 4863 
L 1178 4134 
L 603 4134 
L 603 4863 
z
" transform="scale(0.015625)"/>
       <path id="DejaVuSans-66" d="M 2375 4863 
L 2375 4384 
L 1825 4384 
Q 1516 4384 1395 4259 
Q 1275 4134 1275 3809 
L 1275 3500 
L 2222 3500 
L 2222 3053 
L 1275 3053 
L 1275 0 
L 697 0 
L 697 3053 
L 147 3053 
L 147 3500 
L 697 3500 
L 697 3744 
Q 697 4328 969 4595 
Q 1241 4863 1831 4863 
L 2375 4863 
z
" transform="scale(0.015625)"/>
       <path id="DejaVuSans-65" d="M 3597 1894 
L 3597 1613 
L 953 1613 
Q 991 1019 1311 708 
Q 1631 397 2203 397 
Q 2534 397 2845 478 
Q 3156 559 3463 722 
L 3463 178 
Q 3153 47 2828 -22 
Q 2503 -91 2169 -91 
Q 1331 -91 842 396 
Q 353 884 353 1716 
Q 353 2575 817 3079 
Q 1281 3584 2069 3584 
Q 2775 3584 3186 3129 
Q 3597 2675 3597 1894 
z
M 3022 2063 
Q 3016 2534 2758 2815 
Q 2500 3097 2075 3097 
Q 1594 3097 1305 2825 
Q 1016 2553 972 2059 
L 3022 2063 
z
" transform="scale(0.015625)"/>
       <path id="DejaVuSans-72" d="M 2631 2963 
Q 2534 3019 2420 3045 
Q 2306 3072 2169 3072 
Q 1681 3072 1420 2755 
Q 1159 2438 1159 1844 
L 1159 0 
L 581 0 
L 581 3500 
L 1159 3500 
L 1159 2956 
Q 1341 3275 1631 3429 
Q 1922 3584 2338 3584 
Q 2397 3584 2469 3576 
Q 2541 3569 2628 3553 
L 2631 2963 
z
" transform="scale(0.015625)"/>
       <path id="DejaVuSans-63" d="M 3122 3366 
L 3122 2828 
Q 2878 2963 2633 3030 
Q 2388 3097 2138 3097 
Q 1578 3097 1268 2742 
Q 959 2388 959 1747 
Q 959 1106 1268 751 
Q 1578 397 2138 397 
Q 2388 397 2633 464 
Q 2878 531 3122 666 
L 3122 134 
Q 2881 22 2623 -34 
Q 2366 -91 2075 -91 
Q 1284 -91 818 406 
Q 353 903 353 1747 
Q 353 2603 823 3093 
Q 1294 3584 2113 3584 
Q 2378 3584 2631 3529 
Q 2884 3475 3122 3366 
z
" transform="scale(0.015625)"/>
       <path id="DejaVuSans-28" d="M 1984 4856 
Q 1566 4138 1362 3434 
Q 1159 2731 1159 2009 
Q 1159 1288 1364 580 
Q 1569 -128 1984 -844 
L 1484 -844 
Q 1016 -109 783 600 
Q 550 1309 550 2009 
Q 550 2706 781 3412 
Q 1013 4119 1484 4856 
L 1984 4856 
z
" transform="scale(0.015625)"/>
       <path id="DejaVuSans-41" d="M 2188 4044 
L 1331 1722 
L 3047 1722 
L 2188 4044 
z
M 1831 4666 
L 2547 4666 
L 4325 0 
L 3669 0 
L 3244 1197 
L 1141 1197 
L 716 0 
L 50 0 
L 1831 4666 
z
" transform="scale(0.015625)"/>
       <path id="DejaVuSans-46" d="M 628 4666 
L 3309 4666 
L 3309 4134 
L 1259 4134 
L 1259 2759 
L 3109 2759 
L 3109 2228 
L 1259 2228 
L 1259 0 
L 628 0 
L 628 4666 
z
" transform="scale(0.015625)"/>
       <path id="DejaVuSans-2d" d="M 313 2009 
L 1997 2009 
L 1997 1497 
L 313 1497 
L 313 2009 
z
" transform="scale(0.015625)"/>
       <path id="DejaVuSans-4c" d="M 628 4666 
L 1259 4666 
L 1259 531 
L 3531 531 
L 3531 0 
L 628 0 
L 628 4666 
z
" transform="scale(0.015625)"/>
       <path id="DejaVuSans-49" d="M 628 4666 
L 1259 4666 
L 1259 0 
L 628 0 
L 628 4666 
z
" transform="scale(0.015625)"/>
       <path id="DejaVuSans-53" d="M 3425 4513 
L 3425 3897 
Q 3066 4069 2747 4153 
Q 2428 4238 2131 4238 
Q 1616 4238 1336 4038 
Q 1056 3838 1056 3469 
Q 1056 3159 1242 3001 
Q 1428 2844 1947 2747 
L 2328 2669 
Q 3034 2534 3370 2195 
Q 3706 1856 3706 1288 
Q 3706 609 3251 259 
Q 2797 -91 1919 -91 
Q 1588 -91 1214 -16 
Q 841 59 441 206 
L 441 856 
Q 825 641 1194 531 
Q 1563 422 1919 422 
Q 2459 422 2753 634 
Q 3047 847 3047 1241 
Q 3047 1584 2836 1778 
Q 2625 1972 2144 2069 
L 1759 2144 
Q 1053 2284 737 2584 
Q 422 2884 422 3419 
Q 422 4038 858 4394 
Q 1294 4750 2059 4750 
Q 2388 4750 2728 4690 
Q 3069 4631 3425 4513 
z
" transform="scale(0.015625)"/>
       <path id="DejaVuSans-29" d="M 513 4856 
L 1013 4856 
Q 1481 4119 1714 3412 
Q 1947 2706 1947 2009 
Q 1947 1309 1714 600 
Q 1481 -109 1013 -844 
L 513 -844 
Q 928 -128 1133 580 
Q 1338 1288 1338 2009 
Q 1338 2731 1133 3434 
Q 928 4138 513 4856 
z
" transform="scale(0.015625)"/>
      </defs>
      <use xlink:href="#DejaVuSans-52"/>
      <use xlink:href="#DejaVuSans-61" x="67.232422"/>
      <use xlink:href="#DejaVuSans-6e" x="128.511719"/>
      <use xlink:href="#DejaVuSans-6b" x="191.890625"/>
      <use xlink:href="#DejaVuSans-20" x="249.800781"/>
      <use xlink:href="#DejaVuSans-64" x="281.587891"/>
      <use xlink:href="#DejaVuSans-69" x="345.064453"/>
      <use xlink:href="#DejaVuSans-66" x="372.847656"/>
      <use xlink:href="#DejaVuSans-66" x="408.052734"/>
      <use xlink:href="#DejaVuSans-65" x="443.257812"/>
      <use xlink:href="#DejaVuSans-72" x="504.78125"/>
      <use xlink:href="#DejaVuSans-65" x="543.644531"/>
      <use xlink:href="#DejaVuSans-6e" x="605.167969"/>
      <use xlink:href="#DejaVuSans-63" x="668.546875"/>
      <use xlink:href="#DejaVuSans-65" x="723.527344"/>
      <use xlink:href="#DejaVuSans-20" x="785.050781"/>
      <use xlink:href="#DejaVuSans-28" x="816.837891"/>
      <use xlink:href="#DejaVuSans-41" x="855.851562"/>
      <use xlink:href="#DejaVuSans-46" x="924.259766"/>
      <use xlink:href="#DejaVuSans-32" x="981.779297"/>
      <use xlink:href="#DejaVuSans-20" x="1045.402344"/>
      <use xlink:href="#DejaVuSans-2d" x="1077.189453"/>
      <use xlink:href="#DejaVuSans-20" x="1113.273438"/>
      <use xlink:href="#DejaVuSans-41" x="1145.060547"/>
      <use xlink:href="#DejaVuSans-46" x="1213.46875"/>
      <use xlink:href="#DejaVuSans-32" x="1270.988281"/>
      <use xlink:href="#DejaVuSans-20" x="1334.611328"/>
      <use xlink:href="#DejaVuSans-4c" x="1366.398438"/>
      <use xlink:href="#DejaVuSans-49" x="1422.111328"/>
      <use xlink:href="#DejaVuSans-53" x="1451.603516"/>
      <use xlink:href="#DejaVuSans-29" x="1515.080078"/>
     </g>
    </g>
   </g>
   <g id="matplotlib.axis_2">
    <g id="ytick_1">
     <g id="line2d_12">
      <defs>
       <path id="mb55694a219" d="M 0 0 
L -3.5 0 
" style="stroke: #000000; stroke-width: 0.8"/>
      </defs>
      <g>
       <use xlink:href="#mb55694a219" x="90" y="448.56" style="stroke: #000000; stroke-width: 0.8"/>
      </g>
     </g>
     <g id="text_13">
      <!-- 0 -->
      <g transform="translate(76.6375 452.359219) scale(0.1 -0.1)">
       <use xlink:href="#DejaVuSans-30"/>
      </g>
     </g>
    </g>
    <g id="ytick_2">
     <g id="line2d_13">
      <g>
       <use xlink:href="#mb55694a219" x="90" y="399.28" style="stroke: #000000; stroke-width: 0.8"/>
      </g>
     </g>
     <g id="text_14">
      <!-- 10 -->
      <g transform="translate(70.275 403.079219) scale(0.1 -0.1)">
       <use xlink:href="#DejaVuSans-31"/>
       <use xlink:href="#DejaVuSans-30" x="63.623047"/>
      </g>
     </g>
    </g>
    <g id="ytick_3">
     <g id="line2d_14">
      <g>
       <use xlink:href="#mb55694a219" x="90" y="350" style="stroke: #000000; stroke-width: 0.8"/>
      </g>
     </g>
     <g id="text_15">
      <!-- 20 -->
      <g transform="translate(70.275 353.799219) scale(0.1 -0.1)">
       <use xlink:href="#DejaVuSans-32"/>
       <use xlink:href="#DejaVuSans-30" x="63.623047"/>
      </g>
     </g>
    </g>
    <g id="ytick_4">
     <g id="line2d_15">
      <g>
       <use xlink:href="#mb55694a219" x="90" y="300.72" style="stroke: #000000; stroke-width: 0.8"/>
      </g>
     </g>
     <g id="text_16">
      <!-- 30 -->
      <g transform="translate(70.275 304.519219) scale(0.1 -0.1)">
       <use xlink:href="#DejaVuSans-33"/>
       <use xlink:href="#DejaVuSans-30" x="63.623047"/>
      </g>
     </g>
    </g>
    <g id="ytick_5">
     <g id="line2d_16">
      <g>
       <use xlink:href="#mb55694a219" x="90" y="251.44" style="stroke: #000000; stroke-width: 0.8"/>
      </g>
     </g>
     <g id="text_17">
      <!-- 40 -->
      <g transform="translate(70.275 255.239219) scale(0.1 -0.1)">
       <use xlink:href="#DejaVuSans-34"/>
       <use xlink:href="#DejaVuSans-30" x="63.623047"/>
      </g>
     </g>
    </g>
    <g id="ytick_6">
     <g id="line2d_17">
      <g>
       <use xlink:href="#mb55694a219" x="90" y="202.16" style="stroke: #000000; stroke-width: 0.8"/>
      </g>
     </g>
     <g id="text_18">
      <!-- 50 -->
      <g transform="translate(70.275 205.959219) scale(0.1 -0.1)">
       <use xlink:href="#DejaVuSans-35"/>
       <use xlink:href="#DejaVuSans-30" x="63.623047"/>
      </g>
     </g>
    </g>
    <g id="ytick_7">
     <g id="line2d_18">
      <g>
       <use xlink:href="#mb55694a219" x="90" y="152.88" style="stroke: #000000; stroke-width: 0.8"/>
      </g>
     </g>
     <g id="text_19">
      <!-- 60 -->
      <g transform="translate(70.275 156.679219) scale(0.1 -0.1)">
       <use xlink:href="#DejaVuSans-36"/>
       <use xlink:href="#DejaVuSans-30" x="63.623047"/>
      </g>
     </g>
    </g>
    <g id="ytick_8">
     <g id="line2d_19">
      <g>
       <use xlink:href="#mb55694a219" x="90" y="103.6" style="stroke: #000000; stroke-width: 0.8"/>
      </g>
     </g>
     <g id="text_20">
      <!-- 70 -->
      <g transform="translate(70.275 107.399219) scale(0.1 -0.1)">
       <defs>
        <path id="DejaVuSans-37" d="M 525 4666 
L 3525 4666 
L 3525 4397 
L 1831 0 
L 1172 0 
L 2766 4134 
L 525 4134 
L 525 4666 
z
" transform="scale(0.015625)"/>
       </defs>
       <use xlink:href="#DejaVuSans-37"/>
       <use xlink:href="#DejaVuSans-30" x="63.623047"/>
      </g>
     </g>
    </g>
    <g id="text_21">
     <!-- Count -->
     <g transform="translate(64.195312 269.368438) rotate(-90) scale(0.1 -0.1)">
      <defs>
       <path id="DejaVuSans-43" d="M 4122 4306 
L 4122 3641 
Q 3803 3938 3442 4084 
Q 3081 4231 2675 4231 
Q 1875 4231 1450 3742 
Q 1025 3253 1025 2328 
Q 1025 1406 1450 917 
Q 1875 428 2675 428 
Q 3081 428 3442 575 
Q 3803 722 4122 1019 
L 4122 359 
Q 3791 134 3420 21 
Q 3050 -91 2638 -91 
Q 1578 -91 968 557 
Q 359 1206 359 2328 
Q 359 3453 968 4101 
Q 1578 4750 2638 4750 
Q 3056 4750 3426 4639 
Q 3797 4528 4122 4306 
z
" transform="scale(0.015625)"/>
       <path id="DejaVuSans-6f" d="M 1959 3097 
Q 1497 3097 1228 2736 
Q 959 2375 959 1747 
Q 959 1119 1226 758 
Q 1494 397 1959 397 
Q 2419 397 2687 759 
Q 2956 1122 2956 1747 
Q 2956 2369 2687 2733 
Q 2419 3097 1959 3097 
z
M 1959 3584 
Q 2709 3584 3137 3096 
Q 3566 2609 3566 1747 
Q 3566 888 3137 398 
Q 2709 -91 1959 -91 
Q 1206 -91 779 398 
Q 353 888 353 1747 
Q 353 2609 779 3096 
Q 1206 3584 1959 3584 
z
" transform="scale(0.015625)"/>
       <path id="DejaVuSans-75" d="M 544 1381 
L 544 3500 
L 1119 3500 
L 1119 1403 
Q 1119 906 1312 657 
Q 1506 409 1894 409 
Q 2359 409 2629 706 
Q 2900 1003 2900 1516 
L 2900 3500 
L 3475 3500 
L 3475 0 
L 2900 0 
L 2900 538 
Q 2691 219 2414 64 
Q 2138 -91 1772 -91 
Q 1169 -91 856 284 
Q 544 659 544 1381 
z
M 1991 3584 
L 1991 3584 
z
" transform="scale(0.015625)"/>
       <path id="DejaVuSans-74" d="M 1172 4494 
L 1172 3500 
L 2356 3500 
L 2356 3053 
L 1172 3053 
L 1172 1153 
Q 1172 725 1289 603 
Q 1406 481 1766 481 
L 2356 481 
L 2356 0 
L 1766 0 
Q 1100 0 847 248 
Q 594 497 594 1153 
L 594 3053 
L 172 3053 
L 172 3500 
L 594 3500 
L 594 4494 
L 1172 4494 
z
" transform="scale(0.015625)"/>
      </defs>
      <use xlink:href="#DejaVuSans-43"/>
      <use xlink:href="#DejaVuSans-6f" x="69.824219"/>
      <use xlink:href="#DejaVuSans-75" x="131.005859"/>
      <use xlink:href="#DejaVuSans-6e" x="194.384766"/>
      <use xlink:href="#DejaVuSans-74" x="257.763672"/>
     </g>
    </g>
   </g>
   <g id="patch_36">
    <path d="M 90 448.56 
L 90 60.48 
" style="fill: none; stroke: #000000; stroke-width: 0.8; stroke-linejoin: miter; stroke-linecap: square"/>
   </g>
   <g id="patch_37">
    <path d="M 648 448.56 
L 648 60.48 
" style="fill: none; stroke: #000000; stroke-width: 0.8; stroke-linejoin: miter; stroke-linecap: square"/>
   </g>
   <g id="patch_38">
    <path d="M 90 448.56 
L 648 448.56 
" style="fill: none; stroke: #000000; stroke-width: 0.8; stroke-linejoin: miter; stroke-linecap: square"/>
   </g>
   <g id="patch_39">
    <path d="M 90 60.48 
L 648 60.48 
" style="fill: none; stroke: #000000; stroke-width: 0.8; stroke-linejoin: miter; stroke-linecap: square"/>
   </g>
   <g id="text_22">
    <!-- fshr -->
    <g transform="translate(126.480265 441.96825) scale(0.08 -0.08)">
     <defs>
      <path id="DejaVuSans-73" d="M 2834 3397 
L 2834 2853 
Q 2591 2978 2328 3040 
Q 2066 3103 1784 3103 
Q 1356 3103 1142 2972 
Q 928 2841 928 2578 
Q 928 2378 1081 2264 
Q 1234 2150 1697 2047 
L 1894 2003 
Q 2506 1872 2764 1633 
Q 3022 1394 3022 966 
Q 3022 478 2636 193 
Q 2250 -91 1575 -91 
Q 1294 -91 989 -36 
Q 684 19 347 128 
L 347 722 
Q 666 556 975 473 
Q 1284 391 1588 391 
Q 1994 391 2212 530 
Q 2431 669 2431 922 
Q 2431 1156 2273 1281 
Q 2116 1406 1581 1522 
L 1381 1569 
Q 847 1681 609 1914 
Q 372 2147 372 2553 
Q 372 3047 722 3315 
Q 1072 3584 1716 3584 
Q 2034 3584 2315 3537 
Q 2597 3491 2834 3397 
z
" transform="scale(0.015625)"/>
      <path id="DejaVuSans-68" d="M 3513 2113 
L 3513 0 
L 2938 0 
L 2938 2094 
Q 2938 2591 2744 2837 
Q 2550 3084 2163 3084 
Q 1697 3084 1428 2787 
Q 1159 2491 1159 1978 
L 1159 0 
L 581 0 
L 581 4863 
L 1159 4863 
L 1159 2956 
Q 1366 3272 1645 3428 
Q 1925 3584 2291 3584 
Q 2894 3584 3203 3211 
Q 3513 2838 3513 2113 
z
" transform="scale(0.015625)"/>
     </defs>
     <use xlink:href="#DejaVuSans-66"/>
     <use xlink:href="#DejaVuSans-73" x="35.205078"/>
     <use xlink:href="#DejaVuSans-68" x="87.304688"/>
     <use xlink:href="#DejaVuSans-72" x="150.683594"/>
    </g>
   </g>
   <g id="text_23">
    <!-- trfr -->
    <g transform="translate(174.856212 437.04025) scale(0.08 -0.08)">
     <use xlink:href="#DejaVuSans-74"/>
     <use xlink:href="#DejaVuSans-72" x="39.208984"/>
     <use xlink:href="#DejaVuSans-66" x="80.322266"/>
     <use xlink:href="#DejaVuSans-72" x="115.527344"/>
    </g>
   </g>
   <g id="text_24">
    <!-- gpr39 -->
    <g transform="translate(169.308087 427.18425) scale(0.08 -0.08)">
     <defs>
      <path id="DejaVuSans-67" d="M 2906 1791 
Q 2906 2416 2648 2759 
Q 2391 3103 1925 3103 
Q 1463 3103 1205 2759 
Q 947 2416 947 1791 
Q 947 1169 1205 825 
Q 1463 481 1925 481 
Q 2391 481 2648 825 
Q 2906 1169 2906 1791 
z
M 3481 434 
Q 3481 -459 3084 -895 
Q 2688 -1331 1869 -1331 
Q 1566 -1331 1297 -1286 
Q 1028 -1241 775 -1147 
L 775 -588 
Q 1028 -725 1275 -790 
Q 1522 -856 1778 -856 
Q 2344 -856 2625 -561 
Q 2906 -266 2906 331 
L 2906 616 
Q 2728 306 2450 153 
Q 2172 0 1784 0 
Q 1141 0 747 490 
Q 353 981 353 1791 
Q 353 2603 747 3093 
Q 1141 3584 1784 3584 
Q 2172 3584 2450 3431 
Q 2728 3278 2906 2969 
L 2906 3500 
L 3481 3500 
L 3481 434 
z
" transform="scale(0.015625)"/>
      <path id="DejaVuSans-70" d="M 1159 525 
L 1159 -1331 
L 581 -1331 
L 581 3500 
L 1159 3500 
L 1159 2969 
Q 1341 3281 1617 3432 
Q 1894 3584 2278 3584 
Q 2916 3584 3314 3078 
Q 3713 2572 3713 1747 
Q 3713 922 3314 415 
Q 2916 -91 2278 -91 
Q 1894 -91 1617 61 
Q 1341 213 1159 525 
z
M 3116 1747 
Q 3116 2381 2855 2742 
Q 2594 3103 2138 3103 
Q 1681 3103 1420 2742 
Q 1159 2381 1159 1747 
Q 1159 1113 1420 752 
Q 1681 391 2138 391 
Q 2594 391 2855 752 
Q 3116 1113 3116 1747 
z
" transform="scale(0.015625)"/>
      <path id="DejaVuSans-39" d="M 703 97 
L 703 672 
Q 941 559 1184 500 
Q 1428 441 1663 441 
Q 2288 441 2617 861 
Q 2947 1281 2994 2138 
Q 2813 1869 2534 1725 
Q 2256 1581 1919 1581 
Q 1219 1581 811 2004 
Q 403 2428 403 3163 
Q 403 3881 828 4315 
Q 1253 4750 1959 4750 
Q 2769 4750 3195 4129 
Q 3622 3509 3622 2328 
Q 3622 1225 3098 567 
Q 2575 -91 1691 -91 
Q 1453 -91 1209 -44 
Q 966 3 703 97 
z
M 1959 2075 
Q 2384 2075 2632 2365 
Q 2881 2656 2881 3163 
Q 2881 3666 2632 3958 
Q 2384 4250 1959 4250 
Q 1534 4250 1286 3958 
Q 1038 3666 1038 3163 
Q 1038 2656 1286 2365 
Q 1534 2075 1959 2075 
z
" transform="scale(0.015625)"/>
     </defs>
     <use xlink:href="#DejaVuSans-67"/>
     <use xlink:href="#DejaVuSans-70" x="63.476562"/>
     <use xlink:href="#DejaVuSans-72" x="126.953125"/>
     <use xlink:href="#DejaVuSans-33" x="168.066406"/>
     <use xlink:href="#DejaVuSans-39" x="231.689453"/>
    </g>
   </g>
   <g id="text_25">
    <!-- cxcr3 -->
    <g transform="translate(217.205284 437.04025) scale(0.08 -0.08)">
     <defs>
      <path id="DejaVuSans-78" d="M 3513 3500 
L 2247 1797 
L 3578 0 
L 2900 0 
L 1881 1375 
L 863 0 
L 184 0 
L 1544 1831 
L 300 3500 
L 978 3500 
L 1906 2253 
L 2834 3500 
L 3513 3500 
z
" transform="scale(0.015625)"/>
     </defs>
     <use xlink:href="#DejaVuSans-63"/>
     <use xlink:href="#DejaVuSans-78" x="54.980469"/>
     <use xlink:href="#DejaVuSans-63" x="112.410156"/>
     <use xlink:href="#DejaVuSans-72" x="167.390625"/>
     <use xlink:href="#DejaVuSans-33" x="208.503906"/>
    </g>
   </g>
   <g id="text_26">
    <!-- mc3r -->
    <g transform="translate(217.805909 427.18425) scale(0.08 -0.08)">
     <defs>
      <path id="DejaVuSans-6d" d="M 3328 2828 
Q 3544 3216 3844 3400 
Q 4144 3584 4550 3584 
Q 5097 3584 5394 3201 
Q 5691 2819 5691 2113 
L 5691 0 
L 5113 0 
L 5113 2094 
Q 5113 2597 4934 2840 
Q 4756 3084 4391 3084 
Q 3944 3084 3684 2787 
Q 3425 2491 3425 1978 
L 3425 0 
L 2847 0 
L 2847 2094 
Q 2847 2600 2669 2842 
Q 2491 3084 2119 3084 
Q 1678 3084 1418 2786 
Q 1159 2488 1159 1978 
L 1159 0 
L 581 0 
L 581 3500 
L 1159 3500 
L 1159 2956 
Q 1356 3278 1631 3431 
Q 1906 3584 2284 3584 
Q 2666 3584 2933 3390 
Q 3200 3197 3328 2828 
z
" transform="scale(0.015625)"/>
     </defs>
     <use xlink:href="#DejaVuSans-6d"/>
     <use xlink:href="#DejaVuSans-63" x="97.412109"/>
     <use xlink:href="#DejaVuSans-33" x="152.392578"/>
     <use xlink:href="#DejaVuSans-72" x="216.015625"/>
    </g>
   </g>
   <g id="text_27">
    <!-- ccr6 -->
    <g transform="translate(266.472481 397.61625) scale(0.08 -0.08)">
     <use xlink:href="#DejaVuSans-63"/>
     <use xlink:href="#DejaVuSans-63" x="54.980469"/>
     <use xlink:href="#DejaVuSans-72" x="109.960938"/>
     <use xlink:href="#DejaVuSans-36" x="151.074219"/>
    </g>
   </g>
   <g id="text_28">
    <!-- ccr2 -->
    <g transform="translate(266.472481 387.76025) scale(0.08 -0.08)">
     <use xlink:href="#DejaVuSans-63"/>
     <use xlink:href="#DejaVuSans-63" x="54.980469"/>
     <use xlink:href="#DejaVuSans-72" x="109.960938"/>
     <use xlink:href="#DejaVuSans-32" x="151.074219"/>
    </g>
   </g>
   <g id="text_29">
    <!-- fpr2 -->
    <g transform="translate(266.923731 377.90425) scale(0.08 -0.08)">
     <use xlink:href="#DejaVuSans-66"/>
     <use xlink:href="#DejaVuSans-70" x="35.205078"/>
     <use xlink:href="#DejaVuSans-72" x="98.681641"/>
     <use xlink:href="#DejaVuSans-32" x="139.794922"/>
    </g>
   </g>
   <g id="text_30">
    <!-- v1br -->
    <g transform="translate(265.964356 368.04825) scale(0.08 -0.08)">
     <defs>
      <path id="DejaVuSans-76" d="M 191 3500 
L 800 3500 
L 1894 563 
L 2988 3500 
L 3597 3500 
L 2284 0 
L 1503 0 
L 191 3500 
z
" transform="scale(0.015625)"/>
      <path id="DejaVuSans-62" d="M 3116 1747 
Q 3116 2381 2855 2742 
Q 2594 3103 2138 3103 
Q 1681 3103 1420 2742 
Q 1159 2381 1159 1747 
Q 1159 1113 1420 752 
Q 1681 391 2138 391 
Q 2594 391 2855 752 
Q 3116 1113 3116 1747 
z
M 1159 2969 
Q 1341 3281 1617 3432 
Q 1894 3584 2278 3584 
Q 2916 3584 3314 3078 
Q 3713 2572 3713 1747 
Q 3713 922 3314 415 
Q 2916 -91 2278 -91 
Q 1894 -91 1617 61 
Q 1341 213 1159 525 
L 1159 0 
L 581 0 
L 581 4863 
L 1159 4863 
L 1159 2969 
z
" transform="scale(0.015625)"/>
     </defs>
     <use xlink:href="#DejaVuSans-76"/>
     <use xlink:href="#DejaVuSans-31" x="59.179688"/>
     <use xlink:href="#DejaVuSans-62" x="122.802734"/>
     <use xlink:href="#DejaVuSans-72" x="186.279297"/>
    </g>
   </g>
   <g id="text_31">
    <!-- ox2r -->
    <g transform="translate(266.181231 358.19225) scale(0.08 -0.08)">
     <use xlink:href="#DejaVuSans-6f"/>
     <use xlink:href="#DejaVuSans-78" x="58.056641"/>
     <use xlink:href="#DejaVuSans-32" x="117.236328"/>
     <use xlink:href="#DejaVuSans-72" x="180.859375"/>
    </g>
   </g>
   <g id="text_32">
    <!-- gasr -->
    <g transform="translate(266.341856 348.33625) scale(0.08 -0.08)">
     <use xlink:href="#DejaVuSans-67"/>
     <use xlink:href="#DejaVuSans-61" x="63.476562"/>
     <use xlink:href="#DejaVuSans-73" x="124.755859"/>
     <use xlink:href="#DejaVuSans-72" x="176.855469"/>
    </g>
   </g>
   <g id="text_33">
    <!-- fpr3 -->
    <g transform="translate(266.923731 338.48025) scale(0.08 -0.08)">
     <use xlink:href="#DejaVuSans-66"/>
     <use xlink:href="#DejaVuSans-70" x="35.205078"/>
     <use xlink:href="#DejaVuSans-72" x="98.681641"/>
     <use xlink:href="#DejaVuSans-33" x="139.794922"/>
    </g>
   </g>
   <g id="text_34">
    <!-- g37l1 -->
    <g transform="translate(263.774981 328.62425) scale(0.08 -0.08)">
     <defs>
      <path id="DejaVuSans-6c" d="M 603 4863 
L 1178 4863 
L 1178 0 
L 603 0 
L 603 4863 
z
" transform="scale(0.015625)"/>
     </defs>
     <use xlink:href="#DejaVuSans-67"/>
     <use xlink:href="#DejaVuSans-33" x="63.476562"/>
     <use xlink:href="#DejaVuSans-37" x="127.099609"/>
     <use xlink:href="#DejaVuSans-6c" x="190.722656"/>
     <use xlink:href="#DejaVuSans-31" x="218.505859"/>
    </g>
   </g>
   <g id="text_35">
    <!-- sctr -->
    <g transform="translate(267.564981 318.76825) scale(0.08 -0.08)">
     <use xlink:href="#DejaVuSans-73"/>
     <use xlink:href="#DejaVuSans-63" x="52.099609"/>
     <use xlink:href="#DejaVuSans-74" x="107.080078"/>
     <use xlink:href="#DejaVuSans-72" x="146.289062"/>
    </g>
   </g>
   <g id="text_36">
    <!-- vipr2 -->
    <g transform="translate(264.853106 308.91225) scale(0.08 -0.08)">
     <use xlink:href="#DejaVuSans-76"/>
     <use xlink:href="#DejaVuSans-69" x="59.179688"/>
     <use xlink:href="#DejaVuSans-70" x="86.962891"/>
     <use xlink:href="#DejaVuSans-72" x="150.439453"/>
     <use xlink:href="#DejaVuSans-32" x="191.552734"/>
    </g>
   </g>
   <g id="text_37">
    <!-- oprk -->
    <g transform="translate(360.0525 377.90425) scale(0.08 -0.08)">
     <use xlink:href="#DejaVuSans-6f"/>
     <use xlink:href="#DejaVuSans-70" x="61.181641"/>
     <use xlink:href="#DejaVuSans-72" x="124.658203"/>
     <use xlink:href="#DejaVuSans-6b" x="165.771484"/>
    </g>
   </g>
   <g id="text_38">
    <!-- ackr4 -->
    <g transform="translate(357.84375 368.04825) scale(0.08 -0.08)">
     <use xlink:href="#DejaVuSans-61"/>
     <use xlink:href="#DejaVuSans-63" x="61.279297"/>
     <use xlink:href="#DejaVuSans-6b" x="116.259766"/>
     <use xlink:href="#DejaVuSans-72" x="174.169922"/>
     <use xlink:href="#DejaVuSans-34" x="215.283203"/>
    </g>
   </g>
   <g id="text_39">
    <!-- galr1 -->
    <g transform="translate(358.70875 358.19225) scale(0.08 -0.08)">
     <use xlink:href="#DejaVuSans-67"/>
     <use xlink:href="#DejaVuSans-61" x="63.476562"/>
     <use xlink:href="#DejaVuSans-6c" x="124.755859"/>
     <use xlink:href="#DejaVuSans-72" x="152.539062"/>
     <use xlink:href="#DejaVuSans-31" x="193.652344"/>
    </g>
   </g>
   <g id="text_40">
    <!-- npbw2 -->
    <g transform="translate(355.57 348.33625) scale(0.08 -0.08)">
     <defs>
      <path id="DejaVuSans-77" d="M 269 3500 
L 844 3500 
L 1563 769 
L 2278 3500 
L 2956 3500 
L 3675 769 
L 4391 3500 
L 4966 3500 
L 4050 0 
L 3372 0 
L 2619 2869 
L 1863 0 
L 1184 0 
L 269 3500 
z
" transform="scale(0.015625)"/>
     </defs>
     <use xlink:href="#DejaVuSans-6e"/>
     <use xlink:href="#DejaVuSans-70" x="63.378906"/>
     <use xlink:href="#DejaVuSans-62" x="126.855469"/>
     <use xlink:href="#DejaVuSans-77" x="190.332031"/>
     <use xlink:href="#DejaVuSans-32" x="272.119141"/>
    </g>
   </g>
   <g id="text_41">
    <!-- bkrb2 -->
    <g transform="translate(357.415625 338.48025) scale(0.08 -0.08)">
     <use xlink:href="#DejaVuSans-62"/>
     <use xlink:href="#DejaVuSans-6b" x="63.476562"/>
     <use xlink:href="#DejaVuSans-72" x="121.386719"/>
     <use xlink:href="#DejaVuSans-62" x="162.5"/>
     <use xlink:href="#DejaVuSans-32" x="225.976562"/>
    </g>
   </g>
   <g id="text_42">
    <!-- mrgx2 -->
    <g transform="translate(356.0775 328.62425) scale(0.08 -0.08)">
     <use xlink:href="#DejaVuSans-6d"/>
     <use xlink:href="#DejaVuSans-72" x="97.412109"/>
     <use xlink:href="#DejaVuSans-67" x="136.775391"/>
     <use xlink:href="#DejaVuSans-78" x="200.251953"/>
     <use xlink:href="#DejaVuSans-32" x="259.431641"/>
    </g>
   </g>
   <g id="text_43">
    <!-- ntr1 -->
    <g transform="translate(360.7075 318.76825) scale(0.08 -0.08)">
     <use xlink:href="#DejaVuSans-6e"/>
     <use xlink:href="#DejaVuSans-74" x="63.378906"/>
     <use xlink:href="#DejaVuSans-72" x="102.587891"/>
     <use xlink:href="#DejaVuSans-31" x="143.701172"/>
    </g>
   </g>
   <g id="text_44">
    <!-- ox1r -->
    <g transform="translate(360.120625 308.91225) scale(0.08 -0.08)">
     <use xlink:href="#DejaVuSans-6f"/>
     <use xlink:href="#DejaVuSans-78" x="58.056641"/>
     <use xlink:href="#DejaVuSans-31" x="117.236328"/>
     <use xlink:href="#DejaVuSans-72" x="180.859375"/>
    </g>
   </g>
   <g id="text_45">
    <!-- ssr1 -->
    <g transform="translate(360.643125 299.05625) scale(0.08 -0.08)">
     <use xlink:href="#DejaVuSans-73"/>
     <use xlink:href="#DejaVuSans-73" x="52.099609"/>
     <use xlink:href="#DejaVuSans-72" x="104.199219"/>
     <use xlink:href="#DejaVuSans-31" x="145.3125"/>
    </g>
   </g>
   <g id="text_46">
    <!-- xcr1 -->
    <g transform="translate(360.31375 289.20025) scale(0.08 -0.08)">
     <use xlink:href="#DejaVuSans-78"/>
     <use xlink:href="#DejaVuSans-63" x="57.429688"/>
     <use xlink:href="#DejaVuSans-72" x="112.410156"/>
     <use xlink:href="#DejaVuSans-31" x="153.523438"/>
    </g>
   </g>
   <g id="text_47">
    <!-- hrh4 -->
    <g transform="translate(359.810625 279.34425) scale(0.08 -0.08)">
     <use xlink:href="#DejaVuSans-68"/>
     <use xlink:href="#DejaVuSans-72" x="63.378906"/>
     <use xlink:href="#DejaVuSans-68" x="102.742188"/>
     <use xlink:href="#DejaVuSans-34" x="166.121094"/>
    </g>
   </g>
   <g id="text_48">
    <!-- gpr37 -->
    <g transform="translate(357.186875 269.48825) scale(0.08 -0.08)">
     <use xlink:href="#DejaVuSans-67"/>
     <use xlink:href="#DejaVuSans-70" x="63.476562"/>
     <use xlink:href="#DejaVuSans-72" x="126.953125"/>
     <use xlink:href="#DejaVuSans-33" x="168.066406"/>
     <use xlink:href="#DejaVuSans-37" x="231.689453"/>
    </g>
   </g>
   <g id="text_49">
    <!-- glp2r -->
    <g transform="translate(358.620625 259.63225) scale(0.08 -0.08)">
     <use xlink:href="#DejaVuSans-67"/>
     <use xlink:href="#DejaVuSans-6c" x="63.476562"/>
     <use xlink:href="#DejaVuSans-70" x="91.259766"/>
     <use xlink:href="#DejaVuSans-32" x="154.736328"/>
     <use xlink:href="#DejaVuSans-72" x="218.359375"/>
    </g>
   </g>
   <g id="text_50">
    <!-- fzd1 -->
    <g transform="translate(360.408125 249.77625) scale(0.08 -0.08)">
     <defs>
      <path id="DejaVuSans-7a" d="M 353 3500 
L 3084 3500 
L 3084 2975 
L 922 459 
L 3084 459 
L 3084 0 
L 275 0 
L 275 525 
L 2438 3041 
L 353 3041 
L 353 3500 
z
" transform="scale(0.015625)"/>
     </defs>
     <use xlink:href="#DejaVuSans-66"/>
     <use xlink:href="#DejaVuSans-7a" x="35.205078"/>
     <use xlink:href="#DejaVuSans-64" x="87.695312"/>
     <use xlink:href="#DejaVuSans-31" x="151.171875"/>
    </g>
   </g>
   <g id="text_51">
    <!-- ccr1 -->
    <g transform="translate(407.381572 392.68825) scale(0.08 -0.08)">
     <use xlink:href="#DejaVuSans-63"/>
     <use xlink:href="#DejaVuSans-63" x="54.980469"/>
     <use xlink:href="#DejaVuSans-72" x="109.960938"/>
     <use xlink:href="#DejaVuSans-31" x="151.074219"/>
    </g>
   </g>
   <g id="text_52">
    <!-- galr3 -->
    <g transform="translate(405.678447 382.83225) scale(0.08 -0.08)">
     <use xlink:href="#DejaVuSans-67"/>
     <use xlink:href="#DejaVuSans-61" x="63.476562"/>
     <use xlink:href="#DejaVuSans-6c" x="124.755859"/>
     <use xlink:href="#DejaVuSans-72" x="152.539062"/>
     <use xlink:href="#DejaVuSans-33" x="193.652344"/>
    </g>
   </g>
   <g id="text_53">
    <!-- ccr10 -->
    <g transform="translate(404.836572 372.97625) scale(0.08 -0.08)">
     <use xlink:href="#DejaVuSans-63"/>
     <use xlink:href="#DejaVuSans-63" x="54.980469"/>
     <use xlink:href="#DejaVuSans-72" x="109.960938"/>
     <use xlink:href="#DejaVuSans-31" x="151.074219"/>
     <use xlink:href="#DejaVuSans-30" x="214.697266"/>
    </g>
   </g>
   <g id="text_54">
    <!-- ccr9 -->
    <g transform="translate(407.381572 363.12025) scale(0.08 -0.08)">
     <use xlink:href="#DejaVuSans-63"/>
     <use xlink:href="#DejaVuSans-63" x="54.980469"/>
     <use xlink:href="#DejaVuSans-72" x="109.960938"/>
     <use xlink:href="#DejaVuSans-39" x="151.074219"/>
    </g>
   </g>
   <g id="text_55">
    <!-- cxcr5 -->
    <g transform="translate(405.084072 353.26425) scale(0.08 -0.08)">
     <use xlink:href="#DejaVuSans-63"/>
     <use xlink:href="#DejaVuSans-78" x="54.980469"/>
     <use xlink:href="#DejaVuSans-63" x="112.410156"/>
     <use xlink:href="#DejaVuSans-72" x="167.390625"/>
     <use xlink:href="#DejaVuSans-35" x="208.503906"/>
    </g>
   </g>
   <g id="text_56">
    <!-- nmur2 -->
    <g transform="translate(402.814072 343.40825) scale(0.08 -0.08)">
     <use xlink:href="#DejaVuSans-6e"/>
     <use xlink:href="#DejaVuSans-6d" x="63.378906"/>
     <use xlink:href="#DejaVuSans-75" x="160.791016"/>
     <use xlink:href="#DejaVuSans-72" x="224.169922"/>
     <use xlink:href="#DejaVuSans-32" x="265.283203"/>
    </g>
   </g>
   <g id="text_57">
    <!-- cx3c1 -->
    <g transform="translate(404.113447 333.55225) scale(0.08 -0.08)">
     <use xlink:href="#DejaVuSans-63"/>
     <use xlink:href="#DejaVuSans-78" x="54.980469"/>
     <use xlink:href="#DejaVuSans-33" x="114.160156"/>
     <use xlink:href="#DejaVuSans-63" x="177.783203"/>
     <use xlink:href="#DejaVuSans-31" x="232.763672"/>
    </g>
   </g>
   <g id="text_58">
    <!-- cml2 -->
    <g transform="translate(406.217822 323.69625) scale(0.08 -0.08)">
     <use xlink:href="#DejaVuSans-63"/>
     <use xlink:href="#DejaVuSans-6d" x="54.980469"/>
     <use xlink:href="#DejaVuSans-6c" x="152.392578"/>
     <use xlink:href="#DejaVuSans-32" x="180.175781"/>
    </g>
   </g>
   <g id="text_59">
    <!-- cml1 -->
    <g transform="translate(406.217822 313.84025) scale(0.08 -0.08)">
     <use xlink:href="#DejaVuSans-63"/>
     <use xlink:href="#DejaVuSans-6d" x="54.980469"/>
     <use xlink:href="#DejaVuSans-6c" x="152.392578"/>
     <use xlink:href="#DejaVuSans-31" x="180.175781"/>
    </g>
   </g>
   <g id="text_60">
    <!-- cxcr6 -->
    <g transform="translate(405.084072 303.98425) scale(0.08 -0.08)">
     <use xlink:href="#DejaVuSans-63"/>
     <use xlink:href="#DejaVuSans-78" x="54.980469"/>
     <use xlink:href="#DejaVuSans-63" x="112.410156"/>
     <use xlink:href="#DejaVuSans-72" x="167.390625"/>
     <use xlink:href="#DejaVuSans-36" x="208.503906"/>
    </g>
   </g>
   <g id="text_61">
    <!-- ghrhr -->
    <g transform="translate(405.141572 294.12825) scale(0.08 -0.08)">
     <use xlink:href="#DejaVuSans-67"/>
     <use xlink:href="#DejaVuSans-68" x="63.476562"/>
     <use xlink:href="#DejaVuSans-72" x="126.855469"/>
     <use xlink:href="#DejaVuSans-68" x="166.21875"/>
     <use xlink:href="#DejaVuSans-72" x="229.597656"/>
    </g>
   </g>
   <g id="text_62">
    <!-- grpr -->
    <g transform="translate(454.571894 437.04025) scale(0.08 -0.08)">
     <use xlink:href="#DejaVuSans-67"/>
     <use xlink:href="#DejaVuSans-72" x="63.476562"/>
     <use xlink:href="#DejaVuSans-70" x="104.589844"/>
     <use xlink:href="#DejaVuSans-72" x="168.066406"/>
    </g>
   </g>
   <g id="text_63">
    <!-- fpr1 -->
    <g transform="translate(454.802519 427.18425) scale(0.08 -0.08)">
     <use xlink:href="#DejaVuSans-66"/>
     <use xlink:href="#DejaVuSans-70" x="35.205078"/>
     <use xlink:href="#DejaVuSans-72" x="98.681641"/>
     <use xlink:href="#DejaVuSans-31" x="139.794922"/>
    </g>
   </g>
   <g id="text_64">
    <!-- lgr5 -->
    <g transform="translate(502.069091 432.11225) scale(0.08 -0.08)">
     <use xlink:href="#DejaVuSans-6c"/>
     <use xlink:href="#DejaVuSans-67" x="27.783203"/>
     <use xlink:href="#DejaVuSans-72" x="91.259766"/>
     <use xlink:href="#DejaVuSans-35" x="132.373047"/>
    </g>
   </g>
   <g id="text_65">
    <!-- oprm -->
    <g transform="translate(499.451591 422.25625) scale(0.08 -0.08)">
     <use xlink:href="#DejaVuSans-6f"/>
     <use xlink:href="#DejaVuSans-70" x="61.181641"/>
     <use xlink:href="#DejaVuSans-72" x="124.658203"/>
     <use xlink:href="#DejaVuSans-6d" x="164.021484"/>
    </g>
   </g>
   <g id="text_66">
    <!-- gipr -->
    <g transform="translate(502.074716 412.40025) scale(0.08 -0.08)">
     <use xlink:href="#DejaVuSans-67"/>
     <use xlink:href="#DejaVuSans-69" x="63.476562"/>
     <use xlink:href="#DejaVuSans-70" x="91.259766"/>
     <use xlink:href="#DejaVuSans-72" x="154.736328"/>
    </g>
   </g>
   <g id="text_67">
    <!-- lgr6 -->
    <g transform="translate(549.038788 441.96825) scale(0.08 -0.08)">
     <use xlink:href="#DejaVuSans-6c"/>
     <use xlink:href="#DejaVuSans-67" x="27.783203"/>
     <use xlink:href="#DejaVuSans-72" x="91.259766"/>
     <use xlink:href="#DejaVuSans-36" x="132.373047"/>
    </g>
   </g>
   <g id="text_68">
    <!-- lgr4 -->
    <g transform="translate(596.008485 437.04025) scale(0.08 -0.08)">
     <use xlink:href="#DejaVuSans-6c"/>
     <use xlink:href="#DejaVuSans-67" x="27.783203"/>
     <use xlink:href="#DejaVuSans-72" x="91.259766"/>
     <use xlink:href="#DejaVuSans-34" x="132.373047"/>
    </g>
   </g>
   <g id="text_69">
    <!-- acthr -->
    <g transform="translate(593.45036 427.18425) scale(0.08 -0.08)">
     <use xlink:href="#DejaVuSans-61"/>
     <use xlink:href="#DejaVuSans-63" x="61.279297"/>
     <use xlink:href="#DejaVuSans-74" x="116.259766"/>
     <use xlink:href="#DejaVuSans-68" x="155.46875"/>
     <use xlink:href="#DejaVuSans-72" x="218.847656"/>
    </g>
   </g>
   <g id="text_70">
    <!-- Principal agonist ranking difference between AF2 and AF2 LIS -->
    <g transform="translate(184.262812 54.48) scale(0.12 -0.12)">
     <defs>
      <path id="DejaVuSans-50" d="M 1259 4147 
L 1259 2394 
L 2053 2394 
Q 2494 2394 2734 2622 
Q 2975 2850 2975 3272 
Q 2975 3691 2734 3919 
Q 2494 4147 2053 4147 
L 1259 4147 
z
M 628 4666 
L 2053 4666 
Q 2838 4666 3239 4311 
Q 3641 3956 3641 3272 
Q 3641 2581 3239 2228 
Q 2838 1875 2053 1875 
L 1259 1875 
L 1259 0 
L 628 0 
L 628 4666 
z
" transform="scale(0.015625)"/>
     </defs>
     <use xlink:href="#DejaVuSans-50"/>
     <use xlink:href="#DejaVuSans-72" x="58.552734"/>
     <use xlink:href="#DejaVuSans-69" x="99.666016"/>
     <use xlink:href="#DejaVuSans-6e" x="127.449219"/>
     <use xlink:href="#DejaVuSans-63" x="190.828125"/>
     <use xlink:href="#DejaVuSans-69" x="245.808594"/>
     <use xlink:href="#DejaVuSans-70" x="273.591797"/>
     <use xlink:href="#DejaVuSans-61" x="337.068359"/>
     <use xlink:href="#DejaVuSans-6c" x="398.347656"/>
     <use xlink:href="#DejaVuSans-20" x="426.130859"/>
     <use xlink:href="#DejaVuSans-61" x="457.917969"/>
     <use xlink:href="#DejaVuSans-67" x="519.197266"/>
     <use xlink:href="#DejaVuSans-6f" x="582.673828"/>
     <use xlink:href="#DejaVuSans-6e" x="643.855469"/>
     <use xlink:href="#DejaVuSans-69" x="707.234375"/>
     <use xlink:href="#DejaVuSans-73" x="735.017578"/>
     <use xlink:href="#DejaVuSans-74" x="787.117188"/>
     <use xlink:href="#DejaVuSans-20" x="826.326172"/>
     <use xlink:href="#DejaVuSans-72" x="858.113281"/>
     <use xlink:href="#DejaVuSans-61" x="899.226562"/>
     <use xlink:href="#DejaVuSans-6e" x="960.505859"/>
     <use xlink:href="#DejaVuSans-6b" x="1023.884766"/>
     <use xlink:href="#DejaVuSans-69" x="1081.794922"/>
     <use xlink:href="#DejaVuSans-6e" x="1109.578125"/>
     <use xlink:href="#DejaVuSans-67" x="1172.957031"/>
     <use xlink:href="#DejaVuSans-20" x="1236.433594"/>
     <use xlink:href="#DejaVuSans-64" x="1268.220703"/>
     <use xlink:href="#DejaVuSans-69" x="1331.697266"/>
     <use xlink:href="#DejaVuSans-66" x="1359.480469"/>
     <use xlink:href="#DejaVuSans-66" x="1394.685547"/>
     <use xlink:href="#DejaVuSans-65" x="1429.890625"/>
     <use xlink:href="#DejaVuSans-72" x="1491.414062"/>
     <use xlink:href="#DejaVuSans-65" x="1530.277344"/>
     <use xlink:href="#DejaVuSans-6e" x="1591.800781"/>
     <use xlink:href="#DejaVuSans-63" x="1655.179688"/>
     <use xlink:href="#DejaVuSans-65" x="1710.160156"/>
     <use xlink:href="#DejaVuSans-20" x="1771.683594"/>
     <use xlink:href="#DejaVuSans-62" x="1803.470703"/>
     <use xlink:href="#DejaVuSans-65" x="1866.947266"/>
     <use xlink:href="#DejaVuSans-74" x="1928.470703"/>
     <use xlink:href="#DejaVuSans-77" x="1967.679688"/>
     <use xlink:href="#DejaVuSans-65" x="2049.466797"/>
     <use xlink:href="#DejaVuSans-65" x="2110.990234"/>
     <use xlink:href="#DejaVuSans-6e" x="2172.513672"/>
     <use xlink:href="#DejaVuSans-20" x="2235.892578"/>
     <use xlink:href="#DejaVuSans-41" x="2267.679688"/>
     <use xlink:href="#DejaVuSans-46" x="2336.087891"/>
     <use xlink:href="#DejaVuSans-32" x="2393.607422"/>
     <use xlink:href="#DejaVuSans-20" x="2457.230469"/>
     <use xlink:href="#DejaVuSans-61" x="2489.017578"/>
     <use xlink:href="#DejaVuSans-6e" x="2550.296875"/>
     <use xlink:href="#DejaVuSans-64" x="2613.675781"/>
     <use xlink:href="#DejaVuSans-20" x="2677.152344"/>
     <use xlink:href="#DejaVuSans-41" x="2708.939453"/>
     <use xlink:href="#DejaVuSans-46" x="2777.347656"/>
     <use xlink:href="#DejaVuSans-32" x="2834.867188"/>
     <use xlink:href="#DejaVuSans-20" x="2898.490234"/>
     <use xlink:href="#DejaVuSans-4c" x="2930.277344"/>
     <use xlink:href="#DejaVuSans-49" x="2985.990234"/>
     <use xlink:href="#DejaVuSans-53" x="3015.482422"/>
    </g>
   </g>
   <g id="legend_1">
    <g id="patch_40">
     <path d="M 509.146875 127.1925 
L 641 127.1925 
Q 643 127.1925 643 125.1925 
L 643 67.48 
Q 643 65.48 641 65.48 
L 509.146875 65.48 
Q 507.146875 65.48 507.146875 67.48 
L 507.146875 125.1925 
Q 507.146875 127.1925 509.146875 127.1925 
z
" style="fill: #ffffff; opacity: 0.8; stroke: #cccccc; stroke-linejoin: miter"/>
    </g>
    <g id="text_71">
     <!-- class -->
     <g transform="translate(562.661719 77.078438) scale(0.1 -0.1)">
      <use xlink:href="#DejaVuSans-63"/>
      <use xlink:href="#DejaVuSans-6c" x="54.980469"/>
      <use xlink:href="#DejaVuSans-61" x="82.763672"/>
      <use xlink:href="#DejaVuSans-73" x="144.042969"/>
      <use xlink:href="#DejaVuSans-73" x="196.142578"/>
     </g>
    </g>
    <g id="patch_41">
     <path d="M 511.146875 91.756563 
L 531.146875 91.756563 
L 531.146875 84.756563 
L 511.146875 84.756563 
z
" style="fill: #1f77b4; fill-opacity: 0.75; stroke: #000000; stroke-linejoin: miter"/>
    </g>
    <g id="text_72">
     <!-- Class A (Rhodopsin) -->
     <g transform="translate(539.146875 91.756563) scale(0.1 -0.1)">
      <use xlink:href="#DejaVuSans-43"/>
      <use xlink:href="#DejaVuSans-6c" x="69.824219"/>
      <use xlink:href="#DejaVuSans-61" x="97.607422"/>
      <use xlink:href="#DejaVuSans-73" x="158.886719"/>
      <use xlink:href="#DejaVuSans-73" x="210.986328"/>
      <use xlink:href="#DejaVuSans-20" x="263.085938"/>
      <use xlink:href="#DejaVuSans-41" x="294.873047"/>
      <use xlink:href="#DejaVuSans-20" x="363.28125"/>
      <use xlink:href="#DejaVuSans-28" x="395.068359"/>
      <use xlink:href="#DejaVuSans-52" x="434.082031"/>
      <use xlink:href="#DejaVuSans-68" x="503.564453"/>
      <use xlink:href="#DejaVuSans-6f" x="566.943359"/>
      <use xlink:href="#DejaVuSans-64" x="628.125"/>
      <use xlink:href="#DejaVuSans-6f" x="691.601562"/>
      <use xlink:href="#DejaVuSans-70" x="752.783203"/>
      <use xlink:href="#DejaVuSans-73" x="816.259766"/>
      <use xlink:href="#DejaVuSans-69" x="868.359375"/>
      <use xlink:href="#DejaVuSans-6e" x="896.142578"/>
      <use xlink:href="#DejaVuSans-29" x="959.521484"/>
     </g>
    </g>
    <g id="patch_42">
     <path d="M 511.146875 106.434688 
L 531.146875 106.434688 
L 531.146875 99.434688 
L 511.146875 99.434688 
z
" style="fill: #ff7f0e; fill-opacity: 0.75; stroke: #000000; stroke-linejoin: miter"/>
    </g>
    <g id="text_73">
     <!-- Class B1 (Secretin) -->
     <g transform="translate(539.146875 106.434688) scale(0.1 -0.1)">
      <defs>
       <path id="DejaVuSans-42" d="M 1259 2228 
L 1259 519 
L 2272 519 
Q 2781 519 3026 730 
Q 3272 941 3272 1375 
Q 3272 1813 3026 2020 
Q 2781 2228 2272 2228 
L 1259 2228 
z
M 1259 4147 
L 1259 2741 
L 2194 2741 
Q 2656 2741 2882 2914 
Q 3109 3088 3109 3444 
Q 3109 3797 2882 3972 
Q 2656 4147 2194 4147 
L 1259 4147 
z
M 628 4666 
L 2241 4666 
Q 2963 4666 3353 4366 
Q 3744 4066 3744 3513 
Q 3744 3084 3544 2831 
Q 3344 2578 2956 2516 
Q 3422 2416 3680 2098 
Q 3938 1781 3938 1306 
Q 3938 681 3513 340 
Q 3088 0 2303 0 
L 628 0 
L 628 4666 
z
" transform="scale(0.015625)"/>
      </defs>
      <use xlink:href="#DejaVuSans-43"/>
      <use xlink:href="#DejaVuSans-6c" x="69.824219"/>
      <use xlink:href="#DejaVuSans-61" x="97.607422"/>
      <use xlink:href="#DejaVuSans-73" x="158.886719"/>
      <use xlink:href="#DejaVuSans-73" x="210.986328"/>
      <use xlink:href="#DejaVuSans-20" x="263.085938"/>
      <use xlink:href="#DejaVuSans-42" x="294.873047"/>
      <use xlink:href="#DejaVuSans-31" x="363.476562"/>
      <use xlink:href="#DejaVuSans-20" x="427.099609"/>
      <use xlink:href="#DejaVuSans-28" x="458.886719"/>
      <use xlink:href="#DejaVuSans-53" x="497.900391"/>
      <use xlink:href="#DejaVuSans-65" x="561.376953"/>
      <use xlink:href="#DejaVuSans-63" x="622.900391"/>
      <use xlink:href="#DejaVuSans-72" x="677.880859"/>
      <use xlink:href="#DejaVuSans-65" x="716.744141"/>
      <use xlink:href="#DejaVuSans-74" x="778.267578"/>
      <use xlink:href="#DejaVuSans-69" x="817.476562"/>
      <use xlink:href="#DejaVuSans-6e" x="845.259766"/>
      <use xlink:href="#DejaVuSans-29" x="908.638672"/>
     </g>
    </g>
    <g id="patch_43">
     <path d="M 511.146875 121.112813 
L 531.146875 121.112813 
L 531.146875 114.112813 
L 511.146875 114.112813 
z
" style="fill: #2ca02c; fill-opacity: 0.75; stroke: #000000; stroke-linejoin: miter"/>
    </g>
    <g id="text_74">
     <!-- Class F (Frizzled) -->
     <g transform="translate(539.146875 121.112813) scale(0.1 -0.1)">
      <use xlink:href="#DejaVuSans-43"/>
      <use xlink:href="#DejaVuSans-6c" x="69.824219"/>
      <use xlink:href="#DejaVuSans-61" x="97.607422"/>
      <use xlink:href="#DejaVuSans-73" x="158.886719"/>
      <use xlink:href="#DejaVuSans-73" x="210.986328"/>
      <use xlink:href="#DejaVuSans-20" x="263.085938"/>
      <use xlink:href="#DejaVuSans-46" x="294.873047"/>
      <use xlink:href="#DejaVuSans-20" x="352.392578"/>
      <use xlink:href="#DejaVuSans-28" x="384.179688"/>
      <use xlink:href="#DejaVuSans-46" x="423.193359"/>
      <use xlink:href="#DejaVuSans-72" x="473.462891"/>
      <use xlink:href="#DejaVuSans-69" x="514.576172"/>
      <use xlink:href="#DejaVuSans-7a" x="542.359375"/>
      <use xlink:href="#DejaVuSans-7a" x="594.849609"/>
      <use xlink:href="#DejaVuSans-6c" x="647.339844"/>
      <use xlink:href="#DejaVuSans-65" x="675.123047"/>
      <use xlink:href="#DejaVuSans-64" x="736.646484"/>
      <use xlink:href="#DejaVuSans-29" x="800.123047"/>
     </g>
    </g>
   </g>
  </g>
 </g>
 <defs>
  <clipPath id="p2d5b7fa0de">
   <rect x="90" y="60.48" width="558" height="388.08"/>
  </clipPath>
 </defs>
</svg>
