<?xml version="1.0" encoding="utf-8" standalone="no"?>
<!DOCTYPE svg PUBLIC "-//W3C//DTD SVG 1.1//EN"
  "http://www.w3.org/Graphics/SVG/1.1/DTD/svg11.dtd">
<svg xmlns:xlink="http://www.w3.org/1999/xlink" width="162pt" height="162pt" viewBox="0 0 162 162" xmlns="http://www.w3.org/2000/svg" version="1.1">
 <metadata>
  <rdf:RDF xmlns:dc="http://purl.org/dc/elements/1.1/" xmlns:cc="http://creativecommons.org/ns#" xmlns:rdf="http://www.w3.org/1999/02/22-rdf-syntax-ns#">
   <cc:Work>
    <dc:type rdf:resource="http://purl.org/dc/dcmitype/StillImage"/>
    <dc:date>2025-03-07T14:31:19.556297</dc:date>
    <dc:format>image/svg+xml</dc:format>
    <dc:creator>
     <cc:Agent>
      <dc:title>Matplotlib v3.10.0, https://matplotlib.org/</dc:title>
     </cc:Agent>
    </dc:creator>
   </cc:Work>
  </rdf:RDF>
 </metadata>
 <defs>
  <style type="text/css">*{stroke-linejoin: round; stroke-linecap: butt}</style>
 </defs>
 <g id="figure_1">
  <g id="patch_1">
   <path d="M 0 162 
L 162 162 
L 162 0 
L 0 0 
z
" style="fill: #ffffff"/>
  </g>
  <g id="axes_1">
   <g id="patch_2">
    <path d="M 43.62 120.18 
L 144.99 120.18 
L 144.99 24.21375 
L 43.62 24.21375 
z
" style="fill: #ffffff"/>
   </g>
   <g id="matplotlib.axis_1">
    <g id="xtick_1">
     <g id="line2d_1">
      <path d="M 48.182509 120.18 
L 48.182509 24.21375 
" clip-path="url(#pd13b7f1c61)" style="fill: none; stroke: #cccccc; stroke-width: 0.8; stroke-linecap: round"/>
     </g>
     <g id="text_1">
      <!-- 0 -->
      <g style="fill: #262626" transform="translate(45.40204 135.653437) scale(0.1 -0.1)">
       <defs>
        <path id="Helvetica-30" d="M 1731 4475 
Q 2600 4475 2988 3759 
Q 3288 3206 3288 2244 
Q 3288 1331 3016 734 
Q 2622 -122 1728 -122 
Q 922 -122 528 578 
Q 200 1163 200 2147 
Q 200 2909 397 3456 
Q 766 4475 1731 4475 
z
M 1725 391 
Q 2163 391 2422 778 
Q 2681 1166 2681 2222 
Q 2681 2984 2493 3476 
Q 2306 3969 1766 3969 
Q 1269 3969 1039 3501 
Q 809 3034 809 2125 
Q 809 1441 956 1025 
Q 1181 391 1725 391 
z
" transform="scale(0.015625)"/>
       </defs>
       <use xlink:href="#Helvetica-30"/>
      </g>
     </g>
    </g>
    <g id="xtick_2">
     <g id="line2d_2">
      <path d="M 93.400637 120.18 
L 93.400637 24.21375 
" clip-path="url(#pd13b7f1c61)" style="fill: none; stroke: #cccccc; stroke-width: 0.8; stroke-linecap: round"/>
     </g>
     <g id="text_2">
      <!-- 1000 -->
      <g style="fill: #262626" transform="translate(82.278762 135.653437) scale(0.1 -0.1)">
       <defs>
        <path id="Helvetica-31" d="M 613 3169 
L 613 3600 
Q 1222 3659 1462 3798 
Q 1703 3938 1822 4456 
L 2266 4456 
L 2266 0 
L 1666 0 
L 1666 3169 
L 613 3169 
z
" transform="scale(0.015625)"/>
       </defs>
       <use xlink:href="#Helvetica-31"/>
       <use xlink:href="#Helvetica-30" transform="translate(55.615234 0)"/>
       <use xlink:href="#Helvetica-30" transform="translate(111.230469 0)"/>
       <use xlink:href="#Helvetica-30" transform="translate(166.845703 0)"/>
      </g>
     </g>
    </g>
    <g id="xtick_3">
     <g id="line2d_3">
      <path d="M 138.618766 120.18 
L 138.618766 24.21375 
" clip-path="url(#pd13b7f1c61)" style="fill: none; stroke: #cccccc; stroke-width: 0.8; stroke-linecap: round"/>
     </g>
     <g id="text_3">
      <!-- 2000 -->
      <g style="fill: #262626" transform="translate(127.496891 135.653437) scale(0.1 -0.1)">
       <defs>
        <path id="Helvetica-32" d="M 200 0 
Q 231 578 439 1006 
Q 647 1434 1250 1784 
L 1850 2131 
Q 2253 2366 2416 2531 
Q 2672 2791 2672 3125 
Q 2672 3516 2437 3745 
Q 2203 3975 1813 3975 
Q 1234 3975 1013 3538 
Q 894 3303 881 2888 
L 309 2888 
Q 319 3472 525 3841 
Q 891 4491 1816 4491 
Q 2584 4491 2939 4075 
Q 3294 3659 3294 3150 
Q 3294 2613 2916 2231 
Q 2697 2009 2131 1694 
L 1703 1456 
Q 1397 1288 1222 1134 
Q 909 863 828 531 
L 3272 531 
L 3272 0 
L 200 0 
z
" transform="scale(0.015625)"/>
       </defs>
       <use xlink:href="#Helvetica-32"/>
       <use xlink:href="#Helvetica-30" transform="translate(55.615234 0)"/>
       <use xlink:href="#Helvetica-30" transform="translate(111.230469 0)"/>
       <use xlink:href="#Helvetica-30" transform="translate(166.845703 0)"/>
      </g>
     </g>
    </g>
    <g id="text_4">
     <!-- agonist msa depth -->
     <g style="fill: #262626" transform="translate(53.44875 148.934687) scale(0.1 -0.1)">
      <defs>
       <path id="Helvetica-61" d="M 844 891 
Q 844 647 1022 506 
Q 1200 366 1444 366 
Q 1741 366 2019 503 
Q 2488 731 2488 1250 
L 2488 1703 
Q 2384 1638 2221 1594 
Q 2059 1550 1903 1531 
L 1563 1488 
Q 1256 1447 1103 1359 
Q 844 1213 844 891 
z
M 2206 2028 
Q 2400 2053 2466 2191 
Q 2503 2266 2503 2406 
Q 2503 2694 2298 2823 
Q 2094 2953 1713 2953 
Q 1272 2953 1088 2716 
Q 984 2584 953 2325 
L 428 2325 
Q 444 2944 830 3186 
Q 1216 3428 1725 3428 
Q 2316 3428 2684 3203 
Q 3050 2978 3050 2503 
L 3050 575 
Q 3050 488 3086 434 
Q 3122 381 3238 381 
Q 3275 381 3322 386 
Q 3369 391 3422 400 
L 3422 -16 
Q 3291 -53 3222 -62 
Q 3153 -72 3034 -72 
Q 2744 -72 2613 134 
Q 2544 244 2516 444 
Q 2344 219 2022 53 
Q 1700 -113 1313 -113 
Q 847 -113 551 170 
Q 256 453 256 878 
Q 256 1344 547 1600 
Q 838 1856 1309 1916 
L 2206 2028 
z
M 1741 3428 
L 1741 3428 
z
" transform="scale(0.015625)"/>
       <path id="Helvetica-67" d="M 1594 3406 
Q 1988 3406 2281 3213 
Q 2441 3103 2606 2894 
L 2606 3316 
L 3125 3316 
L 3125 272 
Q 3125 -366 2938 -734 
Q 2588 -1416 1616 -1416 
Q 1075 -1416 706 -1173 
Q 338 -931 294 -416 
L 866 -416 
Q 906 -641 1028 -763 
Q 1219 -950 1628 -950 
Q 2275 -950 2475 -494 
Q 2594 -225 2584 466 
Q 2416 209 2178 84 
Q 1941 -41 1550 -41 
Q 1006 -41 598 345 
Q 191 731 191 1622 
Q 191 2463 602 2934 
Q 1013 3406 1594 3406 
z
M 2606 1688 
Q 2606 2309 2350 2609 
Q 2094 2909 1697 2909 
Q 1103 2909 884 2353 
Q 769 2056 769 1575 
Q 769 1009 998 714 
Q 1228 419 1616 419 
Q 2222 419 2469 966 
Q 2606 1275 2606 1688 
z
M 1659 3428 
L 1659 3428 
z
" transform="scale(0.015625)"/>
       <path id="Helvetica-6f" d="M 1741 363 
Q 2300 363 2508 786 
Q 2716 1209 2716 1728 
Q 2716 2197 2566 2491 
Q 2328 2953 1747 2953 
Q 1231 2953 997 2559 
Q 763 2166 763 1609 
Q 763 1075 997 719 
Q 1231 363 1741 363 
z
M 1763 3444 
Q 2409 3444 2856 3012 
Q 3303 2581 3303 1744 
Q 3303 934 2909 406 
Q 2516 -122 1688 -122 
Q 997 -122 590 345 
Q 184 813 184 1600 
Q 184 2444 612 2944 
Q 1041 3444 1763 3444 
z
M 1744 3428 
L 1744 3428 
z
" transform="scale(0.015625)"/>
       <path id="Helvetica-6e" d="M 413 3347 
L 947 3347 
L 947 2872 
Q 1184 3166 1450 3294 
Q 1716 3422 2041 3422 
Q 2753 3422 3003 2925 
Q 3141 2653 3141 2147 
L 3141 0 
L 2569 0 
L 2569 2109 
Q 2569 2416 2478 2603 
Q 2328 2916 1934 2916 
Q 1734 2916 1606 2875 
Q 1375 2806 1200 2600 
Q 1059 2434 1017 2257 
Q 975 2081 975 1753 
L 975 0 
L 413 0 
L 413 3347 
z
M 1734 3428 
L 1734 3428 
z
" transform="scale(0.015625)"/>
       <path id="Helvetica-69" d="M 413 3331 
L 984 3331 
L 984 0 
L 413 0 
L 413 3331 
z
M 413 4591 
L 984 4591 
L 984 3953 
L 413 3953 
L 413 4591 
z
" transform="scale(0.015625)"/>
       <path id="Helvetica-73" d="M 747 1050 
Q 772 769 888 619 
Q 1100 347 1625 347 
Q 1938 347 2175 483 
Q 2413 619 2413 903 
Q 2413 1119 2222 1231 
Q 2100 1300 1741 1391 
L 1294 1503 
Q 866 1609 663 1741 
Q 300 1969 300 2372 
Q 300 2847 642 3140 
Q 984 3434 1563 3434 
Q 2319 3434 2653 2991 
Q 2863 2709 2856 2384 
L 2325 2384 
Q 2309 2575 2191 2731 
Q 1997 2953 1519 2953 
Q 1200 2953 1036 2831 
Q 872 2709 872 2509 
Q 872 2291 1088 2159 
Q 1213 2081 1456 2022 
L 1828 1931 
Q 2434 1784 2641 1647 
Q 2969 1431 2969 969 
Q 2969 522 2630 197 
Q 2291 -128 1597 -128 
Q 850 -128 539 211 
Q 228 550 206 1050 
L 747 1050 
z
M 1578 3428 
L 1578 3428 
z
" transform="scale(0.015625)"/>
       <path id="Helvetica-74" d="M 525 4281 
L 1094 4281 
L 1094 3347 
L 1628 3347 
L 1628 2888 
L 1094 2888 
L 1094 703 
Q 1094 528 1213 469 
Q 1278 434 1431 434 
Q 1472 434 1519 436 
Q 1566 438 1628 444 
L 1628 0 
Q 1531 -28 1426 -40 
Q 1322 -53 1200 -53 
Q 806 -53 665 148 
Q 525 350 525 672 
L 525 2888 
L 72 2888 
L 72 3347 
L 525 3347 
L 525 4281 
z
" transform="scale(0.015625)"/>
       <path id="Helvetica-20" transform="scale(0.015625)"/>
       <path id="Helvetica-6d" d="M 413 3347 
L 969 3347 
L 969 2872 
Q 1169 3119 1331 3231 
Q 1609 3422 1963 3422 
Q 2363 3422 2606 3225 
Q 2744 3113 2856 2894 
Q 3044 3163 3297 3292 
Q 3550 3422 3866 3422 
Q 4541 3422 4784 2934 
Q 4916 2672 4916 2228 
L 4916 0 
L 4331 0 
L 4331 2325 
Q 4331 2659 4164 2784 
Q 3997 2909 3756 2909 
Q 3425 2909 3186 2687 
Q 2947 2466 2947 1947 
L 2947 0 
L 2375 0 
L 2375 2184 
Q 2375 2525 2294 2681 
Q 2166 2916 1816 2916 
Q 1497 2916 1236 2669 
Q 975 2422 975 1775 
L 975 0 
L 413 0 
L 413 3347 
z
" transform="scale(0.015625)"/>
       <path id="Helvetica-64" d="M 769 1634 
Q 769 1097 997 734 
Q 1225 372 1728 372 
Q 2119 372 2370 708 
Q 2622 1044 2622 1672 
Q 2622 2306 2362 2611 
Q 2103 2916 1722 2916 
Q 1297 2916 1033 2591 
Q 769 2266 769 1634 
z
M 1616 3406 
Q 2000 3406 2259 3244 
Q 2409 3150 2600 2916 
L 2600 4606 
L 3141 4606 
L 3141 0 
L 2634 0 
L 2634 466 
Q 2438 156 2169 18 
Q 1900 -119 1553 -119 
Q 994 -119 584 351 
Q 175 822 175 1603 
Q 175 2334 548 2870 
Q 922 3406 1616 3406 
z
" transform="scale(0.015625)"/>
       <path id="Helvetica-65" d="M 1806 3422 
Q 2163 3422 2497 3255 
Q 2831 3088 3006 2822 
Q 3175 2569 3231 2231 
Q 3281 2000 3281 1494 
L 828 1494 
Q 844 984 1069 676 
Q 1294 369 1766 369 
Q 2206 369 2469 659 
Q 2619 828 2681 1050 
L 3234 1050 
Q 3213 866 3089 639 
Q 2966 413 2813 269 
Q 2556 19 2178 -69 
Q 1975 -119 1719 -119 
Q 1094 -119 659 336 
Q 225 791 225 1609 
Q 225 2416 662 2919 
Q 1100 3422 1806 3422 
z
M 2703 1941 
Q 2669 2306 2544 2525 
Q 2313 2931 1772 2931 
Q 1384 2931 1121 2651 
Q 859 2372 844 1941 
L 2703 1941 
z
M 1753 3428 
L 1753 3428 
z
" transform="scale(0.015625)"/>
       <path id="Helvetica-70" d="M 1825 378 
Q 2219 378 2480 708 
Q 2741 1038 2741 1694 
Q 2741 2094 2625 2381 
Q 2406 2934 1825 2934 
Q 1241 2934 1025 2350 
Q 909 2038 909 1556 
Q 909 1169 1025 897 
Q 1244 378 1825 378 
z
M 369 3331 
L 916 3331 
L 916 2888 
Q 1084 3116 1284 3241 
Q 1569 3428 1953 3428 
Q 2522 3428 2919 2992 
Q 3316 2556 3316 1747 
Q 3316 653 2744 184 
Q 2381 -113 1900 -113 
Q 1522 -113 1266 53 
Q 1116 147 931 375 
L 931 -1334 
L 369 -1334 
L 369 3331 
z
" transform="scale(0.015625)"/>
       <path id="Helvetica-68" d="M 413 4606 
L 975 4606 
L 975 2894 
Q 1175 3147 1334 3250 
Q 1606 3428 2013 3428 
Q 2741 3428 3000 2919 
Q 3141 2641 3141 2147 
L 3141 0 
L 2563 0 
L 2563 2109 
Q 2563 2478 2469 2650 
Q 2316 2925 1894 2925 
Q 1544 2925 1259 2684 
Q 975 2444 975 1775 
L 975 0 
L 413 0 
L 413 4606 
z
" transform="scale(0.015625)"/>
      </defs>
      <use xlink:href="#Helvetica-61"/>
      <use xlink:href="#Helvetica-67" transform="translate(55.615234 0)"/>
      <use xlink:href="#Helvetica-6f" transform="translate(111.230469 0)"/>
      <use xlink:href="#Helvetica-6e" transform="translate(166.845703 0)"/>
      <use xlink:href="#Helvetica-69" transform="translate(222.460938 0)"/>
      <use xlink:href="#Helvetica-73" transform="translate(244.677734 0)"/>
      <use xlink:href="#Helvetica-74" transform="translate(294.677734 0)"/>
      <use xlink:href="#Helvetica-20" transform="translate(322.460938 0)"/>
      <use xlink:href="#Helvetica-6d" transform="translate(350.244141 0)"/>
      <use xlink:href="#Helvetica-73" transform="translate(433.544922 0)"/>
      <use xlink:href="#Helvetica-61" transform="translate(483.544922 0)"/>
      <use xlink:href="#Helvetica-20" transform="translate(539.160156 0)"/>
      <use xlink:href="#Helvetica-64" transform="translate(566.943359 0)"/>
      <use xlink:href="#Helvetica-65" transform="translate(622.558594 0)"/>
      <use xlink:href="#Helvetica-70" transform="translate(678.173828 0)"/>
      <use xlink:href="#Helvetica-74" transform="translate(733.789062 0)"/>
      <use xlink:href="#Helvetica-68" transform="translate(761.572266 0)"/>
     </g>
    </g>
   </g>
   <g id="matplotlib.axis_2">
    <g id="ytick_1">
     <g id="line2d_4">
      <path d="M 43.62 120.18 
L 144.99 120.18 
" clip-path="url(#pd13b7f1c61)" style="fill: none; stroke: #cccccc; stroke-width: 0.8; stroke-linecap: round"/>
     </g>
     <g id="text_5">
      <!-- 0 -->
      <g style="fill: #262626" transform="translate(29.759063 123.766719) scale(0.1 -0.1)">
       <use xlink:href="#Helvetica-30"/>
      </g>
     </g>
    </g>
    <g id="ytick_2">
     <g id="line2d_5">
      <path d="M 43.62 111.976277 
L 144.99 111.976277 
" clip-path="url(#pd13b7f1c61)" style="fill: none; stroke: #cccccc; stroke-width: 0.8; stroke-linecap: round"/>
     </g>
     <g id="text_6">
      <!-- 1 -->
      <g style="fill: #262626" transform="translate(29.759063 115.562996) scale(0.1 -0.1)">
       <use xlink:href="#Helvetica-31"/>
      </g>
     </g>
    </g>
    <g id="ytick_3">
     <g id="line2d_6">
      <path d="M 43.62 103.772555 
L 144.99 103.772555 
" clip-path="url(#pd13b7f1c61)" style="fill: none; stroke: #cccccc; stroke-width: 0.8; stroke-linecap: round"/>
     </g>
     <g id="text_7">
      <!-- 2 -->
      <g style="fill: #262626" transform="translate(29.759063 107.359274) scale(0.1 -0.1)">
       <use xlink:href="#Helvetica-32"/>
      </g>
     </g>
    </g>
    <g id="ytick_4">
     <g id="line2d_7">
      <path d="M 43.62 95.568832 
L 144.99 95.568832 
" clip-path="url(#pd13b7f1c61)" style="fill: none; stroke: #cccccc; stroke-width: 0.8; stroke-linecap: round"/>
     </g>
     <g id="text_8">
      <!-- 3 -->
      <g style="fill: #262626" transform="translate(29.759063 99.155551) scale(0.1 -0.1)">
       <defs>
        <path id="Helvetica-33" d="M 1663 -122 
Q 869 -122 511 314 
Q 153 750 153 1375 
L 741 1375 
Q 778 941 903 744 
Q 1122 391 1694 391 
Q 2138 391 2406 628 
Q 2675 866 2675 1241 
Q 2675 1703 2392 1887 
Q 2109 2072 1606 2072 
Q 1550 2072 1492 2070 
Q 1434 2069 1375 2066 
L 1375 2563 
Q 1463 2553 1522 2550 
Q 1581 2547 1650 2547 
Q 1966 2547 2169 2647 
Q 2525 2822 2525 3272 
Q 2525 3606 2287 3787 
Q 2050 3969 1734 3969 
Q 1172 3969 956 3594 
Q 838 3388 822 3006 
L 266 3006 
Q 266 3506 466 3856 
Q 809 4481 1675 4481 
Q 2359 4481 2734 4176 
Q 3109 3872 3109 3294 
Q 3109 2881 2888 2625 
Q 2750 2466 2531 2375 
Q 2884 2278 3082 2001 
Q 3281 1725 3281 1325 
Q 3281 684 2859 281 
Q 2438 -122 1663 -122 
z
" transform="scale(0.015625)"/>
       </defs>
       <use xlink:href="#Helvetica-33"/>
      </g>
     </g>
    </g>
    <g id="ytick_5">
     <g id="line2d_8">
      <path d="M 43.62 87.36511 
L 144.99 87.36511 
" clip-path="url(#pd13b7f1c61)" style="fill: none; stroke: #cccccc; stroke-width: 0.8; stroke-linecap: round"/>
     </g>
     <g id="text_9">
      <!-- 4 -->
      <g style="fill: #262626" transform="translate(29.759063 90.951829) scale(0.1 -0.1)">
       <defs>
        <path id="Helvetica-34" d="M 2116 1584 
L 2116 3613 
L 681 1584 
L 2116 1584 
z
M 2125 0 
L 2125 1094 
L 163 1094 
L 163 1644 
L 2213 4488 
L 2688 4488 
L 2688 1584 
L 3347 1584 
L 3347 1094 
L 2688 1094 
L 2688 0 
L 2125 0 
z
" transform="scale(0.015625)"/>
       </defs>
       <use xlink:href="#Helvetica-34"/>
      </g>
     </g>
    </g>
    <g id="ytick_6">
     <g id="line2d_9">
      <path d="M 43.62 79.161387 
L 144.99 79.161387 
" clip-path="url(#pd13b7f1c61)" style="fill: none; stroke: #cccccc; stroke-width: 0.8; stroke-linecap: round"/>
     </g>
     <g id="text_10">
      <!-- 5 -->
      <g style="fill: #262626" transform="translate(29.759063 82.748106) scale(0.1 -0.1)">
       <defs>
        <path id="Helvetica-35" d="M 791 1141 
Q 847 659 1238 475 
Q 1438 381 1700 381 
Q 2200 381 2440 700 
Q 2681 1019 2681 1406 
Q 2681 1875 2395 2131 
Q 2109 2388 1709 2388 
Q 1419 2388 1211 2275 
Q 1003 2163 856 1963 
L 369 1991 
L 709 4400 
L 3034 4400 
L 3034 3856 
L 1131 3856 
L 941 2613 
Q 1097 2731 1238 2791 
Q 1488 2894 1816 2894 
Q 2431 2894 2859 2497 
Q 3288 2100 3288 1491 
Q 3288 856 2895 371 
Q 2503 -113 1644 -113 
Q 1097 -113 676 195 
Q 256 503 206 1141 
L 791 1141 
z
" transform="scale(0.015625)"/>
       </defs>
       <use xlink:href="#Helvetica-35"/>
      </g>
     </g>
    </g>
    <g id="ytick_7">
     <g id="line2d_10">
      <path d="M 43.62 70.957665 
L 144.99 70.957665 
" clip-path="url(#pd13b7f1c61)" style="fill: none; stroke: #cccccc; stroke-width: 0.8; stroke-linecap: round"/>
     </g>
     <g id="text_11">
      <!-- 6 -->
      <g style="fill: #262626" transform="translate(29.759063 74.544384) scale(0.1 -0.1)">
       <defs>
        <path id="Helvetica-36" d="M 1872 4494 
Q 2622 4494 2917 4105 
Q 3213 3716 3213 3303 
L 2656 3303 
Q 2606 3569 2497 3719 
Q 2294 4000 1881 4000 
Q 1409 4000 1131 3564 
Q 853 3128 822 2316 
Q 1016 2600 1309 2741 
Q 1578 2866 1909 2866 
Q 2472 2866 2890 2506 
Q 3309 2147 3309 1434 
Q 3309 825 2912 354 
Q 2516 -116 1781 -116 
Q 1153 -116 697 361 
Q 241 838 241 1966 
Q 241 2800 444 3381 
Q 834 4494 1872 4494 
z
M 1831 384 
Q 2275 384 2495 682 
Q 2716 981 2716 1388 
Q 2716 1731 2519 2042 
Q 2322 2353 1803 2353 
Q 1441 2353 1167 2112 
Q 894 1872 894 1388 
Q 894 963 1142 673 
Q 1391 384 1831 384 
z
" transform="scale(0.015625)"/>
       </defs>
       <use xlink:href="#Helvetica-36"/>
      </g>
     </g>
    </g>
    <g id="ytick_8">
     <g id="line2d_11">
      <path d="M 43.62 62.753942 
L 144.99 62.753942 
" clip-path="url(#pd13b7f1c61)" style="fill: none; stroke: #cccccc; stroke-width: 0.8; stroke-linecap: round"/>
     </g>
     <g id="text_12">
      <!-- 7 -->
      <g style="fill: #262626" transform="translate(29.759063 66.340661) scale(0.1 -0.1)">
       <defs>
        <path id="Helvetica-37" d="M 3347 4400 
L 3347 3909 
Q 3131 3700 2773 3181 
Q 2416 2663 2141 2063 
Q 1869 1478 1728 997 
Q 1638 688 1494 0 
L 872 0 
Q 1084 1281 1809 2550 
Q 2238 3294 2709 3834 
L 234 3834 
L 234 4400 
L 3347 4400 
z
" transform="scale(0.015625)"/>
       </defs>
       <use xlink:href="#Helvetica-37"/>
      </g>
     </g>
    </g>
    <g id="ytick_9">
     <g id="line2d_12">
      <path d="M 43.62 54.55022 
L 144.99 54.55022 
" clip-path="url(#pd13b7f1c61)" style="fill: none; stroke: #cccccc; stroke-width: 0.8; stroke-linecap: round"/>
     </g>
     <g id="text_13">
      <!-- 8 -->
      <g style="fill: #262626" transform="translate(29.759063 58.136938) scale(0.1 -0.1)">
       <defs>
        <path id="Helvetica-38" d="M 1741 2600 
Q 2113 2600 2322 2808 
Q 2531 3016 2531 3303 
Q 2531 3553 2331 3762 
Q 2131 3972 1722 3972 
Q 1316 3972 1134 3762 
Q 953 3553 953 3272 
Q 953 2956 1187 2778 
Q 1422 2600 1741 2600 
z
M 1775 384 
Q 2166 384 2423 595 
Q 2681 806 2681 1225 
Q 2681 1659 2415 1884 
Q 2150 2109 1734 2109 
Q 1331 2109 1076 1879 
Q 822 1650 822 1244 
Q 822 894 1055 639 
Q 1288 384 1775 384 
z
M 975 2384 
Q 741 2484 609 2619 
Q 363 2869 363 3269 
Q 363 3769 725 4128 
Q 1088 4488 1753 4488 
Q 2397 4488 2762 4148 
Q 3128 3809 3128 3356 
Q 3128 2938 2916 2678 
Q 2797 2531 2547 2391 
Q 2825 2263 2984 2097 
Q 3281 1784 3281 1284 
Q 3281 694 2884 283 
Q 2488 -128 1763 -128 
Q 1109 -128 657 226 
Q 206 581 206 1256 
Q 206 1653 400 1942 
Q 594 2231 975 2384 
z
" transform="scale(0.015625)"/>
       </defs>
       <use xlink:href="#Helvetica-38"/>
      </g>
     </g>
    </g>
    <g id="ytick_10">
     <g id="line2d_13">
      <path d="M 43.62 46.346497 
L 144.99 46.346497 
" clip-path="url(#pd13b7f1c61)" style="fill: none; stroke: #cccccc; stroke-width: 0.8; stroke-linecap: round"/>
     </g>
     <g id="text_14">
      <!-- 9 -->
      <g style="fill: #262626" transform="translate(29.759063 49.933216) scale(0.1 -0.1)">
       <defs>
        <path id="Helvetica-39" d="M 850 1081 
Q 875 616 1209 438 
Q 1381 344 1597 344 
Q 2000 344 2284 680 
Q 2569 1016 2688 2044 
Q 2500 1747 2223 1626 
Q 1947 1506 1628 1506 
Q 981 1506 604 1909 
Q 228 2313 228 2947 
Q 228 3556 600 4018 
Q 972 4481 1697 4481 
Q 2675 4481 3047 3600 
Q 3253 3116 3253 2388 
Q 3253 1566 3006 931 
Q 2597 -125 1619 -125 
Q 963 -125 622 219 
Q 281 563 281 1081 
L 850 1081 
z
M 1703 2000 
Q 2038 2000 2314 2220 
Q 2591 2441 2591 2991 
Q 2591 3484 2342 3726 
Q 2094 3969 1709 3969 
Q 1297 3969 1055 3692 
Q 813 3416 813 2953 
Q 813 2516 1025 2258 
Q 1238 2000 1703 2000 
z
" transform="scale(0.015625)"/>
       </defs>
       <use xlink:href="#Helvetica-39"/>
      </g>
     </g>
    </g>
    <g id="ytick_11">
     <g id="line2d_14">
      <path d="M 43.62 38.142775 
L 144.99 38.142775 
" clip-path="url(#pd13b7f1c61)" style="fill: none; stroke: #cccccc; stroke-width: 0.8; stroke-linecap: round"/>
     </g>
     <g id="text_15">
      <!-- 10 -->
      <g style="fill: #262626" transform="translate(24.198125 41.729493) scale(0.1 -0.1)">
       <use xlink:href="#Helvetica-31"/>
       <use xlink:href="#Helvetica-30" transform="translate(55.615234 0)"/>
      </g>
     </g>
    </g>
    <g id="ytick_12">
     <g id="line2d_15">
      <path d="M 43.62 29.939052 
L 144.99 29.939052 
" clip-path="url(#pd13b7f1c61)" style="fill: none; stroke: #cccccc; stroke-width: 0.8; stroke-linecap: round"/>
     </g>
     <g id="text_16">
      <!-- 11 -->
      <g style="fill: #262626" transform="translate(24.198125 33.525771) scale(0.1 -0.1)">
       <use xlink:href="#Helvetica-31"/>
       <use xlink:href="#Helvetica-31" transform="translate(55.615234 0)"/>
      </g>
     </g>
    </g>
    <g id="text_17">
     <!-- Rank -->
     <g style="fill: #262626" transform="translate(18.11375 83.86875) rotate(-90) scale(0.1 -0.1)">
      <defs>
       <path id="Helvetica-52" d="M 2622 2488 
Q 3059 2488 3314 2663 
Q 3569 2838 3569 3294 
Q 3569 3784 3213 3963 
Q 3022 4056 2703 4056 
L 1184 4056 
L 1184 2488 
L 2622 2488 
z
M 563 4591 
L 2688 4591 
Q 3213 4591 3553 4438 
Q 4200 4144 4200 3353 
Q 4200 2941 4029 2678 
Q 3859 2416 3553 2256 
Q 3822 2147 3958 1969 
Q 4094 1791 4109 1391 
L 4131 775 
Q 4141 513 4175 384 
Q 4231 166 4375 103 
L 4375 0 
L 3613 0 
Q 3581 59 3562 153 
Q 3544 247 3531 516 
L 3494 1281 
Q 3472 1731 3159 1884 
Q 2981 1969 2600 1969 
L 1184 1969 
L 1184 0 
L 563 0 
L 563 4591 
z
" transform="scale(0.015625)"/>
       <path id="Helvetica-6b" d="M 400 4591 
L 941 4591 
L 941 1925 
L 2384 3347 
L 3103 3347 
L 1822 2094 
L 3175 0 
L 2456 0 
L 1413 1688 
L 941 1256 
L 941 0 
L 400 0 
L 400 4591 
z
" transform="scale(0.015625)"/>
      </defs>
      <use xlink:href="#Helvetica-52"/>
      <use xlink:href="#Helvetica-61" transform="translate(72.216797 0)"/>
      <use xlink:href="#Helvetica-6e" transform="translate(127.832031 0)"/>
      <use xlink:href="#Helvetica-6b" transform="translate(183.447266 0)"/>
     </g>
    </g>
   </g>
   <g id="PathCollection_1">
    <defs>
     <path id="mc3e57c110a" d="M 0 2.4 
C 0.636487 2.4 1.246992 2.147121 1.697056 1.697056 
C 2.147121 1.246992 2.4 0.636487 2.4 0 
C 2.4 -0.636487 2.147121 -1.246992 1.697056 -1.697056 
C 1.246992 -2.147121 0.636487 -2.4 0 -2.4 
C -0.636487 -2.4 -1.246992 -2.147121 -1.697056 -1.697056 
C -2.147121 -1.246992 -2.4 -0.636487 -2.4 0 
C -2.4 0.636487 -2.147121 1.246992 -1.697056 1.697056 
C -1.246992 2.147121 -0.636487 2.4 0 2.4 
z
" style="stroke: #1f77b4; stroke-opacity: 0.5"/>
    </defs>
    <g clip-path="url(#pd13b7f1c61)">
     <use xlink:href="#mc3e57c110a" x="53.020849" y="55.617945" style="fill: #1f77b4; fill-opacity: 0.5; stroke: #1f77b4; stroke-opacity: 0.5"/>
     <use xlink:href="#mc3e57c110a" x="52.206923" y="29.425538" style="fill: #1f77b4; fill-opacity: 0.5; stroke: #1f77b4; stroke-opacity: 0.5"/>
     <use xlink:href="#mc3e57c110a" x="48.318164" y="61.806076" style="fill: #1f77b4; fill-opacity: 0.5; stroke: #1f77b4; stroke-opacity: 0.5"/>
     <use xlink:href="#mc3e57c110a" x="108.141747" y="29.065196" style="fill: #1f77b4; fill-opacity: 0.5; stroke: #1f77b4; stroke-opacity: 0.5"/>
     <use xlink:href="#mc3e57c110a" x="53.020849" y="71.217491" style="fill: #1f77b4; fill-opacity: 0.5; stroke: #1f77b4; stroke-opacity: 0.5"/>
     <use xlink:href="#mc3e57c110a" x="50.57907" y="61.359181" style="fill: #1f77b4; fill-opacity: 0.5; stroke: #1f77b4; stroke-opacity: 0.5"/>
     <use xlink:href="#mc3e57c110a" x="52.206923" y="88.434083" style="fill: #1f77b4; fill-opacity: 0.5; stroke: #1f77b4; stroke-opacity: 0.5"/>
     <use xlink:href="#mc3e57c110a" x="140.382273" y="38.382182" style="fill: #1f77b4; fill-opacity: 0.5; stroke: #1f77b4; stroke-opacity: 0.5"/>
     <use xlink:href="#mc3e57c110a" x="74.182933" y="37.452751" style="fill: #1f77b4; fill-opacity: 0.5; stroke: #1f77b4; stroke-opacity: 0.5"/>
     <use xlink:href="#mc3e57c110a" x="49.086872" y="55.239738" style="fill: #1f77b4; fill-opacity: 0.5; stroke: #1f77b4; stroke-opacity: 0.5"/>
     <use xlink:href="#mc3e57c110a" x="50.036452" y="94.573586" style="fill: #1f77b4; fill-opacity: 0.5; stroke: #1f77b4; stroke-opacity: 0.5"/>
     <use xlink:href="#mc3e57c110a" x="70.294174" y="29.595358" style="fill: #1f77b4; fill-opacity: 0.5; stroke: #1f77b4; stroke-opacity: 0.5"/>
     <use xlink:href="#mc3e57c110a" x="108.141747" y="39.503433" style="fill: #1f77b4; fill-opacity: 0.5; stroke: #1f77b4; stroke-opacity: 0.5"/>
     <use xlink:href="#mc3e57c110a" x="49.403399" y="63.595749" style="fill: #1f77b4; fill-opacity: 0.5; stroke: #1f77b4; stroke-opacity: 0.5"/>
     <use xlink:href="#mc3e57c110a" x="51.257342" y="78.351448" style="fill: #1f77b4; fill-opacity: 0.5; stroke: #1f77b4; stroke-opacity: 0.5"/>
     <use xlink:href="#mc3e57c110a" x="50.895597" y="29.695059" style="fill: #1f77b4; fill-opacity: 0.5; stroke: #1f77b4; stroke-opacity: 0.5"/>
     <use xlink:href="#mc3e57c110a" x="49.674707" y="72.280936" style="fill: #1f77b4; fill-opacity: 0.5; stroke: #1f77b4; stroke-opacity: 0.5"/>
     <use xlink:href="#mc3e57c110a" x="58.040061" y="28.506775" style="fill: #1f77b4; fill-opacity: 0.5; stroke: #1f77b4; stroke-opacity: 0.5"/>
     <use xlink:href="#mc3e57c110a" x="68.666321" y="69.519351" style="fill: #1f77b4; fill-opacity: 0.5; stroke: #1f77b4; stroke-opacity: 0.5"/>
     <use xlink:href="#mc3e57c110a" x="64.551472" y="61.693949" style="fill: #1f77b4; fill-opacity: 0.5; stroke: #1f77b4; stroke-opacity: 0.5"/>
     <use xlink:href="#mc3e57c110a" x="51.664305" y="39.430239" style="fill: #1f77b4; fill-opacity: 0.5; stroke: #1f77b4; stroke-opacity: 0.5"/>
     <use xlink:href="#mc3e57c110a" x="55.41741" y="71.137912" style="fill: #1f77b4; fill-opacity: 0.5; stroke: #1f77b4; stroke-opacity: 0.5"/>
     <use xlink:href="#mc3e57c110a" x="53.020849" y="70.928385" style="fill: #1f77b4; fill-opacity: 0.5; stroke: #1f77b4; stroke-opacity: 0.5"/>
     <use xlink:href="#mc3e57c110a" x="71.469845" y="36.632785" style="fill: #1f77b4; fill-opacity: 0.5; stroke: #1f77b4; stroke-opacity: 0.5"/>
     <use xlink:href="#mc3e57c110a" x="51.076469" y="62.819541" style="fill: #1f77b4; fill-opacity: 0.5; stroke: #1f77b4; stroke-opacity: 0.5"/>
     <use xlink:href="#mc3e57c110a" x="61.567075" y="63.930109" style="fill: #1f77b4; fill-opacity: 0.5; stroke: #1f77b4; stroke-opacity: 0.5"/>
     <use xlink:href="#mc3e57c110a" x="52.794758" y="45.185125" style="fill: #1f77b4; fill-opacity: 0.5; stroke: #1f77b4; stroke-opacity: 0.5"/>
     <use xlink:href="#mc3e57c110a" x="104.659951" y="30.790762" style="fill: #1f77b4; fill-opacity: 0.5; stroke: #1f77b4; stroke-opacity: 0.5"/>
     <use xlink:href="#mc3e57c110a" x="139.658783" y="38.926904" style="fill: #1f77b4; fill-opacity: 0.5; stroke: #1f77b4; stroke-opacity: 0.5"/>
     <use xlink:href="#mc3e57c110a" x="104.93126" y="30.800206" style="fill: #1f77b4; fill-opacity: 0.5; stroke: #1f77b4; stroke-opacity: 0.5"/>
     <use xlink:href="#mc3e57c110a" x="53.020849" y="64.38595" style="fill: #1f77b4; fill-opacity: 0.5; stroke: #1f77b4; stroke-opacity: 0.5"/>
     <use xlink:href="#mc3e57c110a" x="48.996435" y="45.473444" style="fill: #1f77b4; fill-opacity: 0.5; stroke: #1f77b4; stroke-opacity: 0.5"/>
     <use xlink:href="#mc3e57c110a" x="48.725127" y="62.802321" style="fill: #1f77b4; fill-opacity: 0.5; stroke: #1f77b4; stroke-opacity: 0.5"/>
     <use xlink:href="#mc3e57c110a" x="48.63469" y="70.340538" style="fill: #1f77b4; fill-opacity: 0.5; stroke: #1f77b4; stroke-opacity: 0.5"/>
     <use xlink:href="#mc3e57c110a" x="57.135699" y="78.474249" style="fill: #1f77b4; fill-opacity: 0.5; stroke: #1f77b4; stroke-opacity: 0.5"/>
     <use xlink:href="#mc3e57c110a" x="48.815563" y="70.398429" style="fill: #1f77b4; fill-opacity: 0.5; stroke: #1f77b4; stroke-opacity: 0.5"/>
     <use xlink:href="#mc3e57c110a" x="49.810362" y="62.33069" style="fill: #1f77b4; fill-opacity: 0.5; stroke: #1f77b4; stroke-opacity: 0.5"/>
     <use xlink:href="#mc3e57c110a" x="50.57907" y="55.740181" style="fill: #1f77b4; fill-opacity: 0.5; stroke: #1f77b4; stroke-opacity: 0.5"/>
     <use xlink:href="#mc3e57c110a" x="48.227727" y="44.734673" style="fill: #1f77b4; fill-opacity: 0.5; stroke: #1f77b4; stroke-opacity: 0.5"/>
     <use xlink:href="#mc3e57c110a" x="49.222526" y="63.770176" style="fill: #1f77b4; fill-opacity: 0.5; stroke: #1f77b4; stroke-opacity: 0.5"/>
     <use xlink:href="#mc3e57c110a" x="51.483433" y="64.103309" style="fill: #1f77b4; fill-opacity: 0.5; stroke: #1f77b4; stroke-opacity: 0.5"/>
     <use xlink:href="#mc3e57c110a" x="52.794758" y="77.82596" style="fill: #1f77b4; fill-opacity: 0.5; stroke: #1f77b4; stroke-opacity: 0.5"/>
     <use xlink:href="#mc3e57c110a" x="51.619087" y="47.417682" style="fill: #1f77b4; fill-opacity: 0.5; stroke: #1f77b4; stroke-opacity: 0.5"/>
     <use xlink:href="#mc3e57c110a" x="53.020849" y="56.0872" style="fill: #1f77b4; fill-opacity: 0.5; stroke: #1f77b4; stroke-opacity: 0.5"/>
     <use xlink:href="#mc3e57c110a" x="139.749219" y="38.849026" style="fill: #1f77b4; fill-opacity: 0.5; stroke: #1f77b4; stroke-opacity: 0.5"/>
     <use xlink:href="#mc3e57c110a" x="57.045262" y="28.362203" style="fill: #1f77b4; fill-opacity: 0.5; stroke: #1f77b4; stroke-opacity: 0.5"/>
     <use xlink:href="#mc3e57c110a" x="48.589472" y="55.60763" style="fill: #1f77b4; fill-opacity: 0.5; stroke: #1f77b4; stroke-opacity: 0.5"/>
     <use xlink:href="#mc3e57c110a" x="50.57907" y="62.841616" style="fill: #1f77b4; fill-opacity: 0.5; stroke: #1f77b4; stroke-opacity: 0.5"/>
     <use xlink:href="#mc3e57c110a" x="56.954826" y="71.064492" style="fill: #1f77b4; fill-opacity: 0.5; stroke: #1f77b4; stroke-opacity: 0.5"/>
     <use xlink:href="#mc3e57c110a" x="51.664305" y="37.912447" style="fill: #1f77b4; fill-opacity: 0.5; stroke: #1f77b4; stroke-opacity: 0.5"/>
     <use xlink:href="#mc3e57c110a" x="139.432692" y="30.578618" style="fill: #1f77b4; fill-opacity: 0.5; stroke: #1f77b4; stroke-opacity: 0.5"/>
     <use xlink:href="#mc3e57c110a" x="48.227727" y="31.323091" style="fill: #1f77b4; fill-opacity: 0.5; stroke: #1f77b4; stroke-opacity: 0.5"/>
     <use xlink:href="#mc3e57c110a" x="49.810362" y="72.163231" style="fill: #1f77b4; fill-opacity: 0.5; stroke: #1f77b4; stroke-opacity: 0.5"/>
     <use xlink:href="#mc3e57c110a" x="48.227727" y="47.20054" style="fill: #1f77b4; fill-opacity: 0.5; stroke: #1f77b4; stroke-opacity: 0.5"/>
     <use xlink:href="#mc3e57c110a" x="140.382273" y="38.831105" style="fill: #1f77b4; fill-opacity: 0.5; stroke: #1f77b4; stroke-opacity: 0.5"/>
     <use xlink:href="#mc3e57c110a" x="119.853242" y="31.434843" style="fill: #1f77b4; fill-opacity: 0.5; stroke: #1f77b4; stroke-opacity: 0.5"/>
     <use xlink:href="#mc3e57c110a" x="113.703577" y="30.740729" style="fill: #1f77b4; fill-opacity: 0.5; stroke: #1f77b4; stroke-opacity: 0.5"/>
     <use xlink:href="#mc3e57c110a" x="57.949625" y="38.303019" style="fill: #1f77b4; fill-opacity: 0.5; stroke: #1f77b4; stroke-opacity: 0.5"/>
     <use xlink:href="#mc3e57c110a" x="49.539053" y="79.374864" style="fill: #1f77b4; fill-opacity: 0.5; stroke: #1f77b4; stroke-opacity: 0.5"/>
     <use xlink:href="#mc3e57c110a" x="135.408279" y="28.490363" style="fill: #1f77b4; fill-opacity: 0.5; stroke: #1f77b4; stroke-opacity: 0.5"/>
     <use xlink:href="#mc3e57c110a" x="49.85558" y="47.923665" style="fill: #1f77b4; fill-opacity: 0.5; stroke: #1f77b4; stroke-opacity: 0.5"/>
     <use xlink:href="#mc3e57c110a" x="53.020849" y="56.128787" style="fill: #1f77b4; fill-opacity: 0.5; stroke: #1f77b4; stroke-opacity: 0.5"/>
     <use xlink:href="#mc3e57c110a" x="54.015648" y="55.342728" style="fill: #1f77b4; fill-opacity: 0.5; stroke: #1f77b4; stroke-opacity: 0.5"/>
     <use xlink:href="#mc3e57c110a" x="114.381849" y="28.604294" style="fill: #1f77b4; fill-opacity: 0.5; stroke: #1f77b4; stroke-opacity: 0.5"/>
     <use xlink:href="#mc3e57c110a" x="136.810041" y="53.421957" style="fill: #1f77b4; fill-opacity: 0.5; stroke: #1f77b4; stroke-opacity: 0.5"/>
     <use xlink:href="#mc3e57c110a" x="139.704001" y="31.212206" style="fill: #1f77b4; fill-opacity: 0.5; stroke: #1f77b4; stroke-opacity: 0.5"/>
     <use xlink:href="#mc3e57c110a" x="140.020528" y="54.43732" style="fill: #1f77b4; fill-opacity: 0.5; stroke: #1f77b4; stroke-opacity: 0.5"/>
     <use xlink:href="#mc3e57c110a" x="55.733937" y="97.038741" style="fill: #1f77b4; fill-opacity: 0.5; stroke: #1f77b4; stroke-opacity: 0.5"/>
     <use xlink:href="#mc3e57c110a" x="48.544254" y="77.658273" style="fill: #1f77b4; fill-opacity: 0.5; stroke: #1f77b4; stroke-opacity: 0.5"/>
     <use xlink:href="#mc3e57c110a" x="50.940815" y="72.082646" style="fill: #1f77b4; fill-opacity: 0.5; stroke: #1f77b4; stroke-opacity: 0.5"/>
     <use xlink:href="#mc3e57c110a" x="57.859189" y="36.928789" style="fill: #1f77b4; fill-opacity: 0.5; stroke: #1f77b4; stroke-opacity: 0.5"/>
     <use xlink:href="#mc3e57c110a" x="140.065746" y="87.373124" style="fill: #1f77b4; fill-opacity: 0.5; stroke: #1f77b4; stroke-opacity: 0.5"/>
     <use xlink:href="#mc3e57c110a" x="139.25182" y="30.446337" style="fill: #1f77b4; fill-opacity: 0.5; stroke: #1f77b4; stroke-opacity: 0.5"/>
     <use xlink:href="#mc3e57c110a" x="54.015648" y="78.427297" style="fill: #1f77b4; fill-opacity: 0.5; stroke: #1f77b4; stroke-opacity: 0.5"/>
     <use xlink:href="#mc3e57c110a" x="57.859189" y="37.847551" style="fill: #1f77b4; fill-opacity: 0.5; stroke: #1f77b4; stroke-opacity: 0.5"/>
     <use xlink:href="#mc3e57c110a" x="119.853242" y="29.057266" style="fill: #1f77b4; fill-opacity: 0.5; stroke: #1f77b4; stroke-opacity: 0.5"/>
     <use xlink:href="#mc3e57c110a" x="48.227727" y="64.2916" style="fill: #1f77b4; fill-opacity: 0.5; stroke: #1f77b4; stroke-opacity: 0.5"/>
     <use xlink:href="#mc3e57c110a" x="60.527058" y="30.459645" style="fill: #1f77b4; fill-opacity: 0.5; stroke: #1f77b4; stroke-opacity: 0.5"/>
     <use xlink:href="#mc3e57c110a" x="52.297359" y="45.952058" style="fill: #1f77b4; fill-opacity: 0.5; stroke: #1f77b4; stroke-opacity: 0.5"/>
     <use xlink:href="#mc3e57c110a" x="50.398197" y="95.291285" style="fill: #1f77b4; fill-opacity: 0.5; stroke: #1f77b4; stroke-opacity: 0.5"/>
     <use xlink:href="#mc3e57c110a" x="87.477063" y="95.272072" style="fill: #1f77b4; fill-opacity: 0.5; stroke: #1f77b4; stroke-opacity: 0.5"/>
     <use xlink:href="#mc3e57c110a" x="130.117758" y="28.697349" style="fill: #1f77b4; fill-opacity: 0.5; stroke: #1f77b4; stroke-opacity: 0.5"/>
     <use xlink:href="#mc3e57c110a" x="49.719926" y="70.295623" style="fill: #1f77b4; fill-opacity: 0.5; stroke: #1f77b4; stroke-opacity: 0.5"/>
     <use xlink:href="#mc3e57c110a" x="140.065746" y="46.541593" style="fill: #1f77b4; fill-opacity: 0.5; stroke: #1f77b4; stroke-opacity: 0.5"/>
     <use xlink:href="#mc3e57c110a" x="57.045262" y="30.607868" style="fill: #1f77b4; fill-opacity: 0.5; stroke: #1f77b4; stroke-opacity: 0.5"/>
     <use xlink:href="#mc3e57c110a" x="138.121366" y="28.884818" style="fill: #1f77b4; fill-opacity: 0.5; stroke: #1f77b4; stroke-opacity: 0.5"/>
     <use xlink:href="#mc3e57c110a" x="54.467829" y="28.619516" style="fill: #1f77b4; fill-opacity: 0.5; stroke: #1f77b4; stroke-opacity: 0.5"/>
     <use xlink:href="#mc3e57c110a" x="135.408279" y="38.422463" style="fill: #1f77b4; fill-opacity: 0.5; stroke: #1f77b4; stroke-opacity: 0.5"/>
     <use xlink:href="#mc3e57c110a" x="62.742746" y="37.516644" style="fill: #1f77b4; fill-opacity: 0.5; stroke: #1f77b4; stroke-opacity: 0.5"/>
     <use xlink:href="#mc3e57c110a" x="56.954826" y="88.260994" style="fill: #1f77b4; fill-opacity: 0.5; stroke: #1f77b4; stroke-opacity: 0.5"/>
     <use xlink:href="#mc3e57c110a" x="58.763551" y="30.819422" style="fill: #1f77b4; fill-opacity: 0.5; stroke: #1f77b4; stroke-opacity: 0.5"/>
     <use xlink:href="#mc3e57c110a" x="140.065746" y="64.194963" style="fill: #1f77b4; fill-opacity: 0.5; stroke: #1f77b4; stroke-opacity: 0.5"/>
     <use xlink:href="#mc3e57c110a" x="111.307016" y="37.282542" style="fill: #1f77b4; fill-opacity: 0.5; stroke: #1f77b4; stroke-opacity: 0.5"/>
     <use xlink:href="#mc3e57c110a" x="113.38705" y="104.982377" style="fill: #1f77b4; fill-opacity: 0.5; stroke: #1f77b4; stroke-opacity: 0.5"/>
     <use xlink:href="#mc3e57c110a" x="140.246618" y="28.97902" style="fill: #1f77b4; fill-opacity: 0.5; stroke: #1f77b4; stroke-opacity: 0.5"/>
     <use xlink:href="#mc3e57c110a" x="112.573124" y="71.323915" style="fill: #1f77b4; fill-opacity: 0.5; stroke: #1f77b4; stroke-opacity: 0.5"/>
     <use xlink:href="#mc3e57c110a" x="139.523128" y="46.741082" style="fill: #1f77b4; fill-opacity: 0.5; stroke: #1f77b4; stroke-opacity: 0.5"/>
     <use xlink:href="#mc3e57c110a" x="113.974886" y="53.204309" style="fill: #1f77b4; fill-opacity: 0.5; stroke: #1f77b4; stroke-opacity: 0.5"/>
     <use xlink:href="#mc3e57c110a" x="71.424627" y="28.478552" style="fill: #1f77b4; fill-opacity: 0.5; stroke: #1f77b4; stroke-opacity: 0.5"/>
     <use xlink:href="#mc3e57c110a" x="71.424627" y="94.166157" style="fill: #1f77b4; fill-opacity: 0.5; stroke: #1f77b4; stroke-opacity: 0.5"/>
     <use xlink:href="#mc3e57c110a" x="140.110964" y="79.566613" style="fill: #1f77b4; fill-opacity: 0.5; stroke: #1f77b4; stroke-opacity: 0.5"/>
     <use xlink:href="#mc3e57c110a" x="139.930091" y="37.138052" style="fill: #1f77b4; fill-opacity: 0.5; stroke: #1f77b4; stroke-opacity: 0.5"/>
     <use xlink:href="#mc3e57c110a" x="140.2014" y="70.977512" style="fill: #1f77b4; fill-opacity: 0.5; stroke: #1f77b4; stroke-opacity: 0.5"/>
     <use xlink:href="#mc3e57c110a" x="139.749219" y="45.897315" style="fill: #1f77b4; fill-opacity: 0.5; stroke: #1f77b4; stroke-opacity: 0.5"/>
     <use xlink:href="#mc3e57c110a" x="49.584271" y="111.33127" style="fill: #1f77b4; fill-opacity: 0.5; stroke: #1f77b4; stroke-opacity: 0.5"/>
     <use xlink:href="#mc3e57c110a" x="83.18134" y="30.047393" style="fill: #1f77b4; fill-opacity: 0.5; stroke: #1f77b4; stroke-opacity: 0.5"/>
     <use xlink:href="#mc3e57c110a" x="67.807177" y="28.445308" style="fill: #1f77b4; fill-opacity: 0.5; stroke: #1f77b4; stroke-opacity: 0.5"/>
     <use xlink:href="#mc3e57c110a" x="80.196944" y="39.290841" style="fill: #1f77b4; fill-opacity: 0.5; stroke: #1f77b4; stroke-opacity: 0.5"/>
     <use xlink:href="#mc3e57c110a" x="66.857596" y="31.042873" style="fill: #1f77b4; fill-opacity: 0.5; stroke: #1f77b4; stroke-opacity: 0.5"/>
     <use xlink:href="#mc3e57c110a" x="71.243755" y="47.234758" style="fill: #1f77b4; fill-opacity: 0.5; stroke: #1f77b4; stroke-opacity: 0.5"/>
     <use xlink:href="#mc3e57c110a" x="68.982848" y="29.911619" style="fill: #1f77b4; fill-opacity: 0.5; stroke: #1f77b4; stroke-opacity: 0.5"/>
     <use xlink:href="#mc3e57c110a" x="56.683517" y="29.984381" style="fill: #1f77b4; fill-opacity: 0.5; stroke: #1f77b4; stroke-opacity: 0.5"/>
     <use xlink:href="#mc3e57c110a" x="52.885194" y="62.125102" style="fill: #1f77b4; fill-opacity: 0.5; stroke: #1f77b4; stroke-opacity: 0.5"/>
     <use xlink:href="#mc3e57c110a" x="68.847194" y="39.369458" style="fill: #1f77b4; fill-opacity: 0.5; stroke: #1f77b4; stroke-opacity: 0.5"/>
     <use xlink:href="#mc3e57c110a" x="66.902814" y="28.548708" style="fill: #1f77b4; fill-opacity: 0.5; stroke: #1f77b4; stroke-opacity: 0.5"/>
     <use xlink:href="#mc3e57c110a" x="71.334191" y="62.227697" style="fill: #1f77b4; fill-opacity: 0.5; stroke: #1f77b4; stroke-opacity: 0.5"/>
     <use xlink:href="#mc3e57c110a" x="74.770769" y="45.41093" style="fill: #1f77b4; fill-opacity: 0.5; stroke: #1f77b4; stroke-opacity: 0.5"/>
     <use xlink:href="#mc3e57c110a" x="79.609108" y="30.613426" style="fill: #1f77b4; fill-opacity: 0.5; stroke: #1f77b4; stroke-opacity: 0.5"/>
     <use xlink:href="#mc3e57c110a" x="56.683517" y="30.73876" style="fill: #1f77b4; fill-opacity: 0.5; stroke: #1f77b4; stroke-opacity: 0.5"/>
     <use xlink:href="#mc3e57c110a" x="80.196944" y="37.38535" style="fill: #1f77b4; fill-opacity: 0.5; stroke: #1f77b4; stroke-opacity: 0.5"/>
     <use xlink:href="#mc3e57c110a" x="131.248211" y="37.87884" style="fill: #1f77b4; fill-opacity: 0.5; stroke: #1f77b4; stroke-opacity: 0.5"/>
     <use xlink:href="#mc3e57c110a" x="130.976902" y="38.19375" style="fill: #1f77b4; fill-opacity: 0.5; stroke: #1f77b4; stroke-opacity: 0.5"/>
     <use xlink:href="#mc3e57c110a" x="130.524721" y="55.442207" style="fill: #1f77b4; fill-opacity: 0.5; stroke: #1f77b4; stroke-opacity: 0.5"/>
    </g>
   </g>
   <g id="FillBetweenPolyCollection_1">
    <defs>
     <path id="m8835611762" d="M 48.227727 -109.359589 
L 48.227727 -100.370383 
L 49.158581 -100.579018 
L 50.089435 -100.805588 
L 51.020289 -100.970454 
L 51.951143 -101.21206 
L 52.881997 -101.453667 
L 53.812851 -101.665894 
L 54.743705 -101.86349 
L 55.674559 -102.0926 
L 56.605413 -102.317552 
L 57.536267 -102.514725 
L 58.467121 -102.71669 
L 59.397975 -102.909017 
L 60.328829 -103.11317 
L 61.259683 -103.327535 
L 62.190537 -103.544808 
L 63.121391 -103.803007 
L 64.052245 -104.011728 
L 64.983099 -104.169831 
L 65.913953 -104.342166 
L 66.844807 -104.479178 
L 67.775661 -104.671163 
L 68.706515 -104.904411 
L 69.637369 -105.137658 
L 70.568223 -105.320978 
L 71.499077 -105.440059 
L 72.429931 -105.631677 
L 73.360785 -105.758317 
L 74.291639 -105.875581 
L 75.222493 -105.973576 
L 76.153347 -106.149446 
L 77.084201 -106.329598 
L 78.015055 -106.515767 
L 78.945909 -106.702113 
L 79.876763 -106.88846 
L 80.807617 -107.041737 
L 81.738471 -107.170504 
L 82.669325 -107.321788 
L 83.600179 -107.440572 
L 84.531033 -107.601836 
L 85.461887 -107.791546 
L 86.392741 -107.939817 
L 87.323595 -108.093926 
L 88.254449 -108.196051 
L 89.185303 -108.298176 
L 90.116157 -108.4003 
L 91.047011 -108.518088 
L 91.977865 -108.653042 
L 92.908719 -108.752392 
L 93.839573 -108.8812 
L 94.770427 -109.035595 
L 95.701281 -109.075551 
L 96.632135 -109.266652 
L 97.562989 -109.408568 
L 98.493843 -109.522201 
L 99.424697 -109.630544 
L 100.355551 -109.759543 
L 101.286405 -109.878082 
L 102.217259 -110.014063 
L 103.148113 -110.172494 
L 104.078967 -110.288949 
L 105.009821 -110.411065 
L 105.940675 -110.531333 
L 106.871529 -110.651867 
L 107.802383 -110.721863 
L 108.733237 -110.822477 
L 109.664091 -110.917227 
L 110.594945 -110.994704 
L 111.525799 -111.135615 
L 112.456653 -111.240191 
L 113.387507 -111.332677 
L 114.318361 -111.445692 
L 115.249215 -111.552248 
L 116.180069 -111.622579 
L 117.110923 -111.754653 
L 118.041777 -111.866126 
L 118.972631 -111.970752 
L 119.903485 -112.071752 
L 120.834339 -112.179683 
L 121.765193 -112.283877 
L 122.696047 -112.364925 
L 123.626901 -112.430758 
L 124.557755 -112.472248 
L 125.488609 -112.513739 
L 126.419463 -112.582181 
L 127.350317 -112.677185 
L 128.281171 -112.77219 
L 129.212025 -112.868538 
L 130.142879 -112.965314 
L 131.073733 -113.062188 
L 132.004587 -113.145276 
L 132.935441 -113.221422 
L 133.866295 -113.297419 
L 134.797149 -113.374698 
L 135.728003 -113.46751 
L 136.658857 -113.532182 
L 137.589711 -113.633207 
L 138.520565 -113.734845 
L 139.451419 -113.837049 
L 140.382273 -113.939296 
L 140.382273 -126.525025 
L 140.382273 -126.525025 
L 139.451419 -126.290647 
L 138.520565 -126.043651 
L 137.589711 -125.794917 
L 136.658857 -125.544668 
L 135.728003 -125.294419 
L 134.797149 -125.055898 
L 133.866295 -124.82899 
L 132.935441 -124.609041 
L 132.004587 -124.396806 
L 131.073733 -124.158465 
L 130.142879 -123.933445 
L 129.212025 -123.724401 
L 128.281171 -123.515358 
L 127.350317 -123.306314 
L 126.419463 -123.125699 
L 125.488609 -122.9173 
L 124.557755 -122.705596 
L 123.626901 -122.493893 
L 122.696047 -122.282189 
L 121.765193 -122.060765 
L 120.834339 -121.843009 
L 119.903485 -121.634728 
L 118.972631 -121.415802 
L 118.041777 -121.19321 
L 117.110923 -121.006835 
L 116.180069 -120.822931 
L 115.249215 -120.648996 
L 114.318361 -120.454712 
L 113.387507 -120.232657 
L 112.456653 -120.057183 
L 111.525799 -119.880441 
L 110.594945 -119.628922 
L 109.664091 -119.456084 
L 108.733237 -119.294176 
L 107.802383 -119.112012 
L 106.871529 -118.939163 
L 105.940675 -118.743257 
L 105.009821 -118.510422 
L 104.078967 -118.32162 
L 103.148113 -118.133876 
L 102.217259 -117.953396 
L 101.286405 -117.730784 
L 100.355551 -117.54353 
L 99.424697 -117.360603 
L 98.493843 -117.180915 
L 97.562989 -117.038813 
L 96.632135 -116.877365 
L 95.701281 -116.670813 
L 94.770427 -116.524095 
L 93.839573 -116.339203 
L 92.908719 -116.160533 
L 91.977865 -115.978085 
L 91.047011 -115.763626 
L 90.116157 -115.586942 
L 89.185303 -115.430894 
L 88.254449 -115.262895 
L 87.323595 -115.087035 
L 86.392741 -114.923249 
L 85.461887 -114.758893 
L 84.531033 -114.60219 
L 83.600179 -114.433409 
L 82.669325 -114.268104 
L 81.738471 -114.141827 
L 80.807617 -113.999934 
L 79.876763 -113.842235 
L 78.945909 -113.684355 
L 78.015055 -113.526474 
L 77.084201 -113.393259 
L 76.153347 -113.258324 
L 75.222493 -113.089786 
L 74.291639 -112.944553 
L 73.360785 -112.809934 
L 72.429931 -112.643078 
L 71.499077 -112.483677 
L 70.568223 -112.359866 
L 69.637369 -112.240042 
L 68.706515 -112.137872 
L 67.775661 -111.970682 
L 66.844807 -111.801205 
L 65.913953 -111.669076 
L 64.983099 -111.570201 
L 64.052245 -111.42421 
L 63.121391 -111.280098 
L 62.190537 -111.141498 
L 61.259683 -111.019077 
L 60.328829 -110.90027 
L 59.397975 -110.773459 
L 58.467121 -110.653854 
L 57.536267 -110.579259 
L 56.605413 -110.42691 
L 55.674559 -110.266437 
L 54.743705 -110.138314 
L 53.812851 -110.011079 
L 52.881997 -109.931747 
L 51.951143 -109.791748 
L 51.020289 -109.664097 
L 50.089435 -109.533284 
L 49.158581 -109.460411 
L 48.227727 -109.359589 
z
" style="stroke: #ffffff; stroke-opacity: 0.15; stroke-width: 0.8"/>
    </defs>
    <g clip-path="url(#pd13b7f1c61)">
     <use xlink:href="#m8835611762" x="0" y="162" style="fill: #1f77b4; fill-opacity: 0.15; stroke: #ffffff; stroke-opacity: 0.15; stroke-width: 0.8"/>
    </g>
   </g>
   <g id="line2d_16">
    <path d="M 48.227727 57.061568 
L 49.158581 56.905198 
L 50.089435 56.748828 
L 51.020289 56.592458 
L 51.951143 56.436088 
L 52.881997 56.279719 
L 53.812851 56.123349 
L 54.743705 55.966979 
L 55.674559 55.810609 
L 56.605413 55.654239 
L 57.536267 55.497869 
L 58.467121 55.3415 
L 59.397975 55.18513 
L 60.328829 55.02876 
L 61.259683 54.87239 
L 62.190537 54.71602 
L 63.121391 54.55965 
L 64.052245 54.403281 
L 64.983099 54.246911 
L 65.913953 54.090541 
L 66.844807 53.934171 
L 67.775661 53.777801 
L 68.706515 53.621431 
L 69.637369 53.465062 
L 70.568223 53.308692 
L 71.499077 53.152322 
L 72.429931 52.995952 
L 73.360785 52.839582 
L 74.291639 52.683212 
L 75.222493 52.526843 
L 76.153347 52.370473 
L 77.084201 52.214103 
L 78.015055 52.057733 
L 78.945909 51.901363 
L 79.876763 51.744993 
L 80.807617 51.588624 
L 81.738471 51.432254 
L 82.669325 51.275884 
L 83.600179 51.119514 
L 84.531033 50.963144 
L 85.461887 50.806774 
L 86.392741 50.650405 
L 87.323595 50.494035 
L 88.254449 50.337665 
L 89.185303 50.181295 
L 90.116157 50.024925 
L 91.047011 49.868555 
L 91.977865 49.712186 
L 92.908719 49.555816 
L 93.839573 49.399446 
L 94.770427 49.243076 
L 95.701281 49.086706 
L 96.632135 48.930336 
L 97.562989 48.773967 
L 98.493843 48.617597 
L 99.424697 48.461227 
L 100.355551 48.304857 
L 101.286405 48.148487 
L 102.217259 47.992118 
L 103.148113 47.835748 
L 104.078967 47.679378 
L 105.009821 47.523008 
L 105.940675 47.366638 
L 106.871529 47.210268 
L 107.802383 47.053899 
L 108.733237 46.897529 
L 109.664091 46.741159 
L 110.594945 46.584789 
L 111.525799 46.428419 
L 112.456653 46.272049 
L 113.387507 46.11568 
L 114.318361 45.95931 
L 115.249215 45.80294 
L 116.180069 45.64657 
L 117.110923 45.4902 
L 118.041777 45.33383 
L 118.972631 45.177461 
L 119.903485 45.021091 
L 120.834339 44.864721 
L 121.765193 44.708351 
L 122.696047 44.551981 
L 123.626901 44.395611 
L 124.557755 44.239242 
L 125.488609 44.082872 
L 126.419463 43.926502 
L 127.350317 43.770132 
L 128.281171 43.613762 
L 129.212025 43.457392 
L 130.142879 43.301023 
L 131.073733 43.144653 
L 132.004587 42.988283 
L 132.935441 42.831913 
L 133.866295 42.675543 
L 134.797149 42.519173 
L 135.728003 42.362804 
L 136.658857 42.206434 
L 137.589711 42.050064 
L 138.520565 41.893694 
L 139.451419 41.737324 
L 140.382273 41.580954 
" clip-path="url(#pd13b7f1c61)" style="fill: none; stroke: #1f77b4; stroke-width: 1.8; stroke-linecap: round"/>
   </g>
   <g id="patch_3">
    <path d="M 43.62 120.18 
L 43.62 24.21375 
" style="fill: none; stroke: #cccccc; stroke-linejoin: miter; stroke-linecap: square"/>
   </g>
   <g id="patch_4">
    <path d="M 144.99 120.18 
L 144.99 24.21375 
" style="fill: none; stroke: #cccccc; stroke-linejoin: miter; stroke-linecap: square"/>
   </g>
   <g id="patch_5">
    <path d="M 43.62 120.18 
L 144.99 120.18 
" style="fill: none; stroke: #cccccc; stroke-linejoin: miter; stroke-linecap: square"/>
   </g>
   <g id="patch_6">
    <path d="M 43.62 24.21375 
L 144.99 24.21375 
" style="fill: none; stroke: #cccccc; stroke-linejoin: miter; stroke-linecap: square"/>
   </g>
   <g id="text_18">
    <!-- rho = 0.38 -->
    <g style="fill: #262626" transform="translate(104.442 36.1855) scale(0.1 -0.1)">
     <defs>
      <path id="Helvetica-72" d="M 428 3347 
L 963 3347 
L 963 2769 
Q 1028 2938 1284 3180 
Q 1541 3422 1875 3422 
Q 1891 3422 1928 3419 
Q 1966 3416 2056 3406 
L 2056 2813 
Q 2006 2822 1964 2825 
Q 1922 2828 1872 2828 
Q 1447 2828 1219 2554 
Q 991 2281 991 1925 
L 991 0 
L 428 0 
L 428 3347 
z
" transform="scale(0.015625)"/>
      <path id="Helvetica-3d" d="M 3547 2569 
L 3547 2044 
L 288 2044 
L 288 2569 
L 3547 2569 
z
M 3547 1228 
L 3547 694 
L 288 694 
L 288 1228 
L 3547 1228 
z
" transform="scale(0.015625)"/>
      <path id="Helvetica-2e" d="M 547 681 
L 1200 681 
L 1200 0 
L 547 0 
L 547 681 
z
" transform="scale(0.015625)"/>
     </defs>
     <use xlink:href="#Helvetica-72"/>
     <use xlink:href="#Helvetica-68" transform="translate(33.300781 0)"/>
     <use xlink:href="#Helvetica-6f" transform="translate(88.916016 0)"/>
     <use xlink:href="#Helvetica-20" transform="translate(144.53125 0)"/>
     <use xlink:href="#Helvetica-3d" transform="translate(172.314453 0)"/>
     <use xlink:href="#Helvetica-20" transform="translate(230.712891 0)"/>
     <use xlink:href="#Helvetica-30" transform="translate(258.496094 0)"/>
     <use xlink:href="#Helvetica-2e" transform="translate(314.111328 0)"/>
     <use xlink:href="#Helvetica-33" transform="translate(341.894531 0)"/>
     <use xlink:href="#Helvetica-38" transform="translate(397.509766 0)"/>
    </g>
    <!-- p = 1.90e-05 -->
    <g style="fill: #262626" transform="translate(104.442 46.878) scale(0.1 -0.1)">
     <defs>
      <path id="Helvetica-2d" d="M 266 2072 
L 1834 2072 
L 1834 1494 
L 266 1494 
L 266 2072 
z
" transform="scale(0.015625)"/>
     </defs>
     <use xlink:href="#Helvetica-70"/>
     <use xlink:href="#Helvetica-20" transform="translate(55.615234 0)"/>
     <use xlink:href="#Helvetica-3d" transform="translate(83.398438 0)"/>
     <use xlink:href="#Helvetica-20" transform="translate(141.796875 0)"/>
     <use xlink:href="#Helvetica-31" transform="translate(169.580078 0)"/>
     <use xlink:href="#Helvetica-2e" transform="translate(225.195312 0)"/>
     <use xlink:href="#Helvetica-39" transform="translate(252.978516 0)"/>
     <use xlink:href="#Helvetica-30" transform="translate(308.59375 0)"/>
     <use xlink:href="#Helvetica-65" transform="translate(364.208984 0)"/>
     <use xlink:href="#Helvetica-2d" transform="translate(419.824219 0)"/>
     <use xlink:href="#Helvetica-30" transform="translate(453.125 0)"/>
     <use xlink:href="#Helvetica-35" transform="translate(508.740234 0)"/>
    </g>
   </g>
   <g id="text_19">
    <!-- AF2 (no templates) GNN-DOVE vs agonist msa depth -->
    <g style="fill: #262626" transform="translate(-25.178594 18.21375) scale(0.1 -0.1)">
     <defs>
      <path id="Helvetica-41" d="M 2844 1881 
L 2147 3909 
L 1406 1881 
L 2844 1881 
z
M 1822 4591 
L 2525 4591 
L 4191 0 
L 3509 0 
L 3044 1375 
L 1228 1375 
L 731 0 
L 94 0 
L 1822 4591 
z
" transform="scale(0.015625)"/>
      <path id="Helvetica-46" d="M 547 4591 
L 3731 4591 
L 3731 4028 
L 1169 4028 
L 1169 2634 
L 3422 2634 
L 3422 2088 
L 1169 2088 
L 1169 0 
L 547 0 
L 547 4591 
z
" transform="scale(0.015625)"/>
      <path id="Helvetica-28" d="M 1894 4666 
Q 1403 3713 1256 3263 
Q 1034 2578 1034 1681 
Q 1034 775 1288 25 
Q 1444 -438 1903 -1306 
L 1525 -1306 
Q 1069 -594 959 -397 
Q 850 -200 722 138 
Q 547 600 478 1125 
Q 444 1397 444 1644 
Q 444 2569 734 3291 
Q 919 3750 1503 4666 
L 1894 4666 
z
" transform="scale(0.015625)"/>
      <path id="Helvetica-6c" d="M 428 4591 
L 991 4591 
L 991 0 
L 428 0 
L 428 4591 
z
" transform="scale(0.015625)"/>
      <path id="Helvetica-29" d="M 222 -1306 
Q 719 -338 863 106 
Q 1081 778 1081 1681 
Q 1081 2584 828 3334 
Q 672 3797 213 4666 
L 591 4666 
Q 1072 3897 1173 3717 
Q 1275 3538 1394 3222 
Q 1544 2831 1608 2450 
Q 1672 2069 1672 1716 
Q 1672 791 1378 66 
Q 1194 -400 613 -1306 
L 222 -1306 
z
" transform="scale(0.015625)"/>
      <path id="Helvetica-47" d="M 2472 4709 
Q 3119 4709 3591 4459 
Q 4275 4100 4428 3200 
L 3813 3200 
Q 3700 3703 3347 3933 
Q 2994 4163 2456 4163 
Q 1819 4163 1383 3684 
Q 947 3206 947 2259 
Q 947 1441 1306 927 
Q 1666 413 2478 413 
Q 3100 413 3508 773 
Q 3916 1134 3925 1941 
L 2488 1941 
L 2488 2456 
L 4503 2456 
L 4503 0 
L 4103 0 
L 3953 591 
Q 3638 244 3394 109 
Q 2984 -122 2353 -122 
Q 1538 -122 950 406 
Q 309 1069 309 2225 
Q 309 3378 934 4059 
Q 1528 4709 2472 4709 
z
M 2369 4716 
L 2369 4716 
z
" transform="scale(0.015625)"/>
      <path id="Helvetica-4e" d="M 488 4591 
L 1222 4591 
L 3541 872 
L 3541 4591 
L 4131 4591 
L 4131 0 
L 3434 0 
L 1081 3716 
L 1081 0 
L 488 0 
L 488 4591 
z
M 2269 4591 
L 2269 4591 
z
" transform="scale(0.015625)"/>
      <path id="Helvetica-44" d="M 2250 531 
Q 2566 531 2769 597 
Q 3131 719 3363 1066 
Q 3547 1344 3628 1778 
Q 3675 2038 3675 2259 
Q 3675 3113 3336 3584 
Q 2997 4056 2244 4056 
L 1141 4056 
L 1141 531 
L 2250 531 
z
M 516 4591 
L 2375 4591 
Q 3322 4591 3844 3919 
Q 4309 3313 4309 2366 
Q 4309 1634 4034 1044 
Q 3550 0 2369 0 
L 516 0 
L 516 4591 
z
" transform="scale(0.015625)"/>
      <path id="Helvetica-4f" d="M 2469 4716 
Q 3684 4716 4269 3934 
Q 4725 3325 4725 2375 
Q 4725 1347 4203 666 
Q 3591 -134 2456 -134 
Q 1397 -134 791 566 
Q 250 1241 250 2272 
Q 250 3203 713 3866 
Q 1306 4716 2469 4716 
z
M 2531 422 
Q 3353 422 3720 1011 
Q 4088 1600 4088 2366 
Q 4088 3175 3664 3669 
Q 3241 4163 2506 4163 
Q 1794 4163 1344 3673 
Q 894 3184 894 2231 
Q 894 1469 1280 945 
Q 1666 422 2531 422 
z
M 2488 4716 
L 2488 4716 
z
" transform="scale(0.015625)"/>
      <path id="Helvetica-56" d="M 850 4591 
L 2169 681 
L 3472 4591 
L 4169 4591 
L 2494 0 
L 1834 0 
L 163 4591 
L 850 4591 
z
" transform="scale(0.015625)"/>
      <path id="Helvetica-45" d="M 547 4591 
L 3894 4591 
L 3894 4028 
L 1153 4028 
L 1153 2634 
L 3688 2634 
L 3688 2103 
L 1153 2103 
L 1153 547 
L 3941 547 
L 3941 0 
L 547 0 
L 547 4591 
z
M 2244 4591 
L 2244 4591 
z
" transform="scale(0.015625)"/>
      <path id="Helvetica-76" d="M 688 3347 
L 1581 622 
L 2516 3347 
L 3131 3347 
L 1869 0 
L 1269 0 
L 34 3347 
L 688 3347 
z
" transform="scale(0.015625)"/>
     </defs>
     <use xlink:href="#Helvetica-41"/>
     <use xlink:href="#Helvetica-46" transform="translate(66.699219 0)"/>
     <use xlink:href="#Helvetica-32" transform="translate(127.783203 0)"/>
     <use xlink:href="#Helvetica-20" transform="translate(183.398438 0)"/>
     <use xlink:href="#Helvetica-28" transform="translate(211.181641 0)"/>
     <use xlink:href="#Helvetica-6e" transform="translate(244.482422 0)"/>
     <use xlink:href="#Helvetica-6f" transform="translate(300.097656 0)"/>
     <use xlink:href="#Helvetica-20" transform="translate(355.712891 0)"/>
     <use xlink:href="#Helvetica-74" transform="translate(383.496094 0)"/>
     <use xlink:href="#Helvetica-65" transform="translate(411.279297 0)"/>
     <use xlink:href="#Helvetica-6d" transform="translate(466.894531 0)"/>
     <use xlink:href="#Helvetica-70" transform="translate(550.195312 0)"/>
     <use xlink:href="#Helvetica-6c" transform="translate(605.810547 0)"/>
     <use xlink:href="#Helvetica-61" transform="translate(628.027344 0)"/>
     <use xlink:href="#Helvetica-74" transform="translate(683.642578 0)"/>
     <use xlink:href="#Helvetica-65" transform="translate(711.425781 0)"/>
     <use xlink:href="#Helvetica-73" transform="translate(767.041016 0)"/>
     <use xlink:href="#Helvetica-29" transform="translate(817.041016 0)"/>
     <use xlink:href="#Helvetica-20" transform="translate(850.341797 0)"/>
     <use xlink:href="#Helvetica-47" transform="translate(878.125 0)"/>
     <use xlink:href="#Helvetica-4e" transform="translate(955.908203 0)"/>
     <use xlink:href="#Helvetica-4e" transform="translate(1028.125 0)"/>
     <use xlink:href="#Helvetica-2d" transform="translate(1100.341797 0)"/>
     <use xlink:href="#Helvetica-44" transform="translate(1133.642578 0)"/>
     <use xlink:href="#Helvetica-4f" transform="translate(1205.859375 0)"/>
     <use xlink:href="#Helvetica-56" transform="translate(1283.642578 0)"/>
     <use xlink:href="#Helvetica-45" transform="translate(1350.341797 0)"/>
     <use xlink:href="#Helvetica-20" transform="translate(1417.041016 0)"/>
     <use xlink:href="#Helvetica-76" transform="translate(1444.824219 0)"/>
     <use xlink:href="#Helvetica-73" transform="translate(1494.824219 0)"/>
     <use xlink:href="#Helvetica-20" transform="translate(1544.824219 0)"/>
     <use xlink:href="#Helvetica-61" transform="translate(1572.607422 0)"/>
     <use xlink:href="#Helvetica-67" transform="translate(1628.222656 0)"/>
     <use xlink:href="#Helvetica-6f" transform="translate(1683.837891 0)"/>
     <use xlink:href="#Helvetica-6e" transform="translate(1739.453125 0)"/>
     <use xlink:href="#Helvetica-69" transform="translate(1795.068359 0)"/>
     <use xlink:href="#Helvetica-73" transform="translate(1817.285156 0)"/>
     <use xlink:href="#Helvetica-74" transform="translate(1867.285156 0)"/>
     <use xlink:href="#Helvetica-20" transform="translate(1895.068359 0)"/>
     <use xlink:href="#Helvetica-6d" transform="translate(1922.851562 0)"/>
     <use xlink:href="#Helvetica-73" transform="translate(2006.152344 0)"/>
     <use xlink:href="#Helvetica-61" transform="translate(2056.152344 0)"/>
     <use xlink:href="#Helvetica-20" transform="translate(2111.767578 0)"/>
     <use xlink:href="#Helvetica-64" transform="translate(2139.550781 0)"/>
     <use xlink:href="#Helvetica-65" transform="translate(2195.166016 0)"/>
     <use xlink:href="#Helvetica-70" transform="translate(2250.78125 0)"/>
     <use xlink:href="#Helvetica-74" transform="translate(2306.396484 0)"/>
     <use xlink:href="#Helvetica-68" transform="translate(2334.179688 0)"/>
    </g>
   </g>
  </g>
 </g>
 <defs>
  <clipPath id="pd13b7f1c61">
   <rect x="43.62" y="24.21375" width="101.37" height="95.96625"/>
  </clipPath>
 </defs>
</svg>
