<?xml version="1.0" encoding="utf-8" standalone="no"?>
<!DOCTYPE svg PUBLIC "-//W3C//DTD SVG 1.1//EN"
  "http://www.w3.org/Graphics/SVG/1.1/DTD/svg11.dtd">
<svg xmlns:xlink="http://www.w3.org/1999/xlink" width="180pt" height="180pt" viewBox="0 0 180 180" xmlns="http://www.w3.org/2000/svg" version="1.1">
 <metadata>
  <rdf:RDF xmlns:dc="http://purl.org/dc/elements/1.1/" xmlns:cc="http://creativecommons.org/ns#" xmlns:rdf="http://www.w3.org/1999/02/22-rdf-syntax-ns#">
   <cc:Work>
    <dc:type rdf:resource="http://purl.org/dc/dcmitype/StillImage"/>
    <dc:date>2025-03-06T21:33:08.835762</dc:date>
    <dc:format>image/svg+xml</dc:format>
    <dc:creator>
     <cc:Agent>
      <dc:title>Matplotlib v3.10.0, https://matplotlib.org/</dc:title>
     </cc:Agent>
    </dc:creator>
   </cc:Work>
  </rdf:RDF>
 </metadata>
 <defs>
  <style type="text/css">*{stroke-linejoin: round; stroke-linecap: butt}</style>
 </defs>
 <g id="figure_1">
  <g id="patch_1">
   <path d="M 0 180 
L 180 180 
L 180 0 
L 0 0 
z
" style="fill: #ffffff"/>
  </g>
  <g id="axes_1">
   <g id="patch_2">
    <path d="M 43.62 138.18 
L 168.57 138.18 
L 168.57 24.21375 
L 43.62 24.21375 
z
" style="fill: #ffffff"/>
   </g>
   <g id="matplotlib.axis_1">
    <g id="xtick_1">
     <g id="line2d_1">
      <path d="M 94.735909 138.18 
L 94.735909 24.21375 
" clip-path="url(#p51f69987b5)" style="fill: none; stroke: #cccccc; stroke-width: 0.8; stroke-linecap: round"/>
     </g>
     <g id="text_1">
      <!-- 5 -->
      <g style="fill: #262626" transform="translate(91.95544 153.653437) scale(0.1 -0.1)">
       <defs>
        <path id="Helvetica-35" d="M 791 1141 
Q 847 659 1238 475 
Q 1438 381 1700 381 
Q 2200 381 2440 700 
Q 2681 1019 2681 1406 
Q 2681 1875 2395 2131 
Q 2109 2388 1709 2388 
Q 1419 2388 1211 2275 
Q 1003 2163 856 1963 
L 369 1991 
L 709 4400 
L 3034 4400 
L 3034 3856 
L 1131 3856 
L 941 2613 
Q 1097 2731 1238 2791 
Q 1488 2894 1816 2894 
Q 2431 2894 2859 2497 
Q 3288 2100 3288 1491 
Q 3288 856 2895 371 
Q 2503 -113 1644 -113 
Q 1097 -113 676 195 
Q 256 503 206 1141 
L 791 1141 
z
" transform="scale(0.015625)"/>
       </defs>
       <use xlink:href="#Helvetica-35"/>
      </g>
     </g>
    </g>
    <g id="xtick_2">
     <g id="line2d_2">
      <path d="M 151.531364 138.18 
L 151.531364 24.21375 
" clip-path="url(#p51f69987b5)" style="fill: none; stroke: #cccccc; stroke-width: 0.8; stroke-linecap: round"/>
     </g>
     <g id="text_2">
      <!-- 10 -->
      <g style="fill: #262626" transform="translate(145.970426 153.653437) scale(0.1 -0.1)">
       <defs>
        <path id="Helvetica-31" d="M 613 3169 
L 613 3600 
Q 1222 3659 1462 3798 
Q 1703 3938 1822 4456 
L 2266 4456 
L 2266 0 
L 1666 0 
L 1666 3169 
L 613 3169 
z
" transform="scale(0.015625)"/>
        <path id="Helvetica-30" d="M 1731 4475 
Q 2600 4475 2988 3759 
Q 3288 3206 3288 2244 
Q 3288 1331 3016 734 
Q 2622 -122 1728 -122 
Q 922 -122 528 578 
Q 200 1163 200 2147 
Q 200 2909 397 3456 
Q 766 4475 1731 4475 
z
M 1725 391 
Q 2163 391 2422 778 
Q 2681 1166 2681 2222 
Q 2681 2984 2493 3476 
Q 2306 3969 1766 3969 
Q 1269 3969 1039 3501 
Q 809 3034 809 2125 
Q 809 1441 956 1025 
Q 1181 391 1725 391 
z
" transform="scale(0.015625)"/>
       </defs>
       <use xlink:href="#Helvetica-31"/>
       <use xlink:href="#Helvetica-30" transform="translate(55.615234 0)"/>
      </g>
     </g>
    </g>
    <g id="text_3">
     <!-- gpcr selectivity -->
     <g style="fill: #262626" transform="translate(73.308281 166.91125) scale(0.1 -0.1)">
      <defs>
       <path id="Helvetica-67" d="M 1594 3406 
Q 1988 3406 2281 3213 
Q 2441 3103 2606 2894 
L 2606 3316 
L 3125 3316 
L 3125 272 
Q 3125 -366 2938 -734 
Q 2588 -1416 1616 -1416 
Q 1075 -1416 706 -1173 
Q 338 -931 294 -416 
L 866 -416 
Q 906 -641 1028 -763 
Q 1219 -950 1628 -950 
Q 2275 -950 2475 -494 
Q 2594 -225 2584 466 
Q 2416 209 2178 84 
Q 1941 -41 1550 -41 
Q 1006 -41 598 345 
Q 191 731 191 1622 
Q 191 2463 602 2934 
Q 1013 3406 1594 3406 
z
M 2606 1688 
Q 2606 2309 2350 2609 
Q 2094 2909 1697 2909 
Q 1103 2909 884 2353 
Q 769 2056 769 1575 
Q 769 1009 998 714 
Q 1228 419 1616 419 
Q 2222 419 2469 966 
Q 2606 1275 2606 1688 
z
M 1659 3428 
L 1659 3428 
z
" transform="scale(0.015625)"/>
       <path id="Helvetica-70" d="M 1825 378 
Q 2219 378 2480 708 
Q 2741 1038 2741 1694 
Q 2741 2094 2625 2381 
Q 2406 2934 1825 2934 
Q 1241 2934 1025 2350 
Q 909 2038 909 1556 
Q 909 1169 1025 897 
Q 1244 378 1825 378 
z
M 369 3331 
L 916 3331 
L 916 2888 
Q 1084 3116 1284 3241 
Q 1569 3428 1953 3428 
Q 2522 3428 2919 2992 
Q 3316 2556 3316 1747 
Q 3316 653 2744 184 
Q 2381 -113 1900 -113 
Q 1522 -113 1266 53 
Q 1116 147 931 375 
L 931 -1334 
L 369 -1334 
L 369 3331 
z
" transform="scale(0.015625)"/>
       <path id="Helvetica-63" d="M 1703 3444 
Q 2269 3444 2623 3169 
Q 2978 2894 3050 2222 
L 2503 2222 
Q 2453 2531 2275 2736 
Q 2097 2941 1703 2941 
Q 1166 2941 934 2416 
Q 784 2075 784 1575 
Q 784 1072 996 728 
Q 1209 384 1666 384 
Q 2016 384 2220 598 
Q 2425 813 2503 1184 
L 3050 1184 
Q 2956 519 2581 211 
Q 2206 -97 1622 -97 
Q 966 -97 575 383 
Q 184 863 184 1581 
Q 184 2463 612 2953 
Q 1041 3444 1703 3444 
z
M 1616 3428 
L 1616 3428 
z
" transform="scale(0.015625)"/>
       <path id="Helvetica-72" d="M 428 3347 
L 963 3347 
L 963 2769 
Q 1028 2938 1284 3180 
Q 1541 3422 1875 3422 
Q 1891 3422 1928 3419 
Q 1966 3416 2056 3406 
L 2056 2813 
Q 2006 2822 1964 2825 
Q 1922 2828 1872 2828 
Q 1447 2828 1219 2554 
Q 991 2281 991 1925 
L 991 0 
L 428 0 
L 428 3347 
z
" transform="scale(0.015625)"/>
       <path id="Helvetica-20" transform="scale(0.015625)"/>
       <path id="Helvetica-73" d="M 747 1050 
Q 772 769 888 619 
Q 1100 347 1625 347 
Q 1938 347 2175 483 
Q 2413 619 2413 903 
Q 2413 1119 2222 1231 
Q 2100 1300 1741 1391 
L 1294 1503 
Q 866 1609 663 1741 
Q 300 1969 300 2372 
Q 300 2847 642 3140 
Q 984 3434 1563 3434 
Q 2319 3434 2653 2991 
Q 2863 2709 2856 2384 
L 2325 2384 
Q 2309 2575 2191 2731 
Q 1997 2953 1519 2953 
Q 1200 2953 1036 2831 
Q 872 2709 872 2509 
Q 872 2291 1088 2159 
Q 1213 2081 1456 2022 
L 1828 1931 
Q 2434 1784 2641 1647 
Q 2969 1431 2969 969 
Q 2969 522 2630 197 
Q 2291 -128 1597 -128 
Q 850 -128 539 211 
Q 228 550 206 1050 
L 747 1050 
z
M 1578 3428 
L 1578 3428 
z
" transform="scale(0.015625)"/>
       <path id="Helvetica-65" d="M 1806 3422 
Q 2163 3422 2497 3255 
Q 2831 3088 3006 2822 
Q 3175 2569 3231 2231 
Q 3281 2000 3281 1494 
L 828 1494 
Q 844 984 1069 676 
Q 1294 369 1766 369 
Q 2206 369 2469 659 
Q 2619 828 2681 1050 
L 3234 1050 
Q 3213 866 3089 639 
Q 2966 413 2813 269 
Q 2556 19 2178 -69 
Q 1975 -119 1719 -119 
Q 1094 -119 659 336 
Q 225 791 225 1609 
Q 225 2416 662 2919 
Q 1100 3422 1806 3422 
z
M 2703 1941 
Q 2669 2306 2544 2525 
Q 2313 2931 1772 2931 
Q 1384 2931 1121 2651 
Q 859 2372 844 1941 
L 2703 1941 
z
M 1753 3428 
L 1753 3428 
z
" transform="scale(0.015625)"/>
       <path id="Helvetica-6c" d="M 428 4591 
L 991 4591 
L 991 0 
L 428 0 
L 428 4591 
z
" transform="scale(0.015625)"/>
       <path id="Helvetica-74" d="M 525 4281 
L 1094 4281 
L 1094 3347 
L 1628 3347 
L 1628 2888 
L 1094 2888 
L 1094 703 
Q 1094 528 1213 469 
Q 1278 434 1431 434 
Q 1472 434 1519 436 
Q 1566 438 1628 444 
L 1628 0 
Q 1531 -28 1426 -40 
Q 1322 -53 1200 -53 
Q 806 -53 665 148 
Q 525 350 525 672 
L 525 2888 
L 72 2888 
L 72 3347 
L 525 3347 
L 525 4281 
z
" transform="scale(0.015625)"/>
       <path id="Helvetica-69" d="M 413 3331 
L 984 3331 
L 984 0 
L 413 0 
L 413 3331 
z
M 413 4591 
L 984 4591 
L 984 3953 
L 413 3953 
L 413 4591 
z
" transform="scale(0.015625)"/>
       <path id="Helvetica-76" d="M 688 3347 
L 1581 622 
L 2516 3347 
L 3131 3347 
L 1869 0 
L 1269 0 
L 34 3347 
L 688 3347 
z
" transform="scale(0.015625)"/>
       <path id="Helvetica-79" d="M 2503 3347 
L 3125 3347 
Q 3006 3025 2597 1878 
Q 2291 1016 2084 472 
Q 1597 -809 1397 -1090 
Q 1197 -1372 709 -1372 
Q 591 -1372 527 -1362 
Q 463 -1353 369 -1328 
L 369 -816 
Q 516 -856 581 -865 
Q 647 -875 697 -875 
Q 853 -875 926 -823 
Q 1000 -772 1050 -697 
Q 1066 -672 1162 -440 
Q 1259 -209 1303 -97 
L 66 3347 
L 703 3347 
L 1600 622 
L 2503 3347 
z
M 1597 3428 
L 1597 3428 
z
" transform="scale(0.015625)"/>
      </defs>
      <use xlink:href="#Helvetica-67"/>
      <use xlink:href="#Helvetica-70" transform="translate(55.615234 0)"/>
      <use xlink:href="#Helvetica-63" transform="translate(111.230469 0)"/>
      <use xlink:href="#Helvetica-72" transform="translate(161.230469 0)"/>
      <use xlink:href="#Helvetica-20" transform="translate(194.53125 0)"/>
      <use xlink:href="#Helvetica-73" transform="translate(222.314453 0)"/>
      <use xlink:href="#Helvetica-65" transform="translate(272.314453 0)"/>
      <use xlink:href="#Helvetica-6c" transform="translate(327.929688 0)"/>
      <use xlink:href="#Helvetica-65" transform="translate(350.146484 0)"/>
      <use xlink:href="#Helvetica-63" transform="translate(405.761719 0)"/>
      <use xlink:href="#Helvetica-74" transform="translate(455.761719 0)"/>
      <use xlink:href="#Helvetica-69" transform="translate(483.544922 0)"/>
      <use xlink:href="#Helvetica-76" transform="translate(505.761719 0)"/>
      <use xlink:href="#Helvetica-69" transform="translate(555.761719 0)"/>
      <use xlink:href="#Helvetica-74" transform="translate(577.978516 0)"/>
      <use xlink:href="#Helvetica-79" transform="translate(605.761719 0)"/>
     </g>
    </g>
   </g>
   <g id="matplotlib.axis_2">
    <g id="ytick_1">
     <g id="line2d_3">
      <path d="M 43.62 138.18 
L 168.57 138.18 
" clip-path="url(#p51f69987b5)" style="fill: none; stroke: #cccccc; stroke-width: 0.8; stroke-linecap: round"/>
     </g>
     <g id="text_4">
      <!-- 0 -->
      <g style="fill: #262626" transform="translate(29.759063 141.766719) scale(0.1 -0.1)">
       <use xlink:href="#Helvetica-30"/>
      </g>
     </g>
    </g>
    <g id="ytick_2">
     <g id="line2d_4">
      <path d="M 43.62 128.307008 
L 168.57 128.307008 
" clip-path="url(#p51f69987b5)" style="fill: none; stroke: #cccccc; stroke-width: 0.8; stroke-linecap: round"/>
     </g>
     <g id="text_5">
      <!-- 1 -->
      <g style="fill: #262626" transform="translate(29.759063 131.893727) scale(0.1 -0.1)">
       <use xlink:href="#Helvetica-31"/>
      </g>
     </g>
    </g>
    <g id="ytick_3">
     <g id="line2d_5">
      <path d="M 43.62 118.434017 
L 168.57 118.434017 
" clip-path="url(#p51f69987b5)" style="fill: none; stroke: #cccccc; stroke-width: 0.8; stroke-linecap: round"/>
     </g>
     <g id="text_6">
      <!-- 2 -->
      <g style="fill: #262626" transform="translate(29.759063 122.020735) scale(0.1 -0.1)">
       <defs>
        <path id="Helvetica-32" d="M 200 0 
Q 231 578 439 1006 
Q 647 1434 1250 1784 
L 1850 2131 
Q 2253 2366 2416 2531 
Q 2672 2791 2672 3125 
Q 2672 3516 2437 3745 
Q 2203 3975 1813 3975 
Q 1234 3975 1013 3538 
Q 894 3303 881 2888 
L 309 2888 
Q 319 3472 525 3841 
Q 891 4491 1816 4491 
Q 2584 4491 2939 4075 
Q 3294 3659 3294 3150 
Q 3294 2613 2916 2231 
Q 2697 2009 2131 1694 
L 1703 1456 
Q 1397 1288 1222 1134 
Q 909 863 828 531 
L 3272 531 
L 3272 0 
L 200 0 
z
" transform="scale(0.015625)"/>
       </defs>
       <use xlink:href="#Helvetica-32"/>
      </g>
     </g>
    </g>
    <g id="ytick_4">
     <g id="line2d_6">
      <path d="M 43.62 108.561025 
L 168.57 108.561025 
" clip-path="url(#p51f69987b5)" style="fill: none; stroke: #cccccc; stroke-width: 0.8; stroke-linecap: round"/>
     </g>
     <g id="text_7">
      <!-- 3 -->
      <g style="fill: #262626" transform="translate(29.759063 112.147744) scale(0.1 -0.1)">
       <defs>
        <path id="Helvetica-33" d="M 1663 -122 
Q 869 -122 511 314 
Q 153 750 153 1375 
L 741 1375 
Q 778 941 903 744 
Q 1122 391 1694 391 
Q 2138 391 2406 628 
Q 2675 866 2675 1241 
Q 2675 1703 2392 1887 
Q 2109 2072 1606 2072 
Q 1550 2072 1492 2070 
Q 1434 2069 1375 2066 
L 1375 2563 
Q 1463 2553 1522 2550 
Q 1581 2547 1650 2547 
Q 1966 2547 2169 2647 
Q 2525 2822 2525 3272 
Q 2525 3606 2287 3787 
Q 2050 3969 1734 3969 
Q 1172 3969 956 3594 
Q 838 3388 822 3006 
L 266 3006 
Q 266 3506 466 3856 
Q 809 4481 1675 4481 
Q 2359 4481 2734 4176 
Q 3109 3872 3109 3294 
Q 3109 2881 2888 2625 
Q 2750 2466 2531 2375 
Q 2884 2278 3082 2001 
Q 3281 1725 3281 1325 
Q 3281 684 2859 281 
Q 2438 -122 1663 -122 
z
" transform="scale(0.015625)"/>
       </defs>
       <use xlink:href="#Helvetica-33"/>
      </g>
     </g>
    </g>
    <g id="ytick_5">
     <g id="line2d_7">
      <path d="M 43.62 98.688033 
L 168.57 98.688033 
" clip-path="url(#p51f69987b5)" style="fill: none; stroke: #cccccc; stroke-width: 0.8; stroke-linecap: round"/>
     </g>
     <g id="text_8">
      <!-- 4 -->
      <g style="fill: #262626" transform="translate(29.759063 102.274752) scale(0.1 -0.1)">
       <defs>
        <path id="Helvetica-34" d="M 2116 1584 
L 2116 3613 
L 681 1584 
L 2116 1584 
z
M 2125 0 
L 2125 1094 
L 163 1094 
L 163 1644 
L 2213 4488 
L 2688 4488 
L 2688 1584 
L 3347 1584 
L 3347 1094 
L 2688 1094 
L 2688 0 
L 2125 0 
z
" transform="scale(0.015625)"/>
       </defs>
       <use xlink:href="#Helvetica-34"/>
      </g>
     </g>
    </g>
    <g id="ytick_6">
     <g id="line2d_8">
      <path d="M 43.62 88.815042 
L 168.57 88.815042 
" clip-path="url(#p51f69987b5)" style="fill: none; stroke: #cccccc; stroke-width: 0.8; stroke-linecap: round"/>
     </g>
     <g id="text_9">
      <!-- 5 -->
      <g style="fill: #262626" transform="translate(29.759063 92.401761) scale(0.1 -0.1)">
       <use xlink:href="#Helvetica-35"/>
      </g>
     </g>
    </g>
    <g id="ytick_7">
     <g id="line2d_9">
      <path d="M 43.62 78.94205 
L 168.57 78.94205 
" clip-path="url(#p51f69987b5)" style="fill: none; stroke: #cccccc; stroke-width: 0.8; stroke-linecap: round"/>
     </g>
     <g id="text_10">
      <!-- 6 -->
      <g style="fill: #262626" transform="translate(29.759063 82.528769) scale(0.1 -0.1)">
       <defs>
        <path id="Helvetica-36" d="M 1872 4494 
Q 2622 4494 2917 4105 
Q 3213 3716 3213 3303 
L 2656 3303 
Q 2606 3569 2497 3719 
Q 2294 4000 1881 4000 
Q 1409 4000 1131 3564 
Q 853 3128 822 2316 
Q 1016 2600 1309 2741 
Q 1578 2866 1909 2866 
Q 2472 2866 2890 2506 
Q 3309 2147 3309 1434 
Q 3309 825 2912 354 
Q 2516 -116 1781 -116 
Q 1153 -116 697 361 
Q 241 838 241 1966 
Q 241 2800 444 3381 
Q 834 4494 1872 4494 
z
M 1831 384 
Q 2275 384 2495 682 
Q 2716 981 2716 1388 
Q 2716 1731 2519 2042 
Q 2322 2353 1803 2353 
Q 1441 2353 1167 2112 
Q 894 1872 894 1388 
Q 894 963 1142 673 
Q 1391 384 1831 384 
z
" transform="scale(0.015625)"/>
       </defs>
       <use xlink:href="#Helvetica-36"/>
      </g>
     </g>
    </g>
    <g id="ytick_8">
     <g id="line2d_10">
      <path d="M 43.62 69.069059 
L 168.57 69.069059 
" clip-path="url(#p51f69987b5)" style="fill: none; stroke: #cccccc; stroke-width: 0.8; stroke-linecap: round"/>
     </g>
     <g id="text_11">
      <!-- 7 -->
      <g style="fill: #262626" transform="translate(29.759063 72.655777) scale(0.1 -0.1)">
       <defs>
        <path id="Helvetica-37" d="M 3347 4400 
L 3347 3909 
Q 3131 3700 2773 3181 
Q 2416 2663 2141 2063 
Q 1869 1478 1728 997 
Q 1638 688 1494 0 
L 872 0 
Q 1084 1281 1809 2550 
Q 2238 3294 2709 3834 
L 234 3834 
L 234 4400 
L 3347 4400 
z
" transform="scale(0.015625)"/>
       </defs>
       <use xlink:href="#Helvetica-37"/>
      </g>
     </g>
    </g>
    <g id="ytick_9">
     <g id="line2d_11">
      <path d="M 43.62 59.196067 
L 168.57 59.196067 
" clip-path="url(#p51f69987b5)" style="fill: none; stroke: #cccccc; stroke-width: 0.8; stroke-linecap: round"/>
     </g>
     <g id="text_12">
      <!-- 8 -->
      <g style="fill: #262626" transform="translate(29.759063 62.782786) scale(0.1 -0.1)">
       <defs>
        <path id="Helvetica-38" d="M 1741 2600 
Q 2113 2600 2322 2808 
Q 2531 3016 2531 3303 
Q 2531 3553 2331 3762 
Q 2131 3972 1722 3972 
Q 1316 3972 1134 3762 
Q 953 3553 953 3272 
Q 953 2956 1187 2778 
Q 1422 2600 1741 2600 
z
M 1775 384 
Q 2166 384 2423 595 
Q 2681 806 2681 1225 
Q 2681 1659 2415 1884 
Q 2150 2109 1734 2109 
Q 1331 2109 1076 1879 
Q 822 1650 822 1244 
Q 822 894 1055 639 
Q 1288 384 1775 384 
z
M 975 2384 
Q 741 2484 609 2619 
Q 363 2869 363 3269 
Q 363 3769 725 4128 
Q 1088 4488 1753 4488 
Q 2397 4488 2762 4148 
Q 3128 3809 3128 3356 
Q 3128 2938 2916 2678 
Q 2797 2531 2547 2391 
Q 2825 2263 2984 2097 
Q 3281 1784 3281 1284 
Q 3281 694 2884 283 
Q 2488 -128 1763 -128 
Q 1109 -128 657 226 
Q 206 581 206 1256 
Q 206 1653 400 1942 
Q 594 2231 975 2384 
z
" transform="scale(0.015625)"/>
       </defs>
       <use xlink:href="#Helvetica-38"/>
      </g>
     </g>
    </g>
    <g id="ytick_10">
     <g id="line2d_12">
      <path d="M 43.62 49.323075 
L 168.57 49.323075 
" clip-path="url(#p51f69987b5)" style="fill: none; stroke: #cccccc; stroke-width: 0.8; stroke-linecap: round"/>
     </g>
     <g id="text_13">
      <!-- 9 -->
      <g style="fill: #262626" transform="translate(29.759063 52.909794) scale(0.1 -0.1)">
       <defs>
        <path id="Helvetica-39" d="M 850 1081 
Q 875 616 1209 438 
Q 1381 344 1597 344 
Q 2000 344 2284 680 
Q 2569 1016 2688 2044 
Q 2500 1747 2223 1626 
Q 1947 1506 1628 1506 
Q 981 1506 604 1909 
Q 228 2313 228 2947 
Q 228 3556 600 4018 
Q 972 4481 1697 4481 
Q 2675 4481 3047 3600 
Q 3253 3116 3253 2388 
Q 3253 1566 3006 931 
Q 2597 -125 1619 -125 
Q 963 -125 622 219 
Q 281 563 281 1081 
L 850 1081 
z
M 1703 2000 
Q 2038 2000 2314 2220 
Q 2591 2441 2591 2991 
Q 2591 3484 2342 3726 
Q 2094 3969 1709 3969 
Q 1297 3969 1055 3692 
Q 813 3416 813 2953 
Q 813 2516 1025 2258 
Q 1238 2000 1703 2000 
z
" transform="scale(0.015625)"/>
       </defs>
       <use xlink:href="#Helvetica-39"/>
      </g>
     </g>
    </g>
    <g id="ytick_11">
     <g id="line2d_13">
      <path d="M 43.62 39.450084 
L 168.57 39.450084 
" clip-path="url(#p51f69987b5)" style="fill: none; stroke: #cccccc; stroke-width: 0.8; stroke-linecap: round"/>
     </g>
     <g id="text_14">
      <!-- 10 -->
      <g style="fill: #262626" transform="translate(24.198125 43.036802) scale(0.1 -0.1)">
       <use xlink:href="#Helvetica-31"/>
       <use xlink:href="#Helvetica-30" transform="translate(55.615234 0)"/>
      </g>
     </g>
    </g>
    <g id="ytick_12">
     <g id="line2d_14">
      <path d="M 43.62 29.577092 
L 168.57 29.577092 
" clip-path="url(#p51f69987b5)" style="fill: none; stroke: #cccccc; stroke-width: 0.8; stroke-linecap: round"/>
     </g>
     <g id="text_15">
      <!-- 11 -->
      <g style="fill: #262626" transform="translate(24.198125 33.163811) scale(0.1 -0.1)">
       <use xlink:href="#Helvetica-31"/>
       <use xlink:href="#Helvetica-31" transform="translate(55.615234 0)"/>
      </g>
     </g>
    </g>
    <g id="text_16">
     <!-- Rank -->
     <g style="fill: #262626" transform="translate(18.11375 92.86875) rotate(-90) scale(0.1 -0.1)">
      <defs>
       <path id="Helvetica-52" d="M 2622 2488 
Q 3059 2488 3314 2663 
Q 3569 2838 3569 3294 
Q 3569 3784 3213 3963 
Q 3022 4056 2703 4056 
L 1184 4056 
L 1184 2488 
L 2622 2488 
z
M 563 4591 
L 2688 4591 
Q 3213 4591 3553 4438 
Q 4200 4144 4200 3353 
Q 4200 2941 4029 2678 
Q 3859 2416 3553 2256 
Q 3822 2147 3958 1969 
Q 4094 1791 4109 1391 
L 4131 775 
Q 4141 513 4175 384 
Q 4231 166 4375 103 
L 4375 0 
L 3613 0 
Q 3581 59 3562 153 
Q 3544 247 3531 516 
L 3494 1281 
Q 3472 1731 3159 1884 
Q 2981 1969 2600 1969 
L 1184 1969 
L 1184 0 
L 563 0 
L 563 4591 
z
" transform="scale(0.015625)"/>
       <path id="Helvetica-61" d="M 844 891 
Q 844 647 1022 506 
Q 1200 366 1444 366 
Q 1741 366 2019 503 
Q 2488 731 2488 1250 
L 2488 1703 
Q 2384 1638 2221 1594 
Q 2059 1550 1903 1531 
L 1563 1488 
Q 1256 1447 1103 1359 
Q 844 1213 844 891 
z
M 2206 2028 
Q 2400 2053 2466 2191 
Q 2503 2266 2503 2406 
Q 2503 2694 2298 2823 
Q 2094 2953 1713 2953 
Q 1272 2953 1088 2716 
Q 984 2584 953 2325 
L 428 2325 
Q 444 2944 830 3186 
Q 1216 3428 1725 3428 
Q 2316 3428 2684 3203 
Q 3050 2978 3050 2503 
L 3050 575 
Q 3050 488 3086 434 
Q 3122 381 3238 381 
Q 3275 381 3322 386 
Q 3369 391 3422 400 
L 3422 -16 
Q 3291 -53 3222 -62 
Q 3153 -72 3034 -72 
Q 2744 -72 2613 134 
Q 2544 244 2516 444 
Q 2344 219 2022 53 
Q 1700 -113 1313 -113 
Q 847 -113 551 170 
Q 256 453 256 878 
Q 256 1344 547 1600 
Q 838 1856 1309 1916 
L 2206 2028 
z
M 1741 3428 
L 1741 3428 
z
" transform="scale(0.015625)"/>
       <path id="Helvetica-6e" d="M 413 3347 
L 947 3347 
L 947 2872 
Q 1184 3166 1450 3294 
Q 1716 3422 2041 3422 
Q 2753 3422 3003 2925 
Q 3141 2653 3141 2147 
L 3141 0 
L 2569 0 
L 2569 2109 
Q 2569 2416 2478 2603 
Q 2328 2916 1934 2916 
Q 1734 2916 1606 2875 
Q 1375 2806 1200 2600 
Q 1059 2434 1017 2257 
Q 975 2081 975 1753 
L 975 0 
L 413 0 
L 413 3347 
z
M 1734 3428 
L 1734 3428 
z
" transform="scale(0.015625)"/>
       <path id="Helvetica-6b" d="M 400 4591 
L 941 4591 
L 941 1925 
L 2384 3347 
L 3103 3347 
L 1822 2094 
L 3175 0 
L 2456 0 
L 1413 1688 
L 941 1256 
L 941 0 
L 400 0 
L 400 4591 
z
" transform="scale(0.015625)"/>
      </defs>
      <use xlink:href="#Helvetica-52"/>
      <use xlink:href="#Helvetica-61" transform="translate(72.216797 0)"/>
      <use xlink:href="#Helvetica-6e" transform="translate(127.832031 0)"/>
      <use xlink:href="#Helvetica-6b" transform="translate(183.447266 0)"/>
     </g>
    </g>
   </g>
   <g id="PathCollection_1">
    <defs>
     <path id="mfe72910da2" d="M 0 2.4 
C 0.636487 2.4 1.246992 2.147121 1.697056 1.697056 
C 2.147121 1.246992 2.4 0.636487 2.4 0 
C 2.4 -0.636487 2.147121 -1.246992 1.697056 -1.697056 
C 1.246992 -2.147121 0.636487 -2.4 0 -2.4 
C -0.636487 -2.4 -1.246992 -2.147121 -1.697056 -1.697056 
C -2.147121 -1.246992 -2.4 -0.636487 -2.4 0 
C -2.4 0.636487 -2.147121 1.246992 -1.697056 1.697056 
C -1.246992 2.147121 -0.636487 2.4 0 2.4 
z
" style="stroke: #1f77b4; stroke-opacity: 0.5"/>
    </defs>
    <g clip-path="url(#p51f69987b5)">
     <use xlink:href="#mfe72910da2" x="128.813182" y="108.816985" style="fill: #1f77b4; fill-opacity: 0.5; stroke: #1f77b4; stroke-opacity: 0.5"/>
     <use xlink:href="#mfe72910da2" x="49.299545" y="129.689967" style="fill: #1f77b4; fill-opacity: 0.5; stroke: #1f77b4; stroke-opacity: 0.5"/>
     <use xlink:href="#mfe72910da2" x="72.017727" y="126.76652" style="fill: #1f77b4; fill-opacity: 0.5; stroke: #1f77b4; stroke-opacity: 0.5"/>
     <use xlink:href="#mfe72910da2" x="72.017727" y="129.429502" style="fill: #1f77b4; fill-opacity: 0.5; stroke: #1f77b4; stroke-opacity: 0.5"/>
     <use xlink:href="#mfe72910da2" x="49.299545" y="129.483772" style="fill: #1f77b4; fill-opacity: 0.5; stroke: #1f77b4; stroke-opacity: 0.5"/>
     <use xlink:href="#mfe72910da2" x="117.454091" y="129.133133" style="fill: #1f77b4; fill-opacity: 0.5; stroke: #1f77b4; stroke-opacity: 0.5"/>
     <use xlink:href="#mfe72910da2" x="60.658636" y="129.531689" style="fill: #1f77b4; fill-opacity: 0.5; stroke: #1f77b4; stroke-opacity: 0.5"/>
     <use xlink:href="#mfe72910da2" x="60.658636" y="70.620437" style="fill: #1f77b4; fill-opacity: 0.5; stroke: #1f77b4; stroke-opacity: 0.5"/>
     <use xlink:href="#mfe72910da2" x="60.658636" y="128.506349" style="fill: #1f77b4; fill-opacity: 0.5; stroke: #1f77b4; stroke-opacity: 0.5"/>
     <use xlink:href="#mfe72910da2" x="83.376818" y="127.327318" style="fill: #1f77b4; fill-opacity: 0.5; stroke: #1f77b4; stroke-opacity: 0.5"/>
     <use xlink:href="#mfe72910da2" x="151.531364" y="98.093365" style="fill: #1f77b4; fill-opacity: 0.5; stroke: #1f77b4; stroke-opacity: 0.5"/>
     <use xlink:href="#mfe72910da2" x="60.658636" y="117.686396" style="fill: #1f77b4; fill-opacity: 0.5; stroke: #1f77b4; stroke-opacity: 0.5"/>
     <use xlink:href="#mfe72910da2" x="49.299545" y="119.565315" style="fill: #1f77b4; fill-opacity: 0.5; stroke: #1f77b4; stroke-opacity: 0.5"/>
     <use xlink:href="#mfe72910da2" x="151.531364" y="128.278391" style="fill: #1f77b4; fill-opacity: 0.5; stroke: #1f77b4; stroke-opacity: 0.5"/>
     <use xlink:href="#mfe72910da2" x="140.172273" y="77.613659" style="fill: #1f77b4; fill-opacity: 0.5; stroke: #1f77b4; stroke-opacity: 0.5"/>
     <use xlink:href="#mfe72910da2" x="60.658636" y="126.711456" style="fill: #1f77b4; fill-opacity: 0.5; stroke: #1f77b4; stroke-opacity: 0.5"/>
     <use xlink:href="#mfe72910da2" x="140.172273" y="118.268823" style="fill: #1f77b4; fill-opacity: 0.5; stroke: #1f77b4; stroke-opacity: 0.5"/>
     <use xlink:href="#mfe72910da2" x="49.299545" y="117.108739" style="fill: #1f77b4; fill-opacity: 0.5; stroke: #1f77b4; stroke-opacity: 0.5"/>
     <use xlink:href="#mfe72910da2" x="49.299545" y="128.052371" style="fill: #1f77b4; fill-opacity: 0.5; stroke: #1f77b4; stroke-opacity: 0.5"/>
     <use xlink:href="#mfe72910da2" x="60.658636" y="129.504766" style="fill: #1f77b4; fill-opacity: 0.5; stroke: #1f77b4; stroke-opacity: 0.5"/>
     <use xlink:href="#mfe72910da2" x="49.299545" y="47.54616" style="fill: #1f77b4; fill-opacity: 0.5; stroke: #1f77b4; stroke-opacity: 0.5"/>
     <use xlink:href="#mfe72910da2" x="60.658636" y="130.279506" style="fill: #1f77b4; fill-opacity: 0.5; stroke: #1f77b4; stroke-opacity: 0.5"/>
     <use xlink:href="#mfe72910da2" x="72.017727" y="128.742434" style="fill: #1f77b4; fill-opacity: 0.5; stroke: #1f77b4; stroke-opacity: 0.5"/>
     <use xlink:href="#mfe72910da2" x="94.735909" y="117.247213" style="fill: #1f77b4; fill-opacity: 0.5; stroke: #1f77b4; stroke-opacity: 0.5"/>
     <use xlink:href="#mfe72910da2" x="83.376818" y="128.616279" style="fill: #1f77b4; fill-opacity: 0.5; stroke: #1f77b4; stroke-opacity: 0.5"/>
     <use xlink:href="#mfe72910da2" x="72.017727" y="128.520879" style="fill: #1f77b4; fill-opacity: 0.5; stroke: #1f77b4; stroke-opacity: 0.5"/>
     <use xlink:href="#mfe72910da2" x="60.658636" y="127.214368" style="fill: #1f77b4; fill-opacity: 0.5; stroke: #1f77b4; stroke-opacity: 0.5"/>
     <use xlink:href="#mfe72910da2" x="49.299545" y="119.156988" style="fill: #1f77b4; fill-opacity: 0.5; stroke: #1f77b4; stroke-opacity: 0.5"/>
     <use xlink:href="#mfe72910da2" x="60.658636" y="128.24786" style="fill: #1f77b4; fill-opacity: 0.5; stroke: #1f77b4; stroke-opacity: 0.5"/>
     <use xlink:href="#mfe72910da2" x="83.376818" y="88.622997" style="fill: #1f77b4; fill-opacity: 0.5; stroke: #1f77b4; stroke-opacity: 0.5"/>
     <use xlink:href="#mfe72910da2" x="106.095" y="60.806172" style="fill: #1f77b4; fill-opacity: 0.5; stroke: #1f77b4; stroke-opacity: 0.5"/>
     <use xlink:href="#mfe72910da2" x="72.017727" y="126.974415" style="fill: #1f77b4; fill-opacity: 0.5; stroke: #1f77b4; stroke-opacity: 0.5"/>
     <use xlink:href="#mfe72910da2" x="49.299545" y="129.888697" style="fill: #1f77b4; fill-opacity: 0.5; stroke: #1f77b4; stroke-opacity: 0.5"/>
     <use xlink:href="#mfe72910da2" x="162.890455" y="128.915067" style="fill: #1f77b4; fill-opacity: 0.5; stroke: #1f77b4; stroke-opacity: 0.5"/>
     <use xlink:href="#mfe72910da2" x="72.017727" y="128.536028" style="fill: #1f77b4; fill-opacity: 0.5; stroke: #1f77b4; stroke-opacity: 0.5"/>
     <use xlink:href="#mfe72910da2" x="72.017727" y="130.033516" style="fill: #1f77b4; fill-opacity: 0.5; stroke: #1f77b4; stroke-opacity: 0.5"/>
     <use xlink:href="#mfe72910da2" x="72.017727" y="78.666235" style="fill: #1f77b4; fill-opacity: 0.5; stroke: #1f77b4; stroke-opacity: 0.5"/>
     <use xlink:href="#mfe72910da2" x="72.017727" y="129.685291" style="fill: #1f77b4; fill-opacity: 0.5; stroke: #1f77b4; stroke-opacity: 0.5"/>
     <use xlink:href="#mfe72910da2" x="60.658636" y="130.018291" style="fill: #1f77b4; fill-opacity: 0.5; stroke: #1f77b4; stroke-opacity: 0.5"/>
     <use xlink:href="#mfe72910da2" x="49.299545" y="110.466896" style="fill: #1f77b4; fill-opacity: 0.5; stroke: #1f77b4; stroke-opacity: 0.5"/>
     <use xlink:href="#mfe72910da2" x="60.658636" y="29.704581" style="fill: #1f77b4; fill-opacity: 0.5; stroke: #1f77b4; stroke-opacity: 0.5"/>
     <use xlink:href="#mfe72910da2" x="60.658636" y="130.239436" style="fill: #1f77b4; fill-opacity: 0.5; stroke: #1f77b4; stroke-opacity: 0.5"/>
     <use xlink:href="#mfe72910da2" x="72.017727" y="129.088057" style="fill: #1f77b4; fill-opacity: 0.5; stroke: #1f77b4; stroke-opacity: 0.5"/>
     <use xlink:href="#mfe72910da2" x="72.017727" y="127.195188" style="fill: #1f77b4; fill-opacity: 0.5; stroke: #1f77b4; stroke-opacity: 0.5"/>
     <use xlink:href="#mfe72910da2" x="94.735909" y="127.115881" style="fill: #1f77b4; fill-opacity: 0.5; stroke: #1f77b4; stroke-opacity: 0.5"/>
     <use xlink:href="#mfe72910da2" x="72.017727" y="127.685745" style="fill: #1f77b4; fill-opacity: 0.5; stroke: #1f77b4; stroke-opacity: 0.5"/>
     <use xlink:href="#mfe72910da2" x="94.735909" y="109.652034" style="fill: #1f77b4; fill-opacity: 0.5; stroke: #1f77b4; stroke-opacity: 0.5"/>
     <use xlink:href="#mfe72910da2" x="60.658636" y="118.594821" style="fill: #1f77b4; fill-opacity: 0.5; stroke: #1f77b4; stroke-opacity: 0.5"/>
     <use xlink:href="#mfe72910da2" x="83.376818" y="117.611312" style="fill: #1f77b4; fill-opacity: 0.5; stroke: #1f77b4; stroke-opacity: 0.5"/>
     <use xlink:href="#mfe72910da2" x="72.017727" y="58.88425" style="fill: #1f77b4; fill-opacity: 0.5; stroke: #1f77b4; stroke-opacity: 0.5"/>
     <use xlink:href="#mfe72910da2" x="117.454091" y="118.41357" style="fill: #1f77b4; fill-opacity: 0.5; stroke: #1f77b4; stroke-opacity: 0.5"/>
     <use xlink:href="#mfe72910da2" x="60.658636" y="127.207608" style="fill: #1f77b4; fill-opacity: 0.5; stroke: #1f77b4; stroke-opacity: 0.5"/>
     <use xlink:href="#mfe72910da2" x="72.017727" y="129.723267" style="fill: #1f77b4; fill-opacity: 0.5; stroke: #1f77b4; stroke-opacity: 0.5"/>
     <use xlink:href="#mfe72910da2" x="60.658636" y="129.303712" style="fill: #1f77b4; fill-opacity: 0.5; stroke: #1f77b4; stroke-opacity: 0.5"/>
     <use xlink:href="#mfe72910da2" x="49.299545" y="87.090667" style="fill: #1f77b4; fill-opacity: 0.5; stroke: #1f77b4; stroke-opacity: 0.5"/>
     <use xlink:href="#mfe72910da2" x="49.299545" y="51.048917" style="fill: #1f77b4; fill-opacity: 0.5; stroke: #1f77b4; stroke-opacity: 0.5"/>
     <use xlink:href="#mfe72910da2" x="72.017727" y="110.25335" style="fill: #1f77b4; fill-opacity: 0.5; stroke: #1f77b4; stroke-opacity: 0.5"/>
     <use xlink:href="#mfe72910da2" x="128.813182" y="58.721449" style="fill: #1f77b4; fill-opacity: 0.5; stroke: #1f77b4; stroke-opacity: 0.5"/>
     <use xlink:href="#mfe72910da2" x="117.454091" y="100.282043" style="fill: #1f77b4; fill-opacity: 0.5; stroke: #1f77b4; stroke-opacity: 0.5"/>
     <use xlink:href="#mfe72910da2" x="49.299545" y="100.372986" style="fill: #1f77b4; fill-opacity: 0.5; stroke: #1f77b4; stroke-opacity: 0.5"/>
     <use xlink:href="#mfe72910da2" x="60.658636" y="116.970867" style="fill: #1f77b4; fill-opacity: 0.5; stroke: #1f77b4; stroke-opacity: 0.5"/>
     <use xlink:href="#mfe72910da2" x="83.376818" y="127.796688" style="fill: #1f77b4; fill-opacity: 0.5; stroke: #1f77b4; stroke-opacity: 0.5"/>
     <use xlink:href="#mfe72910da2" x="60.658636" y="39.437274" style="fill: #1f77b4; fill-opacity: 0.5; stroke: #1f77b4; stroke-opacity: 0.5"/>
     <use xlink:href="#mfe72910da2" x="117.454091" y="106.839921" style="fill: #1f77b4; fill-opacity: 0.5; stroke: #1f77b4; stroke-opacity: 0.5"/>
     <use xlink:href="#mfe72910da2" x="60.658636" y="109.302824" style="fill: #1f77b4; fill-opacity: 0.5; stroke: #1f77b4; stroke-opacity: 0.5"/>
     <use xlink:href="#mfe72910da2" x="83.376818" y="117.107758" style="fill: #1f77b4; fill-opacity: 0.5; stroke: #1f77b4; stroke-opacity: 0.5"/>
     <use xlink:href="#mfe72910da2" x="60.658636" y="87.28581" style="fill: #1f77b4; fill-opacity: 0.5; stroke: #1f77b4; stroke-opacity: 0.5"/>
     <use xlink:href="#mfe72910da2" x="72.017727" y="118.525525" style="fill: #1f77b4; fill-opacity: 0.5; stroke: #1f77b4; stroke-opacity: 0.5"/>
     <use xlink:href="#mfe72910da2" x="128.813182" y="58.406481" style="fill: #1f77b4; fill-opacity: 0.5; stroke: #1f77b4; stroke-opacity: 0.5"/>
     <use xlink:href="#mfe72910da2" x="128.813182" y="89.929804" style="fill: #1f77b4; fill-opacity: 0.5; stroke: #1f77b4; stroke-opacity: 0.5"/>
     <use xlink:href="#mfe72910da2" x="83.376818" y="130.181214" style="fill: #1f77b4; fill-opacity: 0.5; stroke: #1f77b4; stroke-opacity: 0.5"/>
     <use xlink:href="#mfe72910da2" x="72.017727" y="110.168922" style="fill: #1f77b4; fill-opacity: 0.5; stroke: #1f77b4; stroke-opacity: 0.5"/>
     <use xlink:href="#mfe72910da2" x="72.017727" y="108.339249" style="fill: #1f77b4; fill-opacity: 0.5; stroke: #1f77b4; stroke-opacity: 0.5"/>
     <use xlink:href="#mfe72910da2" x="72.017727" y="119.462906" style="fill: #1f77b4; fill-opacity: 0.5; stroke: #1f77b4; stroke-opacity: 0.5"/>
     <use xlink:href="#mfe72910da2" x="72.017727" y="120.127798" style="fill: #1f77b4; fill-opacity: 0.5; stroke: #1f77b4; stroke-opacity: 0.5"/>
     <use xlink:href="#mfe72910da2" x="49.299545" y="47.401834" style="fill: #1f77b4; fill-opacity: 0.5; stroke: #1f77b4; stroke-opacity: 0.5"/>
     <use xlink:href="#mfe72910da2" x="72.017727" y="107.20072" style="fill: #1f77b4; fill-opacity: 0.5; stroke: #1f77b4; stroke-opacity: 0.5"/>
     <use xlink:href="#mfe72910da2" x="49.299545" y="129.358229" style="fill: #1f77b4; fill-opacity: 0.5; stroke: #1f77b4; stroke-opacity: 0.5"/>
     <use xlink:href="#mfe72910da2" x="49.299545" y="118.514678" style="fill: #1f77b4; fill-opacity: 0.5; stroke: #1f77b4; stroke-opacity: 0.5"/>
     <use xlink:href="#mfe72910da2" x="60.658636" y="128.175075" style="fill: #1f77b4; fill-opacity: 0.5; stroke: #1f77b4; stroke-opacity: 0.5"/>
     <use xlink:href="#mfe72910da2" x="60.658636" y="129.588006" style="fill: #1f77b4; fill-opacity: 0.5; stroke: #1f77b4; stroke-opacity: 0.5"/>
     <use xlink:href="#mfe72910da2" x="83.376818" y="129.235129" style="fill: #1f77b4; fill-opacity: 0.5; stroke: #1f77b4; stroke-opacity: 0.5"/>
     <use xlink:href="#mfe72910da2" x="83.376818" y="126.708243" style="fill: #1f77b4; fill-opacity: 0.5; stroke: #1f77b4; stroke-opacity: 0.5"/>
     <use xlink:href="#mfe72910da2" x="83.376818" y="119.892069" style="fill: #1f77b4; fill-opacity: 0.5; stroke: #1f77b4; stroke-opacity: 0.5"/>
     <use xlink:href="#mfe72910da2" x="83.376818" y="117.406465" style="fill: #1f77b4; fill-opacity: 0.5; stroke: #1f77b4; stroke-opacity: 0.5"/>
     <use xlink:href="#mfe72910da2" x="140.172273" y="58.218846" style="fill: #1f77b4; fill-opacity: 0.5; stroke: #1f77b4; stroke-opacity: 0.5"/>
     <use xlink:href="#mfe72910da2" x="72.017727" y="127.876482" style="fill: #1f77b4; fill-opacity: 0.5; stroke: #1f77b4; stroke-opacity: 0.5"/>
     <use xlink:href="#mfe72910da2" x="49.299545" y="117.007427" style="fill: #1f77b4; fill-opacity: 0.5; stroke: #1f77b4; stroke-opacity: 0.5"/>
     <use xlink:href="#mfe72910da2" x="49.299545" y="50.425275" style="fill: #1f77b4; fill-opacity: 0.5; stroke: #1f77b4; stroke-opacity: 0.5"/>
     <use xlink:href="#mfe72910da2" x="83.376818" y="129.141206" style="fill: #1f77b4; fill-opacity: 0.5; stroke: #1f77b4; stroke-opacity: 0.5"/>
     <use xlink:href="#mfe72910da2" x="106.095" y="128.282966" style="fill: #1f77b4; fill-opacity: 0.5; stroke: #1f77b4; stroke-opacity: 0.5"/>
     <use xlink:href="#mfe72910da2" x="49.299545" y="39.91847" style="fill: #1f77b4; fill-opacity: 0.5; stroke: #1f77b4; stroke-opacity: 0.5"/>
     <use xlink:href="#mfe72910da2" x="117.454091" y="126.490277" style="fill: #1f77b4; fill-opacity: 0.5; stroke: #1f77b4; stroke-opacity: 0.5"/>
     <use xlink:href="#mfe72910da2" x="106.095" y="97.550354" style="fill: #1f77b4; fill-opacity: 0.5; stroke: #1f77b4; stroke-opacity: 0.5"/>
     <use xlink:href="#mfe72910da2" x="49.299545" y="107.371063" style="fill: #1f77b4; fill-opacity: 0.5; stroke: #1f77b4; stroke-opacity: 0.5"/>
     <use xlink:href="#mfe72910da2" x="83.376818" y="79.233429" style="fill: #1f77b4; fill-opacity: 0.5; stroke: #1f77b4; stroke-opacity: 0.5"/>
     <use xlink:href="#mfe72910da2" x="72.017727" y="29.2645" style="fill: #1f77b4; fill-opacity: 0.5; stroke: #1f77b4; stroke-opacity: 0.5"/>
     <use xlink:href="#mfe72910da2" x="60.658636" y="129.992734" style="fill: #1f77b4; fill-opacity: 0.5; stroke: #1f77b4; stroke-opacity: 0.5"/>
     <use xlink:href="#mfe72910da2" x="49.299545" y="110.000999" style="fill: #1f77b4; fill-opacity: 0.5; stroke: #1f77b4; stroke-opacity: 0.5"/>
     <use xlink:href="#mfe72910da2" x="49.299545" y="98.694313" style="fill: #1f77b4; fill-opacity: 0.5; stroke: #1f77b4; stroke-opacity: 0.5"/>
     <use xlink:href="#mfe72910da2" x="49.299545" y="30.550877" style="fill: #1f77b4; fill-opacity: 0.5; stroke: #1f77b4; stroke-opacity: 0.5"/>
     <use xlink:href="#mfe72910da2" x="72.017727" y="99.516341" style="fill: #1f77b4; fill-opacity: 0.5; stroke: #1f77b4; stroke-opacity: 0.5"/>
     <use xlink:href="#mfe72910da2" x="49.299545" y="70.026194" style="fill: #1f77b4; fill-opacity: 0.5; stroke: #1f77b4; stroke-opacity: 0.5"/>
     <use xlink:href="#mfe72910da2" x="49.299545" y="57.234422" style="fill: #1f77b4; fill-opacity: 0.5; stroke: #1f77b4; stroke-opacity: 0.5"/>
     <use xlink:href="#mfe72910da2" x="49.299545" y="69.534892" style="fill: #1f77b4; fill-opacity: 0.5; stroke: #1f77b4; stroke-opacity: 0.5"/>
     <use xlink:href="#mfe72910da2" x="72.017727" y="126.873825" style="fill: #1f77b4; fill-opacity: 0.5; stroke: #1f77b4; stroke-opacity: 0.5"/>
     <use xlink:href="#mfe72910da2" x="83.376818" y="127.943584" style="fill: #1f77b4; fill-opacity: 0.5; stroke: #1f77b4; stroke-opacity: 0.5"/>
     <use xlink:href="#mfe72910da2" x="49.299545" y="109.130784" style="fill: #1f77b4; fill-opacity: 0.5; stroke: #1f77b4; stroke-opacity: 0.5"/>
     <use xlink:href="#mfe72910da2" x="49.299545" y="129.688955" style="fill: #1f77b4; fill-opacity: 0.5; stroke: #1f77b4; stroke-opacity: 0.5"/>
     <use xlink:href="#mfe72910da2" x="72.017727" y="107.11306" style="fill: #1f77b4; fill-opacity: 0.5; stroke: #1f77b4; stroke-opacity: 0.5"/>
     <use xlink:href="#mfe72910da2" x="49.299545" y="119.89863" style="fill: #1f77b4; fill-opacity: 0.5; stroke: #1f77b4; stroke-opacity: 0.5"/>
     <use xlink:href="#mfe72910da2" x="106.095" y="116.714939" style="fill: #1f77b4; fill-opacity: 0.5; stroke: #1f77b4; stroke-opacity: 0.5"/>
     <use xlink:href="#mfe72910da2" x="94.735909" y="109.967135" style="fill: #1f77b4; fill-opacity: 0.5; stroke: #1f77b4; stroke-opacity: 0.5"/>
     <use xlink:href="#mfe72910da2" x="49.299545" y="108.10521" style="fill: #1f77b4; fill-opacity: 0.5; stroke: #1f77b4; stroke-opacity: 0.5"/>
     <use xlink:href="#mfe72910da2" x="106.095" y="126.886086" style="fill: #1f77b4; fill-opacity: 0.5; stroke: #1f77b4; stroke-opacity: 0.5"/>
     <use xlink:href="#mfe72910da2" x="94.735909" y="128.9266" style="fill: #1f77b4; fill-opacity: 0.5; stroke: #1f77b4; stroke-opacity: 0.5"/>
     <use xlink:href="#mfe72910da2" x="72.017727" y="129.487775" style="fill: #1f77b4; fill-opacity: 0.5; stroke: #1f77b4; stroke-opacity: 0.5"/>
     <use xlink:href="#mfe72910da2" x="49.299545" y="68.17878" style="fill: #1f77b4; fill-opacity: 0.5; stroke: #1f77b4; stroke-opacity: 0.5"/>
     <use xlink:href="#mfe72910da2" x="94.735909" y="118.522294" style="fill: #1f77b4; fill-opacity: 0.5; stroke: #1f77b4; stroke-opacity: 0.5"/>
     <use xlink:href="#mfe72910da2" x="83.376818" y="110.224987" style="fill: #1f77b4; fill-opacity: 0.5; stroke: #1f77b4; stroke-opacity: 0.5"/>
     <use xlink:href="#mfe72910da2" x="72.017727" y="129.087269" style="fill: #1f77b4; fill-opacity: 0.5; stroke: #1f77b4; stroke-opacity: 0.5"/>
     <use xlink:href="#mfe72910da2" x="49.299545" y="117.701488" style="fill: #1f77b4; fill-opacity: 0.5; stroke: #1f77b4; stroke-opacity: 0.5"/>
     <use xlink:href="#mfe72910da2" x="94.735909" y="127.417498" style="fill: #1f77b4; fill-opacity: 0.5; stroke: #1f77b4; stroke-opacity: 0.5"/>
    </g>
   </g>
   <g id="FillBetweenPolyCollection_1">
    <defs>
     <path id="m18ac88ad63" d="M 49.299545 -80.784092 
L 49.299545 -65.452163 
L 50.446928 -65.521421 
L 51.594311 -65.590679 
L 52.741694 -65.659937 
L 53.889077 -65.730346 
L 55.03646 -65.895538 
L 56.183843 -65.914585 
L 57.331226 -66.006571 
L 58.478609 -66.099462 
L 59.625992 -66.210321 
L 60.773375 -66.37734 
L 61.920758 -66.439827 
L 63.06814 -66.500272 
L 64.215523 -66.573563 
L 65.362906 -66.62006 
L 66.510289 -66.561829 
L 67.657672 -66.64775 
L 68.805055 -66.742117 
L 69.952438 -66.743616 
L 71.099821 -66.7573 
L 72.247204 -66.760025 
L 73.394587 -66.863331 
L 74.54197 -66.924303 
L 75.689353 -66.894756 
L 76.836736 -66.861477 
L 77.984118 -66.804263 
L 79.131501 -66.729085 
L 80.278884 -66.656684 
L 81.426267 -66.510596 
L 82.57365 -66.348426 
L 83.721033 -66.307021 
L 84.868416 -66.26301 
L 86.015799 -66.111237 
L 87.163182 -66.036963 
L 88.310565 -65.880018 
L 89.457948 -65.825039 
L 90.605331 -65.770065 
L 91.752713 -65.570869 
L 92.900096 -65.471056 
L 94.047479 -65.282281 
L 95.194862 -65.213984 
L 96.342245 -64.95206 
L 97.489628 -64.809628 
L 98.637011 -64.582627 
L 99.784394 -64.263588 
L 100.931777 -64.133468 
L 102.07916 -63.892993 
L 103.226543 -63.735011 
L 104.373926 -63.542407 
L 105.521309 -63.272741 
L 106.668691 -63.03472 
L 107.816074 -62.781092 
L 108.963457 -62.527463 
L 110.11084 -62.273835 
L 111.258223 -62.020207 
L 112.405606 -61.766579 
L 113.552989 -61.511708 
L 114.700372 -61.264926 
L 115.847755 -61.004373 
L 116.995138 -60.750611 
L 118.142521 -60.497034 
L 119.289904 -60.212035 
L 120.437287 -59.924027 
L 121.584669 -59.677098 
L 122.732052 -59.40337 
L 123.879435 -59.154394 
L 125.026818 -58.972112 
L 126.174201 -58.717827 
L 127.321584 -58.463543 
L 128.468967 -58.166901 
L 129.61635 -57.828464 
L 130.763733 -57.493357 
L 131.911116 -57.218431 
L 133.058499 -56.943504 
L 134.205882 -56.671026 
L 135.353264 -56.351335 
L 136.500647 -56.124351 
L 137.64803 -55.849515 
L 138.795413 -55.574678 
L 139.942796 -55.299841 
L 141.090179 -55.025005 
L 142.237562 -54.750168 
L 143.384945 -54.475331 
L 144.532328 -54.20306 
L 145.679711 -53.930841 
L 146.827094 -53.658622 
L 147.974477 -53.386403 
L 149.12186 -53.114183 
L 150.269242 -52.841964 
L 151.416625 -52.569745 
L 152.564008 -52.297526 
L 153.711391 -52.025307 
L 154.858774 -51.753088 
L 156.006157 -51.480869 
L 157.15354 -51.211133 
L 158.300923 -50.978271 
L 159.448306 -50.745408 
L 160.595689 -50.512546 
L 161.743072 -50.279684 
L 162.890455 -50.008014 
L 162.890455 -84.287446 
L 162.890455 -84.287446 
L 161.743072 -84.118985 
L 160.595689 -83.988935 
L 159.448306 -83.843766 
L 158.300923 -83.676283 
L 157.15354 -83.508801 
L 156.006157 -83.341319 
L 154.858774 -83.173367 
L 153.711391 -83.004455 
L 152.564008 -82.835543 
L 151.416625 -82.665988 
L 150.269242 -82.495889 
L 149.12186 -82.328389 
L 147.974477 -82.159894 
L 146.827094 -81.990982 
L 145.679711 -81.822069 
L 144.532328 -81.648012 
L 143.384945 -81.462194 
L 142.237562 -81.31694 
L 141.090179 -81.15042 
L 139.942796 -80.982951 
L 138.795413 -80.813803 
L 137.64803 -80.644654 
L 136.500647 -80.475506 
L 135.353264 -80.309003 
L 134.205882 -80.137209 
L 133.058499 -79.946811 
L 131.911116 -79.801794 
L 130.763733 -79.666565 
L 129.61635 -79.565016 
L 128.468967 -79.460034 
L 127.321584 -79.355053 
L 126.174201 -79.180463 
L 125.026818 -78.984951 
L 123.879435 -78.788759 
L 122.732052 -78.756809 
L 121.584669 -78.697454 
L 120.437287 -78.537613 
L 119.289904 -78.452104 
L 118.142521 -78.379051 
L 116.995138 -78.190533 
L 115.847755 -77.952308 
L 114.700372 -77.730014 
L 113.552989 -77.577107 
L 112.405606 -77.515253 
L 111.258223 -77.420922 
L 110.11084 -77.299464 
L 108.963457 -77.262124 
L 107.816074 -77.126292 
L 106.668691 -77.056167 
L 105.521309 -76.988518 
L 104.373926 -76.916181 
L 103.226543 -76.751442 
L 102.07916 -76.604273 
L 100.931777 -76.527171 
L 99.784394 -76.368819 
L 98.637011 -76.208201 
L 97.489628 -76.055327 
L 96.342245 -76.07286 
L 95.194862 -76.029584 
L 94.047479 -75.959777 
L 92.900096 -76.04659 
L 91.752713 -76.129085 
L 90.605331 -76.071439 
L 89.457948 -75.9868 
L 88.310565 -75.919156 
L 87.163182 -75.885642 
L 86.015799 -75.924086 
L 84.868416 -75.947734 
L 83.721033 -75.951865 
L 82.57365 -75.97394 
L 81.426267 -76.0156 
L 80.278884 -76.097322 
L 79.131501 -76.180513 
L 77.984118 -76.267145 
L 76.836736 -76.442924 
L 75.689353 -76.642877 
L 74.54197 -76.863131 
L 73.394587 -76.851789 
L 72.247204 -76.83993 
L 71.099821 -76.988988 
L 69.952438 -77.15319 
L 68.805055 -77.303297 
L 67.657672 -77.494706 
L 66.510289 -77.651421 
L 65.362906 -77.86213 
L 64.215523 -77.968354 
L 63.06814 -78.021068 
L 61.920758 -78.136813 
L 60.773375 -78.315872 
L 59.625992 -78.562427 
L 58.478609 -78.809592 
L 57.331226 -78.999815 
L 56.183843 -79.262847 
L 55.03646 -79.461917 
L 53.889077 -79.683804 
L 52.741694 -79.960351 
L 51.594311 -80.200885 
L 50.446928 -80.460877 
L 49.299545 -80.784092 
z
" style="stroke: #ffffff; stroke-opacity: 0.15; stroke-width: 0.8"/>
    </defs>
    <g clip-path="url(#p51f69987b5)">
     <use xlink:href="#m18ac88ad63" x="0" y="180" style="fill: #1f77b4; fill-opacity: 0.15; stroke: #ffffff; stroke-opacity: 0.15; stroke-width: 0.8"/>
    </g>
   </g>
   <g id="line2d_15">
    <path d="M 49.299545 107.020957 
L 50.446928 107.077399 
L 51.594311 107.133841 
L 52.741694 107.190283 
L 53.889077 107.246724 
L 55.03646 107.303166 
L 56.183843 107.359608 
L 57.331226 107.41605 
L 58.478609 107.472492 
L 59.625992 107.528934 
L 60.773375 107.585375 
L 61.920758 107.641817 
L 63.06814 107.698259 
L 64.215523 107.754701 
L 65.362906 107.811143 
L 66.510289 107.867584 
L 67.657672 107.924026 
L 68.805055 107.980468 
L 69.952438 108.03691 
L 71.099821 108.093352 
L 72.247204 108.149794 
L 73.394587 108.206235 
L 74.54197 108.262677 
L 75.689353 108.319119 
L 76.836736 108.375561 
L 77.984118 108.432003 
L 79.131501 108.488445 
L 80.278884 108.544886 
L 81.426267 108.601328 
L 82.57365 108.65777 
L 83.721033 108.714212 
L 84.868416 108.770654 
L 86.015799 108.827096 
L 87.163182 108.883537 
L 88.310565 108.939979 
L 89.457948 108.996421 
L 90.605331 109.052863 
L 91.752713 109.109305 
L 92.900096 109.165747 
L 94.047479 109.222188 
L 95.194862 109.27863 
L 96.342245 109.335072 
L 97.489628 109.391514 
L 98.637011 109.447956 
L 99.784394 109.504398 
L 100.931777 109.560839 
L 102.07916 109.617281 
L 103.226543 109.673723 
L 104.373926 109.730165 
L 105.521309 109.786607 
L 106.668691 109.843048 
L 107.816074 109.89949 
L 108.963457 109.955932 
L 110.11084 110.012374 
L 111.258223 110.068816 
L 112.405606 110.125258 
L 113.552989 110.181699 
L 114.700372 110.238141 
L 115.847755 110.294583 
L 116.995138 110.351025 
L 118.142521 110.407467 
L 119.289904 110.463909 
L 120.437287 110.52035 
L 121.584669 110.576792 
L 122.732052 110.633234 
L 123.879435 110.689676 
L 125.026818 110.746118 
L 126.174201 110.80256 
L 127.321584 110.859001 
L 128.468967 110.915443 
L 129.61635 110.971885 
L 130.763733 111.028327 
L 131.911116 111.084769 
L 133.058499 111.141211 
L 134.205882 111.197652 
L 135.353264 111.254094 
L 136.500647 111.310536 
L 137.64803 111.366978 
L 138.795413 111.42342 
L 139.942796 111.479861 
L 141.090179 111.536303 
L 142.237562 111.592745 
L 143.384945 111.649187 
L 144.532328 111.705629 
L 145.679711 111.762071 
L 146.827094 111.818512 
L 147.974477 111.874954 
L 149.12186 111.931396 
L 150.269242 111.987838 
L 151.416625 112.04428 
L 152.564008 112.100722 
L 153.711391 112.157163 
L 154.858774 112.213605 
L 156.006157 112.270047 
L 157.15354 112.326489 
L 158.300923 112.382931 
L 159.448306 112.439373 
L 160.595689 112.495814 
L 161.743072 112.552256 
L 162.890455 112.608698 
" clip-path="url(#p51f69987b5)" style="fill: none; stroke: #1f77b4; stroke-width: 1.8; stroke-linecap: round"/>
   </g>
   <g id="patch_3">
    <path d="M 43.62 138.18 
L 43.62 24.21375 
" style="fill: none; stroke: #cccccc; stroke-linejoin: miter; stroke-linecap: square"/>
   </g>
   <g id="patch_4">
    <path d="M 168.57 138.18 
L 168.57 24.21375 
" style="fill: none; stroke: #cccccc; stroke-linejoin: miter; stroke-linecap: square"/>
   </g>
   <g id="patch_5">
    <path d="M 43.62 138.18 
L 168.57 138.18 
" style="fill: none; stroke: #cccccc; stroke-linejoin: miter; stroke-linecap: square"/>
   </g>
   <g id="patch_6">
    <path d="M 43.62 24.21375 
L 168.57 24.21375 
" style="fill: none; stroke: #cccccc; stroke-linejoin: miter; stroke-linecap: square"/>
   </g>
   <g id="text_17">
    <!-- rho = -0.11 -->
    <g style="fill: #262626" transform="translate(118.59 37.0855) scale(0.1 -0.1)">
     <defs>
      <path id="Helvetica-68" d="M 413 4606 
L 975 4606 
L 975 2894 
Q 1175 3147 1334 3250 
Q 1606 3428 2013 3428 
Q 2741 3428 3000 2919 
Q 3141 2641 3141 2147 
L 3141 0 
L 2563 0 
L 2563 2109 
Q 2563 2478 2469 2650 
Q 2316 2925 1894 2925 
Q 1544 2925 1259 2684 
Q 975 2444 975 1775 
L 975 0 
L 413 0 
L 413 4606 
z
" transform="scale(0.015625)"/>
      <path id="Helvetica-6f" d="M 1741 363 
Q 2300 363 2508 786 
Q 2716 1209 2716 1728 
Q 2716 2197 2566 2491 
Q 2328 2953 1747 2953 
Q 1231 2953 997 2559 
Q 763 2166 763 1609 
Q 763 1075 997 719 
Q 1231 363 1741 363 
z
M 1763 3444 
Q 2409 3444 2856 3012 
Q 3303 2581 3303 1744 
Q 3303 934 2909 406 
Q 2516 -122 1688 -122 
Q 997 -122 590 345 
Q 184 813 184 1600 
Q 184 2444 612 2944 
Q 1041 3444 1763 3444 
z
M 1744 3428 
L 1744 3428 
z
" transform="scale(0.015625)"/>
      <path id="Helvetica-3d" d="M 3547 2569 
L 3547 2044 
L 288 2044 
L 288 2569 
L 3547 2569 
z
M 3547 1228 
L 3547 694 
L 288 694 
L 288 1228 
L 3547 1228 
z
" transform="scale(0.015625)"/>
      <path id="Helvetica-2d" d="M 266 2072 
L 1834 2072 
L 1834 1494 
L 266 1494 
L 266 2072 
z
" transform="scale(0.015625)"/>
      <path id="Helvetica-2e" d="M 547 681 
L 1200 681 
L 1200 0 
L 547 0 
L 547 681 
z
" transform="scale(0.015625)"/>
     </defs>
     <use xlink:href="#Helvetica-72"/>
     <use xlink:href="#Helvetica-68" transform="translate(33.300781 0)"/>
     <use xlink:href="#Helvetica-6f" transform="translate(88.916016 0)"/>
     <use xlink:href="#Helvetica-20" transform="translate(144.53125 0)"/>
     <use xlink:href="#Helvetica-3d" transform="translate(172.314453 0)"/>
     <use xlink:href="#Helvetica-20" transform="translate(230.712891 0)"/>
     <use xlink:href="#Helvetica-2d" transform="translate(258.496094 0)"/>
     <use xlink:href="#Helvetica-30" transform="translate(291.796875 0)"/>
     <use xlink:href="#Helvetica-2e" transform="translate(347.412109 0)"/>
     <use xlink:href="#Helvetica-31" transform="translate(375.195312 0)"/>
     <use xlink:href="#Helvetica-31" transform="translate(430.810547 0)"/>
    </g>
    <!-- p = 2.17e-01 -->
    <g style="fill: #262626" transform="translate(118.59 47.778) scale(0.1 -0.1)">
     <use xlink:href="#Helvetica-70"/>
     <use xlink:href="#Helvetica-20" transform="translate(55.615234 0)"/>
     <use xlink:href="#Helvetica-3d" transform="translate(83.398438 0)"/>
     <use xlink:href="#Helvetica-20" transform="translate(141.796875 0)"/>
     <use xlink:href="#Helvetica-32" transform="translate(169.580078 0)"/>
     <use xlink:href="#Helvetica-2e" transform="translate(225.195312 0)"/>
     <use xlink:href="#Helvetica-31" transform="translate(252.978516 0)"/>
     <use xlink:href="#Helvetica-37" transform="translate(308.59375 0)"/>
     <use xlink:href="#Helvetica-65" transform="translate(364.208984 0)"/>
     <use xlink:href="#Helvetica-2d" transform="translate(419.824219 0)"/>
     <use xlink:href="#Helvetica-30" transform="translate(453.125 0)"/>
     <use xlink:href="#Helvetica-31" transform="translate(508.740234 0)"/>
    </g>
   </g>
   <g id="text_18">
    <!-- AF2 APPRAISE (no templates) vs gpcr selectivity -->
    <g style="fill: #262626" transform="translate(-3.383906 18.21375) scale(0.1 -0.1)">
     <defs>
      <path id="Helvetica-41" d="M 2844 1881 
L 2147 3909 
L 1406 1881 
L 2844 1881 
z
M 1822 4591 
L 2525 4591 
L 4191 0 
L 3509 0 
L 3044 1375 
L 1228 1375 
L 731 0 
L 94 0 
L 1822 4591 
z
" transform="scale(0.015625)"/>
      <path id="Helvetica-46" d="M 547 4591 
L 3731 4591 
L 3731 4028 
L 1169 4028 
L 1169 2634 
L 3422 2634 
L 3422 2088 
L 1169 2088 
L 1169 0 
L 547 0 
L 547 4591 
z
" transform="scale(0.015625)"/>
      <path id="Helvetica-50" d="M 547 4591 
L 2613 4591 
Q 3225 4591 3600 4245 
Q 3975 3900 3975 3275 
Q 3975 2738 3640 2339 
Q 3306 1941 2613 1941 
L 1169 1941 
L 1169 0 
L 547 0 
L 547 4591 
z
M 3347 3272 
Q 3347 3778 2972 3959 
Q 2766 4056 2406 4056 
L 1169 4056 
L 1169 2466 
L 2406 2466 
Q 2825 2466 3086 2644 
Q 3347 2822 3347 3272 
z
" transform="scale(0.015625)"/>
      <path id="Helvetica-49" d="M 628 4591 
L 1256 4591 
L 1256 0 
L 628 0 
L 628 4591 
z
" transform="scale(0.015625)"/>
      <path id="Helvetica-53" d="M 894 1481 
Q 916 1091 1078 847 
Q 1388 391 2169 391 
Q 2519 391 2806 491 
Q 3363 684 3363 1184 
Q 3363 1559 3128 1719 
Q 2891 1875 2384 1991 
L 1763 2131 
Q 1153 2269 900 2434 
Q 463 2722 463 3294 
Q 463 3913 891 4309 
Q 1319 4706 2103 4706 
Q 2825 4706 3329 4357 
Q 3834 4009 3834 3244 
L 3250 3244 
Q 3203 3613 3050 3809 
Q 2766 4169 2084 4169 
Q 1534 4169 1293 3937 
Q 1053 3706 1053 3400 
Q 1053 3063 1334 2906 
Q 1519 2806 2169 2656 
L 2813 2509 
Q 3278 2403 3531 2219 
Q 3969 1897 3969 1284 
Q 3969 522 3414 194 
Q 2859 -134 2125 -134 
Q 1269 -134 784 303 
Q 300 738 309 1481 
L 894 1481 
z
M 2150 4716 
L 2150 4716 
z
" transform="scale(0.015625)"/>
      <path id="Helvetica-45" d="M 547 4591 
L 3894 4591 
L 3894 4028 
L 1153 4028 
L 1153 2634 
L 3688 2634 
L 3688 2103 
L 1153 2103 
L 1153 547 
L 3941 547 
L 3941 0 
L 547 0 
L 547 4591 
z
M 2244 4591 
L 2244 4591 
z
" transform="scale(0.015625)"/>
      <path id="Helvetica-28" d="M 1894 4666 
Q 1403 3713 1256 3263 
Q 1034 2578 1034 1681 
Q 1034 775 1288 25 
Q 1444 -438 1903 -1306 
L 1525 -1306 
Q 1069 -594 959 -397 
Q 850 -200 722 138 
Q 547 600 478 1125 
Q 444 1397 444 1644 
Q 444 2569 734 3291 
Q 919 3750 1503 4666 
L 1894 4666 
z
" transform="scale(0.015625)"/>
      <path id="Helvetica-6d" d="M 413 3347 
L 969 3347 
L 969 2872 
Q 1169 3119 1331 3231 
Q 1609 3422 1963 3422 
Q 2363 3422 2606 3225 
Q 2744 3113 2856 2894 
Q 3044 3163 3297 3292 
Q 3550 3422 3866 3422 
Q 4541 3422 4784 2934 
Q 4916 2672 4916 2228 
L 4916 0 
L 4331 0 
L 4331 2325 
Q 4331 2659 4164 2784 
Q 3997 2909 3756 2909 
Q 3425 2909 3186 2687 
Q 2947 2466 2947 1947 
L 2947 0 
L 2375 0 
L 2375 2184 
Q 2375 2525 2294 2681 
Q 2166 2916 1816 2916 
Q 1497 2916 1236 2669 
Q 975 2422 975 1775 
L 975 0 
L 413 0 
L 413 3347 
z
" transform="scale(0.015625)"/>
      <path id="Helvetica-29" d="M 222 -1306 
Q 719 -338 863 106 
Q 1081 778 1081 1681 
Q 1081 2584 828 3334 
Q 672 3797 213 4666 
L 591 4666 
Q 1072 3897 1173 3717 
Q 1275 3538 1394 3222 
Q 1544 2831 1608 2450 
Q 1672 2069 1672 1716 
Q 1672 791 1378 66 
Q 1194 -400 613 -1306 
L 222 -1306 
z
" transform="scale(0.015625)"/>
     </defs>
     <use xlink:href="#Helvetica-41"/>
     <use xlink:href="#Helvetica-46" transform="translate(66.699219 0)"/>
     <use xlink:href="#Helvetica-32" transform="translate(127.783203 0)"/>
     <use xlink:href="#Helvetica-20" transform="translate(183.398438 0)"/>
     <use xlink:href="#Helvetica-41" transform="translate(211.181641 0)"/>
     <use xlink:href="#Helvetica-50" transform="translate(277.880859 0)"/>
     <use xlink:href="#Helvetica-50" transform="translate(344.580078 0)"/>
     <use xlink:href="#Helvetica-52" transform="translate(411.279297 0)"/>
     <use xlink:href="#Helvetica-41" transform="translate(483.496094 0)"/>
     <use xlink:href="#Helvetica-49" transform="translate(550.195312 0)"/>
     <use xlink:href="#Helvetica-53" transform="translate(577.978516 0)"/>
     <use xlink:href="#Helvetica-45" transform="translate(644.677734 0)"/>
     <use xlink:href="#Helvetica-20" transform="translate(711.376953 0)"/>
     <use xlink:href="#Helvetica-28" transform="translate(739.160156 0)"/>
     <use xlink:href="#Helvetica-6e" transform="translate(772.460938 0)"/>
     <use xlink:href="#Helvetica-6f" transform="translate(828.076172 0)"/>
     <use xlink:href="#Helvetica-20" transform="translate(883.691406 0)"/>
     <use xlink:href="#Helvetica-74" transform="translate(911.474609 0)"/>
     <use xlink:href="#Helvetica-65" transform="translate(939.257812 0)"/>
     <use xlink:href="#Helvetica-6d" transform="translate(994.873047 0)"/>
     <use xlink:href="#Helvetica-70" transform="translate(1078.173828 0)"/>
     <use xlink:href="#Helvetica-6c" transform="translate(1133.789062 0)"/>
     <use xlink:href="#Helvetica-61" transform="translate(1156.005859 0)"/>
     <use xlink:href="#Helvetica-74" transform="translate(1211.621094 0)"/>
     <use xlink:href="#Helvetica-65" transform="translate(1239.404297 0)"/>
     <use xlink:href="#Helvetica-73" transform="translate(1295.019531 0)"/>
     <use xlink:href="#Helvetica-29" transform="translate(1345.019531 0)"/>
     <use xlink:href="#Helvetica-20" transform="translate(1378.320312 0)"/>
     <use xlink:href="#Helvetica-76" transform="translate(1406.103516 0)"/>
     <use xlink:href="#Helvetica-73" transform="translate(1456.103516 0)"/>
     <use xlink:href="#Helvetica-20" transform="translate(1506.103516 0)"/>
     <use xlink:href="#Helvetica-67" transform="translate(1533.886719 0)"/>
     <use xlink:href="#Helvetica-70" transform="translate(1589.501953 0)"/>
     <use xlink:href="#Helvetica-63" transform="translate(1645.117188 0)"/>
     <use xlink:href="#Helvetica-72" transform="translate(1695.117188 0)"/>
     <use xlink:href="#Helvetica-20" transform="translate(1728.417969 0)"/>
     <use xlink:href="#Helvetica-73" transform="translate(1756.201172 0)"/>
     <use xlink:href="#Helvetica-65" transform="translate(1806.201172 0)"/>
     <use xlink:href="#Helvetica-6c" transform="translate(1861.816406 0)"/>
     <use xlink:href="#Helvetica-65" transform="translate(1884.033203 0)"/>
     <use xlink:href="#Helvetica-63" transform="translate(1939.648438 0)"/>
     <use xlink:href="#Helvetica-74" transform="translate(1989.648438 0)"/>
     <use xlink:href="#Helvetica-69" transform="translate(2017.431641 0)"/>
     <use xlink:href="#Helvetica-76" transform="translate(2039.648438 0)"/>
     <use xlink:href="#Helvetica-69" transform="translate(2089.648438 0)"/>
     <use xlink:href="#Helvetica-74" transform="translate(2111.865234 0)"/>
     <use xlink:href="#Helvetica-79" transform="translate(2139.648438 0)"/>
    </g>
   </g>
  </g>
 </g>
 <defs>
  <clipPath id="p51f69987b5">
   <rect x="43.62" y="24.21375" width="124.95" height="113.96625"/>
  </clipPath>
 </defs>
</svg>
