<?xml version="1.0" encoding="utf-8" standalone="no"?>
<!DOCTYPE svg PUBLIC "-//W3C//DTD SVG 1.1//EN"
  "http://www.w3.org/Graphics/SVG/1.1/DTD/svg11.dtd">
<svg xmlns:xlink="http://www.w3.org/1999/xlink" width="162pt" height="162pt" viewBox="0 0 162 162" xmlns="http://www.w3.org/2000/svg" version="1.1">
 <metadata>
  <rdf:RDF xmlns:dc="http://purl.org/dc/elements/1.1/" xmlns:cc="http://creativecommons.org/ns#" xmlns:rdf="http://www.w3.org/1999/02/22-rdf-syntax-ns#">
   <cc:Work>
    <dc:type rdf:resource="http://purl.org/dc/dcmitype/StillImage"/>
    <dc:date>2025-03-07T14:31:16.812856</dc:date>
    <dc:format>image/svg+xml</dc:format>
    <dc:creator>
     <cc:Agent>
      <dc:title>Matplotlib v3.10.0, https://matplotlib.org/</dc:title>
     </cc:Agent>
    </dc:creator>
   </cc:Work>
  </rdf:RDF>
 </metadata>
 <defs>
  <style type="text/css">*{stroke-linejoin: round; stroke-linecap: butt}</style>
 </defs>
 <g id="figure_1">
  <g id="patch_1">
   <path d="M 0 162 
L 162 162 
L 162 0 
L 0 0 
z
" style="fill: #ffffff"/>
  </g>
  <g id="axes_1">
   <g id="patch_2">
    <path d="M 43.62 120.18 
L 144.945 120.18 
L 144.945 24.21375 
L 43.62 24.21375 
z
" style="fill: #ffffff"/>
   </g>
   <g id="matplotlib.axis_1">
    <g id="xtick_1">
     <g id="line2d_1">
      <path d="M 71.254091 120.18 
L 71.254091 24.21375 
" clip-path="url(#p5fab95a30e)" style="fill: none; stroke: #cccccc; stroke-width: 0.8; stroke-linecap: round"/>
     </g>
     <g id="text_1">
      <!-- 2.5 -->
      <g style="fill: #262626" transform="translate(64.304091 135.653437) scale(0.1 -0.1)">
       <defs>
        <path id="Helvetica-32" d="M 200 0 
Q 231 578 439 1006 
Q 647 1434 1250 1784 
L 1850 2131 
Q 2253 2366 2416 2531 
Q 2672 2791 2672 3125 
Q 2672 3516 2437 3745 
Q 2203 3975 1813 3975 
Q 1234 3975 1013 3538 
Q 894 3303 881 2888 
L 309 2888 
Q 319 3472 525 3841 
Q 891 4491 1816 4491 
Q 2584 4491 2939 4075 
Q 3294 3659 3294 3150 
Q 3294 2613 2916 2231 
Q 2697 2009 2131 1694 
L 1703 1456 
Q 1397 1288 1222 1134 
Q 909 863 828 531 
L 3272 531 
L 3272 0 
L 200 0 
z
" transform="scale(0.015625)"/>
        <path id="Helvetica-2e" d="M 547 681 
L 1200 681 
L 1200 0 
L 547 0 
L 547 681 
z
" transform="scale(0.015625)"/>
        <path id="Helvetica-35" d="M 791 1141 
Q 847 659 1238 475 
Q 1438 381 1700 381 
Q 2200 381 2440 700 
Q 2681 1019 2681 1406 
Q 2681 1875 2395 2131 
Q 2109 2388 1709 2388 
Q 1419 2388 1211 2275 
Q 1003 2163 856 1963 
L 369 1991 
L 709 4400 
L 3034 4400 
L 3034 3856 
L 1131 3856 
L 941 2613 
Q 1097 2731 1238 2791 
Q 1488 2894 1816 2894 
Q 2431 2894 2859 2497 
Q 3288 2100 3288 1491 
Q 3288 856 2895 371 
Q 2503 -113 1644 -113 
Q 1097 -113 676 195 
Q 256 503 206 1141 
L 791 1141 
z
" transform="scale(0.015625)"/>
       </defs>
       <use xlink:href="#Helvetica-32"/>
       <use xlink:href="#Helvetica-2e" transform="translate(55.615234 0)"/>
       <use xlink:href="#Helvetica-35" transform="translate(83.398438 0)"/>
      </g>
     </g>
    </g>
    <g id="xtick_2">
     <g id="line2d_2">
      <path d="M 109.634773 120.18 
L 109.634773 24.21375 
" clip-path="url(#p5fab95a30e)" style="fill: none; stroke: #cccccc; stroke-width: 0.8; stroke-linecap: round"/>
     </g>
     <g id="text_2">
      <!-- 5.0 -->
      <g style="fill: #262626" transform="translate(102.684773 135.653437) scale(0.1 -0.1)">
       <defs>
        <path id="Helvetica-30" d="M 1731 4475 
Q 2600 4475 2988 3759 
Q 3288 3206 3288 2244 
Q 3288 1331 3016 734 
Q 2622 -122 1728 -122 
Q 922 -122 528 578 
Q 200 1163 200 2147 
Q 200 2909 397 3456 
Q 766 4475 1731 4475 
z
M 1725 391 
Q 2163 391 2422 778 
Q 2681 1166 2681 2222 
Q 2681 2984 2493 3476 
Q 2306 3969 1766 3969 
Q 1269 3969 1039 3501 
Q 809 3034 809 2125 
Q 809 1441 956 1025 
Q 1181 391 1725 391 
z
" transform="scale(0.015625)"/>
       </defs>
       <use xlink:href="#Helvetica-35"/>
       <use xlink:href="#Helvetica-2e" transform="translate(55.615234 0)"/>
       <use xlink:href="#Helvetica-30" transform="translate(83.398438 0)"/>
      </g>
     </g>
    </g>
    <g id="text_3">
     <!-- agonist selectivity -->
     <g style="fill: #262626" transform="translate(55.099688 148.91125) scale(0.1 -0.1)">
      <defs>
       <path id="Helvetica-61" d="M 844 891 
Q 844 647 1022 506 
Q 1200 366 1444 366 
Q 1741 366 2019 503 
Q 2488 731 2488 1250 
L 2488 1703 
Q 2384 1638 2221 1594 
Q 2059 1550 1903 1531 
L 1563 1488 
Q 1256 1447 1103 1359 
Q 844 1213 844 891 
z
M 2206 2028 
Q 2400 2053 2466 2191 
Q 2503 2266 2503 2406 
Q 2503 2694 2298 2823 
Q 2094 2953 1713 2953 
Q 1272 2953 1088 2716 
Q 984 2584 953 2325 
L 428 2325 
Q 444 2944 830 3186 
Q 1216 3428 1725 3428 
Q 2316 3428 2684 3203 
Q 3050 2978 3050 2503 
L 3050 575 
Q 3050 488 3086 434 
Q 3122 381 3238 381 
Q 3275 381 3322 386 
Q 3369 391 3422 400 
L 3422 -16 
Q 3291 -53 3222 -62 
Q 3153 -72 3034 -72 
Q 2744 -72 2613 134 
Q 2544 244 2516 444 
Q 2344 219 2022 53 
Q 1700 -113 1313 -113 
Q 847 -113 551 170 
Q 256 453 256 878 
Q 256 1344 547 1600 
Q 838 1856 1309 1916 
L 2206 2028 
z
M 1741 3428 
L 1741 3428 
z
" transform="scale(0.015625)"/>
       <path id="Helvetica-67" d="M 1594 3406 
Q 1988 3406 2281 3213 
Q 2441 3103 2606 2894 
L 2606 3316 
L 3125 3316 
L 3125 272 
Q 3125 -366 2938 -734 
Q 2588 -1416 1616 -1416 
Q 1075 -1416 706 -1173 
Q 338 -931 294 -416 
L 866 -416 
Q 906 -641 1028 -763 
Q 1219 -950 1628 -950 
Q 2275 -950 2475 -494 
Q 2594 -225 2584 466 
Q 2416 209 2178 84 
Q 1941 -41 1550 -41 
Q 1006 -41 598 345 
Q 191 731 191 1622 
Q 191 2463 602 2934 
Q 1013 3406 1594 3406 
z
M 2606 1688 
Q 2606 2309 2350 2609 
Q 2094 2909 1697 2909 
Q 1103 2909 884 2353 
Q 769 2056 769 1575 
Q 769 1009 998 714 
Q 1228 419 1616 419 
Q 2222 419 2469 966 
Q 2606 1275 2606 1688 
z
M 1659 3428 
L 1659 3428 
z
" transform="scale(0.015625)"/>
       <path id="Helvetica-6f" d="M 1741 363 
Q 2300 363 2508 786 
Q 2716 1209 2716 1728 
Q 2716 2197 2566 2491 
Q 2328 2953 1747 2953 
Q 1231 2953 997 2559 
Q 763 2166 763 1609 
Q 763 1075 997 719 
Q 1231 363 1741 363 
z
M 1763 3444 
Q 2409 3444 2856 3012 
Q 3303 2581 3303 1744 
Q 3303 934 2909 406 
Q 2516 -122 1688 -122 
Q 997 -122 590 345 
Q 184 813 184 1600 
Q 184 2444 612 2944 
Q 1041 3444 1763 3444 
z
M 1744 3428 
L 1744 3428 
z
" transform="scale(0.015625)"/>
       <path id="Helvetica-6e" d="M 413 3347 
L 947 3347 
L 947 2872 
Q 1184 3166 1450 3294 
Q 1716 3422 2041 3422 
Q 2753 3422 3003 2925 
Q 3141 2653 3141 2147 
L 3141 0 
L 2569 0 
L 2569 2109 
Q 2569 2416 2478 2603 
Q 2328 2916 1934 2916 
Q 1734 2916 1606 2875 
Q 1375 2806 1200 2600 
Q 1059 2434 1017 2257 
Q 975 2081 975 1753 
L 975 0 
L 413 0 
L 413 3347 
z
M 1734 3428 
L 1734 3428 
z
" transform="scale(0.015625)"/>
       <path id="Helvetica-69" d="M 413 3331 
L 984 3331 
L 984 0 
L 413 0 
L 413 3331 
z
M 413 4591 
L 984 4591 
L 984 3953 
L 413 3953 
L 413 4591 
z
" transform="scale(0.015625)"/>
       <path id="Helvetica-73" d="M 747 1050 
Q 772 769 888 619 
Q 1100 347 1625 347 
Q 1938 347 2175 483 
Q 2413 619 2413 903 
Q 2413 1119 2222 1231 
Q 2100 1300 1741 1391 
L 1294 1503 
Q 866 1609 663 1741 
Q 300 1969 300 2372 
Q 300 2847 642 3140 
Q 984 3434 1563 3434 
Q 2319 3434 2653 2991 
Q 2863 2709 2856 2384 
L 2325 2384 
Q 2309 2575 2191 2731 
Q 1997 2953 1519 2953 
Q 1200 2953 1036 2831 
Q 872 2709 872 2509 
Q 872 2291 1088 2159 
Q 1213 2081 1456 2022 
L 1828 1931 
Q 2434 1784 2641 1647 
Q 2969 1431 2969 969 
Q 2969 522 2630 197 
Q 2291 -128 1597 -128 
Q 850 -128 539 211 
Q 228 550 206 1050 
L 747 1050 
z
M 1578 3428 
L 1578 3428 
z
" transform="scale(0.015625)"/>
       <path id="Helvetica-74" d="M 525 4281 
L 1094 4281 
L 1094 3347 
L 1628 3347 
L 1628 2888 
L 1094 2888 
L 1094 703 
Q 1094 528 1213 469 
Q 1278 434 1431 434 
Q 1472 434 1519 436 
Q 1566 438 1628 444 
L 1628 0 
Q 1531 -28 1426 -40 
Q 1322 -53 1200 -53 
Q 806 -53 665 148 
Q 525 350 525 672 
L 525 2888 
L 72 2888 
L 72 3347 
L 525 3347 
L 525 4281 
z
" transform="scale(0.015625)"/>
       <path id="Helvetica-20" transform="scale(0.015625)"/>
       <path id="Helvetica-65" d="M 1806 3422 
Q 2163 3422 2497 3255 
Q 2831 3088 3006 2822 
Q 3175 2569 3231 2231 
Q 3281 2000 3281 1494 
L 828 1494 
Q 844 984 1069 676 
Q 1294 369 1766 369 
Q 2206 369 2469 659 
Q 2619 828 2681 1050 
L 3234 1050 
Q 3213 866 3089 639 
Q 2966 413 2813 269 
Q 2556 19 2178 -69 
Q 1975 -119 1719 -119 
Q 1094 -119 659 336 
Q 225 791 225 1609 
Q 225 2416 662 2919 
Q 1100 3422 1806 3422 
z
M 2703 1941 
Q 2669 2306 2544 2525 
Q 2313 2931 1772 2931 
Q 1384 2931 1121 2651 
Q 859 2372 844 1941 
L 2703 1941 
z
M 1753 3428 
L 1753 3428 
z
" transform="scale(0.015625)"/>
       <path id="Helvetica-6c" d="M 428 4591 
L 991 4591 
L 991 0 
L 428 0 
L 428 4591 
z
" transform="scale(0.015625)"/>
       <path id="Helvetica-63" d="M 1703 3444 
Q 2269 3444 2623 3169 
Q 2978 2894 3050 2222 
L 2503 2222 
Q 2453 2531 2275 2736 
Q 2097 2941 1703 2941 
Q 1166 2941 934 2416 
Q 784 2075 784 1575 
Q 784 1072 996 728 
Q 1209 384 1666 384 
Q 2016 384 2220 598 
Q 2425 813 2503 1184 
L 3050 1184 
Q 2956 519 2581 211 
Q 2206 -97 1622 -97 
Q 966 -97 575 383 
Q 184 863 184 1581 
Q 184 2463 612 2953 
Q 1041 3444 1703 3444 
z
M 1616 3428 
L 1616 3428 
z
" transform="scale(0.015625)"/>
       <path id="Helvetica-76" d="M 688 3347 
L 1581 622 
L 2516 3347 
L 3131 3347 
L 1869 0 
L 1269 0 
L 34 3347 
L 688 3347 
z
" transform="scale(0.015625)"/>
       <path id="Helvetica-79" d="M 2503 3347 
L 3125 3347 
Q 3006 3025 2597 1878 
Q 2291 1016 2084 472 
Q 1597 -809 1397 -1090 
Q 1197 -1372 709 -1372 
Q 591 -1372 527 -1362 
Q 463 -1353 369 -1328 
L 369 -816 
Q 516 -856 581 -865 
Q 647 -875 697 -875 
Q 853 -875 926 -823 
Q 1000 -772 1050 -697 
Q 1066 -672 1162 -440 
Q 1259 -209 1303 -97 
L 66 3347 
L 703 3347 
L 1600 622 
L 2503 3347 
z
M 1597 3428 
L 1597 3428 
z
" transform="scale(0.015625)"/>
      </defs>
      <use xlink:href="#Helvetica-61"/>
      <use xlink:href="#Helvetica-67" transform="translate(55.615234 0)"/>
      <use xlink:href="#Helvetica-6f" transform="translate(111.230469 0)"/>
      <use xlink:href="#Helvetica-6e" transform="translate(166.845703 0)"/>
      <use xlink:href="#Helvetica-69" transform="translate(222.460938 0)"/>
      <use xlink:href="#Helvetica-73" transform="translate(244.677734 0)"/>
      <use xlink:href="#Helvetica-74" transform="translate(294.677734 0)"/>
      <use xlink:href="#Helvetica-20" transform="translate(322.460938 0)"/>
      <use xlink:href="#Helvetica-73" transform="translate(350.244141 0)"/>
      <use xlink:href="#Helvetica-65" transform="translate(400.244141 0)"/>
      <use xlink:href="#Helvetica-6c" transform="translate(455.859375 0)"/>
      <use xlink:href="#Helvetica-65" transform="translate(478.076172 0)"/>
      <use xlink:href="#Helvetica-63" transform="translate(533.691406 0)"/>
      <use xlink:href="#Helvetica-74" transform="translate(583.691406 0)"/>
      <use xlink:href="#Helvetica-69" transform="translate(611.474609 0)"/>
      <use xlink:href="#Helvetica-76" transform="translate(633.691406 0)"/>
      <use xlink:href="#Helvetica-69" transform="translate(683.691406 0)"/>
      <use xlink:href="#Helvetica-74" transform="translate(705.908203 0)"/>
      <use xlink:href="#Helvetica-79" transform="translate(733.691406 0)"/>
     </g>
    </g>
   </g>
   <g id="matplotlib.axis_2">
    <g id="ytick_1">
     <g id="line2d_3">
      <path d="M 43.62 120.18 
L 144.945 120.18 
" clip-path="url(#p5fab95a30e)" style="fill: none; stroke: #cccccc; stroke-width: 0.8; stroke-linecap: round"/>
     </g>
     <g id="text_4">
      <!-- 0 -->
      <g style="fill: #262626" transform="translate(29.759063 123.766719) scale(0.1 -0.1)">
       <use xlink:href="#Helvetica-30"/>
      </g>
     </g>
    </g>
    <g id="ytick_2">
     <g id="line2d_4">
      <path d="M 43.62 111.99287 
L 144.945 111.99287 
" clip-path="url(#p5fab95a30e)" style="fill: none; stroke: #cccccc; stroke-width: 0.8; stroke-linecap: round"/>
     </g>
     <g id="text_5">
      <!-- 1 -->
      <g style="fill: #262626" transform="translate(29.759063 115.579589) scale(0.1 -0.1)">
       <defs>
        <path id="Helvetica-31" d="M 613 3169 
L 613 3600 
Q 1222 3659 1462 3798 
Q 1703 3938 1822 4456 
L 2266 4456 
L 2266 0 
L 1666 0 
L 1666 3169 
L 613 3169 
z
" transform="scale(0.015625)"/>
       </defs>
       <use xlink:href="#Helvetica-31"/>
      </g>
     </g>
    </g>
    <g id="ytick_3">
     <g id="line2d_5">
      <path d="M 43.62 103.80574 
L 144.945 103.80574 
" clip-path="url(#p5fab95a30e)" style="fill: none; stroke: #cccccc; stroke-width: 0.8; stroke-linecap: round"/>
     </g>
     <g id="text_6">
      <!-- 2 -->
      <g style="fill: #262626" transform="translate(29.759063 107.392459) scale(0.1 -0.1)">
       <use xlink:href="#Helvetica-32"/>
      </g>
     </g>
    </g>
    <g id="ytick_4">
     <g id="line2d_6">
      <path d="M 43.62 95.61861 
L 144.945 95.61861 
" clip-path="url(#p5fab95a30e)" style="fill: none; stroke: #cccccc; stroke-width: 0.8; stroke-linecap: round"/>
     </g>
     <g id="text_7">
      <!-- 3 -->
      <g style="fill: #262626" transform="translate(29.759063 99.205329) scale(0.1 -0.1)">
       <defs>
        <path id="Helvetica-33" d="M 1663 -122 
Q 869 -122 511 314 
Q 153 750 153 1375 
L 741 1375 
Q 778 941 903 744 
Q 1122 391 1694 391 
Q 2138 391 2406 628 
Q 2675 866 2675 1241 
Q 2675 1703 2392 1887 
Q 2109 2072 1606 2072 
Q 1550 2072 1492 2070 
Q 1434 2069 1375 2066 
L 1375 2563 
Q 1463 2553 1522 2550 
Q 1581 2547 1650 2547 
Q 1966 2547 2169 2647 
Q 2525 2822 2525 3272 
Q 2525 3606 2287 3787 
Q 2050 3969 1734 3969 
Q 1172 3969 956 3594 
Q 838 3388 822 3006 
L 266 3006 
Q 266 3506 466 3856 
Q 809 4481 1675 4481 
Q 2359 4481 2734 4176 
Q 3109 3872 3109 3294 
Q 3109 2881 2888 2625 
Q 2750 2466 2531 2375 
Q 2884 2278 3082 2001 
Q 3281 1725 3281 1325 
Q 3281 684 2859 281 
Q 2438 -122 1663 -122 
z
" transform="scale(0.015625)"/>
       </defs>
       <use xlink:href="#Helvetica-33"/>
      </g>
     </g>
    </g>
    <g id="ytick_5">
     <g id="line2d_7">
      <path d="M 43.62 87.43148 
L 144.945 87.43148 
" clip-path="url(#p5fab95a30e)" style="fill: none; stroke: #cccccc; stroke-width: 0.8; stroke-linecap: round"/>
     </g>
     <g id="text_8">
      <!-- 4 -->
      <g style="fill: #262626" transform="translate(29.759063 91.018199) scale(0.1 -0.1)">
       <defs>
        <path id="Helvetica-34" d="M 2116 1584 
L 2116 3613 
L 681 1584 
L 2116 1584 
z
M 2125 0 
L 2125 1094 
L 163 1094 
L 163 1644 
L 2213 4488 
L 2688 4488 
L 2688 1584 
L 3347 1584 
L 3347 1094 
L 2688 1094 
L 2688 0 
L 2125 0 
z
" transform="scale(0.015625)"/>
       </defs>
       <use xlink:href="#Helvetica-34"/>
      </g>
     </g>
    </g>
    <g id="ytick_6">
     <g id="line2d_8">
      <path d="M 43.62 79.24435 
L 144.945 79.24435 
" clip-path="url(#p5fab95a30e)" style="fill: none; stroke: #cccccc; stroke-width: 0.8; stroke-linecap: round"/>
     </g>
     <g id="text_9">
      <!-- 5 -->
      <g style="fill: #262626" transform="translate(29.759063 82.831069) scale(0.1 -0.1)">
       <use xlink:href="#Helvetica-35"/>
      </g>
     </g>
    </g>
    <g id="ytick_7">
     <g id="line2d_9">
      <path d="M 43.62 71.05722 
L 144.945 71.05722 
" clip-path="url(#p5fab95a30e)" style="fill: none; stroke: #cccccc; stroke-width: 0.8; stroke-linecap: round"/>
     </g>
     <g id="text_10">
      <!-- 6 -->
      <g style="fill: #262626" transform="translate(29.759063 74.643939) scale(0.1 -0.1)">
       <defs>
        <path id="Helvetica-36" d="M 1872 4494 
Q 2622 4494 2917 4105 
Q 3213 3716 3213 3303 
L 2656 3303 
Q 2606 3569 2497 3719 
Q 2294 4000 1881 4000 
Q 1409 4000 1131 3564 
Q 853 3128 822 2316 
Q 1016 2600 1309 2741 
Q 1578 2866 1909 2866 
Q 2472 2866 2890 2506 
Q 3309 2147 3309 1434 
Q 3309 825 2912 354 
Q 2516 -116 1781 -116 
Q 1153 -116 697 361 
Q 241 838 241 1966 
Q 241 2800 444 3381 
Q 834 4494 1872 4494 
z
M 1831 384 
Q 2275 384 2495 682 
Q 2716 981 2716 1388 
Q 2716 1731 2519 2042 
Q 2322 2353 1803 2353 
Q 1441 2353 1167 2112 
Q 894 1872 894 1388 
Q 894 963 1142 673 
Q 1391 384 1831 384 
z
" transform="scale(0.015625)"/>
       </defs>
       <use xlink:href="#Helvetica-36"/>
      </g>
     </g>
    </g>
    <g id="ytick_8">
     <g id="line2d_10">
      <path d="M 43.62 62.87009 
L 144.945 62.87009 
" clip-path="url(#p5fab95a30e)" style="fill: none; stroke: #cccccc; stroke-width: 0.8; stroke-linecap: round"/>
     </g>
     <g id="text_11">
      <!-- 7 -->
      <g style="fill: #262626" transform="translate(29.759063 66.456809) scale(0.1 -0.1)">
       <defs>
        <path id="Helvetica-37" d="M 3347 4400 
L 3347 3909 
Q 3131 3700 2773 3181 
Q 2416 2663 2141 2063 
Q 1869 1478 1728 997 
Q 1638 688 1494 0 
L 872 0 
Q 1084 1281 1809 2550 
Q 2238 3294 2709 3834 
L 234 3834 
L 234 4400 
L 3347 4400 
z
" transform="scale(0.015625)"/>
       </defs>
       <use xlink:href="#Helvetica-37"/>
      </g>
     </g>
    </g>
    <g id="ytick_9">
     <g id="line2d_11">
      <path d="M 43.62 54.68296 
L 144.945 54.68296 
" clip-path="url(#p5fab95a30e)" style="fill: none; stroke: #cccccc; stroke-width: 0.8; stroke-linecap: round"/>
     </g>
     <g id="text_12">
      <!-- 8 -->
      <g style="fill: #262626" transform="translate(29.759063 58.269679) scale(0.1 -0.1)">
       <defs>
        <path id="Helvetica-38" d="M 1741 2600 
Q 2113 2600 2322 2808 
Q 2531 3016 2531 3303 
Q 2531 3553 2331 3762 
Q 2131 3972 1722 3972 
Q 1316 3972 1134 3762 
Q 953 3553 953 3272 
Q 953 2956 1187 2778 
Q 1422 2600 1741 2600 
z
M 1775 384 
Q 2166 384 2423 595 
Q 2681 806 2681 1225 
Q 2681 1659 2415 1884 
Q 2150 2109 1734 2109 
Q 1331 2109 1076 1879 
Q 822 1650 822 1244 
Q 822 894 1055 639 
Q 1288 384 1775 384 
z
M 975 2384 
Q 741 2484 609 2619 
Q 363 2869 363 3269 
Q 363 3769 725 4128 
Q 1088 4488 1753 4488 
Q 2397 4488 2762 4148 
Q 3128 3809 3128 3356 
Q 3128 2938 2916 2678 
Q 2797 2531 2547 2391 
Q 2825 2263 2984 2097 
Q 3281 1784 3281 1284 
Q 3281 694 2884 283 
Q 2488 -128 1763 -128 
Q 1109 -128 657 226 
Q 206 581 206 1256 
Q 206 1653 400 1942 
Q 594 2231 975 2384 
z
" transform="scale(0.015625)"/>
       </defs>
       <use xlink:href="#Helvetica-38"/>
      </g>
     </g>
    </g>
    <g id="ytick_10">
     <g id="line2d_12">
      <path d="M 43.62 46.49583 
L 144.945 46.49583 
" clip-path="url(#p5fab95a30e)" style="fill: none; stroke: #cccccc; stroke-width: 0.8; stroke-linecap: round"/>
     </g>
     <g id="text_13">
      <!-- 9 -->
      <g style="fill: #262626" transform="translate(29.759063 50.082549) scale(0.1 -0.1)">
       <defs>
        <path id="Helvetica-39" d="M 850 1081 
Q 875 616 1209 438 
Q 1381 344 1597 344 
Q 2000 344 2284 680 
Q 2569 1016 2688 2044 
Q 2500 1747 2223 1626 
Q 1947 1506 1628 1506 
Q 981 1506 604 1909 
Q 228 2313 228 2947 
Q 228 3556 600 4018 
Q 972 4481 1697 4481 
Q 2675 4481 3047 3600 
Q 3253 3116 3253 2388 
Q 3253 1566 3006 931 
Q 2597 -125 1619 -125 
Q 963 -125 622 219 
Q 281 563 281 1081 
L 850 1081 
z
M 1703 2000 
Q 2038 2000 2314 2220 
Q 2591 2441 2591 2991 
Q 2591 3484 2342 3726 
Q 2094 3969 1709 3969 
Q 1297 3969 1055 3692 
Q 813 3416 813 2953 
Q 813 2516 1025 2258 
Q 1238 2000 1703 2000 
z
" transform="scale(0.015625)"/>
       </defs>
       <use xlink:href="#Helvetica-39"/>
      </g>
     </g>
    </g>
    <g id="ytick_11">
     <g id="line2d_13">
      <path d="M 43.62 38.3087 
L 144.945 38.3087 
" clip-path="url(#p5fab95a30e)" style="fill: none; stroke: #cccccc; stroke-width: 0.8; stroke-linecap: round"/>
     </g>
     <g id="text_14">
      <!-- 10 -->
      <g style="fill: #262626" transform="translate(24.198125 41.895419) scale(0.1 -0.1)">
       <use xlink:href="#Helvetica-31"/>
       <use xlink:href="#Helvetica-30" transform="translate(55.615234 0)"/>
      </g>
     </g>
    </g>
    <g id="ytick_12">
     <g id="line2d_14">
      <path d="M 43.62 30.12157 
L 144.945 30.12157 
" clip-path="url(#p5fab95a30e)" style="fill: none; stroke: #cccccc; stroke-width: 0.8; stroke-linecap: round"/>
     </g>
     <g id="text_15">
      <!-- 11 -->
      <g style="fill: #262626" transform="translate(24.198125 33.708289) scale(0.1 -0.1)">
       <use xlink:href="#Helvetica-31"/>
       <use xlink:href="#Helvetica-31" transform="translate(55.615234 0)"/>
      </g>
     </g>
    </g>
    <g id="text_16">
     <!-- Rank -->
     <g style="fill: #262626" transform="translate(18.11375 83.86875) rotate(-90) scale(0.1 -0.1)">
      <defs>
       <path id="Helvetica-52" d="M 2622 2488 
Q 3059 2488 3314 2663 
Q 3569 2838 3569 3294 
Q 3569 3784 3213 3963 
Q 3022 4056 2703 4056 
L 1184 4056 
L 1184 2488 
L 2622 2488 
z
M 563 4591 
L 2688 4591 
Q 3213 4591 3553 4438 
Q 4200 4144 4200 3353 
Q 4200 2941 4029 2678 
Q 3859 2416 3553 2256 
Q 3822 2147 3958 1969 
Q 4094 1791 4109 1391 
L 4131 775 
Q 4141 513 4175 384 
Q 4231 166 4375 103 
L 4375 0 
L 3613 0 
Q 3581 59 3562 153 
Q 3544 247 3531 516 
L 3494 1281 
Q 3472 1731 3159 1884 
Q 2981 1969 2600 1969 
L 1184 1969 
L 1184 0 
L 563 0 
L 563 4591 
z
" transform="scale(0.015625)"/>
       <path id="Helvetica-6b" d="M 400 4591 
L 941 4591 
L 941 1925 
L 2384 3347 
L 3103 3347 
L 1822 2094 
L 3175 0 
L 2456 0 
L 1413 1688 
L 941 1256 
L 941 0 
L 400 0 
L 400 4591 
z
" transform="scale(0.015625)"/>
      </defs>
      <use xlink:href="#Helvetica-52"/>
      <use xlink:href="#Helvetica-61" transform="translate(72.216797 0)"/>
      <use xlink:href="#Helvetica-6e" transform="translate(127.832031 0)"/>
      <use xlink:href="#Helvetica-6b" transform="translate(183.447266 0)"/>
     </g>
    </g>
   </g>
   <g id="PathCollection_1">
    <defs>
     <path id="m3d98ff97a4" d="M 0 2.4 
C 0.636487 2.4 1.246992 2.147121 1.697056 1.697056 
C 2.147121 1.246992 2.4 0.636487 2.4 0 
C 2.4 -0.636487 2.147121 -1.246992 1.697056 -1.697056 
C 1.246992 -2.147121 0.636487 -2.4 0 -2.4 
C -0.636487 -2.4 -1.246992 -2.147121 -1.697056 -1.697056 
C -2.147121 -1.246992 -2.4 -0.636487 -2.4 0 
C -2.4 0.636487 -2.147121 1.246992 -1.697056 1.697056 
C -1.246992 2.147121 -0.636487 2.4 0 2.4 
z
" style="stroke: #1f77b4; stroke-opacity: 0.5"/>
    </defs>
    <g clip-path="url(#p5fab95a30e)">
     <use xlink:href="#m3d98ff97a4" x="63.577955" y="110.823544" style="fill: #1f77b4; fill-opacity: 0.5; stroke: #1f77b4; stroke-opacity: 0.5"/>
     <use xlink:href="#m3d98ff97a4" x="63.577955" y="113.396867" style="fill: #1f77b4; fill-opacity: 0.5; stroke: #1f77b4; stroke-opacity: 0.5"/>
     <use xlink:href="#m3d98ff97a4" x="78.930227" y="112.806766" style="fill: #1f77b4; fill-opacity: 0.5; stroke: #1f77b4; stroke-opacity: 0.5"/>
     <use xlink:href="#m3d98ff97a4" x="63.577955" y="111.914101" style="fill: #1f77b4; fill-opacity: 0.5; stroke: #1f77b4; stroke-opacity: 0.5"/>
     <use xlink:href="#m3d98ff97a4" x="140.339318" y="111.887638" style="fill: #1f77b4; fill-opacity: 0.5; stroke: #1f77b4; stroke-opacity: 0.5"/>
     <use xlink:href="#m3d98ff97a4" x="63.577955" y="113.465172" style="fill: #1f77b4; fill-opacity: 0.5; stroke: #1f77b4; stroke-opacity: 0.5"/>
     <use xlink:href="#m3d98ff97a4" x="78.930227" y="102.656771" style="fill: #1f77b4; fill-opacity: 0.5; stroke: #1f77b4; stroke-opacity: 0.5"/>
     <use xlink:href="#m3d98ff97a4" x="109.634773" y="113.321091" style="fill: #1f77b4; fill-opacity: 0.5; stroke: #1f77b4; stroke-opacity: 0.5"/>
     <use xlink:href="#m3d98ff97a4" x="94.2825" y="111.111451" style="fill: #1f77b4; fill-opacity: 0.5; stroke: #1f77b4; stroke-opacity: 0.5"/>
     <use xlink:href="#m3d98ff97a4" x="94.2825" y="112.768976" style="fill: #1f77b4; fill-opacity: 0.5; stroke: #1f77b4; stroke-opacity: 0.5"/>
     <use xlink:href="#m3d98ff97a4" x="48.225682" y="111.992679" style="fill: #1f77b4; fill-opacity: 0.5; stroke: #1f77b4; stroke-opacity: 0.5"/>
     <use xlink:href="#m3d98ff97a4" x="78.930227" y="111.646412" style="fill: #1f77b4; fill-opacity: 0.5; stroke: #1f77b4; stroke-opacity: 0.5"/>
     <use xlink:href="#m3d98ff97a4" x="63.577955" y="113.325504" style="fill: #1f77b4; fill-opacity: 0.5; stroke: #1f77b4; stroke-opacity: 0.5"/>
     <use xlink:href="#m3d98ff97a4" x="109.634773" y="112.377931" style="fill: #1f77b4; fill-opacity: 0.5; stroke: #1f77b4; stroke-opacity: 0.5"/>
     <use xlink:href="#m3d98ff97a4" x="48.225682" y="110.965323" style="fill: #1f77b4; fill-opacity: 0.5; stroke: #1f77b4; stroke-opacity: 0.5"/>
     <use xlink:href="#m3d98ff97a4" x="78.930227" y="86.483188" style="fill: #1f77b4; fill-opacity: 0.5; stroke: #1f77b4; stroke-opacity: 0.5"/>
     <use xlink:href="#m3d98ff97a4" x="78.930227" y="112.901279" style="fill: #1f77b4; fill-opacity: 0.5; stroke: #1f77b4; stroke-opacity: 0.5"/>
     <use xlink:href="#m3d98ff97a4" x="94.2825" y="112.242605" style="fill: #1f77b4; fill-opacity: 0.5; stroke: #1f77b4; stroke-opacity: 0.5"/>
     <use xlink:href="#m3d98ff97a4" x="94.2825" y="112.395928" style="fill: #1f77b4; fill-opacity: 0.5; stroke: #1f77b4; stroke-opacity: 0.5"/>
     <use xlink:href="#m3d98ff97a4" x="48.225682" y="111.193452" style="fill: #1f77b4; fill-opacity: 0.5; stroke: #1f77b4; stroke-opacity: 0.5"/>
     <use xlink:href="#m3d98ff97a4" x="109.634773" y="110.703849" style="fill: #1f77b4; fill-opacity: 0.5; stroke: #1f77b4; stroke-opacity: 0.5"/>
     <use xlink:href="#m3d98ff97a4" x="48.225682" y="112.339011" style="fill: #1f77b4; fill-opacity: 0.5; stroke: #1f77b4; stroke-opacity: 0.5"/>
     <use xlink:href="#m3d98ff97a4" x="109.634773" y="104.363334" style="fill: #1f77b4; fill-opacity: 0.5; stroke: #1f77b4; stroke-opacity: 0.5"/>
     <use xlink:href="#m3d98ff97a4" x="63.577955" y="112.284125" style="fill: #1f77b4; fill-opacity: 0.5; stroke: #1f77b4; stroke-opacity: 0.5"/>
     <use xlink:href="#m3d98ff97a4" x="63.577955" y="113.609202" style="fill: #1f77b4; fill-opacity: 0.5; stroke: #1f77b4; stroke-opacity: 0.5"/>
     <use xlink:href="#m3d98ff97a4" x="78.930227" y="111.856958" style="fill: #1f77b4; fill-opacity: 0.5; stroke: #1f77b4; stroke-opacity: 0.5"/>
     <use xlink:href="#m3d98ff97a4" x="48.225682" y="112.386282" style="fill: #1f77b4; fill-opacity: 0.5; stroke: #1f77b4; stroke-opacity: 0.5"/>
     <use xlink:href="#m3d98ff97a4" x="63.577955" y="104.743011" style="fill: #1f77b4; fill-opacity: 0.5; stroke: #1f77b4; stroke-opacity: 0.5"/>
     <use xlink:href="#m3d98ff97a4" x="63.577955" y="105.198857" style="fill: #1f77b4; fill-opacity: 0.5; stroke: #1f77b4; stroke-opacity: 0.5"/>
     <use xlink:href="#m3d98ff97a4" x="78.930227" y="112.60698" style="fill: #1f77b4; fill-opacity: 0.5; stroke: #1f77b4; stroke-opacity: 0.5"/>
     <use xlink:href="#m3d98ff97a4" x="63.577955" y="112.106743" style="fill: #1f77b4; fill-opacity: 0.5; stroke: #1f77b4; stroke-opacity: 0.5"/>
     <use xlink:href="#m3d98ff97a4" x="48.225682" y="110.889803" style="fill: #1f77b4; fill-opacity: 0.5; stroke: #1f77b4; stroke-opacity: 0.5"/>
     <use xlink:href="#m3d98ff97a4" x="63.577955" y="112.551419" style="fill: #1f77b4; fill-opacity: 0.5; stroke: #1f77b4; stroke-opacity: 0.5"/>
     <use xlink:href="#m3d98ff97a4" x="63.577955" y="110.42307" style="fill: #1f77b4; fill-opacity: 0.5; stroke: #1f77b4; stroke-opacity: 0.5"/>
     <use xlink:href="#m3d98ff97a4" x="63.577955" y="111.216185" style="fill: #1f77b4; fill-opacity: 0.5; stroke: #1f77b4; stroke-opacity: 0.5"/>
     <use xlink:href="#m3d98ff97a4" x="63.577955" y="102.757063" style="fill: #1f77b4; fill-opacity: 0.5; stroke: #1f77b4; stroke-opacity: 0.5"/>
     <use xlink:href="#m3d98ff97a4" x="63.577955" y="111.272861" style="fill: #1f77b4; fill-opacity: 0.5; stroke: #1f77b4; stroke-opacity: 0.5"/>
     <use xlink:href="#m3d98ff97a4" x="140.339318" y="112.599249" style="fill: #1f77b4; fill-opacity: 0.5; stroke: #1f77b4; stroke-opacity: 0.5"/>
     <use xlink:href="#m3d98ff97a4" x="78.930227" y="110.965992" style="fill: #1f77b4; fill-opacity: 0.5; stroke: #1f77b4; stroke-opacity: 0.5"/>
     <use xlink:href="#m3d98ff97a4" x="78.930227" y="112.336998" style="fill: #1f77b4; fill-opacity: 0.5; stroke: #1f77b4; stroke-opacity: 0.5"/>
     <use xlink:href="#m3d98ff97a4" x="63.577955" y="111.773868" style="fill: #1f77b4; fill-opacity: 0.5; stroke: #1f77b4; stroke-opacity: 0.5"/>
     <use xlink:href="#m3d98ff97a4" x="109.634773" y="112.304006" style="fill: #1f77b4; fill-opacity: 0.5; stroke: #1f77b4; stroke-opacity: 0.5"/>
     <use xlink:href="#m3d98ff97a4" x="48.225682" y="102.198557" style="fill: #1f77b4; fill-opacity: 0.5; stroke: #1f77b4; stroke-opacity: 0.5"/>
     <use xlink:href="#m3d98ff97a4" x="78.930227" y="113.139442" style="fill: #1f77b4; fill-opacity: 0.5; stroke: #1f77b4; stroke-opacity: 0.5"/>
     <use xlink:href="#m3d98ff97a4" x="63.577955" y="111.402626" style="fill: #1f77b4; fill-opacity: 0.5; stroke: #1f77b4; stroke-opacity: 0.5"/>
     <use xlink:href="#m3d98ff97a4" x="63.577955" y="111.453206" style="fill: #1f77b4; fill-opacity: 0.5; stroke: #1f77b4; stroke-opacity: 0.5"/>
     <use xlink:href="#m3d98ff97a4" x="94.2825" y="111.38457" style="fill: #1f77b4; fill-opacity: 0.5; stroke: #1f77b4; stroke-opacity: 0.5"/>
     <use xlink:href="#m3d98ff97a4" x="78.930227" y="110.903146" style="fill: #1f77b4; fill-opacity: 0.5; stroke: #1f77b4; stroke-opacity: 0.5"/>
     <use xlink:href="#m3d98ff97a4" x="63.577955" y="111.270173" style="fill: #1f77b4; fill-opacity: 0.5; stroke: #1f77b4; stroke-opacity: 0.5"/>
     <use xlink:href="#m3d98ff97a4" x="63.577955" y="112.520319" style="fill: #1f77b4; fill-opacity: 0.5; stroke: #1f77b4; stroke-opacity: 0.5"/>
     <use xlink:href="#m3d98ff97a4" x="48.225682" y="113.52709" style="fill: #1f77b4; fill-opacity: 0.5; stroke: #1f77b4; stroke-opacity: 0.5"/>
     <use xlink:href="#m3d98ff97a4" x="48.225682" y="102.667036" style="fill: #1f77b4; fill-opacity: 0.5; stroke: #1f77b4; stroke-opacity: 0.5"/>
     <use xlink:href="#m3d98ff97a4" x="48.225682" y="110.469539" style="fill: #1f77b4; fill-opacity: 0.5; stroke: #1f77b4; stroke-opacity: 0.5"/>
     <use xlink:href="#m3d98ff97a4" x="140.339318" y="110.429504" style="fill: #1f77b4; fill-opacity: 0.5; stroke: #1f77b4; stroke-opacity: 0.5"/>
     <use xlink:href="#m3d98ff97a4" x="63.577955" y="62.137117" style="fill: #1f77b4; fill-opacity: 0.5; stroke: #1f77b4; stroke-opacity: 0.5"/>
     <use xlink:href="#m3d98ff97a4" x="78.930227" y="110.437888" style="fill: #1f77b4; fill-opacity: 0.5; stroke: #1f77b4; stroke-opacity: 0.5"/>
     <use xlink:href="#m3d98ff97a4" x="63.577955" y="112.302645" style="fill: #1f77b4; fill-opacity: 0.5; stroke: #1f77b4; stroke-opacity: 0.5"/>
     <use xlink:href="#m3d98ff97a4" x="78.930227" y="112.547068" style="fill: #1f77b4; fill-opacity: 0.5; stroke: #1f77b4; stroke-opacity: 0.5"/>
     <use xlink:href="#m3d98ff97a4" x="48.225682" y="113.161341" style="fill: #1f77b4; fill-opacity: 0.5; stroke: #1f77b4; stroke-opacity: 0.5"/>
     <use xlink:href="#m3d98ff97a4" x="78.930227" y="112.994142" style="fill: #1f77b4; fill-opacity: 0.5; stroke: #1f77b4; stroke-opacity: 0.5"/>
     <use xlink:href="#m3d98ff97a4" x="48.225682" y="113.147403" style="fill: #1f77b4; fill-opacity: 0.5; stroke: #1f77b4; stroke-opacity: 0.5"/>
     <use xlink:href="#m3d98ff97a4" x="48.225682" y="111.866354" style="fill: #1f77b4; fill-opacity: 0.5; stroke: #1f77b4; stroke-opacity: 0.5"/>
     <use xlink:href="#m3d98ff97a4" x="63.577955" y="110.982349" style="fill: #1f77b4; fill-opacity: 0.5; stroke: #1f77b4; stroke-opacity: 0.5"/>
     <use xlink:href="#m3d98ff97a4" x="48.225682" y="111.796421" style="fill: #1f77b4; fill-opacity: 0.5; stroke: #1f77b4; stroke-opacity: 0.5"/>
     <use xlink:href="#m3d98ff97a4" x="48.225682" y="111.837424" style="fill: #1f77b4; fill-opacity: 0.5; stroke: #1f77b4; stroke-opacity: 0.5"/>
     <use xlink:href="#m3d98ff97a4" x="63.577955" y="113.198809" style="fill: #1f77b4; fill-opacity: 0.5; stroke: #1f77b4; stroke-opacity: 0.5"/>
     <use xlink:href="#m3d98ff97a4" x="48.225682" y="54.064641" style="fill: #1f77b4; fill-opacity: 0.5; stroke: #1f77b4; stroke-opacity: 0.5"/>
     <use xlink:href="#m3d98ff97a4" x="48.225682" y="110.684697" style="fill: #1f77b4; fill-opacity: 0.5; stroke: #1f77b4; stroke-opacity: 0.5"/>
     <use xlink:href="#m3d98ff97a4" x="78.930227" y="111.64543" style="fill: #1f77b4; fill-opacity: 0.5; stroke: #1f77b4; stroke-opacity: 0.5"/>
     <use xlink:href="#m3d98ff97a4" x="78.930227" y="110.872458" style="fill: #1f77b4; fill-opacity: 0.5; stroke: #1f77b4; stroke-opacity: 0.5"/>
     <use xlink:href="#m3d98ff97a4" x="48.225682" y="70.059401" style="fill: #1f77b4; fill-opacity: 0.5; stroke: #1f77b4; stroke-opacity: 0.5"/>
     <use xlink:href="#m3d98ff97a4" x="48.225682" y="112.175933" style="fill: #1f77b4; fill-opacity: 0.5; stroke: #1f77b4; stroke-opacity: 0.5"/>
     <use xlink:href="#m3d98ff97a4" x="140.339318" y="70.414375" style="fill: #1f77b4; fill-opacity: 0.5; stroke: #1f77b4; stroke-opacity: 0.5"/>
     <use xlink:href="#m3d98ff97a4" x="48.225682" y="111.401145" style="fill: #1f77b4; fill-opacity: 0.5; stroke: #1f77b4; stroke-opacity: 0.5"/>
     <use xlink:href="#m3d98ff97a4" x="63.577955" y="105.358422" style="fill: #1f77b4; fill-opacity: 0.5; stroke: #1f77b4; stroke-opacity: 0.5"/>
     <use xlink:href="#m3d98ff97a4" x="94.2825" y="110.932867" style="fill: #1f77b4; fill-opacity: 0.5; stroke: #1f77b4; stroke-opacity: 0.5"/>
     <use xlink:href="#m3d98ff97a4" x="63.577955" y="113.218363" style="fill: #1f77b4; fill-opacity: 0.5; stroke: #1f77b4; stroke-opacity: 0.5"/>
     <use xlink:href="#m3d98ff97a4" x="63.577955" y="113.097604" style="fill: #1f77b4; fill-opacity: 0.5; stroke: #1f77b4; stroke-opacity: 0.5"/>
     <use xlink:href="#m3d98ff97a4" x="63.577955" y="111.090882" style="fill: #1f77b4; fill-opacity: 0.5; stroke: #1f77b4; stroke-opacity: 0.5"/>
     <use xlink:href="#m3d98ff97a4" x="48.225682" y="111.809765" style="fill: #1f77b4; fill-opacity: 0.5; stroke: #1f77b4; stroke-opacity: 0.5"/>
     <use xlink:href="#m3d98ff97a4" x="63.577955" y="104.233396" style="fill: #1f77b4; fill-opacity: 0.5; stroke: #1f77b4; stroke-opacity: 0.5"/>
     <use xlink:href="#m3d98ff97a4" x="140.339318" y="28.54465" style="fill: #1f77b4; fill-opacity: 0.5; stroke: #1f77b4; stroke-opacity: 0.5"/>
     <use xlink:href="#m3d98ff97a4" x="48.225682" y="104.669903" style="fill: #1f77b4; fill-opacity: 0.5; stroke: #1f77b4; stroke-opacity: 0.5"/>
     <use xlink:href="#m3d98ff97a4" x="48.225682" y="70.901043" style="fill: #1f77b4; fill-opacity: 0.5; stroke: #1f77b4; stroke-opacity: 0.5"/>
     <use xlink:href="#m3d98ff97a4" x="109.634773" y="111.535159" style="fill: #1f77b4; fill-opacity: 0.5; stroke: #1f77b4; stroke-opacity: 0.5"/>
     <use xlink:href="#m3d98ff97a4" x="63.577955" y="96.295113" style="fill: #1f77b4; fill-opacity: 0.5; stroke: #1f77b4; stroke-opacity: 0.5"/>
     <use xlink:href="#m3d98ff97a4" x="78.930227" y="102.49539" style="fill: #1f77b4; fill-opacity: 0.5; stroke: #1f77b4; stroke-opacity: 0.5"/>
     <use xlink:href="#m3d98ff97a4" x="63.577955" y="110.413537" style="fill: #1f77b4; fill-opacity: 0.5; stroke: #1f77b4; stroke-opacity: 0.5"/>
     <use xlink:href="#m3d98ff97a4" x="78.930227" y="112.02491" style="fill: #1f77b4; fill-opacity: 0.5; stroke: #1f77b4; stroke-opacity: 0.5"/>
     <use xlink:href="#m3d98ff97a4" x="63.577955" y="112.255683" style="fill: #1f77b4; fill-opacity: 0.5; stroke: #1f77b4; stroke-opacity: 0.5"/>
     <use xlink:href="#m3d98ff97a4" x="48.225682" y="55.093773" style="fill: #1f77b4; fill-opacity: 0.5; stroke: #1f77b4; stroke-opacity: 0.5"/>
     <use xlink:href="#m3d98ff97a4" x="48.225682" y="86.957012" style="fill: #1f77b4; fill-opacity: 0.5; stroke: #1f77b4; stroke-opacity: 0.5"/>
     <use xlink:href="#m3d98ff97a4" x="63.577955" y="87.626055" style="fill: #1f77b4; fill-opacity: 0.5; stroke: #1f77b4; stroke-opacity: 0.5"/>
     <use xlink:href="#m3d98ff97a4" x="94.2825" y="111.601281" style="fill: #1f77b4; fill-opacity: 0.5; stroke: #1f77b4; stroke-opacity: 0.5"/>
     <use xlink:href="#m3d98ff97a4" x="63.577955" y="104.815787" style="fill: #1f77b4; fill-opacity: 0.5; stroke: #1f77b4; stroke-opacity: 0.5"/>
     <use xlink:href="#m3d98ff97a4" x="63.577955" y="110.695177" style="fill: #1f77b4; fill-opacity: 0.5; stroke: #1f77b4; stroke-opacity: 0.5"/>
     <use xlink:href="#m3d98ff97a4" x="48.225682" y="62.069755" style="fill: #1f77b4; fill-opacity: 0.5; stroke: #1f77b4; stroke-opacity: 0.5"/>
     <use xlink:href="#m3d98ff97a4" x="94.2825" y="110.534418" style="fill: #1f77b4; fill-opacity: 0.5; stroke: #1f77b4; stroke-opacity: 0.5"/>
     <use xlink:href="#m3d98ff97a4" x="63.577955" y="94.317294" style="fill: #1f77b4; fill-opacity: 0.5; stroke: #1f77b4; stroke-opacity: 0.5"/>
     <use xlink:href="#m3d98ff97a4" x="63.577955" y="102.647717" style="fill: #1f77b4; fill-opacity: 0.5; stroke: #1f77b4; stroke-opacity: 0.5"/>
     <use xlink:href="#m3d98ff97a4" x="109.634773" y="103.43093" style="fill: #1f77b4; fill-opacity: 0.5; stroke: #1f77b4; stroke-opacity: 0.5"/>
     <use xlink:href="#m3d98ff97a4" x="48.225682" y="103.327591" style="fill: #1f77b4; fill-opacity: 0.5; stroke: #1f77b4; stroke-opacity: 0.5"/>
     <use xlink:href="#m3d98ff97a4" x="94.2825" y="77.625971" style="fill: #1f77b4; fill-opacity: 0.5; stroke: #1f77b4; stroke-opacity: 0.5"/>
     <use xlink:href="#m3d98ff97a4" x="94.2825" y="38.292146" style="fill: #1f77b4; fill-opacity: 0.5; stroke: #1f77b4; stroke-opacity: 0.5"/>
     <use xlink:href="#m3d98ff97a4" x="63.577955" y="48.080751" style="fill: #1f77b4; fill-opacity: 0.5; stroke: #1f77b4; stroke-opacity: 0.5"/>
     <use xlink:href="#m3d98ff97a4" x="63.577955" y="113.210397" style="fill: #1f77b4; fill-opacity: 0.5; stroke: #1f77b4; stroke-opacity: 0.5"/>
     <use xlink:href="#m3d98ff97a4" x="63.577955" y="112.916427" style="fill: #1f77b4; fill-opacity: 0.5; stroke: #1f77b4; stroke-opacity: 0.5"/>
     <use xlink:href="#m3d98ff97a4" x="48.225682" y="112.719493" style="fill: #1f77b4; fill-opacity: 0.5; stroke: #1f77b4; stroke-opacity: 0.5"/>
     <use xlink:href="#m3d98ff97a4" x="63.577955" y="112.936857" style="fill: #1f77b4; fill-opacity: 0.5; stroke: #1f77b4; stroke-opacity: 0.5"/>
     <use xlink:href="#m3d98ff97a4" x="48.225682" y="112.456012" style="fill: #1f77b4; fill-opacity: 0.5; stroke: #1f77b4; stroke-opacity: 0.5"/>
     <use xlink:href="#m3d98ff97a4" x="140.339318" y="110.728441" style="fill: #1f77b4; fill-opacity: 0.5; stroke: #1f77b4; stroke-opacity: 0.5"/>
     <use xlink:href="#m3d98ff97a4" x="78.930227" y="112.832202" style="fill: #1f77b4; fill-opacity: 0.5; stroke: #1f77b4; stroke-opacity: 0.5"/>
     <use xlink:href="#m3d98ff97a4" x="63.577955" y="111.859645" style="fill: #1f77b4; fill-opacity: 0.5; stroke: #1f77b4; stroke-opacity: 0.5"/>
     <use xlink:href="#m3d98ff97a4" x="78.930227" y="78.2248" style="fill: #1f77b4; fill-opacity: 0.5; stroke: #1f77b4; stroke-opacity: 0.5"/>
     <use xlink:href="#m3d98ff97a4" x="140.339318" y="113.082557" style="fill: #1f77b4; fill-opacity: 0.5; stroke: #1f77b4; stroke-opacity: 0.5"/>
     <use xlink:href="#m3d98ff97a4" x="78.930227" y="111.2995" style="fill: #1f77b4; fill-opacity: 0.5; stroke: #1f77b4; stroke-opacity: 0.5"/>
     <use xlink:href="#m3d98ff97a4" x="78.930227" y="104.390382" style="fill: #1f77b4; fill-opacity: 0.5; stroke: #1f77b4; stroke-opacity: 0.5"/>
     <use xlink:href="#m3d98ff97a4" x="63.577955" y="113.119561" style="fill: #1f77b4; fill-opacity: 0.5; stroke: #1f77b4; stroke-opacity: 0.5"/>
     <use xlink:href="#m3d98ff97a4" x="78.930227" y="94.15408" style="fill: #1f77b4; fill-opacity: 0.5; stroke: #1f77b4; stroke-opacity: 0.5"/>
     <use xlink:href="#m3d98ff97a4" x="63.577955" y="112.074696" style="fill: #1f77b4; fill-opacity: 0.5; stroke: #1f77b4; stroke-opacity: 0.5"/>
     <use xlink:href="#m3d98ff97a4" x="78.930227" y="112.745621" style="fill: #1f77b4; fill-opacity: 0.5; stroke: #1f77b4; stroke-opacity: 0.5"/>
     <use xlink:href="#m3d98ff97a4" x="78.930227" y="113.126149" style="fill: #1f77b4; fill-opacity: 0.5; stroke: #1f77b4; stroke-opacity: 0.5"/>
     <use xlink:href="#m3d98ff97a4" x="78.930227" y="113.262622" style="fill: #1f77b4; fill-opacity: 0.5; stroke: #1f77b4; stroke-opacity: 0.5"/>
    </g>
   </g>
   <g id="FillBetweenPolyCollection_1">
    <defs>
     <path id="ma2fb75241c" d="M 48.225682 -60.967786 
L 48.225682 -51.888087 
L 49.156123 -52.060972 
L 50.086563 -52.210161 
L 51.017004 -52.358075 
L 51.947445 -52.470786 
L 52.877886 -52.675514 
L 53.808326 -52.887975 
L 54.738767 -53.085312 
L 55.669208 -53.19901 
L 56.599649 -53.316665 
L 57.53009 -53.422587 
L 58.46053 -53.484553 
L 59.390971 -53.561375 
L 60.321412 -53.688229 
L 61.251853 -53.776834 
L 62.182293 -53.869628 
L 63.112734 -53.924141 
L 64.043175 -54.072801 
L 64.973616 -54.212222 
L 65.904056 -54.226516 
L 66.834497 -54.264251 
L 67.764938 -54.274436 
L 68.695379 -54.263649 
L 69.62582 -54.281468 
L 70.55626 -54.268955 
L 71.486701 -54.273994 
L 72.417142 -54.305872 
L 73.347583 -54.318288 
L 74.278023 -54.278278 
L 75.208464 -54.261741 
L 76.138905 -54.242584 
L 77.069346 -54.226824 
L 77.999787 -54.181973 
L 78.930227 -54.18826 
L 79.860668 -54.156928 
L 80.791109 -54.106229 
L 81.72155 -54.013617 
L 82.65199 -53.944083 
L 83.582431 -53.880647 
L 84.512872 -53.798356 
L 85.443313 -53.711074 
L 86.373753 -53.574818 
L 87.304194 -53.493424 
L 88.234635 -53.397524 
L 89.165076 -53.271187 
L 90.095517 -53.16695 
L 91.025957 -53.049574 
L 91.956398 -52.94614 
L 92.886839 -52.862016 
L 93.81728 -52.78637 
L 94.74772 -52.684507 
L 95.678161 -52.556438 
L 96.608602 -52.440649 
L 97.539043 -52.325016 
L 98.469483 -52.210573 
L 99.399924 -52.096129 
L 100.330365 -51.96705 
L 101.260806 -51.865054 
L 102.191247 -51.74949 
L 103.121687 -51.635192 
L 104.052128 -51.518319 
L 104.982569 -51.406457 
L 105.91301 -51.290069 
L 106.84345 -51.163047 
L 107.773891 -51.050017 
L 108.704332 -50.929669 
L 109.634773 -50.809377 
L 110.565213 -50.689204 
L 111.495654 -50.569031 
L 112.426095 -50.448858 
L 113.356536 -50.328684 
L 114.286977 -50.194167 
L 115.217417 -50.039076 
L 116.147858 -49.919854 
L 117.078299 -49.789204 
L 118.00874 -49.664197 
L 118.93918 -49.548702 
L 119.869621 -49.433591 
L 120.800062 -49.320772 
L 121.730503 -49.184215 
L 122.660944 -49.044825 
L 123.591384 -48.914668 
L 124.521825 -48.789256 
L 125.452266 -48.664884 
L 126.382707 -48.543693 
L 127.313147 -48.438846 
L 128.243588 -48.304813 
L 129.174029 -48.17078 
L 130.10447 -48.040745 
L 131.03491 -47.915885 
L 131.965351 -47.824583 
L 132.895792 -47.735948 
L 133.826233 -47.647313 
L 134.756674 -47.541367 
L 135.687114 -47.424029 
L 136.617555 -47.306692 
L 137.547996 -47.189354 
L 138.478437 -47.072016 
L 139.408877 -46.954679 
L 140.339318 -46.837341 
L 140.339318 -73.203128 
L 140.339318 -73.203128 
L 139.408877 -73.005664 
L 138.478437 -72.8082 
L 137.547996 -72.610735 
L 136.617555 -72.413271 
L 135.687114 -72.215806 
L 134.756674 -72.018342 
L 133.826233 -71.820877 
L 132.895792 -71.623413 
L 131.965351 -71.425949 
L 131.03491 -71.21607 
L 130.10447 -71.001505 
L 129.174029 -70.786941 
L 128.243588 -70.572376 
L 127.313147 -70.357812 
L 126.382707 -70.142921 
L 125.452266 -69.927727 
L 124.521825 -69.712533 
L 123.591384 -69.497339 
L 122.660944 -69.282145 
L 121.730503 -69.066951 
L 120.800062 -68.868547 
L 119.869621 -68.675787 
L 118.93918 -68.45481 
L 118.00874 -68.233833 
L 117.078299 -68.012856 
L 116.147858 -67.791019 
L 115.217417 -67.598101 
L 114.286977 -67.413949 
L 113.356536 -67.229141 
L 112.426095 -67.048368 
L 111.495654 -66.861494 
L 110.565213 -66.677709 
L 109.634773 -66.494871 
L 108.704332 -66.312032 
L 107.773891 -66.127909 
L 106.84345 -65.927498 
L 105.91301 -65.711455 
L 104.982569 -65.495921 
L 104.052128 -65.315613 
L 103.121687 -65.072943 
L 102.191247 -64.909027 
L 101.260806 -64.722663 
L 100.330365 -64.527163 
L 99.399924 -64.309076 
L 98.469483 -64.118308 
L 97.539043 -64.006002 
L 96.608602 -63.884535 
L 95.678161 -63.642975 
L 94.74772 -63.442409 
L 93.81728 -63.269467 
L 92.886839 -63.06461 
L 91.956398 -62.862743 
L 91.025957 -62.755815 
L 90.095517 -62.522167 
L 89.165076 -62.283463 
L 88.234635 -62.044758 
L 87.304194 -61.831944 
L 86.373753 -61.667913 
L 85.443313 -61.542992 
L 84.512872 -61.379115 
L 83.582431 -61.183949 
L 82.65199 -61.138377 
L 81.72155 -60.994161 
L 80.791109 -60.811637 
L 79.860668 -60.597515 
L 78.930227 -60.445194 
L 77.999787 -60.345647 
L 77.069346 -60.310535 
L 76.138905 -60.190765 
L 75.208464 -60.121087 
L 74.278023 -60.068928 
L 73.347583 -59.945024 
L 72.417142 -59.868348 
L 71.486701 -59.824442 
L 70.55626 -59.684642 
L 69.62582 -59.655056 
L 68.695379 -59.693827 
L 67.764938 -59.698457 
L 66.834497 -59.708905 
L 65.904056 -59.775496 
L 64.973616 -59.853767 
L 64.043175 -59.88393 
L 63.112734 -59.910935 
L 62.182293 -59.916681 
L 61.251853 -59.921665 
L 60.321412 -59.925561 
L 59.390971 -59.943361 
L 58.46053 -60.058297 
L 57.53009 -60.178063 
L 56.599649 -60.241451 
L 55.669208 -60.255892 
L 54.738767 -60.357684 
L 53.808326 -60.430689 
L 52.877886 -60.483906 
L 51.947445 -60.575229 
L 51.017004 -60.702542 
L 50.086563 -60.828508 
L 49.156123 -60.89955 
L 48.225682 -60.967786 
z
" style="stroke: #ffffff; stroke-opacity: 0.15; stroke-width: 0.8"/>
    </defs>
    <g clip-path="url(#p5fab95a30e)">
     <use xlink:href="#ma2fb75241c" x="0" y="162" style="fill: #1f77b4; fill-opacity: 0.15; stroke: #ffffff; stroke-opacity: 0.15; stroke-width: 0.8"/>
    </g>
   </g>
   <g id="line2d_15">
    <path d="M 48.225682 105.703739 
L 49.156123 105.672057 
L 50.086563 105.640375 
L 51.017004 105.608693 
L 51.947445 105.577011 
L 52.877886 105.545328 
L 53.808326 105.513646 
L 54.738767 105.481964 
L 55.669208 105.450282 
L 56.599649 105.4186 
L 57.53009 105.386918 
L 58.46053 105.355236 
L 59.390971 105.323554 
L 60.321412 105.291872 
L 61.251853 105.26019 
L 62.182293 105.228508 
L 63.112734 105.196826 
L 64.043175 105.165144 
L 64.973616 105.133462 
L 65.904056 105.10178 
L 66.834497 105.070098 
L 67.764938 105.038416 
L 68.695379 105.006734 
L 69.62582 104.975051 
L 70.55626 104.943369 
L 71.486701 104.911687 
L 72.417142 104.880005 
L 73.347583 104.848323 
L 74.278023 104.816641 
L 75.208464 104.784959 
L 76.138905 104.753277 
L 77.069346 104.721595 
L 77.999787 104.689913 
L 78.930227 104.658231 
L 79.860668 104.626549 
L 80.791109 104.594867 
L 81.72155 104.563185 
L 82.65199 104.531503 
L 83.582431 104.499821 
L 84.512872 104.468139 
L 85.443313 104.436457 
L 86.373753 104.404775 
L 87.304194 104.373092 
L 88.234635 104.34141 
L 89.165076 104.309728 
L 90.095517 104.278046 
L 91.025957 104.246364 
L 91.956398 104.214682 
L 92.886839 104.183 
L 93.81728 104.151318 
L 94.74772 104.119636 
L 95.678161 104.087954 
L 96.608602 104.056272 
L 97.539043 104.02459 
L 98.469483 103.992908 
L 99.399924 103.961226 
L 100.330365 103.929544 
L 101.260806 103.897862 
L 102.191247 103.86618 
L 103.121687 103.834498 
L 104.052128 103.802816 
L 104.982569 103.771133 
L 105.91301 103.739451 
L 106.84345 103.707769 
L 107.773891 103.676087 
L 108.704332 103.644405 
L 109.634773 103.612723 
L 110.565213 103.581041 
L 111.495654 103.549359 
L 112.426095 103.517677 
L 113.356536 103.485995 
L 114.286977 103.454313 
L 115.217417 103.422631 
L 116.147858 103.390949 
L 117.078299 103.359267 
L 118.00874 103.327585 
L 118.93918 103.295903 
L 119.869621 103.264221 
L 120.800062 103.232539 
L 121.730503 103.200857 
L 122.660944 103.169174 
L 123.591384 103.137492 
L 124.521825 103.10581 
L 125.452266 103.074128 
L 126.382707 103.042446 
L 127.313147 103.010764 
L 128.243588 102.979082 
L 129.174029 102.9474 
L 130.10447 102.915718 
L 131.03491 102.884036 
L 131.965351 102.852354 
L 132.895792 102.820672 
L 133.826233 102.78899 
L 134.756674 102.757308 
L 135.687114 102.725626 
L 136.617555 102.693944 
L 137.547996 102.662262 
L 138.478437 102.63058 
L 139.408877 102.598898 
L 140.339318 102.567215 
" clip-path="url(#p5fab95a30e)" style="fill: none; stroke: #1f77b4; stroke-width: 1.8; stroke-linecap: round"/>
   </g>
   <g id="patch_3">
    <path d="M 43.62 120.18 
L 43.62 24.21375 
" style="fill: none; stroke: #cccccc; stroke-linejoin: miter; stroke-linecap: square"/>
   </g>
   <g id="patch_4">
    <path d="M 144.945 120.18 
L 144.945 24.21375 
" style="fill: none; stroke: #cccccc; stroke-linejoin: miter; stroke-linecap: square"/>
   </g>
   <g id="patch_5">
    <path d="M 43.62 120.18 
L 144.945 120.18 
" style="fill: none; stroke: #cccccc; stroke-linejoin: miter; stroke-linecap: square"/>
   </g>
   <g id="patch_6">
    <path d="M 43.62 24.21375 
L 144.945 24.21375 
" style="fill: none; stroke: #cccccc; stroke-linejoin: miter; stroke-linecap: square"/>
   </g>
   <g id="text_17">
    <!-- rho = -0.07 -->
    <g style="fill: #262626" transform="translate(104.415 36.1855) scale(0.1 -0.1)">
     <defs>
      <path id="Helvetica-72" d="M 428 3347 
L 963 3347 
L 963 2769 
Q 1028 2938 1284 3180 
Q 1541 3422 1875 3422 
Q 1891 3422 1928 3419 
Q 1966 3416 2056 3406 
L 2056 2813 
Q 2006 2822 1964 2825 
Q 1922 2828 1872 2828 
Q 1447 2828 1219 2554 
Q 991 2281 991 1925 
L 991 0 
L 428 0 
L 428 3347 
z
" transform="scale(0.015625)"/>
      <path id="Helvetica-68" d="M 413 4606 
L 975 4606 
L 975 2894 
Q 1175 3147 1334 3250 
Q 1606 3428 2013 3428 
Q 2741 3428 3000 2919 
Q 3141 2641 3141 2147 
L 3141 0 
L 2563 0 
L 2563 2109 
Q 2563 2478 2469 2650 
Q 2316 2925 1894 2925 
Q 1544 2925 1259 2684 
Q 975 2444 975 1775 
L 975 0 
L 413 0 
L 413 4606 
z
" transform="scale(0.015625)"/>
      <path id="Helvetica-3d" d="M 3547 2569 
L 3547 2044 
L 288 2044 
L 288 2569 
L 3547 2569 
z
M 3547 1228 
L 3547 694 
L 288 694 
L 288 1228 
L 3547 1228 
z
" transform="scale(0.015625)"/>
      <path id="Helvetica-2d" d="M 266 2072 
L 1834 2072 
L 1834 1494 
L 266 1494 
L 266 2072 
z
" transform="scale(0.015625)"/>
     </defs>
     <use xlink:href="#Helvetica-72"/>
     <use xlink:href="#Helvetica-68" transform="translate(33.300781 0)"/>
     <use xlink:href="#Helvetica-6f" transform="translate(88.916016 0)"/>
     <use xlink:href="#Helvetica-20" transform="translate(144.53125 0)"/>
     <use xlink:href="#Helvetica-3d" transform="translate(172.314453 0)"/>
     <use xlink:href="#Helvetica-20" transform="translate(230.712891 0)"/>
     <use xlink:href="#Helvetica-2d" transform="translate(258.496094 0)"/>
     <use xlink:href="#Helvetica-30" transform="translate(291.796875 0)"/>
     <use xlink:href="#Helvetica-2e" transform="translate(347.412109 0)"/>
     <use xlink:href="#Helvetica-30" transform="translate(375.195312 0)"/>
     <use xlink:href="#Helvetica-37" transform="translate(430.810547 0)"/>
    </g>
    <!-- p = 4.21e-01 -->
    <g style="fill: #262626" transform="translate(104.415 46.878) scale(0.1 -0.1)">
     <defs>
      <path id="Helvetica-70" d="M 1825 378 
Q 2219 378 2480 708 
Q 2741 1038 2741 1694 
Q 2741 2094 2625 2381 
Q 2406 2934 1825 2934 
Q 1241 2934 1025 2350 
Q 909 2038 909 1556 
Q 909 1169 1025 897 
Q 1244 378 1825 378 
z
M 369 3331 
L 916 3331 
L 916 2888 
Q 1084 3116 1284 3241 
Q 1569 3428 1953 3428 
Q 2522 3428 2919 2992 
Q 3316 2556 3316 1747 
Q 3316 653 2744 184 
Q 2381 -113 1900 -113 
Q 1522 -113 1266 53 
Q 1116 147 931 375 
L 931 -1334 
L 369 -1334 
L 369 3331 
z
" transform="scale(0.015625)"/>
     </defs>
     <use xlink:href="#Helvetica-70"/>
     <use xlink:href="#Helvetica-20" transform="translate(55.615234 0)"/>
     <use xlink:href="#Helvetica-3d" transform="translate(83.398438 0)"/>
     <use xlink:href="#Helvetica-20" transform="translate(141.796875 0)"/>
     <use xlink:href="#Helvetica-34" transform="translate(169.580078 0)"/>
     <use xlink:href="#Helvetica-2e" transform="translate(225.195312 0)"/>
     <use xlink:href="#Helvetica-32" transform="translate(252.978516 0)"/>
     <use xlink:href="#Helvetica-31" transform="translate(308.59375 0)"/>
     <use xlink:href="#Helvetica-65" transform="translate(364.208984 0)"/>
     <use xlink:href="#Helvetica-2d" transform="translate(419.824219 0)"/>
     <use xlink:href="#Helvetica-30" transform="translate(453.125 0)"/>
     <use xlink:href="#Helvetica-31" transform="translate(508.740234 0)"/>
    </g>
   </g>
   <g id="text_18">
    <!-- AF2 (no templates) LIS vs agonist selectivity -->
    <g style="fill: #262626" transform="translate(-4.08625 18.21375) scale(0.1 -0.1)">
     <defs>
      <path id="Helvetica-41" d="M 2844 1881 
L 2147 3909 
L 1406 1881 
L 2844 1881 
z
M 1822 4591 
L 2525 4591 
L 4191 0 
L 3509 0 
L 3044 1375 
L 1228 1375 
L 731 0 
L 94 0 
L 1822 4591 
z
" transform="scale(0.015625)"/>
      <path id="Helvetica-46" d="M 547 4591 
L 3731 4591 
L 3731 4028 
L 1169 4028 
L 1169 2634 
L 3422 2634 
L 3422 2088 
L 1169 2088 
L 1169 0 
L 547 0 
L 547 4591 
z
" transform="scale(0.015625)"/>
      <path id="Helvetica-28" d="M 1894 4666 
Q 1403 3713 1256 3263 
Q 1034 2578 1034 1681 
Q 1034 775 1288 25 
Q 1444 -438 1903 -1306 
L 1525 -1306 
Q 1069 -594 959 -397 
Q 850 -200 722 138 
Q 547 600 478 1125 
Q 444 1397 444 1644 
Q 444 2569 734 3291 
Q 919 3750 1503 4666 
L 1894 4666 
z
" transform="scale(0.015625)"/>
      <path id="Helvetica-6d" d="M 413 3347 
L 969 3347 
L 969 2872 
Q 1169 3119 1331 3231 
Q 1609 3422 1963 3422 
Q 2363 3422 2606 3225 
Q 2744 3113 2856 2894 
Q 3044 3163 3297 3292 
Q 3550 3422 3866 3422 
Q 4541 3422 4784 2934 
Q 4916 2672 4916 2228 
L 4916 0 
L 4331 0 
L 4331 2325 
Q 4331 2659 4164 2784 
Q 3997 2909 3756 2909 
Q 3425 2909 3186 2687 
Q 2947 2466 2947 1947 
L 2947 0 
L 2375 0 
L 2375 2184 
Q 2375 2525 2294 2681 
Q 2166 2916 1816 2916 
Q 1497 2916 1236 2669 
Q 975 2422 975 1775 
L 975 0 
L 413 0 
L 413 3347 
z
" transform="scale(0.015625)"/>
      <path id="Helvetica-29" d="M 222 -1306 
Q 719 -338 863 106 
Q 1081 778 1081 1681 
Q 1081 2584 828 3334 
Q 672 3797 213 4666 
L 591 4666 
Q 1072 3897 1173 3717 
Q 1275 3538 1394 3222 
Q 1544 2831 1608 2450 
Q 1672 2069 1672 1716 
Q 1672 791 1378 66 
Q 1194 -400 613 -1306 
L 222 -1306 
z
" transform="scale(0.015625)"/>
      <path id="Helvetica-4c" d="M 488 4591 
L 1109 4591 
L 1109 547 
L 3434 547 
L 3434 0 
L 488 0 
L 488 4591 
z
" transform="scale(0.015625)"/>
      <path id="Helvetica-49" d="M 628 4591 
L 1256 4591 
L 1256 0 
L 628 0 
L 628 4591 
z
" transform="scale(0.015625)"/>
      <path id="Helvetica-53" d="M 894 1481 
Q 916 1091 1078 847 
Q 1388 391 2169 391 
Q 2519 391 2806 491 
Q 3363 684 3363 1184 
Q 3363 1559 3128 1719 
Q 2891 1875 2384 1991 
L 1763 2131 
Q 1153 2269 900 2434 
Q 463 2722 463 3294 
Q 463 3913 891 4309 
Q 1319 4706 2103 4706 
Q 2825 4706 3329 4357 
Q 3834 4009 3834 3244 
L 3250 3244 
Q 3203 3613 3050 3809 
Q 2766 4169 2084 4169 
Q 1534 4169 1293 3937 
Q 1053 3706 1053 3400 
Q 1053 3063 1334 2906 
Q 1519 2806 2169 2656 
L 2813 2509 
Q 3278 2403 3531 2219 
Q 3969 1897 3969 1284 
Q 3969 522 3414 194 
Q 2859 -134 2125 -134 
Q 1269 -134 784 303 
Q 300 738 309 1481 
L 894 1481 
z
M 2150 4716 
L 2150 4716 
z
" transform="scale(0.015625)"/>
     </defs>
     <use xlink:href="#Helvetica-41"/>
     <use xlink:href="#Helvetica-46" transform="translate(66.699219 0)"/>
     <use xlink:href="#Helvetica-32" transform="translate(127.783203 0)"/>
     <use xlink:href="#Helvetica-20" transform="translate(183.398438 0)"/>
     <use xlink:href="#Helvetica-28" transform="translate(211.181641 0)"/>
     <use xlink:href="#Helvetica-6e" transform="translate(244.482422 0)"/>
     <use xlink:href="#Helvetica-6f" transform="translate(300.097656 0)"/>
     <use xlink:href="#Helvetica-20" transform="translate(355.712891 0)"/>
     <use xlink:href="#Helvetica-74" transform="translate(383.496094 0)"/>
     <use xlink:href="#Helvetica-65" transform="translate(411.279297 0)"/>
     <use xlink:href="#Helvetica-6d" transform="translate(466.894531 0)"/>
     <use xlink:href="#Helvetica-70" transform="translate(550.195312 0)"/>
     <use xlink:href="#Helvetica-6c" transform="translate(605.810547 0)"/>
     <use xlink:href="#Helvetica-61" transform="translate(628.027344 0)"/>
     <use xlink:href="#Helvetica-74" transform="translate(683.642578 0)"/>
     <use xlink:href="#Helvetica-65" transform="translate(711.425781 0)"/>
     <use xlink:href="#Helvetica-73" transform="translate(767.041016 0)"/>
     <use xlink:href="#Helvetica-29" transform="translate(817.041016 0)"/>
     <use xlink:href="#Helvetica-20" transform="translate(850.341797 0)"/>
     <use xlink:href="#Helvetica-4c" transform="translate(878.125 0)"/>
     <use xlink:href="#Helvetica-49" transform="translate(933.740234 0)"/>
     <use xlink:href="#Helvetica-53" transform="translate(961.523438 0)"/>
     <use xlink:href="#Helvetica-20" transform="translate(1028.222656 0)"/>
     <use xlink:href="#Helvetica-76" transform="translate(1056.005859 0)"/>
     <use xlink:href="#Helvetica-73" transform="translate(1106.005859 0)"/>
     <use xlink:href="#Helvetica-20" transform="translate(1156.005859 0)"/>
     <use xlink:href="#Helvetica-61" transform="translate(1183.789062 0)"/>
     <use xlink:href="#Helvetica-67" transform="translate(1239.404297 0)"/>
     <use xlink:href="#Helvetica-6f" transform="translate(1295.019531 0)"/>
     <use xlink:href="#Helvetica-6e" transform="translate(1350.634766 0)"/>
     <use xlink:href="#Helvetica-69" transform="translate(1406.25 0)"/>
     <use xlink:href="#Helvetica-73" transform="translate(1428.466797 0)"/>
     <use xlink:href="#Helvetica-74" transform="translate(1478.466797 0)"/>
     <use xlink:href="#Helvetica-20" transform="translate(1506.25 0)"/>
     <use xlink:href="#Helvetica-73" transform="translate(1534.033203 0)"/>
     <use xlink:href="#Helvetica-65" transform="translate(1584.033203 0)"/>
     <use xlink:href="#Helvetica-6c" transform="translate(1639.648438 0)"/>
     <use xlink:href="#Helvetica-65" transform="translate(1661.865234 0)"/>
     <use xlink:href="#Helvetica-63" transform="translate(1717.480469 0)"/>
     <use xlink:href="#Helvetica-74" transform="translate(1767.480469 0)"/>
     <use xlink:href="#Helvetica-69" transform="translate(1795.263672 0)"/>
     <use xlink:href="#Helvetica-76" transform="translate(1817.480469 0)"/>
     <use xlink:href="#Helvetica-69" transform="translate(1867.480469 0)"/>
     <use xlink:href="#Helvetica-74" transform="translate(1889.697266 0)"/>
     <use xlink:href="#Helvetica-79" transform="translate(1917.480469 0)"/>
    </g>
   </g>
  </g>
 </g>
 <defs>
  <clipPath id="p5fab95a30e">
   <rect x="43.62" y="24.21375" width="101.325" height="95.96625"/>
  </clipPath>
 </defs>
</svg>
