<?xml version="1.0" encoding="utf-8" standalone="no"?>
<!DOCTYPE svg PUBLIC "-//W3C//DTD SVG 1.1//EN"
  "http://www.w3.org/Graphics/SVG/1.1/DTD/svg11.dtd">
<svg xmlns:xlink="http://www.w3.org/1999/xlink" width="162pt" height="162pt" viewBox="0 0 162 162" xmlns="http://www.w3.org/2000/svg" version="1.1">
 <metadata>
  <rdf:RDF xmlns:dc="http://purl.org/dc/elements/1.1/" xmlns:cc="http://creativecommons.org/ns#" xmlns:rdf="http://www.w3.org/1999/02/22-rdf-syntax-ns#">
   <cc:Work>
    <dc:type rdf:resource="http://purl.org/dc/dcmitype/StillImage"/>
    <dc:date>2025-03-07T14:31:27.297844</dc:date>
    <dc:format>image/svg+xml</dc:format>
    <dc:creator>
     <cc:Agent>
      <dc:title>Matplotlib v3.10.0, https://matplotlib.org/</dc:title>
     </cc:Agent>
    </dc:creator>
   </cc:Work>
  </rdf:RDF>
 </metadata>
 <defs>
  <style type="text/css">*{stroke-linejoin: round; stroke-linecap: butt}</style>
 </defs>
 <g id="figure_1">
  <g id="patch_1">
   <path d="M 0 162 
L 162 162 
L 162 0 
L 0 0 
z
" style="fill: #ffffff"/>
  </g>
  <g id="axes_1">
   <g id="patch_2">
    <path d="M 43.62 120.18 
L 144.9 120.18 
L 144.9 24 
L 43.62 24 
z
" style="fill: #ffffff"/>
   </g>
   <g id="matplotlib.axis_1">
    <g id="xtick_1">
     <g id="line2d_1">
      <path d="M 47.477101 120.18 
L 47.477101 24 
" clip-path="url(#pfe76b5a339)" style="fill: none; stroke: #cccccc; stroke-width: 0.8; stroke-linecap: round"/>
     </g>
     <g id="text_1">
      <!-- 0 -->
      <g style="fill: #262626" transform="translate(44.696632 135.653437) scale(0.1 -0.1)">
       <defs>
        <path id="Helvetica-30" d="M 1731 4475 
Q 2600 4475 2988 3759 
Q 3288 3206 3288 2244 
Q 3288 1331 3016 734 
Q 2622 -122 1728 -122 
Q 922 -122 528 578 
Q 200 1163 200 2147 
Q 200 2909 397 3456 
Q 766 4475 1731 4475 
z
M 1725 391 
Q 2163 391 2422 778 
Q 2681 1166 2681 2222 
Q 2681 2984 2493 3476 
Q 2306 3969 1766 3969 
Q 1269 3969 1039 3501 
Q 809 3034 809 2125 
Q 809 1441 956 1025 
Q 1181 391 1725 391 
z
" transform="scale(0.015625)"/>
       </defs>
       <use xlink:href="#Helvetica-30"/>
      </g>
     </g>
    </g>
    <g id="xtick_2">
     <g id="line2d_2">
      <path d="M 97.246143 120.18 
L 97.246143 24 
" clip-path="url(#pfe76b5a339)" style="fill: none; stroke: #cccccc; stroke-width: 0.8; stroke-linecap: round"/>
     </g>
     <g id="text_2">
      <!-- 200 -->
      <g style="fill: #262626" transform="translate(88.904736 135.653437) scale(0.1 -0.1)">
       <defs>
        <path id="Helvetica-32" d="M 200 0 
Q 231 578 439 1006 
Q 647 1434 1250 1784 
L 1850 2131 
Q 2253 2366 2416 2531 
Q 2672 2791 2672 3125 
Q 2672 3516 2437 3745 
Q 2203 3975 1813 3975 
Q 1234 3975 1013 3538 
Q 894 3303 881 2888 
L 309 2888 
Q 319 3472 525 3841 
Q 891 4491 1816 4491 
Q 2584 4491 2939 4075 
Q 3294 3659 3294 3150 
Q 3294 2613 2916 2231 
Q 2697 2009 2131 1694 
L 1703 1456 
Q 1397 1288 1222 1134 
Q 909 863 828 531 
L 3272 531 
L 3272 0 
L 200 0 
z
" transform="scale(0.015625)"/>
       </defs>
       <use xlink:href="#Helvetica-32"/>
       <use xlink:href="#Helvetica-30" transform="translate(55.615234 0)"/>
       <use xlink:href="#Helvetica-30" transform="translate(111.230469 0)"/>
      </g>
     </g>
    </g>
    <g id="text_3">
     <!-- agonist length -->
     <g style="fill: #262626" transform="translate(63.127188 148.934687) scale(0.1 -0.1)">
      <defs>
       <path id="Helvetica-61" d="M 844 891 
Q 844 647 1022 506 
Q 1200 366 1444 366 
Q 1741 366 2019 503 
Q 2488 731 2488 1250 
L 2488 1703 
Q 2384 1638 2221 1594 
Q 2059 1550 1903 1531 
L 1563 1488 
Q 1256 1447 1103 1359 
Q 844 1213 844 891 
z
M 2206 2028 
Q 2400 2053 2466 2191 
Q 2503 2266 2503 2406 
Q 2503 2694 2298 2823 
Q 2094 2953 1713 2953 
Q 1272 2953 1088 2716 
Q 984 2584 953 2325 
L 428 2325 
Q 444 2944 830 3186 
Q 1216 3428 1725 3428 
Q 2316 3428 2684 3203 
Q 3050 2978 3050 2503 
L 3050 575 
Q 3050 488 3086 434 
Q 3122 381 3238 381 
Q 3275 381 3322 386 
Q 3369 391 3422 400 
L 3422 -16 
Q 3291 -53 3222 -62 
Q 3153 -72 3034 -72 
Q 2744 -72 2613 134 
Q 2544 244 2516 444 
Q 2344 219 2022 53 
Q 1700 -113 1313 -113 
Q 847 -113 551 170 
Q 256 453 256 878 
Q 256 1344 547 1600 
Q 838 1856 1309 1916 
L 2206 2028 
z
M 1741 3428 
L 1741 3428 
z
" transform="scale(0.015625)"/>
       <path id="Helvetica-67" d="M 1594 3406 
Q 1988 3406 2281 3213 
Q 2441 3103 2606 2894 
L 2606 3316 
L 3125 3316 
L 3125 272 
Q 3125 -366 2938 -734 
Q 2588 -1416 1616 -1416 
Q 1075 -1416 706 -1173 
Q 338 -931 294 -416 
L 866 -416 
Q 906 -641 1028 -763 
Q 1219 -950 1628 -950 
Q 2275 -950 2475 -494 
Q 2594 -225 2584 466 
Q 2416 209 2178 84 
Q 1941 -41 1550 -41 
Q 1006 -41 598 345 
Q 191 731 191 1622 
Q 191 2463 602 2934 
Q 1013 3406 1594 3406 
z
M 2606 1688 
Q 2606 2309 2350 2609 
Q 2094 2909 1697 2909 
Q 1103 2909 884 2353 
Q 769 2056 769 1575 
Q 769 1009 998 714 
Q 1228 419 1616 419 
Q 2222 419 2469 966 
Q 2606 1275 2606 1688 
z
M 1659 3428 
L 1659 3428 
z
" transform="scale(0.015625)"/>
       <path id="Helvetica-6f" d="M 1741 363 
Q 2300 363 2508 786 
Q 2716 1209 2716 1728 
Q 2716 2197 2566 2491 
Q 2328 2953 1747 2953 
Q 1231 2953 997 2559 
Q 763 2166 763 1609 
Q 763 1075 997 719 
Q 1231 363 1741 363 
z
M 1763 3444 
Q 2409 3444 2856 3012 
Q 3303 2581 3303 1744 
Q 3303 934 2909 406 
Q 2516 -122 1688 -122 
Q 997 -122 590 345 
Q 184 813 184 1600 
Q 184 2444 612 2944 
Q 1041 3444 1763 3444 
z
M 1744 3428 
L 1744 3428 
z
" transform="scale(0.015625)"/>
       <path id="Helvetica-6e" d="M 413 3347 
L 947 3347 
L 947 2872 
Q 1184 3166 1450 3294 
Q 1716 3422 2041 3422 
Q 2753 3422 3003 2925 
Q 3141 2653 3141 2147 
L 3141 0 
L 2569 0 
L 2569 2109 
Q 2569 2416 2478 2603 
Q 2328 2916 1934 2916 
Q 1734 2916 1606 2875 
Q 1375 2806 1200 2600 
Q 1059 2434 1017 2257 
Q 975 2081 975 1753 
L 975 0 
L 413 0 
L 413 3347 
z
M 1734 3428 
L 1734 3428 
z
" transform="scale(0.015625)"/>
       <path id="Helvetica-69" d="M 413 3331 
L 984 3331 
L 984 0 
L 413 0 
L 413 3331 
z
M 413 4591 
L 984 4591 
L 984 3953 
L 413 3953 
L 413 4591 
z
" transform="scale(0.015625)"/>
       <path id="Helvetica-73" d="M 747 1050 
Q 772 769 888 619 
Q 1100 347 1625 347 
Q 1938 347 2175 483 
Q 2413 619 2413 903 
Q 2413 1119 2222 1231 
Q 2100 1300 1741 1391 
L 1294 1503 
Q 866 1609 663 1741 
Q 300 1969 300 2372 
Q 300 2847 642 3140 
Q 984 3434 1563 3434 
Q 2319 3434 2653 2991 
Q 2863 2709 2856 2384 
L 2325 2384 
Q 2309 2575 2191 2731 
Q 1997 2953 1519 2953 
Q 1200 2953 1036 2831 
Q 872 2709 872 2509 
Q 872 2291 1088 2159 
Q 1213 2081 1456 2022 
L 1828 1931 
Q 2434 1784 2641 1647 
Q 2969 1431 2969 969 
Q 2969 522 2630 197 
Q 2291 -128 1597 -128 
Q 850 -128 539 211 
Q 228 550 206 1050 
L 747 1050 
z
M 1578 3428 
L 1578 3428 
z
" transform="scale(0.015625)"/>
       <path id="Helvetica-74" d="M 525 4281 
L 1094 4281 
L 1094 3347 
L 1628 3347 
L 1628 2888 
L 1094 2888 
L 1094 703 
Q 1094 528 1213 469 
Q 1278 434 1431 434 
Q 1472 434 1519 436 
Q 1566 438 1628 444 
L 1628 0 
Q 1531 -28 1426 -40 
Q 1322 -53 1200 -53 
Q 806 -53 665 148 
Q 525 350 525 672 
L 525 2888 
L 72 2888 
L 72 3347 
L 525 3347 
L 525 4281 
z
" transform="scale(0.015625)"/>
       <path id="Helvetica-20" transform="scale(0.015625)"/>
       <path id="Helvetica-6c" d="M 428 4591 
L 991 4591 
L 991 0 
L 428 0 
L 428 4591 
z
" transform="scale(0.015625)"/>
       <path id="Helvetica-65" d="M 1806 3422 
Q 2163 3422 2497 3255 
Q 2831 3088 3006 2822 
Q 3175 2569 3231 2231 
Q 3281 2000 3281 1494 
L 828 1494 
Q 844 984 1069 676 
Q 1294 369 1766 369 
Q 2206 369 2469 659 
Q 2619 828 2681 1050 
L 3234 1050 
Q 3213 866 3089 639 
Q 2966 413 2813 269 
Q 2556 19 2178 -69 
Q 1975 -119 1719 -119 
Q 1094 -119 659 336 
Q 225 791 225 1609 
Q 225 2416 662 2919 
Q 1100 3422 1806 3422 
z
M 2703 1941 
Q 2669 2306 2544 2525 
Q 2313 2931 1772 2931 
Q 1384 2931 1121 2651 
Q 859 2372 844 1941 
L 2703 1941 
z
M 1753 3428 
L 1753 3428 
z
" transform="scale(0.015625)"/>
       <path id="Helvetica-68" d="M 413 4606 
L 975 4606 
L 975 2894 
Q 1175 3147 1334 3250 
Q 1606 3428 2013 3428 
Q 2741 3428 3000 2919 
Q 3141 2641 3141 2147 
L 3141 0 
L 2563 0 
L 2563 2109 
Q 2563 2478 2469 2650 
Q 2316 2925 1894 2925 
Q 1544 2925 1259 2684 
Q 975 2444 975 1775 
L 975 0 
L 413 0 
L 413 4606 
z
" transform="scale(0.015625)"/>
      </defs>
      <use xlink:href="#Helvetica-61"/>
      <use xlink:href="#Helvetica-67" transform="translate(55.615234 0)"/>
      <use xlink:href="#Helvetica-6f" transform="translate(111.230469 0)"/>
      <use xlink:href="#Helvetica-6e" transform="translate(166.845703 0)"/>
      <use xlink:href="#Helvetica-69" transform="translate(222.460938 0)"/>
      <use xlink:href="#Helvetica-73" transform="translate(244.677734 0)"/>
      <use xlink:href="#Helvetica-74" transform="translate(294.677734 0)"/>
      <use xlink:href="#Helvetica-20" transform="translate(322.460938 0)"/>
      <use xlink:href="#Helvetica-6c" transform="translate(350.244141 0)"/>
      <use xlink:href="#Helvetica-65" transform="translate(372.460938 0)"/>
      <use xlink:href="#Helvetica-6e" transform="translate(428.076172 0)"/>
      <use xlink:href="#Helvetica-67" transform="translate(483.691406 0)"/>
      <use xlink:href="#Helvetica-74" transform="translate(539.306641 0)"/>
      <use xlink:href="#Helvetica-68" transform="translate(567.089844 0)"/>
     </g>
    </g>
   </g>
   <g id="matplotlib.axis_2">
    <g id="ytick_1">
     <g id="line2d_3">
      <path d="M 43.62 114.848681 
L 144.9 114.848681 
" clip-path="url(#pfe76b5a339)" style="fill: none; stroke: #cccccc; stroke-width: 0.8; stroke-linecap: round"/>
     </g>
     <g id="text_4">
      <!-- 0 -->
      <g style="fill: #262626" transform="translate(29.759063 118.4354) scale(0.1 -0.1)">
       <use xlink:href="#Helvetica-30"/>
      </g>
     </g>
    </g>
    <g id="ytick_2">
     <g id="line2d_4">
      <path d="M 43.62 107.089932 
L 144.9 107.089932 
" clip-path="url(#pfe76b5a339)" style="fill: none; stroke: #cccccc; stroke-width: 0.8; stroke-linecap: round"/>
     </g>
     <g id="text_5">
      <!-- 1 -->
      <g style="fill: #262626" transform="translate(29.759063 110.67665) scale(0.1 -0.1)">
       <defs>
        <path id="Helvetica-31" d="M 613 3169 
L 613 3600 
Q 1222 3659 1462 3798 
Q 1703 3938 1822 4456 
L 2266 4456 
L 2266 0 
L 1666 0 
L 1666 3169 
L 613 3169 
z
" transform="scale(0.015625)"/>
       </defs>
       <use xlink:href="#Helvetica-31"/>
      </g>
     </g>
    </g>
    <g id="ytick_3">
     <g id="line2d_5">
      <path d="M 43.62 99.331182 
L 144.9 99.331182 
" clip-path="url(#pfe76b5a339)" style="fill: none; stroke: #cccccc; stroke-width: 0.8; stroke-linecap: round"/>
     </g>
     <g id="text_6">
      <!-- 2 -->
      <g style="fill: #262626" transform="translate(29.759063 102.917901) scale(0.1 -0.1)">
       <use xlink:href="#Helvetica-32"/>
      </g>
     </g>
    </g>
    <g id="ytick_4">
     <g id="line2d_6">
      <path d="M 43.62 91.572433 
L 144.9 91.572433 
" clip-path="url(#pfe76b5a339)" style="fill: none; stroke: #cccccc; stroke-width: 0.8; stroke-linecap: round"/>
     </g>
     <g id="text_7">
      <!-- 3 -->
      <g style="fill: #262626" transform="translate(29.759063 95.159151) scale(0.1 -0.1)">
       <defs>
        <path id="Helvetica-33" d="M 1663 -122 
Q 869 -122 511 314 
Q 153 750 153 1375 
L 741 1375 
Q 778 941 903 744 
Q 1122 391 1694 391 
Q 2138 391 2406 628 
Q 2675 866 2675 1241 
Q 2675 1703 2392 1887 
Q 2109 2072 1606 2072 
Q 1550 2072 1492 2070 
Q 1434 2069 1375 2066 
L 1375 2563 
Q 1463 2553 1522 2550 
Q 1581 2547 1650 2547 
Q 1966 2547 2169 2647 
Q 2525 2822 2525 3272 
Q 2525 3606 2287 3787 
Q 2050 3969 1734 3969 
Q 1172 3969 956 3594 
Q 838 3388 822 3006 
L 266 3006 
Q 266 3506 466 3856 
Q 809 4481 1675 4481 
Q 2359 4481 2734 4176 
Q 3109 3872 3109 3294 
Q 3109 2881 2888 2625 
Q 2750 2466 2531 2375 
Q 2884 2278 3082 2001 
Q 3281 1725 3281 1325 
Q 3281 684 2859 281 
Q 2438 -122 1663 -122 
z
" transform="scale(0.015625)"/>
       </defs>
       <use xlink:href="#Helvetica-33"/>
      </g>
     </g>
    </g>
    <g id="ytick_5">
     <g id="line2d_7">
      <path d="M 43.62 83.813683 
L 144.9 83.813683 
" clip-path="url(#pfe76b5a339)" style="fill: none; stroke: #cccccc; stroke-width: 0.8; stroke-linecap: round"/>
     </g>
     <g id="text_8">
      <!-- 4 -->
      <g style="fill: #262626" transform="translate(29.759063 87.400402) scale(0.1 -0.1)">
       <defs>
        <path id="Helvetica-34" d="M 2116 1584 
L 2116 3613 
L 681 1584 
L 2116 1584 
z
M 2125 0 
L 2125 1094 
L 163 1094 
L 163 1644 
L 2213 4488 
L 2688 4488 
L 2688 1584 
L 3347 1584 
L 3347 1094 
L 2688 1094 
L 2688 0 
L 2125 0 
z
" transform="scale(0.015625)"/>
       </defs>
       <use xlink:href="#Helvetica-34"/>
      </g>
     </g>
    </g>
    <g id="ytick_6">
     <g id="line2d_8">
      <path d="M 43.62 76.054934 
L 144.9 76.054934 
" clip-path="url(#pfe76b5a339)" style="fill: none; stroke: #cccccc; stroke-width: 0.8; stroke-linecap: round"/>
     </g>
     <g id="text_9">
      <!-- 5 -->
      <g style="fill: #262626" transform="translate(29.759063 79.641652) scale(0.1 -0.1)">
       <defs>
        <path id="Helvetica-35" d="M 791 1141 
Q 847 659 1238 475 
Q 1438 381 1700 381 
Q 2200 381 2440 700 
Q 2681 1019 2681 1406 
Q 2681 1875 2395 2131 
Q 2109 2388 1709 2388 
Q 1419 2388 1211 2275 
Q 1003 2163 856 1963 
L 369 1991 
L 709 4400 
L 3034 4400 
L 3034 3856 
L 1131 3856 
L 941 2613 
Q 1097 2731 1238 2791 
Q 1488 2894 1816 2894 
Q 2431 2894 2859 2497 
Q 3288 2100 3288 1491 
Q 3288 856 2895 371 
Q 2503 -113 1644 -113 
Q 1097 -113 676 195 
Q 256 503 206 1141 
L 791 1141 
z
" transform="scale(0.015625)"/>
       </defs>
       <use xlink:href="#Helvetica-35"/>
      </g>
     </g>
    </g>
    <g id="ytick_7">
     <g id="line2d_9">
      <path d="M 43.62 68.296184 
L 144.9 68.296184 
" clip-path="url(#pfe76b5a339)" style="fill: none; stroke: #cccccc; stroke-width: 0.8; stroke-linecap: round"/>
     </g>
     <g id="text_10">
      <!-- 6 -->
      <g style="fill: #262626" transform="translate(29.759063 71.882903) scale(0.1 -0.1)">
       <defs>
        <path id="Helvetica-36" d="M 1872 4494 
Q 2622 4494 2917 4105 
Q 3213 3716 3213 3303 
L 2656 3303 
Q 2606 3569 2497 3719 
Q 2294 4000 1881 4000 
Q 1409 4000 1131 3564 
Q 853 3128 822 2316 
Q 1016 2600 1309 2741 
Q 1578 2866 1909 2866 
Q 2472 2866 2890 2506 
Q 3309 2147 3309 1434 
Q 3309 825 2912 354 
Q 2516 -116 1781 -116 
Q 1153 -116 697 361 
Q 241 838 241 1966 
Q 241 2800 444 3381 
Q 834 4494 1872 4494 
z
M 1831 384 
Q 2275 384 2495 682 
Q 2716 981 2716 1388 
Q 2716 1731 2519 2042 
Q 2322 2353 1803 2353 
Q 1441 2353 1167 2112 
Q 894 1872 894 1388 
Q 894 963 1142 673 
Q 1391 384 1831 384 
z
" transform="scale(0.015625)"/>
       </defs>
       <use xlink:href="#Helvetica-36"/>
      </g>
     </g>
    </g>
    <g id="ytick_8">
     <g id="line2d_10">
      <path d="M 43.62 60.537435 
L 144.9 60.537435 
" clip-path="url(#pfe76b5a339)" style="fill: none; stroke: #cccccc; stroke-width: 0.8; stroke-linecap: round"/>
     </g>
     <g id="text_11">
      <!-- 7 -->
      <g style="fill: #262626" transform="translate(29.759063 64.124153) scale(0.1 -0.1)">
       <defs>
        <path id="Helvetica-37" d="M 3347 4400 
L 3347 3909 
Q 3131 3700 2773 3181 
Q 2416 2663 2141 2063 
Q 1869 1478 1728 997 
Q 1638 688 1494 0 
L 872 0 
Q 1084 1281 1809 2550 
Q 2238 3294 2709 3834 
L 234 3834 
L 234 4400 
L 3347 4400 
z
" transform="scale(0.015625)"/>
       </defs>
       <use xlink:href="#Helvetica-37"/>
      </g>
     </g>
    </g>
    <g id="ytick_9">
     <g id="line2d_11">
      <path d="M 43.62 52.778685 
L 144.9 52.778685 
" clip-path="url(#pfe76b5a339)" style="fill: none; stroke: #cccccc; stroke-width: 0.8; stroke-linecap: round"/>
     </g>
     <g id="text_12">
      <!-- 8 -->
      <g style="fill: #262626" transform="translate(29.759063 56.365404) scale(0.1 -0.1)">
       <defs>
        <path id="Helvetica-38" d="M 1741 2600 
Q 2113 2600 2322 2808 
Q 2531 3016 2531 3303 
Q 2531 3553 2331 3762 
Q 2131 3972 1722 3972 
Q 1316 3972 1134 3762 
Q 953 3553 953 3272 
Q 953 2956 1187 2778 
Q 1422 2600 1741 2600 
z
M 1775 384 
Q 2166 384 2423 595 
Q 2681 806 2681 1225 
Q 2681 1659 2415 1884 
Q 2150 2109 1734 2109 
Q 1331 2109 1076 1879 
Q 822 1650 822 1244 
Q 822 894 1055 639 
Q 1288 384 1775 384 
z
M 975 2384 
Q 741 2484 609 2619 
Q 363 2869 363 3269 
Q 363 3769 725 4128 
Q 1088 4488 1753 4488 
Q 2397 4488 2762 4148 
Q 3128 3809 3128 3356 
Q 3128 2938 2916 2678 
Q 2797 2531 2547 2391 
Q 2825 2263 2984 2097 
Q 3281 1784 3281 1284 
Q 3281 694 2884 283 
Q 2488 -128 1763 -128 
Q 1109 -128 657 226 
Q 206 581 206 1256 
Q 206 1653 400 1942 
Q 594 2231 975 2384 
z
" transform="scale(0.015625)"/>
       </defs>
       <use xlink:href="#Helvetica-38"/>
      </g>
     </g>
    </g>
    <g id="ytick_10">
     <g id="line2d_12">
      <path d="M 43.62 45.019936 
L 144.9 45.019936 
" clip-path="url(#pfe76b5a339)" style="fill: none; stroke: #cccccc; stroke-width: 0.8; stroke-linecap: round"/>
     </g>
     <g id="text_13">
      <!-- 9 -->
      <g style="fill: #262626" transform="translate(29.759063 48.606654) scale(0.1 -0.1)">
       <defs>
        <path id="Helvetica-39" d="M 850 1081 
Q 875 616 1209 438 
Q 1381 344 1597 344 
Q 2000 344 2284 680 
Q 2569 1016 2688 2044 
Q 2500 1747 2223 1626 
Q 1947 1506 1628 1506 
Q 981 1506 604 1909 
Q 228 2313 228 2947 
Q 228 3556 600 4018 
Q 972 4481 1697 4481 
Q 2675 4481 3047 3600 
Q 3253 3116 3253 2388 
Q 3253 1566 3006 931 
Q 2597 -125 1619 -125 
Q 963 -125 622 219 
Q 281 563 281 1081 
L 850 1081 
z
M 1703 2000 
Q 2038 2000 2314 2220 
Q 2591 2441 2591 2991 
Q 2591 3484 2342 3726 
Q 2094 3969 1709 3969 
Q 1297 3969 1055 3692 
Q 813 3416 813 2953 
Q 813 2516 1025 2258 
Q 1238 2000 1703 2000 
z
" transform="scale(0.015625)"/>
       </defs>
       <use xlink:href="#Helvetica-39"/>
      </g>
     </g>
    </g>
    <g id="ytick_11">
     <g id="line2d_13">
      <path d="M 43.62 37.261186 
L 144.9 37.261186 
" clip-path="url(#pfe76b5a339)" style="fill: none; stroke: #cccccc; stroke-width: 0.8; stroke-linecap: round"/>
     </g>
     <g id="text_14">
      <!-- 10 -->
      <g style="fill: #262626" transform="translate(24.198125 40.847905) scale(0.1 -0.1)">
       <use xlink:href="#Helvetica-31"/>
       <use xlink:href="#Helvetica-30" transform="translate(55.615234 0)"/>
      </g>
     </g>
    </g>
    <g id="ytick_12">
     <g id="line2d_14">
      <path d="M 43.62 29.502437 
L 144.9 29.502437 
" clip-path="url(#pfe76b5a339)" style="fill: none; stroke: #cccccc; stroke-width: 0.8; stroke-linecap: round"/>
     </g>
     <g id="text_15">
      <!-- 11 -->
      <g style="fill: #262626" transform="translate(24.198125 33.089155) scale(0.1 -0.1)">
       <use xlink:href="#Helvetica-31"/>
       <use xlink:href="#Helvetica-31" transform="translate(55.615234 0)"/>
      </g>
     </g>
    </g>
    <g id="text_16">
     <!-- Rank -->
     <g style="fill: #262626" transform="translate(18.11375 83.761875) rotate(-90) scale(0.1 -0.1)">
      <defs>
       <path id="Helvetica-52" d="M 2622 2488 
Q 3059 2488 3314 2663 
Q 3569 2838 3569 3294 
Q 3569 3784 3213 3963 
Q 3022 4056 2703 4056 
L 1184 4056 
L 1184 2488 
L 2622 2488 
z
M 563 4591 
L 2688 4591 
Q 3213 4591 3553 4438 
Q 4200 4144 4200 3353 
Q 4200 2941 4029 2678 
Q 3859 2416 3553 2256 
Q 3822 2147 3958 1969 
Q 4094 1791 4109 1391 
L 4131 775 
Q 4141 513 4175 384 
Q 4231 166 4375 103 
L 4375 0 
L 3613 0 
Q 3581 59 3562 153 
Q 3544 247 3531 516 
L 3494 1281 
Q 3472 1731 3159 1884 
Q 2981 1969 2600 1969 
L 1184 1969 
L 1184 0 
L 563 0 
L 563 4591 
z
" transform="scale(0.015625)"/>
       <path id="Helvetica-6b" d="M 400 4591 
L 941 4591 
L 941 1925 
L 2384 3347 
L 3103 3347 
L 1822 2094 
L 3175 0 
L 2456 0 
L 1413 1688 
L 941 1256 
L 941 0 
L 400 0 
L 400 4591 
z
" transform="scale(0.015625)"/>
      </defs>
      <use xlink:href="#Helvetica-52"/>
      <use xlink:href="#Helvetica-61" transform="translate(72.216797 0)"/>
      <use xlink:href="#Helvetica-6e" transform="translate(127.832031 0)"/>
      <use xlink:href="#Helvetica-6b" transform="translate(183.447266 0)"/>
     </g>
    </g>
   </g>
   <g id="PathCollection_1">
    <defs>
     <path id="md85a1bd9fc" d="M 0 2.4 
C 0.636487 2.4 1.246992 2.147121 1.697056 1.697056 
C 2.147121 1.246992 2.4 0.636487 2.4 0 
C 2.4 -0.636487 2.147121 -1.246992 1.697056 -1.697056 
C 1.246992 -2.147121 0.636487 -2.4 0 -2.4 
C -0.636487 -2.4 -1.246992 -2.147121 -1.697056 -1.697056 
C -2.147121 -1.246992 -2.4 -0.636487 -2.4 0 
C -2.4 0.636487 -2.147121 1.246992 -1.697056 1.697056 
C -1.246992 2.147121 -0.636487 2.4 0 2.4 
z
" style="stroke: #1f77b4; stroke-opacity: 0.5"/>
    </defs>
    <g clip-path="url(#pfe76b5a339)">
     <use xlink:href="#md85a1bd9fc" x="49.965553" y="107.124379" style="fill: #1f77b4; fill-opacity: 0.5; stroke: #1f77b4; stroke-opacity: 0.5"/>
     <use xlink:href="#md85a1bd9fc" x="62.407813" y="105.593316" style="fill: #1f77b4; fill-opacity: 0.5; stroke: #1f77b4; stroke-opacity: 0.5"/>
     <use xlink:href="#md85a1bd9fc" x="54.942457" y="99.822968" style="fill: #1f77b4; fill-opacity: 0.5; stroke: #1f77b4; stroke-opacity: 0.5"/>
     <use xlink:href="#md85a1bd9fc" x="49.467862" y="107.431653" style="fill: #1f77b4; fill-opacity: 0.5; stroke: #1f77b4; stroke-opacity: 0.5"/>
     <use xlink:href="#md85a1bd9fc" x="49.716708" y="106.161025" style="fill: #1f77b4; fill-opacity: 0.5; stroke: #1f77b4; stroke-opacity: 0.5"/>
     <use xlink:href="#md85a1bd9fc" x="72.859312" y="106.701958" style="fill: #1f77b4; fill-opacity: 0.5; stroke: #1f77b4; stroke-opacity: 0.5"/>
     <use xlink:href="#md85a1bd9fc" x="66.389337" y="107.112088" style="fill: #1f77b4; fill-opacity: 0.5; stroke: #1f77b4; stroke-opacity: 0.5"/>
     <use xlink:href="#md85a1bd9fc" x="53.200541" y="90.872831" style="fill: #1f77b4; fill-opacity: 0.5; stroke: #1f77b4; stroke-opacity: 0.5"/>
     <use xlink:href="#md85a1bd9fc" x="50.214398" y="105.602518" style="fill: #1f77b4; fill-opacity: 0.5; stroke: #1f77b4; stroke-opacity: 0.5"/>
     <use xlink:href="#md85a1bd9fc" x="50.960934" y="108.222373" style="fill: #1f77b4; fill-opacity: 0.5; stroke: #1f77b4; stroke-opacity: 0.5"/>
     <use xlink:href="#md85a1bd9fc" x="65.891646" y="100.206232" style="fill: #1f77b4; fill-opacity: 0.5; stroke: #1f77b4; stroke-opacity: 0.5"/>
     <use xlink:href="#md85a1bd9fc" x="51.707469" y="60.925909" style="fill: #1f77b4; fill-opacity: 0.5; stroke: #1f77b4; stroke-opacity: 0.5"/>
     <use xlink:href="#md85a1bd9fc" x="72.859312" y="106.587513" style="fill: #1f77b4; fill-opacity: 0.5; stroke: #1f77b4; stroke-opacity: 0.5"/>
     <use xlink:href="#md85a1bd9fc" x="100.978821" y="105.772477" style="fill: #1f77b4; fill-opacity: 0.5; stroke: #1f77b4; stroke-opacity: 0.5"/>
     <use xlink:href="#md85a1bd9fc" x="50.712088" y="107.066718" style="fill: #1f77b4; fill-opacity: 0.5; stroke: #1f77b4; stroke-opacity: 0.5"/>
     <use xlink:href="#md85a1bd9fc" x="52.70285" y="106.880019" style="fill: #1f77b4; fill-opacity: 0.5; stroke: #1f77b4; stroke-opacity: 0.5"/>
     <use xlink:href="#md85a1bd9fc" x="66.638182" y="108.495558" style="fill: #1f77b4; fill-opacity: 0.5; stroke: #1f77b4; stroke-opacity: 0.5"/>
     <use xlink:href="#md85a1bd9fc" x="53.200541" y="100.053547" style="fill: #1f77b4; fill-opacity: 0.5; stroke: #1f77b4; stroke-opacity: 0.5"/>
     <use xlink:href="#md85a1bd9fc" x="50.960934" y="106.910763" style="fill: #1f77b4; fill-opacity: 0.5; stroke: #1f77b4; stroke-opacity: 0.5"/>
     <use xlink:href="#md85a1bd9fc" x="53.947076" y="107.126403" style="fill: #1f77b4; fill-opacity: 0.5; stroke: #1f77b4; stroke-opacity: 0.5"/>
     <use xlink:href="#md85a1bd9fc" x="49.965553" y="108.306149" style="fill: #1f77b4; fill-opacity: 0.5; stroke: #1f77b4; stroke-opacity: 0.5"/>
     <use xlink:href="#md85a1bd9fc" x="64.398575" y="107.826663" style="fill: #1f77b4; fill-opacity: 0.5; stroke: #1f77b4; stroke-opacity: 0.5"/>
     <use xlink:href="#md85a1bd9fc" x="52.70285" y="105.953173" style="fill: #1f77b4; fill-opacity: 0.5; stroke: #1f77b4; stroke-opacity: 0.5"/>
     <use xlink:href="#md85a1bd9fc" x="65.642801" y="107.144518" style="fill: #1f77b4; fill-opacity: 0.5; stroke: #1f77b4; stroke-opacity: 0.5"/>
     <use xlink:href="#md85a1bd9fc" x="51.956314" y="107.035539" style="fill: #1f77b4; fill-opacity: 0.5; stroke: #1f77b4; stroke-opacity: 0.5"/>
     <use xlink:href="#md85a1bd9fc" x="100.978821" y="106.908838" style="fill: #1f77b4; fill-opacity: 0.5; stroke: #1f77b4; stroke-opacity: 0.5"/>
     <use xlink:href="#md85a1bd9fc" x="50.712088" y="106.906763" style="fill: #1f77b4; fill-opacity: 0.5; stroke: #1f77b4; stroke-opacity: 0.5"/>
     <use xlink:href="#md85a1bd9fc" x="64.64742" y="97.883563" style="fill: #1f77b4; fill-opacity: 0.5; stroke: #1f77b4; stroke-opacity: 0.5"/>
     <use xlink:href="#md85a1bd9fc" x="79.080442" y="106.222917" style="fill: #1f77b4; fill-opacity: 0.5; stroke: #1f77b4; stroke-opacity: 0.5"/>
     <use xlink:href="#md85a1bd9fc" x="49.219017" y="99.981329" style="fill: #1f77b4; fill-opacity: 0.5; stroke: #1f77b4; stroke-opacity: 0.5"/>
     <use xlink:href="#md85a1bd9fc" x="49.716708" y="107.795901" style="fill: #1f77b4; fill-opacity: 0.5; stroke: #1f77b4; stroke-opacity: 0.5"/>
     <use xlink:href="#md85a1bd9fc" x="51.956314" y="106.413691" style="fill: #1f77b4; fill-opacity: 0.5; stroke: #1f77b4; stroke-opacity: 0.5"/>
     <use xlink:href="#md85a1bd9fc" x="50.712088" y="100.272849" style="fill: #1f77b4; fill-opacity: 0.5; stroke: #1f77b4; stroke-opacity: 0.5"/>
     <use xlink:href="#md85a1bd9fc" x="66.638182" y="90.752142" style="fill: #1f77b4; fill-opacity: 0.5; stroke: #1f77b4; stroke-opacity: 0.5"/>
     <use xlink:href="#md85a1bd9fc" x="103.467273" y="90.230825" style="fill: #1f77b4; fill-opacity: 0.5; stroke: #1f77b4; stroke-opacity: 0.5"/>
     <use xlink:href="#md85a1bd9fc" x="50.960934" y="107.864479" style="fill: #1f77b4; fill-opacity: 0.5; stroke: #1f77b4; stroke-opacity: 0.5"/>
     <use xlink:href="#md85a1bd9fc" x="51.707469" y="106.765703" style="fill: #1f77b4; fill-opacity: 0.5; stroke: #1f77b4; stroke-opacity: 0.5"/>
     <use xlink:href="#md85a1bd9fc" x="69.126634" y="97.991252" style="fill: #1f77b4; fill-opacity: 0.5; stroke: #1f77b4; stroke-opacity: 0.5"/>
     <use xlink:href="#md85a1bd9fc" x="52.20516" y="99.767395" style="fill: #1f77b4; fill-opacity: 0.5; stroke: #1f77b4; stroke-opacity: 0.5"/>
     <use xlink:href="#md85a1bd9fc" x="53.698231" y="106.478369" style="fill: #1f77b4; fill-opacity: 0.5; stroke: #1f77b4; stroke-opacity: 0.5"/>
     <use xlink:href="#md85a1bd9fc" x="64.896265" y="83.833605" style="fill: #1f77b4; fill-opacity: 0.5; stroke: #1f77b4; stroke-opacity: 0.5"/>
     <use xlink:href="#md85a1bd9fc" x="52.951695" y="105.8826" style="fill: #1f77b4; fill-opacity: 0.5; stroke: #1f77b4; stroke-opacity: 0.5"/>
     <use xlink:href="#md85a1bd9fc" x="140.296364" y="82.354362" style="fill: #1f77b4; fill-opacity: 0.5; stroke: #1f77b4; stroke-opacity: 0.5"/>
     <use xlink:href="#md85a1bd9fc" x="56.435528" y="107.238561" style="fill: #1f77b4; fill-opacity: 0.5; stroke: #1f77b4; stroke-opacity: 0.5"/>
     <use xlink:href="#md85a1bd9fc" x="50.960934" y="107.424054" style="fill: #1f77b4; fill-opacity: 0.5; stroke: #1f77b4; stroke-opacity: 0.5"/>
     <use xlink:href="#md85a1bd9fc" x="70.37086" y="68.085739" style="fill: #1f77b4; fill-opacity: 0.5; stroke: #1f77b4; stroke-opacity: 0.5"/>
     <use xlink:href="#md85a1bd9fc" x="66.638182" y="107.618052" style="fill: #1f77b4; fill-opacity: 0.5; stroke: #1f77b4; stroke-opacity: 0.5"/>
     <use xlink:href="#md85a1bd9fc" x="49.716708" y="107.437182" style="fill: #1f77b4; fill-opacity: 0.5; stroke: #1f77b4; stroke-opacity: 0.5"/>
     <use xlink:href="#md85a1bd9fc" x="69.375479" y="92.352566" style="fill: #1f77b4; fill-opacity: 0.5; stroke: #1f77b4; stroke-opacity: 0.5"/>
     <use xlink:href="#md85a1bd9fc" x="64.398575" y="106.201756" style="fill: #1f77b4; fill-opacity: 0.5; stroke: #1f77b4; stroke-opacity: 0.5"/>
     <use xlink:href="#md85a1bd9fc" x="49.467862" y="106.339725" style="fill: #1f77b4; fill-opacity: 0.5; stroke: #1f77b4; stroke-opacity: 0.5"/>
     <use xlink:href="#md85a1bd9fc" x="65.145111" y="99.056622" style="fill: #1f77b4; fill-opacity: 0.5; stroke: #1f77b4; stroke-opacity: 0.5"/>
     <use xlink:href="#md85a1bd9fc" x="65.642801" y="107.405103" style="fill: #1f77b4; fill-opacity: 0.5; stroke: #1f77b4; stroke-opacity: 0.5"/>
     <use xlink:href="#md85a1bd9fc" x="53.698231" y="108.375436" style="fill: #1f77b4; fill-opacity: 0.5; stroke: #1f77b4; stroke-opacity: 0.5"/>
     <use xlink:href="#md85a1bd9fc" x="56.435528" y="107.247241" style="fill: #1f77b4; fill-opacity: 0.5; stroke: #1f77b4; stroke-opacity: 0.5"/>
     <use xlink:href="#md85a1bd9fc" x="52.20516" y="99.289318" style="fill: #1f77b4; fill-opacity: 0.5; stroke: #1f77b4; stroke-opacity: 0.5"/>
     <use xlink:href="#md85a1bd9fc" x="64.398575" y="107.926732" style="fill: #1f77b4; fill-opacity: 0.5; stroke: #1f77b4; stroke-opacity: 0.5"/>
     <use xlink:href="#md85a1bd9fc" x="50.712088" y="106.803775" style="fill: #1f77b4; fill-opacity: 0.5; stroke: #1f77b4; stroke-opacity: 0.5"/>
     <use xlink:href="#md85a1bd9fc" x="49.965553" y="105.696256" style="fill: #1f77b4; fill-opacity: 0.5; stroke: #1f77b4; stroke-opacity: 0.5"/>
     <use xlink:href="#md85a1bd9fc" x="64.398575" y="108.589468" style="fill: #1f77b4; fill-opacity: 0.5; stroke: #1f77b4; stroke-opacity: 0.5"/>
     <use xlink:href="#md85a1bd9fc" x="49.219017" y="99.116427" style="fill: #1f77b4; fill-opacity: 0.5; stroke: #1f77b4; stroke-opacity: 0.5"/>
     <use xlink:href="#md85a1bd9fc" x="49.716708" y="36.847809" style="fill: #1f77b4; fill-opacity: 0.5; stroke: #1f77b4; stroke-opacity: 0.5"/>
     <use xlink:href="#md85a1bd9fc" x="80.822359" y="106.305638" style="fill: #1f77b4; fill-opacity: 0.5; stroke: #1f77b4; stroke-opacity: 0.5"/>
     <use xlink:href="#md85a1bd9fc" x="65.642801" y="108.377882" style="fill: #1f77b4; fill-opacity: 0.5; stroke: #1f77b4; stroke-opacity: 0.5"/>
     <use xlink:href="#md85a1bd9fc" x="64.398575" y="107.496913" style="fill: #1f77b4; fill-opacity: 0.5; stroke: #1f77b4; stroke-opacity: 0.5"/>
     <use xlink:href="#md85a1bd9fc" x="50.960934" y="107.593587" style="fill: #1f77b4; fill-opacity: 0.5; stroke: #1f77b4; stroke-opacity: 0.5"/>
     <use xlink:href="#md85a1bd9fc" x="49.716708" y="106.682325" style="fill: #1f77b4; fill-opacity: 0.5; stroke: #1f77b4; stroke-opacity: 0.5"/>
     <use xlink:href="#md85a1bd9fc" x="54.195921" y="107.515393" style="fill: #1f77b4; fill-opacity: 0.5; stroke: #1f77b4; stroke-opacity: 0.5"/>
     <use xlink:href="#md85a1bd9fc" x="56.435528" y="108.331223" style="fill: #1f77b4; fill-opacity: 0.5; stroke: #1f77b4; stroke-opacity: 0.5"/>
     <use xlink:href="#md85a1bd9fc" x="100.978821" y="107.132" style="fill: #1f77b4; fill-opacity: 0.5; stroke: #1f77b4; stroke-opacity: 0.5"/>
     <use xlink:href="#md85a1bd9fc" x="105.955725" y="107.749082" style="fill: #1f77b4; fill-opacity: 0.5; stroke: #1f77b4; stroke-opacity: 0.5"/>
     <use xlink:href="#md85a1bd9fc" x="55.191302" y="75.294078" style="fill: #1f77b4; fill-opacity: 0.5; stroke: #1f77b4; stroke-opacity: 0.5"/>
     <use xlink:href="#md85a1bd9fc" x="70.619705" y="107.891902" style="fill: #1f77b4; fill-opacity: 0.5; stroke: #1f77b4; stroke-opacity: 0.5"/>
     <use xlink:href="#md85a1bd9fc" x="54.444767" y="66.766269" style="fill: #1f77b4; fill-opacity: 0.5; stroke: #1f77b4; stroke-opacity: 0.5"/>
     <use xlink:href="#md85a1bd9fc" x="71.615086" y="69.507895" style="fill: #1f77b4; fill-opacity: 0.5; stroke: #1f77b4; stroke-opacity: 0.5"/>
     <use xlink:href="#md85a1bd9fc" x="64.398575" y="93.067429" style="fill: #1f77b4; fill-opacity: 0.5; stroke: #1f77b4; stroke-opacity: 0.5"/>
     <use xlink:href="#md85a1bd9fc" x="80.822359" y="107.798925" style="fill: #1f77b4; fill-opacity: 0.5; stroke: #1f77b4; stroke-opacity: 0.5"/>
     <use xlink:href="#md85a1bd9fc" x="52.454005" y="108.293974" style="fill: #1f77b4; fill-opacity: 0.5; stroke: #1f77b4; stroke-opacity: 0.5"/>
     <use xlink:href="#md85a1bd9fc" x="49.965553" y="107.088442" style="fill: #1f77b4; fill-opacity: 0.5; stroke: #1f77b4; stroke-opacity: 0.5"/>
     <use xlink:href="#md85a1bd9fc" x="64.398575" y="46.049191" style="fill: #1f77b4; fill-opacity: 0.5; stroke: #1f77b4; stroke-opacity: 0.5"/>
     <use xlink:href="#md85a1bd9fc" x="54.195921" y="107.031948" style="fill: #1f77b4; fill-opacity: 0.5; stroke: #1f77b4; stroke-opacity: 0.5"/>
     <use xlink:href="#md85a1bd9fc" x="66.638182" y="108.627101" style="fill: #1f77b4; fill-opacity: 0.5; stroke: #1f77b4; stroke-opacity: 0.5"/>
     <use xlink:href="#md85a1bd9fc" x="49.467862" y="91.084929" style="fill: #1f77b4; fill-opacity: 0.5; stroke: #1f77b4; stroke-opacity: 0.5"/>
     <use xlink:href="#md85a1bd9fc" x="49.467862" y="92.692212" style="fill: #1f77b4; fill-opacity: 0.5; stroke: #1f77b4; stroke-opacity: 0.5"/>
     <use xlink:href="#md85a1bd9fc" x="52.951695" y="90.433075" style="fill: #1f77b4; fill-opacity: 0.5; stroke: #1f77b4; stroke-opacity: 0.5"/>
     <use xlink:href="#md85a1bd9fc" x="50.214398" y="105.624239" style="fill: #1f77b4; fill-opacity: 0.5; stroke: #1f77b4; stroke-opacity: 0.5"/>
     <use xlink:href="#md85a1bd9fc" x="54.444767" y="83.801712" style="fill: #1f77b4; fill-opacity: 0.5; stroke: #1f77b4; stroke-opacity: 0.5"/>
     <use xlink:href="#md85a1bd9fc" x="48.472482" y="53.127927" style="fill: #1f77b4; fill-opacity: 0.5; stroke: #1f77b4; stroke-opacity: 0.5"/>
     <use xlink:href="#md85a1bd9fc" x="52.70285" y="91.10519" style="fill: #1f77b4; fill-opacity: 0.5; stroke: #1f77b4; stroke-opacity: 0.5"/>
     <use xlink:href="#md85a1bd9fc" x="54.444767" y="97.854529" style="fill: #1f77b4; fill-opacity: 0.5; stroke: #1f77b4; stroke-opacity: 0.5"/>
     <use xlink:href="#md85a1bd9fc" x="49.716708" y="106.854626" style="fill: #1f77b4; fill-opacity: 0.5; stroke: #1f77b4; stroke-opacity: 0.5"/>
     <use xlink:href="#md85a1bd9fc" x="56.435528" y="30.814065" style="fill: #1f77b4; fill-opacity: 0.5; stroke: #1f77b4; stroke-opacity: 0.5"/>
     <use xlink:href="#md85a1bd9fc" x="52.454005" y="82.533365" style="fill: #1f77b4; fill-opacity: 0.5; stroke: #1f77b4; stroke-opacity: 0.5"/>
     <use xlink:href="#md85a1bd9fc" x="50.960934" y="108.102442" style="fill: #1f77b4; fill-opacity: 0.5; stroke: #1f77b4; stroke-opacity: 0.5"/>
     <use xlink:href="#md85a1bd9fc" x="53.449386" y="84.67393" style="fill: #1f77b4; fill-opacity: 0.5; stroke: #1f77b4; stroke-opacity: 0.5"/>
     <use xlink:href="#md85a1bd9fc" x="52.454005" y="60.128557" style="fill: #1f77b4; fill-opacity: 0.5; stroke: #1f77b4; stroke-opacity: 0.5"/>
     <use xlink:href="#md85a1bd9fc" x="49.965553" y="68.193965" style="fill: #1f77b4; fill-opacity: 0.5; stroke: #1f77b4; stroke-opacity: 0.5"/>
     <use xlink:href="#md85a1bd9fc" x="105.955725" y="76.650449" style="fill: #1f77b4; fill-opacity: 0.5; stroke: #1f77b4; stroke-opacity: 0.5"/>
     <use xlink:href="#md85a1bd9fc" x="52.951695" y="99.238613" style="fill: #1f77b4; fill-opacity: 0.5; stroke: #1f77b4; stroke-opacity: 0.5"/>
     <use xlink:href="#md85a1bd9fc" x="51.209779" y="61.318839" style="fill: #1f77b4; fill-opacity: 0.5; stroke: #1f77b4; stroke-opacity: 0.5"/>
     <use xlink:href="#md85a1bd9fc" x="48.223636" y="61.080531" style="fill: #1f77b4; fill-opacity: 0.5; stroke: #1f77b4; stroke-opacity: 0.5"/>
     <use xlink:href="#md85a1bd9fc" x="53.200541" y="45.098175" style="fill: #1f77b4; fill-opacity: 0.5; stroke: #1f77b4; stroke-opacity: 0.5"/>
     <use xlink:href="#md85a1bd9fc" x="50.214398" y="44.364174" style="fill: #1f77b4; fill-opacity: 0.5; stroke: #1f77b4; stroke-opacity: 0.5"/>
     <use xlink:href="#md85a1bd9fc" x="48.472482" y="59.78337" style="fill: #1f77b4; fill-opacity: 0.5; stroke: #1f77b4; stroke-opacity: 0.5"/>
     <use xlink:href="#md85a1bd9fc" x="57.182064" y="28.371818" style="fill: #1f77b4; fill-opacity: 0.5; stroke: #1f77b4; stroke-opacity: 0.5"/>
     <use xlink:href="#md85a1bd9fc" x="54.444767" y="107.732486" style="fill: #1f77b4; fill-opacity: 0.5; stroke: #1f77b4; stroke-opacity: 0.5"/>
     <use xlink:href="#md85a1bd9fc" x="58.42629" y="108.140545" style="fill: #1f77b4; fill-opacity: 0.5; stroke: #1f77b4; stroke-opacity: 0.5"/>
     <use xlink:href="#md85a1bd9fc" x="56.435528" y="107.836671" style="fill: #1f77b4; fill-opacity: 0.5; stroke: #1f77b4; stroke-opacity: 0.5"/>
     <use xlink:href="#md85a1bd9fc" x="55.688993" y="107.671709" style="fill: #1f77b4; fill-opacity: 0.5; stroke: #1f77b4; stroke-opacity: 0.5"/>
     <use xlink:href="#md85a1bd9fc" x="56.684373" y="108.496666" style="fill: #1f77b4; fill-opacity: 0.5; stroke: #1f77b4; stroke-opacity: 0.5"/>
     <use xlink:href="#md85a1bd9fc" x="54.693612" y="106.972556" style="fill: #1f77b4; fill-opacity: 0.5; stroke: #1f77b4; stroke-opacity: 0.5"/>
     <use xlink:href="#md85a1bd9fc" x="54.693612" y="108.08089" style="fill: #1f77b4; fill-opacity: 0.5; stroke: #1f77b4; stroke-opacity: 0.5"/>
     <use xlink:href="#md85a1bd9fc" x="54.195921" y="105.745312" style="fill: #1f77b4; fill-opacity: 0.5; stroke: #1f77b4; stroke-opacity: 0.5"/>
     <use xlink:href="#md85a1bd9fc" x="56.933219" y="107.478878" style="fill: #1f77b4; fill-opacity: 0.5; stroke: #1f77b4; stroke-opacity: 0.5"/>
     <use xlink:href="#md85a1bd9fc" x="54.195921" y="108.165071" style="fill: #1f77b4; fill-opacity: 0.5; stroke: #1f77b4; stroke-opacity: 0.5"/>
     <use xlink:href="#md85a1bd9fc" x="56.933219" y="107.415912" style="fill: #1f77b4; fill-opacity: 0.5; stroke: #1f77b4; stroke-opacity: 0.5"/>
     <use xlink:href="#md85a1bd9fc" x="56.684373" y="108.598847" style="fill: #1f77b4; fill-opacity: 0.5; stroke: #1f77b4; stroke-opacity: 0.5"/>
     <use xlink:href="#md85a1bd9fc" x="54.444767" y="92.298622" style="fill: #1f77b4; fill-opacity: 0.5; stroke: #1f77b4; stroke-opacity: 0.5"/>
     <use xlink:href="#md85a1bd9fc" x="57.9286" y="75.089496" style="fill: #1f77b4; fill-opacity: 0.5; stroke: #1f77b4; stroke-opacity: 0.5"/>
     <use xlink:href="#md85a1bd9fc" x="56.435528" y="107.358464" style="fill: #1f77b4; fill-opacity: 0.5; stroke: #1f77b4; stroke-opacity: 0.5"/>
     <use xlink:href="#md85a1bd9fc" x="126.858722" y="107.221141" style="fill: #1f77b4; fill-opacity: 0.5; stroke: #1f77b4; stroke-opacity: 0.5"/>
     <use xlink:href="#md85a1bd9fc" x="126.858722" y="106.732564" style="fill: #1f77b4; fill-opacity: 0.5; stroke: #1f77b4; stroke-opacity: 0.5"/>
     <use xlink:href="#md85a1bd9fc" x="126.858722" y="106.56858" style="fill: #1f77b4; fill-opacity: 0.5; stroke: #1f77b4; stroke-opacity: 0.5"/>
    </g>
   </g>
   <g id="FillBetweenPolyCollection_1">
    <defs>
     <path id="m15f05a5ed5" d="M 48.223636 -70.994826 
L 48.223636 -63.019995 
L 49.153664 -63.008658 
L 50.083691 -62.975153 
L 51.013719 -62.990666 
L 51.943747 -62.954693 
L 52.873774 -62.955111 
L 53.803802 -62.971639 
L 54.733829 -62.91141 
L 55.663857 -62.91417 
L 56.593884 -62.877864 
L 57.523912 -62.888286 
L 58.453939 -62.811566 
L 59.383967 -62.769091 
L 60.313994 -62.750615 
L 61.244022 -62.659112 
L 62.17405 -62.571782 
L 63.104077 -62.506381 
L 64.034105 -62.423456 
L 64.964132 -62.314079 
L 65.89416 -62.257684 
L 66.824187 -62.128628 
L 67.754215 -62.092994 
L 68.684242 -61.999186 
L 69.61427 -61.882707 
L 70.544298 -61.787233 
L 71.474325 -61.700006 
L 72.404353 -61.568847 
L 73.33438 -61.436551 
L 74.264408 -61.35337 
L 75.194435 -61.183418 
L 76.124463 -61.068176 
L 77.05449 -60.915407 
L 77.984518 -60.725969 
L 78.914545 -60.54931 
L 79.844573 -60.337907 
L 80.774601 -60.202544 
L 81.704628 -60.025695 
L 82.634656 -59.882907 
L 83.564683 -59.681027 
L 84.494711 -59.493941 
L 85.424738 -59.289694 
L 86.354766 -59.098732 
L 87.284793 -58.863964 
L 88.214821 -58.649404 
L 89.144848 -58.430743 
L 90.074876 -58.278844 
L 91.004904 -58.036724 
L 91.934931 -57.856288 
L 92.864959 -57.678688 
L 93.794986 -57.512092 
L 94.725014 -57.318671 
L 95.655041 -57.120167 
L 96.585069 -56.919565 
L 97.515096 -56.718962 
L 98.445124 -56.511943 
L 99.375152 -56.25563 
L 100.305179 -56.013293 
L 101.235207 -55.745111 
L 102.165234 -55.482419 
L 103.095262 -55.294455 
L 104.025289 -55.121695 
L 104.955317 -54.949052 
L 105.885344 -54.777479 
L 106.815372 -54.605906 
L 107.745399 -54.393641 
L 108.675427 -54.141883 
L 109.605455 -53.890126 
L 110.535482 -53.638368 
L 111.46551 -53.386611 
L 112.395537 -53.134853 
L 113.325565 -52.883096 
L 114.255592 -52.631338 
L 115.18562 -52.387663 
L 116.115647 -52.175415 
L 117.045675 -51.963341 
L 117.975702 -51.752127 
L 118.90573 -51.540912 
L 119.835758 -51.28131 
L 120.765785 -51.034642 
L 121.695813 -50.821898 
L 122.62584 -50.609154 
L 123.555868 -50.39641 
L 124.485895 -50.183666 
L 125.415923 -49.970922 
L 126.34595 -49.758178 
L 127.275978 -49.545434 
L 128.206006 -49.33269 
L 129.136033 -49.103463 
L 130.066061 -48.8563 
L 130.996088 -48.609136 
L 131.926116 -48.361973 
L 132.856143 -48.11481 
L 133.786171 -47.867646 
L 134.716198 -47.620483 
L 135.646226 -47.37332 
L 136.576253 -47.126156 
L 137.506281 -46.878993 
L 138.436309 -46.63183 
L 139.366336 -46.401152 
L 140.296364 -46.191818 
L 140.296364 -68.42776 
L 140.296364 -68.42776 
L 139.366336 -68.389983 
L 138.436309 -68.352205 
L 137.506281 -68.314307 
L 136.576253 -68.276329 
L 135.646226 -68.230149 
L 134.716198 -68.179007 
L 133.786171 -68.16314 
L 132.856143 -68.123015 
L 131.926116 -68.088258 
L 130.996088 -68.050883 
L 130.066061 -68.013508 
L 129.136033 -67.976133 
L 128.206006 -67.938759 
L 127.275978 -67.908989 
L 126.34595 -67.923654 
L 125.415923 -67.886853 
L 124.485895 -67.850051 
L 123.555868 -67.81325 
L 122.62584 -67.776449 
L 121.695813 -67.739647 
L 120.765785 -67.702003 
L 119.835758 -67.661238 
L 118.90573 -67.617231 
L 117.975702 -67.586849 
L 117.045675 -67.553274 
L 116.115647 -67.516411 
L 115.18562 -67.479548 
L 114.255592 -67.442685 
L 113.325565 -67.405822 
L 112.395537 -67.368892 
L 111.46551 -67.330734 
L 110.535482 -67.279666 
L 109.605455 -67.257407 
L 108.675427 -67.220158 
L 107.745399 -67.183443 
L 106.815372 -67.146728 
L 105.885344 -67.110013 
L 104.955317 -67.092512 
L 104.025289 -67.109403 
L 103.095262 -67.085368 
L 102.165234 -67.060921 
L 101.235207 -67.036474 
L 100.305179 -67.012027 
L 99.375152 -66.982661 
L 98.445124 -66.952598 
L 97.515096 -66.922534 
L 96.585069 -66.89247 
L 95.655041 -66.86221 
L 94.725014 -66.832343 
L 93.794986 -66.791616 
L 92.864959 -66.771541 
L 91.934931 -66.706887 
L 91.004904 -66.689523 
L 90.074876 -66.677607 
L 89.144848 -66.650727 
L 88.214821 -66.621046 
L 87.284793 -66.624992 
L 86.354766 -66.648645 
L 85.424738 -66.689796 
L 84.494711 -66.784404 
L 83.564683 -66.764145 
L 82.634656 -66.784945 
L 81.704628 -66.782601 
L 80.774601 -66.864858 
L 79.844573 -66.983558 
L 78.914545 -67.067115 
L 77.984518 -67.091877 
L 77.05449 -67.198321 
L 76.124463 -67.307014 
L 75.194435 -67.325603 
L 74.264408 -67.322729 
L 73.33438 -67.345082 
L 72.404353 -67.464516 
L 71.474325 -67.561999 
L 70.544298 -67.66561 
L 69.61427 -67.777831 
L 68.684242 -67.914744 
L 67.754215 -68.018687 
L 66.824187 -68.086783 
L 65.89416 -68.155164 
L 64.964132 -68.269076 
L 64.034105 -68.41056 
L 63.104077 -68.490928 
L 62.17405 -68.684958 
L 61.244022 -68.858171 
L 60.313994 -69.035786 
L 59.383967 -69.162904 
L 58.453939 -69.299977 
L 57.523912 -69.437625 
L 56.593884 -69.609869 
L 55.663857 -69.776447 
L 54.733829 -69.883113 
L 53.803802 -70.025694 
L 52.873774 -70.204655 
L 51.943747 -70.338735 
L 51.013719 -70.439944 
L 50.083691 -70.609846 
L 49.153664 -70.824639 
L 48.223636 -70.994826 
z
" style="stroke: #ffffff; stroke-opacity: 0.15; stroke-width: 0.8"/>
    </defs>
    <g clip-path="url(#pfe76b5a339)">
     <use xlink:href="#m15f05a5ed5" x="0" y="162" style="fill: #1f77b4; fill-opacity: 0.15; stroke: #ffffff; stroke-opacity: 0.15; stroke-width: 0.8"/>
    </g>
   </g>
   <g id="line2d_15">
    <path d="M 48.223636 95.104062 
L 49.153664 95.19359 
L 50.083691 95.283117 
L 51.013719 95.372645 
L 51.943747 95.462173 
L 52.873774 95.551701 
L 53.803802 95.641229 
L 54.733829 95.730756 
L 55.663857 95.820284 
L 56.593884 95.909812 
L 57.523912 95.99934 
L 58.453939 96.088867 
L 59.383967 96.178395 
L 60.313994 96.267923 
L 61.244022 96.357451 
L 62.17405 96.446979 
L 63.104077 96.536506 
L 64.034105 96.626034 
L 64.964132 96.715562 
L 65.89416 96.80509 
L 66.824187 96.894617 
L 67.754215 96.984145 
L 68.684242 97.073673 
L 69.61427 97.163201 
L 70.544298 97.252729 
L 71.474325 97.342256 
L 72.404353 97.431784 
L 73.33438 97.521312 
L 74.264408 97.61084 
L 75.194435 97.700368 
L 76.124463 97.789895 
L 77.05449 97.879423 
L 77.984518 97.968951 
L 78.914545 98.058479 
L 79.844573 98.148006 
L 80.774601 98.237534 
L 81.704628 98.327062 
L 82.634656 98.41659 
L 83.564683 98.506118 
L 84.494711 98.595645 
L 85.424738 98.685173 
L 86.354766 98.774701 
L 87.284793 98.864229 
L 88.214821 98.953756 
L 89.144848 99.043284 
L 90.074876 99.132812 
L 91.004904 99.22234 
L 91.934931 99.311868 
L 92.864959 99.401395 
L 93.794986 99.490923 
L 94.725014 99.580451 
L 95.655041 99.669979 
L 96.585069 99.759506 
L 97.515096 99.849034 
L 98.445124 99.938562 
L 99.375152 100.02809 
L 100.305179 100.117618 
L 101.235207 100.207145 
L 102.165234 100.296673 
L 103.095262 100.386201 
L 104.025289 100.475729 
L 104.955317 100.565256 
L 105.885344 100.654784 
L 106.815372 100.744312 
L 107.745399 100.83384 
L 108.675427 100.923368 
L 109.605455 101.012895 
L 110.535482 101.102423 
L 111.46551 101.191951 
L 112.395537 101.281479 
L 113.325565 101.371007 
L 114.255592 101.460534 
L 115.18562 101.550062 
L 116.115647 101.63959 
L 117.045675 101.729118 
L 117.975702 101.818645 
L 118.90573 101.908173 
L 119.835758 101.997701 
L 120.765785 102.087229 
L 121.695813 102.176757 
L 122.62584 102.266284 
L 123.555868 102.355812 
L 124.485895 102.44534 
L 125.415923 102.534868 
L 126.34595 102.624395 
L 127.275978 102.713923 
L 128.206006 102.803451 
L 129.136033 102.892979 
L 130.066061 102.982507 
L 130.996088 103.072034 
L 131.926116 103.161562 
L 132.856143 103.25109 
L 133.786171 103.340618 
L 134.716198 103.430145 
L 135.646226 103.519673 
L 136.576253 103.609201 
L 137.506281 103.698729 
L 138.436309 103.788257 
L 139.366336 103.877784 
L 140.296364 103.967312 
" clip-path="url(#pfe76b5a339)" style="fill: none; stroke: #1f77b4; stroke-width: 1.8; stroke-linecap: round"/>
   </g>
   <g id="patch_3">
    <path d="M 43.62 120.18 
L 43.62 24 
" style="fill: none; stroke: #cccccc; stroke-linejoin: miter; stroke-linecap: square"/>
   </g>
   <g id="patch_4">
    <path d="M 144.9 120.18 
L 144.9 24 
" style="fill: none; stroke: #cccccc; stroke-linejoin: miter; stroke-linecap: square"/>
   </g>
   <g id="patch_5">
    <path d="M 43.62 120.18 
L 144.9 120.18 
" style="fill: none; stroke: #cccccc; stroke-linejoin: miter; stroke-linecap: square"/>
   </g>
   <g id="patch_6">
    <path d="M 43.62 24 
L 144.9 24 
" style="fill: none; stroke: #cccccc; stroke-linejoin: miter; stroke-linecap: square"/>
   </g>
   <g id="text_17">
    <!-- rho = -0.09 -->
    <g style="fill: #262626" transform="translate(104.388 35.982437) scale(0.1 -0.1)">
     <defs>
      <path id="Helvetica-72" d="M 428 3347 
L 963 3347 
L 963 2769 
Q 1028 2938 1284 3180 
Q 1541 3422 1875 3422 
Q 1891 3422 1928 3419 
Q 1966 3416 2056 3406 
L 2056 2813 
Q 2006 2822 1964 2825 
Q 1922 2828 1872 2828 
Q 1447 2828 1219 2554 
Q 991 2281 991 1925 
L 991 0 
L 428 0 
L 428 3347 
z
" transform="scale(0.015625)"/>
      <path id="Helvetica-3d" d="M 3547 2569 
L 3547 2044 
L 288 2044 
L 288 2569 
L 3547 2569 
z
M 3547 1228 
L 3547 694 
L 288 694 
L 288 1228 
L 3547 1228 
z
" transform="scale(0.015625)"/>
      <path id="Helvetica-2d" d="M 266 2072 
L 1834 2072 
L 1834 1494 
L 266 1494 
L 266 2072 
z
" transform="scale(0.015625)"/>
      <path id="Helvetica-2e" d="M 547 681 
L 1200 681 
L 1200 0 
L 547 0 
L 547 681 
z
" transform="scale(0.015625)"/>
     </defs>
     <use xlink:href="#Helvetica-72"/>
     <use xlink:href="#Helvetica-68" transform="translate(33.300781 0)"/>
     <use xlink:href="#Helvetica-6f" transform="translate(88.916016 0)"/>
     <use xlink:href="#Helvetica-20" transform="translate(144.53125 0)"/>
     <use xlink:href="#Helvetica-3d" transform="translate(172.314453 0)"/>
     <use xlink:href="#Helvetica-20" transform="translate(230.712891 0)"/>
     <use xlink:href="#Helvetica-2d" transform="translate(258.496094 0)"/>
     <use xlink:href="#Helvetica-30" transform="translate(291.796875 0)"/>
     <use xlink:href="#Helvetica-2e" transform="translate(347.412109 0)"/>
     <use xlink:href="#Helvetica-30" transform="translate(375.195312 0)"/>
     <use xlink:href="#Helvetica-39" transform="translate(430.810547 0)"/>
    </g>
    <!-- p = 3.11e-01 -->
    <g style="fill: #262626" transform="translate(104.388 46.674937) scale(0.1 -0.1)">
     <defs>
      <path id="Helvetica-70" d="M 1825 378 
Q 2219 378 2480 708 
Q 2741 1038 2741 1694 
Q 2741 2094 2625 2381 
Q 2406 2934 1825 2934 
Q 1241 2934 1025 2350 
Q 909 2038 909 1556 
Q 909 1169 1025 897 
Q 1244 378 1825 378 
z
M 369 3331 
L 916 3331 
L 916 2888 
Q 1084 3116 1284 3241 
Q 1569 3428 1953 3428 
Q 2522 3428 2919 2992 
Q 3316 2556 3316 1747 
Q 3316 653 2744 184 
Q 2381 -113 1900 -113 
Q 1522 -113 1266 53 
Q 1116 147 931 375 
L 931 -1334 
L 369 -1334 
L 369 3331 
z
" transform="scale(0.015625)"/>
     </defs>
     <use xlink:href="#Helvetica-70"/>
     <use xlink:href="#Helvetica-20" transform="translate(55.615234 0)"/>
     <use xlink:href="#Helvetica-3d" transform="translate(83.398438 0)"/>
     <use xlink:href="#Helvetica-20" transform="translate(141.796875 0)"/>
     <use xlink:href="#Helvetica-33" transform="translate(169.580078 0)"/>
     <use xlink:href="#Helvetica-2e" transform="translate(225.195312 0)"/>
     <use xlink:href="#Helvetica-31" transform="translate(252.978516 0)"/>
     <use xlink:href="#Helvetica-31" transform="translate(308.59375 0)"/>
     <use xlink:href="#Helvetica-65" transform="translate(364.208984 0)"/>
     <use xlink:href="#Helvetica-2d" transform="translate(419.824219 0)"/>
     <use xlink:href="#Helvetica-30" transform="translate(453.125 0)"/>
     <use xlink:href="#Helvetica-31" transform="translate(508.740234 0)"/>
    </g>
   </g>
   <g id="text_18">
    <!-- AF2 (no templates) RIA sc vs agonist length -->
    <g style="fill: #262626" transform="translate(-3.278281 18) scale(0.1 -0.1)">
     <defs>
      <path id="Helvetica-41" d="M 2844 1881 
L 2147 3909 
L 1406 1881 
L 2844 1881 
z
M 1822 4591 
L 2525 4591 
L 4191 0 
L 3509 0 
L 3044 1375 
L 1228 1375 
L 731 0 
L 94 0 
L 1822 4591 
z
" transform="scale(0.015625)"/>
      <path id="Helvetica-46" d="M 547 4591 
L 3731 4591 
L 3731 4028 
L 1169 4028 
L 1169 2634 
L 3422 2634 
L 3422 2088 
L 1169 2088 
L 1169 0 
L 547 0 
L 547 4591 
z
" transform="scale(0.015625)"/>
      <path id="Helvetica-28" d="M 1894 4666 
Q 1403 3713 1256 3263 
Q 1034 2578 1034 1681 
Q 1034 775 1288 25 
Q 1444 -438 1903 -1306 
L 1525 -1306 
Q 1069 -594 959 -397 
Q 850 -200 722 138 
Q 547 600 478 1125 
Q 444 1397 444 1644 
Q 444 2569 734 3291 
Q 919 3750 1503 4666 
L 1894 4666 
z
" transform="scale(0.015625)"/>
      <path id="Helvetica-6d" d="M 413 3347 
L 969 3347 
L 969 2872 
Q 1169 3119 1331 3231 
Q 1609 3422 1963 3422 
Q 2363 3422 2606 3225 
Q 2744 3113 2856 2894 
Q 3044 3163 3297 3292 
Q 3550 3422 3866 3422 
Q 4541 3422 4784 2934 
Q 4916 2672 4916 2228 
L 4916 0 
L 4331 0 
L 4331 2325 
Q 4331 2659 4164 2784 
Q 3997 2909 3756 2909 
Q 3425 2909 3186 2687 
Q 2947 2466 2947 1947 
L 2947 0 
L 2375 0 
L 2375 2184 
Q 2375 2525 2294 2681 
Q 2166 2916 1816 2916 
Q 1497 2916 1236 2669 
Q 975 2422 975 1775 
L 975 0 
L 413 0 
L 413 3347 
z
" transform="scale(0.015625)"/>
      <path id="Helvetica-29" d="M 222 -1306 
Q 719 -338 863 106 
Q 1081 778 1081 1681 
Q 1081 2584 828 3334 
Q 672 3797 213 4666 
L 591 4666 
Q 1072 3897 1173 3717 
Q 1275 3538 1394 3222 
Q 1544 2831 1608 2450 
Q 1672 2069 1672 1716 
Q 1672 791 1378 66 
Q 1194 -400 613 -1306 
L 222 -1306 
z
" transform="scale(0.015625)"/>
      <path id="Helvetica-49" d="M 628 4591 
L 1256 4591 
L 1256 0 
L 628 0 
L 628 4591 
z
" transform="scale(0.015625)"/>
      <path id="Helvetica-63" d="M 1703 3444 
Q 2269 3444 2623 3169 
Q 2978 2894 3050 2222 
L 2503 2222 
Q 2453 2531 2275 2736 
Q 2097 2941 1703 2941 
Q 1166 2941 934 2416 
Q 784 2075 784 1575 
Q 784 1072 996 728 
Q 1209 384 1666 384 
Q 2016 384 2220 598 
Q 2425 813 2503 1184 
L 3050 1184 
Q 2956 519 2581 211 
Q 2206 -97 1622 -97 
Q 966 -97 575 383 
Q 184 863 184 1581 
Q 184 2463 612 2953 
Q 1041 3444 1703 3444 
z
M 1616 3428 
L 1616 3428 
z
" transform="scale(0.015625)"/>
      <path id="Helvetica-76" d="M 688 3347 
L 1581 622 
L 2516 3347 
L 3131 3347 
L 1869 0 
L 1269 0 
L 34 3347 
L 688 3347 
z
" transform="scale(0.015625)"/>
     </defs>
     <use xlink:href="#Helvetica-41"/>
     <use xlink:href="#Helvetica-46" transform="translate(66.699219 0)"/>
     <use xlink:href="#Helvetica-32" transform="translate(127.783203 0)"/>
     <use xlink:href="#Helvetica-20" transform="translate(183.398438 0)"/>
     <use xlink:href="#Helvetica-28" transform="translate(211.181641 0)"/>
     <use xlink:href="#Helvetica-6e" transform="translate(244.482422 0)"/>
     <use xlink:href="#Helvetica-6f" transform="translate(300.097656 0)"/>
     <use xlink:href="#Helvetica-20" transform="translate(355.712891 0)"/>
     <use xlink:href="#Helvetica-74" transform="translate(383.496094 0)"/>
     <use xlink:href="#Helvetica-65" transform="translate(411.279297 0)"/>
     <use xlink:href="#Helvetica-6d" transform="translate(466.894531 0)"/>
     <use xlink:href="#Helvetica-70" transform="translate(550.195312 0)"/>
     <use xlink:href="#Helvetica-6c" transform="translate(605.810547 0)"/>
     <use xlink:href="#Helvetica-61" transform="translate(628.027344 0)"/>
     <use xlink:href="#Helvetica-74" transform="translate(683.642578 0)"/>
     <use xlink:href="#Helvetica-65" transform="translate(711.425781 0)"/>
     <use xlink:href="#Helvetica-73" transform="translate(767.041016 0)"/>
     <use xlink:href="#Helvetica-29" transform="translate(817.041016 0)"/>
     <use xlink:href="#Helvetica-20" transform="translate(850.341797 0)"/>
     <use xlink:href="#Helvetica-52" transform="translate(878.125 0)"/>
     <use xlink:href="#Helvetica-49" transform="translate(950.341797 0)"/>
     <use xlink:href="#Helvetica-41" transform="translate(978.125 0)"/>
     <use xlink:href="#Helvetica-20" transform="translate(1044.824219 0)"/>
     <use xlink:href="#Helvetica-73" transform="translate(1072.607422 0)"/>
     <use xlink:href="#Helvetica-63" transform="translate(1122.607422 0)"/>
     <use xlink:href="#Helvetica-20" transform="translate(1172.607422 0)"/>
     <use xlink:href="#Helvetica-76" transform="translate(1200.390625 0)"/>
     <use xlink:href="#Helvetica-73" transform="translate(1250.390625 0)"/>
     <use xlink:href="#Helvetica-20" transform="translate(1300.390625 0)"/>
     <use xlink:href="#Helvetica-61" transform="translate(1328.173828 0)"/>
     <use xlink:href="#Helvetica-67" transform="translate(1383.789062 0)"/>
     <use xlink:href="#Helvetica-6f" transform="translate(1439.404297 0)"/>
     <use xlink:href="#Helvetica-6e" transform="translate(1495.019531 0)"/>
     <use xlink:href="#Helvetica-69" transform="translate(1550.634766 0)"/>
     <use xlink:href="#Helvetica-73" transform="translate(1572.851562 0)"/>
     <use xlink:href="#Helvetica-74" transform="translate(1622.851562 0)"/>
     <use xlink:href="#Helvetica-20" transform="translate(1650.634766 0)"/>
     <use xlink:href="#Helvetica-6c" transform="translate(1678.417969 0)"/>
     <use xlink:href="#Helvetica-65" transform="translate(1700.634766 0)"/>
     <use xlink:href="#Helvetica-6e" transform="translate(1756.25 0)"/>
     <use xlink:href="#Helvetica-67" transform="translate(1811.865234 0)"/>
     <use xlink:href="#Helvetica-74" transform="translate(1867.480469 0)"/>
     <use xlink:href="#Helvetica-68" transform="translate(1895.263672 0)"/>
    </g>
   </g>
  </g>
 </g>
 <defs>
  <clipPath id="pfe76b5a339">
   <rect x="43.62" y="24" width="101.28" height="96.18"/>
  </clipPath>
 </defs>
</svg>
