<?xml version="1.0" encoding="utf-8" standalone="no"?>
<!DOCTYPE svg PUBLIC "-//W3C//DTD SVG 1.1//EN"
  "http://www.w3.org/Graphics/SVG/1.1/DTD/svg11.dtd">
<svg xmlns:xlink="http://www.w3.org/1999/xlink" width="180pt" height="180pt" viewBox="0 0 180 180" xmlns="http://www.w3.org/2000/svg" version="1.1">
 <metadata>
  <rdf:RDF xmlns:dc="http://purl.org/dc/elements/1.1/" xmlns:cc="http://creativecommons.org/ns#" xmlns:rdf="http://www.w3.org/1999/02/22-rdf-syntax-ns#">
   <cc:Work>
    <dc:type rdf:resource="http://purl.org/dc/dcmitype/StillImage"/>
    <dc:date>2025-03-06T21:33:12.611435</dc:date>
    <dc:format>image/svg+xml</dc:format>
    <dc:creator>
     <cc:Agent>
      <dc:title>Matplotlib v3.10.0, https://matplotlib.org/</dc:title>
     </cc:Agent>
    </dc:creator>
   </cc:Work>
  </rdf:RDF>
 </metadata>
 <defs>
  <style type="text/css">*{stroke-linejoin: round; stroke-linecap: butt}</style>
 </defs>
 <g id="figure_1">
  <g id="patch_1">
   <path d="M 0 180 
L 180 180 
L 180 0 
L 0 0 
z
" style="fill: #ffffff"/>
  </g>
  <g id="axes_1">
   <g id="patch_2">
    <path d="M 43.62 138.18 
L 168.615 138.18 
L 168.615 24.21375 
L 43.62 24.21375 
z
" style="fill: #ffffff"/>
   </g>
   <g id="matplotlib.axis_1">
    <g id="xtick_1">
     <g id="line2d_1">
      <path d="M 68.240227 138.18 
L 68.240227 24.21375 
" clip-path="url(#p69fcfc41c2)" style="fill: none; stroke: #cccccc; stroke-width: 0.8; stroke-linecap: round"/>
     </g>
     <g id="text_1">
      <!-- 2 -->
      <g style="fill: #262626" transform="translate(65.459759 153.653437) scale(0.1 -0.1)">
       <defs>
        <path id="Helvetica-32" d="M 200 0 
Q 231 578 439 1006 
Q 647 1434 1250 1784 
L 1850 2131 
Q 2253 2366 2416 2531 
Q 2672 2791 2672 3125 
Q 2672 3516 2437 3745 
Q 2203 3975 1813 3975 
Q 1234 3975 1013 3538 
Q 894 3303 881 2888 
L 309 2888 
Q 319 3472 525 3841 
Q 891 4491 1816 4491 
Q 2584 4491 2939 4075 
Q 3294 3659 3294 3150 
Q 3294 2613 2916 2231 
Q 2697 2009 2131 1694 
L 1703 1456 
Q 1397 1288 1222 1134 
Q 909 863 828 531 
L 3272 531 
L 3272 0 
L 200 0 
z
" transform="scale(0.015625)"/>
       </defs>
       <use xlink:href="#Helvetica-32"/>
      </g>
     </g>
    </g>
    <g id="xtick_2">
     <g id="line2d_2">
      <path d="M 106.1175 138.18 
L 106.1175 24.21375 
" clip-path="url(#p69fcfc41c2)" style="fill: none; stroke: #cccccc; stroke-width: 0.8; stroke-linecap: round"/>
     </g>
     <g id="text_2">
      <!-- 4 -->
      <g style="fill: #262626" transform="translate(103.337031 153.653437) scale(0.1 -0.1)">
       <defs>
        <path id="Helvetica-34" d="M 2116 1584 
L 2116 3613 
L 681 1584 
L 2116 1584 
z
M 2125 0 
L 2125 1094 
L 163 1094 
L 163 1644 
L 2213 4488 
L 2688 4488 
L 2688 1584 
L 3347 1584 
L 3347 1094 
L 2688 1094 
L 2688 0 
L 2125 0 
z
" transform="scale(0.015625)"/>
       </defs>
       <use xlink:href="#Helvetica-34"/>
      </g>
     </g>
    </g>
    <g id="xtick_3">
     <g id="line2d_3">
      <path d="M 143.994773 138.18 
L 143.994773 24.21375 
" clip-path="url(#p69fcfc41c2)" style="fill: none; stroke: #cccccc; stroke-width: 0.8; stroke-linecap: round"/>
     </g>
     <g id="text_3">
      <!-- 6 -->
      <g style="fill: #262626" transform="translate(141.214304 153.653437) scale(0.1 -0.1)">
       <defs>
        <path id="Helvetica-36" d="M 1872 4494 
Q 2622 4494 2917 4105 
Q 3213 3716 3213 3303 
L 2656 3303 
Q 2606 3569 2497 3719 
Q 2294 4000 1881 4000 
Q 1409 4000 1131 3564 
Q 853 3128 822 2316 
Q 1016 2600 1309 2741 
Q 1578 2866 1909 2866 
Q 2472 2866 2890 2506 
Q 3309 2147 3309 1434 
Q 3309 825 2912 354 
Q 2516 -116 1781 -116 
Q 1153 -116 697 361 
Q 241 838 241 1966 
Q 241 2800 444 3381 
Q 834 4494 1872 4494 
z
M 1831 384 
Q 2275 384 2495 682 
Q 2716 981 2716 1388 
Q 2716 1731 2519 2042 
Q 2322 2353 1803 2353 
Q 1441 2353 1167 2112 
Q 894 1872 894 1388 
Q 894 963 1142 673 
Q 1391 384 1831 384 
z
" transform="scale(0.015625)"/>
       </defs>
       <use xlink:href="#Helvetica-36"/>
      </g>
     </g>
    </g>
    <g id="text_4">
     <!-- agonist selectivity -->
     <g style="fill: #262626" transform="translate(66.934687 166.91125) scale(0.1 -0.1)">
      <defs>
       <path id="Helvetica-61" d="M 844 891 
Q 844 647 1022 506 
Q 1200 366 1444 366 
Q 1741 366 2019 503 
Q 2488 731 2488 1250 
L 2488 1703 
Q 2384 1638 2221 1594 
Q 2059 1550 1903 1531 
L 1563 1488 
Q 1256 1447 1103 1359 
Q 844 1213 844 891 
z
M 2206 2028 
Q 2400 2053 2466 2191 
Q 2503 2266 2503 2406 
Q 2503 2694 2298 2823 
Q 2094 2953 1713 2953 
Q 1272 2953 1088 2716 
Q 984 2584 953 2325 
L 428 2325 
Q 444 2944 830 3186 
Q 1216 3428 1725 3428 
Q 2316 3428 2684 3203 
Q 3050 2978 3050 2503 
L 3050 575 
Q 3050 488 3086 434 
Q 3122 381 3238 381 
Q 3275 381 3322 386 
Q 3369 391 3422 400 
L 3422 -16 
Q 3291 -53 3222 -62 
Q 3153 -72 3034 -72 
Q 2744 -72 2613 134 
Q 2544 244 2516 444 
Q 2344 219 2022 53 
Q 1700 -113 1313 -113 
Q 847 -113 551 170 
Q 256 453 256 878 
Q 256 1344 547 1600 
Q 838 1856 1309 1916 
L 2206 2028 
z
M 1741 3428 
L 1741 3428 
z
" transform="scale(0.015625)"/>
       <path id="Helvetica-67" d="M 1594 3406 
Q 1988 3406 2281 3213 
Q 2441 3103 2606 2894 
L 2606 3316 
L 3125 3316 
L 3125 272 
Q 3125 -366 2938 -734 
Q 2588 -1416 1616 -1416 
Q 1075 -1416 706 -1173 
Q 338 -931 294 -416 
L 866 -416 
Q 906 -641 1028 -763 
Q 1219 -950 1628 -950 
Q 2275 -950 2475 -494 
Q 2594 -225 2584 466 
Q 2416 209 2178 84 
Q 1941 -41 1550 -41 
Q 1006 -41 598 345 
Q 191 731 191 1622 
Q 191 2463 602 2934 
Q 1013 3406 1594 3406 
z
M 2606 1688 
Q 2606 2309 2350 2609 
Q 2094 2909 1697 2909 
Q 1103 2909 884 2353 
Q 769 2056 769 1575 
Q 769 1009 998 714 
Q 1228 419 1616 419 
Q 2222 419 2469 966 
Q 2606 1275 2606 1688 
z
M 1659 3428 
L 1659 3428 
z
" transform="scale(0.015625)"/>
       <path id="Helvetica-6f" d="M 1741 363 
Q 2300 363 2508 786 
Q 2716 1209 2716 1728 
Q 2716 2197 2566 2491 
Q 2328 2953 1747 2953 
Q 1231 2953 997 2559 
Q 763 2166 763 1609 
Q 763 1075 997 719 
Q 1231 363 1741 363 
z
M 1763 3444 
Q 2409 3444 2856 3012 
Q 3303 2581 3303 1744 
Q 3303 934 2909 406 
Q 2516 -122 1688 -122 
Q 997 -122 590 345 
Q 184 813 184 1600 
Q 184 2444 612 2944 
Q 1041 3444 1763 3444 
z
M 1744 3428 
L 1744 3428 
z
" transform="scale(0.015625)"/>
       <path id="Helvetica-6e" d="M 413 3347 
L 947 3347 
L 947 2872 
Q 1184 3166 1450 3294 
Q 1716 3422 2041 3422 
Q 2753 3422 3003 2925 
Q 3141 2653 3141 2147 
L 3141 0 
L 2569 0 
L 2569 2109 
Q 2569 2416 2478 2603 
Q 2328 2916 1934 2916 
Q 1734 2916 1606 2875 
Q 1375 2806 1200 2600 
Q 1059 2434 1017 2257 
Q 975 2081 975 1753 
L 975 0 
L 413 0 
L 413 3347 
z
M 1734 3428 
L 1734 3428 
z
" transform="scale(0.015625)"/>
       <path id="Helvetica-69" d="M 413 3331 
L 984 3331 
L 984 0 
L 413 0 
L 413 3331 
z
M 413 4591 
L 984 4591 
L 984 3953 
L 413 3953 
L 413 4591 
z
" transform="scale(0.015625)"/>
       <path id="Helvetica-73" d="M 747 1050 
Q 772 769 888 619 
Q 1100 347 1625 347 
Q 1938 347 2175 483 
Q 2413 619 2413 903 
Q 2413 1119 2222 1231 
Q 2100 1300 1741 1391 
L 1294 1503 
Q 866 1609 663 1741 
Q 300 1969 300 2372 
Q 300 2847 642 3140 
Q 984 3434 1563 3434 
Q 2319 3434 2653 2991 
Q 2863 2709 2856 2384 
L 2325 2384 
Q 2309 2575 2191 2731 
Q 1997 2953 1519 2953 
Q 1200 2953 1036 2831 
Q 872 2709 872 2509 
Q 872 2291 1088 2159 
Q 1213 2081 1456 2022 
L 1828 1931 
Q 2434 1784 2641 1647 
Q 2969 1431 2969 969 
Q 2969 522 2630 197 
Q 2291 -128 1597 -128 
Q 850 -128 539 211 
Q 228 550 206 1050 
L 747 1050 
z
M 1578 3428 
L 1578 3428 
z
" transform="scale(0.015625)"/>
       <path id="Helvetica-74" d="M 525 4281 
L 1094 4281 
L 1094 3347 
L 1628 3347 
L 1628 2888 
L 1094 2888 
L 1094 703 
Q 1094 528 1213 469 
Q 1278 434 1431 434 
Q 1472 434 1519 436 
Q 1566 438 1628 444 
L 1628 0 
Q 1531 -28 1426 -40 
Q 1322 -53 1200 -53 
Q 806 -53 665 148 
Q 525 350 525 672 
L 525 2888 
L 72 2888 
L 72 3347 
L 525 3347 
L 525 4281 
z
" transform="scale(0.015625)"/>
       <path id="Helvetica-20" transform="scale(0.015625)"/>
       <path id="Helvetica-65" d="M 1806 3422 
Q 2163 3422 2497 3255 
Q 2831 3088 3006 2822 
Q 3175 2569 3231 2231 
Q 3281 2000 3281 1494 
L 828 1494 
Q 844 984 1069 676 
Q 1294 369 1766 369 
Q 2206 369 2469 659 
Q 2619 828 2681 1050 
L 3234 1050 
Q 3213 866 3089 639 
Q 2966 413 2813 269 
Q 2556 19 2178 -69 
Q 1975 -119 1719 -119 
Q 1094 -119 659 336 
Q 225 791 225 1609 
Q 225 2416 662 2919 
Q 1100 3422 1806 3422 
z
M 2703 1941 
Q 2669 2306 2544 2525 
Q 2313 2931 1772 2931 
Q 1384 2931 1121 2651 
Q 859 2372 844 1941 
L 2703 1941 
z
M 1753 3428 
L 1753 3428 
z
" transform="scale(0.015625)"/>
       <path id="Helvetica-6c" d="M 428 4591 
L 991 4591 
L 991 0 
L 428 0 
L 428 4591 
z
" transform="scale(0.015625)"/>
       <path id="Helvetica-63" d="M 1703 3444 
Q 2269 3444 2623 3169 
Q 2978 2894 3050 2222 
L 2503 2222 
Q 2453 2531 2275 2736 
Q 2097 2941 1703 2941 
Q 1166 2941 934 2416 
Q 784 2075 784 1575 
Q 784 1072 996 728 
Q 1209 384 1666 384 
Q 2016 384 2220 598 
Q 2425 813 2503 1184 
L 3050 1184 
Q 2956 519 2581 211 
Q 2206 -97 1622 -97 
Q 966 -97 575 383 
Q 184 863 184 1581 
Q 184 2463 612 2953 
Q 1041 3444 1703 3444 
z
M 1616 3428 
L 1616 3428 
z
" transform="scale(0.015625)"/>
       <path id="Helvetica-76" d="M 688 3347 
L 1581 622 
L 2516 3347 
L 3131 3347 
L 1869 0 
L 1269 0 
L 34 3347 
L 688 3347 
z
" transform="scale(0.015625)"/>
       <path id="Helvetica-79" d="M 2503 3347 
L 3125 3347 
Q 3006 3025 2597 1878 
Q 2291 1016 2084 472 
Q 1597 -809 1397 -1090 
Q 1197 -1372 709 -1372 
Q 591 -1372 527 -1362 
Q 463 -1353 369 -1328 
L 369 -816 
Q 516 -856 581 -865 
Q 647 -875 697 -875 
Q 853 -875 926 -823 
Q 1000 -772 1050 -697 
Q 1066 -672 1162 -440 
Q 1259 -209 1303 -97 
L 66 3347 
L 703 3347 
L 1600 622 
L 2503 3347 
z
M 1597 3428 
L 1597 3428 
z
" transform="scale(0.015625)"/>
      </defs>
      <use xlink:href="#Helvetica-61"/>
      <use xlink:href="#Helvetica-67" transform="translate(55.615234 0)"/>
      <use xlink:href="#Helvetica-6f" transform="translate(111.230469 0)"/>
      <use xlink:href="#Helvetica-6e" transform="translate(166.845703 0)"/>
      <use xlink:href="#Helvetica-69" transform="translate(222.460938 0)"/>
      <use xlink:href="#Helvetica-73" transform="translate(244.677734 0)"/>
      <use xlink:href="#Helvetica-74" transform="translate(294.677734 0)"/>
      <use xlink:href="#Helvetica-20" transform="translate(322.460938 0)"/>
      <use xlink:href="#Helvetica-73" transform="translate(350.244141 0)"/>
      <use xlink:href="#Helvetica-65" transform="translate(400.244141 0)"/>
      <use xlink:href="#Helvetica-6c" transform="translate(455.859375 0)"/>
      <use xlink:href="#Helvetica-65" transform="translate(478.076172 0)"/>
      <use xlink:href="#Helvetica-63" transform="translate(533.691406 0)"/>
      <use xlink:href="#Helvetica-74" transform="translate(583.691406 0)"/>
      <use xlink:href="#Helvetica-69" transform="translate(611.474609 0)"/>
      <use xlink:href="#Helvetica-76" transform="translate(633.691406 0)"/>
      <use xlink:href="#Helvetica-69" transform="translate(683.691406 0)"/>
      <use xlink:href="#Helvetica-74" transform="translate(705.908203 0)"/>
      <use xlink:href="#Helvetica-79" transform="translate(733.691406 0)"/>
     </g>
    </g>
   </g>
   <g id="matplotlib.axis_2">
    <g id="ytick_1">
     <g id="line2d_4">
      <path d="M 43.62 138.18 
L 168.615 138.18 
" clip-path="url(#p69fcfc41c2)" style="fill: none; stroke: #cccccc; stroke-width: 0.8; stroke-linecap: round"/>
     </g>
     <g id="text_5">
      <!-- 0 -->
      <g style="fill: #262626" transform="translate(29.759063 141.766719) scale(0.1 -0.1)">
       <defs>
        <path id="Helvetica-30" d="M 1731 4475 
Q 2600 4475 2988 3759 
Q 3288 3206 3288 2244 
Q 3288 1331 3016 734 
Q 2622 -122 1728 -122 
Q 922 -122 528 578 
Q 200 1163 200 2147 
Q 200 2909 397 3456 
Q 766 4475 1731 4475 
z
M 1725 391 
Q 2163 391 2422 778 
Q 2681 1166 2681 2222 
Q 2681 2984 2493 3476 
Q 2306 3969 1766 3969 
Q 1269 3969 1039 3501 
Q 809 3034 809 2125 
Q 809 1441 956 1025 
Q 1181 391 1725 391 
z
" transform="scale(0.015625)"/>
       </defs>
       <use xlink:href="#Helvetica-30"/>
      </g>
     </g>
    </g>
    <g id="ytick_2">
     <g id="line2d_5">
      <path d="M 43.62 128.454815 
L 168.615 128.454815 
" clip-path="url(#p69fcfc41c2)" style="fill: none; stroke: #cccccc; stroke-width: 0.8; stroke-linecap: round"/>
     </g>
     <g id="text_6">
      <!-- 1 -->
      <g style="fill: #262626" transform="translate(29.759063 132.041534) scale(0.1 -0.1)">
       <defs>
        <path id="Helvetica-31" d="M 613 3169 
L 613 3600 
Q 1222 3659 1462 3798 
Q 1703 3938 1822 4456 
L 2266 4456 
L 2266 0 
L 1666 0 
L 1666 3169 
L 613 3169 
z
" transform="scale(0.015625)"/>
       </defs>
       <use xlink:href="#Helvetica-31"/>
      </g>
     </g>
    </g>
    <g id="ytick_3">
     <g id="line2d_6">
      <path d="M 43.62 118.72963 
L 168.615 118.72963 
" clip-path="url(#p69fcfc41c2)" style="fill: none; stroke: #cccccc; stroke-width: 0.8; stroke-linecap: round"/>
     </g>
     <g id="text_7">
      <!-- 2 -->
      <g style="fill: #262626" transform="translate(29.759063 122.316349) scale(0.1 -0.1)">
       <use xlink:href="#Helvetica-32"/>
      </g>
     </g>
    </g>
    <g id="ytick_4">
     <g id="line2d_7">
      <path d="M 43.62 109.004445 
L 168.615 109.004445 
" clip-path="url(#p69fcfc41c2)" style="fill: none; stroke: #cccccc; stroke-width: 0.8; stroke-linecap: round"/>
     </g>
     <g id="text_8">
      <!-- 3 -->
      <g style="fill: #262626" transform="translate(29.759063 112.591164) scale(0.1 -0.1)">
       <defs>
        <path id="Helvetica-33" d="M 1663 -122 
Q 869 -122 511 314 
Q 153 750 153 1375 
L 741 1375 
Q 778 941 903 744 
Q 1122 391 1694 391 
Q 2138 391 2406 628 
Q 2675 866 2675 1241 
Q 2675 1703 2392 1887 
Q 2109 2072 1606 2072 
Q 1550 2072 1492 2070 
Q 1434 2069 1375 2066 
L 1375 2563 
Q 1463 2553 1522 2550 
Q 1581 2547 1650 2547 
Q 1966 2547 2169 2647 
Q 2525 2822 2525 3272 
Q 2525 3606 2287 3787 
Q 2050 3969 1734 3969 
Q 1172 3969 956 3594 
Q 838 3388 822 3006 
L 266 3006 
Q 266 3506 466 3856 
Q 809 4481 1675 4481 
Q 2359 4481 2734 4176 
Q 3109 3872 3109 3294 
Q 3109 2881 2888 2625 
Q 2750 2466 2531 2375 
Q 2884 2278 3082 2001 
Q 3281 1725 3281 1325 
Q 3281 684 2859 281 
Q 2438 -122 1663 -122 
z
" transform="scale(0.015625)"/>
       </defs>
       <use xlink:href="#Helvetica-33"/>
      </g>
     </g>
    </g>
    <g id="ytick_5">
     <g id="line2d_8">
      <path d="M 43.62 99.27926 
L 168.615 99.27926 
" clip-path="url(#p69fcfc41c2)" style="fill: none; stroke: #cccccc; stroke-width: 0.8; stroke-linecap: round"/>
     </g>
     <g id="text_9">
      <!-- 4 -->
      <g style="fill: #262626" transform="translate(29.759063 102.865979) scale(0.1 -0.1)">
       <use xlink:href="#Helvetica-34"/>
      </g>
     </g>
    </g>
    <g id="ytick_6">
     <g id="line2d_9">
      <path d="M 43.62 89.554075 
L 168.615 89.554075 
" clip-path="url(#p69fcfc41c2)" style="fill: none; stroke: #cccccc; stroke-width: 0.8; stroke-linecap: round"/>
     </g>
     <g id="text_10">
      <!-- 5 -->
      <g style="fill: #262626" transform="translate(29.759063 93.140794) scale(0.1 -0.1)">
       <defs>
        <path id="Helvetica-35" d="M 791 1141 
Q 847 659 1238 475 
Q 1438 381 1700 381 
Q 2200 381 2440 700 
Q 2681 1019 2681 1406 
Q 2681 1875 2395 2131 
Q 2109 2388 1709 2388 
Q 1419 2388 1211 2275 
Q 1003 2163 856 1963 
L 369 1991 
L 709 4400 
L 3034 4400 
L 3034 3856 
L 1131 3856 
L 941 2613 
Q 1097 2731 1238 2791 
Q 1488 2894 1816 2894 
Q 2431 2894 2859 2497 
Q 3288 2100 3288 1491 
Q 3288 856 2895 371 
Q 2503 -113 1644 -113 
Q 1097 -113 676 195 
Q 256 503 206 1141 
L 791 1141 
z
" transform="scale(0.015625)"/>
       </defs>
       <use xlink:href="#Helvetica-35"/>
      </g>
     </g>
    </g>
    <g id="ytick_7">
     <g id="line2d_10">
      <path d="M 43.62 79.828891 
L 168.615 79.828891 
" clip-path="url(#p69fcfc41c2)" style="fill: none; stroke: #cccccc; stroke-width: 0.8; stroke-linecap: round"/>
     </g>
     <g id="text_11">
      <!-- 6 -->
      <g style="fill: #262626" transform="translate(29.759063 83.415609) scale(0.1 -0.1)">
       <use xlink:href="#Helvetica-36"/>
      </g>
     </g>
    </g>
    <g id="ytick_8">
     <g id="line2d_11">
      <path d="M 43.62 70.103706 
L 168.615 70.103706 
" clip-path="url(#p69fcfc41c2)" style="fill: none; stroke: #cccccc; stroke-width: 0.8; stroke-linecap: round"/>
     </g>
     <g id="text_12">
      <!-- 7 -->
      <g style="fill: #262626" transform="translate(29.759063 73.690424) scale(0.1 -0.1)">
       <defs>
        <path id="Helvetica-37" d="M 3347 4400 
L 3347 3909 
Q 3131 3700 2773 3181 
Q 2416 2663 2141 2063 
Q 1869 1478 1728 997 
Q 1638 688 1494 0 
L 872 0 
Q 1084 1281 1809 2550 
Q 2238 3294 2709 3834 
L 234 3834 
L 234 4400 
L 3347 4400 
z
" transform="scale(0.015625)"/>
       </defs>
       <use xlink:href="#Helvetica-37"/>
      </g>
     </g>
    </g>
    <g id="ytick_9">
     <g id="line2d_12">
      <path d="M 43.62 60.378521 
L 168.615 60.378521 
" clip-path="url(#p69fcfc41c2)" style="fill: none; stroke: #cccccc; stroke-width: 0.8; stroke-linecap: round"/>
     </g>
     <g id="text_13">
      <!-- 8 -->
      <g style="fill: #262626" transform="translate(29.759063 63.96524) scale(0.1 -0.1)">
       <defs>
        <path id="Helvetica-38" d="M 1741 2600 
Q 2113 2600 2322 2808 
Q 2531 3016 2531 3303 
Q 2531 3553 2331 3762 
Q 2131 3972 1722 3972 
Q 1316 3972 1134 3762 
Q 953 3553 953 3272 
Q 953 2956 1187 2778 
Q 1422 2600 1741 2600 
z
M 1775 384 
Q 2166 384 2423 595 
Q 2681 806 2681 1225 
Q 2681 1659 2415 1884 
Q 2150 2109 1734 2109 
Q 1331 2109 1076 1879 
Q 822 1650 822 1244 
Q 822 894 1055 639 
Q 1288 384 1775 384 
z
M 975 2384 
Q 741 2484 609 2619 
Q 363 2869 363 3269 
Q 363 3769 725 4128 
Q 1088 4488 1753 4488 
Q 2397 4488 2762 4148 
Q 3128 3809 3128 3356 
Q 3128 2938 2916 2678 
Q 2797 2531 2547 2391 
Q 2825 2263 2984 2097 
Q 3281 1784 3281 1284 
Q 3281 694 2884 283 
Q 2488 -128 1763 -128 
Q 1109 -128 657 226 
Q 206 581 206 1256 
Q 206 1653 400 1942 
Q 594 2231 975 2384 
z
" transform="scale(0.015625)"/>
       </defs>
       <use xlink:href="#Helvetica-38"/>
      </g>
     </g>
    </g>
    <g id="ytick_10">
     <g id="line2d_13">
      <path d="M 43.62 50.653336 
L 168.615 50.653336 
" clip-path="url(#p69fcfc41c2)" style="fill: none; stroke: #cccccc; stroke-width: 0.8; stroke-linecap: round"/>
     </g>
     <g id="text_14">
      <!-- 9 -->
      <g style="fill: #262626" transform="translate(29.759063 54.240055) scale(0.1 -0.1)">
       <defs>
        <path id="Helvetica-39" d="M 850 1081 
Q 875 616 1209 438 
Q 1381 344 1597 344 
Q 2000 344 2284 680 
Q 2569 1016 2688 2044 
Q 2500 1747 2223 1626 
Q 1947 1506 1628 1506 
Q 981 1506 604 1909 
Q 228 2313 228 2947 
Q 228 3556 600 4018 
Q 972 4481 1697 4481 
Q 2675 4481 3047 3600 
Q 3253 3116 3253 2388 
Q 3253 1566 3006 931 
Q 2597 -125 1619 -125 
Q 963 -125 622 219 
Q 281 563 281 1081 
L 850 1081 
z
M 1703 2000 
Q 2038 2000 2314 2220 
Q 2591 2441 2591 2991 
Q 2591 3484 2342 3726 
Q 2094 3969 1709 3969 
Q 1297 3969 1055 3692 
Q 813 3416 813 2953 
Q 813 2516 1025 2258 
Q 1238 2000 1703 2000 
z
" transform="scale(0.015625)"/>
       </defs>
       <use xlink:href="#Helvetica-39"/>
      </g>
     </g>
    </g>
    <g id="ytick_11">
     <g id="line2d_14">
      <path d="M 43.62 40.928151 
L 168.615 40.928151 
" clip-path="url(#p69fcfc41c2)" style="fill: none; stroke: #cccccc; stroke-width: 0.8; stroke-linecap: round"/>
     </g>
     <g id="text_15">
      <!-- 10 -->
      <g style="fill: #262626" transform="translate(24.198125 44.51487) scale(0.1 -0.1)">
       <use xlink:href="#Helvetica-31"/>
       <use xlink:href="#Helvetica-30" transform="translate(55.615234 0)"/>
      </g>
     </g>
    </g>
    <g id="ytick_12">
     <g id="line2d_15">
      <path d="M 43.62 31.202966 
L 168.615 31.202966 
" clip-path="url(#p69fcfc41c2)" style="fill: none; stroke: #cccccc; stroke-width: 0.8; stroke-linecap: round"/>
     </g>
     <g id="text_16">
      <!-- 11 -->
      <g style="fill: #262626" transform="translate(24.198125 34.789685) scale(0.1 -0.1)">
       <use xlink:href="#Helvetica-31"/>
       <use xlink:href="#Helvetica-31" transform="translate(55.615234 0)"/>
      </g>
     </g>
    </g>
    <g id="text_17">
     <!-- Rank -->
     <g style="fill: #262626" transform="translate(18.11375 92.86875) rotate(-90) scale(0.1 -0.1)">
      <defs>
       <path id="Helvetica-52" d="M 2622 2488 
Q 3059 2488 3314 2663 
Q 3569 2838 3569 3294 
Q 3569 3784 3213 3963 
Q 3022 4056 2703 4056 
L 1184 4056 
L 1184 2488 
L 2622 2488 
z
M 563 4591 
L 2688 4591 
Q 3213 4591 3553 4438 
Q 4200 4144 4200 3353 
Q 4200 2941 4029 2678 
Q 3859 2416 3553 2256 
Q 3822 2147 3958 1969 
Q 4094 1791 4109 1391 
L 4131 775 
Q 4141 513 4175 384 
Q 4231 166 4375 103 
L 4375 0 
L 3613 0 
Q 3581 59 3562 153 
Q 3544 247 3531 516 
L 3494 1281 
Q 3472 1731 3159 1884 
Q 2981 1969 2600 1969 
L 1184 1969 
L 1184 0 
L 563 0 
L 563 4591 
z
" transform="scale(0.015625)"/>
       <path id="Helvetica-6b" d="M 400 4591 
L 941 4591 
L 941 1925 
L 2384 3347 
L 3103 3347 
L 1822 2094 
L 3175 0 
L 2456 0 
L 1413 1688 
L 941 1256 
L 941 0 
L 400 0 
L 400 4591 
z
" transform="scale(0.015625)"/>
      </defs>
      <use xlink:href="#Helvetica-52"/>
      <use xlink:href="#Helvetica-61" transform="translate(72.216797 0)"/>
      <use xlink:href="#Helvetica-6e" transform="translate(127.832031 0)"/>
      <use xlink:href="#Helvetica-6b" transform="translate(183.447266 0)"/>
     </g>
    </g>
   </g>
   <g id="PathCollection_1">
    <defs>
     <path id="mf8cc703939" d="M 0 2.4 
C 0.636487 2.4 1.246992 2.147121 1.697056 1.697056 
C 2.147121 1.246992 2.4 0.636487 2.4 0 
C 2.4 -0.636487 2.147121 -1.246992 1.697056 -1.697056 
C 1.246992 -2.147121 0.636487 -2.4 0 -2.4 
C -0.636487 -2.4 -1.246992 -2.147121 -1.697056 -1.697056 
C -2.147121 -1.246992 -2.4 -0.636487 -2.4 0 
C -2.4 0.636487 -2.147121 1.246992 -1.697056 1.697056 
C -1.246992 2.147121 -0.636487 2.4 0 2.4 
z
" style="stroke: #1f77b4; stroke-opacity: 0.5"/>
    </defs>
    <g clip-path="url(#p69fcfc41c2)">
     <use xlink:href="#mf8cc703939" x="68.240227" y="128.05339" style="fill: #1f77b4; fill-opacity: 0.5; stroke: #1f77b4; stroke-opacity: 0.5"/>
     <use xlink:href="#mf8cc703939" x="68.240227" y="129.597155" style="fill: #1f77b4; fill-opacity: 0.5; stroke: #1f77b4; stroke-opacity: 0.5"/>
     <use xlink:href="#mf8cc703939" x="68.240227" y="128.211769" style="fill: #1f77b4; fill-opacity: 0.5; stroke: #1f77b4; stroke-opacity: 0.5"/>
     <use xlink:href="#mf8cc703939" x="87.178864" y="127.695926" style="fill: #1f77b4; fill-opacity: 0.5; stroke: #1f77b4; stroke-opacity: 0.5"/>
     <use xlink:href="#mf8cc703939" x="87.178864" y="127.294128" style="fill: #1f77b4; fill-opacity: 0.5; stroke: #1f77b4; stroke-opacity: 0.5"/>
     <use xlink:href="#mf8cc703939" x="49.301591" y="128.199584" style="fill: #1f77b4; fill-opacity: 0.5; stroke: #1f77b4; stroke-opacity: 0.5"/>
     <use xlink:href="#mf8cc703939" x="49.301591" y="127.255634" style="fill: #1f77b4; fill-opacity: 0.5; stroke: #1f77b4; stroke-opacity: 0.5"/>
     <use xlink:href="#mf8cc703939" x="87.178864" y="129.876696" style="fill: #1f77b4; fill-opacity: 0.5; stroke: #1f77b4; stroke-opacity: 0.5"/>
     <use xlink:href="#mf8cc703939" x="106.1175" y="119.988099" style="fill: #1f77b4; fill-opacity: 0.5; stroke: #1f77b4; stroke-opacity: 0.5"/>
     <use xlink:href="#mf8cc703939" x="68.240227" y="128.489707" style="fill: #1f77b4; fill-opacity: 0.5; stroke: #1f77b4; stroke-opacity: 0.5"/>
     <use xlink:href="#mf8cc703939" x="106.1175" y="129.790079" style="fill: #1f77b4; fill-opacity: 0.5; stroke: #1f77b4; stroke-opacity: 0.5"/>
     <use xlink:href="#mf8cc703939" x="162.933409" y="126.841853" style="fill: #1f77b4; fill-opacity: 0.5; stroke: #1f77b4; stroke-opacity: 0.5"/>
     <use xlink:href="#mf8cc703939" x="49.301591" y="128.837748" style="fill: #1f77b4; fill-opacity: 0.5; stroke: #1f77b4; stroke-opacity: 0.5"/>
     <use xlink:href="#mf8cc703939" x="87.178864" y="129.203607" style="fill: #1f77b4; fill-opacity: 0.5; stroke: #1f77b4; stroke-opacity: 0.5"/>
     <use xlink:href="#mf8cc703939" x="68.240227" y="129.697662" style="fill: #1f77b4; fill-opacity: 0.5; stroke: #1f77b4; stroke-opacity: 0.5"/>
     <use xlink:href="#mf8cc703939" x="68.240227" y="127.174347" style="fill: #1f77b4; fill-opacity: 0.5; stroke: #1f77b4; stroke-opacity: 0.5"/>
     <use xlink:href="#mf8cc703939" x="68.240227" y="129.241272" style="fill: #1f77b4; fill-opacity: 0.5; stroke: #1f77b4; stroke-opacity: 0.5"/>
     <use xlink:href="#mf8cc703939" x="49.301591" y="127.470573" style="fill: #1f77b4; fill-opacity: 0.5; stroke: #1f77b4; stroke-opacity: 0.5"/>
     <use xlink:href="#mf8cc703939" x="68.240227" y="126.517026" style="fill: #1f77b4; fill-opacity: 0.5; stroke: #1f77b4; stroke-opacity: 0.5"/>
     <use xlink:href="#mf8cc703939" x="49.301591" y="127.367452" style="fill: #1f77b4; fill-opacity: 0.5; stroke: #1f77b4; stroke-opacity: 0.5"/>
     <use xlink:href="#mf8cc703939" x="68.240227" y="129.204353" style="fill: #1f77b4; fill-opacity: 0.5; stroke: #1f77b4; stroke-opacity: 0.5"/>
     <use xlink:href="#mf8cc703939" x="68.240227" y="128.329082" style="fill: #1f77b4; fill-opacity: 0.5; stroke: #1f77b4; stroke-opacity: 0.5"/>
     <use xlink:href="#mf8cc703939" x="87.178864" y="128.337342" style="fill: #1f77b4; fill-opacity: 0.5; stroke: #1f77b4; stroke-opacity: 0.5"/>
     <use xlink:href="#mf8cc703939" x="125.056136" y="127.19368" style="fill: #1f77b4; fill-opacity: 0.5; stroke: #1f77b4; stroke-opacity: 0.5"/>
     <use xlink:href="#mf8cc703939" x="68.240227" y="120.266562" style="fill: #1f77b4; fill-opacity: 0.5; stroke: #1f77b4; stroke-opacity: 0.5"/>
     <use xlink:href="#mf8cc703939" x="162.933409" y="119.567446" style="fill: #1f77b4; fill-opacity: 0.5; stroke: #1f77b4; stroke-opacity: 0.5"/>
     <use xlink:href="#mf8cc703939" x="87.178864" y="110.021632" style="fill: #1f77b4; fill-opacity: 0.5; stroke: #1f77b4; stroke-opacity: 0.5"/>
     <use xlink:href="#mf8cc703939" x="68.240227" y="127.947698" style="fill: #1f77b4; fill-opacity: 0.5; stroke: #1f77b4; stroke-opacity: 0.5"/>
     <use xlink:href="#mf8cc703939" x="68.240227" y="127.695803" style="fill: #1f77b4; fill-opacity: 0.5; stroke: #1f77b4; stroke-opacity: 0.5"/>
     <use xlink:href="#mf8cc703939" x="87.178864" y="128.633083" style="fill: #1f77b4; fill-opacity: 0.5; stroke: #1f77b4; stroke-opacity: 0.5"/>
     <use xlink:href="#mf8cc703939" x="68.240227" y="130.339541" style="fill: #1f77b4; fill-opacity: 0.5; stroke: #1f77b4; stroke-opacity: 0.5"/>
     <use xlink:href="#mf8cc703939" x="106.1175" y="129.859047" style="fill: #1f77b4; fill-opacity: 0.5; stroke: #1f77b4; stroke-opacity: 0.5"/>
     <use xlink:href="#mf8cc703939" x="125.056136" y="127.300089" style="fill: #1f77b4; fill-opacity: 0.5; stroke: #1f77b4; stroke-opacity: 0.5"/>
     <use xlink:href="#mf8cc703939" x="87.178864" y="129.351117" style="fill: #1f77b4; fill-opacity: 0.5; stroke: #1f77b4; stroke-opacity: 0.5"/>
     <use xlink:href="#mf8cc703939" x="125.056136" y="129.335777" style="fill: #1f77b4; fill-opacity: 0.5; stroke: #1f77b4; stroke-opacity: 0.5"/>
     <use xlink:href="#mf8cc703939" x="49.301591" y="129.348666" style="fill: #1f77b4; fill-opacity: 0.5; stroke: #1f77b4; stroke-opacity: 0.5"/>
     <use xlink:href="#mf8cc703939" x="87.178864" y="127.672987" style="fill: #1f77b4; fill-opacity: 0.5; stroke: #1f77b4; stroke-opacity: 0.5"/>
     <use xlink:href="#mf8cc703939" x="87.178864" y="129.313118" style="fill: #1f77b4; fill-opacity: 0.5; stroke: #1f77b4; stroke-opacity: 0.5"/>
     <use xlink:href="#mf8cc703939" x="49.301591" y="128.294062" style="fill: #1f77b4; fill-opacity: 0.5; stroke: #1f77b4; stroke-opacity: 0.5"/>
     <use xlink:href="#mf8cc703939" x="87.178864" y="127.600397" style="fill: #1f77b4; fill-opacity: 0.5; stroke: #1f77b4; stroke-opacity: 0.5"/>
     <use xlink:href="#mf8cc703939" x="87.178864" y="129.495924" style="fill: #1f77b4; fill-opacity: 0.5; stroke: #1f77b4; stroke-opacity: 0.5"/>
     <use xlink:href="#mf8cc703939" x="49.301591" y="129.647136" style="fill: #1f77b4; fill-opacity: 0.5; stroke: #1f77b4; stroke-opacity: 0.5"/>
     <use xlink:href="#mf8cc703939" x="68.240227" y="128.115488" style="fill: #1f77b4; fill-opacity: 0.5; stroke: #1f77b4; stroke-opacity: 0.5"/>
     <use xlink:href="#mf8cc703939" x="68.240227" y="129.351892" style="fill: #1f77b4; fill-opacity: 0.5; stroke: #1f77b4; stroke-opacity: 0.5"/>
     <use xlink:href="#mf8cc703939" x="125.056136" y="128.381914" style="fill: #1f77b4; fill-opacity: 0.5; stroke: #1f77b4; stroke-opacity: 0.5"/>
     <use xlink:href="#mf8cc703939" x="49.301591" y="127.459051" style="fill: #1f77b4; fill-opacity: 0.5; stroke: #1f77b4; stroke-opacity: 0.5"/>
     <use xlink:href="#mf8cc703939" x="87.178864" y="128.043984" style="fill: #1f77b4; fill-opacity: 0.5; stroke: #1f77b4; stroke-opacity: 0.5"/>
     <use xlink:href="#mf8cc703939" x="49.301591" y="129.594253" style="fill: #1f77b4; fill-opacity: 0.5; stroke: #1f77b4; stroke-opacity: 0.5"/>
     <use xlink:href="#mf8cc703939" x="49.301591" y="108.179496" style="fill: #1f77b4; fill-opacity: 0.5; stroke: #1f77b4; stroke-opacity: 0.5"/>
     <use xlink:href="#mf8cc703939" x="68.240227" y="128.526424" style="fill: #1f77b4; fill-opacity: 0.5; stroke: #1f77b4; stroke-opacity: 0.5"/>
     <use xlink:href="#mf8cc703939" x="106.1175" y="127.457026" style="fill: #1f77b4; fill-opacity: 0.5; stroke: #1f77b4; stroke-opacity: 0.5"/>
     <use xlink:href="#mf8cc703939" x="162.933409" y="90.948109" style="fill: #1f77b4; fill-opacity: 0.5; stroke: #1f77b4; stroke-opacity: 0.5"/>
     <use xlink:href="#mf8cc703939" x="68.240227" y="128.587579" style="fill: #1f77b4; fill-opacity: 0.5; stroke: #1f77b4; stroke-opacity: 0.5"/>
     <use xlink:href="#mf8cc703939" x="49.301591" y="126.800748" style="fill: #1f77b4; fill-opacity: 0.5; stroke: #1f77b4; stroke-opacity: 0.5"/>
     <use xlink:href="#mf8cc703939" x="106.1175" y="129.630784" style="fill: #1f77b4; fill-opacity: 0.5; stroke: #1f77b4; stroke-opacity: 0.5"/>
     <use xlink:href="#mf8cc703939" x="106.1175" y="127.392733" style="fill: #1f77b4; fill-opacity: 0.5; stroke: #1f77b4; stroke-opacity: 0.5"/>
     <use xlink:href="#mf8cc703939" x="49.301591" y="127.17895" style="fill: #1f77b4; fill-opacity: 0.5; stroke: #1f77b4; stroke-opacity: 0.5"/>
     <use xlink:href="#mf8cc703939" x="162.933409" y="128.747804" style="fill: #1f77b4; fill-opacity: 0.5; stroke: #1f77b4; stroke-opacity: 0.5"/>
     <use xlink:href="#mf8cc703939" x="49.301591" y="127.932843" style="fill: #1f77b4; fill-opacity: 0.5; stroke: #1f77b4; stroke-opacity: 0.5"/>
     <use xlink:href="#mf8cc703939" x="87.178864" y="129.33595" style="fill: #1f77b4; fill-opacity: 0.5; stroke: #1f77b4; stroke-opacity: 0.5"/>
     <use xlink:href="#mf8cc703939" x="68.240227" y="130.00993" style="fill: #1f77b4; fill-opacity: 0.5; stroke: #1f77b4; stroke-opacity: 0.5"/>
     <use xlink:href="#mf8cc703939" x="87.178864" y="127.063844" style="fill: #1f77b4; fill-opacity: 0.5; stroke: #1f77b4; stroke-opacity: 0.5"/>
     <use xlink:href="#mf8cc703939" x="49.301591" y="128.482886" style="fill: #1f77b4; fill-opacity: 0.5; stroke: #1f77b4; stroke-opacity: 0.5"/>
     <use xlink:href="#mf8cc703939" x="68.240227" y="118.054273" style="fill: #1f77b4; fill-opacity: 0.5; stroke: #1f77b4; stroke-opacity: 0.5"/>
     <use xlink:href="#mf8cc703939" x="49.301591" y="90.220274" style="fill: #1f77b4; fill-opacity: 0.5; stroke: #1f77b4; stroke-opacity: 0.5"/>
     <use xlink:href="#mf8cc703939" x="68.240227" y="126.988985" style="fill: #1f77b4; fill-opacity: 0.5; stroke: #1f77b4; stroke-opacity: 0.5"/>
     <use xlink:href="#mf8cc703939" x="68.240227" y="126.650044" style="fill: #1f77b4; fill-opacity: 0.5; stroke: #1f77b4; stroke-opacity: 0.5"/>
     <use xlink:href="#mf8cc703939" x="49.301591" y="110.352962" style="fill: #1f77b4; fill-opacity: 0.5; stroke: #1f77b4; stroke-opacity: 0.5"/>
     <use xlink:href="#mf8cc703939" x="87.178864" y="129.298523" style="fill: #1f77b4; fill-opacity: 0.5; stroke: #1f77b4; stroke-opacity: 0.5"/>
     <use xlink:href="#mf8cc703939" x="49.301591" y="127.783299" style="fill: #1f77b4; fill-opacity: 0.5; stroke: #1f77b4; stroke-opacity: 0.5"/>
     <use xlink:href="#mf8cc703939" x="68.240227" y="128.0338" style="fill: #1f77b4; fill-opacity: 0.5; stroke: #1f77b4; stroke-opacity: 0.5"/>
     <use xlink:href="#mf8cc703939" x="87.178864" y="116.891263" style="fill: #1f77b4; fill-opacity: 0.5; stroke: #1f77b4; stroke-opacity: 0.5"/>
     <use xlink:href="#mf8cc703939" x="87.178864" y="127.046459" style="fill: #1f77b4; fill-opacity: 0.5; stroke: #1f77b4; stroke-opacity: 0.5"/>
     <use xlink:href="#mf8cc703939" x="68.240227" y="89.453381" style="fill: #1f77b4; fill-opacity: 0.5; stroke: #1f77b4; stroke-opacity: 0.5"/>
     <use xlink:href="#mf8cc703939" x="68.240227" y="29.267359" style="fill: #1f77b4; fill-opacity: 0.5; stroke: #1f77b4; stroke-opacity: 0.5"/>
     <use xlink:href="#mf8cc703939" x="68.240227" y="109.502431" style="fill: #1f77b4; fill-opacity: 0.5; stroke: #1f77b4; stroke-opacity: 0.5"/>
     <use xlink:href="#mf8cc703939" x="49.301591" y="79.639527" style="fill: #1f77b4; fill-opacity: 0.5; stroke: #1f77b4; stroke-opacity: 0.5"/>
     <use xlink:href="#mf8cc703939" x="49.301591" y="126.597625" style="fill: #1f77b4; fill-opacity: 0.5; stroke: #1f77b4; stroke-opacity: 0.5"/>
     <use xlink:href="#mf8cc703939" x="68.240227" y="118.146955" style="fill: #1f77b4; fill-opacity: 0.5; stroke: #1f77b4; stroke-opacity: 0.5"/>
     <use xlink:href="#mf8cc703939" x="68.240227" y="118.013219" style="fill: #1f77b4; fill-opacity: 0.5; stroke: #1f77b4; stroke-opacity: 0.5"/>
     <use xlink:href="#mf8cc703939" x="68.240227" y="120.653898" style="fill: #1f77b4; fill-opacity: 0.5; stroke: #1f77b4; stroke-opacity: 0.5"/>
     <use xlink:href="#mf8cc703939" x="68.240227" y="126.722709" style="fill: #1f77b4; fill-opacity: 0.5; stroke: #1f77b4; stroke-opacity: 0.5"/>
     <use xlink:href="#mf8cc703939" x="162.933409" y="40.044365" style="fill: #1f77b4; fill-opacity: 0.5; stroke: #1f77b4; stroke-opacity: 0.5"/>
     <use xlink:href="#mf8cc703939" x="68.240227" y="109.566688" style="fill: #1f77b4; fill-opacity: 0.5; stroke: #1f77b4; stroke-opacity: 0.5"/>
     <use xlink:href="#mf8cc703939" x="106.1175" y="129.161982" style="fill: #1f77b4; fill-opacity: 0.5; stroke: #1f77b4; stroke-opacity: 0.5"/>
     <use xlink:href="#mf8cc703939" x="49.301591" y="119.8897" style="fill: #1f77b4; fill-opacity: 0.5; stroke: #1f77b4; stroke-opacity: 0.5"/>
     <use xlink:href="#mf8cc703939" x="68.240227" y="31.986262" style="fill: #1f77b4; fill-opacity: 0.5; stroke: #1f77b4; stroke-opacity: 0.5"/>
     <use xlink:href="#mf8cc703939" x="49.301591" y="117.620106" style="fill: #1f77b4; fill-opacity: 0.5; stroke: #1f77b4; stroke-opacity: 0.5"/>
     <use xlink:href="#mf8cc703939" x="68.240227" y="128.721262" style="fill: #1f77b4; fill-opacity: 0.5; stroke: #1f77b4; stroke-opacity: 0.5"/>
     <use xlink:href="#mf8cc703939" x="68.240227" y="41.932003" style="fill: #1f77b4; fill-opacity: 0.5; stroke: #1f77b4; stroke-opacity: 0.5"/>
     <use xlink:href="#mf8cc703939" x="125.056136" y="128.679127" style="fill: #1f77b4; fill-opacity: 0.5; stroke: #1f77b4; stroke-opacity: 0.5"/>
     <use xlink:href="#mf8cc703939" x="106.1175" y="127.503339" style="fill: #1f77b4; fill-opacity: 0.5; stroke: #1f77b4; stroke-opacity: 0.5"/>
     <use xlink:href="#mf8cc703939" x="125.056136" y="110.593575" style="fill: #1f77b4; fill-opacity: 0.5; stroke: #1f77b4; stroke-opacity: 0.5"/>
     <use xlink:href="#mf8cc703939" x="49.301591" y="120.115701" style="fill: #1f77b4; fill-opacity: 0.5; stroke: #1f77b4; stroke-opacity: 0.5"/>
     <use xlink:href="#mf8cc703939" x="68.240227" y="117.376635" style="fill: #1f77b4; fill-opacity: 0.5; stroke: #1f77b4; stroke-opacity: 0.5"/>
     <use xlink:href="#mf8cc703939" x="49.301591" y="119.065692" style="fill: #1f77b4; fill-opacity: 0.5; stroke: #1f77b4; stroke-opacity: 0.5"/>
     <use xlink:href="#mf8cc703939" x="49.301591" y="127.9542" style="fill: #1f77b4; fill-opacity: 0.5; stroke: #1f77b4; stroke-opacity: 0.5"/>
     <use xlink:href="#mf8cc703939" x="68.240227" y="88.563574" style="fill: #1f77b4; fill-opacity: 0.5; stroke: #1f77b4; stroke-opacity: 0.5"/>
     <use xlink:href="#mf8cc703939" x="68.240227" y="88.289966" style="fill: #1f77b4; fill-opacity: 0.5; stroke: #1f77b4; stroke-opacity: 0.5"/>
     <use xlink:href="#mf8cc703939" x="125.056136" y="91.178636" style="fill: #1f77b4; fill-opacity: 0.5; stroke: #1f77b4; stroke-opacity: 0.5"/>
     <use xlink:href="#mf8cc703939" x="106.1175" y="129.893099" style="fill: #1f77b4; fill-opacity: 0.5; stroke: #1f77b4; stroke-opacity: 0.5"/>
     <use xlink:href="#mf8cc703939" x="49.301591" y="71.425473" style="fill: #1f77b4; fill-opacity: 0.5; stroke: #1f77b4; stroke-opacity: 0.5"/>
     <use xlink:href="#mf8cc703939" x="106.1175" y="39.791593" style="fill: #1f77b4; fill-opacity: 0.5; stroke: #1f77b4; stroke-opacity: 0.5"/>
     <use xlink:href="#mf8cc703939" x="49.301591" y="30.663809" style="fill: #1f77b4; fill-opacity: 0.5; stroke: #1f77b4; stroke-opacity: 0.5"/>
     <use xlink:href="#mf8cc703939" x="68.240227" y="78.296636" style="fill: #1f77b4; fill-opacity: 0.5; stroke: #1f77b4; stroke-opacity: 0.5"/>
     <use xlink:href="#mf8cc703939" x="68.240227" y="129.508798" style="fill: #1f77b4; fill-opacity: 0.5; stroke: #1f77b4; stroke-opacity: 0.5"/>
     <use xlink:href="#mf8cc703939" x="68.240227" y="127.521054" style="fill: #1f77b4; fill-opacity: 0.5; stroke: #1f77b4; stroke-opacity: 0.5"/>
     <use xlink:href="#mf8cc703939" x="49.301591" y="117.410453" style="fill: #1f77b4; fill-opacity: 0.5; stroke: #1f77b4; stroke-opacity: 0.5"/>
     <use xlink:href="#mf8cc703939" x="68.240227" y="127.810388" style="fill: #1f77b4; fill-opacity: 0.5; stroke: #1f77b4; stroke-opacity: 0.5"/>
     <use xlink:href="#mf8cc703939" x="49.301591" y="130.169225" style="fill: #1f77b4; fill-opacity: 0.5; stroke: #1f77b4; stroke-opacity: 0.5"/>
     <use xlink:href="#mf8cc703939" x="87.178864" y="128.399673" style="fill: #1f77b4; fill-opacity: 0.5; stroke: #1f77b4; stroke-opacity: 0.5"/>
     <use xlink:href="#mf8cc703939" x="87.178864" y="120.088696" style="fill: #1f77b4; fill-opacity: 0.5; stroke: #1f77b4; stroke-opacity: 0.5"/>
     <use xlink:href="#mf8cc703939" x="87.178864" y="128.02698" style="fill: #1f77b4; fill-opacity: 0.5; stroke: #1f77b4; stroke-opacity: 0.5"/>
     <use xlink:href="#mf8cc703939" x="87.178864" y="120.088052" style="fill: #1f77b4; fill-opacity: 0.5; stroke: #1f77b4; stroke-opacity: 0.5"/>
     <use xlink:href="#mf8cc703939" x="162.933409" y="129.011712" style="fill: #1f77b4; fill-opacity: 0.5; stroke: #1f77b4; stroke-opacity: 0.5"/>
     <use xlink:href="#mf8cc703939" x="68.240227" y="129.295834" style="fill: #1f77b4; fill-opacity: 0.5; stroke: #1f77b4; stroke-opacity: 0.5"/>
     <use xlink:href="#mf8cc703939" x="87.178864" y="126.575726" style="fill: #1f77b4; fill-opacity: 0.5; stroke: #1f77b4; stroke-opacity: 0.5"/>
     <use xlink:href="#mf8cc703939" x="162.933409" y="127.38789" style="fill: #1f77b4; fill-opacity: 0.5; stroke: #1f77b4; stroke-opacity: 0.5"/>
     <use xlink:href="#mf8cc703939" x="68.240227" y="119.828957" style="fill: #1f77b4; fill-opacity: 0.5; stroke: #1f77b4; stroke-opacity: 0.5"/>
     <use xlink:href="#mf8cc703939" x="68.240227" y="129.137298" style="fill: #1f77b4; fill-opacity: 0.5; stroke: #1f77b4; stroke-opacity: 0.5"/>
     <use xlink:href="#mf8cc703939" x="87.178864" y="71.83259" style="fill: #1f77b4; fill-opacity: 0.5; stroke: #1f77b4; stroke-opacity: 0.5"/>
     <use xlink:href="#mf8cc703939" x="87.178864" y="51.356083" style="fill: #1f77b4; fill-opacity: 0.5; stroke: #1f77b4; stroke-opacity: 0.5"/>
     <use xlink:href="#mf8cc703939" x="87.178864" y="40.462536" style="fill: #1f77b4; fill-opacity: 0.5; stroke: #1f77b4; stroke-opacity: 0.5"/>
    </g>
   </g>
   <g id="FillBetweenPolyCollection_1">
    <defs>
     <path id="m84c833e467" d="M 49.301591 -69.045417 
L 49.301591 -56.790223 
L 50.449387 -56.957465 
L 51.597183 -57.15524 
L 52.744979 -57.276436 
L 53.892775 -57.442809 
L 55.040572 -57.56231 
L 56.188368 -57.66187 
L 57.336164 -57.739845 
L 58.48396 -57.856576 
L 59.631756 -57.973687 
L 60.779552 -58.092774 
L 61.927348 -58.206987 
L 63.075145 -58.338325 
L 64.222941 -58.478301 
L 65.370737 -58.596014 
L 66.518533 -58.674472 
L 67.666329 -58.790423 
L 68.814125 -58.86041 
L 69.961921 -58.973231 
L 71.109718 -58.970744 
L 72.257514 -59.051036 
L 73.40531 -59.063202 
L 74.553106 -59.074283 
L 75.700902 -59.191908 
L 76.848698 -59.150139 
L 77.996494 -59.142922 
L 79.144291 -59.163777 
L 80.292087 -59.155318 
L 81.439883 -59.099148 
L 82.587679 -59.184003 
L 83.735475 -59.139043 
L 84.883271 -59.140829 
L 86.031067 -59.042932 
L 87.178864 -59.021072 
L 88.32666 -59.033078 
L 89.474456 -59.02072 
L 90.622252 -59.025726 
L 91.770048 -59.025907 
L 92.917844 -59.019066 
L 94.06564 -58.96184 
L 95.213437 -58.904843 
L 96.361233 -58.835878 
L 97.509029 -58.794934 
L 98.656825 -58.733938 
L 99.804621 -58.676857 
L 100.952417 -58.57592 
L 102.100213 -58.495311 
L 103.24801 -58.391185 
L 104.395806 -58.271272 
L 105.543602 -58.151722 
L 106.691398 -58.066145 
L 107.839194 -57.970639 
L 108.98699 -57.851083 
L 110.134787 -57.754761 
L 111.282583 -57.655179 
L 112.430379 -57.578235 
L 113.578175 -57.474741 
L 114.725971 -57.391049 
L 115.873767 -57.2808 
L 117.021563 -57.168018 
L 118.16936 -57.0301 
L 119.317156 -56.91868 
L 120.464952 -56.813042 
L 121.612748 -56.670523 
L 122.760544 -56.528802 
L 123.90834 -56.399777 
L 125.056136 -56.287843 
L 126.203933 -56.090569 
L 127.351729 -55.950876 
L 128.499525 -55.833303 
L 129.647321 -55.715218 
L 130.795117 -55.547928 
L 131.942913 -55.439766 
L 133.090709 -55.365105 
L 134.238506 -55.248055 
L 135.386302 -55.131005 
L 136.534098 -54.997393 
L 137.681894 -54.804879 
L 138.82969 -54.612365 
L 139.977486 -54.419851 
L 141.125282 -54.254387 
L 142.273079 -54.114251 
L 143.420875 -53.933843 
L 144.568671 -53.734299 
L 145.716467 -53.534887 
L 146.864263 -53.379723 
L 148.012059 -53.301111 
L 149.159855 -53.222499 
L 150.307652 -53.104751 
L 151.455448 -52.922777 
L 152.603244 -52.740803 
L 153.75104 -52.55883 
L 154.898836 -52.376856 
L 156.046632 -52.2401 
L 157.194428 -52.092984 
L 158.342225 -51.921006 
L 159.490021 -51.808878 
L 160.637817 -51.630323 
L 161.785613 -51.451769 
L 162.933409 -51.273926 
L 162.933409 -80.561248 
L 162.933409 -80.561248 
L 161.785613 -80.431985 
L 160.637817 -80.302721 
L 159.490021 -80.173457 
L 158.342225 -80.044194 
L 157.194428 -79.91493 
L 156.046632 -79.785667 
L 154.898836 -79.656403 
L 153.75104 -79.523516 
L 152.603244 -79.299769 
L 151.455448 -79.073927 
L 150.307652 -78.848086 
L 149.159855 -78.622244 
L 148.012059 -78.396403 
L 146.864263 -78.170561 
L 145.716467 -77.94472 
L 144.568671 -77.718878 
L 143.420875 -77.493037 
L 142.273079 -77.267195 
L 141.125282 -77.041354 
L 139.977486 -76.810721 
L 138.82969 -76.577548 
L 137.681894 -76.344019 
L 136.534098 -76.092443 
L 135.386302 -75.834952 
L 134.238506 -75.593812 
L 133.090709 -75.411564 
L 131.942913 -75.182687 
L 130.795117 -75.007794 
L 129.647321 -74.785433 
L 128.499525 -74.560785 
L 127.351729 -74.336137 
L 126.203933 -74.125493 
L 125.056136 -73.930907 
L 123.90834 -73.735854 
L 122.760544 -73.540801 
L 121.612748 -73.325811 
L 120.464952 -73.114049 
L 119.317156 -72.959329 
L 118.16936 -72.767353 
L 117.021563 -72.573044 
L 115.873767 -72.377867 
L 114.725971 -72.17296 
L 113.578175 -71.894335 
L 112.430379 -71.615372 
L 111.282583 -71.442712 
L 110.134787 -71.231019 
L 108.98699 -70.981564 
L 107.839194 -70.738142 
L 106.691398 -70.516089 
L 105.543602 -70.353799 
L 104.395806 -70.190431 
L 103.24801 -70.028598 
L 102.100213 -69.917498 
L 100.952417 -69.812754 
L 99.804621 -69.629097 
L 98.656825 -69.466968 
L 97.509029 -69.333439 
L 96.361233 -69.195336 
L 95.213437 -68.949651 
L 94.06564 -68.90792 
L 92.917844 -68.763882 
L 91.770048 -68.677964 
L 90.622252 -68.501342 
L 89.474456 -68.332761 
L 88.32666 -68.186076 
L 87.178864 -68.039041 
L 86.031067 -67.8944 
L 84.883271 -67.752188 
L 83.735475 -67.816271 
L 82.587679 -67.807423 
L 81.439883 -67.866915 
L 80.292087 -67.76178 
L 79.144291 -67.775413 
L 77.996494 -67.689427 
L 76.848698 -67.700802 
L 75.700902 -67.611468 
L 74.553106 -67.617029 
L 73.40531 -67.571247 
L 72.257514 -67.586138 
L 71.109718 -67.613477 
L 69.961921 -67.636419 
L 68.814125 -67.662691 
L 67.666329 -67.734522 
L 66.518533 -67.667328 
L 65.370737 -67.662291 
L 64.222941 -67.727568 
L 63.075145 -67.840293 
L 61.927348 -67.969667 
L 60.779552 -68.063742 
L 59.631756 -68.226635 
L 58.48396 -68.22843 
L 57.336164 -68.254286 
L 56.188368 -68.30882 
L 55.040572 -68.429155 
L 53.892775 -68.547723 
L 52.744979 -68.648998 
L 51.597183 -68.828919 
L 50.449387 -68.948002 
L 49.301591 -69.045417 
z
" style="stroke: #ffffff; stroke-opacity: 0.15; stroke-width: 0.8"/>
    </defs>
    <g clip-path="url(#p69fcfc41c2)">
     <use xlink:href="#m84c833e467" x="0" y="180" style="fill: #1f77b4; fill-opacity: 0.15; stroke: #ffffff; stroke-opacity: 0.15; stroke-width: 0.8"/>
    </g>
   </g>
   <g id="line2d_16">
    <path d="M 49.301591 117.399821 
L 50.449387 117.372212 
L 51.597183 117.344603 
L 52.744979 117.316993 
L 53.892775 117.289384 
L 55.040572 117.261775 
L 56.188368 117.234166 
L 57.336164 117.206556 
L 58.48396 117.178947 
L 59.631756 117.151338 
L 60.779552 117.123729 
L 61.927348 117.096119 
L 63.075145 117.06851 
L 64.222941 117.040901 
L 65.370737 117.013292 
L 66.518533 116.985682 
L 67.666329 116.958073 
L 68.814125 116.930464 
L 69.961921 116.902855 
L 71.109718 116.875245 
L 72.257514 116.847636 
L 73.40531 116.820027 
L 74.553106 116.792418 
L 75.700902 116.764809 
L 76.848698 116.737199 
L 77.996494 116.70959 
L 79.144291 116.681981 
L 80.292087 116.654372 
L 81.439883 116.626762 
L 82.587679 116.599153 
L 83.735475 116.571544 
L 84.883271 116.543935 
L 86.031067 116.516325 
L 87.178864 116.488716 
L 88.32666 116.461107 
L 89.474456 116.433498 
L 90.622252 116.405888 
L 91.770048 116.378279 
L 92.917844 116.35067 
L 94.06564 116.323061 
L 95.213437 116.295451 
L 96.361233 116.267842 
L 97.509029 116.240233 
L 98.656825 116.212624 
L 99.804621 116.185014 
L 100.952417 116.157405 
L 102.100213 116.129796 
L 103.24801 116.102187 
L 104.395806 116.074578 
L 105.543602 116.046968 
L 106.691398 116.019359 
L 107.839194 115.99175 
L 108.98699 115.964141 
L 110.134787 115.936531 
L 111.282583 115.908922 
L 112.430379 115.881313 
L 113.578175 115.853704 
L 114.725971 115.826094 
L 115.873767 115.798485 
L 117.021563 115.770876 
L 118.16936 115.743267 
L 119.317156 115.715657 
L 120.464952 115.688048 
L 121.612748 115.660439 
L 122.760544 115.63283 
L 123.90834 115.60522 
L 125.056136 115.577611 
L 126.203933 115.550002 
L 127.351729 115.522393 
L 128.499525 115.494784 
L 129.647321 115.467174 
L 130.795117 115.439565 
L 131.942913 115.411956 
L 133.090709 115.384347 
L 134.238506 115.356737 
L 135.386302 115.329128 
L 136.534098 115.301519 
L 137.681894 115.27391 
L 138.82969 115.2463 
L 139.977486 115.218691 
L 141.125282 115.191082 
L 142.273079 115.163473 
L 143.420875 115.135863 
L 144.568671 115.108254 
L 145.716467 115.080645 
L 146.864263 115.053036 
L 148.012059 115.025426 
L 149.159855 114.997817 
L 150.307652 114.970208 
L 151.455448 114.942599 
L 152.603244 114.91499 
L 153.75104 114.88738 
L 154.898836 114.859771 
L 156.046632 114.832162 
L 157.194428 114.804553 
L 158.342225 114.776943 
L 159.490021 114.749334 
L 160.637817 114.721725 
L 161.785613 114.694116 
L 162.933409 114.666506 
" clip-path="url(#p69fcfc41c2)" style="fill: none; stroke: #1f77b4; stroke-width: 1.8; stroke-linecap: round"/>
   </g>
   <g id="patch_3">
    <path d="M 43.62 138.18 
L 43.62 24.21375 
" style="fill: none; stroke: #cccccc; stroke-linejoin: miter; stroke-linecap: square"/>
   </g>
   <g id="patch_4">
    <path d="M 168.615 138.18 
L 168.615 24.21375 
" style="fill: none; stroke: #cccccc; stroke-linejoin: miter; stroke-linecap: square"/>
   </g>
   <g id="patch_5">
    <path d="M 43.62 138.18 
L 168.615 138.18 
" style="fill: none; stroke: #cccccc; stroke-linejoin: miter; stroke-linecap: square"/>
   </g>
   <g id="patch_6">
    <path d="M 43.62 24.21375 
L 168.615 24.21375 
" style="fill: none; stroke: #cccccc; stroke-linejoin: miter; stroke-linecap: square"/>
   </g>
   <g id="text_18">
    <!-- rho = -0.06 -->
    <g style="fill: #262626" transform="translate(118.617 37.0855) scale(0.1 -0.1)">
     <defs>
      <path id="Helvetica-72" d="M 428 3347 
L 963 3347 
L 963 2769 
Q 1028 2938 1284 3180 
Q 1541 3422 1875 3422 
Q 1891 3422 1928 3419 
Q 1966 3416 2056 3406 
L 2056 2813 
Q 2006 2822 1964 2825 
Q 1922 2828 1872 2828 
Q 1447 2828 1219 2554 
Q 991 2281 991 1925 
L 991 0 
L 428 0 
L 428 3347 
z
" transform="scale(0.015625)"/>
      <path id="Helvetica-68" d="M 413 4606 
L 975 4606 
L 975 2894 
Q 1175 3147 1334 3250 
Q 1606 3428 2013 3428 
Q 2741 3428 3000 2919 
Q 3141 2641 3141 2147 
L 3141 0 
L 2563 0 
L 2563 2109 
Q 2563 2478 2469 2650 
Q 2316 2925 1894 2925 
Q 1544 2925 1259 2684 
Q 975 2444 975 1775 
L 975 0 
L 413 0 
L 413 4606 
z
" transform="scale(0.015625)"/>
      <path id="Helvetica-3d" d="M 3547 2569 
L 3547 2044 
L 288 2044 
L 288 2569 
L 3547 2569 
z
M 3547 1228 
L 3547 694 
L 288 694 
L 288 1228 
L 3547 1228 
z
" transform="scale(0.015625)"/>
      <path id="Helvetica-2d" d="M 266 2072 
L 1834 2072 
L 1834 1494 
L 266 1494 
L 266 2072 
z
" transform="scale(0.015625)"/>
      <path id="Helvetica-2e" d="M 547 681 
L 1200 681 
L 1200 0 
L 547 0 
L 547 681 
z
" transform="scale(0.015625)"/>
     </defs>
     <use xlink:href="#Helvetica-72"/>
     <use xlink:href="#Helvetica-68" transform="translate(33.300781 0)"/>
     <use xlink:href="#Helvetica-6f" transform="translate(88.916016 0)"/>
     <use xlink:href="#Helvetica-20" transform="translate(144.53125 0)"/>
     <use xlink:href="#Helvetica-3d" transform="translate(172.314453 0)"/>
     <use xlink:href="#Helvetica-20" transform="translate(230.712891 0)"/>
     <use xlink:href="#Helvetica-2d" transform="translate(258.496094 0)"/>
     <use xlink:href="#Helvetica-30" transform="translate(291.796875 0)"/>
     <use xlink:href="#Helvetica-2e" transform="translate(347.412109 0)"/>
     <use xlink:href="#Helvetica-30" transform="translate(375.195312 0)"/>
     <use xlink:href="#Helvetica-36" transform="translate(430.810547 0)"/>
    </g>
    <!-- p = 5.06e-01 -->
    <g style="fill: #262626" transform="translate(118.617 47.778) scale(0.1 -0.1)">
     <defs>
      <path id="Helvetica-70" d="M 1825 378 
Q 2219 378 2480 708 
Q 2741 1038 2741 1694 
Q 2741 2094 2625 2381 
Q 2406 2934 1825 2934 
Q 1241 2934 1025 2350 
Q 909 2038 909 1556 
Q 909 1169 1025 897 
Q 1244 378 1825 378 
z
M 369 3331 
L 916 3331 
L 916 2888 
Q 1084 3116 1284 3241 
Q 1569 3428 1953 3428 
Q 2522 3428 2919 2992 
Q 3316 2556 3316 1747 
Q 3316 653 2744 184 
Q 2381 -113 1900 -113 
Q 1522 -113 1266 53 
Q 1116 147 931 375 
L 931 -1334 
L 369 -1334 
L 369 3331 
z
" transform="scale(0.015625)"/>
     </defs>
     <use xlink:href="#Helvetica-70"/>
     <use xlink:href="#Helvetica-20" transform="translate(55.615234 0)"/>
     <use xlink:href="#Helvetica-3d" transform="translate(83.398438 0)"/>
     <use xlink:href="#Helvetica-20" transform="translate(141.796875 0)"/>
     <use xlink:href="#Helvetica-35" transform="translate(169.580078 0)"/>
     <use xlink:href="#Helvetica-2e" transform="translate(225.195312 0)"/>
     <use xlink:href="#Helvetica-30" transform="translate(252.978516 0)"/>
     <use xlink:href="#Helvetica-36" transform="translate(308.59375 0)"/>
     <use xlink:href="#Helvetica-65" transform="translate(364.208984 0)"/>
     <use xlink:href="#Helvetica-2d" transform="translate(419.824219 0)"/>
     <use xlink:href="#Helvetica-30" transform="translate(453.125 0)"/>
     <use xlink:href="#Helvetica-31" transform="translate(508.740234 0)"/>
    </g>
   </g>
   <g id="text_19">
    <!-- AF2 LIS (no templates) 1m vs agonist selectivity -->
    <g style="fill: #262626" transform="translate(-0.585625 18.21375) scale(0.1 -0.1)">
     <defs>
      <path id="Helvetica-41" d="M 2844 1881 
L 2147 3909 
L 1406 1881 
L 2844 1881 
z
M 1822 4591 
L 2525 4591 
L 4191 0 
L 3509 0 
L 3044 1375 
L 1228 1375 
L 731 0 
L 94 0 
L 1822 4591 
z
" transform="scale(0.015625)"/>
      <path id="Helvetica-46" d="M 547 4591 
L 3731 4591 
L 3731 4028 
L 1169 4028 
L 1169 2634 
L 3422 2634 
L 3422 2088 
L 1169 2088 
L 1169 0 
L 547 0 
L 547 4591 
z
" transform="scale(0.015625)"/>
      <path id="Helvetica-4c" d="M 488 4591 
L 1109 4591 
L 1109 547 
L 3434 547 
L 3434 0 
L 488 0 
L 488 4591 
z
" transform="scale(0.015625)"/>
      <path id="Helvetica-49" d="M 628 4591 
L 1256 4591 
L 1256 0 
L 628 0 
L 628 4591 
z
" transform="scale(0.015625)"/>
      <path id="Helvetica-53" d="M 894 1481 
Q 916 1091 1078 847 
Q 1388 391 2169 391 
Q 2519 391 2806 491 
Q 3363 684 3363 1184 
Q 3363 1559 3128 1719 
Q 2891 1875 2384 1991 
L 1763 2131 
Q 1153 2269 900 2434 
Q 463 2722 463 3294 
Q 463 3913 891 4309 
Q 1319 4706 2103 4706 
Q 2825 4706 3329 4357 
Q 3834 4009 3834 3244 
L 3250 3244 
Q 3203 3613 3050 3809 
Q 2766 4169 2084 4169 
Q 1534 4169 1293 3937 
Q 1053 3706 1053 3400 
Q 1053 3063 1334 2906 
Q 1519 2806 2169 2656 
L 2813 2509 
Q 3278 2403 3531 2219 
Q 3969 1897 3969 1284 
Q 3969 522 3414 194 
Q 2859 -134 2125 -134 
Q 1269 -134 784 303 
Q 300 738 309 1481 
L 894 1481 
z
M 2150 4716 
L 2150 4716 
z
" transform="scale(0.015625)"/>
      <path id="Helvetica-28" d="M 1894 4666 
Q 1403 3713 1256 3263 
Q 1034 2578 1034 1681 
Q 1034 775 1288 25 
Q 1444 -438 1903 -1306 
L 1525 -1306 
Q 1069 -594 959 -397 
Q 850 -200 722 138 
Q 547 600 478 1125 
Q 444 1397 444 1644 
Q 444 2569 734 3291 
Q 919 3750 1503 4666 
L 1894 4666 
z
" transform="scale(0.015625)"/>
      <path id="Helvetica-6d" d="M 413 3347 
L 969 3347 
L 969 2872 
Q 1169 3119 1331 3231 
Q 1609 3422 1963 3422 
Q 2363 3422 2606 3225 
Q 2744 3113 2856 2894 
Q 3044 3163 3297 3292 
Q 3550 3422 3866 3422 
Q 4541 3422 4784 2934 
Q 4916 2672 4916 2228 
L 4916 0 
L 4331 0 
L 4331 2325 
Q 4331 2659 4164 2784 
Q 3997 2909 3756 2909 
Q 3425 2909 3186 2687 
Q 2947 2466 2947 1947 
L 2947 0 
L 2375 0 
L 2375 2184 
Q 2375 2525 2294 2681 
Q 2166 2916 1816 2916 
Q 1497 2916 1236 2669 
Q 975 2422 975 1775 
L 975 0 
L 413 0 
L 413 3347 
z
" transform="scale(0.015625)"/>
      <path id="Helvetica-29" d="M 222 -1306 
Q 719 -338 863 106 
Q 1081 778 1081 1681 
Q 1081 2584 828 3334 
Q 672 3797 213 4666 
L 591 4666 
Q 1072 3897 1173 3717 
Q 1275 3538 1394 3222 
Q 1544 2831 1608 2450 
Q 1672 2069 1672 1716 
Q 1672 791 1378 66 
Q 1194 -400 613 -1306 
L 222 -1306 
z
" transform="scale(0.015625)"/>
     </defs>
     <use xlink:href="#Helvetica-41"/>
     <use xlink:href="#Helvetica-46" transform="translate(66.699219 0)"/>
     <use xlink:href="#Helvetica-32" transform="translate(127.783203 0)"/>
     <use xlink:href="#Helvetica-20" transform="translate(183.398438 0)"/>
     <use xlink:href="#Helvetica-4c" transform="translate(211.181641 0)"/>
     <use xlink:href="#Helvetica-49" transform="translate(266.796875 0)"/>
     <use xlink:href="#Helvetica-53" transform="translate(294.580078 0)"/>
     <use xlink:href="#Helvetica-20" transform="translate(361.279297 0)"/>
     <use xlink:href="#Helvetica-28" transform="translate(389.0625 0)"/>
     <use xlink:href="#Helvetica-6e" transform="translate(422.363281 0)"/>
     <use xlink:href="#Helvetica-6f" transform="translate(477.978516 0)"/>
     <use xlink:href="#Helvetica-20" transform="translate(533.59375 0)"/>
     <use xlink:href="#Helvetica-74" transform="translate(561.376953 0)"/>
     <use xlink:href="#Helvetica-65" transform="translate(589.160156 0)"/>
     <use xlink:href="#Helvetica-6d" transform="translate(644.775391 0)"/>
     <use xlink:href="#Helvetica-70" transform="translate(728.076172 0)"/>
     <use xlink:href="#Helvetica-6c" transform="translate(783.691406 0)"/>
     <use xlink:href="#Helvetica-61" transform="translate(805.908203 0)"/>
     <use xlink:href="#Helvetica-74" transform="translate(861.523438 0)"/>
     <use xlink:href="#Helvetica-65" transform="translate(889.306641 0)"/>
     <use xlink:href="#Helvetica-73" transform="translate(944.921875 0)"/>
     <use xlink:href="#Helvetica-29" transform="translate(994.921875 0)"/>
     <use xlink:href="#Helvetica-20" transform="translate(1028.222656 0)"/>
     <use xlink:href="#Helvetica-31" transform="translate(1056.005859 0)"/>
     <use xlink:href="#Helvetica-6d" transform="translate(1111.621094 0)"/>
     <use xlink:href="#Helvetica-20" transform="translate(1194.921875 0)"/>
     <use xlink:href="#Helvetica-76" transform="translate(1222.705078 0)"/>
     <use xlink:href="#Helvetica-73" transform="translate(1272.705078 0)"/>
     <use xlink:href="#Helvetica-20" transform="translate(1322.705078 0)"/>
     <use xlink:href="#Helvetica-61" transform="translate(1350.488281 0)"/>
     <use xlink:href="#Helvetica-67" transform="translate(1406.103516 0)"/>
     <use xlink:href="#Helvetica-6f" transform="translate(1461.71875 0)"/>
     <use xlink:href="#Helvetica-6e" transform="translate(1517.333984 0)"/>
     <use xlink:href="#Helvetica-69" transform="translate(1572.949219 0)"/>
     <use xlink:href="#Helvetica-73" transform="translate(1595.166016 0)"/>
     <use xlink:href="#Helvetica-74" transform="translate(1645.166016 0)"/>
     <use xlink:href="#Helvetica-20" transform="translate(1672.949219 0)"/>
     <use xlink:href="#Helvetica-73" transform="translate(1700.732422 0)"/>
     <use xlink:href="#Helvetica-65" transform="translate(1750.732422 0)"/>
     <use xlink:href="#Helvetica-6c" transform="translate(1806.347656 0)"/>
     <use xlink:href="#Helvetica-65" transform="translate(1828.564453 0)"/>
     <use xlink:href="#Helvetica-63" transform="translate(1884.179688 0)"/>
     <use xlink:href="#Helvetica-74" transform="translate(1934.179688 0)"/>
     <use xlink:href="#Helvetica-69" transform="translate(1961.962891 0)"/>
     <use xlink:href="#Helvetica-76" transform="translate(1984.179688 0)"/>
     <use xlink:href="#Helvetica-69" transform="translate(2034.179688 0)"/>
     <use xlink:href="#Helvetica-74" transform="translate(2056.396484 0)"/>
     <use xlink:href="#Helvetica-79" transform="translate(2084.179688 0)"/>
    </g>
   </g>
  </g>
 </g>
 <defs>
  <clipPath id="p69fcfc41c2">
   <rect x="43.62" y="24.21375" width="124.995" height="113.96625"/>
  </clipPath>
 </defs>
</svg>
