<?xml version="1.0" encoding="utf-8" standalone="no"?>
<!DOCTYPE svg PUBLIC "-//W3C//DTD SVG 1.1//EN"
  "http://www.w3.org/Graphics/SVG/1.1/DTD/svg11.dtd">
<svg xmlns:xlink="http://www.w3.org/1999/xlink" width="162pt" height="162pt" viewBox="0 0 162 162" xmlns="http://www.w3.org/2000/svg" version="1.1">
 <metadata>
  <rdf:RDF xmlns:dc="http://purl.org/dc/elements/1.1/" xmlns:cc="http://creativecommons.org/ns#" xmlns:rdf="http://www.w3.org/1999/02/22-rdf-syntax-ns#">
   <cc:Work>
    <dc:type rdf:resource="http://purl.org/dc/dcmitype/StillImage"/>
    <dc:date>2025-03-07T14:31:27.204382</dc:date>
    <dc:format>image/svg+xml</dc:format>
    <dc:creator>
     <cc:Agent>
      <dc:title>Matplotlib v3.10.0, https://matplotlib.org/</dc:title>
     </cc:Agent>
    </dc:creator>
   </cc:Work>
  </rdf:RDF>
 </metadata>
 <defs>
  <style type="text/css">*{stroke-linejoin: round; stroke-linecap: butt}</style>
 </defs>
 <g id="figure_1">
  <g id="patch_1">
   <path d="M 0 162 
L 162 162 
L 162 0 
L 0 0 
z
" style="fill: #ffffff"/>
  </g>
  <g id="axes_1">
   <g id="patch_2">
    <path d="M 43.62 120.163125 
L 144.945 120.163125 
L 144.945 24.21375 
L 43.62 24.21375 
z
" style="fill: #ffffff"/>
   </g>
   <g id="matplotlib.axis_1">
    <g id="xtick_1">
     <g id="line2d_1">
      <path d="M 46.550888 120.163125 
L 46.550888 24.21375 
" clip-path="url(#pf7496851b6)" style="fill: none; stroke: #cccccc; stroke-width: 0.8; stroke-linecap: round"/>
     </g>
     <g id="text_1">
      <!-- 0 -->
      <g style="fill: #262626" transform="translate(43.77042 135.636562) scale(0.1 -0.1)">
       <defs>
        <path id="Helvetica-30" d="M 1731 4475 
Q 2600 4475 2988 3759 
Q 3288 3206 3288 2244 
Q 3288 1331 3016 734 
Q 2622 -122 1728 -122 
Q 922 -122 528 578 
Q 200 1163 200 2147 
Q 200 2909 397 3456 
Q 766 4475 1731 4475 
z
M 1725 391 
Q 2163 391 2422 778 
Q 2681 1166 2681 2222 
Q 2681 2984 2493 3476 
Q 2306 3969 1766 3969 
Q 1269 3969 1039 3501 
Q 809 3034 809 2125 
Q 809 1441 956 1025 
Q 1181 391 1725 391 
z
" transform="scale(0.015625)"/>
       </defs>
       <use xlink:href="#Helvetica-30"/>
      </g>
     </g>
    </g>
    <g id="xtick_2">
     <g id="line2d_2">
      <path d="M 88.420723 120.163125 
L 88.420723 24.21375 
" clip-path="url(#pf7496851b6)" style="fill: none; stroke: #cccccc; stroke-width: 0.8; stroke-linecap: round"/>
     </g>
     <g id="text_2">
      <!-- 250 -->
      <g style="fill: #262626" transform="translate(80.079317 135.636562) scale(0.1 -0.1)">
       <defs>
        <path id="Helvetica-32" d="M 200 0 
Q 231 578 439 1006 
Q 647 1434 1250 1784 
L 1850 2131 
Q 2253 2366 2416 2531 
Q 2672 2791 2672 3125 
Q 2672 3516 2437 3745 
Q 2203 3975 1813 3975 
Q 1234 3975 1013 3538 
Q 894 3303 881 2888 
L 309 2888 
Q 319 3472 525 3841 
Q 891 4491 1816 4491 
Q 2584 4491 2939 4075 
Q 3294 3659 3294 3150 
Q 3294 2613 2916 2231 
Q 2697 2009 2131 1694 
L 1703 1456 
Q 1397 1288 1222 1134 
Q 909 863 828 531 
L 3272 531 
L 3272 0 
L 200 0 
z
" transform="scale(0.015625)"/>
        <path id="Helvetica-35" d="M 791 1141 
Q 847 659 1238 475 
Q 1438 381 1700 381 
Q 2200 381 2440 700 
Q 2681 1019 2681 1406 
Q 2681 1875 2395 2131 
Q 2109 2388 1709 2388 
Q 1419 2388 1211 2275 
Q 1003 2163 856 1963 
L 369 1991 
L 709 4400 
L 3034 4400 
L 3034 3856 
L 1131 3856 
L 941 2613 
Q 1097 2731 1238 2791 
Q 1488 2894 1816 2894 
Q 2431 2894 2859 2497 
Q 3288 2100 3288 1491 
Q 3288 856 2895 371 
Q 2503 -113 1644 -113 
Q 1097 -113 676 195 
Q 256 503 206 1141 
L 791 1141 
z
" transform="scale(0.015625)"/>
       </defs>
       <use xlink:href="#Helvetica-32"/>
       <use xlink:href="#Helvetica-35" transform="translate(55.615234 0)"/>
       <use xlink:href="#Helvetica-30" transform="translate(111.230469 0)"/>
      </g>
     </g>
    </g>
    <g id="xtick_3">
     <g id="line2d_3">
      <path d="M 130.290558 120.163125 
L 130.290558 24.21375 
" clip-path="url(#pf7496851b6)" style="fill: none; stroke: #cccccc; stroke-width: 0.8; stroke-linecap: round"/>
     </g>
     <g id="text_3">
      <!-- 500 -->
      <g style="fill: #262626" transform="translate(121.949152 135.636562) scale(0.1 -0.1)">
       <use xlink:href="#Helvetica-35"/>
       <use xlink:href="#Helvetica-30" transform="translate(55.615234 0)"/>
       <use xlink:href="#Helvetica-30" transform="translate(111.230469 0)"/>
      </g>
     </g>
    </g>
    <g id="text_4">
     <!-- N-term length -->
     <g style="fill: #262626" transform="translate(63.996563 148.917812) scale(0.1 -0.1)">
      <defs>
       <path id="Helvetica-4e" d="M 488 4591 
L 1222 4591 
L 3541 872 
L 3541 4591 
L 4131 4591 
L 4131 0 
L 3434 0 
L 1081 3716 
L 1081 0 
L 488 0 
L 488 4591 
z
M 2269 4591 
L 2269 4591 
z
" transform="scale(0.015625)"/>
       <path id="Helvetica-2d" d="M 266 2072 
L 1834 2072 
L 1834 1494 
L 266 1494 
L 266 2072 
z
" transform="scale(0.015625)"/>
       <path id="Helvetica-74" d="M 525 4281 
L 1094 4281 
L 1094 3347 
L 1628 3347 
L 1628 2888 
L 1094 2888 
L 1094 703 
Q 1094 528 1213 469 
Q 1278 434 1431 434 
Q 1472 434 1519 436 
Q 1566 438 1628 444 
L 1628 0 
Q 1531 -28 1426 -40 
Q 1322 -53 1200 -53 
Q 806 -53 665 148 
Q 525 350 525 672 
L 525 2888 
L 72 2888 
L 72 3347 
L 525 3347 
L 525 4281 
z
" transform="scale(0.015625)"/>
       <path id="Helvetica-65" d="M 1806 3422 
Q 2163 3422 2497 3255 
Q 2831 3088 3006 2822 
Q 3175 2569 3231 2231 
Q 3281 2000 3281 1494 
L 828 1494 
Q 844 984 1069 676 
Q 1294 369 1766 369 
Q 2206 369 2469 659 
Q 2619 828 2681 1050 
L 3234 1050 
Q 3213 866 3089 639 
Q 2966 413 2813 269 
Q 2556 19 2178 -69 
Q 1975 -119 1719 -119 
Q 1094 -119 659 336 
Q 225 791 225 1609 
Q 225 2416 662 2919 
Q 1100 3422 1806 3422 
z
M 2703 1941 
Q 2669 2306 2544 2525 
Q 2313 2931 1772 2931 
Q 1384 2931 1121 2651 
Q 859 2372 844 1941 
L 2703 1941 
z
M 1753 3428 
L 1753 3428 
z
" transform="scale(0.015625)"/>
       <path id="Helvetica-72" d="M 428 3347 
L 963 3347 
L 963 2769 
Q 1028 2938 1284 3180 
Q 1541 3422 1875 3422 
Q 1891 3422 1928 3419 
Q 1966 3416 2056 3406 
L 2056 2813 
Q 2006 2822 1964 2825 
Q 1922 2828 1872 2828 
Q 1447 2828 1219 2554 
Q 991 2281 991 1925 
L 991 0 
L 428 0 
L 428 3347 
z
" transform="scale(0.015625)"/>
       <path id="Helvetica-6d" d="M 413 3347 
L 969 3347 
L 969 2872 
Q 1169 3119 1331 3231 
Q 1609 3422 1963 3422 
Q 2363 3422 2606 3225 
Q 2744 3113 2856 2894 
Q 3044 3163 3297 3292 
Q 3550 3422 3866 3422 
Q 4541 3422 4784 2934 
Q 4916 2672 4916 2228 
L 4916 0 
L 4331 0 
L 4331 2325 
Q 4331 2659 4164 2784 
Q 3997 2909 3756 2909 
Q 3425 2909 3186 2687 
Q 2947 2466 2947 1947 
L 2947 0 
L 2375 0 
L 2375 2184 
Q 2375 2525 2294 2681 
Q 2166 2916 1816 2916 
Q 1497 2916 1236 2669 
Q 975 2422 975 1775 
L 975 0 
L 413 0 
L 413 3347 
z
" transform="scale(0.015625)"/>
       <path id="Helvetica-20" transform="scale(0.015625)"/>
       <path id="Helvetica-6c" d="M 428 4591 
L 991 4591 
L 991 0 
L 428 0 
L 428 4591 
z
" transform="scale(0.015625)"/>
       <path id="Helvetica-6e" d="M 413 3347 
L 947 3347 
L 947 2872 
Q 1184 3166 1450 3294 
Q 1716 3422 2041 3422 
Q 2753 3422 3003 2925 
Q 3141 2653 3141 2147 
L 3141 0 
L 2569 0 
L 2569 2109 
Q 2569 2416 2478 2603 
Q 2328 2916 1934 2916 
Q 1734 2916 1606 2875 
Q 1375 2806 1200 2600 
Q 1059 2434 1017 2257 
Q 975 2081 975 1753 
L 975 0 
L 413 0 
L 413 3347 
z
M 1734 3428 
L 1734 3428 
z
" transform="scale(0.015625)"/>
       <path id="Helvetica-67" d="M 1594 3406 
Q 1988 3406 2281 3213 
Q 2441 3103 2606 2894 
L 2606 3316 
L 3125 3316 
L 3125 272 
Q 3125 -366 2938 -734 
Q 2588 -1416 1616 -1416 
Q 1075 -1416 706 -1173 
Q 338 -931 294 -416 
L 866 -416 
Q 906 -641 1028 -763 
Q 1219 -950 1628 -950 
Q 2275 -950 2475 -494 
Q 2594 -225 2584 466 
Q 2416 209 2178 84 
Q 1941 -41 1550 -41 
Q 1006 -41 598 345 
Q 191 731 191 1622 
Q 191 2463 602 2934 
Q 1013 3406 1594 3406 
z
M 2606 1688 
Q 2606 2309 2350 2609 
Q 2094 2909 1697 2909 
Q 1103 2909 884 2353 
Q 769 2056 769 1575 
Q 769 1009 998 714 
Q 1228 419 1616 419 
Q 2222 419 2469 966 
Q 2606 1275 2606 1688 
z
M 1659 3428 
L 1659 3428 
z
" transform="scale(0.015625)"/>
       <path id="Helvetica-68" d="M 413 4606 
L 975 4606 
L 975 2894 
Q 1175 3147 1334 3250 
Q 1606 3428 2013 3428 
Q 2741 3428 3000 2919 
Q 3141 2641 3141 2147 
L 3141 0 
L 2563 0 
L 2563 2109 
Q 2563 2478 2469 2650 
Q 2316 2925 1894 2925 
Q 1544 2925 1259 2684 
Q 975 2444 975 1775 
L 975 0 
L 413 0 
L 413 4606 
z
" transform="scale(0.015625)"/>
      </defs>
      <use xlink:href="#Helvetica-4e"/>
      <use xlink:href="#Helvetica-2d" transform="translate(72.216797 0)"/>
      <use xlink:href="#Helvetica-74" transform="translate(105.517578 0)"/>
      <use xlink:href="#Helvetica-65" transform="translate(133.300781 0)"/>
      <use xlink:href="#Helvetica-72" transform="translate(188.916016 0)"/>
      <use xlink:href="#Helvetica-6d" transform="translate(222.216797 0)"/>
      <use xlink:href="#Helvetica-20" transform="translate(305.517578 0)"/>
      <use xlink:href="#Helvetica-6c" transform="translate(333.300781 0)"/>
      <use xlink:href="#Helvetica-65" transform="translate(355.517578 0)"/>
      <use xlink:href="#Helvetica-6e" transform="translate(411.132812 0)"/>
      <use xlink:href="#Helvetica-67" transform="translate(466.748047 0)"/>
      <use xlink:href="#Helvetica-74" transform="translate(522.363281 0)"/>
      <use xlink:href="#Helvetica-68" transform="translate(550.146484 0)"/>
     </g>
    </g>
   </g>
   <g id="matplotlib.axis_2">
    <g id="ytick_1">
     <g id="line2d_4">
      <path d="M 43.62 120.163125 
L 144.945 120.163125 
" clip-path="url(#pf7496851b6)" style="fill: none; stroke: #cccccc; stroke-width: 0.8; stroke-linecap: round"/>
     </g>
     <g id="text_5">
      <!-- 0 -->
      <g style="fill: #262626" transform="translate(29.759063 123.749844) scale(0.1 -0.1)">
       <use xlink:href="#Helvetica-30"/>
      </g>
     </g>
    </g>
    <g id="ytick_2">
     <g id="line2d_5">
      <path d="M 43.62 111.819178 
L 144.945 111.819178 
" clip-path="url(#pf7496851b6)" style="fill: none; stroke: #cccccc; stroke-width: 0.8; stroke-linecap: round"/>
     </g>
     <g id="text_6">
      <!-- 1 -->
      <g style="fill: #262626" transform="translate(29.759063 115.405897) scale(0.1 -0.1)">
       <defs>
        <path id="Helvetica-31" d="M 613 3169 
L 613 3600 
Q 1222 3659 1462 3798 
Q 1703 3938 1822 4456 
L 2266 4456 
L 2266 0 
L 1666 0 
L 1666 3169 
L 613 3169 
z
" transform="scale(0.015625)"/>
       </defs>
       <use xlink:href="#Helvetica-31"/>
      </g>
     </g>
    </g>
    <g id="ytick_3">
     <g id="line2d_6">
      <path d="M 43.62 103.475232 
L 144.945 103.475232 
" clip-path="url(#pf7496851b6)" style="fill: none; stroke: #cccccc; stroke-width: 0.8; stroke-linecap: round"/>
     </g>
     <g id="text_7">
      <!-- 2 -->
      <g style="fill: #262626" transform="translate(29.759063 107.061951) scale(0.1 -0.1)">
       <use xlink:href="#Helvetica-32"/>
      </g>
     </g>
    </g>
    <g id="ytick_4">
     <g id="line2d_7">
      <path d="M 43.62 95.131285 
L 144.945 95.131285 
" clip-path="url(#pf7496851b6)" style="fill: none; stroke: #cccccc; stroke-width: 0.8; stroke-linecap: round"/>
     </g>
     <g id="text_8">
      <!-- 3 -->
      <g style="fill: #262626" transform="translate(29.759063 98.718004) scale(0.1 -0.1)">
       <defs>
        <path id="Helvetica-33" d="M 1663 -122 
Q 869 -122 511 314 
Q 153 750 153 1375 
L 741 1375 
Q 778 941 903 744 
Q 1122 391 1694 391 
Q 2138 391 2406 628 
Q 2675 866 2675 1241 
Q 2675 1703 2392 1887 
Q 2109 2072 1606 2072 
Q 1550 2072 1492 2070 
Q 1434 2069 1375 2066 
L 1375 2563 
Q 1463 2553 1522 2550 
Q 1581 2547 1650 2547 
Q 1966 2547 2169 2647 
Q 2525 2822 2525 3272 
Q 2525 3606 2287 3787 
Q 2050 3969 1734 3969 
Q 1172 3969 956 3594 
Q 838 3388 822 3006 
L 266 3006 
Q 266 3506 466 3856 
Q 809 4481 1675 4481 
Q 2359 4481 2734 4176 
Q 3109 3872 3109 3294 
Q 3109 2881 2888 2625 
Q 2750 2466 2531 2375 
Q 2884 2278 3082 2001 
Q 3281 1725 3281 1325 
Q 3281 684 2859 281 
Q 2438 -122 1663 -122 
z
" transform="scale(0.015625)"/>
       </defs>
       <use xlink:href="#Helvetica-33"/>
      </g>
     </g>
    </g>
    <g id="ytick_5">
     <g id="line2d_8">
      <path d="M 43.62 86.787339 
L 144.945 86.787339 
" clip-path="url(#pf7496851b6)" style="fill: none; stroke: #cccccc; stroke-width: 0.8; stroke-linecap: round"/>
     </g>
     <g id="text_9">
      <!-- 4 -->
      <g style="fill: #262626" transform="translate(29.759063 90.374057) scale(0.1 -0.1)">
       <defs>
        <path id="Helvetica-34" d="M 2116 1584 
L 2116 3613 
L 681 1584 
L 2116 1584 
z
M 2125 0 
L 2125 1094 
L 163 1094 
L 163 1644 
L 2213 4488 
L 2688 4488 
L 2688 1584 
L 3347 1584 
L 3347 1094 
L 2688 1094 
L 2688 0 
L 2125 0 
z
" transform="scale(0.015625)"/>
       </defs>
       <use xlink:href="#Helvetica-34"/>
      </g>
     </g>
    </g>
    <g id="ytick_6">
     <g id="line2d_9">
      <path d="M 43.62 78.443392 
L 144.945 78.443392 
" clip-path="url(#pf7496851b6)" style="fill: none; stroke: #cccccc; stroke-width: 0.8; stroke-linecap: round"/>
     </g>
     <g id="text_10">
      <!-- 5 -->
      <g style="fill: #262626" transform="translate(29.759063 82.030111) scale(0.1 -0.1)">
       <use xlink:href="#Helvetica-35"/>
      </g>
     </g>
    </g>
    <g id="ytick_7">
     <g id="line2d_10">
      <path d="M 43.62 70.099445 
L 144.945 70.099445 
" clip-path="url(#pf7496851b6)" style="fill: none; stroke: #cccccc; stroke-width: 0.8; stroke-linecap: round"/>
     </g>
     <g id="text_11">
      <!-- 6 -->
      <g style="fill: #262626" transform="translate(29.759063 73.686164) scale(0.1 -0.1)">
       <defs>
        <path id="Helvetica-36" d="M 1872 4494 
Q 2622 4494 2917 4105 
Q 3213 3716 3213 3303 
L 2656 3303 
Q 2606 3569 2497 3719 
Q 2294 4000 1881 4000 
Q 1409 4000 1131 3564 
Q 853 3128 822 2316 
Q 1016 2600 1309 2741 
Q 1578 2866 1909 2866 
Q 2472 2866 2890 2506 
Q 3309 2147 3309 1434 
Q 3309 825 2912 354 
Q 2516 -116 1781 -116 
Q 1153 -116 697 361 
Q 241 838 241 1966 
Q 241 2800 444 3381 
Q 834 4494 1872 4494 
z
M 1831 384 
Q 2275 384 2495 682 
Q 2716 981 2716 1388 
Q 2716 1731 2519 2042 
Q 2322 2353 1803 2353 
Q 1441 2353 1167 2112 
Q 894 1872 894 1388 
Q 894 963 1142 673 
Q 1391 384 1831 384 
z
" transform="scale(0.015625)"/>
       </defs>
       <use xlink:href="#Helvetica-36"/>
      </g>
     </g>
    </g>
    <g id="ytick_8">
     <g id="line2d_11">
      <path d="M 43.62 61.755499 
L 144.945 61.755499 
" clip-path="url(#pf7496851b6)" style="fill: none; stroke: #cccccc; stroke-width: 0.8; stroke-linecap: round"/>
     </g>
     <g id="text_12">
      <!-- 7 -->
      <g style="fill: #262626" transform="translate(29.759063 65.342217) scale(0.1 -0.1)">
       <defs>
        <path id="Helvetica-37" d="M 3347 4400 
L 3347 3909 
Q 3131 3700 2773 3181 
Q 2416 2663 2141 2063 
Q 1869 1478 1728 997 
Q 1638 688 1494 0 
L 872 0 
Q 1084 1281 1809 2550 
Q 2238 3294 2709 3834 
L 234 3834 
L 234 4400 
L 3347 4400 
z
" transform="scale(0.015625)"/>
       </defs>
       <use xlink:href="#Helvetica-37"/>
      </g>
     </g>
    </g>
    <g id="ytick_9">
     <g id="line2d_12">
      <path d="M 43.62 53.411552 
L 144.945 53.411552 
" clip-path="url(#pf7496851b6)" style="fill: none; stroke: #cccccc; stroke-width: 0.8; stroke-linecap: round"/>
     </g>
     <g id="text_13">
      <!-- 8 -->
      <g style="fill: #262626" transform="translate(29.759063 56.998271) scale(0.1 -0.1)">
       <defs>
        <path id="Helvetica-38" d="M 1741 2600 
Q 2113 2600 2322 2808 
Q 2531 3016 2531 3303 
Q 2531 3553 2331 3762 
Q 2131 3972 1722 3972 
Q 1316 3972 1134 3762 
Q 953 3553 953 3272 
Q 953 2956 1187 2778 
Q 1422 2600 1741 2600 
z
M 1775 384 
Q 2166 384 2423 595 
Q 2681 806 2681 1225 
Q 2681 1659 2415 1884 
Q 2150 2109 1734 2109 
Q 1331 2109 1076 1879 
Q 822 1650 822 1244 
Q 822 894 1055 639 
Q 1288 384 1775 384 
z
M 975 2384 
Q 741 2484 609 2619 
Q 363 2869 363 3269 
Q 363 3769 725 4128 
Q 1088 4488 1753 4488 
Q 2397 4488 2762 4148 
Q 3128 3809 3128 3356 
Q 3128 2938 2916 2678 
Q 2797 2531 2547 2391 
Q 2825 2263 2984 2097 
Q 3281 1784 3281 1284 
Q 3281 694 2884 283 
Q 2488 -128 1763 -128 
Q 1109 -128 657 226 
Q 206 581 206 1256 
Q 206 1653 400 1942 
Q 594 2231 975 2384 
z
" transform="scale(0.015625)"/>
       </defs>
       <use xlink:href="#Helvetica-38"/>
      </g>
     </g>
    </g>
    <g id="ytick_10">
     <g id="line2d_13">
      <path d="M 43.62 45.067606 
L 144.945 45.067606 
" clip-path="url(#pf7496851b6)" style="fill: none; stroke: #cccccc; stroke-width: 0.8; stroke-linecap: round"/>
     </g>
     <g id="text_14">
      <!-- 9 -->
      <g style="fill: #262626" transform="translate(29.759063 48.654324) scale(0.1 -0.1)">
       <defs>
        <path id="Helvetica-39" d="M 850 1081 
Q 875 616 1209 438 
Q 1381 344 1597 344 
Q 2000 344 2284 680 
Q 2569 1016 2688 2044 
Q 2500 1747 2223 1626 
Q 1947 1506 1628 1506 
Q 981 1506 604 1909 
Q 228 2313 228 2947 
Q 228 3556 600 4018 
Q 972 4481 1697 4481 
Q 2675 4481 3047 3600 
Q 3253 3116 3253 2388 
Q 3253 1566 3006 931 
Q 2597 -125 1619 -125 
Q 963 -125 622 219 
Q 281 563 281 1081 
L 850 1081 
z
M 1703 2000 
Q 2038 2000 2314 2220 
Q 2591 2441 2591 2991 
Q 2591 3484 2342 3726 
Q 2094 3969 1709 3969 
Q 1297 3969 1055 3692 
Q 813 3416 813 2953 
Q 813 2516 1025 2258 
Q 1238 2000 1703 2000 
z
" transform="scale(0.015625)"/>
       </defs>
       <use xlink:href="#Helvetica-39"/>
      </g>
     </g>
    </g>
    <g id="ytick_11">
     <g id="line2d_14">
      <path d="M 43.62 36.723659 
L 144.945 36.723659 
" clip-path="url(#pf7496851b6)" style="fill: none; stroke: #cccccc; stroke-width: 0.8; stroke-linecap: round"/>
     </g>
     <g id="text_15">
      <!-- 10 -->
      <g style="fill: #262626" transform="translate(24.198125 40.310378) scale(0.1 -0.1)">
       <use xlink:href="#Helvetica-31"/>
       <use xlink:href="#Helvetica-30" transform="translate(55.615234 0)"/>
      </g>
     </g>
    </g>
    <g id="ytick_12">
     <g id="line2d_15">
      <path d="M 43.62 28.379712 
L 144.945 28.379712 
" clip-path="url(#pf7496851b6)" style="fill: none; stroke: #cccccc; stroke-width: 0.8; stroke-linecap: round"/>
     </g>
     <g id="text_16">
      <!-- 11 -->
      <g style="fill: #262626" transform="translate(24.198125 31.966431) scale(0.1 -0.1)">
       <use xlink:href="#Helvetica-31"/>
       <use xlink:href="#Helvetica-31" transform="translate(55.615234 0)"/>
      </g>
     </g>
    </g>
    <g id="text_17">
     <!-- Rank -->
     <g style="fill: #262626" transform="translate(18.11375 83.860312) rotate(-90) scale(0.1 -0.1)">
      <defs>
       <path id="Helvetica-52" d="M 2622 2488 
Q 3059 2488 3314 2663 
Q 3569 2838 3569 3294 
Q 3569 3784 3213 3963 
Q 3022 4056 2703 4056 
L 1184 4056 
L 1184 2488 
L 2622 2488 
z
M 563 4591 
L 2688 4591 
Q 3213 4591 3553 4438 
Q 4200 4144 4200 3353 
Q 4200 2941 4029 2678 
Q 3859 2416 3553 2256 
Q 3822 2147 3958 1969 
Q 4094 1791 4109 1391 
L 4131 775 
Q 4141 513 4175 384 
Q 4231 166 4375 103 
L 4375 0 
L 3613 0 
Q 3581 59 3562 153 
Q 3544 247 3531 516 
L 3494 1281 
Q 3472 1731 3159 1884 
Q 2981 1969 2600 1969 
L 1184 1969 
L 1184 0 
L 563 0 
L 563 4591 
z
" transform="scale(0.015625)"/>
       <path id="Helvetica-61" d="M 844 891 
Q 844 647 1022 506 
Q 1200 366 1444 366 
Q 1741 366 2019 503 
Q 2488 731 2488 1250 
L 2488 1703 
Q 2384 1638 2221 1594 
Q 2059 1550 1903 1531 
L 1563 1488 
Q 1256 1447 1103 1359 
Q 844 1213 844 891 
z
M 2206 2028 
Q 2400 2053 2466 2191 
Q 2503 2266 2503 2406 
Q 2503 2694 2298 2823 
Q 2094 2953 1713 2953 
Q 1272 2953 1088 2716 
Q 984 2584 953 2325 
L 428 2325 
Q 444 2944 830 3186 
Q 1216 3428 1725 3428 
Q 2316 3428 2684 3203 
Q 3050 2978 3050 2503 
L 3050 575 
Q 3050 488 3086 434 
Q 3122 381 3238 381 
Q 3275 381 3322 386 
Q 3369 391 3422 400 
L 3422 -16 
Q 3291 -53 3222 -62 
Q 3153 -72 3034 -72 
Q 2744 -72 2613 134 
Q 2544 244 2516 444 
Q 2344 219 2022 53 
Q 1700 -113 1313 -113 
Q 847 -113 551 170 
Q 256 453 256 878 
Q 256 1344 547 1600 
Q 838 1856 1309 1916 
L 2206 2028 
z
M 1741 3428 
L 1741 3428 
z
" transform="scale(0.015625)"/>
       <path id="Helvetica-6b" d="M 400 4591 
L 941 4591 
L 941 1925 
L 2384 3347 
L 3103 3347 
L 1822 2094 
L 3175 0 
L 2456 0 
L 1413 1688 
L 941 1256 
L 941 0 
L 400 0 
L 400 4591 
z
" transform="scale(0.015625)"/>
      </defs>
      <use xlink:href="#Helvetica-52"/>
      <use xlink:href="#Helvetica-61" transform="translate(72.216797 0)"/>
      <use xlink:href="#Helvetica-6e" transform="translate(127.832031 0)"/>
      <use xlink:href="#Helvetica-6b" transform="translate(183.447266 0)"/>
     </g>
    </g>
   </g>
   <g id="PathCollection_1">
    <defs>
     <path id="m945e8cca76" d="M 0 2.4 
C 0.636487 2.4 1.246992 2.147121 1.697056 1.697056 
C 2.147121 1.246992 2.4 0.636487 2.4 0 
C 2.4 -0.636487 2.147121 -1.246992 1.697056 -1.697056 
C 1.246992 -2.147121 0.636487 -2.4 0 -2.4 
C -0.636487 -2.4 -1.246992 -2.147121 -1.697056 -1.697056 
C -2.147121 -1.246992 -2.4 -0.636487 -2.4 0 
C -2.4 0.636487 -2.147121 1.246992 -1.697056 1.697056 
C -1.246992 2.147121 -0.636487 2.4 0 2.4 
z
" style="stroke: #1f77b4; stroke-opacity: 0.5"/>
    </defs>
    <g clip-path="url(#pf7496851b6)">
     <use xlink:href="#m945e8cca76" x="52.915103" y="44.726162" style="fill: #1f77b4; fill-opacity: 0.5; stroke: #1f77b4; stroke-opacity: 0.5"/>
     <use xlink:href="#m945e8cca76" x="52.077707" y="46.150472" style="fill: #1f77b4; fill-opacity: 0.5; stroke: #1f77b4; stroke-opacity: 0.5"/>
     <use xlink:href="#m945e8cca76" x="51.910227" y="54.177289" style="fill: #1f77b4; fill-opacity: 0.5; stroke: #1f77b4; stroke-opacity: 0.5"/>
     <use xlink:href="#m945e8cca76" x="54.422417" y="112.875944" style="fill: #1f77b4; fill-opacity: 0.5; stroke: #1f77b4; stroke-opacity: 0.5"/>
     <use xlink:href="#m945e8cca76" x="52.077707" y="87.06996" style="fill: #1f77b4; fill-opacity: 0.5; stroke: #1f77b4; stroke-opacity: 0.5"/>
     <use xlink:href="#m945e8cca76" x="56.432169" y="113.23716" style="fill: #1f77b4; fill-opacity: 0.5; stroke: #1f77b4; stroke-opacity: 0.5"/>
     <use xlink:href="#m945e8cca76" x="52.245186" y="28.45296" style="fill: #1f77b4; fill-opacity: 0.5; stroke: #1f77b4; stroke-opacity: 0.5"/>
     <use xlink:href="#m945e8cca76" x="51.742748" y="60.562267" style="fill: #1f77b4; fill-opacity: 0.5; stroke: #1f77b4; stroke-opacity: 0.5"/>
     <use xlink:href="#m945e8cca76" x="59.446798" y="105.01236" style="fill: #1f77b4; fill-opacity: 0.5; stroke: #1f77b4; stroke-opacity: 0.5"/>
     <use xlink:href="#m945e8cca76" x="51.407789" y="87.235628" style="fill: #1f77b4; fill-opacity: 0.5; stroke: #1f77b4; stroke-opacity: 0.5"/>
     <use xlink:href="#m945e8cca76" x="58.106963" y="87.220193" style="fill: #1f77b4; fill-opacity: 0.5; stroke: #1f77b4; stroke-opacity: 0.5"/>
     <use xlink:href="#m945e8cca76" x="50.737872" y="102.548913" style="fill: #1f77b4; fill-opacity: 0.5; stroke: #1f77b4; stroke-opacity: 0.5"/>
     <use xlink:href="#m945e8cca76" x="54.254938" y="43.936856" style="fill: #1f77b4; fill-opacity: 0.5; stroke: #1f77b4; stroke-opacity: 0.5"/>
     <use xlink:href="#m945e8cca76" x="55.762252" y="76.898492" style="fill: #1f77b4; fill-opacity: 0.5; stroke: #1f77b4; stroke-opacity: 0.5"/>
     <use xlink:href="#m945e8cca76" x="51.407789" y="113.10445" style="fill: #1f77b4; fill-opacity: 0.5; stroke: #1f77b4; stroke-opacity: 0.5"/>
     <use xlink:href="#m945e8cca76" x="51.910227" y="54.171826" style="fill: #1f77b4; fill-opacity: 0.5; stroke: #1f77b4; stroke-opacity: 0.5"/>
     <use xlink:href="#m945e8cca76" x="52.580145" y="52.663743" style="fill: #1f77b4; fill-opacity: 0.5; stroke: #1f77b4; stroke-opacity: 0.5"/>
     <use xlink:href="#m945e8cca76" x="51.910227" y="35.645223" style="fill: #1f77b4; fill-opacity: 0.5; stroke: #1f77b4; stroke-opacity: 0.5"/>
     <use xlink:href="#m945e8cca76" x="50.737872" y="110.230045" style="fill: #1f77b4; fill-opacity: 0.5; stroke: #1f77b4; stroke-opacity: 0.5"/>
     <use xlink:href="#m945e8cca76" x="56.097211" y="79.617491" style="fill: #1f77b4; fill-opacity: 0.5; stroke: #1f77b4; stroke-opacity: 0.5"/>
     <use xlink:href="#m945e8cca76" x="50.402913" y="70.155094" style="fill: #1f77b4; fill-opacity: 0.5; stroke: #1f77b4; stroke-opacity: 0.5"/>
     <use xlink:href="#m945e8cca76" x="71.002872" y="77.79062" style="fill: #1f77b4; fill-opacity: 0.5; stroke: #1f77b4; stroke-opacity: 0.5"/>
     <use xlink:href="#m945e8cca76" x="53.919979" y="112.750346" style="fill: #1f77b4; fill-opacity: 0.5; stroke: #1f77b4; stroke-opacity: 0.5"/>
     <use xlink:href="#m945e8cca76" x="50.737872" y="52.647803" style="fill: #1f77b4; fill-opacity: 0.5; stroke: #1f77b4; stroke-opacity: 0.5"/>
     <use xlink:href="#m945e8cca76" x="53.919979" y="70.980633" style="fill: #1f77b4; fill-opacity: 0.5; stroke: #1f77b4; stroke-opacity: 0.5"/>
     <use xlink:href="#m945e8cca76" x="52.915103" y="63.258533" style="fill: #1f77b4; fill-opacity: 0.5; stroke: #1f77b4; stroke-opacity: 0.5"/>
     <use xlink:href="#m945e8cca76" x="49.565517" y="79.019597" style="fill: #1f77b4; fill-opacity: 0.5; stroke: #1f77b4; stroke-opacity: 0.5"/>
     <use xlink:href="#m945e8cca76" x="55.929731" y="112.634142" style="fill: #1f77b4; fill-opacity: 0.5; stroke: #1f77b4; stroke-opacity: 0.5"/>
     <use xlink:href="#m945e8cca76" x="53.919979" y="36.379359" style="fill: #1f77b4; fill-opacity: 0.5; stroke: #1f77b4; stroke-opacity: 0.5"/>
     <use xlink:href="#m945e8cca76" x="54.422417" y="103.280881" style="fill: #1f77b4; fill-opacity: 0.5; stroke: #1f77b4; stroke-opacity: 0.5"/>
     <use xlink:href="#m945e8cca76" x="49.565517" y="94.074847" style="fill: #1f77b4; fill-opacity: 0.5; stroke: #1f77b4; stroke-opacity: 0.5"/>
     <use xlink:href="#m945e8cca76" x="53.417541" y="112.793178" style="fill: #1f77b4; fill-opacity: 0.5; stroke: #1f77b4; stroke-opacity: 0.5"/>
     <use xlink:href="#m945e8cca76" x="88.420723" y="87.416992" style="fill: #1f77b4; fill-opacity: 0.5; stroke: #1f77b4; stroke-opacity: 0.5"/>
     <use xlink:href="#m945e8cca76" x="107.01093" y="62.553044" style="fill: #1f77b4; fill-opacity: 0.5; stroke: #1f77b4; stroke-opacity: 0.5"/>
     <use xlink:href="#m945e8cca76" x="54.422417" y="79.088087" style="fill: #1f77b4; fill-opacity: 0.5; stroke: #1f77b4; stroke-opacity: 0.5"/>
     <use xlink:href="#m945e8cca76" x="51.742748" y="103.617051" style="fill: #1f77b4; fill-opacity: 0.5; stroke: #1f77b4; stroke-opacity: 0.5"/>
     <use xlink:href="#m945e8cca76" x="51.575269" y="69.862695" style="fill: #1f77b4; fill-opacity: 0.5; stroke: #1f77b4; stroke-opacity: 0.5"/>
     <use xlink:href="#m945e8cca76" x="56.26469" y="71.55842" style="fill: #1f77b4; fill-opacity: 0.5; stroke: #1f77b4; stroke-opacity: 0.5"/>
     <use xlink:href="#m945e8cca76" x="58.609401" y="95.17107" style="fill: #1f77b4; fill-opacity: 0.5; stroke: #1f77b4; stroke-opacity: 0.5"/>
     <use xlink:href="#m945e8cca76" x="51.575269" y="93.821545" style="fill: #1f77b4; fill-opacity: 0.5; stroke: #1f77b4; stroke-opacity: 0.5"/>
     <use xlink:href="#m945e8cca76" x="55.092335" y="38.027104" style="fill: #1f77b4; fill-opacity: 0.5; stroke: #1f77b4; stroke-opacity: 0.5"/>
     <use xlink:href="#m945e8cca76" x="55.259814" y="103.823117" style="fill: #1f77b4; fill-opacity: 0.5; stroke: #1f77b4; stroke-opacity: 0.5"/>
     <use xlink:href="#m945e8cca76" x="48.895599" y="93.632384" style="fill: #1f77b4; fill-opacity: 0.5; stroke: #1f77b4; stroke-opacity: 0.5"/>
     <use xlink:href="#m945e8cca76" x="52.915103" y="86.07864" style="fill: #1f77b4; fill-opacity: 0.5; stroke: #1f77b4; stroke-opacity: 0.5"/>
     <use xlink:href="#m945e8cca76" x="53.250062" y="112.39223" style="fill: #1f77b4; fill-opacity: 0.5; stroke: #1f77b4; stroke-opacity: 0.5"/>
     <use xlink:href="#m945e8cca76" x="51.407789" y="28.696095" style="fill: #1f77b4; fill-opacity: 0.5; stroke: #1f77b4; stroke-opacity: 0.5"/>
     <use xlink:href="#m945e8cca76" x="53.585021" y="44.042598" style="fill: #1f77b4; fill-opacity: 0.5; stroke: #1f77b4; stroke-opacity: 0.5"/>
     <use xlink:href="#m945e8cca76" x="55.594773" y="85.619209" style="fill: #1f77b4; fill-opacity: 0.5; stroke: #1f77b4; stroke-opacity: 0.5"/>
     <use xlink:href="#m945e8cca76" x="50.905351" y="46.641636" style="fill: #1f77b4; fill-opacity: 0.5; stroke: #1f77b4; stroke-opacity: 0.5"/>
     <use xlink:href="#m945e8cca76" x="52.747624" y="87.311469" style="fill: #1f77b4; fill-opacity: 0.5; stroke: #1f77b4; stroke-opacity: 0.5"/>
     <use xlink:href="#m945e8cca76" x="54.087459" y="102.254354" style="fill: #1f77b4; fill-opacity: 0.5; stroke: #1f77b4; stroke-opacity: 0.5"/>
     <use xlink:href="#m945e8cca76" x="52.580145" y="111.334513" style="fill: #1f77b4; fill-opacity: 0.5; stroke: #1f77b4; stroke-opacity: 0.5"/>
     <use xlink:href="#m945e8cca76" x="53.585021" y="77.433856" style="fill: #1f77b4; fill-opacity: 0.5; stroke: #1f77b4; stroke-opacity: 0.5"/>
     <use xlink:href="#m945e8cca76" x="50.235434" y="104.077829" style="fill: #1f77b4; fill-opacity: 0.5; stroke: #1f77b4; stroke-opacity: 0.5"/>
     <use xlink:href="#m945e8cca76" x="52.915103" y="77.919124" style="fill: #1f77b4; fill-opacity: 0.5; stroke: #1f77b4; stroke-opacity: 0.5"/>
     <use xlink:href="#m945e8cca76" x="48.225682" y="93.585646" style="fill: #1f77b4; fill-opacity: 0.5; stroke: #1f77b4; stroke-opacity: 0.5"/>
     <use xlink:href="#m945e8cca76" x="53.7525" y="87.022062" style="fill: #1f77b4; fill-opacity: 0.5; stroke: #1f77b4; stroke-opacity: 0.5"/>
     <use xlink:href="#m945e8cca76" x="51.24031" y="96.457459" style="fill: #1f77b4; fill-opacity: 0.5; stroke: #1f77b4; stroke-opacity: 0.5"/>
     <use xlink:href="#m945e8cca76" x="51.407789" y="29.290591" style="fill: #1f77b4; fill-opacity: 0.5; stroke: #1f77b4; stroke-opacity: 0.5"/>
     <use xlink:href="#m945e8cca76" x="49.732996" y="104.069966" style="fill: #1f77b4; fill-opacity: 0.5; stroke: #1f77b4; stroke-opacity: 0.5"/>
     <use xlink:href="#m945e8cca76" x="52.915103" y="51.980333" style="fill: #1f77b4; fill-opacity: 0.5; stroke: #1f77b4; stroke-opacity: 0.5"/>
     <use xlink:href="#m945e8cca76" x="57.604525" y="85.167779" style="fill: #1f77b4; fill-opacity: 0.5; stroke: #1f77b4; stroke-opacity: 0.5"/>
     <use xlink:href="#m945e8cca76" x="54.254938" y="61.676008" style="fill: #1f77b4; fill-opacity: 0.5; stroke: #1f77b4; stroke-opacity: 0.5"/>
     <use xlink:href="#m945e8cca76" x="51.575269" y="53.355238" style="fill: #1f77b4; fill-opacity: 0.5; stroke: #1f77b4; stroke-opacity: 0.5"/>
     <use xlink:href="#m945e8cca76" x="52.915103" y="111.900983" style="fill: #1f77b4; fill-opacity: 0.5; stroke: #1f77b4; stroke-opacity: 0.5"/>
     <use xlink:href="#m945e8cca76" x="54.924855" y="111.327292" style="fill: #1f77b4; fill-opacity: 0.5; stroke: #1f77b4; stroke-opacity: 0.5"/>
     <use xlink:href="#m945e8cca76" x="52.747624" y="87.90298" style="fill: #1f77b4; fill-opacity: 0.5; stroke: #1f77b4; stroke-opacity: 0.5"/>
     <use xlink:href="#m945e8cca76" x="51.575269" y="104.037885" style="fill: #1f77b4; fill-opacity: 0.5; stroke: #1f77b4; stroke-opacity: 0.5"/>
     <use xlink:href="#m945e8cca76" x="52.580145" y="78.344442" style="fill: #1f77b4; fill-opacity: 0.5; stroke: #1f77b4; stroke-opacity: 0.5"/>
     <use xlink:href="#m945e8cca76" x="61.624029" y="94.614829" style="fill: #1f77b4; fill-opacity: 0.5; stroke: #1f77b4; stroke-opacity: 0.5"/>
     <use xlink:href="#m945e8cca76" x="50.235434" y="103.918945" style="fill: #1f77b4; fill-opacity: 0.5; stroke: #1f77b4; stroke-opacity: 0.5"/>
     <use xlink:href="#m945e8cca76" x="52.412665" y="112.067787" style="fill: #1f77b4; fill-opacity: 0.5; stroke: #1f77b4; stroke-opacity: 0.5"/>
     <use xlink:href="#m945e8cca76" x="53.250062" y="85.130064" style="fill: #1f77b4; fill-opacity: 0.5; stroke: #1f77b4; stroke-opacity: 0.5"/>
     <use xlink:href="#m945e8cca76" x="53.250062" y="52.831337" style="fill: #1f77b4; fill-opacity: 0.5; stroke: #1f77b4; stroke-opacity: 0.5"/>
     <use xlink:href="#m945e8cca76" x="50.905351" y="85.999054" style="fill: #1f77b4; fill-opacity: 0.5; stroke: #1f77b4; stroke-opacity: 0.5"/>
     <use xlink:href="#m945e8cca76" x="66.48093" y="86.706711" style="fill: #1f77b4; fill-opacity: 0.5; stroke: #1f77b4; stroke-opacity: 0.5"/>
     <use xlink:href="#m945e8cca76" x="53.585021" y="52.79737" style="fill: #1f77b4; fill-opacity: 0.5; stroke: #1f77b4; stroke-opacity: 0.5"/>
     <use xlink:href="#m945e8cca76" x="52.412665" y="95.827451" style="fill: #1f77b4; fill-opacity: 0.5; stroke: #1f77b4; stroke-opacity: 0.5"/>
     <use xlink:href="#m945e8cca76" x="50.402913" y="76.877818" style="fill: #1f77b4; fill-opacity: 0.5; stroke: #1f77b4; stroke-opacity: 0.5"/>
     <use xlink:href="#m945e8cca76" x="52.077707" y="96.465553" style="fill: #1f77b4; fill-opacity: 0.5; stroke: #1f77b4; stroke-opacity: 0.5"/>
     <use xlink:href="#m945e8cca76" x="52.412665" y="111.282919" style="fill: #1f77b4; fill-opacity: 0.5; stroke: #1f77b4; stroke-opacity: 0.5"/>
     <use xlink:href="#m945e8cca76" x="53.7525" y="111.445452" style="fill: #1f77b4; fill-opacity: 0.5; stroke: #1f77b4; stroke-opacity: 0.5"/>
     <use xlink:href="#m945e8cca76" x="53.919979" y="44.25315" style="fill: #1f77b4; fill-opacity: 0.5; stroke: #1f77b4; stroke-opacity: 0.5"/>
     <use xlink:href="#m945e8cca76" x="51.072831" y="85.864105" style="fill: #1f77b4; fill-opacity: 0.5; stroke: #1f77b4; stroke-opacity: 0.5"/>
     <use xlink:href="#m945e8cca76" x="55.594773" y="103.073064" style="fill: #1f77b4; fill-opacity: 0.5; stroke: #1f77b4; stroke-opacity: 0.5"/>
     <use xlink:href="#m945e8cca76" x="55.594773" y="35.614088" style="fill: #1f77b4; fill-opacity: 0.5; stroke: #1f77b4; stroke-opacity: 0.5"/>
     <use xlink:href="#m945e8cca76" x="55.594773" y="53.886188" style="fill: #1f77b4; fill-opacity: 0.5; stroke: #1f77b4; stroke-opacity: 0.5"/>
     <use xlink:href="#m945e8cca76" x="53.250062" y="37.202153" style="fill: #1f77b4; fill-opacity: 0.5; stroke: #1f77b4; stroke-opacity: 0.5"/>
     <use xlink:href="#m945e8cca76" x="59.949236" y="37.696202" style="fill: #1f77b4; fill-opacity: 0.5; stroke: #1f77b4; stroke-opacity: 0.5"/>
     <use xlink:href="#m945e8cca76" x="51.407789" y="94.626483" style="fill: #1f77b4; fill-opacity: 0.5; stroke: #1f77b4; stroke-opacity: 0.5"/>
     <use xlink:href="#m945e8cca76" x="139.669401" y="54.999648" style="fill: #1f77b4; fill-opacity: 0.5; stroke: #1f77b4; stroke-opacity: 0.5"/>
     <use xlink:href="#m945e8cca76" x="53.082583" y="71.336157" style="fill: #1f77b4; fill-opacity: 0.5; stroke: #1f77b4; stroke-opacity: 0.5"/>
     <use xlink:href="#m945e8cca76" x="51.24031" y="52.301261" style="fill: #1f77b4; fill-opacity: 0.5; stroke: #1f77b4; stroke-opacity: 0.5"/>
     <use xlink:href="#m945e8cca76" x="52.077707" y="110.393752" style="fill: #1f77b4; fill-opacity: 0.5; stroke: #1f77b4; stroke-opacity: 0.5"/>
     <use xlink:href="#m945e8cca76" x="64.136219" y="54.322308" style="fill: #1f77b4; fill-opacity: 0.5; stroke: #1f77b4; stroke-opacity: 0.5"/>
     <use xlink:href="#m945e8cca76" x="50.067955" y="85.872027" style="fill: #1f77b4; fill-opacity: 0.5; stroke: #1f77b4; stroke-opacity: 0.5"/>
     <use xlink:href="#m945e8cca76" x="49.565517" y="86.286341" style="fill: #1f77b4; fill-opacity: 0.5; stroke: #1f77b4; stroke-opacity: 0.5"/>
     <use xlink:href="#m945e8cca76" x="50.235434" y="95.719873" style="fill: #1f77b4; fill-opacity: 0.5; stroke: #1f77b4; stroke-opacity: 0.5"/>
     <use xlink:href="#m945e8cca76" x="51.24031" y="36.773369" style="fill: #1f77b4; fill-opacity: 0.5; stroke: #1f77b4; stroke-opacity: 0.5"/>
     <use xlink:href="#m945e8cca76" x="52.580145" y="36.607678" style="fill: #1f77b4; fill-opacity: 0.5; stroke: #1f77b4; stroke-opacity: 0.5"/>
     <use xlink:href="#m945e8cca76" x="52.915103" y="86.121516" style="fill: #1f77b4; fill-opacity: 0.5; stroke: #1f77b4; stroke-opacity: 0.5"/>
     <use xlink:href="#m945e8cca76" x="53.250062" y="111.63277" style="fill: #1f77b4; fill-opacity: 0.5; stroke: #1f77b4; stroke-opacity: 0.5"/>
     <use xlink:href="#m945e8cca76" x="136.487293" y="69.35737" style="fill: #1f77b4; fill-opacity: 0.5; stroke: #1f77b4; stroke-opacity: 0.5"/>
     <use xlink:href="#m945e8cca76" x="140.339318" y="52.385285" style="fill: #1f77b4; fill-opacity: 0.5; stroke: #1f77b4; stroke-opacity: 0.5"/>
     <use xlink:href="#m945e8cca76" x="67.988244" y="104.103879" style="fill: #1f77b4; fill-opacity: 0.5; stroke: #1f77b4; stroke-opacity: 0.5"/>
     <use xlink:href="#m945e8cca76" x="63.131343" y="86.941304" style="fill: #1f77b4; fill-opacity: 0.5; stroke: #1f77b4; stroke-opacity: 0.5"/>
     <use xlink:href="#m945e8cca76" x="65.811012" y="111.696791" style="fill: #1f77b4; fill-opacity: 0.5; stroke: #1f77b4; stroke-opacity: 0.5"/>
     <use xlink:href="#m945e8cca76" x="68.323202" y="62.045128" style="fill: #1f77b4; fill-opacity: 0.5; stroke: #1f77b4; stroke-opacity: 0.5"/>
     <use xlink:href="#m945e8cca76" x="68.323202" y="68.675266" style="fill: #1f77b4; fill-opacity: 0.5; stroke: #1f77b4; stroke-opacity: 0.5"/>
     <use xlink:href="#m945e8cca76" x="68.490682" y="76.932551" style="fill: #1f77b4; fill-opacity: 0.5; stroke: #1f77b4; stroke-opacity: 0.5"/>
     <use xlink:href="#m945e8cca76" x="67.150847" y="61.253506" style="fill: #1f77b4; fill-opacity: 0.5; stroke: #1f77b4; stroke-opacity: 0.5"/>
     <use xlink:href="#m945e8cca76" x="75.357335" y="95.557065" style="fill: #1f77b4; fill-opacity: 0.5; stroke: #1f77b4; stroke-opacity: 0.5"/>
     <use xlink:href="#m945e8cca76" x="67.988244" y="103.628858" style="fill: #1f77b4; fill-opacity: 0.5; stroke: #1f77b4; stroke-opacity: 0.5"/>
     <use xlink:href="#m945e8cca76" x="63.633781" y="77.120866" style="fill: #1f77b4; fill-opacity: 0.5; stroke: #1f77b4; stroke-opacity: 0.5"/>
     <use xlink:href="#m945e8cca76" x="65.308574" y="76.787347" style="fill: #1f77b4; fill-opacity: 0.5; stroke: #1f77b4; stroke-opacity: 0.5"/>
     <use xlink:href="#m945e8cca76" x="74.184979" y="63.290872" style="fill: #1f77b4; fill-opacity: 0.5; stroke: #1f77b4; stroke-opacity: 0.5"/>
     <use xlink:href="#m945e8cca76" x="69.663037" y="112.265615" style="fill: #1f77b4; fill-opacity: 0.5; stroke: #1f77b4; stroke-opacity: 0.5"/>
     <use xlink:href="#m945e8cca76" x="69.495558" y="71.109916" style="fill: #1f77b4; fill-opacity: 0.5; stroke: #1f77b4; stroke-opacity: 0.5"/>
     <use xlink:href="#m945e8cca76" x="68.155723" y="52.801679" style="fill: #1f77b4; fill-opacity: 0.5; stroke: #1f77b4; stroke-opacity: 0.5"/>
     <use xlink:href="#m945e8cca76" x="85.908533" y="53.147572" style="fill: #1f77b4; fill-opacity: 0.5; stroke: #1f77b4; stroke-opacity: 0.5"/>
     <use xlink:href="#m945e8cca76" x="98.469483" y="43.983286" style="fill: #1f77b4; fill-opacity: 0.5; stroke: #1f77b4; stroke-opacity: 0.5"/>
     <use xlink:href="#m945e8cca76" x="78.204483" y="68.896604" style="fill: #1f77b4; fill-opacity: 0.5; stroke: #1f77b4; stroke-opacity: 0.5"/>
    </g>
   </g>
   <g id="FillBetweenPolyCollection_1">
    <defs>
     <path id="mf8f01627e8" d="M 48.225682 -86.400815 
L 48.225682 -75.5444 
L 49.156123 -75.968765 
L 50.086563 -76.2585 
L 51.017004 -76.607808 
L 51.947445 -76.921818 
L 52.877886 -77.245785 
L 53.808326 -77.619266 
L 54.738767 -77.996234 
L 55.669208 -78.268212 
L 56.599649 -78.597029 
L 57.53009 -78.970091 
L 58.46053 -79.233393 
L 59.390971 -79.483009 
L 60.321412 -79.734641 
L 61.251853 -80.021176 
L 62.182293 -80.290727 
L 63.112734 -80.56403 
L 64.043175 -80.822479 
L 64.973616 -81.035668 
L 65.904056 -81.245695 
L 66.834497 -81.524289 
L 67.764938 -81.806226 
L 68.695379 -81.987465 
L 69.62582 -82.210019 
L 70.55626 -82.34754 
L 71.486701 -82.579954 
L 72.417142 -82.82065 
L 73.347583 -83.034393 
L 74.278023 -83.114198 
L 75.208464 -83.194078 
L 76.138905 -83.23932 
L 77.069346 -83.384546 
L 77.999787 -83.556338 
L 78.930227 -83.638089 
L 79.860668 -83.775056 
L 80.791109 -83.831675 
L 81.72155 -84.0394 
L 82.65199 -84.269066 
L 83.582431 -84.49733 
L 84.512872 -84.588787 
L 85.443313 -84.642829 
L 86.373753 -84.837146 
L 87.304194 -84.955458 
L 88.234635 -85.044445 
L 89.165076 -85.133432 
L 90.095517 -85.151327 
L 91.025957 -85.15407 
L 91.956398 -85.205524 
L 92.886839 -85.378966 
L 93.81728 -85.438052 
L 94.74772 -85.520667 
L 95.678161 -85.554859 
L 96.608602 -85.589605 
L 97.539043 -85.626855 
L 98.469483 -85.745123 
L 99.399924 -85.873431 
L 100.330365 -86.003585 
L 101.260806 -86.133738 
L 102.191247 -86.263892 
L 103.121687 -86.352261 
L 104.052128 -86.372545 
L 104.982569 -86.487254 
L 105.91301 -86.61327 
L 106.84345 -86.739286 
L 107.773891 -86.865301 
L 108.704332 -86.992406 
L 109.634773 -87.120639 
L 110.565213 -87.217502 
L 111.495654 -87.308834 
L 112.426095 -87.400166 
L 113.356536 -87.491499 
L 114.286977 -87.532943 
L 115.217417 -87.556695 
L 116.147858 -87.580447 
L 117.078299 -87.604199 
L 118.00874 -87.627951 
L 118.93918 -87.671779 
L 119.869621 -87.775882 
L 120.800062 -87.879985 
L 121.730503 -87.939905 
L 122.660944 -87.974637 
L 123.591384 -88.009369 
L 124.521825 -88.044101 
L 125.452266 -88.078833 
L 126.382707 -88.113565 
L 127.313147 -88.148297 
L 128.243588 -88.183332 
L 129.174029 -88.219523 
L 130.10447 -88.255714 
L 131.03491 -88.291905 
L 131.965351 -88.328096 
L 132.895792 -88.364288 
L 133.826233 -88.400479 
L 134.756674 -88.439572 
L 135.687114 -88.518445 
L 136.617555 -88.597319 
L 137.547996 -88.676193 
L 138.478437 -88.755067 
L 139.408877 -88.83394 
L 140.339318 -88.892656 
L 140.339318 -116.866109 
L 140.339318 -116.866109 
L 139.408877 -116.506297 
L 138.478437 -116.146485 
L 137.547996 -115.764455 
L 136.617555 -115.3785 
L 135.687114 -114.992545 
L 134.756674 -114.60659 
L 133.826233 -114.220636 
L 132.895792 -113.834681 
L 131.965351 -113.475761 
L 131.03491 -113.141235 
L 130.10447 -112.806096 
L 129.174029 -112.470786 
L 128.243588 -112.108797 
L 127.313147 -111.675516 
L 126.382707 -111.240082 
L 125.452266 -110.80449 
L 124.521825 -110.368897 
L 123.591384 -109.965675 
L 122.660944 -109.578058 
L 121.730503 -109.191063 
L 120.800062 -108.804859 
L 119.869621 -108.418655 
L 118.93918 -108.03245 
L 118.00874 -107.644841 
L 117.078299 -107.228455 
L 116.147858 -106.79426 
L 115.217417 -106.360066 
L 114.286977 -105.925871 
L 113.356536 -105.494841 
L 112.426095 -105.117077 
L 111.495654 -104.739314 
L 110.565213 -104.364257 
L 109.634773 -103.985801 
L 108.704332 -103.610552 
L 107.773891 -103.235304 
L 106.84345 -102.897941 
L 105.91301 -102.579236 
L 104.982569 -102.232121 
L 104.052128 -101.865026 
L 103.121687 -101.491865 
L 102.191247 -101.085577 
L 101.260806 -100.72173 
L 100.330365 -100.394369 
L 99.399924 -100.005816 
L 98.469483 -99.617264 
L 97.539043 -99.320765 
L 96.608602 -99.043442 
L 95.678161 -98.766047 
L 94.74772 -98.487856 
L 93.81728 -98.123783 
L 92.886839 -97.755506 
L 91.956398 -97.440726 
L 91.025957 -97.132834 
L 90.095517 -96.804502 
L 89.165076 -96.505561 
L 88.234635 -96.152297 
L 87.304194 -95.81694 
L 86.373753 -95.481582 
L 85.443313 -95.144253 
L 84.512872 -94.781307 
L 83.582431 -94.383469 
L 82.65199 -94.135019 
L 81.72155 -93.799195 
L 80.791109 -93.529996 
L 79.860668 -93.13393 
L 78.930227 -92.792762 
L 77.999787 -92.474852 
L 77.069346 -92.203385 
L 76.138905 -91.941411 
L 75.208464 -91.62057 
L 74.278023 -91.349156 
L 73.347583 -91.053927 
L 72.417142 -90.779637 
L 71.486701 -90.574006 
L 70.55626 -90.380254 
L 69.62582 -90.156685 
L 68.695379 -89.900169 
L 67.764938 -89.665465 
L 66.834497 -89.511859 
L 65.904056 -89.26023 
L 64.973616 -89.045799 
L 64.043175 -88.986065 
L 63.112734 -88.707588 
L 62.182293 -88.512009 
L 61.251853 -88.386872 
L 60.321412 -88.258945 
L 59.390971 -88.058254 
L 58.46053 -87.864814 
L 57.53009 -87.681761 
L 56.599649 -87.555843 
L 55.669208 -87.430445 
L 54.738767 -87.267633 
L 53.808326 -87.178587 
L 52.877886 -87.116664 
L 51.947445 -86.982955 
L 51.017004 -86.802976 
L 50.086563 -86.675138 
L 49.156123 -86.493506 
L 48.225682 -86.400815 
z
" style="stroke: #ffffff; stroke-opacity: 0.15; stroke-width: 0.8"/>
    </defs>
    <g clip-path="url(#pf7496851b6)">
     <use xlink:href="#mf8f01627e8" x="0" y="162" style="fill: #1f77b4; fill-opacity: 0.15; stroke: #ffffff; stroke-opacity: 0.15; stroke-width: 0.8"/>
    </g>
   </g>
   <g id="line2d_16">
    <path d="M 48.225682 81.038015 
L 49.156123 80.806227 
L 50.086563 80.574439 
L 51.017004 80.342651 
L 51.947445 80.110863 
L 52.877886 79.879075 
L 53.808326 79.647287 
L 54.738767 79.415499 
L 55.669208 79.183711 
L 56.599649 78.951923 
L 57.53009 78.720135 
L 58.46053 78.488347 
L 59.390971 78.256559 
L 60.321412 78.024771 
L 61.251853 77.792983 
L 62.182293 77.561195 
L 63.112734 77.329407 
L 64.043175 77.097619 
L 64.973616 76.865831 
L 65.904056 76.634043 
L 66.834497 76.402255 
L 67.764938 76.170467 
L 68.695379 75.938679 
L 69.62582 75.706891 
L 70.55626 75.475103 
L 71.486701 75.243315 
L 72.417142 75.011527 
L 73.347583 74.779739 
L 74.278023 74.547951 
L 75.208464 74.316163 
L 76.138905 74.084375 
L 77.069346 73.852587 
L 77.999787 73.620799 
L 78.930227 73.389011 
L 79.860668 73.157223 
L 80.791109 72.925435 
L 81.72155 72.693647 
L 82.65199 72.461859 
L 83.582431 72.230071 
L 84.512872 71.998283 
L 85.443313 71.766495 
L 86.373753 71.534707 
L 87.304194 71.302919 
L 88.234635 71.071131 
L 89.165076 70.839343 
L 90.095517 70.607555 
L 91.025957 70.375767 
L 91.956398 70.143979 
L 92.886839 69.912191 
L 93.81728 69.680403 
L 94.74772 69.448615 
L 95.678161 69.216827 
L 96.608602 68.985039 
L 97.539043 68.753251 
L 98.469483 68.521464 
L 99.399924 68.289676 
L 100.330365 68.057888 
L 101.260806 67.8261 
L 102.191247 67.594312 
L 103.121687 67.362524 
L 104.052128 67.130736 
L 104.982569 66.898948 
L 105.91301 66.66716 
L 106.84345 66.435372 
L 107.773891 66.203584 
L 108.704332 65.971796 
L 109.634773 65.740008 
L 110.565213 65.50822 
L 111.495654 65.276432 
L 112.426095 65.044644 
L 113.356536 64.812856 
L 114.286977 64.581068 
L 115.217417 64.34928 
L 116.147858 64.117492 
L 117.078299 63.885704 
L 118.00874 63.653916 
L 118.93918 63.422128 
L 119.869621 63.19034 
L 120.800062 62.958552 
L 121.730503 62.726764 
L 122.660944 62.494976 
L 123.591384 62.263188 
L 124.521825 62.0314 
L 125.452266 61.799612 
L 126.382707 61.567824 
L 127.313147 61.336036 
L 128.243588 61.104248 
L 129.174029 60.87246 
L 130.10447 60.640672 
L 131.03491 60.408884 
L 131.965351 60.177096 
L 132.895792 59.945308 
L 133.826233 59.71352 
L 134.756674 59.481732 
L 135.687114 59.249944 
L 136.617555 59.018156 
L 137.547996 58.786368 
L 138.478437 58.55458 
L 139.408877 58.322792 
L 140.339318 58.091004 
" clip-path="url(#pf7496851b6)" style="fill: none; stroke: #1f77b4; stroke-width: 1.8; stroke-linecap: round"/>
   </g>
   <g id="patch_3">
    <path d="M 43.62 120.163125 
L 43.62 24.21375 
" style="fill: none; stroke: #cccccc; stroke-linejoin: miter; stroke-linecap: square"/>
   </g>
   <g id="patch_4">
    <path d="M 144.945 120.163125 
L 144.945 24.21375 
" style="fill: none; stroke: #cccccc; stroke-linejoin: miter; stroke-linecap: square"/>
   </g>
   <g id="patch_5">
    <path d="M 43.62 120.163125 
L 144.945 120.163125 
" style="fill: none; stroke: #cccccc; stroke-linejoin: miter; stroke-linecap: square"/>
   </g>
   <g id="patch_6">
    <path d="M 43.62 24.21375 
L 144.945 24.21375 
" style="fill: none; stroke: #cccccc; stroke-linejoin: miter; stroke-linecap: square"/>
   </g>
   <g id="text_18">
    <!-- rho = 0.09 -->
    <g style="fill: #262626" transform="translate(104.415 36.184656) scale(0.1 -0.1)">
     <defs>
      <path id="Helvetica-6f" d="M 1741 363 
Q 2300 363 2508 786 
Q 2716 1209 2716 1728 
Q 2716 2197 2566 2491 
Q 2328 2953 1747 2953 
Q 1231 2953 997 2559 
Q 763 2166 763 1609 
Q 763 1075 997 719 
Q 1231 363 1741 363 
z
M 1763 3444 
Q 2409 3444 2856 3012 
Q 3303 2581 3303 1744 
Q 3303 934 2909 406 
Q 2516 -122 1688 -122 
Q 997 -122 590 345 
Q 184 813 184 1600 
Q 184 2444 612 2944 
Q 1041 3444 1763 3444 
z
M 1744 3428 
L 1744 3428 
z
" transform="scale(0.015625)"/>
      <path id="Helvetica-3d" d="M 3547 2569 
L 3547 2044 
L 288 2044 
L 288 2569 
L 3547 2569 
z
M 3547 1228 
L 3547 694 
L 288 694 
L 288 1228 
L 3547 1228 
z
" transform="scale(0.015625)"/>
      <path id="Helvetica-2e" d="M 547 681 
L 1200 681 
L 1200 0 
L 547 0 
L 547 681 
z
" transform="scale(0.015625)"/>
     </defs>
     <use xlink:href="#Helvetica-72"/>
     <use xlink:href="#Helvetica-68" transform="translate(33.300781 0)"/>
     <use xlink:href="#Helvetica-6f" transform="translate(88.916016 0)"/>
     <use xlink:href="#Helvetica-20" transform="translate(144.53125 0)"/>
     <use xlink:href="#Helvetica-3d" transform="translate(172.314453 0)"/>
     <use xlink:href="#Helvetica-20" transform="translate(230.712891 0)"/>
     <use xlink:href="#Helvetica-30" transform="translate(258.496094 0)"/>
     <use xlink:href="#Helvetica-2e" transform="translate(314.111328 0)"/>
     <use xlink:href="#Helvetica-30" transform="translate(341.894531 0)"/>
     <use xlink:href="#Helvetica-39" transform="translate(397.509766 0)"/>
    </g>
    <!-- p = 3.12e-01 -->
    <g style="fill: #262626" transform="translate(104.415 46.877156) scale(0.1 -0.1)">
     <defs>
      <path id="Helvetica-70" d="M 1825 378 
Q 2219 378 2480 708 
Q 2741 1038 2741 1694 
Q 2741 2094 2625 2381 
Q 2406 2934 1825 2934 
Q 1241 2934 1025 2350 
Q 909 2038 909 1556 
Q 909 1169 1025 897 
Q 1244 378 1825 378 
z
M 369 3331 
L 916 3331 
L 916 2888 
Q 1084 3116 1284 3241 
Q 1569 3428 1953 3428 
Q 2522 3428 2919 2992 
Q 3316 2556 3316 1747 
Q 3316 653 2744 184 
Q 2381 -113 1900 -113 
Q 1522 -113 1266 53 
Q 1116 147 931 375 
L 931 -1334 
L 369 -1334 
L 369 3331 
z
" transform="scale(0.015625)"/>
     </defs>
     <use xlink:href="#Helvetica-70"/>
     <use xlink:href="#Helvetica-20" transform="translate(55.615234 0)"/>
     <use xlink:href="#Helvetica-3d" transform="translate(83.398438 0)"/>
     <use xlink:href="#Helvetica-20" transform="translate(141.796875 0)"/>
     <use xlink:href="#Helvetica-33" transform="translate(169.580078 0)"/>
     <use xlink:href="#Helvetica-2e" transform="translate(225.195312 0)"/>
     <use xlink:href="#Helvetica-31" transform="translate(252.978516 0)"/>
     <use xlink:href="#Helvetica-32" transform="translate(308.59375 0)"/>
     <use xlink:href="#Helvetica-65" transform="translate(364.208984 0)"/>
     <use xlink:href="#Helvetica-2d" transform="translate(419.824219 0)"/>
     <use xlink:href="#Helvetica-30" transform="translate(453.125 0)"/>
     <use xlink:href="#Helvetica-31" transform="translate(508.740234 0)"/>
    </g>
   </g>
   <g id="text_19">
    <!-- AF3 (no templates) DeepRank-GNN-esm vs N-term length -->
    <g style="fill: #262626" transform="translate(-35.194844 18.21375) scale(0.1 -0.1)">
     <defs>
      <path id="Helvetica-41" d="M 2844 1881 
L 2147 3909 
L 1406 1881 
L 2844 1881 
z
M 1822 4591 
L 2525 4591 
L 4191 0 
L 3509 0 
L 3044 1375 
L 1228 1375 
L 731 0 
L 94 0 
L 1822 4591 
z
" transform="scale(0.015625)"/>
      <path id="Helvetica-46" d="M 547 4591 
L 3731 4591 
L 3731 4028 
L 1169 4028 
L 1169 2634 
L 3422 2634 
L 3422 2088 
L 1169 2088 
L 1169 0 
L 547 0 
L 547 4591 
z
" transform="scale(0.015625)"/>
      <path id="Helvetica-28" d="M 1894 4666 
Q 1403 3713 1256 3263 
Q 1034 2578 1034 1681 
Q 1034 775 1288 25 
Q 1444 -438 1903 -1306 
L 1525 -1306 
Q 1069 -594 959 -397 
Q 850 -200 722 138 
Q 547 600 478 1125 
Q 444 1397 444 1644 
Q 444 2569 734 3291 
Q 919 3750 1503 4666 
L 1894 4666 
z
" transform="scale(0.015625)"/>
      <path id="Helvetica-73" d="M 747 1050 
Q 772 769 888 619 
Q 1100 347 1625 347 
Q 1938 347 2175 483 
Q 2413 619 2413 903 
Q 2413 1119 2222 1231 
Q 2100 1300 1741 1391 
L 1294 1503 
Q 866 1609 663 1741 
Q 300 1969 300 2372 
Q 300 2847 642 3140 
Q 984 3434 1563 3434 
Q 2319 3434 2653 2991 
Q 2863 2709 2856 2384 
L 2325 2384 
Q 2309 2575 2191 2731 
Q 1997 2953 1519 2953 
Q 1200 2953 1036 2831 
Q 872 2709 872 2509 
Q 872 2291 1088 2159 
Q 1213 2081 1456 2022 
L 1828 1931 
Q 2434 1784 2641 1647 
Q 2969 1431 2969 969 
Q 2969 522 2630 197 
Q 2291 -128 1597 -128 
Q 850 -128 539 211 
Q 228 550 206 1050 
L 747 1050 
z
M 1578 3428 
L 1578 3428 
z
" transform="scale(0.015625)"/>
      <path id="Helvetica-29" d="M 222 -1306 
Q 719 -338 863 106 
Q 1081 778 1081 1681 
Q 1081 2584 828 3334 
Q 672 3797 213 4666 
L 591 4666 
Q 1072 3897 1173 3717 
Q 1275 3538 1394 3222 
Q 1544 2831 1608 2450 
Q 1672 2069 1672 1716 
Q 1672 791 1378 66 
Q 1194 -400 613 -1306 
L 222 -1306 
z
" transform="scale(0.015625)"/>
      <path id="Helvetica-44" d="M 2250 531 
Q 2566 531 2769 597 
Q 3131 719 3363 1066 
Q 3547 1344 3628 1778 
Q 3675 2038 3675 2259 
Q 3675 3113 3336 3584 
Q 2997 4056 2244 4056 
L 1141 4056 
L 1141 531 
L 2250 531 
z
M 516 4591 
L 2375 4591 
Q 3322 4591 3844 3919 
Q 4309 3313 4309 2366 
Q 4309 1634 4034 1044 
Q 3550 0 2369 0 
L 516 0 
L 516 4591 
z
" transform="scale(0.015625)"/>
      <path id="Helvetica-47" d="M 2472 4709 
Q 3119 4709 3591 4459 
Q 4275 4100 4428 3200 
L 3813 3200 
Q 3700 3703 3347 3933 
Q 2994 4163 2456 4163 
Q 1819 4163 1383 3684 
Q 947 3206 947 2259 
Q 947 1441 1306 927 
Q 1666 413 2478 413 
Q 3100 413 3508 773 
Q 3916 1134 3925 1941 
L 2488 1941 
L 2488 2456 
L 4503 2456 
L 4503 0 
L 4103 0 
L 3953 591 
Q 3638 244 3394 109 
Q 2984 -122 2353 -122 
Q 1538 -122 950 406 
Q 309 1069 309 2225 
Q 309 3378 934 4059 
Q 1528 4709 2472 4709 
z
M 2369 4716 
L 2369 4716 
z
" transform="scale(0.015625)"/>
      <path id="Helvetica-76" d="M 688 3347 
L 1581 622 
L 2516 3347 
L 3131 3347 
L 1869 0 
L 1269 0 
L 34 3347 
L 688 3347 
z
" transform="scale(0.015625)"/>
     </defs>
     <use xlink:href="#Helvetica-41"/>
     <use xlink:href="#Helvetica-46" transform="translate(66.699219 0)"/>
     <use xlink:href="#Helvetica-33" transform="translate(127.783203 0)"/>
     <use xlink:href="#Helvetica-20" transform="translate(183.398438 0)"/>
     <use xlink:href="#Helvetica-28" transform="translate(211.181641 0)"/>
     <use xlink:href="#Helvetica-6e" transform="translate(244.482422 0)"/>
     <use xlink:href="#Helvetica-6f" transform="translate(300.097656 0)"/>
     <use xlink:href="#Helvetica-20" transform="translate(355.712891 0)"/>
     <use xlink:href="#Helvetica-74" transform="translate(383.496094 0)"/>
     <use xlink:href="#Helvetica-65" transform="translate(411.279297 0)"/>
     <use xlink:href="#Helvetica-6d" transform="translate(466.894531 0)"/>
     <use xlink:href="#Helvetica-70" transform="translate(550.195312 0)"/>
     <use xlink:href="#Helvetica-6c" transform="translate(605.810547 0)"/>
     <use xlink:href="#Helvetica-61" transform="translate(628.027344 0)"/>
     <use xlink:href="#Helvetica-74" transform="translate(683.642578 0)"/>
     <use xlink:href="#Helvetica-65" transform="translate(711.425781 0)"/>
     <use xlink:href="#Helvetica-73" transform="translate(767.041016 0)"/>
     <use xlink:href="#Helvetica-29" transform="translate(817.041016 0)"/>
     <use xlink:href="#Helvetica-20" transform="translate(850.341797 0)"/>
     <use xlink:href="#Helvetica-44" transform="translate(878.125 0)"/>
     <use xlink:href="#Helvetica-65" transform="translate(950.341797 0)"/>
     <use xlink:href="#Helvetica-65" transform="translate(1005.957031 0)"/>
     <use xlink:href="#Helvetica-70" transform="translate(1061.572266 0)"/>
     <use xlink:href="#Helvetica-52" transform="translate(1117.1875 0)"/>
     <use xlink:href="#Helvetica-61" transform="translate(1189.404297 0)"/>
     <use xlink:href="#Helvetica-6e" transform="translate(1245.019531 0)"/>
     <use xlink:href="#Helvetica-6b" transform="translate(1300.634766 0)"/>
     <use xlink:href="#Helvetica-2d" transform="translate(1350.634766 0)"/>
     <use xlink:href="#Helvetica-47" transform="translate(1383.935547 0)"/>
     <use xlink:href="#Helvetica-4e" transform="translate(1461.71875 0)"/>
     <use xlink:href="#Helvetica-4e" transform="translate(1533.935547 0)"/>
     <use xlink:href="#Helvetica-2d" transform="translate(1606.152344 0)"/>
     <use xlink:href="#Helvetica-65" transform="translate(1639.453125 0)"/>
     <use xlink:href="#Helvetica-73" transform="translate(1695.068359 0)"/>
     <use xlink:href="#Helvetica-6d" transform="translate(1745.068359 0)"/>
     <use xlink:href="#Helvetica-20" transform="translate(1828.369141 0)"/>
     <use xlink:href="#Helvetica-76" transform="translate(1856.152344 0)"/>
     <use xlink:href="#Helvetica-73" transform="translate(1906.152344 0)"/>
     <use xlink:href="#Helvetica-20" transform="translate(1956.152344 0)"/>
     <use xlink:href="#Helvetica-4e" transform="translate(1983.935547 0)"/>
     <use xlink:href="#Helvetica-2d" transform="translate(2056.152344 0)"/>
     <use xlink:href="#Helvetica-74" transform="translate(2089.453125 0)"/>
     <use xlink:href="#Helvetica-65" transform="translate(2117.236328 0)"/>
     <use xlink:href="#Helvetica-72" transform="translate(2172.851562 0)"/>
     <use xlink:href="#Helvetica-6d" transform="translate(2206.152344 0)"/>
     <use xlink:href="#Helvetica-20" transform="translate(2289.453125 0)"/>
     <use xlink:href="#Helvetica-6c" transform="translate(2317.236328 0)"/>
     <use xlink:href="#Helvetica-65" transform="translate(2339.453125 0)"/>
     <use xlink:href="#Helvetica-6e" transform="translate(2395.068359 0)"/>
     <use xlink:href="#Helvetica-67" transform="translate(2450.683594 0)"/>
     <use xlink:href="#Helvetica-74" transform="translate(2506.298828 0)"/>
     <use xlink:href="#Helvetica-68" transform="translate(2534.082031 0)"/>
    </g>
   </g>
  </g>
 </g>
 <defs>
  <clipPath id="pf7496851b6">
   <rect x="43.62" y="24.21375" width="101.325" height="95.949375"/>
  </clipPath>
 </defs>
</svg>
