<?xml version="1.0" encoding="utf-8" standalone="no"?>
<!DOCTYPE svg PUBLIC "-//W3C//DTD SVG 1.1//EN"
  "http://www.w3.org/Graphics/SVG/1.1/DTD/svg11.dtd">
<svg xmlns:xlink="http://www.w3.org/1999/xlink" width="162pt" height="162pt" viewBox="0 0 162 162" xmlns="http://www.w3.org/2000/svg" version="1.1">
 <metadata>
  <rdf:RDF xmlns:dc="http://purl.org/dc/elements/1.1/" xmlns:cc="http://creativecommons.org/ns#" xmlns:rdf="http://www.w3.org/1999/02/22-rdf-syntax-ns#">
   <cc:Work>
    <dc:type rdf:resource="http://purl.org/dc/dcmitype/StillImage"/>
    <dc:date>2025-03-07T14:31:14.905615</dc:date>
    <dc:format>image/svg+xml</dc:format>
    <dc:creator>
     <cc:Agent>
      <dc:title>Matplotlib v3.10.0, https://matplotlib.org/</dc:title>
     </cc:Agent>
    </dc:creator>
   </cc:Work>
  </rdf:RDF>
 </metadata>
 <defs>
  <style type="text/css">*{stroke-linejoin: round; stroke-linecap: butt}</style>
 </defs>
 <g id="figure_1">
  <g id="patch_1">
   <path d="M 0 162 
L 162 162 
L 162 0 
L 0 0 
z
" style="fill: #ffffff"/>
  </g>
  <g id="axes_1">
   <g id="patch_2">
    <path d="M 43.62 120.18 
L 144.99 120.18 
L 144.99 24 
L 43.62 24 
z
" style="fill: #ffffff"/>
   </g>
   <g id="matplotlib.axis_1">
    <g id="xtick_1">
     <g id="line2d_1">
      <path d="M 47.228762 120.18 
L 47.228762 24 
" clip-path="url(#p6f1566d6d3)" style="fill: none; stroke: #cccccc; stroke-width: 0.8; stroke-linecap: round"/>
     </g>
     <g id="text_1">
      <!-- 0 -->
      <g style="fill: #262626" transform="translate(44.448293 135.653437) scale(0.1 -0.1)">
       <defs>
        <path id="Helvetica-30" d="M 1731 4475 
Q 2600 4475 2988 3759 
Q 3288 3206 3288 2244 
Q 3288 1331 3016 734 
Q 2622 -122 1728 -122 
Q 922 -122 528 578 
Q 200 1163 200 2147 
Q 200 2909 397 3456 
Q 766 4475 1731 4475 
z
M 1725 391 
Q 2163 391 2422 778 
Q 2681 1166 2681 2222 
Q 2681 2984 2493 3476 
Q 2306 3969 1766 3969 
Q 1269 3969 1039 3501 
Q 809 3034 809 2125 
Q 809 1441 956 1025 
Q 1181 391 1725 391 
z
" transform="scale(0.015625)"/>
       </defs>
       <use xlink:href="#Helvetica-30"/>
      </g>
     </g>
    </g>
    <g id="xtick_2">
     <g id="line2d_2">
      <path d="M 97.177025 120.18 
L 97.177025 24 
" clip-path="url(#p6f1566d6d3)" style="fill: none; stroke: #cccccc; stroke-width: 0.8; stroke-linecap: round"/>
     </g>
     <g id="text_2">
      <!-- 200 -->
      <g style="fill: #262626" transform="translate(88.835619 135.653437) scale(0.1 -0.1)">
       <defs>
        <path id="Helvetica-32" d="M 200 0 
Q 231 578 439 1006 
Q 647 1434 1250 1784 
L 1850 2131 
Q 2253 2366 2416 2531 
Q 2672 2791 2672 3125 
Q 2672 3516 2437 3745 
Q 2203 3975 1813 3975 
Q 1234 3975 1013 3538 
Q 894 3303 881 2888 
L 309 2888 
Q 319 3472 525 3841 
Q 891 4491 1816 4491 
Q 2584 4491 2939 4075 
Q 3294 3659 3294 3150 
Q 3294 2613 2916 2231 
Q 2697 2009 2131 1694 
L 1703 1456 
Q 1397 1288 1222 1134 
Q 909 863 828 531 
L 3272 531 
L 3272 0 
L 200 0 
z
" transform="scale(0.015625)"/>
       </defs>
       <use xlink:href="#Helvetica-32"/>
       <use xlink:href="#Helvetica-30" transform="translate(55.615234 0)"/>
       <use xlink:href="#Helvetica-30" transform="translate(111.230469 0)"/>
      </g>
     </g>
    </g>
    <g id="text_3">
     <!-- agonist length -->
     <g style="fill: #262626" transform="translate(63.172188 148.934687) scale(0.1 -0.1)">
      <defs>
       <path id="Helvetica-61" d="M 844 891 
Q 844 647 1022 506 
Q 1200 366 1444 366 
Q 1741 366 2019 503 
Q 2488 731 2488 1250 
L 2488 1703 
Q 2384 1638 2221 1594 
Q 2059 1550 1903 1531 
L 1563 1488 
Q 1256 1447 1103 1359 
Q 844 1213 844 891 
z
M 2206 2028 
Q 2400 2053 2466 2191 
Q 2503 2266 2503 2406 
Q 2503 2694 2298 2823 
Q 2094 2953 1713 2953 
Q 1272 2953 1088 2716 
Q 984 2584 953 2325 
L 428 2325 
Q 444 2944 830 3186 
Q 1216 3428 1725 3428 
Q 2316 3428 2684 3203 
Q 3050 2978 3050 2503 
L 3050 575 
Q 3050 488 3086 434 
Q 3122 381 3238 381 
Q 3275 381 3322 386 
Q 3369 391 3422 400 
L 3422 -16 
Q 3291 -53 3222 -62 
Q 3153 -72 3034 -72 
Q 2744 -72 2613 134 
Q 2544 244 2516 444 
Q 2344 219 2022 53 
Q 1700 -113 1313 -113 
Q 847 -113 551 170 
Q 256 453 256 878 
Q 256 1344 547 1600 
Q 838 1856 1309 1916 
L 2206 2028 
z
M 1741 3428 
L 1741 3428 
z
" transform="scale(0.015625)"/>
       <path id="Helvetica-67" d="M 1594 3406 
Q 1988 3406 2281 3213 
Q 2441 3103 2606 2894 
L 2606 3316 
L 3125 3316 
L 3125 272 
Q 3125 -366 2938 -734 
Q 2588 -1416 1616 -1416 
Q 1075 -1416 706 -1173 
Q 338 -931 294 -416 
L 866 -416 
Q 906 -641 1028 -763 
Q 1219 -950 1628 -950 
Q 2275 -950 2475 -494 
Q 2594 -225 2584 466 
Q 2416 209 2178 84 
Q 1941 -41 1550 -41 
Q 1006 -41 598 345 
Q 191 731 191 1622 
Q 191 2463 602 2934 
Q 1013 3406 1594 3406 
z
M 2606 1688 
Q 2606 2309 2350 2609 
Q 2094 2909 1697 2909 
Q 1103 2909 884 2353 
Q 769 2056 769 1575 
Q 769 1009 998 714 
Q 1228 419 1616 419 
Q 2222 419 2469 966 
Q 2606 1275 2606 1688 
z
M 1659 3428 
L 1659 3428 
z
" transform="scale(0.015625)"/>
       <path id="Helvetica-6f" d="M 1741 363 
Q 2300 363 2508 786 
Q 2716 1209 2716 1728 
Q 2716 2197 2566 2491 
Q 2328 2953 1747 2953 
Q 1231 2953 997 2559 
Q 763 2166 763 1609 
Q 763 1075 997 719 
Q 1231 363 1741 363 
z
M 1763 3444 
Q 2409 3444 2856 3012 
Q 3303 2581 3303 1744 
Q 3303 934 2909 406 
Q 2516 -122 1688 -122 
Q 997 -122 590 345 
Q 184 813 184 1600 
Q 184 2444 612 2944 
Q 1041 3444 1763 3444 
z
M 1744 3428 
L 1744 3428 
z
" transform="scale(0.015625)"/>
       <path id="Helvetica-6e" d="M 413 3347 
L 947 3347 
L 947 2872 
Q 1184 3166 1450 3294 
Q 1716 3422 2041 3422 
Q 2753 3422 3003 2925 
Q 3141 2653 3141 2147 
L 3141 0 
L 2569 0 
L 2569 2109 
Q 2569 2416 2478 2603 
Q 2328 2916 1934 2916 
Q 1734 2916 1606 2875 
Q 1375 2806 1200 2600 
Q 1059 2434 1017 2257 
Q 975 2081 975 1753 
L 975 0 
L 413 0 
L 413 3347 
z
M 1734 3428 
L 1734 3428 
z
" transform="scale(0.015625)"/>
       <path id="Helvetica-69" d="M 413 3331 
L 984 3331 
L 984 0 
L 413 0 
L 413 3331 
z
M 413 4591 
L 984 4591 
L 984 3953 
L 413 3953 
L 413 4591 
z
" transform="scale(0.015625)"/>
       <path id="Helvetica-73" d="M 747 1050 
Q 772 769 888 619 
Q 1100 347 1625 347 
Q 1938 347 2175 483 
Q 2413 619 2413 903 
Q 2413 1119 2222 1231 
Q 2100 1300 1741 1391 
L 1294 1503 
Q 866 1609 663 1741 
Q 300 1969 300 2372 
Q 300 2847 642 3140 
Q 984 3434 1563 3434 
Q 2319 3434 2653 2991 
Q 2863 2709 2856 2384 
L 2325 2384 
Q 2309 2575 2191 2731 
Q 1997 2953 1519 2953 
Q 1200 2953 1036 2831 
Q 872 2709 872 2509 
Q 872 2291 1088 2159 
Q 1213 2081 1456 2022 
L 1828 1931 
Q 2434 1784 2641 1647 
Q 2969 1431 2969 969 
Q 2969 522 2630 197 
Q 2291 -128 1597 -128 
Q 850 -128 539 211 
Q 228 550 206 1050 
L 747 1050 
z
M 1578 3428 
L 1578 3428 
z
" transform="scale(0.015625)"/>
       <path id="Helvetica-74" d="M 525 4281 
L 1094 4281 
L 1094 3347 
L 1628 3347 
L 1628 2888 
L 1094 2888 
L 1094 703 
Q 1094 528 1213 469 
Q 1278 434 1431 434 
Q 1472 434 1519 436 
Q 1566 438 1628 444 
L 1628 0 
Q 1531 -28 1426 -40 
Q 1322 -53 1200 -53 
Q 806 -53 665 148 
Q 525 350 525 672 
L 525 2888 
L 72 2888 
L 72 3347 
L 525 3347 
L 525 4281 
z
" transform="scale(0.015625)"/>
       <path id="Helvetica-20" transform="scale(0.015625)"/>
       <path id="Helvetica-6c" d="M 428 4591 
L 991 4591 
L 991 0 
L 428 0 
L 428 4591 
z
" transform="scale(0.015625)"/>
       <path id="Helvetica-65" d="M 1806 3422 
Q 2163 3422 2497 3255 
Q 2831 3088 3006 2822 
Q 3175 2569 3231 2231 
Q 3281 2000 3281 1494 
L 828 1494 
Q 844 984 1069 676 
Q 1294 369 1766 369 
Q 2206 369 2469 659 
Q 2619 828 2681 1050 
L 3234 1050 
Q 3213 866 3089 639 
Q 2966 413 2813 269 
Q 2556 19 2178 -69 
Q 1975 -119 1719 -119 
Q 1094 -119 659 336 
Q 225 791 225 1609 
Q 225 2416 662 2919 
Q 1100 3422 1806 3422 
z
M 2703 1941 
Q 2669 2306 2544 2525 
Q 2313 2931 1772 2931 
Q 1384 2931 1121 2651 
Q 859 2372 844 1941 
L 2703 1941 
z
M 1753 3428 
L 1753 3428 
z
" transform="scale(0.015625)"/>
       <path id="Helvetica-68" d="M 413 4606 
L 975 4606 
L 975 2894 
Q 1175 3147 1334 3250 
Q 1606 3428 2013 3428 
Q 2741 3428 3000 2919 
Q 3141 2641 3141 2147 
L 3141 0 
L 2563 0 
L 2563 2109 
Q 2563 2478 2469 2650 
Q 2316 2925 1894 2925 
Q 1544 2925 1259 2684 
Q 975 2444 975 1775 
L 975 0 
L 413 0 
L 413 4606 
z
" transform="scale(0.015625)"/>
      </defs>
      <use xlink:href="#Helvetica-61"/>
      <use xlink:href="#Helvetica-67" transform="translate(55.615234 0)"/>
      <use xlink:href="#Helvetica-6f" transform="translate(111.230469 0)"/>
      <use xlink:href="#Helvetica-6e" transform="translate(166.845703 0)"/>
      <use xlink:href="#Helvetica-69" transform="translate(222.460938 0)"/>
      <use xlink:href="#Helvetica-73" transform="translate(244.677734 0)"/>
      <use xlink:href="#Helvetica-74" transform="translate(294.677734 0)"/>
      <use xlink:href="#Helvetica-20" transform="translate(322.460938 0)"/>
      <use xlink:href="#Helvetica-6c" transform="translate(350.244141 0)"/>
      <use xlink:href="#Helvetica-65" transform="translate(372.460938 0)"/>
      <use xlink:href="#Helvetica-6e" transform="translate(428.076172 0)"/>
      <use xlink:href="#Helvetica-67" transform="translate(483.691406 0)"/>
      <use xlink:href="#Helvetica-74" transform="translate(539.306641 0)"/>
      <use xlink:href="#Helvetica-68" transform="translate(567.089844 0)"/>
     </g>
    </g>
   </g>
   <g id="matplotlib.axis_2">
    <g id="ytick_1">
     <g id="line2d_3">
      <path d="M 43.62 120.18 
L 144.99 120.18 
" clip-path="url(#p6f1566d6d3)" style="fill: none; stroke: #cccccc; stroke-width: 0.8; stroke-linecap: round"/>
     </g>
     <g id="text_4">
      <!-- 0 -->
      <g style="fill: #262626" transform="translate(29.759063 123.766719) scale(0.1 -0.1)">
       <use xlink:href="#Helvetica-30"/>
      </g>
     </g>
    </g>
    <g id="ytick_2">
     <g id="line2d_4">
      <path d="M 43.62 111.922956 
L 144.99 111.922956 
" clip-path="url(#p6f1566d6d3)" style="fill: none; stroke: #cccccc; stroke-width: 0.8; stroke-linecap: round"/>
     </g>
     <g id="text_5">
      <!-- 1 -->
      <g style="fill: #262626" transform="translate(29.759063 115.509675) scale(0.1 -0.1)">
       <defs>
        <path id="Helvetica-31" d="M 613 3169 
L 613 3600 
Q 1222 3659 1462 3798 
Q 1703 3938 1822 4456 
L 2266 4456 
L 2266 0 
L 1666 0 
L 1666 3169 
L 613 3169 
z
" transform="scale(0.015625)"/>
       </defs>
       <use xlink:href="#Helvetica-31"/>
      </g>
     </g>
    </g>
    <g id="ytick_3">
     <g id="line2d_5">
      <path d="M 43.62 103.665912 
L 144.99 103.665912 
" clip-path="url(#p6f1566d6d3)" style="fill: none; stroke: #cccccc; stroke-width: 0.8; stroke-linecap: round"/>
     </g>
     <g id="text_6">
      <!-- 2 -->
      <g style="fill: #262626" transform="translate(29.759063 107.252631) scale(0.1 -0.1)">
       <use xlink:href="#Helvetica-32"/>
      </g>
     </g>
    </g>
    <g id="ytick_4">
     <g id="line2d_6">
      <path d="M 43.62 95.408868 
L 144.99 95.408868 
" clip-path="url(#p6f1566d6d3)" style="fill: none; stroke: #cccccc; stroke-width: 0.8; stroke-linecap: round"/>
     </g>
     <g id="text_7">
      <!-- 3 -->
      <g style="fill: #262626" transform="translate(29.759063 98.995587) scale(0.1 -0.1)">
       <defs>
        <path id="Helvetica-33" d="M 1663 -122 
Q 869 -122 511 314 
Q 153 750 153 1375 
L 741 1375 
Q 778 941 903 744 
Q 1122 391 1694 391 
Q 2138 391 2406 628 
Q 2675 866 2675 1241 
Q 2675 1703 2392 1887 
Q 2109 2072 1606 2072 
Q 1550 2072 1492 2070 
Q 1434 2069 1375 2066 
L 1375 2563 
Q 1463 2553 1522 2550 
Q 1581 2547 1650 2547 
Q 1966 2547 2169 2647 
Q 2525 2822 2525 3272 
Q 2525 3606 2287 3787 
Q 2050 3969 1734 3969 
Q 1172 3969 956 3594 
Q 838 3388 822 3006 
L 266 3006 
Q 266 3506 466 3856 
Q 809 4481 1675 4481 
Q 2359 4481 2734 4176 
Q 3109 3872 3109 3294 
Q 3109 2881 2888 2625 
Q 2750 2466 2531 2375 
Q 2884 2278 3082 2001 
Q 3281 1725 3281 1325 
Q 3281 684 2859 281 
Q 2438 -122 1663 -122 
z
" transform="scale(0.015625)"/>
       </defs>
       <use xlink:href="#Helvetica-33"/>
      </g>
     </g>
    </g>
    <g id="ytick_5">
     <g id="line2d_7">
      <path d="M 43.62 87.151824 
L 144.99 87.151824 
" clip-path="url(#p6f1566d6d3)" style="fill: none; stroke: #cccccc; stroke-width: 0.8; stroke-linecap: round"/>
     </g>
     <g id="text_8">
      <!-- 4 -->
      <g style="fill: #262626" transform="translate(29.759063 90.738543) scale(0.1 -0.1)">
       <defs>
        <path id="Helvetica-34" d="M 2116 1584 
L 2116 3613 
L 681 1584 
L 2116 1584 
z
M 2125 0 
L 2125 1094 
L 163 1094 
L 163 1644 
L 2213 4488 
L 2688 4488 
L 2688 1584 
L 3347 1584 
L 3347 1094 
L 2688 1094 
L 2688 0 
L 2125 0 
z
" transform="scale(0.015625)"/>
       </defs>
       <use xlink:href="#Helvetica-34"/>
      </g>
     </g>
    </g>
    <g id="ytick_6">
     <g id="line2d_8">
      <path d="M 43.62 78.89478 
L 144.99 78.89478 
" clip-path="url(#p6f1566d6d3)" style="fill: none; stroke: #cccccc; stroke-width: 0.8; stroke-linecap: round"/>
     </g>
     <g id="text_9">
      <!-- 5 -->
      <g style="fill: #262626" transform="translate(29.759063 82.481499) scale(0.1 -0.1)">
       <defs>
        <path id="Helvetica-35" d="M 791 1141 
Q 847 659 1238 475 
Q 1438 381 1700 381 
Q 2200 381 2440 700 
Q 2681 1019 2681 1406 
Q 2681 1875 2395 2131 
Q 2109 2388 1709 2388 
Q 1419 2388 1211 2275 
Q 1003 2163 856 1963 
L 369 1991 
L 709 4400 
L 3034 4400 
L 3034 3856 
L 1131 3856 
L 941 2613 
Q 1097 2731 1238 2791 
Q 1488 2894 1816 2894 
Q 2431 2894 2859 2497 
Q 3288 2100 3288 1491 
Q 3288 856 2895 371 
Q 2503 -113 1644 -113 
Q 1097 -113 676 195 
Q 256 503 206 1141 
L 791 1141 
z
" transform="scale(0.015625)"/>
       </defs>
       <use xlink:href="#Helvetica-35"/>
      </g>
     </g>
    </g>
    <g id="ytick_7">
     <g id="line2d_9">
      <path d="M 43.62 70.637736 
L 144.99 70.637736 
" clip-path="url(#p6f1566d6d3)" style="fill: none; stroke: #cccccc; stroke-width: 0.8; stroke-linecap: round"/>
     </g>
     <g id="text_10">
      <!-- 6 -->
      <g style="fill: #262626" transform="translate(29.759063 74.224455) scale(0.1 -0.1)">
       <defs>
        <path id="Helvetica-36" d="M 1872 4494 
Q 2622 4494 2917 4105 
Q 3213 3716 3213 3303 
L 2656 3303 
Q 2606 3569 2497 3719 
Q 2294 4000 1881 4000 
Q 1409 4000 1131 3564 
Q 853 3128 822 2316 
Q 1016 2600 1309 2741 
Q 1578 2866 1909 2866 
Q 2472 2866 2890 2506 
Q 3309 2147 3309 1434 
Q 3309 825 2912 354 
Q 2516 -116 1781 -116 
Q 1153 -116 697 361 
Q 241 838 241 1966 
Q 241 2800 444 3381 
Q 834 4494 1872 4494 
z
M 1831 384 
Q 2275 384 2495 682 
Q 2716 981 2716 1388 
Q 2716 1731 2519 2042 
Q 2322 2353 1803 2353 
Q 1441 2353 1167 2112 
Q 894 1872 894 1388 
Q 894 963 1142 673 
Q 1391 384 1831 384 
z
" transform="scale(0.015625)"/>
       </defs>
       <use xlink:href="#Helvetica-36"/>
      </g>
     </g>
    </g>
    <g id="ytick_8">
     <g id="line2d_10">
      <path d="M 43.62 62.380692 
L 144.99 62.380692 
" clip-path="url(#p6f1566d6d3)" style="fill: none; stroke: #cccccc; stroke-width: 0.8; stroke-linecap: round"/>
     </g>
     <g id="text_11">
      <!-- 7 -->
      <g style="fill: #262626" transform="translate(29.759063 65.967411) scale(0.1 -0.1)">
       <defs>
        <path id="Helvetica-37" d="M 3347 4400 
L 3347 3909 
Q 3131 3700 2773 3181 
Q 2416 2663 2141 2063 
Q 1869 1478 1728 997 
Q 1638 688 1494 0 
L 872 0 
Q 1084 1281 1809 2550 
Q 2238 3294 2709 3834 
L 234 3834 
L 234 4400 
L 3347 4400 
z
" transform="scale(0.015625)"/>
       </defs>
       <use xlink:href="#Helvetica-37"/>
      </g>
     </g>
    </g>
    <g id="ytick_9">
     <g id="line2d_11">
      <path d="M 43.62 54.123648 
L 144.99 54.123648 
" clip-path="url(#p6f1566d6d3)" style="fill: none; stroke: #cccccc; stroke-width: 0.8; stroke-linecap: round"/>
     </g>
     <g id="text_12">
      <!-- 8 -->
      <g style="fill: #262626" transform="translate(29.759063 57.710367) scale(0.1 -0.1)">
       <defs>
        <path id="Helvetica-38" d="M 1741 2600 
Q 2113 2600 2322 2808 
Q 2531 3016 2531 3303 
Q 2531 3553 2331 3762 
Q 2131 3972 1722 3972 
Q 1316 3972 1134 3762 
Q 953 3553 953 3272 
Q 953 2956 1187 2778 
Q 1422 2600 1741 2600 
z
M 1775 384 
Q 2166 384 2423 595 
Q 2681 806 2681 1225 
Q 2681 1659 2415 1884 
Q 2150 2109 1734 2109 
Q 1331 2109 1076 1879 
Q 822 1650 822 1244 
Q 822 894 1055 639 
Q 1288 384 1775 384 
z
M 975 2384 
Q 741 2484 609 2619 
Q 363 2869 363 3269 
Q 363 3769 725 4128 
Q 1088 4488 1753 4488 
Q 2397 4488 2762 4148 
Q 3128 3809 3128 3356 
Q 3128 2938 2916 2678 
Q 2797 2531 2547 2391 
Q 2825 2263 2984 2097 
Q 3281 1784 3281 1284 
Q 3281 694 2884 283 
Q 2488 -128 1763 -128 
Q 1109 -128 657 226 
Q 206 581 206 1256 
Q 206 1653 400 1942 
Q 594 2231 975 2384 
z
" transform="scale(0.015625)"/>
       </defs>
       <use xlink:href="#Helvetica-38"/>
      </g>
     </g>
    </g>
    <g id="ytick_10">
     <g id="line2d_12">
      <path d="M 43.62 45.866604 
L 144.99 45.866604 
" clip-path="url(#p6f1566d6d3)" style="fill: none; stroke: #cccccc; stroke-width: 0.8; stroke-linecap: round"/>
     </g>
     <g id="text_13">
      <!-- 9 -->
      <g style="fill: #262626" transform="translate(29.759063 49.453323) scale(0.1 -0.1)">
       <defs>
        <path id="Helvetica-39" d="M 850 1081 
Q 875 616 1209 438 
Q 1381 344 1597 344 
Q 2000 344 2284 680 
Q 2569 1016 2688 2044 
Q 2500 1747 2223 1626 
Q 1947 1506 1628 1506 
Q 981 1506 604 1909 
Q 228 2313 228 2947 
Q 228 3556 600 4018 
Q 972 4481 1697 4481 
Q 2675 4481 3047 3600 
Q 3253 3116 3253 2388 
Q 3253 1566 3006 931 
Q 2597 -125 1619 -125 
Q 963 -125 622 219 
Q 281 563 281 1081 
L 850 1081 
z
M 1703 2000 
Q 2038 2000 2314 2220 
Q 2591 2441 2591 2991 
Q 2591 3484 2342 3726 
Q 2094 3969 1709 3969 
Q 1297 3969 1055 3692 
Q 813 3416 813 2953 
Q 813 2516 1025 2258 
Q 1238 2000 1703 2000 
z
" transform="scale(0.015625)"/>
       </defs>
       <use xlink:href="#Helvetica-39"/>
      </g>
     </g>
    </g>
    <g id="ytick_11">
     <g id="line2d_13">
      <path d="M 43.62 37.60956 
L 144.99 37.60956 
" clip-path="url(#p6f1566d6d3)" style="fill: none; stroke: #cccccc; stroke-width: 0.8; stroke-linecap: round"/>
     </g>
     <g id="text_14">
      <!-- 10 -->
      <g style="fill: #262626" transform="translate(24.198125 41.196279) scale(0.1 -0.1)">
       <use xlink:href="#Helvetica-31"/>
       <use xlink:href="#Helvetica-30" transform="translate(55.615234 0)"/>
      </g>
     </g>
    </g>
    <g id="ytick_12">
     <g id="line2d_14">
      <path d="M 43.62 29.352516 
L 144.99 29.352516 
" clip-path="url(#p6f1566d6d3)" style="fill: none; stroke: #cccccc; stroke-width: 0.8; stroke-linecap: round"/>
     </g>
     <g id="text_15">
      <!-- 11 -->
      <g style="fill: #262626" transform="translate(24.198125 32.939234) scale(0.1 -0.1)">
       <use xlink:href="#Helvetica-31"/>
       <use xlink:href="#Helvetica-31" transform="translate(55.615234 0)"/>
      </g>
     </g>
    </g>
    <g id="text_16">
     <!-- Rank -->
     <g style="fill: #262626" transform="translate(18.11375 83.761875) rotate(-90) scale(0.1 -0.1)">
      <defs>
       <path id="Helvetica-52" d="M 2622 2488 
Q 3059 2488 3314 2663 
Q 3569 2838 3569 3294 
Q 3569 3784 3213 3963 
Q 3022 4056 2703 4056 
L 1184 4056 
L 1184 2488 
L 2622 2488 
z
M 563 4591 
L 2688 4591 
Q 3213 4591 3553 4438 
Q 4200 4144 4200 3353 
Q 4200 2941 4029 2678 
Q 3859 2416 3553 2256 
Q 3822 2147 3958 1969 
Q 4094 1791 4109 1391 
L 4131 775 
Q 4141 513 4175 384 
Q 4231 166 4375 103 
L 4375 0 
L 3613 0 
Q 3581 59 3562 153 
Q 3544 247 3531 516 
L 3494 1281 
Q 3472 1731 3159 1884 
Q 2981 1969 2600 1969 
L 1184 1969 
L 1184 0 
L 563 0 
L 563 4591 
z
" transform="scale(0.015625)"/>
       <path id="Helvetica-6b" d="M 400 4591 
L 941 4591 
L 941 1925 
L 2384 3347 
L 3103 3347 
L 1822 2094 
L 3175 0 
L 2456 0 
L 1413 1688 
L 941 1256 
L 941 0 
L 400 0 
L 400 4591 
z
" transform="scale(0.015625)"/>
      </defs>
      <use xlink:href="#Helvetica-52"/>
      <use xlink:href="#Helvetica-61" transform="translate(72.216797 0)"/>
      <use xlink:href="#Helvetica-6e" transform="translate(127.832031 0)"/>
      <use xlink:href="#Helvetica-6b" transform="translate(183.447266 0)"/>
     </g>
    </g>
   </g>
   <g id="PathCollection_1">
    <defs>
     <path id="mbcfba49636" d="M 0 2.4 
C 0.636487 2.4 1.246992 2.147121 1.697056 1.697056 
C 2.147121 1.246992 2.4 0.636487 2.4 0 
C 2.4 -0.636487 2.147121 -1.246992 1.697056 -1.697056 
C 1.246992 -2.147121 0.636487 -2.4 0 -2.4 
C -0.636487 -2.4 -1.246992 -2.147121 -1.697056 -1.697056 
C -2.147121 -1.246992 -2.4 -0.636487 -2.4 0 
C -2.4 0.636487 -2.147121 1.246992 -1.697056 1.697056 
C -1.246992 2.147121 -0.636487 2.4 0 2.4 
z
" style="stroke: #1f77b4; stroke-opacity: 0.5"/>
    </defs>
    <g clip-path="url(#p6f1566d6d3)">
     <use xlink:href="#mbcfba49636" x="49.226693" y="112.235427" style="fill: #1f77b4; fill-opacity: 0.5; stroke: #1f77b4; stroke-opacity: 0.5"/>
     <use xlink:href="#mbcfba49636" x="48.976951" y="105.003435" style="fill: #1f77b4; fill-opacity: 0.5; stroke: #1f77b4; stroke-opacity: 0.5"/>
     <use xlink:href="#mbcfba49636" x="48.976951" y="112.446297" style="fill: #1f77b4; fill-opacity: 0.5; stroke: #1f77b4; stroke-opacity: 0.5"/>
     <use xlink:href="#mbcfba49636" x="52.47333" y="112.361203" style="fill: #1f77b4; fill-opacity: 0.5; stroke: #1f77b4; stroke-opacity: 0.5"/>
     <use xlink:href="#mbcfba49636" x="49.726175" y="111.194784" style="fill: #1f77b4; fill-opacity: 0.5; stroke: #1f77b4; stroke-opacity: 0.5"/>
     <use xlink:href="#mbcfba49636" x="49.726175" y="110.419385" style="fill: #1f77b4; fill-opacity: 0.5; stroke: #1f77b4; stroke-opacity: 0.5"/>
     <use xlink:href="#mbcfba49636" x="52.47333" y="110.571707" style="fill: #1f77b4; fill-opacity: 0.5; stroke: #1f77b4; stroke-opacity: 0.5"/>
     <use xlink:href="#mbcfba49636" x="52.723071" y="112.386949" style="fill: #1f77b4; fill-opacity: 0.5; stroke: #1f77b4; stroke-opacity: 0.5"/>
     <use xlink:href="#mbcfba49636" x="49.726175" y="110.994147" style="fill: #1f77b4; fill-opacity: 0.5; stroke: #1f77b4; stroke-opacity: 0.5"/>
     <use xlink:href="#mbcfba49636" x="54.721001" y="69.019743" style="fill: #1f77b4; fill-opacity: 0.5; stroke: #1f77b4; stroke-opacity: 0.5"/>
     <use xlink:href="#mbcfba49636" x="49.476434" y="102.834291" style="fill: #1f77b4; fill-opacity: 0.5; stroke: #1f77b4; stroke-opacity: 0.5"/>
     <use xlink:href="#mbcfba49636" x="56.219449" y="112.066855" style="fill: #1f77b4; fill-opacity: 0.5; stroke: #1f77b4; stroke-opacity: 0.5"/>
     <use xlink:href="#mbcfba49636" x="105.917971" y="29.793094" style="fill: #1f77b4; fill-opacity: 0.5; stroke: #1f77b4; stroke-opacity: 0.5"/>
     <use xlink:href="#mbcfba49636" x="49.226693" y="103.77204" style="fill: #1f77b4; fill-opacity: 0.5; stroke: #1f77b4; stroke-opacity: 0.5"/>
     <use xlink:href="#mbcfba49636" x="53.222554" y="78.777008" style="fill: #1f77b4; fill-opacity: 0.5; stroke: #1f77b4; stroke-opacity: 0.5"/>
     <use xlink:href="#mbcfba49636" x="50.475399" y="112.39504" style="fill: #1f77b4; fill-opacity: 0.5; stroke: #1f77b4; stroke-opacity: 0.5"/>
     <use xlink:href="#mbcfba49636" x="78.945909" y="87.924921" style="fill: #1f77b4; fill-opacity: 0.5; stroke: #1f77b4; stroke-opacity: 0.5"/>
     <use xlink:href="#mbcfba49636" x="56.219449" y="112.179339" style="fill: #1f77b4; fill-opacity: 0.5; stroke: #1f77b4; stroke-opacity: 0.5"/>
     <use xlink:href="#mbcfba49636" x="50.72514" y="112.835408" style="fill: #1f77b4; fill-opacity: 0.5; stroke: #1f77b4; stroke-opacity: 0.5"/>
     <use xlink:href="#mbcfba49636" x="50.72514" y="110.555822" style="fill: #1f77b4; fill-opacity: 0.5; stroke: #1f77b4; stroke-opacity: 0.5"/>
     <use xlink:href="#mbcfba49636" x="80.694098" y="38.71827" style="fill: #1f77b4; fill-opacity: 0.5; stroke: #1f77b4; stroke-opacity: 0.5"/>
     <use xlink:href="#mbcfba49636" x="56.219449" y="112.285788" style="fill: #1f77b4; fill-opacity: 0.5; stroke: #1f77b4; stroke-opacity: 0.5"/>
     <use xlink:href="#mbcfba49636" x="50.72514" y="95.275807" style="fill: #1f77b4; fill-opacity: 0.5; stroke: #1f77b4; stroke-opacity: 0.5"/>
     <use xlink:href="#mbcfba49636" x="50.72514" y="102.736707" style="fill: #1f77b4; fill-opacity: 0.5; stroke: #1f77b4; stroke-opacity: 0.5"/>
     <use xlink:href="#mbcfba49636" x="50.475399" y="93.851274" style="fill: #1f77b4; fill-opacity: 0.5; stroke: #1f77b4; stroke-opacity: 0.5"/>
     <use xlink:href="#mbcfba49636" x="49.975916" y="111.628262" style="fill: #1f77b4; fill-opacity: 0.5; stroke: #1f77b4; stroke-opacity: 0.5"/>
     <use xlink:href="#mbcfba49636" x="64.211171" y="111.299848" style="fill: #1f77b4; fill-opacity: 0.5; stroke: #1f77b4; stroke-opacity: 0.5"/>
     <use xlink:href="#mbcfba49636" x="48.227727" y="102.528953" style="fill: #1f77b4; fill-opacity: 0.5; stroke: #1f77b4; stroke-opacity: 0.5"/>
     <use xlink:href="#mbcfba49636" x="49.476434" y="113.442462" style="fill: #1f77b4; fill-opacity: 0.5; stroke: #1f77b4; stroke-opacity: 0.5"/>
     <use xlink:href="#mbcfba49636" x="56.219449" y="103.938796" style="fill: #1f77b4; fill-opacity: 0.5; stroke: #1f77b4; stroke-opacity: 0.5"/>
     <use xlink:href="#mbcfba49636" x="49.476434" y="110.969636" style="fill: #1f77b4; fill-opacity: 0.5; stroke: #1f77b4; stroke-opacity: 0.5"/>
     <use xlink:href="#mbcfba49636" x="66.458843" y="103.728137" style="fill: #1f77b4; fill-opacity: 0.5; stroke: #1f77b4; stroke-opacity: 0.5"/>
     <use xlink:href="#mbcfba49636" x="64.710654" y="112.730895" style="fill: #1f77b4; fill-opacity: 0.5; stroke: #1f77b4; stroke-opacity: 0.5"/>
     <use xlink:href="#mbcfba49636" x="64.211171" y="61.139852" style="fill: #1f77b4; fill-opacity: 0.5; stroke: #1f77b4; stroke-opacity: 0.5"/>
     <use xlink:href="#mbcfba49636" x="50.475399" y="111.044501" style="fill: #1f77b4; fill-opacity: 0.5; stroke: #1f77b4; stroke-opacity: 0.5"/>
     <use xlink:href="#mbcfba49636" x="69.205998" y="87.58141" style="fill: #1f77b4; fill-opacity: 0.5; stroke: #1f77b4; stroke-opacity: 0.5"/>
     <use xlink:href="#mbcfba49636" x="80.694098" y="88.747447" style="fill: #1f77b4; fill-opacity: 0.5; stroke: #1f77b4; stroke-opacity: 0.5"/>
     <use xlink:href="#mbcfba49636" x="51.474364" y="86.248027" style="fill: #1f77b4; fill-opacity: 0.5; stroke: #1f77b4; stroke-opacity: 0.5"/>
     <use xlink:href="#mbcfba49636" x="64.211171" y="112.177645" style="fill: #1f77b4; fill-opacity: 0.5; stroke: #1f77b4; stroke-opacity: 0.5"/>
     <use xlink:href="#mbcfba49636" x="65.459878" y="112.556634" style="fill: #1f77b4; fill-opacity: 0.5; stroke: #1f77b4; stroke-opacity: 0.5"/>
     <use xlink:href="#mbcfba49636" x="64.460913" y="111.262677" style="fill: #1f77b4; fill-opacity: 0.5; stroke: #1f77b4; stroke-opacity: 0.5"/>
     <use xlink:href="#mbcfba49636" x="49.476434" y="113.143178" style="fill: #1f77b4; fill-opacity: 0.5; stroke: #1f77b4; stroke-opacity: 0.5"/>
     <use xlink:href="#mbcfba49636" x="49.726175" y="102.635515" style="fill: #1f77b4; fill-opacity: 0.5; stroke: #1f77b4; stroke-opacity: 0.5"/>
     <use xlink:href="#mbcfba49636" x="52.223588" y="47.279403" style="fill: #1f77b4; fill-opacity: 0.5; stroke: #1f77b4; stroke-opacity: 0.5"/>
     <use xlink:href="#mbcfba49636" x="66.458843" y="104.798334" style="fill: #1f77b4; fill-opacity: 0.5; stroke: #1f77b4; stroke-opacity: 0.5"/>
     <use xlink:href="#mbcfba49636" x="51.973847" y="111.855726" style="fill: #1f77b4; fill-opacity: 0.5; stroke: #1f77b4; stroke-opacity: 0.5"/>
     <use xlink:href="#mbcfba49636" x="51.724106" y="104.444199" style="fill: #1f77b4; fill-opacity: 0.5; stroke: #1f77b4; stroke-opacity: 0.5"/>
     <use xlink:href="#mbcfba49636" x="51.973847" y="111.209069" style="fill: #1f77b4; fill-opacity: 0.5; stroke: #1f77b4; stroke-opacity: 0.5"/>
     <use xlink:href="#mbcfba49636" x="64.211171" y="112.207769" style="fill: #1f77b4; fill-opacity: 0.5; stroke: #1f77b4; stroke-opacity: 0.5"/>
     <use xlink:href="#mbcfba49636" x="66.209102" y="113.537112" style="fill: #1f77b4; fill-opacity: 0.5; stroke: #1f77b4; stroke-opacity: 0.5"/>
     <use xlink:href="#mbcfba49636" x="50.475399" y="111.98955" style="fill: #1f77b4; fill-opacity: 0.5; stroke: #1f77b4; stroke-opacity: 0.5"/>
     <use xlink:href="#mbcfba49636" x="53.722036" y="110.384093" style="fill: #1f77b4; fill-opacity: 0.5; stroke: #1f77b4; stroke-opacity: 0.5"/>
     <use xlink:href="#mbcfba49636" x="49.226693" y="110.280876" style="fill: #1f77b4; fill-opacity: 0.5; stroke: #1f77b4; stroke-opacity: 0.5"/>
     <use xlink:href="#mbcfba49636" x="48.227727" y="111.744663" style="fill: #1f77b4; fill-opacity: 0.5; stroke: #1f77b4; stroke-opacity: 0.5"/>
     <use xlink:href="#mbcfba49636" x="52.223588" y="70.421595" style="fill: #1f77b4; fill-opacity: 0.5; stroke: #1f77b4; stroke-opacity: 0.5"/>
     <use xlink:href="#mbcfba49636" x="70.204963" y="78.527992" style="fill: #1f77b4; fill-opacity: 0.5; stroke: #1f77b4; stroke-opacity: 0.5"/>
     <use xlink:href="#mbcfba49636" x="49.226693" y="110.675617" style="fill: #1f77b4; fill-opacity: 0.5; stroke: #1f77b4; stroke-opacity: 0.5"/>
     <use xlink:href="#mbcfba49636" x="49.476434" y="112.485399" style="fill: #1f77b4; fill-opacity: 0.5; stroke: #1f77b4; stroke-opacity: 0.5"/>
     <use xlink:href="#mbcfba49636" x="49.975916" y="113.304728" style="fill: #1f77b4; fill-opacity: 0.5; stroke: #1f77b4; stroke-opacity: 0.5"/>
     <use xlink:href="#mbcfba49636" x="64.211171" y="110.707522" style="fill: #1f77b4; fill-opacity: 0.5; stroke: #1f77b4; stroke-opacity: 0.5"/>
     <use xlink:href="#mbcfba49636" x="103.420558" y="102.202957" style="fill: #1f77b4; fill-opacity: 0.5; stroke: #1f77b4; stroke-opacity: 0.5"/>
     <use xlink:href="#mbcfba49636" x="65.459878" y="112.158493" style="fill: #1f77b4; fill-opacity: 0.5; stroke: #1f77b4; stroke-opacity: 0.5"/>
     <use xlink:href="#mbcfba49636" x="52.972812" y="70.684371" style="fill: #1f77b4; fill-opacity: 0.5; stroke: #1f77b4; stroke-opacity: 0.5"/>
     <use xlink:href="#mbcfba49636" x="65.459878" y="110.973793" style="fill: #1f77b4; fill-opacity: 0.5; stroke: #1f77b4; stroke-opacity: 0.5"/>
     <use xlink:href="#mbcfba49636" x="64.211171" y="113.364588" style="fill: #1f77b4; fill-opacity: 0.5; stroke: #1f77b4; stroke-opacity: 0.5"/>
     <use xlink:href="#mbcfba49636" x="49.726175" y="87.64004" style="fill: #1f77b4; fill-opacity: 0.5; stroke: #1f77b4; stroke-opacity: 0.5"/>
     <use xlink:href="#mbcfba49636" x="52.223588" y="96.702971" style="fill: #1f77b4; fill-opacity: 0.5; stroke: #1f77b4; stroke-opacity: 0.5"/>
     <use xlink:href="#mbcfba49636" x="53.971778" y="94.609628" style="fill: #1f77b4; fill-opacity: 0.5; stroke: #1f77b4; stroke-opacity: 0.5"/>
     <use xlink:href="#mbcfba49636" x="66.458843" y="104.2678" style="fill: #1f77b4; fill-opacity: 0.5; stroke: #1f77b4; stroke-opacity: 0.5"/>
     <use xlink:href="#mbcfba49636" x="50.72514" y="113.320211" style="fill: #1f77b4; fill-opacity: 0.5; stroke: #1f77b4; stroke-opacity: 0.5"/>
     <use xlink:href="#mbcfba49636" x="65.709619" y="112.98971" style="fill: #1f77b4; fill-opacity: 0.5; stroke: #1f77b4; stroke-opacity: 0.5"/>
     <use xlink:href="#mbcfba49636" x="64.960395" y="111.101304" style="fill: #1f77b4; fill-opacity: 0.5; stroke: #1f77b4; stroke-opacity: 0.5"/>
     <use xlink:href="#mbcfba49636" x="68.956256" y="102.406467" style="fill: #1f77b4; fill-opacity: 0.5; stroke: #1f77b4; stroke-opacity: 0.5"/>
     <use xlink:href="#mbcfba49636" x="50.72514" y="111.849722" style="fill: #1f77b4; fill-opacity: 0.5; stroke: #1f77b4; stroke-opacity: 0.5"/>
     <use xlink:href="#mbcfba49636" x="64.211171" y="96.820108" style="fill: #1f77b4; fill-opacity: 0.5; stroke: #1f77b4; stroke-opacity: 0.5"/>
     <use xlink:href="#mbcfba49636" x="51.474364" y="63.261707" style="fill: #1f77b4; fill-opacity: 0.5; stroke: #1f77b4; stroke-opacity: 0.5"/>
     <use xlink:href="#mbcfba49636" x="62.213241" y="29.114063" style="fill: #1f77b4; fill-opacity: 0.5; stroke: #1f77b4; stroke-opacity: 0.5"/>
     <use xlink:href="#mbcfba49636" x="52.972812" y="103.959631" style="fill: #1f77b4; fill-opacity: 0.5; stroke: #1f77b4; stroke-opacity: 0.5"/>
     <use xlink:href="#mbcfba49636" x="54.221519" y="62.247232" style="fill: #1f77b4; fill-opacity: 0.5; stroke: #1f77b4; stroke-opacity: 0.5"/>
     <use xlink:href="#mbcfba49636" x="54.221519" y="77.867276" style="fill: #1f77b4; fill-opacity: 0.5; stroke: #1f77b4; stroke-opacity: 0.5"/>
     <use xlink:href="#mbcfba49636" x="54.221519" y="72.088804" style="fill: #1f77b4; fill-opacity: 0.5; stroke: #1f77b4; stroke-opacity: 0.5"/>
     <use xlink:href="#mbcfba49636" x="50.974882" y="87.426079" style="fill: #1f77b4; fill-opacity: 0.5; stroke: #1f77b4; stroke-opacity: 0.5"/>
     <use xlink:href="#mbcfba49636" x="54.970743" y="113.299796" style="fill: #1f77b4; fill-opacity: 0.5; stroke: #1f77b4; stroke-opacity: 0.5"/>
     <use xlink:href="#mbcfba49636" x="52.972812" y="79.277251" style="fill: #1f77b4; fill-opacity: 0.5; stroke: #1f77b4; stroke-opacity: 0.5"/>
     <use xlink:href="#mbcfba49636" x="51.724106" y="113.386099" style="fill: #1f77b4; fill-opacity: 0.5; stroke: #1f77b4; stroke-opacity: 0.5"/>
     <use xlink:href="#mbcfba49636" x="66.458843" y="112.573194" style="fill: #1f77b4; fill-opacity: 0.5; stroke: #1f77b4; stroke-opacity: 0.5"/>
     <use xlink:href="#mbcfba49636" x="53.472295" y="112.183707" style="fill: #1f77b4; fill-opacity: 0.5; stroke: #1f77b4; stroke-opacity: 0.5"/>
     <use xlink:href="#mbcfba49636" x="53.472295" y="110.537252" style="fill: #1f77b4; fill-opacity: 0.5; stroke: #1f77b4; stroke-opacity: 0.5"/>
     <use xlink:href="#mbcfba49636" x="49.476434" y="102.9081" style="fill: #1f77b4; fill-opacity: 0.5; stroke: #1f77b4; stroke-opacity: 0.5"/>
     <use xlink:href="#mbcfba49636" x="140.382273" y="104.483348" style="fill: #1f77b4; fill-opacity: 0.5; stroke: #1f77b4; stroke-opacity: 0.5"/>
     <use xlink:href="#mbcfba49636" x="100.923145" y="71.48569" style="fill: #1f77b4; fill-opacity: 0.5; stroke: #1f77b4; stroke-opacity: 0.5"/>
     <use xlink:href="#mbcfba49636" x="100.923145" y="86.40614" style="fill: #1f77b4; fill-opacity: 0.5; stroke: #1f77b4; stroke-opacity: 0.5"/>
     <use xlink:href="#mbcfba49636" x="53.971778" y="113.56642" style="fill: #1f77b4; fill-opacity: 0.5; stroke: #1f77b4; stroke-opacity: 0.5"/>
     <use xlink:href="#mbcfba49636" x="49.975916" y="88.378505" style="fill: #1f77b4; fill-opacity: 0.5; stroke: #1f77b4; stroke-opacity: 0.5"/>
     <use xlink:href="#mbcfba49636" x="70.454704" y="111.44106" style="fill: #1f77b4; fill-opacity: 0.5; stroke: #1f77b4; stroke-opacity: 0.5"/>
     <use xlink:href="#mbcfba49636" x="100.923145" y="102.472816" style="fill: #1f77b4; fill-opacity: 0.5; stroke: #1f77b4; stroke-opacity: 0.5"/>
     <use xlink:href="#mbcfba49636" x="56.968673" y="61.524507" style="fill: #1f77b4; fill-opacity: 0.5; stroke: #1f77b4; stroke-opacity: 0.5"/>
     <use xlink:href="#mbcfba49636" x="52.47333" y="79.905734" style="fill: #1f77b4; fill-opacity: 0.5; stroke: #1f77b4; stroke-opacity: 0.5"/>
     <use xlink:href="#mbcfba49636" x="71.45367" y="28.540757" style="fill: #1f77b4; fill-opacity: 0.5; stroke: #1f77b4; stroke-opacity: 0.5"/>
     <use xlink:href="#mbcfba49636" x="52.723071" y="63.391985" style="fill: #1f77b4; fill-opacity: 0.5; stroke: #1f77b4; stroke-opacity: 0.5"/>
     <use xlink:href="#mbcfba49636" x="72.702376" y="69.949743" style="fill: #1f77b4; fill-opacity: 0.5; stroke: #1f77b4; stroke-opacity: 0.5"/>
     <use xlink:href="#mbcfba49636" x="72.702376" y="62.743028" style="fill: #1f77b4; fill-opacity: 0.5; stroke: #1f77b4; stroke-opacity: 0.5"/>
     <use xlink:href="#mbcfba49636" x="105.917971" y="29.925064" style="fill: #1f77b4; fill-opacity: 0.5; stroke: #1f77b4; stroke-opacity: 0.5"/>
     <use xlink:href="#mbcfba49636" x="52.723071" y="28.265068" style="fill: #1f77b4; fill-opacity: 0.5; stroke: #1f77b4; stroke-opacity: 0.5"/>
     <use xlink:href="#mbcfba49636" x="54.47126" y="111.808504" style="fill: #1f77b4; fill-opacity: 0.5; stroke: #1f77b4; stroke-opacity: 0.5"/>
     <use xlink:href="#mbcfba49636" x="55.470225" y="105.217003" style="fill: #1f77b4; fill-opacity: 0.5; stroke: #1f77b4; stroke-opacity: 0.5"/>
     <use xlink:href="#mbcfba49636" x="54.47126" y="113.395153" style="fill: #1f77b4; fill-opacity: 0.5; stroke: #1f77b4; stroke-opacity: 0.5"/>
     <use xlink:href="#mbcfba49636" x="53.971778" y="110.86678" style="fill: #1f77b4; fill-opacity: 0.5; stroke: #1f77b4; stroke-opacity: 0.5"/>
     <use xlink:href="#mbcfba49636" x="54.221519" y="111.613133" style="fill: #1f77b4; fill-opacity: 0.5; stroke: #1f77b4; stroke-opacity: 0.5"/>
     <use xlink:href="#mbcfba49636" x="53.971778" y="104.353631" style="fill: #1f77b4; fill-opacity: 0.5; stroke: #1f77b4; stroke-opacity: 0.5"/>
     <use xlink:href="#mbcfba49636" x="54.221519" y="110.469894" style="fill: #1f77b4; fill-opacity: 0.5; stroke: #1f77b4; stroke-opacity: 0.5"/>
     <use xlink:href="#mbcfba49636" x="56.219449" y="95.171268" style="fill: #1f77b4; fill-opacity: 0.5; stroke: #1f77b4; stroke-opacity: 0.5"/>
     <use xlink:href="#mbcfba49636" x="57.717897" y="71.576366" style="fill: #1f77b4; fill-opacity: 0.5; stroke: #1f77b4; stroke-opacity: 0.5"/>
     <use xlink:href="#mbcfba49636" x="58.21738" y="77.494265" style="fill: #1f77b4; fill-opacity: 0.5; stroke: #1f77b4; stroke-opacity: 0.5"/>
     <use xlink:href="#mbcfba49636" x="56.219449" y="112.78379" style="fill: #1f77b4; fill-opacity: 0.5; stroke: #1f77b4; stroke-opacity: 0.5"/>
     <use xlink:href="#mbcfba49636" x="56.718932" y="111.969979" style="fill: #1f77b4; fill-opacity: 0.5; stroke: #1f77b4; stroke-opacity: 0.5"/>
     <use xlink:href="#mbcfba49636" x="56.718932" y="110.534398" style="fill: #1f77b4; fill-opacity: 0.5; stroke: #1f77b4; stroke-opacity: 0.5"/>
     <use xlink:href="#mbcfba49636" x="56.469191" y="110.420263" style="fill: #1f77b4; fill-opacity: 0.5; stroke: #1f77b4; stroke-opacity: 0.5"/>
     <use xlink:href="#mbcfba49636" x="56.469191" y="112.96874" style="fill: #1f77b4; fill-opacity: 0.5; stroke: #1f77b4; stroke-opacity: 0.5"/>
     <use xlink:href="#mbcfba49636" x="126.896242" y="94.798176" style="fill: #1f77b4; fill-opacity: 0.5; stroke: #1f77b4; stroke-opacity: 0.5"/>
     <use xlink:href="#mbcfba49636" x="126.896242" y="111.019528" style="fill: #1f77b4; fill-opacity: 0.5; stroke: #1f77b4; stroke-opacity: 0.5"/>
     <use xlink:href="#mbcfba49636" x="126.896242" y="111.211755" style="fill: #1f77b4; fill-opacity: 0.5; stroke: #1f77b4; stroke-opacity: 0.5"/>
    </g>
   </g>
   <g id="FillBetweenPolyCollection_1">
    <defs>
     <path id="m952305624f" d="M 48.227727 -65.914399 
L 48.227727 -57.416745 
L 49.158581 -57.960308 
L 50.089435 -58.296473 
L 51.020289 -58.613049 
L 51.951143 -59.141003 
L 52.881997 -59.435484 
L 53.812851 -59.615395 
L 54.743705 -59.869686 
L 55.674559 -60.195043 
L 56.605413 -60.36545 
L 57.536267 -60.55674 
L 58.467121 -60.777476 
L 59.397975 -60.967402 
L 60.328829 -61.0699 
L 61.259683 -61.223338 
L 62.190537 -61.400144 
L 63.121391 -61.606467 
L 64.052245 -61.807688 
L 64.983099 -61.863761 
L 65.913953 -61.972094 
L 66.844807 -62.095048 
L 67.775661 -62.218394 
L 68.706515 -62.330801 
L 69.637369 -62.458806 
L 70.568223 -62.585282 
L 71.499077 -62.744039 
L 72.429931 -62.822186 
L 73.360785 -62.846369 
L 74.291639 -62.957536 
L 75.222493 -63.011611 
L 76.153347 -63.06478 
L 77.084201 -63.078547 
L 78.015055 -63.172822 
L 78.945909 -63.226843 
L 79.876763 -63.230672 
L 80.807617 -63.252194 
L 81.738471 -63.300668 
L 82.669325 -63.350192 
L 83.600179 -63.402534 
L 84.531033 -63.355808 
L 85.461887 -63.459055 
L 86.392741 -63.464839 
L 87.323595 -63.516987 
L 88.254449 -63.601335 
L 89.185303 -63.64742 
L 90.116157 -63.606198 
L 91.047011 -63.564977 
L 91.977865 -63.527846 
L 92.908719 -63.645312 
L 93.839573 -63.665042 
L 94.770427 -63.647287 
L 95.701281 -63.692138 
L 96.632135 -63.678942 
L 97.562989 -63.6599 
L 98.493843 -63.640857 
L 99.424697 -63.621815 
L 100.355551 -63.603766 
L 101.286405 -63.669181 
L 102.217259 -63.738256 
L 103.148113 -63.808185 
L 104.078967 -63.868984 
L 105.009821 -63.818992 
L 105.940675 -63.821862 
L 106.871529 -63.873726 
L 107.802383 -63.866019 
L 108.733237 -63.854907 
L 109.664091 -63.843795 
L 110.594945 -63.877939 
L 111.525799 -63.861714 
L 112.456653 -63.836943 
L 113.387507 -63.812173 
L 114.318361 -63.787403 
L 115.249215 -63.767397 
L 116.180069 -63.754296 
L 117.110923 -63.756074 
L 118.041777 -63.788633 
L 118.972631 -63.822278 
L 119.903485 -63.855923 
L 120.834339 -63.889568 
L 121.765193 -63.923213 
L 122.696047 -63.956858 
L 123.626901 -63.990502 
L 124.557755 -64.024147 
L 125.488609 -64.01721 
L 126.419463 -64.044457 
L 127.350317 -64.072421 
L 128.281171 -64.100384 
L 129.212025 -64.128347 
L 130.142879 -64.15631 
L 131.073733 -64.183759 
L 132.004587 -64.169003 
L 132.935441 -64.154834 
L 133.866295 -64.140717 
L 134.797149 -64.126599 
L 135.728003 -64.112482 
L 136.658857 -64.098365 
L 137.589711 -64.084247 
L 138.520565 -64.07013 
L 139.451419 -64.072917 
L 140.382273 -64.087958 
L 140.382273 -116.073694 
L 140.382273 -116.073694 
L 139.451419 -115.522163 
L 138.520565 -114.935775 
L 137.589711 -114.348155 
L 136.658857 -113.759884 
L 135.728003 -113.171614 
L 134.797149 -112.583343 
L 133.866295 -111.995073 
L 132.935441 -111.406802 
L 132.004587 -110.818255 
L 131.073733 -110.215182 
L 130.142879 -109.612109 
L 129.212025 -109.009036 
L 128.281171 -108.405963 
L 127.350317 -107.80289 
L 126.419463 -107.212009 
L 125.488609 -106.660996 
L 124.557755 -106.109983 
L 123.626901 -105.528414 
L 122.696047 -104.941478 
L 121.765193 -104.354542 
L 120.834339 -103.767607 
L 119.903485 -103.180671 
L 118.972631 -102.593735 
L 118.041777 -102.006799 
L 117.110923 -101.419864 
L 116.180069 -100.832928 
L 115.249215 -100.260611 
L 114.318361 -99.703127 
L 113.387507 -99.145643 
L 112.456653 -98.588159 
L 111.525799 -98.030675 
L 110.594945 -97.473191 
L 109.664091 -96.915707 
L 108.733237 -96.358223 
L 107.802383 -95.800102 
L 106.871529 -95.241561 
L 105.940675 -94.68302 
L 105.009821 -94.124479 
L 104.078967 -93.565938 
L 103.148113 -93.007397 
L 102.217259 -92.448856 
L 101.286405 -91.890315 
L 100.355551 -91.331774 
L 99.424697 -90.773233 
L 98.493843 -90.214692 
L 97.562989 -89.656151 
L 96.632135 -89.075538 
L 95.701281 -88.494208 
L 94.770427 -87.89198 
L 93.839573 -87.301062 
L 92.908719 -86.709612 
L 91.977865 -86.118131 
L 91.047011 -85.526649 
L 90.116157 -84.935168 
L 89.185303 -84.343686 
L 88.254449 -83.752204 
L 87.323595 -83.160723 
L 86.392741 -82.569241 
L 85.461887 -81.97776 
L 84.531033 -81.392239 
L 83.600179 -80.830577 
L 82.669325 -80.268914 
L 81.738471 -79.707252 
L 80.807617 -79.145589 
L 79.876763 -78.583927 
L 78.945909 -77.98368 
L 78.015055 -77.454638 
L 77.084201 -76.904201 
L 76.153347 -76.27513 
L 75.222493 -75.715193 
L 74.291639 -75.182821 
L 73.360785 -74.667267 
L 72.429931 -74.138901 
L 71.499077 -73.706441 
L 70.568223 -73.272969 
L 69.637369 -72.830897 
L 68.706515 -72.299677 
L 67.775661 -71.731005 
L 66.844807 -71.25556 
L 65.913953 -70.808254 
L 64.983099 -70.408695 
L 64.052245 -70.081742 
L 63.121391 -69.720035 
L 62.190537 -69.257491 
L 61.259683 -68.842352 
L 60.328829 -68.488824 
L 59.397975 -68.15254 
L 58.467121 -67.954791 
L 57.536267 -67.752269 
L 56.605413 -67.433253 
L 55.674559 -67.190779 
L 54.743705 -67.066174 
L 53.812851 -66.843855 
L 52.881997 -66.702699 
L 51.951143 -66.56955 
L 51.020289 -66.355329 
L 50.089435 -66.187823 
L 49.158581 -66.091019 
L 48.227727 -65.914399 
z
" style="stroke: #ffffff; stroke-opacity: 0.15; stroke-width: 0.8"/>
    </defs>
    <g clip-path="url(#p6f1566d6d3)">
     <use xlink:href="#m952305624f" x="0" y="162" style="fill: #1f77b4; fill-opacity: 0.15; stroke: #ffffff; stroke-opacity: 0.15; stroke-width: 0.8"/>
    </g>
   </g>
   <g id="line2d_15">
    <path d="M 48.227727 100.309314 
L 49.158581 100.079918 
L 50.089435 99.850522 
L 51.020289 99.621125 
L 51.951143 99.391729 
L 52.881997 99.162333 
L 53.812851 98.932937 
L 54.743705 98.70354 
L 55.674559 98.474144 
L 56.605413 98.244748 
L 57.536267 98.015352 
L 58.467121 97.785955 
L 59.397975 97.556559 
L 60.328829 97.327163 
L 61.259683 97.097767 
L 62.190537 96.86837 
L 63.121391 96.638974 
L 64.052245 96.409578 
L 64.983099 96.180182 
L 65.913953 95.950785 
L 66.844807 95.721389 
L 67.775661 95.491993 
L 68.706515 95.262597 
L 69.637369 95.0332 
L 70.568223 94.803804 
L 71.499077 94.574408 
L 72.429931 94.345012 
L 73.360785 94.115615 
L 74.291639 93.886219 
L 75.222493 93.656823 
L 76.153347 93.427427 
L 77.084201 93.19803 
L 78.015055 92.968634 
L 78.945909 92.739238 
L 79.876763 92.509842 
L 80.807617 92.280445 
L 81.738471 92.051049 
L 82.669325 91.821653 
L 83.600179 91.592257 
L 84.531033 91.36286 
L 85.461887 91.133464 
L 86.392741 90.904068 
L 87.323595 90.674672 
L 88.254449 90.445275 
L 89.185303 90.215879 
L 90.116157 89.986483 
L 91.047011 89.757087 
L 91.977865 89.52769 
L 92.908719 89.298294 
L 93.839573 89.068898 
L 94.770427 88.839502 
L 95.701281 88.610105 
L 96.632135 88.380709 
L 97.562989 88.151313 
L 98.493843 87.921917 
L 99.424697 87.69252 
L 100.355551 87.463124 
L 101.286405 87.233728 
L 102.217259 87.004332 
L 103.148113 86.774935 
L 104.078967 86.545539 
L 105.009821 86.316143 
L 105.940675 86.086747 
L 106.871529 85.85735 
L 107.802383 85.627954 
L 108.733237 85.398558 
L 109.664091 85.169162 
L 110.594945 84.939765 
L 111.525799 84.710369 
L 112.456653 84.480973 
L 113.387507 84.251577 
L 114.318361 84.02218 
L 115.249215 83.792784 
L 116.180069 83.563388 
L 117.110923 83.333992 
L 118.041777 83.104595 
L 118.972631 82.875199 
L 119.903485 82.645803 
L 120.834339 82.416407 
L 121.765193 82.18701 
L 122.696047 81.957614 
L 123.626901 81.728218 
L 124.557755 81.498822 
L 125.488609 81.269425 
L 126.419463 81.040029 
L 127.350317 80.810633 
L 128.281171 80.581237 
L 129.212025 80.35184 
L 130.142879 80.122444 
L 131.073733 79.893048 
L 132.004587 79.663652 
L 132.935441 79.434255 
L 133.866295 79.204859 
L 134.797149 78.975463 
L 135.728003 78.746067 
L 136.658857 78.516671 
L 137.589711 78.287274 
L 138.520565 78.057878 
L 139.451419 77.828482 
L 140.382273 77.599086 
" clip-path="url(#p6f1566d6d3)" style="fill: none; stroke: #1f77b4; stroke-width: 1.8; stroke-linecap: round"/>
   </g>
   <g id="patch_3">
    <path d="M 43.62 120.18 
L 43.62 24 
" style="fill: none; stroke: #cccccc; stroke-linejoin: miter; stroke-linecap: square"/>
   </g>
   <g id="patch_4">
    <path d="M 144.99 120.18 
L 144.99 24 
" style="fill: none; stroke: #cccccc; stroke-linejoin: miter; stroke-linecap: square"/>
   </g>
   <g id="patch_5">
    <path d="M 43.62 120.18 
L 144.99 120.18 
" style="fill: none; stroke: #cccccc; stroke-linejoin: miter; stroke-linecap: square"/>
   </g>
   <g id="patch_6">
    <path d="M 43.62 24 
L 144.99 24 
" style="fill: none; stroke: #cccccc; stroke-linejoin: miter; stroke-linecap: square"/>
   </g>
   <g id="text_17">
    <!-- rho = 0.22 -->
    <g style="fill: #262626" transform="translate(104.442 35.982437) scale(0.1 -0.1)">
     <defs>
      <path id="Helvetica-72" d="M 428 3347 
L 963 3347 
L 963 2769 
Q 1028 2938 1284 3180 
Q 1541 3422 1875 3422 
Q 1891 3422 1928 3419 
Q 1966 3416 2056 3406 
L 2056 2813 
Q 2006 2822 1964 2825 
Q 1922 2828 1872 2828 
Q 1447 2828 1219 2554 
Q 991 2281 991 1925 
L 991 0 
L 428 0 
L 428 3347 
z
" transform="scale(0.015625)"/>
      <path id="Helvetica-3d" d="M 3547 2569 
L 3547 2044 
L 288 2044 
L 288 2569 
L 3547 2569 
z
M 3547 1228 
L 3547 694 
L 288 694 
L 288 1228 
L 3547 1228 
z
" transform="scale(0.015625)"/>
      <path id="Helvetica-2e" d="M 547 681 
L 1200 681 
L 1200 0 
L 547 0 
L 547 681 
z
" transform="scale(0.015625)"/>
     </defs>
     <use xlink:href="#Helvetica-72"/>
     <use xlink:href="#Helvetica-68" transform="translate(33.300781 0)"/>
     <use xlink:href="#Helvetica-6f" transform="translate(88.916016 0)"/>
     <use xlink:href="#Helvetica-20" transform="translate(144.53125 0)"/>
     <use xlink:href="#Helvetica-3d" transform="translate(172.314453 0)"/>
     <use xlink:href="#Helvetica-20" transform="translate(230.712891 0)"/>
     <use xlink:href="#Helvetica-30" transform="translate(258.496094 0)"/>
     <use xlink:href="#Helvetica-2e" transform="translate(314.111328 0)"/>
     <use xlink:href="#Helvetica-32" transform="translate(341.894531 0)"/>
     <use xlink:href="#Helvetica-32" transform="translate(397.509766 0)"/>
    </g>
    <!-- p = 1.37e-02 -->
    <g style="fill: #262626" transform="translate(104.442 46.674937) scale(0.1 -0.1)">
     <defs>
      <path id="Helvetica-70" d="M 1825 378 
Q 2219 378 2480 708 
Q 2741 1038 2741 1694 
Q 2741 2094 2625 2381 
Q 2406 2934 1825 2934 
Q 1241 2934 1025 2350 
Q 909 2038 909 1556 
Q 909 1169 1025 897 
Q 1244 378 1825 378 
z
M 369 3331 
L 916 3331 
L 916 2888 
Q 1084 3116 1284 3241 
Q 1569 3428 1953 3428 
Q 2522 3428 2919 2992 
Q 3316 2556 3316 1747 
Q 3316 653 2744 184 
Q 2381 -113 1900 -113 
Q 1522 -113 1266 53 
Q 1116 147 931 375 
L 931 -1334 
L 369 -1334 
L 369 3331 
z
" transform="scale(0.015625)"/>
      <path id="Helvetica-2d" d="M 266 2072 
L 1834 2072 
L 1834 1494 
L 266 1494 
L 266 2072 
z
" transform="scale(0.015625)"/>
     </defs>
     <use xlink:href="#Helvetica-70"/>
     <use xlink:href="#Helvetica-20" transform="translate(55.615234 0)"/>
     <use xlink:href="#Helvetica-3d" transform="translate(83.398438 0)"/>
     <use xlink:href="#Helvetica-20" transform="translate(141.796875 0)"/>
     <use xlink:href="#Helvetica-31" transform="translate(169.580078 0)"/>
     <use xlink:href="#Helvetica-2e" transform="translate(225.195312 0)"/>
     <use xlink:href="#Helvetica-33" transform="translate(252.978516 0)"/>
     <use xlink:href="#Helvetica-37" transform="translate(308.59375 0)"/>
     <use xlink:href="#Helvetica-65" transform="translate(364.208984 0)"/>
     <use xlink:href="#Helvetica-2d" transform="translate(419.824219 0)"/>
     <use xlink:href="#Helvetica-30" transform="translate(453.125 0)"/>
     <use xlink:href="#Helvetica-32" transform="translate(508.740234 0)"/>
    </g>
   </g>
   <g id="text_18">
    <!-- AF3 (no templates) vs agonist length -->
    <g style="fill: #262626" transform="translate(12.88 18) scale(0.1 -0.1)">
     <defs>
      <path id="Helvetica-41" d="M 2844 1881 
L 2147 3909 
L 1406 1881 
L 2844 1881 
z
M 1822 4591 
L 2525 4591 
L 4191 0 
L 3509 0 
L 3044 1375 
L 1228 1375 
L 731 0 
L 94 0 
L 1822 4591 
z
" transform="scale(0.015625)"/>
      <path id="Helvetica-46" d="M 547 4591 
L 3731 4591 
L 3731 4028 
L 1169 4028 
L 1169 2634 
L 3422 2634 
L 3422 2088 
L 1169 2088 
L 1169 0 
L 547 0 
L 547 4591 
z
" transform="scale(0.015625)"/>
      <path id="Helvetica-28" d="M 1894 4666 
Q 1403 3713 1256 3263 
Q 1034 2578 1034 1681 
Q 1034 775 1288 25 
Q 1444 -438 1903 -1306 
L 1525 -1306 
Q 1069 -594 959 -397 
Q 850 -200 722 138 
Q 547 600 478 1125 
Q 444 1397 444 1644 
Q 444 2569 734 3291 
Q 919 3750 1503 4666 
L 1894 4666 
z
" transform="scale(0.015625)"/>
      <path id="Helvetica-6d" d="M 413 3347 
L 969 3347 
L 969 2872 
Q 1169 3119 1331 3231 
Q 1609 3422 1963 3422 
Q 2363 3422 2606 3225 
Q 2744 3113 2856 2894 
Q 3044 3163 3297 3292 
Q 3550 3422 3866 3422 
Q 4541 3422 4784 2934 
Q 4916 2672 4916 2228 
L 4916 0 
L 4331 0 
L 4331 2325 
Q 4331 2659 4164 2784 
Q 3997 2909 3756 2909 
Q 3425 2909 3186 2687 
Q 2947 2466 2947 1947 
L 2947 0 
L 2375 0 
L 2375 2184 
Q 2375 2525 2294 2681 
Q 2166 2916 1816 2916 
Q 1497 2916 1236 2669 
Q 975 2422 975 1775 
L 975 0 
L 413 0 
L 413 3347 
z
" transform="scale(0.015625)"/>
      <path id="Helvetica-29" d="M 222 -1306 
Q 719 -338 863 106 
Q 1081 778 1081 1681 
Q 1081 2584 828 3334 
Q 672 3797 213 4666 
L 591 4666 
Q 1072 3897 1173 3717 
Q 1275 3538 1394 3222 
Q 1544 2831 1608 2450 
Q 1672 2069 1672 1716 
Q 1672 791 1378 66 
Q 1194 -400 613 -1306 
L 222 -1306 
z
" transform="scale(0.015625)"/>
      <path id="Helvetica-76" d="M 688 3347 
L 1581 622 
L 2516 3347 
L 3131 3347 
L 1869 0 
L 1269 0 
L 34 3347 
L 688 3347 
z
" transform="scale(0.015625)"/>
     </defs>
     <use xlink:href="#Helvetica-41"/>
     <use xlink:href="#Helvetica-46" transform="translate(66.699219 0)"/>
     <use xlink:href="#Helvetica-33" transform="translate(127.783203 0)"/>
     <use xlink:href="#Helvetica-20" transform="translate(183.398438 0)"/>
     <use xlink:href="#Helvetica-28" transform="translate(211.181641 0)"/>
     <use xlink:href="#Helvetica-6e" transform="translate(244.482422 0)"/>
     <use xlink:href="#Helvetica-6f" transform="translate(300.097656 0)"/>
     <use xlink:href="#Helvetica-20" transform="translate(355.712891 0)"/>
     <use xlink:href="#Helvetica-74" transform="translate(383.496094 0)"/>
     <use xlink:href="#Helvetica-65" transform="translate(411.279297 0)"/>
     <use xlink:href="#Helvetica-6d" transform="translate(466.894531 0)"/>
     <use xlink:href="#Helvetica-70" transform="translate(550.195312 0)"/>
     <use xlink:href="#Helvetica-6c" transform="translate(605.810547 0)"/>
     <use xlink:href="#Helvetica-61" transform="translate(628.027344 0)"/>
     <use xlink:href="#Helvetica-74" transform="translate(683.642578 0)"/>
     <use xlink:href="#Helvetica-65" transform="translate(711.425781 0)"/>
     <use xlink:href="#Helvetica-73" transform="translate(767.041016 0)"/>
     <use xlink:href="#Helvetica-29" transform="translate(817.041016 0)"/>
     <use xlink:href="#Helvetica-20" transform="translate(850.341797 0)"/>
     <use xlink:href="#Helvetica-76" transform="translate(878.125 0)"/>
     <use xlink:href="#Helvetica-73" transform="translate(928.125 0)"/>
     <use xlink:href="#Helvetica-20" transform="translate(978.125 0)"/>
     <use xlink:href="#Helvetica-61" transform="translate(1005.908203 0)"/>
     <use xlink:href="#Helvetica-67" transform="translate(1061.523438 0)"/>
     <use xlink:href="#Helvetica-6f" transform="translate(1117.138672 0)"/>
     <use xlink:href="#Helvetica-6e" transform="translate(1172.753906 0)"/>
     <use xlink:href="#Helvetica-69" transform="translate(1228.369141 0)"/>
     <use xlink:href="#Helvetica-73" transform="translate(1250.585938 0)"/>
     <use xlink:href="#Helvetica-74" transform="translate(1300.585938 0)"/>
     <use xlink:href="#Helvetica-20" transform="translate(1328.369141 0)"/>
     <use xlink:href="#Helvetica-6c" transform="translate(1356.152344 0)"/>
     <use xlink:href="#Helvetica-65" transform="translate(1378.369141 0)"/>
     <use xlink:href="#Helvetica-6e" transform="translate(1433.984375 0)"/>
     <use xlink:href="#Helvetica-67" transform="translate(1489.599609 0)"/>
     <use xlink:href="#Helvetica-74" transform="translate(1545.214844 0)"/>
     <use xlink:href="#Helvetica-68" transform="translate(1572.998047 0)"/>
    </g>
   </g>
  </g>
 </g>
 <defs>
  <clipPath id="p6f1566d6d3">
   <rect x="43.62" y="24" width="101.37" height="96.18"/>
  </clipPath>
 </defs>
</svg>
