<?xml version="1.0" encoding="utf-8" standalone="no"?>
<!DOCTYPE svg PUBLIC "-//W3C//DTD SVG 1.1//EN"
  "http://www.w3.org/Graphics/SVG/1.1/DTD/svg11.dtd">
<svg xmlns:xlink="http://www.w3.org/1999/xlink" width="162pt" height="162pt" viewBox="0 0 162 162" xmlns="http://www.w3.org/2000/svg" version="1.1">
 <metadata>
  <rdf:RDF xmlns:dc="http://purl.org/dc/elements/1.1/" xmlns:cc="http://creativecommons.org/ns#" xmlns:rdf="http://www.w3.org/1999/02/22-rdf-syntax-ns#">
   <cc:Work>
    <dc:type rdf:resource="http://purl.org/dc/dcmitype/StillImage"/>
    <dc:date>2025-03-07T14:31:23.815967</dc:date>
    <dc:format>image/svg+xml</dc:format>
    <dc:creator>
     <cc:Agent>
      <dc:title>Matplotlib v3.10.0, https://matplotlib.org/</dc:title>
     </cc:Agent>
    </dc:creator>
   </cc:Work>
  </rdf:RDF>
 </metadata>
 <defs>
  <style type="text/css">*{stroke-linejoin: round; stroke-linecap: butt}</style>
 </defs>
 <g id="figure_1">
  <g id="patch_1">
   <path d="M 0 162 
L 162 162 
L 162 0 
L 0 0 
z
" style="fill: #ffffff"/>
  </g>
  <g id="axes_1">
   <g id="patch_2">
    <path d="M 43.62 120.18 
L 145.08 120.18 
L 145.08 24 
L 43.62 24 
z
" style="fill: #ffffff"/>
   </g>
   <g id="matplotlib.axis_1">
    <g id="xtick_1">
     <g id="line2d_1">
      <path d="M 45.925909 120.18 
L 45.925909 24 
" clip-path="url(#pd8e35e898d)" style="fill: none; stroke: #cccccc; stroke-width: 0.8; stroke-linecap: round"/>
     </g>
     <g id="text_1">
      <!-- 6 -->
      <g style="fill: #262626" transform="translate(43.14544 135.653437) scale(0.1 -0.1)">
       <defs>
        <path id="Helvetica-36" d="M 1872 4494 
Q 2622 4494 2917 4105 
Q 3213 3716 3213 3303 
L 2656 3303 
Q 2606 3569 2497 3719 
Q 2294 4000 1881 4000 
Q 1409 4000 1131 3564 
Q 853 3128 822 2316 
Q 1016 2600 1309 2741 
Q 1578 2866 1909 2866 
Q 2472 2866 2890 2506 
Q 3309 2147 3309 1434 
Q 3309 825 2912 354 
Q 2516 -116 1781 -116 
Q 1153 -116 697 361 
Q 241 838 241 1966 
Q 241 2800 444 3381 
Q 834 4494 1872 4494 
z
M 1831 384 
Q 2275 384 2495 682 
Q 2716 981 2716 1388 
Q 2716 1731 2519 2042 
Q 2322 2353 1803 2353 
Q 1441 2353 1167 2112 
Q 894 1872 894 1388 
Q 894 963 1142 673 
Q 1391 384 1831 384 
z
" transform="scale(0.015625)"/>
       </defs>
       <use xlink:href="#Helvetica-36"/>
      </g>
     </g>
    </g>
    <g id="xtick_2">
     <g id="line2d_2">
      <path d="M 92.044091 120.18 
L 92.044091 24 
" clip-path="url(#pd8e35e898d)" style="fill: none; stroke: #cccccc; stroke-width: 0.8; stroke-linecap: round"/>
     </g>
     <g id="text_2">
      <!-- 8 -->
      <g style="fill: #262626" transform="translate(89.263622 135.653437) scale(0.1 -0.1)">
       <defs>
        <path id="Helvetica-38" d="M 1741 2600 
Q 2113 2600 2322 2808 
Q 2531 3016 2531 3303 
Q 2531 3553 2331 3762 
Q 2131 3972 1722 3972 
Q 1316 3972 1134 3762 
Q 953 3553 953 3272 
Q 953 2956 1187 2778 
Q 1422 2600 1741 2600 
z
M 1775 384 
Q 2166 384 2423 595 
Q 2681 806 2681 1225 
Q 2681 1659 2415 1884 
Q 2150 2109 1734 2109 
Q 1331 2109 1076 1879 
Q 822 1650 822 1244 
Q 822 894 1055 639 
Q 1288 384 1775 384 
z
M 975 2384 
Q 741 2484 609 2619 
Q 363 2869 363 3269 
Q 363 3769 725 4128 
Q 1088 4488 1753 4488 
Q 2397 4488 2762 4148 
Q 3128 3809 3128 3356 
Q 3128 2938 2916 2678 
Q 2797 2531 2547 2391 
Q 2825 2263 2984 2097 
Q 3281 1784 3281 1284 
Q 3281 694 2884 283 
Q 2488 -128 1763 -128 
Q 1109 -128 657 226 
Q 206 581 206 1256 
Q 206 1653 400 1942 
Q 594 2231 975 2384 
z
" transform="scale(0.015625)"/>
       </defs>
       <use xlink:href="#Helvetica-38"/>
      </g>
     </g>
    </g>
    <g id="xtick_3">
     <g id="line2d_3">
      <path d="M 138.162273 120.18 
L 138.162273 24 
" clip-path="url(#pd8e35e898d)" style="fill: none; stroke: #cccccc; stroke-width: 0.8; stroke-linecap: round"/>
     </g>
     <g id="text_3">
      <!-- 10 -->
      <g style="fill: #262626" transform="translate(132.601335 135.653437) scale(0.1 -0.1)">
       <defs>
        <path id="Helvetica-31" d="M 613 3169 
L 613 3600 
Q 1222 3659 1462 3798 
Q 1703 3938 1822 4456 
L 2266 4456 
L 2266 0 
L 1666 0 
L 1666 3169 
L 613 3169 
z
" transform="scale(0.015625)"/>
        <path id="Helvetica-30" d="M 1731 4475 
Q 2600 4475 2988 3759 
Q 3288 3206 3288 2244 
Q 3288 1331 3016 734 
Q 2622 -122 1728 -122 
Q 922 -122 528 578 
Q 200 1163 200 2147 
Q 200 2909 397 3456 
Q 766 4475 1731 4475 
z
M 1725 391 
Q 2163 391 2422 778 
Q 2681 1166 2681 2222 
Q 2681 2984 2493 3476 
Q 2306 3969 1766 3969 
Q 1269 3969 1039 3501 
Q 809 3034 809 2125 
Q 809 1441 956 1025 
Q 1181 391 1725 391 
z
" transform="scale(0.015625)"/>
       </defs>
       <use xlink:href="#Helvetica-31"/>
       <use xlink:href="#Helvetica-30" transform="translate(55.615234 0)"/>
      </g>
     </g>
    </g>
    <g id="text_4">
     <!-- pKi -->
     <g style="fill: #262626" transform="translate(87.123438 148.91125) scale(0.1 -0.1)">
      <defs>
       <path id="Helvetica-70" d="M 1825 378 
Q 2219 378 2480 708 
Q 2741 1038 2741 1694 
Q 2741 2094 2625 2381 
Q 2406 2934 1825 2934 
Q 1241 2934 1025 2350 
Q 909 2038 909 1556 
Q 909 1169 1025 897 
Q 1244 378 1825 378 
z
M 369 3331 
L 916 3331 
L 916 2888 
Q 1084 3116 1284 3241 
Q 1569 3428 1953 3428 
Q 2522 3428 2919 2992 
Q 3316 2556 3316 1747 
Q 3316 653 2744 184 
Q 2381 -113 1900 -113 
Q 1522 -113 1266 53 
Q 1116 147 931 375 
L 931 -1334 
L 369 -1334 
L 369 3331 
z
" transform="scale(0.015625)"/>
       <path id="Helvetica-4b" d="M 488 4591 
L 1094 4591 
L 1094 2353 
L 3331 4591 
L 4191 4591 
L 2281 2741 
L 4244 0 
L 3434 0 
L 1828 2303 
L 1094 1600 
L 1094 0 
L 488 0 
L 488 4591 
z
" transform="scale(0.015625)"/>
       <path id="Helvetica-69" d="M 413 3331 
L 984 3331 
L 984 0 
L 413 0 
L 413 3331 
z
M 413 4591 
L 984 4591 
L 984 3953 
L 413 3953 
L 413 4591 
z
" transform="scale(0.015625)"/>
      </defs>
      <use xlink:href="#Helvetica-70"/>
      <use xlink:href="#Helvetica-4b" transform="translate(55.615234 0)"/>
      <use xlink:href="#Helvetica-69" transform="translate(122.314453 0)"/>
     </g>
    </g>
   </g>
   <g id="matplotlib.axis_2">
    <g id="ytick_1">
     <g id="line2d_4">
      <path d="M 43.62 120.18 
L 145.08 120.18 
" clip-path="url(#pd8e35e898d)" style="fill: none; stroke: #cccccc; stroke-width: 0.8; stroke-linecap: round"/>
     </g>
     <g id="text_5">
      <!-- 0 -->
      <g style="fill: #262626" transform="translate(29.759063 123.766719) scale(0.1 -0.1)">
       <use xlink:href="#Helvetica-30"/>
      </g>
     </g>
    </g>
    <g id="ytick_2">
     <g id="line2d_5">
      <path d="M 43.62 111.436364 
L 145.08 111.436364 
" clip-path="url(#pd8e35e898d)" style="fill: none; stroke: #cccccc; stroke-width: 0.8; stroke-linecap: round"/>
     </g>
     <g id="text_6">
      <!-- 1 -->
      <g style="fill: #262626" transform="translate(29.759063 115.023082) scale(0.1 -0.1)">
       <use xlink:href="#Helvetica-31"/>
      </g>
     </g>
    </g>
    <g id="ytick_3">
     <g id="line2d_6">
      <path d="M 43.62 102.692727 
L 145.08 102.692727 
" clip-path="url(#pd8e35e898d)" style="fill: none; stroke: #cccccc; stroke-width: 0.8; stroke-linecap: round"/>
     </g>
     <g id="text_7">
      <!-- 2 -->
      <g style="fill: #262626" transform="translate(29.759063 106.279446) scale(0.1 -0.1)">
       <defs>
        <path id="Helvetica-32" d="M 200 0 
Q 231 578 439 1006 
Q 647 1434 1250 1784 
L 1850 2131 
Q 2253 2366 2416 2531 
Q 2672 2791 2672 3125 
Q 2672 3516 2437 3745 
Q 2203 3975 1813 3975 
Q 1234 3975 1013 3538 
Q 894 3303 881 2888 
L 309 2888 
Q 319 3472 525 3841 
Q 891 4491 1816 4491 
Q 2584 4491 2939 4075 
Q 3294 3659 3294 3150 
Q 3294 2613 2916 2231 
Q 2697 2009 2131 1694 
L 1703 1456 
Q 1397 1288 1222 1134 
Q 909 863 828 531 
L 3272 531 
L 3272 0 
L 200 0 
z
" transform="scale(0.015625)"/>
       </defs>
       <use xlink:href="#Helvetica-32"/>
      </g>
     </g>
    </g>
    <g id="ytick_4">
     <g id="line2d_7">
      <path d="M 43.62 93.949091 
L 145.08 93.949091 
" clip-path="url(#pd8e35e898d)" style="fill: none; stroke: #cccccc; stroke-width: 0.8; stroke-linecap: round"/>
     </g>
     <g id="text_8">
      <!-- 3 -->
      <g style="fill: #262626" transform="translate(29.759063 97.53581) scale(0.1 -0.1)">
       <defs>
        <path id="Helvetica-33" d="M 1663 -122 
Q 869 -122 511 314 
Q 153 750 153 1375 
L 741 1375 
Q 778 941 903 744 
Q 1122 391 1694 391 
Q 2138 391 2406 628 
Q 2675 866 2675 1241 
Q 2675 1703 2392 1887 
Q 2109 2072 1606 2072 
Q 1550 2072 1492 2070 
Q 1434 2069 1375 2066 
L 1375 2563 
Q 1463 2553 1522 2550 
Q 1581 2547 1650 2547 
Q 1966 2547 2169 2647 
Q 2525 2822 2525 3272 
Q 2525 3606 2287 3787 
Q 2050 3969 1734 3969 
Q 1172 3969 956 3594 
Q 838 3388 822 3006 
L 266 3006 
Q 266 3506 466 3856 
Q 809 4481 1675 4481 
Q 2359 4481 2734 4176 
Q 3109 3872 3109 3294 
Q 3109 2881 2888 2625 
Q 2750 2466 2531 2375 
Q 2884 2278 3082 2001 
Q 3281 1725 3281 1325 
Q 3281 684 2859 281 
Q 2438 -122 1663 -122 
z
" transform="scale(0.015625)"/>
       </defs>
       <use xlink:href="#Helvetica-33"/>
      </g>
     </g>
    </g>
    <g id="ytick_5">
     <g id="line2d_8">
      <path d="M 43.62 85.205455 
L 145.08 85.205455 
" clip-path="url(#pd8e35e898d)" style="fill: none; stroke: #cccccc; stroke-width: 0.8; stroke-linecap: round"/>
     </g>
     <g id="text_9">
      <!-- 4 -->
      <g style="fill: #262626" transform="translate(29.759063 88.792173) scale(0.1 -0.1)">
       <defs>
        <path id="Helvetica-34" d="M 2116 1584 
L 2116 3613 
L 681 1584 
L 2116 1584 
z
M 2125 0 
L 2125 1094 
L 163 1094 
L 163 1644 
L 2213 4488 
L 2688 4488 
L 2688 1584 
L 3347 1584 
L 3347 1094 
L 2688 1094 
L 2688 0 
L 2125 0 
z
" transform="scale(0.015625)"/>
       </defs>
       <use xlink:href="#Helvetica-34"/>
      </g>
     </g>
    </g>
    <g id="ytick_6">
     <g id="line2d_9">
      <path d="M 43.62 76.461818 
L 145.08 76.461818 
" clip-path="url(#pd8e35e898d)" style="fill: none; stroke: #cccccc; stroke-width: 0.8; stroke-linecap: round"/>
     </g>
     <g id="text_10">
      <!-- 5 -->
      <g style="fill: #262626" transform="translate(29.759063 80.048537) scale(0.1 -0.1)">
       <defs>
        <path id="Helvetica-35" d="M 791 1141 
Q 847 659 1238 475 
Q 1438 381 1700 381 
Q 2200 381 2440 700 
Q 2681 1019 2681 1406 
Q 2681 1875 2395 2131 
Q 2109 2388 1709 2388 
Q 1419 2388 1211 2275 
Q 1003 2163 856 1963 
L 369 1991 
L 709 4400 
L 3034 4400 
L 3034 3856 
L 1131 3856 
L 941 2613 
Q 1097 2731 1238 2791 
Q 1488 2894 1816 2894 
Q 2431 2894 2859 2497 
Q 3288 2100 3288 1491 
Q 3288 856 2895 371 
Q 2503 -113 1644 -113 
Q 1097 -113 676 195 
Q 256 503 206 1141 
L 791 1141 
z
" transform="scale(0.015625)"/>
       </defs>
       <use xlink:href="#Helvetica-35"/>
      </g>
     </g>
    </g>
    <g id="ytick_7">
     <g id="line2d_10">
      <path d="M 43.62 67.718182 
L 145.08 67.718182 
" clip-path="url(#pd8e35e898d)" style="fill: none; stroke: #cccccc; stroke-width: 0.8; stroke-linecap: round"/>
     </g>
     <g id="text_11">
      <!-- 6 -->
      <g style="fill: #262626" transform="translate(29.759063 71.304901) scale(0.1 -0.1)">
       <use xlink:href="#Helvetica-36"/>
      </g>
     </g>
    </g>
    <g id="ytick_8">
     <g id="line2d_11">
      <path d="M 43.62 58.974545 
L 145.08 58.974545 
" clip-path="url(#pd8e35e898d)" style="fill: none; stroke: #cccccc; stroke-width: 0.8; stroke-linecap: round"/>
     </g>
     <g id="text_12">
      <!-- 7 -->
      <g style="fill: #262626" transform="translate(29.759063 62.561264) scale(0.1 -0.1)">
       <defs>
        <path id="Helvetica-37" d="M 3347 4400 
L 3347 3909 
Q 3131 3700 2773 3181 
Q 2416 2663 2141 2063 
Q 1869 1478 1728 997 
Q 1638 688 1494 0 
L 872 0 
Q 1084 1281 1809 2550 
Q 2238 3294 2709 3834 
L 234 3834 
L 234 4400 
L 3347 4400 
z
" transform="scale(0.015625)"/>
       </defs>
       <use xlink:href="#Helvetica-37"/>
      </g>
     </g>
    </g>
    <g id="ytick_9">
     <g id="line2d_12">
      <path d="M 43.62 50.230909 
L 145.08 50.230909 
" clip-path="url(#pd8e35e898d)" style="fill: none; stroke: #cccccc; stroke-width: 0.8; stroke-linecap: round"/>
     </g>
     <g id="text_13">
      <!-- 8 -->
      <g style="fill: #262626" transform="translate(29.759063 53.817628) scale(0.1 -0.1)">
       <use xlink:href="#Helvetica-38"/>
      </g>
     </g>
    </g>
    <g id="ytick_10">
     <g id="line2d_13">
      <path d="M 43.62 41.487273 
L 145.08 41.487273 
" clip-path="url(#pd8e35e898d)" style="fill: none; stroke: #cccccc; stroke-width: 0.8; stroke-linecap: round"/>
     </g>
     <g id="text_14">
      <!-- 9 -->
      <g style="fill: #262626" transform="translate(29.759063 45.073991) scale(0.1 -0.1)">
       <defs>
        <path id="Helvetica-39" d="M 850 1081 
Q 875 616 1209 438 
Q 1381 344 1597 344 
Q 2000 344 2284 680 
Q 2569 1016 2688 2044 
Q 2500 1747 2223 1626 
Q 1947 1506 1628 1506 
Q 981 1506 604 1909 
Q 228 2313 228 2947 
Q 228 3556 600 4018 
Q 972 4481 1697 4481 
Q 2675 4481 3047 3600 
Q 3253 3116 3253 2388 
Q 3253 1566 3006 931 
Q 2597 -125 1619 -125 
Q 963 -125 622 219 
Q 281 563 281 1081 
L 850 1081 
z
M 1703 2000 
Q 2038 2000 2314 2220 
Q 2591 2441 2591 2991 
Q 2591 3484 2342 3726 
Q 2094 3969 1709 3969 
Q 1297 3969 1055 3692 
Q 813 3416 813 2953 
Q 813 2516 1025 2258 
Q 1238 2000 1703 2000 
z
" transform="scale(0.015625)"/>
       </defs>
       <use xlink:href="#Helvetica-39"/>
      </g>
     </g>
    </g>
    <g id="ytick_11">
     <g id="line2d_14">
      <path d="M 43.62 32.743636 
L 145.08 32.743636 
" clip-path="url(#pd8e35e898d)" style="fill: none; stroke: #cccccc; stroke-width: 0.8; stroke-linecap: round"/>
     </g>
     <g id="text_15">
      <!-- 10 -->
      <g style="fill: #262626" transform="translate(24.198125 36.330355) scale(0.1 -0.1)">
       <use xlink:href="#Helvetica-31"/>
       <use xlink:href="#Helvetica-30" transform="translate(55.615234 0)"/>
      </g>
     </g>
    </g>
    <g id="ytick_12">
     <g id="line2d_15">
      <path d="M 43.62 24 
L 145.08 24 
" clip-path="url(#pd8e35e898d)" style="fill: none; stroke: #cccccc; stroke-width: 0.8; stroke-linecap: round"/>
     </g>
     <g id="text_16">
      <!-- 11 -->
      <g style="fill: #262626" transform="translate(24.198125 27.586719) scale(0.1 -0.1)">
       <use xlink:href="#Helvetica-31"/>
       <use xlink:href="#Helvetica-31" transform="translate(55.615234 0)"/>
      </g>
     </g>
    </g>
    <g id="text_17">
     <!-- Rank -->
     <g style="fill: #262626" transform="translate(18.11375 83.761875) rotate(-90) scale(0.1 -0.1)">
      <defs>
       <path id="Helvetica-52" d="M 2622 2488 
Q 3059 2488 3314 2663 
Q 3569 2838 3569 3294 
Q 3569 3784 3213 3963 
Q 3022 4056 2703 4056 
L 1184 4056 
L 1184 2488 
L 2622 2488 
z
M 563 4591 
L 2688 4591 
Q 3213 4591 3553 4438 
Q 4200 4144 4200 3353 
Q 4200 2941 4029 2678 
Q 3859 2416 3553 2256 
Q 3822 2147 3958 1969 
Q 4094 1791 4109 1391 
L 4131 775 
Q 4141 513 4175 384 
Q 4231 166 4375 103 
L 4375 0 
L 3613 0 
Q 3581 59 3562 153 
Q 3544 247 3531 516 
L 3494 1281 
Q 3472 1731 3159 1884 
Q 2981 1969 2600 1969 
L 1184 1969 
L 1184 0 
L 563 0 
L 563 4591 
z
" transform="scale(0.015625)"/>
       <path id="Helvetica-61" d="M 844 891 
Q 844 647 1022 506 
Q 1200 366 1444 366 
Q 1741 366 2019 503 
Q 2488 731 2488 1250 
L 2488 1703 
Q 2384 1638 2221 1594 
Q 2059 1550 1903 1531 
L 1563 1488 
Q 1256 1447 1103 1359 
Q 844 1213 844 891 
z
M 2206 2028 
Q 2400 2053 2466 2191 
Q 2503 2266 2503 2406 
Q 2503 2694 2298 2823 
Q 2094 2953 1713 2953 
Q 1272 2953 1088 2716 
Q 984 2584 953 2325 
L 428 2325 
Q 444 2944 830 3186 
Q 1216 3428 1725 3428 
Q 2316 3428 2684 3203 
Q 3050 2978 3050 2503 
L 3050 575 
Q 3050 488 3086 434 
Q 3122 381 3238 381 
Q 3275 381 3322 386 
Q 3369 391 3422 400 
L 3422 -16 
Q 3291 -53 3222 -62 
Q 3153 -72 3034 -72 
Q 2744 -72 2613 134 
Q 2544 244 2516 444 
Q 2344 219 2022 53 
Q 1700 -113 1313 -113 
Q 847 -113 551 170 
Q 256 453 256 878 
Q 256 1344 547 1600 
Q 838 1856 1309 1916 
L 2206 2028 
z
M 1741 3428 
L 1741 3428 
z
" transform="scale(0.015625)"/>
       <path id="Helvetica-6e" d="M 413 3347 
L 947 3347 
L 947 2872 
Q 1184 3166 1450 3294 
Q 1716 3422 2041 3422 
Q 2753 3422 3003 2925 
Q 3141 2653 3141 2147 
L 3141 0 
L 2569 0 
L 2569 2109 
Q 2569 2416 2478 2603 
Q 2328 2916 1934 2916 
Q 1734 2916 1606 2875 
Q 1375 2806 1200 2600 
Q 1059 2434 1017 2257 
Q 975 2081 975 1753 
L 975 0 
L 413 0 
L 413 3347 
z
M 1734 3428 
L 1734 3428 
z
" transform="scale(0.015625)"/>
       <path id="Helvetica-6b" d="M 400 4591 
L 941 4591 
L 941 1925 
L 2384 3347 
L 3103 3347 
L 1822 2094 
L 3175 0 
L 2456 0 
L 1413 1688 
L 941 1256 
L 941 0 
L 400 0 
L 400 4591 
z
" transform="scale(0.015625)"/>
      </defs>
      <use xlink:href="#Helvetica-52"/>
      <use xlink:href="#Helvetica-61" transform="translate(72.216797 0)"/>
      <use xlink:href="#Helvetica-6e" transform="translate(127.832031 0)"/>
      <use xlink:href="#Helvetica-6b" transform="translate(183.447266 0)"/>
     </g>
    </g>
   </g>
   <g id="PathCollection_1">
    <defs>
     <path id="m5b958b116f" d="M 0 2.4 
C 0.636487 2.4 1.246992 2.147121 1.697056 1.697056 
C 2.147121 1.246992 2.4 0.636487 2.4 0 
C 2.4 -0.636487 2.147121 -1.246992 1.697056 -1.697056 
C 1.246992 -2.147121 0.636487 -2.4 0 -2.4 
C -0.636487 -2.4 -1.246992 -2.147121 -1.697056 -1.697056 
C -2.147121 -1.246992 -2.4 -0.636487 -2.4 0 
C -2.4 0.636487 -2.147121 1.246992 -1.697056 1.697056 
C -1.246992 2.147121 -0.636487 2.4 0 2.4 
z
" style="stroke: #1f77b4; stroke-opacity: 0.5"/>
    </defs>
    <g clip-path="url(#pd8e35e898d)">
     <use xlink:href="#m5b958b116f" x="115.103182" y="95.124997" style="fill: #1f77b4; fill-opacity: 0.5; stroke: #1f77b4; stroke-opacity: 0.5"/>
     <use xlink:href="#m5b958b116f" x="133.550455" y="110.302452" style="fill: #1f77b4; fill-opacity: 0.5; stroke: #1f77b4; stroke-opacity: 0.5"/>
     <use xlink:href="#m5b958b116f" x="126.632727" y="110.399712" style="fill: #1f77b4; fill-opacity: 0.5; stroke: #1f77b4; stroke-opacity: 0.5"/>
     <use xlink:href="#m5b958b116f" x="104.726591" y="112.009592" style="fill: #1f77b4; fill-opacity: 0.5; stroke: #1f77b4; stroke-opacity: 0.5"/>
     <use xlink:href="#m5b958b116f" x="110.491364" y="113.03128" style="fill: #1f77b4; fill-opacity: 0.5; stroke: #1f77b4; stroke-opacity: 0.5"/>
     <use xlink:href="#m5b958b116f" x="118.562045" y="101.690884" style="fill: #1f77b4; fill-opacity: 0.5; stroke: #1f77b4; stroke-opacity: 0.5"/>
     <use xlink:href="#m5b958b116f" x="133.550455" y="102.345968" style="fill: #1f77b4; fill-opacity: 0.5; stroke: #1f77b4; stroke-opacity: 0.5"/>
     <use xlink:href="#m5b958b116f" x="117.409091" y="112.85989" style="fill: #1f77b4; fill-opacity: 0.5; stroke: #1f77b4; stroke-opacity: 0.5"/>
     <use xlink:href="#m5b958b116f" x="119.715" y="111.239913" style="fill: #1f77b4; fill-opacity: 0.5; stroke: #1f77b4; stroke-opacity: 0.5"/>
     <use xlink:href="#m5b958b116f" x="112.797273" y="95.249202" style="fill: #1f77b4; fill-opacity: 0.5; stroke: #1f77b4; stroke-opacity: 0.5"/>
     <use xlink:href="#m5b958b116f" x="112.797273" y="110.626833" style="fill: #1f77b4; fill-opacity: 0.5; stroke: #1f77b4; stroke-opacity: 0.5"/>
     <use xlink:href="#m5b958b116f" x="125.479773" y="110.299282" style="fill: #1f77b4; fill-opacity: 0.5; stroke: #1f77b4; stroke-opacity: 0.5"/>
     <use xlink:href="#m5b958b116f" x="124.326818" y="111.127106" style="fill: #1f77b4; fill-opacity: 0.5; stroke: #1f77b4; stroke-opacity: 0.5"/>
     <use xlink:href="#m5b958b116f" x="92.044091" y="103.37328" style="fill: #1f77b4; fill-opacity: 0.5; stroke: #1f77b4; stroke-opacity: 0.5"/>
     <use xlink:href="#m5b958b116f" x="111.644318" y="95.224419" style="fill: #1f77b4; fill-opacity: 0.5; stroke: #1f77b4; stroke-opacity: 0.5"/>
     <use xlink:href="#m5b958b116f" x="110.491364" y="110.107815" style="fill: #1f77b4; fill-opacity: 0.5; stroke: #1f77b4; stroke-opacity: 0.5"/>
     <use xlink:href="#m5b958b116f" x="123.173864" y="110.774606" style="fill: #1f77b4; fill-opacity: 0.5; stroke: #1f77b4; stroke-opacity: 0.5"/>
     <use xlink:href="#m5b958b116f" x="116.256136" y="110.941528" style="fill: #1f77b4; fill-opacity: 0.5; stroke: #1f77b4; stroke-opacity: 0.5"/>
     <use xlink:href="#m5b958b116f" x="101.267727" y="104.269484" style="fill: #1f77b4; fill-opacity: 0.5; stroke: #1f77b4; stroke-opacity: 0.5"/>
     <use xlink:href="#m5b958b116f" x="119.715" y="112.182387" style="fill: #1f77b4; fill-opacity: 0.5; stroke: #1f77b4; stroke-opacity: 0.5"/>
     <use xlink:href="#m5b958b116f" x="48.231818" y="103.190768" style="fill: #1f77b4; fill-opacity: 0.5; stroke: #1f77b4; stroke-opacity: 0.5"/>
     <use xlink:href="#m5b958b116f" x="120.867955" y="102.477318" style="fill: #1f77b4; fill-opacity: 0.5; stroke: #1f77b4; stroke-opacity: 0.5"/>
     <use xlink:href="#m5b958b116f" x="104.726591" y="104.281636" style="fill: #1f77b4; fill-opacity: 0.5; stroke: #1f77b4; stroke-opacity: 0.5"/>
     <use xlink:href="#m5b958b116f" x="102.420682" y="85.127068" style="fill: #1f77b4; fill-opacity: 0.5; stroke: #1f77b4; stroke-opacity: 0.5"/>
     <use xlink:href="#m5b958b116f" x="118.562045" y="113.168123" style="fill: #1f77b4; fill-opacity: 0.5; stroke: #1f77b4; stroke-opacity: 0.5"/>
     <use xlink:href="#m5b958b116f" x="131.244545" y="110.555088" style="fill: #1f77b4; fill-opacity: 0.5; stroke: #1f77b4; stroke-opacity: 0.5"/>
     <use xlink:href="#m5b958b116f" x="116.256136" y="111.979011" style="fill: #1f77b4; fill-opacity: 0.5; stroke: #1f77b4; stroke-opacity: 0.5"/>
     <use xlink:href="#m5b958b116f" x="124.326818" y="94.173502" style="fill: #1f77b4; fill-opacity: 0.5; stroke: #1f77b4; stroke-opacity: 0.5"/>
     <use xlink:href="#m5b958b116f" x="55.149545" y="92.352551" style="fill: #1f77b4; fill-opacity: 0.5; stroke: #1f77b4; stroke-opacity: 0.5"/>
     <use xlink:href="#m5b958b116f" x="122.020909" y="104.284174" style="fill: #1f77b4; fill-opacity: 0.5; stroke: #1f77b4; stroke-opacity: 0.5"/>
     <use xlink:href="#m5b958b116f" x="139.315227" y="103.860883" style="fill: #1f77b4; fill-opacity: 0.5; stroke: #1f77b4; stroke-opacity: 0.5"/>
     <use xlink:href="#m5b958b116f" x="90.891136" y="75.47865" style="fill: #1f77b4; fill-opacity: 0.5; stroke: #1f77b4; stroke-opacity: 0.5"/>
     <use xlink:href="#m5b958b116f" x="85.126364" y="83.50412" style="fill: #1f77b4; fill-opacity: 0.5; stroke: #1f77b4; stroke-opacity: 0.5"/>
     <use xlink:href="#m5b958b116f" x="140.468182" y="110.764822" style="fill: #1f77b4; fill-opacity: 0.5; stroke: #1f77b4; stroke-opacity: 0.5"/>
     <use xlink:href="#m5b958b116f" x="127.785682" y="50.691369" style="fill: #1f77b4; fill-opacity: 0.5; stroke: #1f77b4; stroke-opacity: 0.5"/>
     <use xlink:href="#m5b958b116f" x="128.938636" y="113.140677" style="fill: #1f77b4; fill-opacity: 0.5; stroke: #1f77b4; stroke-opacity: 0.5"/>
     <use xlink:href="#m5b958b116f" x="126.632727" y="109.948953" style="fill: #1f77b4; fill-opacity: 0.5; stroke: #1f77b4; stroke-opacity: 0.5"/>
     <use xlink:href="#m5b958b116f" x="74.749773" y="103.639376" style="fill: #1f77b4; fill-opacity: 0.5; stroke: #1f77b4; stroke-opacity: 0.5"/>
     <use xlink:href="#m5b958b116f" x="103.573636" y="110.679611" style="fill: #1f77b4; fill-opacity: 0.5; stroke: #1f77b4; stroke-opacity: 0.5"/>
     <use xlink:href="#m5b958b116f" x="91.275455" y="104.286858" style="fill: #1f77b4; fill-opacity: 0.5; stroke: #1f77b4; stroke-opacity: 0.5"/>
     <use xlink:href="#m5b958b116f" x="67.832045" y="111.766131" style="fill: #1f77b4; fill-opacity: 0.5; stroke: #1f77b4; stroke-opacity: 0.5"/>
     <use xlink:href="#m5b958b116f" x="119.715" y="110.760448" style="fill: #1f77b4; fill-opacity: 0.5; stroke: #1f77b4; stroke-opacity: 0.5"/>
     <use xlink:href="#m5b958b116f" x="102.036364" y="113.142024" style="fill: #1f77b4; fill-opacity: 0.5; stroke: #1f77b4; stroke-opacity: 0.5"/>
     <use xlink:href="#m5b958b116f" x="117.409091" y="68.193111" style="fill: #1f77b4; fill-opacity: 0.5; stroke: #1f77b4; stroke-opacity: 0.5"/>
     <use xlink:href="#m5b958b116f" x="97.808864" y="109.7363" style="fill: #1f77b4; fill-opacity: 0.5; stroke: #1f77b4; stroke-opacity: 0.5"/>
    </g>
   </g>
   <g id="FillBetweenPolyCollection_1">
    <defs>
     <path id="mb177d19a55" d="M 48.231818 -75.133559 
L 48.231818 -54.013437 
L 49.163499 -54.071371 
L 50.095179 -54.134462 
L 51.02686 -54.228369 
L 51.95854 -54.26897 
L 52.89022 -54.309572 
L 53.821901 -54.352444 
L 54.753581 -54.422623 
L 55.685262 -54.476395 
L 56.616942 -54.519015 
L 57.548623 -54.590094 
L 58.480303 -54.704529 
L 59.411983 -54.761897 
L 60.343664 -54.856438 
L 61.275344 -54.950978 
L 62.207025 -55.008549 
L 63.138705 -55.06089 
L 64.070386 -55.113529 
L 65.002066 -55.166169 
L 65.933747 -55.218808 
L 66.865427 -55.271447 
L 67.797107 -55.325955 
L 68.728788 -55.424429 
L 69.660468 -55.491112 
L 70.592149 -55.563013 
L 71.523829 -55.754594 
L 72.45551 -55.808608 
L 73.38719 -55.805815 
L 74.318871 -55.790085 
L 75.250551 -55.780508 
L 76.182231 -55.799866 
L 77.113912 -55.851137 
L 78.045592 -55.90312 
L 78.977273 -55.958267 
L 79.908953 -56.009692 
L 80.840634 -56.068425 
L 81.772314 -56.180564 
L 82.703994 -56.237689 
L 83.635675 -56.254752 
L 84.567355 -56.273595 
L 85.499036 -56.297992 
L 86.430716 -56.303254 
L 87.362397 -56.318087 
L 88.294077 -56.281051 
L 89.225758 -56.212515 
L 90.157438 -56.247138 
L 91.089118 -56.260122 
L 92.020799 -56.244163 
L 92.952479 -56.225254 
L 93.88416 -56.229042 
L 94.81584 -56.166396 
L 95.747521 -56.158841 
L 96.679201 -56.199404 
L 97.610882 -56.14183 
L 98.542562 -56.189588 
L 99.474242 -56.213427 
L 100.405923 -56.167056 
L 101.337603 -56.044444 
L 102.269284 -56.058276 
L 103.200964 -55.962211 
L 104.132645 -55.895613 
L 105.064325 -55.833627 
L 105.996006 -55.790738 
L 106.927686 -55.647127 
L 107.859366 -55.58711 
L 108.791047 -55.433897 
L 109.722727 -55.388004 
L 110.654408 -55.349805 
L 111.586088 -55.304751 
L 112.517769 -55.260562 
L 113.449449 -55.163952 
L 114.381129 -55.035675 
L 115.31281 -54.849131 
L 116.24449 -54.68077 
L 117.176171 -54.600394 
L 118.107851 -54.520018 
L 119.039532 -54.379653 
L 119.971212 -54.229534 
L 120.902893 -54.09672 
L 121.834573 -53.998466 
L 122.766253 -53.882207 
L 123.697934 -53.725479 
L 124.629614 -53.588015 
L 125.561295 -53.434343 
L 126.492975 -53.271093 
L 127.424656 -53.10516 
L 128.356336 -52.935984 
L 129.288017 -52.784302 
L 130.219697 -52.602525 
L 131.151377 -52.410248 
L 132.083058 -52.238794 
L 133.014738 -52.055594 
L 133.946419 -51.845683 
L 134.878099 -51.649009 
L 135.80978 -51.510181 
L 136.74146 -51.287226 
L 137.67314 -51.065019 
L 138.604821 -50.840898 
L 139.536501 -50.617178 
L 140.468182 -50.393927 
L 140.468182 -64.517083 
L 140.468182 -64.517083 
L 139.536501 -64.46214 
L 138.604821 -64.407197 
L 137.67314 -64.352255 
L 136.74146 -64.297312 
L 135.80978 -64.242369 
L 134.878099 -64.121527 
L 133.946419 -63.997734 
L 133.014738 -63.945599 
L 132.083058 -63.893464 
L 131.151377 -63.840765 
L 130.219697 -63.786019 
L 129.288017 -63.603496 
L 128.356336 -63.507506 
L 127.424656 -63.481767 
L 126.492975 -63.481727 
L 125.561295 -63.484623 
L 124.629614 -63.427224 
L 123.697934 -63.356817 
L 122.766253 -63.254183 
L 121.834573 -63.248444 
L 120.902893 -63.215352 
L 119.971212 -63.175196 
L 119.039532 -63.090937 
L 118.107851 -62.995057 
L 117.176171 -62.96708 
L 116.24449 -62.948976 
L 115.31281 -62.9537 
L 114.381129 -62.972511 
L 113.449449 -62.975684 
L 112.517769 -62.91226 
L 111.586088 -62.894072 
L 110.654408 -62.872336 
L 109.722727 -62.84685 
L 108.791047 -62.878238 
L 107.859366 -63.037818 
L 106.927686 -63.140442 
L 105.996006 -63.243121 
L 105.064325 -63.311673 
L 104.132645 -63.34091 
L 103.200964 -63.360703 
L 102.269284 -63.414392 
L 101.337603 -63.504945 
L 100.405923 -63.610694 
L 99.474242 -63.758486 
L 98.542562 -63.917014 
L 97.610882 -63.963814 
L 96.679201 -64.180261 
L 95.747521 -64.318476 
L 94.81584 -64.495482 
L 93.88416 -64.691792 
L 92.952479 -64.885503 
L 92.020799 -65.028419 
L 91.089118 -65.219048 
L 90.157438 -65.366691 
L 89.225758 -65.55994 
L 88.294077 -65.740424 
L 87.362397 -65.919784 
L 86.430716 -66.127794 
L 85.499036 -66.333721 
L 84.567355 -66.539047 
L 83.635675 -66.741965 
L 82.703994 -66.88844 
L 81.772314 -67.034574 
L 80.840634 -67.24305 
L 79.908953 -67.473119 
L 78.977273 -67.703188 
L 78.045592 -67.933257 
L 77.113912 -68.163325 
L 76.182231 -68.393394 
L 75.250551 -68.617436 
L 74.318871 -68.809319 
L 73.38719 -69.013144 
L 72.45551 -69.239462 
L 71.523829 -69.465759 
L 70.592149 -69.693593 
L 69.660468 -69.939002 
L 68.728788 -70.187287 
L 67.797107 -70.435573 
L 66.865427 -70.683858 
L 65.933747 -70.932144 
L 65.002066 -71.165817 
L 64.070386 -71.397332 
L 63.138705 -71.628847 
L 62.207025 -71.860114 
L 61.275344 -72.07715 
L 60.343664 -72.238683 
L 59.411983 -72.414233 
L 58.480303 -72.639526 
L 57.548623 -72.846316 
L 56.616942 -73.074056 
L 55.685262 -73.3046 
L 54.753581 -73.51213 
L 53.821901 -73.750173 
L 52.89022 -73.988217 
L 51.95854 -74.225567 
L 51.02686 -74.452565 
L 50.095179 -74.679563 
L 49.163499 -74.906561 
L 48.231818 -75.133559 
z
" style="stroke: #ffffff; stroke-opacity: 0.15; stroke-width: 0.8"/>
    </defs>
    <g clip-path="url(#pd8e35e898d)">
     <use xlink:href="#mb177d19a55" x="0" y="162" style="fill: #1f77b4; fill-opacity: 0.15; stroke: #ffffff; stroke-opacity: 0.15; stroke-width: 0.8"/>
    </g>
   </g>
   <g id="line2d_16">
    <path d="M 48.231818 97.888885 
L 49.163499 97.966174 
L 50.095179 98.043463 
L 51.02686 98.120752 
L 51.95854 98.19804 
L 52.89022 98.275329 
L 53.821901 98.352618 
L 54.753581 98.429906 
L 55.685262 98.507195 
L 56.616942 98.584484 
L 57.548623 98.661772 
L 58.480303 98.739061 
L 59.411983 98.81635 
L 60.343664 98.893638 
L 61.275344 98.970927 
L 62.207025 99.048216 
L 63.138705 99.125505 
L 64.070386 99.202793 
L 65.002066 99.280082 
L 65.933747 99.357371 
L 66.865427 99.434659 
L 67.797107 99.511948 
L 68.728788 99.589237 
L 69.660468 99.666525 
L 70.592149 99.743814 
L 71.523829 99.821103 
L 72.45551 99.898392 
L 73.38719 99.97568 
L 74.318871 100.052969 
L 75.250551 100.130258 
L 76.182231 100.207546 
L 77.113912 100.284835 
L 78.045592 100.362124 
L 78.977273 100.439412 
L 79.908953 100.516701 
L 80.840634 100.59399 
L 81.772314 100.671279 
L 82.703994 100.748567 
L 83.635675 100.825856 
L 84.567355 100.903145 
L 85.499036 100.980433 
L 86.430716 101.057722 
L 87.362397 101.135011 
L 88.294077 101.212299 
L 89.225758 101.289588 
L 90.157438 101.366877 
L 91.089118 101.444165 
L 92.020799 101.521454 
L 92.952479 101.598743 
L 93.88416 101.676032 
L 94.81584 101.75332 
L 95.747521 101.830609 
L 96.679201 101.907898 
L 97.610882 101.985186 
L 98.542562 102.062475 
L 99.474242 102.139764 
L 100.405923 102.217052 
L 101.337603 102.294341 
L 102.269284 102.37163 
L 103.200964 102.448919 
L 104.132645 102.526207 
L 105.064325 102.603496 
L 105.996006 102.680785 
L 106.927686 102.758073 
L 107.859366 102.835362 
L 108.791047 102.912651 
L 109.722727 102.989939 
L 110.654408 103.067228 
L 111.586088 103.144517 
L 112.517769 103.221806 
L 113.449449 103.299094 
L 114.381129 103.376383 
L 115.31281 103.453672 
L 116.24449 103.53096 
L 117.176171 103.608249 
L 118.107851 103.685538 
L 119.039532 103.762826 
L 119.971212 103.840115 
L 120.902893 103.917404 
L 121.834573 103.994693 
L 122.766253 104.071981 
L 123.697934 104.14927 
L 124.629614 104.226559 
L 125.561295 104.303847 
L 126.492975 104.381136 
L 127.424656 104.458425 
L 128.356336 104.535713 
L 129.288017 104.613002 
L 130.219697 104.690291 
L 131.151377 104.767579 
L 132.083058 104.844868 
L 133.014738 104.922157 
L 133.946419 104.999446 
L 134.878099 105.076734 
L 135.80978 105.154023 
L 136.74146 105.231312 
L 137.67314 105.3086 
L 138.604821 105.385889 
L 139.536501 105.463178 
L 140.468182 105.540466 
" clip-path="url(#pd8e35e898d)" style="fill: none; stroke: #1f77b4; stroke-width: 1.8; stroke-linecap: round"/>
   </g>
   <g id="patch_3">
    <path d="M 43.62 120.18 
L 43.62 24 
" style="fill: none; stroke: #cccccc; stroke-linejoin: miter; stroke-linecap: square"/>
   </g>
   <g id="patch_4">
    <path d="M 145.08 120.18 
L 145.08 24 
" style="fill: none; stroke: #cccccc; stroke-linejoin: miter; stroke-linecap: square"/>
   </g>
   <g id="patch_5">
    <path d="M 43.62 120.18 
L 145.08 120.18 
" style="fill: none; stroke: #cccccc; stroke-linejoin: miter; stroke-linecap: square"/>
   </g>
   <g id="patch_6">
    <path d="M 43.62 24 
L 145.08 24 
" style="fill: none; stroke: #cccccc; stroke-linejoin: miter; stroke-linecap: square"/>
   </g>
   <g id="text_18">
    <!-- rho = -0.27 -->
    <g style="fill: #262626" transform="translate(104.496 35.982437) scale(0.1 -0.1)">
     <defs>
      <path id="Helvetica-72" d="M 428 3347 
L 963 3347 
L 963 2769 
Q 1028 2938 1284 3180 
Q 1541 3422 1875 3422 
Q 1891 3422 1928 3419 
Q 1966 3416 2056 3406 
L 2056 2813 
Q 2006 2822 1964 2825 
Q 1922 2828 1872 2828 
Q 1447 2828 1219 2554 
Q 991 2281 991 1925 
L 991 0 
L 428 0 
L 428 3347 
z
" transform="scale(0.015625)"/>
      <path id="Helvetica-68" d="M 413 4606 
L 975 4606 
L 975 2894 
Q 1175 3147 1334 3250 
Q 1606 3428 2013 3428 
Q 2741 3428 3000 2919 
Q 3141 2641 3141 2147 
L 3141 0 
L 2563 0 
L 2563 2109 
Q 2563 2478 2469 2650 
Q 2316 2925 1894 2925 
Q 1544 2925 1259 2684 
Q 975 2444 975 1775 
L 975 0 
L 413 0 
L 413 4606 
z
" transform="scale(0.015625)"/>
      <path id="Helvetica-6f" d="M 1741 363 
Q 2300 363 2508 786 
Q 2716 1209 2716 1728 
Q 2716 2197 2566 2491 
Q 2328 2953 1747 2953 
Q 1231 2953 997 2559 
Q 763 2166 763 1609 
Q 763 1075 997 719 
Q 1231 363 1741 363 
z
M 1763 3444 
Q 2409 3444 2856 3012 
Q 3303 2581 3303 1744 
Q 3303 934 2909 406 
Q 2516 -122 1688 -122 
Q 997 -122 590 345 
Q 184 813 184 1600 
Q 184 2444 612 2944 
Q 1041 3444 1763 3444 
z
M 1744 3428 
L 1744 3428 
z
" transform="scale(0.015625)"/>
      <path id="Helvetica-20" transform="scale(0.015625)"/>
      <path id="Helvetica-3d" d="M 3547 2569 
L 3547 2044 
L 288 2044 
L 288 2569 
L 3547 2569 
z
M 3547 1228 
L 3547 694 
L 288 694 
L 288 1228 
L 3547 1228 
z
" transform="scale(0.015625)"/>
      <path id="Helvetica-2d" d="M 266 2072 
L 1834 2072 
L 1834 1494 
L 266 1494 
L 266 2072 
z
" transform="scale(0.015625)"/>
      <path id="Helvetica-2e" d="M 547 681 
L 1200 681 
L 1200 0 
L 547 0 
L 547 681 
z
" transform="scale(0.015625)"/>
     </defs>
     <use xlink:href="#Helvetica-72"/>
     <use xlink:href="#Helvetica-68" transform="translate(33.300781 0)"/>
     <use xlink:href="#Helvetica-6f" transform="translate(88.916016 0)"/>
     <use xlink:href="#Helvetica-20" transform="translate(144.53125 0)"/>
     <use xlink:href="#Helvetica-3d" transform="translate(172.314453 0)"/>
     <use xlink:href="#Helvetica-20" transform="translate(230.712891 0)"/>
     <use xlink:href="#Helvetica-2d" transform="translate(258.496094 0)"/>
     <use xlink:href="#Helvetica-30" transform="translate(291.796875 0)"/>
     <use xlink:href="#Helvetica-2e" transform="translate(347.412109 0)"/>
     <use xlink:href="#Helvetica-32" transform="translate(375.195312 0)"/>
     <use xlink:href="#Helvetica-37" transform="translate(430.810547 0)"/>
    </g>
    <!-- p = 7.06e-02 -->
    <g style="fill: #262626" transform="translate(104.496 46.674937) scale(0.1 -0.1)">
     <defs>
      <path id="Helvetica-65" d="M 1806 3422 
Q 2163 3422 2497 3255 
Q 2831 3088 3006 2822 
Q 3175 2569 3231 2231 
Q 3281 2000 3281 1494 
L 828 1494 
Q 844 984 1069 676 
Q 1294 369 1766 369 
Q 2206 369 2469 659 
Q 2619 828 2681 1050 
L 3234 1050 
Q 3213 866 3089 639 
Q 2966 413 2813 269 
Q 2556 19 2178 -69 
Q 1975 -119 1719 -119 
Q 1094 -119 659 336 
Q 225 791 225 1609 
Q 225 2416 662 2919 
Q 1100 3422 1806 3422 
z
M 2703 1941 
Q 2669 2306 2544 2525 
Q 2313 2931 1772 2931 
Q 1384 2931 1121 2651 
Q 859 2372 844 1941 
L 2703 1941 
z
M 1753 3428 
L 1753 3428 
z
" transform="scale(0.015625)"/>
     </defs>
     <use xlink:href="#Helvetica-70"/>
     <use xlink:href="#Helvetica-20" transform="translate(55.615234 0)"/>
     <use xlink:href="#Helvetica-3d" transform="translate(83.398438 0)"/>
     <use xlink:href="#Helvetica-20" transform="translate(141.796875 0)"/>
     <use xlink:href="#Helvetica-37" transform="translate(169.580078 0)"/>
     <use xlink:href="#Helvetica-2e" transform="translate(225.195312 0)"/>
     <use xlink:href="#Helvetica-30" transform="translate(252.978516 0)"/>
     <use xlink:href="#Helvetica-36" transform="translate(308.59375 0)"/>
     <use xlink:href="#Helvetica-65" transform="translate(364.208984 0)"/>
     <use xlink:href="#Helvetica-2d" transform="translate(419.824219 0)"/>
     <use xlink:href="#Helvetica-30" transform="translate(453.125 0)"/>
     <use xlink:href="#Helvetica-32" transform="translate(508.740234 0)"/>
    </g>
   </g>
   <g id="text_19">
    <!-- AF3 vs pKi -->
    <g style="fill: #262626" transform="translate(70.175781 18) scale(0.1 -0.1)">
     <defs>
      <path id="Helvetica-41" d="M 2844 1881 
L 2147 3909 
L 1406 1881 
L 2844 1881 
z
M 1822 4591 
L 2525 4591 
L 4191 0 
L 3509 0 
L 3044 1375 
L 1228 1375 
L 731 0 
L 94 0 
L 1822 4591 
z
" transform="scale(0.015625)"/>
      <path id="Helvetica-46" d="M 547 4591 
L 3731 4591 
L 3731 4028 
L 1169 4028 
L 1169 2634 
L 3422 2634 
L 3422 2088 
L 1169 2088 
L 1169 0 
L 547 0 
L 547 4591 
z
" transform="scale(0.015625)"/>
      <path id="Helvetica-76" d="M 688 3347 
L 1581 622 
L 2516 3347 
L 3131 3347 
L 1869 0 
L 1269 0 
L 34 3347 
L 688 3347 
z
" transform="scale(0.015625)"/>
      <path id="Helvetica-73" d="M 747 1050 
Q 772 769 888 619 
Q 1100 347 1625 347 
Q 1938 347 2175 483 
Q 2413 619 2413 903 
Q 2413 1119 2222 1231 
Q 2100 1300 1741 1391 
L 1294 1503 
Q 866 1609 663 1741 
Q 300 1969 300 2372 
Q 300 2847 642 3140 
Q 984 3434 1563 3434 
Q 2319 3434 2653 2991 
Q 2863 2709 2856 2384 
L 2325 2384 
Q 2309 2575 2191 2731 
Q 1997 2953 1519 2953 
Q 1200 2953 1036 2831 
Q 872 2709 872 2509 
Q 872 2291 1088 2159 
Q 1213 2081 1456 2022 
L 1828 1931 
Q 2434 1784 2641 1647 
Q 2969 1431 2969 969 
Q 2969 522 2630 197 
Q 2291 -128 1597 -128 
Q 850 -128 539 211 
Q 228 550 206 1050 
L 747 1050 
z
M 1578 3428 
L 1578 3428 
z
" transform="scale(0.015625)"/>
     </defs>
     <use xlink:href="#Helvetica-41"/>
     <use xlink:href="#Helvetica-46" transform="translate(66.699219 0)"/>
     <use xlink:href="#Helvetica-33" transform="translate(127.783203 0)"/>
     <use xlink:href="#Helvetica-20" transform="translate(183.398438 0)"/>
     <use xlink:href="#Helvetica-76" transform="translate(211.181641 0)"/>
     <use xlink:href="#Helvetica-73" transform="translate(261.181641 0)"/>
     <use xlink:href="#Helvetica-20" transform="translate(311.181641 0)"/>
     <use xlink:href="#Helvetica-70" transform="translate(338.964844 0)"/>
     <use xlink:href="#Helvetica-4b" transform="translate(394.580078 0)"/>
     <use xlink:href="#Helvetica-69" transform="translate(461.279297 0)"/>
    </g>
   </g>
  </g>
 </g>
 <defs>
  <clipPath id="pd8e35e898d">
   <rect x="43.62" y="24" width="101.46" height="96.18"/>
  </clipPath>
 </defs>
</svg>
