<?xml version="1.0" encoding="utf-8" standalone="no"?>
<!DOCTYPE svg PUBLIC "-//W3C//DTD SVG 1.1//EN"
  "http://www.w3.org/Graphics/SVG/1.1/DTD/svg11.dtd">
<svg xmlns:xlink="http://www.w3.org/1999/xlink" width="162pt" height="162pt" viewBox="0 0 162 162" xmlns="http://www.w3.org/2000/svg" version="1.1">
 <metadata>
  <rdf:RDF xmlns:dc="http://purl.org/dc/elements/1.1/" xmlns:cc="http://creativecommons.org/ns#" xmlns:rdf="http://www.w3.org/1999/02/22-rdf-syntax-ns#">
   <cc:Work>
    <dc:type rdf:resource="http://purl.org/dc/dcmitype/StillImage"/>
    <dc:date>2025-03-07T14:31:26.341249</dc:date>
    <dc:format>image/svg+xml</dc:format>
    <dc:creator>
     <cc:Agent>
      <dc:title>Matplotlib v3.10.0, https://matplotlib.org/</dc:title>
     </cc:Agent>
    </dc:creator>
   </cc:Work>
  </rdf:RDF>
 </metadata>
 <defs>
  <style type="text/css">*{stroke-linejoin: round; stroke-linecap: butt}</style>
 </defs>
 <g id="figure_1">
  <g id="patch_1">
   <path d="M 0 162 
L 162 162 
L 162 0 
L 0 0 
z
" style="fill: #ffffff"/>
  </g>
  <g id="axes_1">
   <g id="patch_2">
    <path d="M 38.04 120.18 
L 145.035 120.18 
L 145.035 24 
L 38.04 24 
z
" style="fill: #ffffff"/>
   </g>
   <g id="matplotlib.axis_1">
    <g id="xtick_1">
     <g id="line2d_1">
      <path d="M 42.855682 120.18 
L 42.855682 24 
" clip-path="url(#pabcfd3259e)" style="fill: none; stroke: #cccccc; stroke-width: 0.8; stroke-linecap: round"/>
     </g>
     <g id="text_1">
      <!-- 0 -->
      <g style="fill: #262626" transform="translate(40.075213 135.653437) scale(0.1 -0.1)">
       <defs>
        <path id="Helvetica-30" d="M 1731 4475 
Q 2600 4475 2988 3759 
Q 3288 3206 3288 2244 
Q 3288 1331 3016 734 
Q 2622 -122 1728 -122 
Q 922 -122 528 578 
Q 200 1163 200 2147 
Q 200 2909 397 3456 
Q 766 4475 1731 4475 
z
M 1725 391 
Q 2163 391 2422 778 
Q 2681 1166 2681 2222 
Q 2681 2984 2493 3476 
Q 2306 3969 1766 3969 
Q 1269 3969 1039 3501 
Q 809 3034 809 2125 
Q 809 1441 956 1025 
Q 1181 391 1725 391 
z
" transform="scale(0.015625)"/>
       </defs>
       <use xlink:href="#Helvetica-30"/>
      </g>
     </g>
    </g>
    <g id="xtick_2">
     <g id="line2d_2">
      <path d="M 90.582955 120.18 
L 90.582955 24 
" clip-path="url(#pabcfd3259e)" style="fill: none; stroke: #cccccc; stroke-width: 0.8; stroke-linecap: round"/>
     </g>
     <g id="text_2">
      <!-- 1000 -->
      <g style="fill: #262626" transform="translate(79.46108 135.653437) scale(0.1 -0.1)">
       <defs>
        <path id="Helvetica-31" d="M 613 3169 
L 613 3600 
Q 1222 3659 1462 3798 
Q 1703 3938 1822 4456 
L 2266 4456 
L 2266 0 
L 1666 0 
L 1666 3169 
L 613 3169 
z
" transform="scale(0.015625)"/>
       </defs>
       <use xlink:href="#Helvetica-31"/>
       <use xlink:href="#Helvetica-30" transform="translate(55.615234 0)"/>
       <use xlink:href="#Helvetica-30" transform="translate(111.230469 0)"/>
       <use xlink:href="#Helvetica-30" transform="translate(166.845703 0)"/>
      </g>
     </g>
    </g>
    <g id="xtick_3">
     <g id="line2d_3">
      <path d="M 138.310227 120.18 
L 138.310227 24 
" clip-path="url(#pabcfd3259e)" style="fill: none; stroke: #cccccc; stroke-width: 0.8; stroke-linecap: round"/>
     </g>
     <g id="text_3">
      <!-- 2000 -->
      <g style="fill: #262626" transform="translate(127.188352 135.653437) scale(0.1 -0.1)">
       <defs>
        <path id="Helvetica-32" d="M 200 0 
Q 231 578 439 1006 
Q 647 1434 1250 1784 
L 1850 2131 
Q 2253 2366 2416 2531 
Q 2672 2791 2672 3125 
Q 2672 3516 2437 3745 
Q 2203 3975 1813 3975 
Q 1234 3975 1013 3538 
Q 894 3303 881 2888 
L 309 2888 
Q 319 3472 525 3841 
Q 891 4491 1816 4491 
Q 2584 4491 2939 4075 
Q 3294 3659 3294 3150 
Q 3294 2613 2916 2231 
Q 2697 2009 2131 1694 
L 1703 1456 
Q 1397 1288 1222 1134 
Q 909 863 828 531 
L 3272 531 
L 3272 0 
L 200 0 
z
" transform="scale(0.015625)"/>
       </defs>
       <use xlink:href="#Helvetica-32"/>
       <use xlink:href="#Helvetica-30" transform="translate(55.615234 0)"/>
       <use xlink:href="#Helvetica-30" transform="translate(111.230469 0)"/>
       <use xlink:href="#Helvetica-30" transform="translate(166.845703 0)"/>
      </g>
     </g>
    </g>
    <g id="text_4">
     <!-- agonist msa depth -->
     <g style="fill: #262626" transform="translate(50.68125 148.934687) scale(0.1 -0.1)">
      <defs>
       <path id="Helvetica-61" d="M 844 891 
Q 844 647 1022 506 
Q 1200 366 1444 366 
Q 1741 366 2019 503 
Q 2488 731 2488 1250 
L 2488 1703 
Q 2384 1638 2221 1594 
Q 2059 1550 1903 1531 
L 1563 1488 
Q 1256 1447 1103 1359 
Q 844 1213 844 891 
z
M 2206 2028 
Q 2400 2053 2466 2191 
Q 2503 2266 2503 2406 
Q 2503 2694 2298 2823 
Q 2094 2953 1713 2953 
Q 1272 2953 1088 2716 
Q 984 2584 953 2325 
L 428 2325 
Q 444 2944 830 3186 
Q 1216 3428 1725 3428 
Q 2316 3428 2684 3203 
Q 3050 2978 3050 2503 
L 3050 575 
Q 3050 488 3086 434 
Q 3122 381 3238 381 
Q 3275 381 3322 386 
Q 3369 391 3422 400 
L 3422 -16 
Q 3291 -53 3222 -62 
Q 3153 -72 3034 -72 
Q 2744 -72 2613 134 
Q 2544 244 2516 444 
Q 2344 219 2022 53 
Q 1700 -113 1313 -113 
Q 847 -113 551 170 
Q 256 453 256 878 
Q 256 1344 547 1600 
Q 838 1856 1309 1916 
L 2206 2028 
z
M 1741 3428 
L 1741 3428 
z
" transform="scale(0.015625)"/>
       <path id="Helvetica-67" d="M 1594 3406 
Q 1988 3406 2281 3213 
Q 2441 3103 2606 2894 
L 2606 3316 
L 3125 3316 
L 3125 272 
Q 3125 -366 2938 -734 
Q 2588 -1416 1616 -1416 
Q 1075 -1416 706 -1173 
Q 338 -931 294 -416 
L 866 -416 
Q 906 -641 1028 -763 
Q 1219 -950 1628 -950 
Q 2275 -950 2475 -494 
Q 2594 -225 2584 466 
Q 2416 209 2178 84 
Q 1941 -41 1550 -41 
Q 1006 -41 598 345 
Q 191 731 191 1622 
Q 191 2463 602 2934 
Q 1013 3406 1594 3406 
z
M 2606 1688 
Q 2606 2309 2350 2609 
Q 2094 2909 1697 2909 
Q 1103 2909 884 2353 
Q 769 2056 769 1575 
Q 769 1009 998 714 
Q 1228 419 1616 419 
Q 2222 419 2469 966 
Q 2606 1275 2606 1688 
z
M 1659 3428 
L 1659 3428 
z
" transform="scale(0.015625)"/>
       <path id="Helvetica-6f" d="M 1741 363 
Q 2300 363 2508 786 
Q 2716 1209 2716 1728 
Q 2716 2197 2566 2491 
Q 2328 2953 1747 2953 
Q 1231 2953 997 2559 
Q 763 2166 763 1609 
Q 763 1075 997 719 
Q 1231 363 1741 363 
z
M 1763 3444 
Q 2409 3444 2856 3012 
Q 3303 2581 3303 1744 
Q 3303 934 2909 406 
Q 2516 -122 1688 -122 
Q 997 -122 590 345 
Q 184 813 184 1600 
Q 184 2444 612 2944 
Q 1041 3444 1763 3444 
z
M 1744 3428 
L 1744 3428 
z
" transform="scale(0.015625)"/>
       <path id="Helvetica-6e" d="M 413 3347 
L 947 3347 
L 947 2872 
Q 1184 3166 1450 3294 
Q 1716 3422 2041 3422 
Q 2753 3422 3003 2925 
Q 3141 2653 3141 2147 
L 3141 0 
L 2569 0 
L 2569 2109 
Q 2569 2416 2478 2603 
Q 2328 2916 1934 2916 
Q 1734 2916 1606 2875 
Q 1375 2806 1200 2600 
Q 1059 2434 1017 2257 
Q 975 2081 975 1753 
L 975 0 
L 413 0 
L 413 3347 
z
M 1734 3428 
L 1734 3428 
z
" transform="scale(0.015625)"/>
       <path id="Helvetica-69" d="M 413 3331 
L 984 3331 
L 984 0 
L 413 0 
L 413 3331 
z
M 413 4591 
L 984 4591 
L 984 3953 
L 413 3953 
L 413 4591 
z
" transform="scale(0.015625)"/>
       <path id="Helvetica-73" d="M 747 1050 
Q 772 769 888 619 
Q 1100 347 1625 347 
Q 1938 347 2175 483 
Q 2413 619 2413 903 
Q 2413 1119 2222 1231 
Q 2100 1300 1741 1391 
L 1294 1503 
Q 866 1609 663 1741 
Q 300 1969 300 2372 
Q 300 2847 642 3140 
Q 984 3434 1563 3434 
Q 2319 3434 2653 2991 
Q 2863 2709 2856 2384 
L 2325 2384 
Q 2309 2575 2191 2731 
Q 1997 2953 1519 2953 
Q 1200 2953 1036 2831 
Q 872 2709 872 2509 
Q 872 2291 1088 2159 
Q 1213 2081 1456 2022 
L 1828 1931 
Q 2434 1784 2641 1647 
Q 2969 1431 2969 969 
Q 2969 522 2630 197 
Q 2291 -128 1597 -128 
Q 850 -128 539 211 
Q 228 550 206 1050 
L 747 1050 
z
M 1578 3428 
L 1578 3428 
z
" transform="scale(0.015625)"/>
       <path id="Helvetica-74" d="M 525 4281 
L 1094 4281 
L 1094 3347 
L 1628 3347 
L 1628 2888 
L 1094 2888 
L 1094 703 
Q 1094 528 1213 469 
Q 1278 434 1431 434 
Q 1472 434 1519 436 
Q 1566 438 1628 444 
L 1628 0 
Q 1531 -28 1426 -40 
Q 1322 -53 1200 -53 
Q 806 -53 665 148 
Q 525 350 525 672 
L 525 2888 
L 72 2888 
L 72 3347 
L 525 3347 
L 525 4281 
z
" transform="scale(0.015625)"/>
       <path id="Helvetica-20" transform="scale(0.015625)"/>
       <path id="Helvetica-6d" d="M 413 3347 
L 969 3347 
L 969 2872 
Q 1169 3119 1331 3231 
Q 1609 3422 1963 3422 
Q 2363 3422 2606 3225 
Q 2744 3113 2856 2894 
Q 3044 3163 3297 3292 
Q 3550 3422 3866 3422 
Q 4541 3422 4784 2934 
Q 4916 2672 4916 2228 
L 4916 0 
L 4331 0 
L 4331 2325 
Q 4331 2659 4164 2784 
Q 3997 2909 3756 2909 
Q 3425 2909 3186 2687 
Q 2947 2466 2947 1947 
L 2947 0 
L 2375 0 
L 2375 2184 
Q 2375 2525 2294 2681 
Q 2166 2916 1816 2916 
Q 1497 2916 1236 2669 
Q 975 2422 975 1775 
L 975 0 
L 413 0 
L 413 3347 
z
" transform="scale(0.015625)"/>
       <path id="Helvetica-64" d="M 769 1634 
Q 769 1097 997 734 
Q 1225 372 1728 372 
Q 2119 372 2370 708 
Q 2622 1044 2622 1672 
Q 2622 2306 2362 2611 
Q 2103 2916 1722 2916 
Q 1297 2916 1033 2591 
Q 769 2266 769 1634 
z
M 1616 3406 
Q 2000 3406 2259 3244 
Q 2409 3150 2600 2916 
L 2600 4606 
L 3141 4606 
L 3141 0 
L 2634 0 
L 2634 466 
Q 2438 156 2169 18 
Q 1900 -119 1553 -119 
Q 994 -119 584 351 
Q 175 822 175 1603 
Q 175 2334 548 2870 
Q 922 3406 1616 3406 
z
" transform="scale(0.015625)"/>
       <path id="Helvetica-65" d="M 1806 3422 
Q 2163 3422 2497 3255 
Q 2831 3088 3006 2822 
Q 3175 2569 3231 2231 
Q 3281 2000 3281 1494 
L 828 1494 
Q 844 984 1069 676 
Q 1294 369 1766 369 
Q 2206 369 2469 659 
Q 2619 828 2681 1050 
L 3234 1050 
Q 3213 866 3089 639 
Q 2966 413 2813 269 
Q 2556 19 2178 -69 
Q 1975 -119 1719 -119 
Q 1094 -119 659 336 
Q 225 791 225 1609 
Q 225 2416 662 2919 
Q 1100 3422 1806 3422 
z
M 2703 1941 
Q 2669 2306 2544 2525 
Q 2313 2931 1772 2931 
Q 1384 2931 1121 2651 
Q 859 2372 844 1941 
L 2703 1941 
z
M 1753 3428 
L 1753 3428 
z
" transform="scale(0.015625)"/>
       <path id="Helvetica-70" d="M 1825 378 
Q 2219 378 2480 708 
Q 2741 1038 2741 1694 
Q 2741 2094 2625 2381 
Q 2406 2934 1825 2934 
Q 1241 2934 1025 2350 
Q 909 2038 909 1556 
Q 909 1169 1025 897 
Q 1244 378 1825 378 
z
M 369 3331 
L 916 3331 
L 916 2888 
Q 1084 3116 1284 3241 
Q 1569 3428 1953 3428 
Q 2522 3428 2919 2992 
Q 3316 2556 3316 1747 
Q 3316 653 2744 184 
Q 2381 -113 1900 -113 
Q 1522 -113 1266 53 
Q 1116 147 931 375 
L 931 -1334 
L 369 -1334 
L 369 3331 
z
" transform="scale(0.015625)"/>
       <path id="Helvetica-68" d="M 413 4606 
L 975 4606 
L 975 2894 
Q 1175 3147 1334 3250 
Q 1606 3428 2013 3428 
Q 2741 3428 3000 2919 
Q 3141 2641 3141 2147 
L 3141 0 
L 2563 0 
L 2563 2109 
Q 2563 2478 2469 2650 
Q 2316 2925 1894 2925 
Q 1544 2925 1259 2684 
Q 975 2444 975 1775 
L 975 0 
L 413 0 
L 413 4606 
z
" transform="scale(0.015625)"/>
      </defs>
      <use xlink:href="#Helvetica-61"/>
      <use xlink:href="#Helvetica-67" transform="translate(55.615234 0)"/>
      <use xlink:href="#Helvetica-6f" transform="translate(111.230469 0)"/>
      <use xlink:href="#Helvetica-6e" transform="translate(166.845703 0)"/>
      <use xlink:href="#Helvetica-69" transform="translate(222.460938 0)"/>
      <use xlink:href="#Helvetica-73" transform="translate(244.677734 0)"/>
      <use xlink:href="#Helvetica-74" transform="translate(294.677734 0)"/>
      <use xlink:href="#Helvetica-20" transform="translate(322.460938 0)"/>
      <use xlink:href="#Helvetica-6d" transform="translate(350.244141 0)"/>
      <use xlink:href="#Helvetica-73" transform="translate(433.544922 0)"/>
      <use xlink:href="#Helvetica-61" transform="translate(483.544922 0)"/>
      <use xlink:href="#Helvetica-20" transform="translate(539.160156 0)"/>
      <use xlink:href="#Helvetica-64" transform="translate(566.943359 0)"/>
      <use xlink:href="#Helvetica-65" transform="translate(622.558594 0)"/>
      <use xlink:href="#Helvetica-70" transform="translate(678.173828 0)"/>
      <use xlink:href="#Helvetica-74" transform="translate(733.789062 0)"/>
      <use xlink:href="#Helvetica-68" transform="translate(761.572266 0)"/>
     </g>
    </g>
   </g>
   <g id="matplotlib.axis_2">
    <g id="ytick_1">
     <g id="line2d_4">
      <path d="M 38.04 120.18 
L 145.035 120.18 
" clip-path="url(#pabcfd3259e)" style="fill: none; stroke: #cccccc; stroke-width: 0.8; stroke-linecap: round"/>
     </g>
     <g id="text_5">
      <!-- 0 -->
      <g style="fill: #262626" transform="translate(24.179063 123.766719) scale(0.1 -0.1)">
       <use xlink:href="#Helvetica-30"/>
      </g>
     </g>
    </g>
    <g id="ytick_2">
     <g id="line2d_5">
      <path d="M 38.04 77.778345 
L 145.035 77.778345 
" clip-path="url(#pabcfd3259e)" style="fill: none; stroke: #cccccc; stroke-width: 0.8; stroke-linecap: round"/>
     </g>
     <g id="text_6">
      <!-- 1 -->
      <g style="fill: #262626" transform="translate(24.179063 81.365064) scale(0.1 -0.1)">
       <use xlink:href="#Helvetica-31"/>
      </g>
     </g>
    </g>
    <g id="ytick_3">
     <g id="line2d_6">
      <path d="M 38.04 35.37669 
L 145.035 35.37669 
" clip-path="url(#pabcfd3259e)" style="fill: none; stroke: #cccccc; stroke-width: 0.8; stroke-linecap: round"/>
     </g>
     <g id="text_7">
      <!-- 2 -->
      <g style="fill: #262626" transform="translate(24.179063 38.963409) scale(0.1 -0.1)">
       <use xlink:href="#Helvetica-32"/>
      </g>
     </g>
    </g>
    <g id="text_8">
     <!-- Rank -->
     <g style="fill: #262626" transform="translate(18.094688 83.761875) rotate(-90) scale(0.1 -0.1)">
      <defs>
       <path id="Helvetica-52" d="M 2622 2488 
Q 3059 2488 3314 2663 
Q 3569 2838 3569 3294 
Q 3569 3784 3213 3963 
Q 3022 4056 2703 4056 
L 1184 4056 
L 1184 2488 
L 2622 2488 
z
M 563 4591 
L 2688 4591 
Q 3213 4591 3553 4438 
Q 4200 4144 4200 3353 
Q 4200 2941 4029 2678 
Q 3859 2416 3553 2256 
Q 3822 2147 3958 1969 
Q 4094 1791 4109 1391 
L 4131 775 
Q 4141 513 4175 384 
Q 4231 166 4375 103 
L 4375 0 
L 3613 0 
Q 3581 59 3562 153 
Q 3544 247 3531 516 
L 3494 1281 
Q 3472 1731 3159 1884 
Q 2981 1969 2600 1969 
L 1184 1969 
L 1184 0 
L 563 0 
L 563 4591 
z
" transform="scale(0.015625)"/>
       <path id="Helvetica-6b" d="M 400 4591 
L 941 4591 
L 941 1925 
L 2384 3347 
L 3103 3347 
L 1822 2094 
L 3175 0 
L 2456 0 
L 1413 1688 
L 941 1256 
L 941 0 
L 400 0 
L 400 4591 
z
" transform="scale(0.015625)"/>
      </defs>
      <use xlink:href="#Helvetica-52"/>
      <use xlink:href="#Helvetica-61" transform="translate(72.216797 0)"/>
      <use xlink:href="#Helvetica-6e" transform="translate(127.832031 0)"/>
      <use xlink:href="#Helvetica-6b" transform="translate(183.447266 0)"/>
     </g>
    </g>
   </g>
   <g id="PathCollection_1">
    <defs>
     <path id="m3b5507f5dd" d="M 0 2.4 
C 0.636487 2.4 1.246992 2.147121 1.697056 1.697056 
C 2.147121 1.246992 2.4 0.636487 2.4 0 
C 2.4 -0.636487 2.147121 -1.246992 1.697056 -1.697056 
C 1.246992 -2.147121 0.636487 -2.4 0 -2.4 
C -0.636487 -2.4 -1.246992 -2.147121 -1.697056 -1.697056 
C -2.147121 -1.246992 -2.4 -0.636487 -2.4 0 
C -2.4 0.636487 -2.147121 1.246992 -1.697056 1.697056 
C -1.246992 2.147121 -0.636487 2.4 0 2.4 
z
" style="stroke: #1f77b4; stroke-opacity: 0.5"/>
    </defs>
    <g clip-path="url(#pabcfd3259e)">
     <use xlink:href="#m3b5507f5dd" x="46.339773" y="71.707931" style="fill: #1f77b4; fill-opacity: 0.5; stroke: #1f77b4; stroke-opacity: 0.5"/>
     <use xlink:href="#m3b5507f5dd" x="42.998864" y="85.494259" style="fill: #1f77b4; fill-opacity: 0.5; stroke: #1f77b4; stroke-opacity: 0.5"/>
     <use xlink:href="#m3b5507f5dd" x="44.478409" y="70.108968" style="fill: #1f77b4; fill-opacity: 0.5; stroke: #1f77b4; stroke-opacity: 0.5"/>
     <use xlink:href="#m3b5507f5dd" x="49.489773" y="69.888425" style="fill: #1f77b4; fill-opacity: 0.5; stroke: #1f77b4; stroke-opacity: 0.5"/>
     <use xlink:href="#m3b5507f5dd" x="42.903409" y="73.26398" style="fill: #1f77b4; fill-opacity: 0.5; stroke: #1f77b4; stroke-opacity: 0.5"/>
     <use xlink:href="#m3b5507f5dd" x="43.332955" y="80.008566" style="fill: #1f77b4; fill-opacity: 0.5; stroke: #1f77b4; stroke-opacity: 0.5"/>
     <use xlink:href="#m3b5507f5dd" x="53.164773" y="84.964424" style="fill: #1f77b4; fill-opacity: 0.5; stroke: #1f77b4; stroke-opacity: 0.5"/>
     <use xlink:href="#m3b5507f5dd" x="47.9625" y="78.503469" style="fill: #1f77b4; fill-opacity: 0.5; stroke: #1f77b4; stroke-opacity: 0.5"/>
     <use xlink:href="#m3b5507f5dd" x="47.9625" y="78.91358" style="fill: #1f77b4; fill-opacity: 0.5; stroke: #1f77b4; stroke-opacity: 0.5"/>
     <use xlink:href="#m3b5507f5dd" x="47.723864" y="70.22067" style="fill: #1f77b4; fill-opacity: 0.5; stroke: #1f77b4; stroke-opacity: 0.5"/>
     <use xlink:href="#m3b5507f5dd" x="45.385227" y="74.484687" style="fill: #1f77b4; fill-opacity: 0.5; stroke: #1f77b4; stroke-opacity: 0.5"/>
     <use xlink:href="#m3b5507f5dd" x="67.3875" y="78.718659" style="fill: #1f77b4; fill-opacity: 0.5; stroke: #1f77b4; stroke-opacity: 0.5"/>
     <use xlink:href="#m3b5507f5dd" x="139.694318" y="76.241689" style="fill: #1f77b4; fill-opacity: 0.5; stroke: #1f77b4; stroke-opacity: 0.5"/>
     <use xlink:href="#m3b5507f5dd" x="66.194318" y="82.560313" style="fill: #1f77b4; fill-opacity: 0.5; stroke: #1f77b4; stroke-opacity: 0.5"/>
     <use xlink:href="#m3b5507f5dd" x="67.435227" y="76.342425" style="fill: #1f77b4; fill-opacity: 0.5; stroke: #1f77b4; stroke-opacity: 0.5"/>
     <use xlink:href="#m3b5507f5dd" x="47.9625" y="83.979646" style="fill: #1f77b4; fill-opacity: 0.5; stroke: #1f77b4; stroke-opacity: 0.5"/>
     <use xlink:href="#m3b5507f5dd" x="118.503409" y="70.523797" style="fill: #1f77b4; fill-opacity: 0.5; stroke: #1f77b4; stroke-opacity: 0.5"/>
     <use xlink:href="#m3b5507f5dd" x="67.3875" y="84.32425" style="fill: #1f77b4; fill-opacity: 0.5; stroke: #1f77b4; stroke-opacity: 0.5"/>
     <use xlink:href="#m3b5507f5dd" x="46.530682" y="84.386258" style="fill: #1f77b4; fill-opacity: 0.5; stroke: #1f77b4; stroke-opacity: 0.5"/>
     <use xlink:href="#m3b5507f5dd" x="47.723864" y="85.574831" style="fill: #1f77b4; fill-opacity: 0.5; stroke: #1f77b4; stroke-opacity: 0.5"/>
     <use xlink:href="#m3b5507f5dd" x="139.455682" y="77.091904" style="fill: #1f77b4; fill-opacity: 0.5; stroke: #1f77b4; stroke-opacity: 0.5"/>
     <use xlink:href="#m3b5507f5dd" x="43.428409" y="74.35102" style="fill: #1f77b4; fill-opacity: 0.5; stroke: #1f77b4; stroke-opacity: 0.5"/>
     <use xlink:href="#m3b5507f5dd" x="139.8375" y="75.295251" style="fill: #1f77b4; fill-opacity: 0.5; stroke: #1f77b4; stroke-opacity: 0.5"/>
     <use xlink:href="#m3b5507f5dd" x="139.503409" y="72.18418" style="fill: #1f77b4; fill-opacity: 0.5; stroke: #1f77b4; stroke-opacity: 0.5"/>
     <use xlink:href="#m3b5507f5dd" x="42.903409" y="37.369729" style="fill: #1f77b4; fill-opacity: 0.5; stroke: #1f77b4; stroke-opacity: 0.5"/>
     <use xlink:href="#m3b5507f5dd" x="106.142045" y="31.596202" style="fill: #1f77b4; fill-opacity: 0.5; stroke: #1f77b4; stroke-opacity: 0.5"/>
     <use xlink:href="#m3b5507f5dd" x="112.298864" y="78.514305" style="fill: #1f77b4; fill-opacity: 0.5; stroke: #1f77b4; stroke-opacity: 0.5"/>
     <use xlink:href="#m3b5507f5dd" x="45.910227" y="81.287242" style="fill: #1f77b4; fill-opacity: 0.5; stroke: #1f77b4; stroke-opacity: 0.5"/>
     <use xlink:href="#m3b5507f5dd" x="43.953409" y="38.990851" style="fill: #1f77b4; fill-opacity: 0.5; stroke: #1f77b4; stroke-opacity: 0.5"/>
     <use xlink:href="#m3b5507f5dd" x="139.503409" y="77.274588" style="fill: #1f77b4; fill-opacity: 0.5; stroke: #1f77b4; stroke-opacity: 0.5"/>
     <use xlink:href="#m3b5507f5dd" x="139.8375" y="78.032674" style="fill: #1f77b4; fill-opacity: 0.5; stroke: #1f77b4; stroke-opacity: 0.5"/>
     <use xlink:href="#m3b5507f5dd" x="43.523864" y="82.387861" style="fill: #1f77b4; fill-opacity: 0.5; stroke: #1f77b4; stroke-opacity: 0.5"/>
     <use xlink:href="#m3b5507f5dd" x="43.714773" y="80.103843" style="fill: #1f77b4; fill-opacity: 0.5; stroke: #1f77b4; stroke-opacity: 0.5"/>
     <use xlink:href="#m3b5507f5dd" x="139.980682" y="77.143692" style="fill: #1f77b4; fill-opacity: 0.5; stroke: #1f77b4; stroke-opacity: 0.5"/>
     <use xlink:href="#m3b5507f5dd" x="112.728409" y="85.113078" style="fill: #1f77b4; fill-opacity: 0.5; stroke: #1f77b4; stroke-opacity: 0.5"/>
     <use xlink:href="#m3b5507f5dd" x="139.407955" y="72.772626" style="fill: #1f77b4; fill-opacity: 0.5; stroke: #1f77b4; stroke-opacity: 0.5"/>
     <use xlink:href="#m3b5507f5dd" x="53.260227" y="83.229379" style="fill: #1f77b4; fill-opacity: 0.5; stroke: #1f77b4; stroke-opacity: 0.5"/>
     <use xlink:href="#m3b5507f5dd" x="64.476136" y="72.188871" style="fill: #1f77b4; fill-opacity: 0.5; stroke: #1f77b4; stroke-opacity: 0.5"/>
     <use xlink:href="#m3b5507f5dd" x="44.573864" y="84.593844" style="fill: #1f77b4; fill-opacity: 0.5; stroke: #1f77b4; stroke-opacity: 0.5"/>
     <use xlink:href="#m3b5507f5dd" x="49.0125" y="79.08604" style="fill: #1f77b4; fill-opacity: 0.5; stroke: #1f77b4; stroke-opacity: 0.5"/>
     <use xlink:href="#m3b5507f5dd" x="129.3375" y="77.065489" style="fill: #1f77b4; fill-opacity: 0.5; stroke: #1f77b4; stroke-opacity: 0.5"/>
     <use xlink:href="#m3b5507f5dd" x="47.9625" y="76.76544" style="fill: #1f77b4; fill-opacity: 0.5; stroke: #1f77b4; stroke-opacity: 0.5"/>
     <use xlink:href="#m3b5507f5dd" x="139.264773" y="70.775517" style="fill: #1f77b4; fill-opacity: 0.5; stroke: #1f77b4; stroke-opacity: 0.5"/>
     <use xlink:href="#m3b5507f5dd" x="140.028409" y="70.245175" style="fill: #1f77b4; fill-opacity: 0.5; stroke: #1f77b4; stroke-opacity: 0.5"/>
     <use xlink:href="#m3b5507f5dd" x="43.285227" y="79.215116" style="fill: #1f77b4; fill-opacity: 0.5; stroke: #1f77b4; stroke-opacity: 0.5"/>
     <use xlink:href="#m3b5507f5dd" x="140.171591" y="80.406787" style="fill: #1f77b4; fill-opacity: 0.5; stroke: #1f77b4; stroke-opacity: 0.5"/>
     <use xlink:href="#m3b5507f5dd" x="139.8375" y="74.481048" style="fill: #1f77b4; fill-opacity: 0.5; stroke: #1f77b4; stroke-opacity: 0.5"/>
     <use xlink:href="#m3b5507f5dd" x="118.503409" y="76.782379" style="fill: #1f77b4; fill-opacity: 0.5; stroke: #1f77b4; stroke-opacity: 0.5"/>
     <use xlink:href="#m3b5507f5dd" x="140.171591" y="72.562861" style="fill: #1f77b4; fill-opacity: 0.5; stroke: #1f77b4; stroke-opacity: 0.5"/>
     <use xlink:href="#m3b5507f5dd" x="44.573864" y="72.465233" style="fill: #1f77b4; fill-opacity: 0.5; stroke: #1f77b4; stroke-opacity: 0.5"/>
     <use xlink:href="#m3b5507f5dd" x="55.885227" y="73.784957" style="fill: #1f77b4; fill-opacity: 0.5; stroke: #1f77b4; stroke-opacity: 0.5"/>
     <use xlink:href="#m3b5507f5dd" x="42.903409" y="79.569103" style="fill: #1f77b4; fill-opacity: 0.5; stroke: #1f77b4; stroke-opacity: 0.5"/>
     <use xlink:href="#m3b5507f5dd" x="44.335227" y="79.959871" style="fill: #1f77b4; fill-opacity: 0.5; stroke: #1f77b4; stroke-opacity: 0.5"/>
     <use xlink:href="#m3b5507f5dd" x="56.982955" y="81.60362" style="fill: #1f77b4; fill-opacity: 0.5; stroke: #1f77b4; stroke-opacity: 0.5"/>
     <use xlink:href="#m3b5507f5dd" x="139.169318" y="71.399558" style="fill: #1f77b4; fill-opacity: 0.5; stroke: #1f77b4; stroke-opacity: 0.5"/>
     <use xlink:href="#m3b5507f5dd" x="47.9625" y="81.859461" style="fill: #1f77b4; fill-opacity: 0.5; stroke: #1f77b4; stroke-opacity: 0.5"/>
     <use xlink:href="#m3b5507f5dd" x="138.978409" y="75.950744" style="fill: #1f77b4; fill-opacity: 0.5; stroke: #1f77b4; stroke-opacity: 0.5"/>
     <use xlink:href="#m3b5507f5dd" x="52.305682" y="76.177869" style="fill: #1f77b4; fill-opacity: 0.5; stroke: #1f77b4; stroke-opacity: 0.5"/>
     <use xlink:href="#m3b5507f5dd" x="47.9625" y="33.702779" style="fill: #1f77b4; fill-opacity: 0.5; stroke: #1f77b4; stroke-opacity: 0.5"/>
     <use xlink:href="#m3b5507f5dd" x="44.430682" y="78.398015" style="fill: #1f77b4; fill-opacity: 0.5; stroke: #1f77b4; stroke-opacity: 0.5"/>
     <use xlink:href="#m3b5507f5dd" x="109.482955" y="77.786356" style="fill: #1f77b4; fill-opacity: 0.5; stroke: #1f77b4; stroke-opacity: 0.5"/>
     <use xlink:href="#m3b5507f5dd" x="52.114773" y="79.390175" style="fill: #1f77b4; fill-opacity: 0.5; stroke: #1f77b4; stroke-opacity: 0.5"/>
     <use xlink:href="#m3b5507f5dd" x="136.401136" y="85.926944" style="fill: #1f77b4; fill-opacity: 0.5; stroke: #1f77b4; stroke-opacity: 0.5"/>
     <use xlink:href="#m3b5507f5dd" x="50.826136" y="74.251337" style="fill: #1f77b4; fill-opacity: 0.5; stroke: #1f77b4; stroke-opacity: 0.5"/>
     <use xlink:href="#m3b5507f5dd" x="46.101136" y="70.889829" style="fill: #1f77b4; fill-opacity: 0.5; stroke: #1f77b4; stroke-opacity: 0.5"/>
     <use xlink:href="#m3b5507f5dd" x="137.785227" y="71.628249" style="fill: #1f77b4; fill-opacity: 0.5; stroke: #1f77b4; stroke-opacity: 0.5"/>
     <use xlink:href="#m3b5507f5dd" x="102.467045" y="75.109905" style="fill: #1f77b4; fill-opacity: 0.5; stroke: #1f77b4; stroke-opacity: 0.5"/>
     <use xlink:href="#m3b5507f5dd" x="49.0125" y="84.970982" style="fill: #1f77b4; fill-opacity: 0.5; stroke: #1f77b4; stroke-opacity: 0.5"/>
     <use xlink:href="#m3b5507f5dd" x="139.885227" y="75.735729" style="fill: #1f77b4; fill-opacity: 0.5; stroke: #1f77b4; stroke-opacity: 0.5"/>
     <use xlink:href="#m3b5507f5dd" x="102.753409" y="77.3351" style="fill: #1f77b4; fill-opacity: 0.5; stroke: #1f77b4; stroke-opacity: 0.5"/>
     <use xlink:href="#m3b5507f5dd" x="60.132955" y="85.809532" style="fill: #1f77b4; fill-opacity: 0.5; stroke: #1f77b4; stroke-opacity: 0.5"/>
     <use xlink:href="#m3b5507f5dd" x="52.114773" y="82.484149" style="fill: #1f77b4; fill-opacity: 0.5; stroke: #1f77b4; stroke-opacity: 0.5"/>
     <use xlink:href="#m3b5507f5dd" x="45.385227" y="82.665692" style="fill: #1f77b4; fill-opacity: 0.5; stroke: #1f77b4; stroke-opacity: 0.5"/>
     <use xlink:href="#m3b5507f5dd" x="58.223864" y="84.51016" style="fill: #1f77b4; fill-opacity: 0.5; stroke: #1f77b4; stroke-opacity: 0.5"/>
     <use xlink:href="#m3b5507f5dd" x="70.298864" y="78.120345" style="fill: #1f77b4; fill-opacity: 0.5; stroke: #1f77b4; stroke-opacity: 0.5"/>
     <use xlink:href="#m3b5507f5dd" x="112.0125" y="33.83874" style="fill: #1f77b4; fill-opacity: 0.5; stroke: #1f77b4; stroke-opacity: 0.5"/>
     <use xlink:href="#m3b5507f5dd" x="43.2375" y="71.710966" style="fill: #1f77b4; fill-opacity: 0.5; stroke: #1f77b4; stroke-opacity: 0.5"/>
     <use xlink:href="#m3b5507f5dd" x="45.385227" y="77.022894" style="fill: #1f77b4; fill-opacity: 0.5; stroke: #1f77b4; stroke-opacity: 0.5"/>
     <use xlink:href="#m3b5507f5dd" x="54.023864" y="71.694943" style="fill: #1f77b4; fill-opacity: 0.5; stroke: #1f77b4; stroke-opacity: 0.5"/>
     <use xlink:href="#m3b5507f5dd" x="111.678409" y="40.42474" style="fill: #1f77b4; fill-opacity: 0.5; stroke: #1f77b4; stroke-opacity: 0.5"/>
     <use xlink:href="#m3b5507f5dd" x="110.819318" y="77.901586" style="fill: #1f77b4; fill-opacity: 0.5; stroke: #1f77b4; stroke-opacity: 0.5"/>
     <use xlink:href="#m3b5507f5dd" x="44.621591" y="40.356082" style="fill: #1f77b4; fill-opacity: 0.5; stroke: #1f77b4; stroke-opacity: 0.5"/>
     <use xlink:href="#m3b5507f5dd" x="47.103409" y="80.834996" style="fill: #1f77b4; fill-opacity: 0.5; stroke: #1f77b4; stroke-opacity: 0.5"/>
     <use xlink:href="#m3b5507f5dd" x="43.810227" y="76.882725" style="fill: #1f77b4; fill-opacity: 0.5; stroke: #1f77b4; stroke-opacity: 0.5"/>
     <use xlink:href="#m3b5507f5dd" x="44.144318" y="76.726338" style="fill: #1f77b4; fill-opacity: 0.5; stroke: #1f77b4; stroke-opacity: 0.5"/>
     <use xlink:href="#m3b5507f5dd" x="52.210227" y="84.601416" style="fill: #1f77b4; fill-opacity: 0.5; stroke: #1f77b4; stroke-opacity: 0.5"/>
     <use xlink:href="#m3b5507f5dd" x="47.103409" y="81.532781" style="fill: #1f77b4; fill-opacity: 0.5; stroke: #1f77b4; stroke-opacity: 0.5"/>
     <use xlink:href="#m3b5507f5dd" x="44.2875" y="81.838127" style="fill: #1f77b4; fill-opacity: 0.5; stroke: #1f77b4; stroke-opacity: 0.5"/>
     <use xlink:href="#m3b5507f5dd" x="45.767045" y="31.006235" style="fill: #1f77b4; fill-opacity: 0.5; stroke: #1f77b4; stroke-opacity: 0.5"/>
     <use xlink:href="#m3b5507f5dd" x="50.492045" y="37.335679" style="fill: #1f77b4; fill-opacity: 0.5; stroke: #1f77b4; stroke-opacity: 0.5"/>
     <use xlink:href="#m3b5507f5dd" x="52.210227" y="71.719064" style="fill: #1f77b4; fill-opacity: 0.5; stroke: #1f77b4; stroke-opacity: 0.5"/>
     <use xlink:href="#m3b5507f5dd" x="84.330682" y="78.727522" style="fill: #1f77b4; fill-opacity: 0.5; stroke: #1f77b4; stroke-opacity: 0.5"/>
     <use xlink:href="#m3b5507f5dd" x="134.921591" y="31.006338" style="fill: #1f77b4; fill-opacity: 0.5; stroke: #1f77b4; stroke-opacity: 0.5"/>
     <use xlink:href="#m3b5507f5dd" x="45.194318" y="83.024374" style="fill: #1f77b4; fill-opacity: 0.5; stroke: #1f77b4; stroke-opacity: 0.5"/>
     <use xlink:href="#m3b5507f5dd" x="44.8125" y="26.948902" style="fill: #1f77b4; fill-opacity: 0.5; stroke: #1f77b4; stroke-opacity: 0.5"/>
     <use xlink:href="#m3b5507f5dd" x="106.142045" y="73.162644" style="fill: #1f77b4; fill-opacity: 0.5; stroke: #1f77b4; stroke-opacity: 0.5"/>
     <use xlink:href="#m3b5507f5dd" x="46.482955" y="84.838443" style="fill: #1f77b4; fill-opacity: 0.5; stroke: #1f77b4; stroke-opacity: 0.5"/>
     <use xlink:href="#m3b5507f5dd" x="46.530682" y="37.545461" style="fill: #1f77b4; fill-opacity: 0.5; stroke: #1f77b4; stroke-opacity: 0.5"/>
     <use xlink:href="#m3b5507f5dd" x="134.921591" y="76.642088" style="fill: #1f77b4; fill-opacity: 0.5; stroke: #1f77b4; stroke-opacity: 0.5"/>
     <use xlink:href="#m3b5507f5dd" x="47.198864" y="82.69641" style="fill: #1f77b4; fill-opacity: 0.5; stroke: #1f77b4; stroke-opacity: 0.5"/>
     <use xlink:href="#m3b5507f5dd" x="139.789773" y="35.494518" style="fill: #1f77b4; fill-opacity: 0.5; stroke: #1f77b4; stroke-opacity: 0.5"/>
     <use xlink:href="#m3b5507f5dd" x="45.719318" y="32.351383" style="fill: #1f77b4; fill-opacity: 0.5; stroke: #1f77b4; stroke-opacity: 0.5"/>
     <use xlink:href="#m3b5507f5dd" x="53.069318" y="73.326869" style="fill: #1f77b4; fill-opacity: 0.5; stroke: #1f77b4; stroke-opacity: 0.5"/>
     <use xlink:href="#m3b5507f5dd" x="53.069318" y="33.21426" style="fill: #1f77b4; fill-opacity: 0.5; stroke: #1f77b4; stroke-opacity: 0.5"/>
     <use xlink:href="#m3b5507f5dd" x="76.646591" y="84.414987" style="fill: #1f77b4; fill-opacity: 0.5; stroke: #1f77b4; stroke-opacity: 0.5"/>
     <use xlink:href="#m3b5507f5dd" x="64.667045" y="75.321761" style="fill: #1f77b4; fill-opacity: 0.5; stroke: #1f77b4; stroke-opacity: 0.5"/>
     <use xlink:href="#m3b5507f5dd" x="76.026136" y="79.514431" style="fill: #1f77b4; fill-opacity: 0.5; stroke: #1f77b4; stroke-opacity: 0.5"/>
     <use xlink:href="#m3b5507f5dd" x="76.646591" y="69.982223" style="fill: #1f77b4; fill-opacity: 0.5; stroke: #1f77b4; stroke-opacity: 0.5"/>
     <use xlink:href="#m3b5507f5dd" x="47.819318" y="83.172792" style="fill: #1f77b4; fill-opacity: 0.5; stroke: #1f77b4; stroke-opacity: 0.5"/>
     <use xlink:href="#m3b5507f5dd" x="67.292045" y="73.252106" style="fill: #1f77b4; fill-opacity: 0.5; stroke: #1f77b4; stroke-opacity: 0.5"/>
     <use xlink:href="#m3b5507f5dd" x="67.196591" y="69.931114" style="fill: #1f77b4; fill-opacity: 0.5; stroke: #1f77b4; stroke-opacity: 0.5"/>
     <use xlink:href="#m3b5507f5dd" x="51.828409" y="75.619388" style="fill: #1f77b4; fill-opacity: 0.5; stroke: #1f77b4; stroke-opacity: 0.5"/>
     <use xlink:href="#m3b5507f5dd" x="62.567045" y="73.22137" style="fill: #1f77b4; fill-opacity: 0.5; stroke: #1f77b4; stroke-opacity: 0.5"/>
     <use xlink:href="#m3b5507f5dd" x="62.614773" y="74.742286" style="fill: #1f77b4; fill-opacity: 0.5; stroke: #1f77b4; stroke-opacity: 0.5"/>
     <use xlink:href="#m3b5507f5dd" x="64.810227" y="84.073732" style="fill: #1f77b4; fill-opacity: 0.5; stroke: #1f77b4; stroke-opacity: 0.5"/>
     <use xlink:href="#m3b5507f5dd" x="51.828409" y="69.835988" style="fill: #1f77b4; fill-opacity: 0.5; stroke: #1f77b4; stroke-opacity: 0.5"/>
     <use xlink:href="#m3b5507f5dd" x="79.796591" y="74.528687" style="fill: #1f77b4; fill-opacity: 0.5; stroke: #1f77b4; stroke-opacity: 0.5"/>
     <use xlink:href="#m3b5507f5dd" x="63.569318" y="70.459932" style="fill: #1f77b4; fill-opacity: 0.5; stroke: #1f77b4; stroke-opacity: 0.5"/>
     <use xlink:href="#m3b5507f5dd" x="70.919318" y="80.030649" style="fill: #1f77b4; fill-opacity: 0.5; stroke: #1f77b4; stroke-opacity: 0.5"/>
     <use xlink:href="#m3b5507f5dd" x="130.244318" y="81.092723" style="fill: #1f77b4; fill-opacity: 0.5; stroke: #1f77b4; stroke-opacity: 0.5"/>
     <use xlink:href="#m3b5507f5dd" x="130.530682" y="85.253522" style="fill: #1f77b4; fill-opacity: 0.5; stroke: #1f77b4; stroke-opacity: 0.5"/>
     <use xlink:href="#m3b5507f5dd" x="129.767045" y="71.29137" style="fill: #1f77b4; fill-opacity: 0.5; stroke: #1f77b4; stroke-opacity: 0.5"/>
    </g>
   </g>
   <g id="FillBetweenPolyCollection_1">
    <defs>
     <path id="mef633b024d" d="M 42.903409 -93.498243 
L 42.903409 -86.714481 
L 43.885916 -86.742257 
L 44.868423 -86.800256 
L 45.85093 -86.837253 
L 46.833437 -86.873237 
L 47.815944 -86.90945 
L 48.79845 -86.946269 
L 49.780957 -86.971243 
L 50.763464 -87.00248 
L 51.745971 -87.023603 
L 52.728478 -87.028019 
L 53.710985 -87.041209 
L 54.693492 -87.101212 
L 55.675999 -87.113932 
L 56.658506 -87.123364 
L 57.641012 -87.145824 
L 58.623519 -87.147046 
L 59.606026 -87.149714 
L 60.588533 -87.158385 
L 61.57104 -87.17682 
L 62.553547 -87.200719 
L 63.536054 -87.212814 
L 64.518561 -87.220362 
L 65.501067 -87.201826 
L 66.483574 -87.210633 
L 67.466081 -87.219058 
L 68.448588 -87.228028 
L 69.431095 -87.242581 
L 70.413602 -87.255579 
L 71.396109 -87.268747 
L 72.378616 -87.262714 
L 73.361123 -87.244542 
L 74.343629 -87.228773 
L 75.326136 -87.243889 
L 76.308643 -87.197959 
L 77.29115 -87.209256 
L 78.273657 -87.161493 
L 79.256164 -87.105859 
L 80.238671 -87.118286 
L 81.221178 -87.131285 
L 82.203685 -87.143637 
L 83.186191 -87.125319 
L 84.168698 -87.097963 
L 85.151205 -87.070606 
L 86.133712 -87.04452 
L 87.116219 -87.020981 
L 88.098726 -86.996124 
L 89.081233 -86.963946 
L 90.06374 -86.937531 
L 91.046247 -86.917722 
L 92.028753 -86.883648 
L 93.01126 -86.849619 
L 93.993767 -86.785599 
L 94.976274 -86.721761 
L 95.958781 -86.691854 
L 96.941288 -86.635851 
L 97.923795 -86.596913 
L 98.906302 -86.558129 
L 99.888809 -86.519685 
L 100.871315 -86.461111 
L 101.853822 -86.395411 
L 102.836329 -86.353993 
L 103.818836 -86.330926 
L 104.801343 -86.307991 
L 105.78385 -86.223039 
L 106.766357 -86.131947 
L 107.748864 -86.08449 
L 108.731371 -86.042547 
L 109.713877 -85.984968 
L 110.696384 -85.953192 
L 111.678891 -85.903995 
L 112.661398 -85.823213 
L 113.643905 -85.77224 
L 114.626412 -85.705906 
L 115.608919 -85.642542 
L 116.591426 -85.588643 
L 117.573933 -85.528292 
L 118.556439 -85.464447 
L 119.538946 -85.400603 
L 120.521453 -85.337788 
L 121.50396 -85.273828 
L 122.486467 -85.210548 
L 123.468974 -85.14675 
L 124.451481 -85.082331 
L 125.433988 -85.01894 
L 126.416494 -84.955718 
L 127.399001 -84.891944 
L 128.381508 -84.848753 
L 129.364015 -84.815135 
L 130.346522 -84.781517 
L 131.329029 -84.723179 
L 132.311536 -84.649715 
L 133.294043 -84.576714 
L 134.27655 -84.528697 
L 135.259056 -84.442294 
L 136.241563 -84.354744 
L 137.22407 -84.286597 
L 138.206577 -84.206572 
L 139.189084 -84.132412 
L 140.171591 -84.06424 
L 140.171591 -93.86093 
L 140.171591 -93.86093 
L 139.189084 -93.797257 
L 138.206577 -93.733584 
L 137.22407 -93.699447 
L 136.241563 -93.679247 
L 135.259056 -93.631028 
L 134.27655 -93.535152 
L 133.294043 -93.43883 
L 132.311536 -93.368804 
L 131.329029 -93.316427 
L 130.346522 -93.26405 
L 129.364015 -93.211673 
L 128.381508 -93.189318 
L 127.399001 -93.170149 
L 126.416494 -93.15098 
L 125.433988 -93.099125 
L 124.451481 -93.041145 
L 123.468974 -92.98612 
L 122.486467 -92.925812 
L 121.50396 -92.868777 
L 120.521453 -92.811742 
L 119.538946 -92.754708 
L 118.556439 -92.726071 
L 117.573933 -92.714051 
L 116.591426 -92.707704 
L 115.608919 -92.691439 
L 114.626412 -92.681337 
L 113.643905 -92.669739 
L 112.661398 -92.637623 
L 111.678891 -92.645139 
L 110.696384 -92.637671 
L 109.713877 -92.618079 
L 108.731371 -92.573507 
L 107.748864 -92.528645 
L 106.766357 -92.483297 
L 105.78385 -92.436951 
L 104.801343 -92.391322 
L 103.818836 -92.394641 
L 102.836329 -92.402554 
L 101.853822 -92.347295 
L 100.871315 -92.300235 
L 99.888809 -92.296083 
L 98.906302 -92.26428 
L 97.923795 -92.222759 
L 96.941288 -92.256513 
L 95.958781 -92.225461 
L 94.976274 -92.237498 
L 93.993767 -92.243252 
L 93.01126 -92.218175 
L 92.028753 -92.19306 
L 91.046247 -92.168675 
L 90.06374 -92.173757 
L 89.081233 -92.157282 
L 88.098726 -92.095022 
L 87.116219 -92.082988 
L 86.133712 -92.111871 
L 85.151205 -92.086039 
L 84.168698 -92.108864 
L 83.186191 -92.134038 
L 82.203685 -92.186375 
L 81.221178 -92.207245 
L 80.238671 -92.206439 
L 79.256164 -92.208789 
L 78.273657 -92.210088 
L 77.29115 -92.223441 
L 76.308643 -92.220461 
L 75.326136 -92.217009 
L 74.343629 -92.241904 
L 73.361123 -92.231947 
L 72.378616 -92.251368 
L 71.396109 -92.289604 
L 70.413602 -92.336716 
L 69.431095 -92.364343 
L 68.448588 -92.391196 
L 67.466081 -92.451514 
L 66.483574 -92.478374 
L 65.501067 -92.569516 
L 64.518561 -92.594829 
L 63.536054 -92.618833 
L 62.553547 -92.642754 
L 61.57104 -92.653429 
L 60.588533 -92.624431 
L 59.606026 -92.646059 
L 58.623519 -92.685577 
L 57.641012 -92.731186 
L 56.658506 -92.782467 
L 55.675999 -92.829007 
L 54.693492 -92.878784 
L 53.710985 -92.940552 
L 52.728478 -93.005195 
L 51.745971 -93.043581 
L 50.763464 -93.093244 
L 49.780957 -93.142837 
L 48.79845 -93.191203 
L 47.815944 -93.243916 
L 46.833437 -93.285682 
L 45.85093 -93.345022 
L 44.868423 -93.396044 
L 43.885916 -93.446753 
L 42.903409 -93.498243 
z
" style="stroke: #ffffff; stroke-opacity: 0.15; stroke-width: 0.8"/>
    </defs>
    <g clip-path="url(#pabcfd3259e)">
     <use xlink:href="#mef633b024d" x="0" y="162" style="fill: #1f77b4; fill-opacity: 0.15; stroke: #ffffff; stroke-opacity: 0.15; stroke-width: 0.8"/>
    </g>
   </g>
   <g id="line2d_7">
    <path d="M 42.903409 72.012748 
L 43.885916 72.029287 
L 44.868423 72.045825 
L 45.85093 72.062364 
L 46.833437 72.078903 
L 47.815944 72.095441 
L 48.79845 72.11198 
L 49.780957 72.128519 
L 50.763464 72.145058 
L 51.745971 72.161596 
L 52.728478 72.178135 
L 53.710985 72.194674 
L 54.693492 72.211212 
L 55.675999 72.227751 
L 56.658506 72.24429 
L 57.641012 72.260828 
L 58.623519 72.277367 
L 59.606026 72.293906 
L 60.588533 72.310444 
L 61.57104 72.326983 
L 62.553547 72.343522 
L 63.536054 72.360061 
L 64.518561 72.376599 
L 65.501067 72.393138 
L 66.483574 72.409677 
L 67.466081 72.426215 
L 68.448588 72.442754 
L 69.431095 72.459293 
L 70.413602 72.475831 
L 71.396109 72.49237 
L 72.378616 72.508909 
L 73.361123 72.525447 
L 74.343629 72.541986 
L 75.326136 72.558525 
L 76.308643 72.575064 
L 77.29115 72.591602 
L 78.273657 72.608141 
L 79.256164 72.62468 
L 80.238671 72.641218 
L 81.221178 72.657757 
L 82.203685 72.674296 
L 83.186191 72.690834 
L 84.168698 72.707373 
L 85.151205 72.723912 
L 86.133712 72.74045 
L 87.116219 72.756989 
L 88.098726 72.773528 
L 89.081233 72.790067 
L 90.06374 72.806605 
L 91.046247 72.823144 
L 92.028753 72.839683 
L 93.01126 72.856221 
L 93.993767 72.87276 
L 94.976274 72.889299 
L 95.958781 72.905837 
L 96.941288 72.922376 
L 97.923795 72.938915 
L 98.906302 72.955453 
L 99.888809 72.971992 
L 100.871315 72.988531 
L 101.853822 73.00507 
L 102.836329 73.021608 
L 103.818836 73.038147 
L 104.801343 73.054686 
L 105.78385 73.071224 
L 106.766357 73.087763 
L 107.748864 73.104302 
L 108.731371 73.12084 
L 109.713877 73.137379 
L 110.696384 73.153918 
L 111.678891 73.170456 
L 112.661398 73.186995 
L 113.643905 73.203534 
L 114.626412 73.220072 
L 115.608919 73.236611 
L 116.591426 73.25315 
L 117.573933 73.269689 
L 118.556439 73.286227 
L 119.538946 73.302766 
L 120.521453 73.319305 
L 121.50396 73.335843 
L 122.486467 73.352382 
L 123.468974 73.368921 
L 124.451481 73.385459 
L 125.433988 73.401998 
L 126.416494 73.418537 
L 127.399001 73.435075 
L 128.381508 73.451614 
L 129.364015 73.468153 
L 130.346522 73.484692 
L 131.329029 73.50123 
L 132.311536 73.517769 
L 133.294043 73.534308 
L 134.27655 73.550846 
L 135.259056 73.567385 
L 136.241563 73.583924 
L 137.22407 73.600462 
L 138.206577 73.617001 
L 139.189084 73.63354 
L 140.171591 73.650078 
" clip-path="url(#pabcfd3259e)" style="fill: none; stroke: #1f77b4; stroke-width: 1.8; stroke-linecap: round"/>
   </g>
   <g id="patch_3">
    <path d="M 38.04 120.18 
L 38.04 24 
" style="fill: none; stroke: #cccccc; stroke-linejoin: miter; stroke-linecap: square"/>
   </g>
   <g id="patch_4">
    <path d="M 145.035 120.18 
L 145.035 24 
" style="fill: none; stroke: #cccccc; stroke-linejoin: miter; stroke-linecap: square"/>
   </g>
   <g id="patch_5">
    <path d="M 38.04 120.18 
L 145.035 120.18 
" style="fill: none; stroke: #cccccc; stroke-linejoin: miter; stroke-linecap: square"/>
   </g>
   <g id="patch_6">
    <path d="M 38.04 24 
L 145.035 24 
" style="fill: none; stroke: #cccccc; stroke-linejoin: miter; stroke-linecap: square"/>
   </g>
   <g id="text_9">
    <!-- rho = -0.10 -->
    <g style="fill: #262626" transform="translate(102.237 35.982437) scale(0.1 -0.1)">
     <defs>
      <path id="Helvetica-72" d="M 428 3347 
L 963 3347 
L 963 2769 
Q 1028 2938 1284 3180 
Q 1541 3422 1875 3422 
Q 1891 3422 1928 3419 
Q 1966 3416 2056 3406 
L 2056 2813 
Q 2006 2822 1964 2825 
Q 1922 2828 1872 2828 
Q 1447 2828 1219 2554 
Q 991 2281 991 1925 
L 991 0 
L 428 0 
L 428 3347 
z
" transform="scale(0.015625)"/>
      <path id="Helvetica-3d" d="M 3547 2569 
L 3547 2044 
L 288 2044 
L 288 2569 
L 3547 2569 
z
M 3547 1228 
L 3547 694 
L 288 694 
L 288 1228 
L 3547 1228 
z
" transform="scale(0.015625)"/>
      <path id="Helvetica-2d" d="M 266 2072 
L 1834 2072 
L 1834 1494 
L 266 1494 
L 266 2072 
z
" transform="scale(0.015625)"/>
      <path id="Helvetica-2e" d="M 547 681 
L 1200 681 
L 1200 0 
L 547 0 
L 547 681 
z
" transform="scale(0.015625)"/>
     </defs>
     <use xlink:href="#Helvetica-72"/>
     <use xlink:href="#Helvetica-68" transform="translate(33.300781 0)"/>
     <use xlink:href="#Helvetica-6f" transform="translate(88.916016 0)"/>
     <use xlink:href="#Helvetica-20" transform="translate(144.53125 0)"/>
     <use xlink:href="#Helvetica-3d" transform="translate(172.314453 0)"/>
     <use xlink:href="#Helvetica-20" transform="translate(230.712891 0)"/>
     <use xlink:href="#Helvetica-2d" transform="translate(258.496094 0)"/>
     <use xlink:href="#Helvetica-30" transform="translate(291.796875 0)"/>
     <use xlink:href="#Helvetica-2e" transform="translate(347.412109 0)"/>
     <use xlink:href="#Helvetica-31" transform="translate(375.195312 0)"/>
     <use xlink:href="#Helvetica-30" transform="translate(430.810547 0)"/>
    </g>
    <!-- p = 2.70e-01 -->
    <g style="fill: #262626" transform="translate(102.237 46.674937) scale(0.1 -0.1)">
     <defs>
      <path id="Helvetica-37" d="M 3347 4400 
L 3347 3909 
Q 3131 3700 2773 3181 
Q 2416 2663 2141 2063 
Q 1869 1478 1728 997 
Q 1638 688 1494 0 
L 872 0 
Q 1084 1281 1809 2550 
Q 2238 3294 2709 3834 
L 234 3834 
L 234 4400 
L 3347 4400 
z
" transform="scale(0.015625)"/>
     </defs>
     <use xlink:href="#Helvetica-70"/>
     <use xlink:href="#Helvetica-20" transform="translate(55.615234 0)"/>
     <use xlink:href="#Helvetica-3d" transform="translate(83.398438 0)"/>
     <use xlink:href="#Helvetica-20" transform="translate(141.796875 0)"/>
     <use xlink:href="#Helvetica-32" transform="translate(169.580078 0)"/>
     <use xlink:href="#Helvetica-2e" transform="translate(225.195312 0)"/>
     <use xlink:href="#Helvetica-37" transform="translate(252.978516 0)"/>
     <use xlink:href="#Helvetica-30" transform="translate(308.59375 0)"/>
     <use xlink:href="#Helvetica-65" transform="translate(364.208984 0)"/>
     <use xlink:href="#Helvetica-2d" transform="translate(419.824219 0)"/>
     <use xlink:href="#Helvetica-30" transform="translate(453.125 0)"/>
     <use xlink:href="#Helvetica-31" transform="translate(508.740234 0)"/>
    </g>
   </g>
   <g id="text_10">
    <!-- AF3_server vs agonist msa depth -->
    <g style="fill: #262626" transform="translate(17.0625 18) scale(0.1 -0.1)">
     <defs>
      <path id="Helvetica-41" d="M 2844 1881 
L 2147 3909 
L 1406 1881 
L 2844 1881 
z
M 1822 4591 
L 2525 4591 
L 4191 0 
L 3509 0 
L 3044 1375 
L 1228 1375 
L 731 0 
L 94 0 
L 1822 4591 
z
" transform="scale(0.015625)"/>
      <path id="Helvetica-46" d="M 547 4591 
L 3731 4591 
L 3731 4028 
L 1169 4028 
L 1169 2634 
L 3422 2634 
L 3422 2088 
L 1169 2088 
L 1169 0 
L 547 0 
L 547 4591 
z
" transform="scale(0.015625)"/>
      <path id="Helvetica-33" d="M 1663 -122 
Q 869 -122 511 314 
Q 153 750 153 1375 
L 741 1375 
Q 778 941 903 744 
Q 1122 391 1694 391 
Q 2138 391 2406 628 
Q 2675 866 2675 1241 
Q 2675 1703 2392 1887 
Q 2109 2072 1606 2072 
Q 1550 2072 1492 2070 
Q 1434 2069 1375 2066 
L 1375 2563 
Q 1463 2553 1522 2550 
Q 1581 2547 1650 2547 
Q 1966 2547 2169 2647 
Q 2525 2822 2525 3272 
Q 2525 3606 2287 3787 
Q 2050 3969 1734 3969 
Q 1172 3969 956 3594 
Q 838 3388 822 3006 
L 266 3006 
Q 266 3506 466 3856 
Q 809 4481 1675 4481 
Q 2359 4481 2734 4176 
Q 3109 3872 3109 3294 
Q 3109 2881 2888 2625 
Q 2750 2466 2531 2375 
Q 2884 2278 3082 2001 
Q 3281 1725 3281 1325 
Q 3281 684 2859 281 
Q 2438 -122 1663 -122 
z
" transform="scale(0.015625)"/>
      <path id="Helvetica-5f" d="M 0 -800 
L 0 -484 
L 3559 -484 
L 3559 -800 
L 0 -800 
z
" transform="scale(0.015625)"/>
      <path id="Helvetica-76" d="M 688 3347 
L 1581 622 
L 2516 3347 
L 3131 3347 
L 1869 0 
L 1269 0 
L 34 3347 
L 688 3347 
z
" transform="scale(0.015625)"/>
     </defs>
     <use xlink:href="#Helvetica-41"/>
     <use xlink:href="#Helvetica-46" transform="translate(66.699219 0)"/>
     <use xlink:href="#Helvetica-33" transform="translate(127.783203 0)"/>
     <use xlink:href="#Helvetica-5f" transform="translate(183.398438 0)"/>
     <use xlink:href="#Helvetica-73" transform="translate(239.013672 0)"/>
     <use xlink:href="#Helvetica-65" transform="translate(289.013672 0)"/>
     <use xlink:href="#Helvetica-72" transform="translate(344.628906 0)"/>
     <use xlink:href="#Helvetica-76" transform="translate(377.929688 0)"/>
     <use xlink:href="#Helvetica-65" transform="translate(427.929688 0)"/>
     <use xlink:href="#Helvetica-72" transform="translate(483.544922 0)"/>
     <use xlink:href="#Helvetica-20" transform="translate(516.845703 0)"/>
     <use xlink:href="#Helvetica-76" transform="translate(544.628906 0)"/>
     <use xlink:href="#Helvetica-73" transform="translate(594.628906 0)"/>
     <use xlink:href="#Helvetica-20" transform="translate(644.628906 0)"/>
     <use xlink:href="#Helvetica-61" transform="translate(672.412109 0)"/>
     <use xlink:href="#Helvetica-67" transform="translate(728.027344 0)"/>
     <use xlink:href="#Helvetica-6f" transform="translate(783.642578 0)"/>
     <use xlink:href="#Helvetica-6e" transform="translate(839.257812 0)"/>
     <use xlink:href="#Helvetica-69" transform="translate(894.873047 0)"/>
     <use xlink:href="#Helvetica-73" transform="translate(917.089844 0)"/>
     <use xlink:href="#Helvetica-74" transform="translate(967.089844 0)"/>
     <use xlink:href="#Helvetica-20" transform="translate(994.873047 0)"/>
     <use xlink:href="#Helvetica-6d" transform="translate(1022.65625 0)"/>
     <use xlink:href="#Helvetica-73" transform="translate(1105.957031 0)"/>
     <use xlink:href="#Helvetica-61" transform="translate(1155.957031 0)"/>
     <use xlink:href="#Helvetica-20" transform="translate(1211.572266 0)"/>
     <use xlink:href="#Helvetica-64" transform="translate(1239.355469 0)"/>
     <use xlink:href="#Helvetica-65" transform="translate(1294.970703 0)"/>
     <use xlink:href="#Helvetica-70" transform="translate(1350.585938 0)"/>
     <use xlink:href="#Helvetica-74" transform="translate(1406.201172 0)"/>
     <use xlink:href="#Helvetica-68" transform="translate(1433.984375 0)"/>
    </g>
   </g>
  </g>
 </g>
 <defs>
  <clipPath id="pabcfd3259e">
   <rect x="38.04" y="24" width="106.995" height="96.18"/>
  </clipPath>
 </defs>
</svg>
