<?xml version="1.0" encoding="utf-8" standalone="no"?>
<!DOCTYPE svg PUBLIC "-//W3C//DTD SVG 1.1//EN"
  "http://www.w3.org/Graphics/SVG/1.1/DTD/svg11.dtd">
<svg xmlns:xlink="http://www.w3.org/1999/xlink" width="180pt" height="180pt" viewBox="0 0 180 180" xmlns="http://www.w3.org/2000/svg" version="1.1">
 <metadata>
  <rdf:RDF xmlns:dc="http://purl.org/dc/elements/1.1/" xmlns:cc="http://creativecommons.org/ns#" xmlns:rdf="http://www.w3.org/1999/02/22-rdf-syntax-ns#">
   <cc:Work>
    <dc:type rdf:resource="http://purl.org/dc/dcmitype/StillImage"/>
    <dc:date>2025-03-07T01:20:45.544695</dc:date>
    <dc:format>image/svg+xml</dc:format>
    <dc:creator>
     <cc:Agent>
      <dc:title>Matplotlib v3.10.0, https://matplotlib.org/</dc:title>
     </cc:Agent>
    </dc:creator>
   </cc:Work>
  </rdf:RDF>
 </metadata>
 <defs>
  <style type="text/css">*{stroke-linejoin: round; stroke-linecap: butt}</style>
 </defs>
 <g id="figure_1">
  <g id="patch_1">
   <path d="M 0 180 
L 180 180 
L 180 0 
L 0 0 
z
" style="fill: #ffffff"/>
  </g>
  <g id="axes_1">
   <g id="patch_2">
    <path d="M 38.04 138.18 
L 168.48 138.18 
L 168.48 24 
L 38.04 24 
z
" style="fill: #ffffff"/>
   </g>
   <g id="matplotlib.axis_1">
    <g id="xtick_1">
     <g id="line2d_1">
      <path d="M 60.909351 138.18 
L 60.909351 24 
" clip-path="url(#p4e45b7b365)" style="fill: none; stroke: #cccccc; stroke-width: 0.8; stroke-linecap: round"/>
     </g>
     <g id="text_1">
      <!-- 2 -->
      <g style="fill: #262626" transform="translate(58.128882 153.653437) scale(0.1 -0.1)">
       <defs>
        <path id="Helvetica-32" d="M 200 0 
Q 231 578 439 1006 
Q 647 1434 1250 1784 
L 1850 2131 
Q 2253 2366 2416 2531 
Q 2672 2791 2672 3125 
Q 2672 3516 2437 3745 
Q 2203 3975 1813 3975 
Q 1234 3975 1013 3538 
Q 894 3303 881 2888 
L 309 2888 
Q 319 3472 525 3841 
Q 891 4491 1816 4491 
Q 2584 4491 2939 4075 
Q 3294 3659 3294 3150 
Q 3294 2613 2916 2231 
Q 2697 2009 2131 1694 
L 1703 1456 
Q 1397 1288 1222 1134 
Q 909 863 828 531 
L 3272 531 
L 3272 0 
L 200 0 
z
" transform="scale(0.015625)"/>
       </defs>
       <use xlink:href="#Helvetica-32"/>
      </g>
     </g>
    </g>
    <g id="xtick_2">
     <g id="line2d_2">
      <path d="M 94.78987 138.18 
L 94.78987 24 
" clip-path="url(#p4e45b7b365)" style="fill: none; stroke: #cccccc; stroke-width: 0.8; stroke-linecap: round"/>
     </g>
     <g id="text_2">
      <!-- 4 -->
      <g style="fill: #262626" transform="translate(92.009401 153.653437) scale(0.1 -0.1)">
       <defs>
        <path id="Helvetica-34" d="M 2116 1584 
L 2116 3613 
L 681 1584 
L 2116 1584 
z
M 2125 0 
L 2125 1094 
L 163 1094 
L 163 1644 
L 2213 4488 
L 2688 4488 
L 2688 1584 
L 3347 1584 
L 3347 1094 
L 2688 1094 
L 2688 0 
L 2125 0 
z
" transform="scale(0.015625)"/>
       </defs>
       <use xlink:href="#Helvetica-34"/>
      </g>
     </g>
    </g>
    <g id="xtick_3">
     <g id="line2d_3">
      <path d="M 128.67039 138.18 
L 128.67039 24 
" clip-path="url(#p4e45b7b365)" style="fill: none; stroke: #cccccc; stroke-width: 0.8; stroke-linecap: round"/>
     </g>
     <g id="text_3">
      <!-- 6 -->
      <g style="fill: #262626" transform="translate(125.889921 153.653437) scale(0.1 -0.1)">
       <defs>
        <path id="Helvetica-36" d="M 1872 4494 
Q 2622 4494 2917 4105 
Q 3213 3716 3213 3303 
L 2656 3303 
Q 2606 3569 2497 3719 
Q 2294 4000 1881 4000 
Q 1409 4000 1131 3564 
Q 853 3128 822 2316 
Q 1016 2600 1309 2741 
Q 1578 2866 1909 2866 
Q 2472 2866 2890 2506 
Q 3309 2147 3309 1434 
Q 3309 825 2912 354 
Q 2516 -116 1781 -116 
Q 1153 -116 697 361 
Q 241 838 241 1966 
Q 241 2800 444 3381 
Q 834 4494 1872 4494 
z
M 1831 384 
Q 2275 384 2495 682 
Q 2716 981 2716 1388 
Q 2716 1731 2519 2042 
Q 2322 2353 1803 2353 
Q 1441 2353 1167 2112 
Q 894 1872 894 1388 
Q 894 963 1142 673 
Q 1391 384 1831 384 
z
" transform="scale(0.015625)"/>
       </defs>
       <use xlink:href="#Helvetica-36"/>
      </g>
     </g>
    </g>
    <g id="xtick_4">
     <g id="line2d_4">
      <path d="M 162.550909 138.18 
L 162.550909 24 
" clip-path="url(#p4e45b7b365)" style="fill: none; stroke: #cccccc; stroke-width: 0.8; stroke-linecap: round"/>
     </g>
     <g id="text_4">
      <!-- 8 -->
      <g style="fill: #262626" transform="translate(159.77044 153.653437) scale(0.1 -0.1)">
       <defs>
        <path id="Helvetica-38" d="M 1741 2600 
Q 2113 2600 2322 2808 
Q 2531 3016 2531 3303 
Q 2531 3553 2331 3762 
Q 2131 3972 1722 3972 
Q 1316 3972 1134 3762 
Q 953 3553 953 3272 
Q 953 2956 1187 2778 
Q 1422 2600 1741 2600 
z
M 1775 384 
Q 2166 384 2423 595 
Q 2681 806 2681 1225 
Q 2681 1659 2415 1884 
Q 2150 2109 1734 2109 
Q 1331 2109 1076 1879 
Q 822 1650 822 1244 
Q 822 894 1055 639 
Q 1288 384 1775 384 
z
M 975 2384 
Q 741 2484 609 2619 
Q 363 2869 363 3269 
Q 363 3769 725 4128 
Q 1088 4488 1753 4488 
Q 2397 4488 2762 4148 
Q 3128 3809 3128 3356 
Q 3128 2938 2916 2678 
Q 2797 2531 2547 2391 
Q 2825 2263 2984 2097 
Q 3281 1784 3281 1284 
Q 3281 694 2884 283 
Q 2488 -128 1763 -128 
Q 1109 -128 657 226 
Q 206 581 206 1256 
Q 206 1653 400 1942 
Q 594 2231 975 2384 
z
" transform="scale(0.015625)"/>
       </defs>
       <use xlink:href="#Helvetica-38"/>
      </g>
     </g>
    </g>
    <g id="text_5">
     <!-- gpcr selectivity -->
     <g style="fill: #262626" transform="translate(70.473281 166.91125) scale(0.1 -0.1)">
      <defs>
       <path id="Helvetica-67" d="M 1594 3406 
Q 1988 3406 2281 3213 
Q 2441 3103 2606 2894 
L 2606 3316 
L 3125 3316 
L 3125 272 
Q 3125 -366 2938 -734 
Q 2588 -1416 1616 -1416 
Q 1075 -1416 706 -1173 
Q 338 -931 294 -416 
L 866 -416 
Q 906 -641 1028 -763 
Q 1219 -950 1628 -950 
Q 2275 -950 2475 -494 
Q 2594 -225 2584 466 
Q 2416 209 2178 84 
Q 1941 -41 1550 -41 
Q 1006 -41 598 345 
Q 191 731 191 1622 
Q 191 2463 602 2934 
Q 1013 3406 1594 3406 
z
M 2606 1688 
Q 2606 2309 2350 2609 
Q 2094 2909 1697 2909 
Q 1103 2909 884 2353 
Q 769 2056 769 1575 
Q 769 1009 998 714 
Q 1228 419 1616 419 
Q 2222 419 2469 966 
Q 2606 1275 2606 1688 
z
M 1659 3428 
L 1659 3428 
z
" transform="scale(0.015625)"/>
       <path id="Helvetica-70" d="M 1825 378 
Q 2219 378 2480 708 
Q 2741 1038 2741 1694 
Q 2741 2094 2625 2381 
Q 2406 2934 1825 2934 
Q 1241 2934 1025 2350 
Q 909 2038 909 1556 
Q 909 1169 1025 897 
Q 1244 378 1825 378 
z
M 369 3331 
L 916 3331 
L 916 2888 
Q 1084 3116 1284 3241 
Q 1569 3428 1953 3428 
Q 2522 3428 2919 2992 
Q 3316 2556 3316 1747 
Q 3316 653 2744 184 
Q 2381 -113 1900 -113 
Q 1522 -113 1266 53 
Q 1116 147 931 375 
L 931 -1334 
L 369 -1334 
L 369 3331 
z
" transform="scale(0.015625)"/>
       <path id="Helvetica-63" d="M 1703 3444 
Q 2269 3444 2623 3169 
Q 2978 2894 3050 2222 
L 2503 2222 
Q 2453 2531 2275 2736 
Q 2097 2941 1703 2941 
Q 1166 2941 934 2416 
Q 784 2075 784 1575 
Q 784 1072 996 728 
Q 1209 384 1666 384 
Q 2016 384 2220 598 
Q 2425 813 2503 1184 
L 3050 1184 
Q 2956 519 2581 211 
Q 2206 -97 1622 -97 
Q 966 -97 575 383 
Q 184 863 184 1581 
Q 184 2463 612 2953 
Q 1041 3444 1703 3444 
z
M 1616 3428 
L 1616 3428 
z
" transform="scale(0.015625)"/>
       <path id="Helvetica-72" d="M 428 3347 
L 963 3347 
L 963 2769 
Q 1028 2938 1284 3180 
Q 1541 3422 1875 3422 
Q 1891 3422 1928 3419 
Q 1966 3416 2056 3406 
L 2056 2813 
Q 2006 2822 1964 2825 
Q 1922 2828 1872 2828 
Q 1447 2828 1219 2554 
Q 991 2281 991 1925 
L 991 0 
L 428 0 
L 428 3347 
z
" transform="scale(0.015625)"/>
       <path id="Helvetica-20" transform="scale(0.015625)"/>
       <path id="Helvetica-73" d="M 747 1050 
Q 772 769 888 619 
Q 1100 347 1625 347 
Q 1938 347 2175 483 
Q 2413 619 2413 903 
Q 2413 1119 2222 1231 
Q 2100 1300 1741 1391 
L 1294 1503 
Q 866 1609 663 1741 
Q 300 1969 300 2372 
Q 300 2847 642 3140 
Q 984 3434 1563 3434 
Q 2319 3434 2653 2991 
Q 2863 2709 2856 2384 
L 2325 2384 
Q 2309 2575 2191 2731 
Q 1997 2953 1519 2953 
Q 1200 2953 1036 2831 
Q 872 2709 872 2509 
Q 872 2291 1088 2159 
Q 1213 2081 1456 2022 
L 1828 1931 
Q 2434 1784 2641 1647 
Q 2969 1431 2969 969 
Q 2969 522 2630 197 
Q 2291 -128 1597 -128 
Q 850 -128 539 211 
Q 228 550 206 1050 
L 747 1050 
z
M 1578 3428 
L 1578 3428 
z
" transform="scale(0.015625)"/>
       <path id="Helvetica-65" d="M 1806 3422 
Q 2163 3422 2497 3255 
Q 2831 3088 3006 2822 
Q 3175 2569 3231 2231 
Q 3281 2000 3281 1494 
L 828 1494 
Q 844 984 1069 676 
Q 1294 369 1766 369 
Q 2206 369 2469 659 
Q 2619 828 2681 1050 
L 3234 1050 
Q 3213 866 3089 639 
Q 2966 413 2813 269 
Q 2556 19 2178 -69 
Q 1975 -119 1719 -119 
Q 1094 -119 659 336 
Q 225 791 225 1609 
Q 225 2416 662 2919 
Q 1100 3422 1806 3422 
z
M 2703 1941 
Q 2669 2306 2544 2525 
Q 2313 2931 1772 2931 
Q 1384 2931 1121 2651 
Q 859 2372 844 1941 
L 2703 1941 
z
M 1753 3428 
L 1753 3428 
z
" transform="scale(0.015625)"/>
       <path id="Helvetica-6c" d="M 428 4591 
L 991 4591 
L 991 0 
L 428 0 
L 428 4591 
z
" transform="scale(0.015625)"/>
       <path id="Helvetica-74" d="M 525 4281 
L 1094 4281 
L 1094 3347 
L 1628 3347 
L 1628 2888 
L 1094 2888 
L 1094 703 
Q 1094 528 1213 469 
Q 1278 434 1431 434 
Q 1472 434 1519 436 
Q 1566 438 1628 444 
L 1628 0 
Q 1531 -28 1426 -40 
Q 1322 -53 1200 -53 
Q 806 -53 665 148 
Q 525 350 525 672 
L 525 2888 
L 72 2888 
L 72 3347 
L 525 3347 
L 525 4281 
z
" transform="scale(0.015625)"/>
       <path id="Helvetica-69" d="M 413 3331 
L 984 3331 
L 984 0 
L 413 0 
L 413 3331 
z
M 413 4591 
L 984 4591 
L 984 3953 
L 413 3953 
L 413 4591 
z
" transform="scale(0.015625)"/>
       <path id="Helvetica-76" d="M 688 3347 
L 1581 622 
L 2516 3347 
L 3131 3347 
L 1869 0 
L 1269 0 
L 34 3347 
L 688 3347 
z
" transform="scale(0.015625)"/>
       <path id="Helvetica-79" d="M 2503 3347 
L 3125 3347 
Q 3006 3025 2597 1878 
Q 2291 1016 2084 472 
Q 1597 -809 1397 -1090 
Q 1197 -1372 709 -1372 
Q 591 -1372 527 -1362 
Q 463 -1353 369 -1328 
L 369 -816 
Q 516 -856 581 -865 
Q 647 -875 697 -875 
Q 853 -875 926 -823 
Q 1000 -772 1050 -697 
Q 1066 -672 1162 -440 
Q 1259 -209 1303 -97 
L 66 3347 
L 703 3347 
L 1600 622 
L 2503 3347 
z
M 1597 3428 
L 1597 3428 
z
" transform="scale(0.015625)"/>
      </defs>
      <use xlink:href="#Helvetica-67"/>
      <use xlink:href="#Helvetica-70" transform="translate(55.615234 0)"/>
      <use xlink:href="#Helvetica-63" transform="translate(111.230469 0)"/>
      <use xlink:href="#Helvetica-72" transform="translate(161.230469 0)"/>
      <use xlink:href="#Helvetica-20" transform="translate(194.53125 0)"/>
      <use xlink:href="#Helvetica-73" transform="translate(222.314453 0)"/>
      <use xlink:href="#Helvetica-65" transform="translate(272.314453 0)"/>
      <use xlink:href="#Helvetica-6c" transform="translate(327.929688 0)"/>
      <use xlink:href="#Helvetica-65" transform="translate(350.146484 0)"/>
      <use xlink:href="#Helvetica-63" transform="translate(405.761719 0)"/>
      <use xlink:href="#Helvetica-74" transform="translate(455.761719 0)"/>
      <use xlink:href="#Helvetica-69" transform="translate(483.544922 0)"/>
      <use xlink:href="#Helvetica-76" transform="translate(505.761719 0)"/>
      <use xlink:href="#Helvetica-69" transform="translate(555.761719 0)"/>
      <use xlink:href="#Helvetica-74" transform="translate(577.978516 0)"/>
      <use xlink:href="#Helvetica-79" transform="translate(605.761719 0)"/>
     </g>
    </g>
   </g>
   <g id="matplotlib.axis_2">
    <g id="ytick_1">
     <g id="line2d_5">
      <path d="M 38.04 138.18 
L 168.48 138.18 
" clip-path="url(#p4e45b7b365)" style="fill: none; stroke: #cccccc; stroke-width: 0.8; stroke-linecap: round"/>
     </g>
     <g id="text_6">
      <!-- 0 -->
      <g style="fill: #262626" transform="translate(24.179063 141.766719) scale(0.1 -0.1)">
       <defs>
        <path id="Helvetica-30" d="M 1731 4475 
Q 2600 4475 2988 3759 
Q 3288 3206 3288 2244 
Q 3288 1331 3016 734 
Q 2622 -122 1728 -122 
Q 922 -122 528 578 
Q 200 1163 200 2147 
Q 200 2909 397 3456 
Q 766 4475 1731 4475 
z
M 1725 391 
Q 2163 391 2422 778 
Q 2681 1166 2681 2222 
Q 2681 2984 2493 3476 
Q 2306 3969 1766 3969 
Q 1269 3969 1039 3501 
Q 809 3034 809 2125 
Q 809 1441 956 1025 
Q 1181 391 1725 391 
z
" transform="scale(0.015625)"/>
       </defs>
       <use xlink:href="#Helvetica-30"/>
      </g>
     </g>
    </g>
    <g id="ytick_2">
     <g id="line2d_6">
      <path d="M 38.04 124.371353 
L 168.48 124.371353 
" clip-path="url(#p4e45b7b365)" style="fill: none; stroke: #cccccc; stroke-width: 0.8; stroke-linecap: round"/>
     </g>
     <g id="text_7">
      <!-- 1 -->
      <g style="fill: #262626" transform="translate(24.179063 127.958072) scale(0.1 -0.1)">
       <defs>
        <path id="Helvetica-31" d="M 613 3169 
L 613 3600 
Q 1222 3659 1462 3798 
Q 1703 3938 1822 4456 
L 2266 4456 
L 2266 0 
L 1666 0 
L 1666 3169 
L 613 3169 
z
" transform="scale(0.015625)"/>
       </defs>
       <use xlink:href="#Helvetica-31"/>
      </g>
     </g>
    </g>
    <g id="ytick_3">
     <g id="line2d_7">
      <path d="M 38.04 110.562707 
L 168.48 110.562707 
" clip-path="url(#p4e45b7b365)" style="fill: none; stroke: #cccccc; stroke-width: 0.8; stroke-linecap: round"/>
     </g>
     <g id="text_8">
      <!-- 2 -->
      <g style="fill: #262626" transform="translate(24.179063 114.149426) scale(0.1 -0.1)">
       <use xlink:href="#Helvetica-32"/>
      </g>
     </g>
    </g>
    <g id="ytick_4">
     <g id="line2d_8">
      <path d="M 38.04 96.75406 
L 168.48 96.75406 
" clip-path="url(#p4e45b7b365)" style="fill: none; stroke: #cccccc; stroke-width: 0.8; stroke-linecap: round"/>
     </g>
     <g id="text_9">
      <!-- 3 -->
      <g style="fill: #262626" transform="translate(24.179063 100.340779) scale(0.1 -0.1)">
       <defs>
        <path id="Helvetica-33" d="M 1663 -122 
Q 869 -122 511 314 
Q 153 750 153 1375 
L 741 1375 
Q 778 941 903 744 
Q 1122 391 1694 391 
Q 2138 391 2406 628 
Q 2675 866 2675 1241 
Q 2675 1703 2392 1887 
Q 2109 2072 1606 2072 
Q 1550 2072 1492 2070 
Q 1434 2069 1375 2066 
L 1375 2563 
Q 1463 2553 1522 2550 
Q 1581 2547 1650 2547 
Q 1966 2547 2169 2647 
Q 2525 2822 2525 3272 
Q 2525 3606 2287 3787 
Q 2050 3969 1734 3969 
Q 1172 3969 956 3594 
Q 838 3388 822 3006 
L 266 3006 
Q 266 3506 466 3856 
Q 809 4481 1675 4481 
Q 2359 4481 2734 4176 
Q 3109 3872 3109 3294 
Q 3109 2881 2888 2625 
Q 2750 2466 2531 2375 
Q 2884 2278 3082 2001 
Q 3281 1725 3281 1325 
Q 3281 684 2859 281 
Q 2438 -122 1663 -122 
z
" transform="scale(0.015625)"/>
       </defs>
       <use xlink:href="#Helvetica-33"/>
      </g>
     </g>
    </g>
    <g id="ytick_5">
     <g id="line2d_9">
      <path d="M 38.04 82.945414 
L 168.48 82.945414 
" clip-path="url(#p4e45b7b365)" style="fill: none; stroke: #cccccc; stroke-width: 0.8; stroke-linecap: round"/>
     </g>
     <g id="text_10">
      <!-- 4 -->
      <g style="fill: #262626" transform="translate(24.179063 86.532132) scale(0.1 -0.1)">
       <use xlink:href="#Helvetica-34"/>
      </g>
     </g>
    </g>
    <g id="ytick_6">
     <g id="line2d_10">
      <path d="M 38.04 69.136767 
L 168.48 69.136767 
" clip-path="url(#p4e45b7b365)" style="fill: none; stroke: #cccccc; stroke-width: 0.8; stroke-linecap: round"/>
     </g>
     <g id="text_11">
      <!-- 5 -->
      <g style="fill: #262626" transform="translate(24.179063 72.723486) scale(0.1 -0.1)">
       <defs>
        <path id="Helvetica-35" d="M 791 1141 
Q 847 659 1238 475 
Q 1438 381 1700 381 
Q 2200 381 2440 700 
Q 2681 1019 2681 1406 
Q 2681 1875 2395 2131 
Q 2109 2388 1709 2388 
Q 1419 2388 1211 2275 
Q 1003 2163 856 1963 
L 369 1991 
L 709 4400 
L 3034 4400 
L 3034 3856 
L 1131 3856 
L 941 2613 
Q 1097 2731 1238 2791 
Q 1488 2894 1816 2894 
Q 2431 2894 2859 2497 
Q 3288 2100 3288 1491 
Q 3288 856 2895 371 
Q 2503 -113 1644 -113 
Q 1097 -113 676 195 
Q 256 503 206 1141 
L 791 1141 
z
" transform="scale(0.015625)"/>
       </defs>
       <use xlink:href="#Helvetica-35"/>
      </g>
     </g>
    </g>
    <g id="ytick_7">
     <g id="line2d_11">
      <path d="M 38.04 55.32812 
L 168.48 55.32812 
" clip-path="url(#p4e45b7b365)" style="fill: none; stroke: #cccccc; stroke-width: 0.8; stroke-linecap: round"/>
     </g>
     <g id="text_12">
      <!-- 6 -->
      <g style="fill: #262626" transform="translate(24.179063 58.914839) scale(0.1 -0.1)">
       <use xlink:href="#Helvetica-36"/>
      </g>
     </g>
    </g>
    <g id="ytick_8">
     <g id="line2d_12">
      <path d="M 38.04 41.519474 
L 168.48 41.519474 
" clip-path="url(#p4e45b7b365)" style="fill: none; stroke: #cccccc; stroke-width: 0.8; stroke-linecap: round"/>
     </g>
     <g id="text_13">
      <!-- 7 -->
      <g style="fill: #262626" transform="translate(24.179063 45.106193) scale(0.1 -0.1)">
       <defs>
        <path id="Helvetica-37" d="M 3347 4400 
L 3347 3909 
Q 3131 3700 2773 3181 
Q 2416 2663 2141 2063 
Q 1869 1478 1728 997 
Q 1638 688 1494 0 
L 872 0 
Q 1084 1281 1809 2550 
Q 2238 3294 2709 3834 
L 234 3834 
L 234 4400 
L 3347 4400 
z
" transform="scale(0.015625)"/>
       </defs>
       <use xlink:href="#Helvetica-37"/>
      </g>
     </g>
    </g>
    <g id="ytick_9">
     <g id="line2d_13">
      <path d="M 38.04 27.710827 
L 168.48 27.710827 
" clip-path="url(#p4e45b7b365)" style="fill: none; stroke: #cccccc; stroke-width: 0.8; stroke-linecap: round"/>
     </g>
     <g id="text_14">
      <!-- 8 -->
      <g style="fill: #262626" transform="translate(24.179063 31.297546) scale(0.1 -0.1)">
       <use xlink:href="#Helvetica-38"/>
      </g>
     </g>
    </g>
    <g id="text_15">
     <!-- Rank -->
     <g style="fill: #262626" transform="translate(18.094688 92.761875) rotate(-90) scale(0.1 -0.1)">
      <defs>
       <path id="Helvetica-52" d="M 2622 2488 
Q 3059 2488 3314 2663 
Q 3569 2838 3569 3294 
Q 3569 3784 3213 3963 
Q 3022 4056 2703 4056 
L 1184 4056 
L 1184 2488 
L 2622 2488 
z
M 563 4591 
L 2688 4591 
Q 3213 4591 3553 4438 
Q 4200 4144 4200 3353 
Q 4200 2941 4029 2678 
Q 3859 2416 3553 2256 
Q 3822 2147 3958 1969 
Q 4094 1791 4109 1391 
L 4131 775 
Q 4141 513 4175 384 
Q 4231 166 4375 103 
L 4375 0 
L 3613 0 
Q 3581 59 3562 153 
Q 3544 247 3531 516 
L 3494 1281 
Q 3472 1731 3159 1884 
Q 2981 1969 2600 1969 
L 1184 1969 
L 1184 0 
L 563 0 
L 563 4591 
z
" transform="scale(0.015625)"/>
       <path id="Helvetica-61" d="M 844 891 
Q 844 647 1022 506 
Q 1200 366 1444 366 
Q 1741 366 2019 503 
Q 2488 731 2488 1250 
L 2488 1703 
Q 2384 1638 2221 1594 
Q 2059 1550 1903 1531 
L 1563 1488 
Q 1256 1447 1103 1359 
Q 844 1213 844 891 
z
M 2206 2028 
Q 2400 2053 2466 2191 
Q 2503 2266 2503 2406 
Q 2503 2694 2298 2823 
Q 2094 2953 1713 2953 
Q 1272 2953 1088 2716 
Q 984 2584 953 2325 
L 428 2325 
Q 444 2944 830 3186 
Q 1216 3428 1725 3428 
Q 2316 3428 2684 3203 
Q 3050 2978 3050 2503 
L 3050 575 
Q 3050 488 3086 434 
Q 3122 381 3238 381 
Q 3275 381 3322 386 
Q 3369 391 3422 400 
L 3422 -16 
Q 3291 -53 3222 -62 
Q 3153 -72 3034 -72 
Q 2744 -72 2613 134 
Q 2544 244 2516 444 
Q 2344 219 2022 53 
Q 1700 -113 1313 -113 
Q 847 -113 551 170 
Q 256 453 256 878 
Q 256 1344 547 1600 
Q 838 1856 1309 1916 
L 2206 2028 
z
M 1741 3428 
L 1741 3428 
z
" transform="scale(0.015625)"/>
       <path id="Helvetica-6e" d="M 413 3347 
L 947 3347 
L 947 2872 
Q 1184 3166 1450 3294 
Q 1716 3422 2041 3422 
Q 2753 3422 3003 2925 
Q 3141 2653 3141 2147 
L 3141 0 
L 2569 0 
L 2569 2109 
Q 2569 2416 2478 2603 
Q 2328 2916 1934 2916 
Q 1734 2916 1606 2875 
Q 1375 2806 1200 2600 
Q 1059 2434 1017 2257 
Q 975 2081 975 1753 
L 975 0 
L 413 0 
L 413 3347 
z
M 1734 3428 
L 1734 3428 
z
" transform="scale(0.015625)"/>
       <path id="Helvetica-6b" d="M 400 4591 
L 941 4591 
L 941 1925 
L 2384 3347 
L 3103 3347 
L 1822 2094 
L 3175 0 
L 2456 0 
L 1413 1688 
L 941 1256 
L 941 0 
L 400 0 
L 400 4591 
z
" transform="scale(0.015625)"/>
      </defs>
      <use xlink:href="#Helvetica-52"/>
      <use xlink:href="#Helvetica-61" transform="translate(72.216797 0)"/>
      <use xlink:href="#Helvetica-6e" transform="translate(127.832031 0)"/>
      <use xlink:href="#Helvetica-6b" transform="translate(183.447266 0)"/>
     </g>
    </g>
   </g>
   <g id="PathCollection_1">
    <defs>
     <path id="m65b32c088d" d="M 0 2.4 
C 0.636487 2.4 1.246992 2.147121 1.697056 1.697056 
C 2.147121 1.246992 2.4 0.636487 2.4 0 
C 2.4 -0.636487 2.147121 -1.246992 1.697056 -1.697056 
C 1.246992 -2.147121 0.636487 -2.4 0 -2.4 
C -0.636487 -2.4 -1.246992 -2.147121 -1.697056 -1.697056 
C -2.147121 -1.246992 -2.4 -0.636487 -2.4 0 
C -2.4 0.636487 -2.147121 1.246992 -1.697056 1.697056 
C -1.246992 2.147121 -0.636487 2.4 0 2.4 
z
" style="stroke: #1f77b4; stroke-opacity: 0.5"/>
    </defs>
    <g clip-path="url(#p4e45b7b365)">
     <use xlink:href="#m65b32c088d" x="60.909351" y="123.74019" style="fill: #1f77b4; fill-opacity: 0.5; stroke: #1f77b4; stroke-opacity: 0.5"/>
     <use xlink:href="#m65b32c088d" x="60.909351" y="30.312686" style="fill: #1f77b4; fill-opacity: 0.5; stroke: #1f77b4; stroke-opacity: 0.5"/>
     <use xlink:href="#m65b32c088d" x="128.67039" y="54.733629" style="fill: #1f77b4; fill-opacity: 0.5; stroke: #1f77b4; stroke-opacity: 0.5"/>
     <use xlink:href="#m65b32c088d" x="60.909351" y="110.260958" style="fill: #1f77b4; fill-opacity: 0.5; stroke: #1f77b4; stroke-opacity: 0.5"/>
     <use xlink:href="#m65b32c088d" x="94.78987" y="121.703177" style="fill: #1f77b4; fill-opacity: 0.5; stroke: #1f77b4; stroke-opacity: 0.5"/>
     <use xlink:href="#m65b32c088d" x="60.909351" y="95.733367" style="fill: #1f77b4; fill-opacity: 0.5; stroke: #1f77b4; stroke-opacity: 0.5"/>
     <use xlink:href="#m65b32c088d" x="145.610649" y="56.891409" style="fill: #1f77b4; fill-opacity: 0.5; stroke: #1f77b4; stroke-opacity: 0.5"/>
     <use xlink:href="#m65b32c088d" x="94.78987" y="94.641659" style="fill: #1f77b4; fill-opacity: 0.5; stroke: #1f77b4; stroke-opacity: 0.5"/>
     <use xlink:href="#m65b32c088d" x="77.84961" y="124.50888" style="fill: #1f77b4; fill-opacity: 0.5; stroke: #1f77b4; stroke-opacity: 0.5"/>
     <use xlink:href="#m65b32c088d" x="94.78987" y="124.334738" style="fill: #1f77b4; fill-opacity: 0.5; stroke: #1f77b4; stroke-opacity: 0.5"/>
     <use xlink:href="#m65b32c088d" x="43.969091" y="67.575002" style="fill: #1f77b4; fill-opacity: 0.5; stroke: #1f77b4; stroke-opacity: 0.5"/>
     <use xlink:href="#m65b32c088d" x="77.84961" y="28.789286" style="fill: #1f77b4; fill-opacity: 0.5; stroke: #1f77b4; stroke-opacity: 0.5"/>
     <use xlink:href="#m65b32c088d" x="94.78987" y="109.705357" style="fill: #1f77b4; fill-opacity: 0.5; stroke: #1f77b4; stroke-opacity: 0.5"/>
     <use xlink:href="#m65b32c088d" x="94.78987" y="121.959316" style="fill: #1f77b4; fill-opacity: 0.5; stroke: #1f77b4; stroke-opacity: 0.5"/>
     <use xlink:href="#m65b32c088d" x="162.550909" y="94.477138" style="fill: #1f77b4; fill-opacity: 0.5; stroke: #1f77b4; stroke-opacity: 0.5"/>
     <use xlink:href="#m65b32c088d" x="94.78987" y="82.778036" style="fill: #1f77b4; fill-opacity: 0.5; stroke: #1f77b4; stroke-opacity: 0.5"/>
     <use xlink:href="#m65b32c088d" x="94.78987" y="52.962881" style="fill: #1f77b4; fill-opacity: 0.5; stroke: #1f77b4; stroke-opacity: 0.5"/>
     <use xlink:href="#m65b32c088d" x="77.84961" y="111.620292" style="fill: #1f77b4; fill-opacity: 0.5; stroke: #1f77b4; stroke-opacity: 0.5"/>
     <use xlink:href="#m65b32c088d" x="43.969091" y="68.499739" style="fill: #1f77b4; fill-opacity: 0.5; stroke: #1f77b4; stroke-opacity: 0.5"/>
     <use xlink:href="#m65b32c088d" x="43.969091" y="111.657502" style="fill: #1f77b4; fill-opacity: 0.5; stroke: #1f77b4; stroke-opacity: 0.5"/>
     <use xlink:href="#m65b32c088d" x="145.610649" y="54.441844" style="fill: #1f77b4; fill-opacity: 0.5; stroke: #1f77b4; stroke-opacity: 0.5"/>
     <use xlink:href="#m65b32c088d" x="77.84961" y="80.188556" style="fill: #1f77b4; fill-opacity: 0.5; stroke: #1f77b4; stroke-opacity: 0.5"/>
     <use xlink:href="#m65b32c088d" x="77.84961" y="39.13738" style="fill: #1f77b4; fill-opacity: 0.5; stroke: #1f77b4; stroke-opacity: 0.5"/>
     <use xlink:href="#m65b32c088d" x="111.73013" y="108.792708" style="fill: #1f77b4; fill-opacity: 0.5; stroke: #1f77b4; stroke-opacity: 0.5"/>
     <use xlink:href="#m65b32c088d" x="77.84961" y="69.046158" style="fill: #1f77b4; fill-opacity: 0.5; stroke: #1f77b4; stroke-opacity: 0.5"/>
     <use xlink:href="#m65b32c088d" x="94.78987" y="96.415443" style="fill: #1f77b4; fill-opacity: 0.5; stroke: #1f77b4; stroke-opacity: 0.5"/>
     <use xlink:href="#m65b32c088d" x="43.969091" y="94.889451" style="fill: #1f77b4; fill-opacity: 0.5; stroke: #1f77b4; stroke-opacity: 0.5"/>
     <use xlink:href="#m65b32c088d" x="43.969091" y="85.368236" style="fill: #1f77b4; fill-opacity: 0.5; stroke: #1f77b4; stroke-opacity: 0.5"/>
     <use xlink:href="#m65b32c088d" x="162.550909" y="83.228513" style="fill: #1f77b4; fill-opacity: 0.5; stroke: #1f77b4; stroke-opacity: 0.5"/>
     <use xlink:href="#m65b32c088d" x="77.84961" y="42.959992" style="fill: #1f77b4; fill-opacity: 0.5; stroke: #1f77b4; stroke-opacity: 0.5"/>
     <use xlink:href="#m65b32c088d" x="43.969091" y="122.078873" style="fill: #1f77b4; fill-opacity: 0.5; stroke: #1f77b4; stroke-opacity: 0.5"/>
     <use xlink:href="#m65b32c088d" x="77.84961" y="56.287943" style="fill: #1f77b4; fill-opacity: 0.5; stroke: #1f77b4; stroke-opacity: 0.5"/>
     <use xlink:href="#m65b32c088d" x="77.84961" y="98.055141" style="fill: #1f77b4; fill-opacity: 0.5; stroke: #1f77b4; stroke-opacity: 0.5"/>
     <use xlink:href="#m65b32c088d" x="77.84961" y="84.495555" style="fill: #1f77b4; fill-opacity: 0.5; stroke: #1f77b4; stroke-opacity: 0.5"/>
     <use xlink:href="#m65b32c088d" x="43.969091" y="98.795602" style="fill: #1f77b4; fill-opacity: 0.5; stroke: #1f77b4; stroke-opacity: 0.5"/>
     <use xlink:href="#m65b32c088d" x="43.969091" y="112.17002" style="fill: #1f77b4; fill-opacity: 0.5; stroke: #1f77b4; stroke-opacity: 0.5"/>
     <use xlink:href="#m65b32c088d" x="111.73013" y="124.575011" style="fill: #1f77b4; fill-opacity: 0.5; stroke: #1f77b4; stroke-opacity: 0.5"/>
     <use xlink:href="#m65b32c088d" x="77.84961" y="81.176965" style="fill: #1f77b4; fill-opacity: 0.5; stroke: #1f77b4; stroke-opacity: 0.5"/>
     <use xlink:href="#m65b32c088d" x="128.67039" y="124.33093" style="fill: #1f77b4; fill-opacity: 0.5; stroke: #1f77b4; stroke-opacity: 0.5"/>
     <use xlink:href="#m65b32c088d" x="111.73013" y="110.770846" style="fill: #1f77b4; fill-opacity: 0.5; stroke: #1f77b4; stroke-opacity: 0.5"/>
    </g>
   </g>
   <g id="FillBetweenPolyCollection_1">
    <defs>
     <path id="mc764c95883" d="M 43.969091 -103.438698 
L 43.969091 -76.670066 
L 45.166887 -76.95423 
L 46.364683 -77.179706 
L 47.562479 -77.485254 
L 48.760275 -77.736557 
L 49.958072 -77.969388 
L 51.155868 -78.20077 
L 52.353664 -78.405065 
L 53.55146 -78.666792 
L 54.749256 -78.896643 
L 55.947052 -79.110532 
L 57.144848 -79.340351 
L 58.342645 -79.493002 
L 59.540441 -79.647228 
L 60.738237 -79.823009 
L 61.936033 -79.952704 
L 63.133829 -80.104954 
L 64.331625 -80.189017 
L 65.529421 -80.391954 
L 66.727218 -80.568217 
L 67.925014 -80.714327 
L 69.12281 -80.893985 
L 70.320606 -80.969429 
L 71.518402 -81.138875 
L 72.716198 -81.298342 
L 73.913994 -81.391485 
L 75.111791 -81.609256 
L 76.309587 -81.588985 
L 77.507383 -81.707846 
L 78.705179 -81.855318 
L 79.902975 -82.002232 
L 81.100771 -82.073813 
L 82.298567 -82.257768 
L 83.496364 -82.290179 
L 84.69416 -82.324696 
L 85.891956 -82.475283 
L 87.089752 -82.419468 
L 88.287548 -82.426798 
L 89.485344 -82.45323 
L 90.68314 -82.484651 
L 91.880937 -82.492649 
L 93.078733 -82.488161 
L 94.276529 -82.442063 
L 95.474325 -82.249719 
L 96.672121 -82.291667 
L 97.869917 -82.142153 
L 99.067713 -81.897874 
L 100.26551 -81.776001 
L 101.463306 -81.718013 
L 102.661102 -81.659758 
L 103.858898 -81.603659 
L 105.056694 -81.545146 
L 106.25449 -81.519948 
L 107.452287 -81.428224 
L 108.650083 -81.258119 
L 109.847879 -81.032266 
L 111.045675 -80.874527 
L 112.243471 -80.776329 
L 113.441267 -80.577746 
L 114.639063 -80.387959 
L 115.83686 -80.339593 
L 117.034656 -80.200448 
L 118.232452 -79.960026 
L 119.430248 -79.610824 
L 120.628044 -79.411354 
L 121.82584 -79.211883 
L 123.023636 -78.896007 
L 124.221433 -78.51544 
L 125.419229 -78.106746 
L 126.617025 -77.865155 
L 127.814821 -77.517964 
L 129.012617 -77.233668 
L 130.210413 -77.133552 
L 131.408209 -77.060779 
L 132.606006 -77.005364 
L 133.803802 -76.829035 
L 135.001598 -76.722589 
L 136.199394 -76.620894 
L 137.39719 -76.431434 
L 138.594986 -76.17805 
L 139.792782 -75.786805 
L 140.990579 -75.459795 
L 142.188375 -75.138713 
L 143.386171 -75.014473 
L 144.583967 -74.89606 
L 145.781763 -74.777647 
L 146.979559 -74.659235 
L 148.177355 -74.467551 
L 149.375152 -74.154727 
L 150.572948 -73.837038 
L 151.770744 -73.518778 
L 152.96854 -73.200518 
L 154.166336 -72.882258 
L 155.364132 -72.563998 
L 156.561928 -72.247266 
L 157.759725 -71.933083 
L 158.957521 -71.6189 
L 160.155317 -71.347262 
L 161.353113 -71.130438 
L 162.550909 -70.791921 
L 162.550909 -113.373003 
L 162.550909 -113.373003 
L 161.353113 -113.138153 
L 160.155317 -112.822483 
L 158.957521 -112.57954 
L 157.759725 -112.334167 
L 156.561928 -112.091179 
L 155.364132 -111.848191 
L 154.166336 -111.605204 
L 152.96854 -111.361736 
L 151.770744 -111.081176 
L 150.572948 -110.794877 
L 149.375152 -110.508123 
L 148.177355 -110.22137 
L 146.979559 -109.933416 
L 145.781763 -109.642843 
L 144.583967 -109.353805 
L 143.386171 -109.117443 
L 142.188375 -108.919706 
L 140.990579 -108.569846 
L 139.792782 -108.317233 
L 138.594986 -108.077136 
L 137.39719 -107.884877 
L 136.199394 -107.760009 
L 135.001598 -107.585093 
L 133.803802 -107.306692 
L 132.606006 -106.97436 
L 131.408209 -106.831896 
L 130.210413 -106.70961 
L 129.012617 -106.469765 
L 127.814821 -106.24631 
L 126.617025 -105.914296 
L 125.419229 -105.552807 
L 124.221433 -105.380021 
L 123.023636 -105.266377 
L 121.82584 -105.130996 
L 120.628044 -104.910458 
L 119.430248 -104.687159 
L 118.232452 -104.380953 
L 117.034656 -104.157812 
L 115.83686 -103.961016 
L 114.639063 -103.755726 
L 113.441267 -103.406203 
L 112.243471 -103.282376 
L 111.045675 -103.12562 
L 109.847879 -102.904977 
L 108.650083 -102.681723 
L 107.452287 -102.458469 
L 106.25449 -102.355603 
L 105.056694 -102.323429 
L 103.858898 -101.991343 
L 102.661102 -101.926346 
L 101.463306 -101.894354 
L 100.26551 -101.792382 
L 99.067713 -101.639447 
L 97.869917 -101.428364 
L 96.672121 -101.435567 
L 95.474325 -101.513933 
L 94.276529 -101.283884 
L 93.078733 -101.054496 
L 91.880937 -101.119607 
L 90.68314 -100.939069 
L 89.485344 -100.961653 
L 88.287548 -100.922817 
L 87.089752 -100.969139 
L 85.891956 -101.04821 
L 84.69416 -101.023629 
L 83.496364 -101.016556 
L 82.298567 -100.882603 
L 81.100771 -100.906105 
L 79.902975 -100.854386 
L 78.705179 -100.800279 
L 77.507383 -100.743419 
L 76.309587 -100.773872 
L 75.111791 -100.722516 
L 73.913994 -100.612839 
L 72.716198 -100.728675 
L 71.518402 -100.732582 
L 70.320606 -100.7628 
L 69.12281 -100.664184 
L 67.925014 -100.786402 
L 66.727218 -101.092387 
L 65.529421 -101.183844 
L 64.331625 -101.233688 
L 63.133829 -101.270623 
L 61.936033 -101.318654 
L 60.738237 -101.296211 
L 59.540441 -101.356699 
L 58.342645 -101.476222 
L 57.144848 -101.597933 
L 55.947052 -101.678445 
L 54.749256 -101.748095 
L 53.55146 -102.034729 
L 52.353664 -102.172394 
L 51.155868 -102.325044 
L 49.958072 -102.441823 
L 48.760275 -102.559477 
L 47.562479 -102.825782 
L 46.364683 -103.024944 
L 45.166887 -103.174795 
L 43.969091 -103.438698 
z
" style="stroke: #ffffff; stroke-opacity: 0.15; stroke-width: 0.8"/>
    </defs>
    <g clip-path="url(#p4e45b7b365)">
     <use xlink:href="#mc764c95883" x="0" y="180" style="fill: #1f77b4; fill-opacity: 0.15; stroke: #ffffff; stroke-opacity: 0.15; stroke-width: 0.8"/>
    </g>
   </g>
   <g id="line2d_14">
    <path d="M 43.969091 90.783384 
L 45.166887 90.736513 
L 46.364683 90.689642 
L 47.562479 90.642771 
L 48.760275 90.5959 
L 49.958072 90.549029 
L 51.155868 90.502158 
L 52.353664 90.455287 
L 53.55146 90.408416 
L 54.749256 90.361545 
L 55.947052 90.314675 
L 57.144848 90.267804 
L 58.342645 90.220933 
L 59.540441 90.174062 
L 60.738237 90.127191 
L 61.936033 90.08032 
L 63.133829 90.033449 
L 64.331625 89.986578 
L 65.529421 89.939707 
L 66.727218 89.892836 
L 67.925014 89.845965 
L 69.12281 89.799094 
L 70.320606 89.752223 
L 71.518402 89.705352 
L 72.716198 89.658481 
L 73.913994 89.61161 
L 75.111791 89.564739 
L 76.309587 89.517868 
L 77.507383 89.470997 
L 78.705179 89.424126 
L 79.902975 89.377255 
L 81.100771 89.330384 
L 82.298567 89.283513 
L 83.496364 89.236642 
L 84.69416 89.189771 
L 85.891956 89.1429 
L 87.089752 89.096029 
L 88.287548 89.049158 
L 89.485344 89.002287 
L 90.68314 88.955416 
L 91.880937 88.908545 
L 93.078733 88.861674 
L 94.276529 88.814803 
L 95.474325 88.767932 
L 96.672121 88.721061 
L 97.869917 88.67419 
L 99.067713 88.627319 
L 100.26551 88.580448 
L 101.463306 88.533577 
L 102.661102 88.486706 
L 103.858898 88.439835 
L 105.056694 88.392964 
L 106.25449 88.346093 
L 107.452287 88.299222 
L 108.650083 88.252351 
L 109.847879 88.20548 
L 111.045675 88.158609 
L 112.243471 88.111738 
L 113.441267 88.064867 
L 114.639063 88.017996 
L 115.83686 87.971125 
L 117.034656 87.924254 
L 118.232452 87.877383 
L 119.430248 87.830512 
L 120.628044 87.783641 
L 121.82584 87.73677 
L 123.023636 87.689899 
L 124.221433 87.643028 
L 125.419229 87.596157 
L 126.617025 87.549286 
L 127.814821 87.502415 
L 129.012617 87.455544 
L 130.210413 87.408673 
L 131.408209 87.361802 
L 132.606006 87.314931 
L 133.803802 87.26806 
L 135.001598 87.221189 
L 136.199394 87.174318 
L 137.39719 87.127447 
L 138.594986 87.080576 
L 139.792782 87.033705 
L 140.990579 86.986834 
L 142.188375 86.939963 
L 143.386171 86.893092 
L 144.583967 86.846221 
L 145.781763 86.79935 
L 146.979559 86.752479 
L 148.177355 86.705608 
L 149.375152 86.658737 
L 150.572948 86.611866 
L 151.770744 86.564995 
L 152.96854 86.518124 
L 154.166336 86.471253 
L 155.364132 86.424382 
L 156.561928 86.377511 
L 157.759725 86.33064 
L 158.957521 86.283769 
L 160.155317 86.236898 
L 161.353113 86.190027 
L 162.550909 86.143156 
" clip-path="url(#p4e45b7b365)" style="fill: none; stroke: #1f77b4; stroke-width: 1.8; stroke-linecap: round"/>
   </g>
   <g id="patch_3">
    <path d="M 38.04 138.18 
L 38.04 24 
" style="fill: none; stroke: #cccccc; stroke-linejoin: miter; stroke-linecap: square"/>
   </g>
   <g id="patch_4">
    <path d="M 168.48 138.18 
L 168.48 24 
" style="fill: none; stroke: #cccccc; stroke-linejoin: miter; stroke-linecap: square"/>
   </g>
   <g id="patch_5">
    <path d="M 38.04 138.18 
L 168.48 138.18 
" style="fill: none; stroke: #cccccc; stroke-linejoin: miter; stroke-linecap: square"/>
   </g>
   <g id="patch_6">
    <path d="M 38.04 24 
L 168.48 24 
" style="fill: none; stroke: #cccccc; stroke-linejoin: miter; stroke-linecap: square"/>
   </g>
   <g id="text_16">
    <!-- rho = -0.02 -->
    <g style="fill: #262626" transform="translate(116.304 36.882438) scale(0.1 -0.1)">
     <defs>
      <path id="Helvetica-68" d="M 413 4606 
L 975 4606 
L 975 2894 
Q 1175 3147 1334 3250 
Q 1606 3428 2013 3428 
Q 2741 3428 3000 2919 
Q 3141 2641 3141 2147 
L 3141 0 
L 2563 0 
L 2563 2109 
Q 2563 2478 2469 2650 
Q 2316 2925 1894 2925 
Q 1544 2925 1259 2684 
Q 975 2444 975 1775 
L 975 0 
L 413 0 
L 413 4606 
z
" transform="scale(0.015625)"/>
      <path id="Helvetica-6f" d="M 1741 363 
Q 2300 363 2508 786 
Q 2716 1209 2716 1728 
Q 2716 2197 2566 2491 
Q 2328 2953 1747 2953 
Q 1231 2953 997 2559 
Q 763 2166 763 1609 
Q 763 1075 997 719 
Q 1231 363 1741 363 
z
M 1763 3444 
Q 2409 3444 2856 3012 
Q 3303 2581 3303 1744 
Q 3303 934 2909 406 
Q 2516 -122 1688 -122 
Q 997 -122 590 345 
Q 184 813 184 1600 
Q 184 2444 612 2944 
Q 1041 3444 1763 3444 
z
M 1744 3428 
L 1744 3428 
z
" transform="scale(0.015625)"/>
      <path id="Helvetica-3d" d="M 3547 2569 
L 3547 2044 
L 288 2044 
L 288 2569 
L 3547 2569 
z
M 3547 1228 
L 3547 694 
L 288 694 
L 288 1228 
L 3547 1228 
z
" transform="scale(0.015625)"/>
      <path id="Helvetica-2d" d="M 266 2072 
L 1834 2072 
L 1834 1494 
L 266 1494 
L 266 2072 
z
" transform="scale(0.015625)"/>
      <path id="Helvetica-2e" d="M 547 681 
L 1200 681 
L 1200 0 
L 547 0 
L 547 681 
z
" transform="scale(0.015625)"/>
     </defs>
     <use xlink:href="#Helvetica-72"/>
     <use xlink:href="#Helvetica-68" transform="translate(33.300781 0)"/>
     <use xlink:href="#Helvetica-6f" transform="translate(88.916016 0)"/>
     <use xlink:href="#Helvetica-20" transform="translate(144.53125 0)"/>
     <use xlink:href="#Helvetica-3d" transform="translate(172.314453 0)"/>
     <use xlink:href="#Helvetica-20" transform="translate(230.712891 0)"/>
     <use xlink:href="#Helvetica-2d" transform="translate(258.496094 0)"/>
     <use xlink:href="#Helvetica-30" transform="translate(291.796875 0)"/>
     <use xlink:href="#Helvetica-2e" transform="translate(347.412109 0)"/>
     <use xlink:href="#Helvetica-30" transform="translate(375.195312 0)"/>
     <use xlink:href="#Helvetica-32" transform="translate(430.810547 0)"/>
    </g>
    <!-- p = 8.94e-01 -->
    <g style="fill: #262626" transform="translate(116.304 47.574938) scale(0.1 -0.1)">
     <defs>
      <path id="Helvetica-39" d="M 850 1081 
Q 875 616 1209 438 
Q 1381 344 1597 344 
Q 2000 344 2284 680 
Q 2569 1016 2688 2044 
Q 2500 1747 2223 1626 
Q 1947 1506 1628 1506 
Q 981 1506 604 1909 
Q 228 2313 228 2947 
Q 228 3556 600 4018 
Q 972 4481 1697 4481 
Q 2675 4481 3047 3600 
Q 3253 3116 3253 2388 
Q 3253 1566 3006 931 
Q 2597 -125 1619 -125 
Q 963 -125 622 219 
Q 281 563 281 1081 
L 850 1081 
z
M 1703 2000 
Q 2038 2000 2314 2220 
Q 2591 2441 2591 2991 
Q 2591 3484 2342 3726 
Q 2094 3969 1709 3969 
Q 1297 3969 1055 3692 
Q 813 3416 813 2953 
Q 813 2516 1025 2258 
Q 1238 2000 1703 2000 
z
" transform="scale(0.015625)"/>
     </defs>
     <use xlink:href="#Helvetica-70"/>
     <use xlink:href="#Helvetica-20" transform="translate(55.615234 0)"/>
     <use xlink:href="#Helvetica-3d" transform="translate(83.398438 0)"/>
     <use xlink:href="#Helvetica-20" transform="translate(141.796875 0)"/>
     <use xlink:href="#Helvetica-38" transform="translate(169.580078 0)"/>
     <use xlink:href="#Helvetica-2e" transform="translate(225.195312 0)"/>
     <use xlink:href="#Helvetica-39" transform="translate(252.978516 0)"/>
     <use xlink:href="#Helvetica-34" transform="translate(308.59375 0)"/>
     <use xlink:href="#Helvetica-65" transform="translate(364.208984 0)"/>
     <use xlink:href="#Helvetica-2d" transform="translate(419.824219 0)"/>
     <use xlink:href="#Helvetica-30" transform="translate(453.125 0)"/>
     <use xlink:href="#Helvetica-31" transform="translate(508.740234 0)"/>
    </g>
   </g>
   <g id="text_17">
    <!-- Peptriever vs gpcr selectivity -->
    <g style="fill: #262626" transform="translate(39.908438 18) scale(0.1 -0.1)">
     <defs>
      <path id="Helvetica-50" d="M 547 4591 
L 2613 4591 
Q 3225 4591 3600 4245 
Q 3975 3900 3975 3275 
Q 3975 2738 3640 2339 
Q 3306 1941 2613 1941 
L 1169 1941 
L 1169 0 
L 547 0 
L 547 4591 
z
M 3347 3272 
Q 3347 3778 2972 3959 
Q 2766 4056 2406 4056 
L 1169 4056 
L 1169 2466 
L 2406 2466 
Q 2825 2466 3086 2644 
Q 3347 2822 3347 3272 
z
" transform="scale(0.015625)"/>
     </defs>
     <use xlink:href="#Helvetica-50"/>
     <use xlink:href="#Helvetica-65" transform="translate(66.699219 0)"/>
     <use xlink:href="#Helvetica-70" transform="translate(122.314453 0)"/>
     <use xlink:href="#Helvetica-74" transform="translate(177.929688 0)"/>
     <use xlink:href="#Helvetica-72" transform="translate(205.712891 0)"/>
     <use xlink:href="#Helvetica-69" transform="translate(239.013672 0)"/>
     <use xlink:href="#Helvetica-65" transform="translate(261.230469 0)"/>
     <use xlink:href="#Helvetica-76" transform="translate(316.845703 0)"/>
     <use xlink:href="#Helvetica-65" transform="translate(366.845703 0)"/>
     <use xlink:href="#Helvetica-72" transform="translate(422.460938 0)"/>
     <use xlink:href="#Helvetica-20" transform="translate(455.761719 0)"/>
     <use xlink:href="#Helvetica-76" transform="translate(483.544922 0)"/>
     <use xlink:href="#Helvetica-73" transform="translate(533.544922 0)"/>
     <use xlink:href="#Helvetica-20" transform="translate(583.544922 0)"/>
     <use xlink:href="#Helvetica-67" transform="translate(611.328125 0)"/>
     <use xlink:href="#Helvetica-70" transform="translate(666.943359 0)"/>
     <use xlink:href="#Helvetica-63" transform="translate(722.558594 0)"/>
     <use xlink:href="#Helvetica-72" transform="translate(772.558594 0)"/>
     <use xlink:href="#Helvetica-20" transform="translate(805.859375 0)"/>
     <use xlink:href="#Helvetica-73" transform="translate(833.642578 0)"/>
     <use xlink:href="#Helvetica-65" transform="translate(883.642578 0)"/>
     <use xlink:href="#Helvetica-6c" transform="translate(939.257812 0)"/>
     <use xlink:href="#Helvetica-65" transform="translate(961.474609 0)"/>
     <use xlink:href="#Helvetica-63" transform="translate(1017.089844 0)"/>
     <use xlink:href="#Helvetica-74" transform="translate(1067.089844 0)"/>
     <use xlink:href="#Helvetica-69" transform="translate(1094.873047 0)"/>
     <use xlink:href="#Helvetica-76" transform="translate(1117.089844 0)"/>
     <use xlink:href="#Helvetica-69" transform="translate(1167.089844 0)"/>
     <use xlink:href="#Helvetica-74" transform="translate(1189.306641 0)"/>
     <use xlink:href="#Helvetica-79" transform="translate(1217.089844 0)"/>
    </g>
   </g>
  </g>
 </g>
 <defs>
  <clipPath id="p4e45b7b365">
   <rect x="38.04" y="24" width="130.44" height="114.18"/>
  </clipPath>
 </defs>
</svg>
