<?xml version="1.0" encoding="utf-8" standalone="no"?>
<!DOCTYPE svg PUBLIC "-//W3C//DTD SVG 1.1//EN"
  "http://www.w3.org/Graphics/SVG/1.1/DTD/svg11.dtd">
<svg xmlns:xlink="http://www.w3.org/1999/xlink" width="180pt" height="180pt" viewBox="0 0 180 180" xmlns="http://www.w3.org/2000/svg" version="1.1">
 <metadata>
  <rdf:RDF xmlns:dc="http://purl.org/dc/elements/1.1/" xmlns:cc="http://creativecommons.org/ns#" xmlns:rdf="http://www.w3.org/1999/02/22-rdf-syntax-ns#">
   <cc:Work>
    <dc:type rdf:resource="http://purl.org/dc/dcmitype/StillImage"/>
    <dc:date>2025-03-07T01:20:45.642012</dc:date>
    <dc:format>image/svg+xml</dc:format>
    <dc:creator>
     <cc:Agent>
      <dc:title>Matplotlib v3.10.0, https://matplotlib.org/</dc:title>
     </cc:Agent>
    </dc:creator>
   </cc:Work>
  </rdf:RDF>
 </metadata>
 <defs>
  <style type="text/css">*{stroke-linejoin: round; stroke-linecap: butt}</style>
 </defs>
 <g id="figure_1">
  <g id="patch_1">
   <path d="M 0 180 
L 180 180 
L 180 0 
L 0 0 
z
" style="fill: #ffffff"/>
  </g>
  <g id="axes_1">
   <g id="patch_2">
    <path d="M 38.04 138.18 
L 168.615 138.18 
L 168.615 24 
L 38.04 24 
z
" style="fill: #ffffff"/>
   </g>
   <g id="matplotlib.axis_1">
    <g id="xtick_1">
     <g id="line2d_1">
      <path d="M 41.007614 138.18 
L 41.007614 24 
" clip-path="url(#pc2d458c867)" style="fill: none; stroke: #cccccc; stroke-width: 0.8; stroke-linecap: round"/>
     </g>
     <g id="text_1">
      <!-- 6 -->
      <g style="fill: #262626" transform="translate(38.227145 153.653437) scale(0.1 -0.1)">
       <defs>
        <path id="Helvetica-36" d="M 1872 4494 
Q 2622 4494 2917 4105 
Q 3213 3716 3213 3303 
L 2656 3303 
Q 2606 3569 2497 3719 
Q 2294 4000 1881 4000 
Q 1409 4000 1131 3564 
Q 853 3128 822 2316 
Q 1016 2600 1309 2741 
Q 1578 2866 1909 2866 
Q 2472 2866 2890 2506 
Q 3309 2147 3309 1434 
Q 3309 825 2912 354 
Q 2516 -116 1781 -116 
Q 1153 -116 697 361 
Q 241 838 241 1966 
Q 241 2800 444 3381 
Q 834 4494 1872 4494 
z
M 1831 384 
Q 2275 384 2495 682 
Q 2716 981 2716 1388 
Q 2716 1731 2519 2042 
Q 2322 2353 1803 2353 
Q 1441 2353 1167 2112 
Q 894 1872 894 1388 
Q 894 963 1142 673 
Q 1391 384 1831 384 
z
" transform="scale(0.015625)"/>
       </defs>
       <use xlink:href="#Helvetica-36"/>
      </g>
     </g>
    </g>
    <g id="xtick_2">
     <g id="line2d_2">
      <path d="M 100.359886 138.18 
L 100.359886 24 
" clip-path="url(#pc2d458c867)" style="fill: none; stroke: #cccccc; stroke-width: 0.8; stroke-linecap: round"/>
     </g>
     <g id="text_2">
      <!-- 8 -->
      <g style="fill: #262626" transform="translate(97.579418 153.653437) scale(0.1 -0.1)">
       <defs>
        <path id="Helvetica-38" d="M 1741 2600 
Q 2113 2600 2322 2808 
Q 2531 3016 2531 3303 
Q 2531 3553 2331 3762 
Q 2131 3972 1722 3972 
Q 1316 3972 1134 3762 
Q 953 3553 953 3272 
Q 953 2956 1187 2778 
Q 1422 2600 1741 2600 
z
M 1775 384 
Q 2166 384 2423 595 
Q 2681 806 2681 1225 
Q 2681 1659 2415 1884 
Q 2150 2109 1734 2109 
Q 1331 2109 1076 1879 
Q 822 1650 822 1244 
Q 822 894 1055 639 
Q 1288 384 1775 384 
z
M 975 2384 
Q 741 2484 609 2619 
Q 363 2869 363 3269 
Q 363 3769 725 4128 
Q 1088 4488 1753 4488 
Q 2397 4488 2762 4148 
Q 3128 3809 3128 3356 
Q 3128 2938 2916 2678 
Q 2797 2531 2547 2391 
Q 2825 2263 2984 2097 
Q 3281 1784 3281 1284 
Q 3281 694 2884 283 
Q 2488 -128 1763 -128 
Q 1109 -128 657 226 
Q 206 581 206 1256 
Q 206 1653 400 1942 
Q 594 2231 975 2384 
z
" transform="scale(0.015625)"/>
       </defs>
       <use xlink:href="#Helvetica-38"/>
      </g>
     </g>
    </g>
    <g id="xtick_3">
     <g id="line2d_3">
      <path d="M 159.712159 138.18 
L 159.712159 24 
" clip-path="url(#pc2d458c867)" style="fill: none; stroke: #cccccc; stroke-width: 0.8; stroke-linecap: round"/>
     </g>
     <g id="text_3">
      <!-- 10 -->
      <g style="fill: #262626" transform="translate(154.151222 153.653437) scale(0.1 -0.1)">
       <defs>
        <path id="Helvetica-31" d="M 613 3169 
L 613 3600 
Q 1222 3659 1462 3798 
Q 1703 3938 1822 4456 
L 2266 4456 
L 2266 0 
L 1666 0 
L 1666 3169 
L 613 3169 
z
" transform="scale(0.015625)"/>
        <path id="Helvetica-30" d="M 1731 4475 
Q 2600 4475 2988 3759 
Q 3288 3206 3288 2244 
Q 3288 1331 3016 734 
Q 2622 -122 1728 -122 
Q 922 -122 528 578 
Q 200 1163 200 2147 
Q 200 2909 397 3456 
Q 766 4475 1731 4475 
z
M 1725 391 
Q 2163 391 2422 778 
Q 2681 1166 2681 2222 
Q 2681 2984 2493 3476 
Q 2306 3969 1766 3969 
Q 1269 3969 1039 3501 
Q 809 3034 809 2125 
Q 809 1441 956 1025 
Q 1181 391 1725 391 
z
" transform="scale(0.015625)"/>
       </defs>
       <use xlink:href="#Helvetica-31"/>
       <use xlink:href="#Helvetica-30" transform="translate(55.615234 0)"/>
      </g>
     </g>
    </g>
    <g id="text_4">
     <!-- pKi -->
     <g style="fill: #262626" transform="translate(96.100938 166.91125) scale(0.1 -0.1)">
      <defs>
       <path id="Helvetica-70" d="M 1825 378 
Q 2219 378 2480 708 
Q 2741 1038 2741 1694 
Q 2741 2094 2625 2381 
Q 2406 2934 1825 2934 
Q 1241 2934 1025 2350 
Q 909 2038 909 1556 
Q 909 1169 1025 897 
Q 1244 378 1825 378 
z
M 369 3331 
L 916 3331 
L 916 2888 
Q 1084 3116 1284 3241 
Q 1569 3428 1953 3428 
Q 2522 3428 2919 2992 
Q 3316 2556 3316 1747 
Q 3316 653 2744 184 
Q 2381 -113 1900 -113 
Q 1522 -113 1266 53 
Q 1116 147 931 375 
L 931 -1334 
L 369 -1334 
L 369 3331 
z
" transform="scale(0.015625)"/>
       <path id="Helvetica-4b" d="M 488 4591 
L 1094 4591 
L 1094 2353 
L 3331 4591 
L 4191 4591 
L 2281 2741 
L 4244 0 
L 3434 0 
L 1828 2303 
L 1094 1600 
L 1094 0 
L 488 0 
L 488 4591 
z
" transform="scale(0.015625)"/>
       <path id="Helvetica-69" d="M 413 3331 
L 984 3331 
L 984 0 
L 413 0 
L 413 3331 
z
M 413 4591 
L 984 4591 
L 984 3953 
L 413 3953 
L 413 4591 
z
" transform="scale(0.015625)"/>
      </defs>
      <use xlink:href="#Helvetica-70"/>
      <use xlink:href="#Helvetica-4b" transform="translate(55.615234 0)"/>
      <use xlink:href="#Helvetica-69" transform="translate(122.314453 0)"/>
     </g>
    </g>
   </g>
   <g id="matplotlib.axis_2">
    <g id="ytick_1">
     <g id="line2d_4">
      <path d="M 38.04 138.18 
L 168.615 138.18 
" clip-path="url(#pc2d458c867)" style="fill: none; stroke: #cccccc; stroke-width: 0.8; stroke-linecap: round"/>
     </g>
     <g id="text_5">
      <!-- 0 -->
      <g style="fill: #262626" transform="translate(24.179063 141.766719) scale(0.1 -0.1)">
       <use xlink:href="#Helvetica-30"/>
      </g>
     </g>
    </g>
    <g id="ytick_2">
     <g id="line2d_5">
      <path d="M 38.04 124.71313 
L 168.615 124.71313 
" clip-path="url(#pc2d458c867)" style="fill: none; stroke: #cccccc; stroke-width: 0.8; stroke-linecap: round"/>
     </g>
     <g id="text_6">
      <!-- 1 -->
      <g style="fill: #262626" transform="translate(24.179063 128.299848) scale(0.1 -0.1)">
       <use xlink:href="#Helvetica-31"/>
      </g>
     </g>
    </g>
    <g id="ytick_3">
     <g id="line2d_6">
      <path d="M 38.04 111.246259 
L 168.615 111.246259 
" clip-path="url(#pc2d458c867)" style="fill: none; stroke: #cccccc; stroke-width: 0.8; stroke-linecap: round"/>
     </g>
     <g id="text_7">
      <!-- 2 -->
      <g style="fill: #262626" transform="translate(24.179063 114.832978) scale(0.1 -0.1)">
       <defs>
        <path id="Helvetica-32" d="M 200 0 
Q 231 578 439 1006 
Q 647 1434 1250 1784 
L 1850 2131 
Q 2253 2366 2416 2531 
Q 2672 2791 2672 3125 
Q 2672 3516 2437 3745 
Q 2203 3975 1813 3975 
Q 1234 3975 1013 3538 
Q 894 3303 881 2888 
L 309 2888 
Q 319 3472 525 3841 
Q 891 4491 1816 4491 
Q 2584 4491 2939 4075 
Q 3294 3659 3294 3150 
Q 3294 2613 2916 2231 
Q 2697 2009 2131 1694 
L 1703 1456 
Q 1397 1288 1222 1134 
Q 909 863 828 531 
L 3272 531 
L 3272 0 
L 200 0 
z
" transform="scale(0.015625)"/>
       </defs>
       <use xlink:href="#Helvetica-32"/>
      </g>
     </g>
    </g>
    <g id="ytick_4">
     <g id="line2d_7">
      <path d="M 38.04 97.779389 
L 168.615 97.779389 
" clip-path="url(#pc2d458c867)" style="fill: none; stroke: #cccccc; stroke-width: 0.8; stroke-linecap: round"/>
     </g>
     <g id="text_8">
      <!-- 3 -->
      <g style="fill: #262626" transform="translate(24.179063 101.366107) scale(0.1 -0.1)">
       <defs>
        <path id="Helvetica-33" d="M 1663 -122 
Q 869 -122 511 314 
Q 153 750 153 1375 
L 741 1375 
Q 778 941 903 744 
Q 1122 391 1694 391 
Q 2138 391 2406 628 
Q 2675 866 2675 1241 
Q 2675 1703 2392 1887 
Q 2109 2072 1606 2072 
Q 1550 2072 1492 2070 
Q 1434 2069 1375 2066 
L 1375 2563 
Q 1463 2553 1522 2550 
Q 1581 2547 1650 2547 
Q 1966 2547 2169 2647 
Q 2525 2822 2525 3272 
Q 2525 3606 2287 3787 
Q 2050 3969 1734 3969 
Q 1172 3969 956 3594 
Q 838 3388 822 3006 
L 266 3006 
Q 266 3506 466 3856 
Q 809 4481 1675 4481 
Q 2359 4481 2734 4176 
Q 3109 3872 3109 3294 
Q 3109 2881 2888 2625 
Q 2750 2466 2531 2375 
Q 2884 2278 3082 2001 
Q 3281 1725 3281 1325 
Q 3281 684 2859 281 
Q 2438 -122 1663 -122 
z
" transform="scale(0.015625)"/>
       </defs>
       <use xlink:href="#Helvetica-33"/>
      </g>
     </g>
    </g>
    <g id="ytick_5">
     <g id="line2d_8">
      <path d="M 38.04 84.312518 
L 168.615 84.312518 
" clip-path="url(#pc2d458c867)" style="fill: none; stroke: #cccccc; stroke-width: 0.8; stroke-linecap: round"/>
     </g>
     <g id="text_9">
      <!-- 4 -->
      <g style="fill: #262626" transform="translate(24.179063 87.899237) scale(0.1 -0.1)">
       <defs>
        <path id="Helvetica-34" d="M 2116 1584 
L 2116 3613 
L 681 1584 
L 2116 1584 
z
M 2125 0 
L 2125 1094 
L 163 1094 
L 163 1644 
L 2213 4488 
L 2688 4488 
L 2688 1584 
L 3347 1584 
L 3347 1094 
L 2688 1094 
L 2688 0 
L 2125 0 
z
" transform="scale(0.015625)"/>
       </defs>
       <use xlink:href="#Helvetica-34"/>
      </g>
     </g>
    </g>
    <g id="ytick_6">
     <g id="line2d_9">
      <path d="M 38.04 70.845648 
L 168.615 70.845648 
" clip-path="url(#pc2d458c867)" style="fill: none; stroke: #cccccc; stroke-width: 0.8; stroke-linecap: round"/>
     </g>
     <g id="text_10">
      <!-- 5 -->
      <g style="fill: #262626" transform="translate(24.179063 74.432366) scale(0.1 -0.1)">
       <defs>
        <path id="Helvetica-35" d="M 791 1141 
Q 847 659 1238 475 
Q 1438 381 1700 381 
Q 2200 381 2440 700 
Q 2681 1019 2681 1406 
Q 2681 1875 2395 2131 
Q 2109 2388 1709 2388 
Q 1419 2388 1211 2275 
Q 1003 2163 856 1963 
L 369 1991 
L 709 4400 
L 3034 4400 
L 3034 3856 
L 1131 3856 
L 941 2613 
Q 1097 2731 1238 2791 
Q 1488 2894 1816 2894 
Q 2431 2894 2859 2497 
Q 3288 2100 3288 1491 
Q 3288 856 2895 371 
Q 2503 -113 1644 -113 
Q 1097 -113 676 195 
Q 256 503 206 1141 
L 791 1141 
z
" transform="scale(0.015625)"/>
       </defs>
       <use xlink:href="#Helvetica-35"/>
      </g>
     </g>
    </g>
    <g id="ytick_7">
     <g id="line2d_10">
      <path d="M 38.04 57.378777 
L 168.615 57.378777 
" clip-path="url(#pc2d458c867)" style="fill: none; stroke: #cccccc; stroke-width: 0.8; stroke-linecap: round"/>
     </g>
     <g id="text_11">
      <!-- 6 -->
      <g style="fill: #262626" transform="translate(24.179063 60.965496) scale(0.1 -0.1)">
       <use xlink:href="#Helvetica-36"/>
      </g>
     </g>
    </g>
    <g id="ytick_8">
     <g id="line2d_11">
      <path d="M 38.04 43.911907 
L 168.615 43.911907 
" clip-path="url(#pc2d458c867)" style="fill: none; stroke: #cccccc; stroke-width: 0.8; stroke-linecap: round"/>
     </g>
     <g id="text_12">
      <!-- 7 -->
      <g style="fill: #262626" transform="translate(24.179063 47.498625) scale(0.1 -0.1)">
       <defs>
        <path id="Helvetica-37" d="M 3347 4400 
L 3347 3909 
Q 3131 3700 2773 3181 
Q 2416 2663 2141 2063 
Q 1869 1478 1728 997 
Q 1638 688 1494 0 
L 872 0 
Q 1084 1281 1809 2550 
Q 2238 3294 2709 3834 
L 234 3834 
L 234 4400 
L 3347 4400 
z
" transform="scale(0.015625)"/>
       </defs>
       <use xlink:href="#Helvetica-37"/>
      </g>
     </g>
    </g>
    <g id="ytick_9">
     <g id="line2d_12">
      <path d="M 38.04 30.445036 
L 168.615 30.445036 
" clip-path="url(#pc2d458c867)" style="fill: none; stroke: #cccccc; stroke-width: 0.8; stroke-linecap: round"/>
     </g>
     <g id="text_13">
      <!-- 8 -->
      <g style="fill: #262626" transform="translate(24.179063 34.031755) scale(0.1 -0.1)">
       <use xlink:href="#Helvetica-38"/>
      </g>
     </g>
    </g>
    <g id="text_14">
     <!-- Rank -->
     <g style="fill: #262626" transform="translate(18.094688 92.761875) rotate(-90) scale(0.1 -0.1)">
      <defs>
       <path id="Helvetica-52" d="M 2622 2488 
Q 3059 2488 3314 2663 
Q 3569 2838 3569 3294 
Q 3569 3784 3213 3963 
Q 3022 4056 2703 4056 
L 1184 4056 
L 1184 2488 
L 2622 2488 
z
M 563 4591 
L 2688 4591 
Q 3213 4591 3553 4438 
Q 4200 4144 4200 3353 
Q 4200 2941 4029 2678 
Q 3859 2416 3553 2256 
Q 3822 2147 3958 1969 
Q 4094 1791 4109 1391 
L 4131 775 
Q 4141 513 4175 384 
Q 4231 166 4375 103 
L 4375 0 
L 3613 0 
Q 3581 59 3562 153 
Q 3544 247 3531 516 
L 3494 1281 
Q 3472 1731 3159 1884 
Q 2981 1969 2600 1969 
L 1184 1969 
L 1184 0 
L 563 0 
L 563 4591 
z
" transform="scale(0.015625)"/>
       <path id="Helvetica-61" d="M 844 891 
Q 844 647 1022 506 
Q 1200 366 1444 366 
Q 1741 366 2019 503 
Q 2488 731 2488 1250 
L 2488 1703 
Q 2384 1638 2221 1594 
Q 2059 1550 1903 1531 
L 1563 1488 
Q 1256 1447 1103 1359 
Q 844 1213 844 891 
z
M 2206 2028 
Q 2400 2053 2466 2191 
Q 2503 2266 2503 2406 
Q 2503 2694 2298 2823 
Q 2094 2953 1713 2953 
Q 1272 2953 1088 2716 
Q 984 2584 953 2325 
L 428 2325 
Q 444 2944 830 3186 
Q 1216 3428 1725 3428 
Q 2316 3428 2684 3203 
Q 3050 2978 3050 2503 
L 3050 575 
Q 3050 488 3086 434 
Q 3122 381 3238 381 
Q 3275 381 3322 386 
Q 3369 391 3422 400 
L 3422 -16 
Q 3291 -53 3222 -62 
Q 3153 -72 3034 -72 
Q 2744 -72 2613 134 
Q 2544 244 2516 444 
Q 2344 219 2022 53 
Q 1700 -113 1313 -113 
Q 847 -113 551 170 
Q 256 453 256 878 
Q 256 1344 547 1600 
Q 838 1856 1309 1916 
L 2206 2028 
z
M 1741 3428 
L 1741 3428 
z
" transform="scale(0.015625)"/>
       <path id="Helvetica-6e" d="M 413 3347 
L 947 3347 
L 947 2872 
Q 1184 3166 1450 3294 
Q 1716 3422 2041 3422 
Q 2753 3422 3003 2925 
Q 3141 2653 3141 2147 
L 3141 0 
L 2569 0 
L 2569 2109 
Q 2569 2416 2478 2603 
Q 2328 2916 1934 2916 
Q 1734 2916 1606 2875 
Q 1375 2806 1200 2600 
Q 1059 2434 1017 2257 
Q 975 2081 975 1753 
L 975 0 
L 413 0 
L 413 3347 
z
M 1734 3428 
L 1734 3428 
z
" transform="scale(0.015625)"/>
       <path id="Helvetica-6b" d="M 400 4591 
L 941 4591 
L 941 1925 
L 2384 3347 
L 3103 3347 
L 1822 2094 
L 3175 0 
L 2456 0 
L 1413 1688 
L 941 1256 
L 941 0 
L 400 0 
L 400 4591 
z
" transform="scale(0.015625)"/>
      </defs>
      <use xlink:href="#Helvetica-52"/>
      <use xlink:href="#Helvetica-61" transform="translate(72.216797 0)"/>
      <use xlink:href="#Helvetica-6e" transform="translate(127.832031 0)"/>
      <use xlink:href="#Helvetica-6b" transform="translate(183.447266 0)"/>
     </g>
    </g>
   </g>
   <g id="PathCollection_1">
    <defs>
     <path id="m3b8a50f9d8" d="M 0 2.4 
C 0.636487 2.4 1.246992 2.147121 1.697056 1.697056 
C 2.147121 1.246992 2.4 0.636487 2.4 0 
C 2.4 -0.636487 2.147121 -1.246992 1.697056 -1.697056 
C 1.246992 -2.147121 0.636487 -2.4 0 -2.4 
C -0.636487 -2.4 -1.246992 -2.147121 -1.697056 -1.697056 
C -2.147121 -1.246992 -2.4 -0.636487 -2.4 0 
C -2.4 0.636487 -2.147121 1.246992 -1.697056 1.697056 
C -1.246992 2.147121 -0.636487 2.4 0 2.4 
z
" style="stroke: #1f77b4; stroke-opacity: 0.5"/>
    </defs>
    <g clip-path="url(#pc2d458c867)">
     <use xlink:href="#m3b8a50f9d8" x="153.776932" y="122.604919" style="fill: #1f77b4; fill-opacity: 0.5; stroke: #1f77b4; stroke-opacity: 0.5"/>
     <use xlink:href="#m3b8a50f9d8" x="100.359886" y="95.462451" style="fill: #1f77b4; fill-opacity: 0.5; stroke: #1f77b4; stroke-opacity: 0.5"/>
     <use xlink:href="#m3b8a50f9d8" x="153.776932" y="59.866754" style="fill: #1f77b4; fill-opacity: 0.5; stroke: #1f77b4; stroke-opacity: 0.5"/>
     <use xlink:href="#m3b8a50f9d8" x="91.457045" y="73.196629" style="fill: #1f77b4; fill-opacity: 0.5; stroke: #1f77b4; stroke-opacity: 0.5"/>
     <use xlink:href="#m3b8a50f9d8" x="134.487443" y="28.788434" style="fill: #1f77b4; fill-opacity: 0.5; stroke: #1f77b4; stroke-opacity: 0.5"/>
     <use xlink:href="#m3b8a50f9d8" x="146.357898" y="96.166539" style="fill: #1f77b4; fill-opacity: 0.5; stroke: #1f77b4; stroke-opacity: 0.5"/>
     <use xlink:href="#m3b8a50f9d8" x="141.906477" y="82.816071" style="fill: #1f77b4; fill-opacity: 0.5; stroke: #1f77b4; stroke-opacity: 0.5"/>
     <use xlink:href="#m3b8a50f9d8" x="113.714148" y="85.445576" style="fill: #1f77b4; fill-opacity: 0.5; stroke: #1f77b4; stroke-opacity: 0.5"/>
     <use xlink:href="#m3b8a50f9d8" x="131.51983" y="43.403995" style="fill: #1f77b4; fill-opacity: 0.5; stroke: #1f77b4; stroke-opacity: 0.5"/>
     <use xlink:href="#m3b8a50f9d8" x="116.681761" y="110.762383" style="fill: #1f77b4; fill-opacity: 0.5; stroke: #1f77b4; stroke-opacity: 0.5"/>
     <use xlink:href="#m3b8a50f9d8" x="161.195966" y="98.17153" style="fill: #1f77b4; fill-opacity: 0.5; stroke: #1f77b4; stroke-opacity: 0.5"/>
     <use xlink:href="#m3b8a50f9d8" x="43.975227" y="83.009078" style="fill: #1f77b4; fill-opacity: 0.5; stroke: #1f77b4; stroke-opacity: 0.5"/>
     <use xlink:href="#m3b8a50f9d8" x="140.42267" y="44.913588" style="fill: #1f77b4; fill-opacity: 0.5; stroke: #1f77b4; stroke-opacity: 0.5"/>
     <use xlink:href="#m3b8a50f9d8" x="162.679773" y="122.737954" style="fill: #1f77b4; fill-opacity: 0.5; stroke: #1f77b4; stroke-opacity: 0.5"/>
     <use xlink:href="#m3b8a50f9d8" x="125.584602" y="55.113867" style="fill: #1f77b4; fill-opacity: 0.5; stroke: #1f77b4; stroke-opacity: 0.5"/>
     <use xlink:href="#m3b8a50f9d8" x="138.938864" y="97.877735" style="fill: #1f77b4; fill-opacity: 0.5; stroke: #1f77b4; stroke-opacity: 0.5"/>
     <use xlink:href="#m3b8a50f9d8" x="150.809318" y="83.68869" style="fill: #1f77b4; fill-opacity: 0.5; stroke: #1f77b4; stroke-opacity: 0.5"/>
     <use xlink:href="#m3b8a50f9d8" x="113.219545" y="124.557121" style="fill: #1f77b4; fill-opacity: 0.5; stroke: #1f77b4; stroke-opacity: 0.5"/>
     <use xlink:href="#m3b8a50f9d8" x="69.199943" y="84.168951" style="fill: #1f77b4; fill-opacity: 0.5; stroke: #1f77b4; stroke-opacity: 0.5"/>
     <use xlink:href="#m3b8a50f9d8" x="135.97125" y="122.068188" style="fill: #1f77b4; fill-opacity: 0.5; stroke: #1f77b4; stroke-opacity: 0.5"/>
     <use xlink:href="#m3b8a50f9d8" x="99.370682" y="108.737834" style="fill: #1f77b4; fill-opacity: 0.5; stroke: #1f77b4; stroke-opacity: 0.5"/>
    </g>
   </g>
   <g id="FillBetweenPolyCollection_1">
    <defs>
     <path id="m189732fbb9" d="M 43.975227 -120.816509 
L 43.975227 -67.738263 
L 45.174263 -68.059622 
L 46.373299 -68.354195 
L 47.572335 -68.648768 
L 48.771371 -68.943342 
L 49.970406 -69.23872 
L 51.169442 -69.535526 
L 52.368478 -69.832332 
L 53.567514 -70.129138 
L 54.76655 -70.425944 
L 55.965585 -70.72275 
L 57.164621 -71.019556 
L 58.363657 -71.316362 
L 59.562693 -71.613168 
L 60.761729 -71.909974 
L 61.960764 -72.20678 
L 63.1598 -72.503586 
L 64.358836 -72.800392 
L 65.557872 -73.097198 
L 66.756908 -73.484829 
L 67.955944 -73.917462 
L 69.154979 -74.299925 
L 70.354015 -74.400888 
L 71.553051 -74.562575 
L 72.752087 -74.850083 
L 73.951123 -75.139092 
L 75.150158 -75.327469 
L 76.349194 -75.716116 
L 77.54823 -75.87016 
L 78.747266 -76.30765 
L 79.946302 -76.799832 
L 81.145337 -77.085357 
L 82.344373 -77.25892 
L 83.543409 -77.738437 
L 84.742445 -78.217043 
L 85.941481 -78.570166 
L 87.140517 -78.878411 
L 88.339552 -79.084197 
L 89.538588 -79.393872 
L 90.737624 -79.681376 
L 91.93666 -79.967684 
L 93.135696 -80.106828 
L 94.334731 -80.507469 
L 95.533767 -80.913682 
L 96.732803 -81.130414 
L 97.931839 -81.156099 
L 99.130875 -81.452741 
L 100.32991 -81.757727 
L 101.528946 -82.072926 
L 102.727982 -81.913427 
L 103.927018 -82.014699 
L 105.126054 -81.843762 
L 106.32509 -81.671356 
L 107.524125 -81.733138 
L 108.723161 -81.960217 
L 109.922197 -82.100011 
L 111.121233 -81.925342 
L 112.320269 -81.699939 
L 113.519304 -81.480424 
L 114.71834 -81.390911 
L 115.917376 -81.351596 
L 117.116412 -81.342565 
L 118.315448 -81.210005 
L 119.514483 -81.155239 
L 120.713519 -81.071459 
L 121.912555 -80.975644 
L 123.111591 -80.718066 
L 124.310627 -80.543062 
L 125.509663 -80.730167 
L 126.708698 -80.459493 
L 127.907734 -80.311243 
L 129.10677 -80.133495 
L 130.305806 -79.868951 
L 131.504842 -79.79498 
L 132.703877 -79.741994 
L 133.902913 -79.52432 
L 135.101949 -79.254839 
L 136.300985 -78.841379 
L 137.500021 -78.709698 
L 138.699056 -78.58233 
L 139.898092 -78.315267 
L 141.097128 -78.048551 
L 142.296164 -77.890626 
L 143.4952 -77.66028 
L 144.694236 -77.345656 
L 145.893271 -77.03591 
L 147.092307 -76.762674 
L 148.291343 -76.438979 
L 149.490379 -76.168136 
L 150.689415 -75.786568 
L 151.88845 -75.462972 
L 153.087486 -75.203858 
L 154.286522 -74.92544 
L 155.485558 -74.604421 
L 156.684594 -74.34835 
L 157.883629 -74.173215 
L 159.082665 -73.99919 
L 160.281701 -73.754938 
L 161.480737 -73.590706 
L 162.679773 -73.361338 
L 162.679773 -114.133812 
L 162.679773 -114.133812 
L 161.480737 -113.879835 
L 160.281701 -113.497171 
L 159.082665 -113.055217 
L 157.883629 -112.575149 
L 156.684594 -112.273173 
L 155.485558 -111.971197 
L 154.286522 -111.66922 
L 153.087486 -111.373303 
L 151.88845 -111.058384 
L 150.689415 -110.757101 
L 149.490379 -110.455819 
L 148.291343 -110.154521 
L 147.092307 -109.827124 
L 145.893271 -109.395378 
L 144.694236 -109.131773 
L 143.4952 -108.852121 
L 142.296164 -108.541201 
L 141.097128 -108.34399 
L 139.898092 -108.138513 
L 138.699056 -107.870047 
L 137.500021 -107.435507 
L 136.300985 -107.084232 
L 135.101949 -106.693336 
L 133.902913 -106.529363 
L 132.703877 -106.502255 
L 131.504842 -106.362611 
L 130.305806 -106.230519 
L 129.10677 -106.122838 
L 127.907734 -105.974173 
L 126.708698 -105.763 
L 125.509663 -105.651933 
L 124.310627 -105.62648 
L 123.111591 -105.374078 
L 121.912555 -105.377447 
L 120.713519 -105.291576 
L 119.514483 -105.054784 
L 118.315448 -105.063972 
L 117.116412 -105.122231 
L 115.917376 -105.407211 
L 114.71834 -105.417091 
L 113.519304 -105.42132 
L 112.320269 -105.367565 
L 111.121233 -105.440343 
L 109.922197 -105.577876 
L 108.723161 -105.481119 
L 107.524125 -105.542277 
L 106.32509 -105.732788 
L 105.126054 -105.858039 
L 103.927018 -105.885533 
L 102.727982 -105.840881 
L 101.528946 -105.96444 
L 100.32991 -106.245141 
L 99.130875 -106.522168 
L 97.931839 -106.806415 
L 96.732803 -107.079161 
L 95.533767 -107.201733 
L 94.334731 -107.505485 
L 93.135696 -107.987566 
L 91.93666 -108.197232 
L 90.737624 -108.481429 
L 89.538588 -108.765625 
L 88.339552 -109.049822 
L 87.140517 -109.328842 
L 85.941481 -109.596685 
L 84.742445 -109.864528 
L 83.543409 -110.087957 
L 82.344373 -110.42281 
L 81.145337 -110.856418 
L 79.946302 -111.290025 
L 78.747266 -111.723633 
L 77.54823 -112.14435 
L 76.349194 -112.556378 
L 75.150158 -112.967859 
L 73.951123 -113.177822 
L 72.752087 -113.351891 
L 71.553051 -113.54097 
L 70.354015 -113.949797 
L 69.154979 -114.308268 
L 67.955944 -114.49411 
L 66.756908 -114.679951 
L 65.557872 -114.865792 
L 64.358836 -115.051634 
L 63.1598 -115.235473 
L 61.960764 -115.418214 
L 60.761729 -115.600955 
L 59.562693 -115.783696 
L 58.363657 -116.132002 
L 57.164621 -116.577338 
L 55.965585 -117.022674 
L 54.76655 -117.46801 
L 53.567514 -117.913346 
L 52.368478 -118.358683 
L 51.169442 -118.804019 
L 49.970406 -119.249355 
L 48.771371 -119.69393 
L 47.572335 -120.063102 
L 46.373299 -120.314238 
L 45.174263 -120.565373 
L 43.975227 -120.816509 
z
" style="stroke: #ffffff; stroke-opacity: 0.15; stroke-width: 0.8"/>
    </defs>
    <g clip-path="url(#pc2d458c867)">
     <use xlink:href="#m189732fbb9" x="0" y="180" style="fill: #1f77b4; fill-opacity: 0.15; stroke: #ffffff; stroke-opacity: 0.15; stroke-width: 0.8"/>
    </g>
   </g>
   <g id="line2d_13">
    <path d="M 43.975227 84.811253 
L 45.174263 84.851313 
L 46.373299 84.891372 
L 47.572335 84.931432 
L 48.771371 84.971491 
L 49.970406 85.011551 
L 51.169442 85.05161 
L 52.368478 85.091669 
L 53.567514 85.131729 
L 54.76655 85.171788 
L 55.965585 85.211848 
L 57.164621 85.251907 
L 58.363657 85.291967 
L 59.562693 85.332026 
L 60.761729 85.372086 
L 61.960764 85.412145 
L 63.1598 85.452205 
L 64.358836 85.492264 
L 65.557872 85.532324 
L 66.756908 85.572383 
L 67.955944 85.612443 
L 69.154979 85.652502 
L 70.354015 85.692562 
L 71.553051 85.732621 
L 72.752087 85.77268 
L 73.951123 85.81274 
L 75.150158 85.852799 
L 76.349194 85.892859 
L 77.54823 85.932918 
L 78.747266 85.972978 
L 79.946302 86.013037 
L 81.145337 86.053097 
L 82.344373 86.093156 
L 83.543409 86.133216 
L 84.742445 86.173275 
L 85.941481 86.213335 
L 87.140517 86.253394 
L 88.339552 86.293454 
L 89.538588 86.333513 
L 90.737624 86.373573 
L 91.93666 86.413632 
L 93.135696 86.453691 
L 94.334731 86.493751 
L 95.533767 86.53381 
L 96.732803 86.57387 
L 97.931839 86.613929 
L 99.130875 86.653989 
L 100.32991 86.694048 
L 101.528946 86.734108 
L 102.727982 86.774167 
L 103.927018 86.814227 
L 105.126054 86.854286 
L 106.32509 86.894346 
L 107.524125 86.934405 
L 108.723161 86.974465 
L 109.922197 87.014524 
L 111.121233 87.054584 
L 112.320269 87.094643 
L 113.519304 87.134703 
L 114.71834 87.174762 
L 115.917376 87.214821 
L 117.116412 87.254881 
L 118.315448 87.29494 
L 119.514483 87.335 
L 120.713519 87.375059 
L 121.912555 87.415119 
L 123.111591 87.455178 
L 124.310627 87.495238 
L 125.509663 87.535297 
L 126.708698 87.575357 
L 127.907734 87.615416 
L 129.10677 87.655476 
L 130.305806 87.695535 
L 131.504842 87.735595 
L 132.703877 87.775654 
L 133.902913 87.815714 
L 135.101949 87.855773 
L 136.300985 87.895832 
L 137.500021 87.935892 
L 138.699056 87.975951 
L 139.898092 88.016011 
L 141.097128 88.05607 
L 142.296164 88.09613 
L 143.4952 88.136189 
L 144.694236 88.176249 
L 145.893271 88.216308 
L 147.092307 88.256368 
L 148.291343 88.296427 
L 149.490379 88.336487 
L 150.689415 88.376546 
L 151.88845 88.416606 
L 153.087486 88.456665 
L 154.286522 88.496725 
L 155.485558 88.536784 
L 156.684594 88.576843 
L 157.883629 88.616903 
L 159.082665 88.656962 
L 160.281701 88.697022 
L 161.480737 88.737081 
L 162.679773 88.777141 
" clip-path="url(#pc2d458c867)" style="fill: none; stroke: #1f77b4; stroke-width: 1.8; stroke-linecap: round"/>
   </g>
   <g id="patch_3">
    <path d="M 38.04 138.18 
L 38.04 24 
" style="fill: none; stroke: #cccccc; stroke-linejoin: miter; stroke-linecap: square"/>
   </g>
   <g id="patch_4">
    <path d="M 168.615 138.18 
L 168.615 24 
" style="fill: none; stroke: #cccccc; stroke-linejoin: miter; stroke-linecap: square"/>
   </g>
   <g id="patch_5">
    <path d="M 38.04 138.18 
L 168.615 138.18 
" style="fill: none; stroke: #cccccc; stroke-linejoin: miter; stroke-linecap: square"/>
   </g>
   <g id="patch_6">
    <path d="M 38.04 24 
L 168.615 24 
" style="fill: none; stroke: #cccccc; stroke-linejoin: miter; stroke-linecap: square"/>
   </g>
   <g id="text_15">
    <!-- rho = -0.13 -->
    <g style="fill: #262626" transform="translate(116.385 36.882438) scale(0.1 -0.1)">
     <defs>
      <path id="Helvetica-72" d="M 428 3347 
L 963 3347 
L 963 2769 
Q 1028 2938 1284 3180 
Q 1541 3422 1875 3422 
Q 1891 3422 1928 3419 
Q 1966 3416 2056 3406 
L 2056 2813 
Q 2006 2822 1964 2825 
Q 1922 2828 1872 2828 
Q 1447 2828 1219 2554 
Q 991 2281 991 1925 
L 991 0 
L 428 0 
L 428 3347 
z
" transform="scale(0.015625)"/>
      <path id="Helvetica-68" d="M 413 4606 
L 975 4606 
L 975 2894 
Q 1175 3147 1334 3250 
Q 1606 3428 2013 3428 
Q 2741 3428 3000 2919 
Q 3141 2641 3141 2147 
L 3141 0 
L 2563 0 
L 2563 2109 
Q 2563 2478 2469 2650 
Q 2316 2925 1894 2925 
Q 1544 2925 1259 2684 
Q 975 2444 975 1775 
L 975 0 
L 413 0 
L 413 4606 
z
" transform="scale(0.015625)"/>
      <path id="Helvetica-6f" d="M 1741 363 
Q 2300 363 2508 786 
Q 2716 1209 2716 1728 
Q 2716 2197 2566 2491 
Q 2328 2953 1747 2953 
Q 1231 2953 997 2559 
Q 763 2166 763 1609 
Q 763 1075 997 719 
Q 1231 363 1741 363 
z
M 1763 3444 
Q 2409 3444 2856 3012 
Q 3303 2581 3303 1744 
Q 3303 934 2909 406 
Q 2516 -122 1688 -122 
Q 997 -122 590 345 
Q 184 813 184 1600 
Q 184 2444 612 2944 
Q 1041 3444 1763 3444 
z
M 1744 3428 
L 1744 3428 
z
" transform="scale(0.015625)"/>
      <path id="Helvetica-20" transform="scale(0.015625)"/>
      <path id="Helvetica-3d" d="M 3547 2569 
L 3547 2044 
L 288 2044 
L 288 2569 
L 3547 2569 
z
M 3547 1228 
L 3547 694 
L 288 694 
L 288 1228 
L 3547 1228 
z
" transform="scale(0.015625)"/>
      <path id="Helvetica-2d" d="M 266 2072 
L 1834 2072 
L 1834 1494 
L 266 1494 
L 266 2072 
z
" transform="scale(0.015625)"/>
      <path id="Helvetica-2e" d="M 547 681 
L 1200 681 
L 1200 0 
L 547 0 
L 547 681 
z
" transform="scale(0.015625)"/>
     </defs>
     <use xlink:href="#Helvetica-72"/>
     <use xlink:href="#Helvetica-68" transform="translate(33.300781 0)"/>
     <use xlink:href="#Helvetica-6f" transform="translate(88.916016 0)"/>
     <use xlink:href="#Helvetica-20" transform="translate(144.53125 0)"/>
     <use xlink:href="#Helvetica-3d" transform="translate(172.314453 0)"/>
     <use xlink:href="#Helvetica-20" transform="translate(230.712891 0)"/>
     <use xlink:href="#Helvetica-2d" transform="translate(258.496094 0)"/>
     <use xlink:href="#Helvetica-30" transform="translate(291.796875 0)"/>
     <use xlink:href="#Helvetica-2e" transform="translate(347.412109 0)"/>
     <use xlink:href="#Helvetica-31" transform="translate(375.195312 0)"/>
     <use xlink:href="#Helvetica-33" transform="translate(430.810547 0)"/>
    </g>
    <!-- p = 5.77e-01 -->
    <g style="fill: #262626" transform="translate(116.385 47.574938) scale(0.1 -0.1)">
     <defs>
      <path id="Helvetica-65" d="M 1806 3422 
Q 2163 3422 2497 3255 
Q 2831 3088 3006 2822 
Q 3175 2569 3231 2231 
Q 3281 2000 3281 1494 
L 828 1494 
Q 844 984 1069 676 
Q 1294 369 1766 369 
Q 2206 369 2469 659 
Q 2619 828 2681 1050 
L 3234 1050 
Q 3213 866 3089 639 
Q 2966 413 2813 269 
Q 2556 19 2178 -69 
Q 1975 -119 1719 -119 
Q 1094 -119 659 336 
Q 225 791 225 1609 
Q 225 2416 662 2919 
Q 1100 3422 1806 3422 
z
M 2703 1941 
Q 2669 2306 2544 2525 
Q 2313 2931 1772 2931 
Q 1384 2931 1121 2651 
Q 859 2372 844 1941 
L 2703 1941 
z
M 1753 3428 
L 1753 3428 
z
" transform="scale(0.015625)"/>
     </defs>
     <use xlink:href="#Helvetica-70"/>
     <use xlink:href="#Helvetica-20" transform="translate(55.615234 0)"/>
     <use xlink:href="#Helvetica-3d" transform="translate(83.398438 0)"/>
     <use xlink:href="#Helvetica-20" transform="translate(141.796875 0)"/>
     <use xlink:href="#Helvetica-35" transform="translate(169.580078 0)"/>
     <use xlink:href="#Helvetica-2e" transform="translate(225.195312 0)"/>
     <use xlink:href="#Helvetica-37" transform="translate(252.978516 0)"/>
     <use xlink:href="#Helvetica-37" transform="translate(308.59375 0)"/>
     <use xlink:href="#Helvetica-65" transform="translate(364.208984 0)"/>
     <use xlink:href="#Helvetica-2d" transform="translate(419.824219 0)"/>
     <use xlink:href="#Helvetica-30" transform="translate(453.125 0)"/>
     <use xlink:href="#Helvetica-31" transform="translate(508.740234 0)"/>
    </g>
   </g>
   <g id="text_16">
    <!-- Peptriever vs pKi -->
    <g style="fill: #262626" transform="translate(65.536094 18) scale(0.1 -0.1)">
     <defs>
      <path id="Helvetica-50" d="M 547 4591 
L 2613 4591 
Q 3225 4591 3600 4245 
Q 3975 3900 3975 3275 
Q 3975 2738 3640 2339 
Q 3306 1941 2613 1941 
L 1169 1941 
L 1169 0 
L 547 0 
L 547 4591 
z
M 3347 3272 
Q 3347 3778 2972 3959 
Q 2766 4056 2406 4056 
L 1169 4056 
L 1169 2466 
L 2406 2466 
Q 2825 2466 3086 2644 
Q 3347 2822 3347 3272 
z
" transform="scale(0.015625)"/>
      <path id="Helvetica-74" d="M 525 4281 
L 1094 4281 
L 1094 3347 
L 1628 3347 
L 1628 2888 
L 1094 2888 
L 1094 703 
Q 1094 528 1213 469 
Q 1278 434 1431 434 
Q 1472 434 1519 436 
Q 1566 438 1628 444 
L 1628 0 
Q 1531 -28 1426 -40 
Q 1322 -53 1200 -53 
Q 806 -53 665 148 
Q 525 350 525 672 
L 525 2888 
L 72 2888 
L 72 3347 
L 525 3347 
L 525 4281 
z
" transform="scale(0.015625)"/>
      <path id="Helvetica-76" d="M 688 3347 
L 1581 622 
L 2516 3347 
L 3131 3347 
L 1869 0 
L 1269 0 
L 34 3347 
L 688 3347 
z
" transform="scale(0.015625)"/>
      <path id="Helvetica-73" d="M 747 1050 
Q 772 769 888 619 
Q 1100 347 1625 347 
Q 1938 347 2175 483 
Q 2413 619 2413 903 
Q 2413 1119 2222 1231 
Q 2100 1300 1741 1391 
L 1294 1503 
Q 866 1609 663 1741 
Q 300 1969 300 2372 
Q 300 2847 642 3140 
Q 984 3434 1563 3434 
Q 2319 3434 2653 2991 
Q 2863 2709 2856 2384 
L 2325 2384 
Q 2309 2575 2191 2731 
Q 1997 2953 1519 2953 
Q 1200 2953 1036 2831 
Q 872 2709 872 2509 
Q 872 2291 1088 2159 
Q 1213 2081 1456 2022 
L 1828 1931 
Q 2434 1784 2641 1647 
Q 2969 1431 2969 969 
Q 2969 522 2630 197 
Q 2291 -128 1597 -128 
Q 850 -128 539 211 
Q 228 550 206 1050 
L 747 1050 
z
M 1578 3428 
L 1578 3428 
z
" transform="scale(0.015625)"/>
     </defs>
     <use xlink:href="#Helvetica-50"/>
     <use xlink:href="#Helvetica-65" transform="translate(66.699219 0)"/>
     <use xlink:href="#Helvetica-70" transform="translate(122.314453 0)"/>
     <use xlink:href="#Helvetica-74" transform="translate(177.929688 0)"/>
     <use xlink:href="#Helvetica-72" transform="translate(205.712891 0)"/>
     <use xlink:href="#Helvetica-69" transform="translate(239.013672 0)"/>
     <use xlink:href="#Helvetica-65" transform="translate(261.230469 0)"/>
     <use xlink:href="#Helvetica-76" transform="translate(316.845703 0)"/>
     <use xlink:href="#Helvetica-65" transform="translate(366.845703 0)"/>
     <use xlink:href="#Helvetica-72" transform="translate(422.460938 0)"/>
     <use xlink:href="#Helvetica-20" transform="translate(455.761719 0)"/>
     <use xlink:href="#Helvetica-76" transform="translate(483.544922 0)"/>
     <use xlink:href="#Helvetica-73" transform="translate(533.544922 0)"/>
     <use xlink:href="#Helvetica-20" transform="translate(583.544922 0)"/>
     <use xlink:href="#Helvetica-70" transform="translate(611.328125 0)"/>
     <use xlink:href="#Helvetica-4b" transform="translate(666.943359 0)"/>
     <use xlink:href="#Helvetica-69" transform="translate(733.642578 0)"/>
    </g>
   </g>
  </g>
 </g>
 <defs>
  <clipPath id="pc2d458c867">
   <rect x="38.04" y="24" width="130.575" height="114.18"/>
  </clipPath>
 </defs>
</svg>
