<?xml version="1.0" encoding="utf-8" standalone="no"?>
<!DOCTYPE svg PUBLIC "-//W3C//DTD SVG 1.1//EN"
  "http://www.w3.org/Graphics/SVG/1.1/DTD/svg11.dtd">
<svg xmlns:xlink="http://www.w3.org/1999/xlink" width="180pt" height="180pt" viewBox="0 0 180 180" xmlns="http://www.w3.org/2000/svg" version="1.1">
 <metadata>
  <rdf:RDF xmlns:dc="http://purl.org/dc/elements/1.1/" xmlns:cc="http://creativecommons.org/ns#" xmlns:rdf="http://www.w3.org/1999/02/22-rdf-syntax-ns#">
   <cc:Work>
    <dc:type rdf:resource="http://purl.org/dc/dcmitype/StillImage"/>
    <dc:date>2025-03-07T01:20:43.754554</dc:date>
    <dc:format>image/svg+xml</dc:format>
    <dc:creator>
     <cc:Agent>
      <dc:title>Matplotlib v3.10.0, https://matplotlib.org/</dc:title>
     </cc:Agent>
    </dc:creator>
   </cc:Work>
  </rdf:RDF>
 </metadata>
 <defs>
  <style type="text/css">*{stroke-linejoin: round; stroke-linecap: butt}</style>
 </defs>
 <g id="figure_1">
  <g id="patch_1">
   <path d="M 0 180 
L 180 180 
L 180 0 
L 0 0 
z
" style="fill: #ffffff"/>
  </g>
  <g id="axes_1">
   <g id="patch_2">
    <path d="M 43.62 138.18 
L 168.525 138.18 
L 168.525 24 
L 43.62 24 
z
" style="fill: #ffffff"/>
   </g>
   <g id="matplotlib.axis_1">
    <g id="xtick_1">
     <g id="line2d_1">
      <path d="M 94.7175 138.18 
L 94.7175 24 
" clip-path="url(#p20a5ca2116)" style="fill: none; stroke: #cccccc; stroke-width: 0.8; stroke-linecap: round"/>
     </g>
     <g id="text_1">
      <!-- 5 -->
      <g style="fill: #262626" transform="translate(91.937031 153.653437) scale(0.1 -0.1)">
       <defs>
        <path id="Helvetica-35" d="M 791 1141 
Q 847 659 1238 475 
Q 1438 381 1700 381 
Q 2200 381 2440 700 
Q 2681 1019 2681 1406 
Q 2681 1875 2395 2131 
Q 2109 2388 1709 2388 
Q 1419 2388 1211 2275 
Q 1003 2163 856 1963 
L 369 1991 
L 709 4400 
L 3034 4400 
L 3034 3856 
L 1131 3856 
L 941 2613 
Q 1097 2731 1238 2791 
Q 1488 2894 1816 2894 
Q 2431 2894 2859 2497 
Q 3288 2100 3288 1491 
Q 3288 856 2895 371 
Q 2503 -113 1644 -113 
Q 1097 -113 676 195 
Q 256 503 206 1141 
L 791 1141 
z
" transform="scale(0.015625)"/>
       </defs>
       <use xlink:href="#Helvetica-35"/>
      </g>
     </g>
    </g>
    <g id="xtick_2">
     <g id="line2d_2">
      <path d="M 151.4925 138.18 
L 151.4925 24 
" clip-path="url(#p20a5ca2116)" style="fill: none; stroke: #cccccc; stroke-width: 0.8; stroke-linecap: round"/>
     </g>
     <g id="text_2">
      <!-- 10 -->
      <g style="fill: #262626" transform="translate(145.931562 153.653437) scale(0.1 -0.1)">
       <defs>
        <path id="Helvetica-31" d="M 613 3169 
L 613 3600 
Q 1222 3659 1462 3798 
Q 1703 3938 1822 4456 
L 2266 4456 
L 2266 0 
L 1666 0 
L 1666 3169 
L 613 3169 
z
" transform="scale(0.015625)"/>
        <path id="Helvetica-30" d="M 1731 4475 
Q 2600 4475 2988 3759 
Q 3288 3206 3288 2244 
Q 3288 1331 3016 734 
Q 2622 -122 1728 -122 
Q 922 -122 528 578 
Q 200 1163 200 2147 
Q 200 2909 397 3456 
Q 766 4475 1731 4475 
z
M 1725 391 
Q 2163 391 2422 778 
Q 2681 1166 2681 2222 
Q 2681 2984 2493 3476 
Q 2306 3969 1766 3969 
Q 1269 3969 1039 3501 
Q 809 3034 809 2125 
Q 809 1441 956 1025 
Q 1181 391 1725 391 
z
" transform="scale(0.015625)"/>
       </defs>
       <use xlink:href="#Helvetica-31"/>
       <use xlink:href="#Helvetica-30" transform="translate(55.615234 0)"/>
      </g>
     </g>
    </g>
    <g id="text_3">
     <!-- gpcr selectivity -->
     <g style="fill: #262626" transform="translate(73.285781 166.91125) scale(0.1 -0.1)">
      <defs>
       <path id="Helvetica-67" d="M 1594 3406 
Q 1988 3406 2281 3213 
Q 2441 3103 2606 2894 
L 2606 3316 
L 3125 3316 
L 3125 272 
Q 3125 -366 2938 -734 
Q 2588 -1416 1616 -1416 
Q 1075 -1416 706 -1173 
Q 338 -931 294 -416 
L 866 -416 
Q 906 -641 1028 -763 
Q 1219 -950 1628 -950 
Q 2275 -950 2475 -494 
Q 2594 -225 2584 466 
Q 2416 209 2178 84 
Q 1941 -41 1550 -41 
Q 1006 -41 598 345 
Q 191 731 191 1622 
Q 191 2463 602 2934 
Q 1013 3406 1594 3406 
z
M 2606 1688 
Q 2606 2309 2350 2609 
Q 2094 2909 1697 2909 
Q 1103 2909 884 2353 
Q 769 2056 769 1575 
Q 769 1009 998 714 
Q 1228 419 1616 419 
Q 2222 419 2469 966 
Q 2606 1275 2606 1688 
z
M 1659 3428 
L 1659 3428 
z
" transform="scale(0.015625)"/>
       <path id="Helvetica-70" d="M 1825 378 
Q 2219 378 2480 708 
Q 2741 1038 2741 1694 
Q 2741 2094 2625 2381 
Q 2406 2934 1825 2934 
Q 1241 2934 1025 2350 
Q 909 2038 909 1556 
Q 909 1169 1025 897 
Q 1244 378 1825 378 
z
M 369 3331 
L 916 3331 
L 916 2888 
Q 1084 3116 1284 3241 
Q 1569 3428 1953 3428 
Q 2522 3428 2919 2992 
Q 3316 2556 3316 1747 
Q 3316 653 2744 184 
Q 2381 -113 1900 -113 
Q 1522 -113 1266 53 
Q 1116 147 931 375 
L 931 -1334 
L 369 -1334 
L 369 3331 
z
" transform="scale(0.015625)"/>
       <path id="Helvetica-63" d="M 1703 3444 
Q 2269 3444 2623 3169 
Q 2978 2894 3050 2222 
L 2503 2222 
Q 2453 2531 2275 2736 
Q 2097 2941 1703 2941 
Q 1166 2941 934 2416 
Q 784 2075 784 1575 
Q 784 1072 996 728 
Q 1209 384 1666 384 
Q 2016 384 2220 598 
Q 2425 813 2503 1184 
L 3050 1184 
Q 2956 519 2581 211 
Q 2206 -97 1622 -97 
Q 966 -97 575 383 
Q 184 863 184 1581 
Q 184 2463 612 2953 
Q 1041 3444 1703 3444 
z
M 1616 3428 
L 1616 3428 
z
" transform="scale(0.015625)"/>
       <path id="Helvetica-72" d="M 428 3347 
L 963 3347 
L 963 2769 
Q 1028 2938 1284 3180 
Q 1541 3422 1875 3422 
Q 1891 3422 1928 3419 
Q 1966 3416 2056 3406 
L 2056 2813 
Q 2006 2822 1964 2825 
Q 1922 2828 1872 2828 
Q 1447 2828 1219 2554 
Q 991 2281 991 1925 
L 991 0 
L 428 0 
L 428 3347 
z
" transform="scale(0.015625)"/>
       <path id="Helvetica-20" transform="scale(0.015625)"/>
       <path id="Helvetica-73" d="M 747 1050 
Q 772 769 888 619 
Q 1100 347 1625 347 
Q 1938 347 2175 483 
Q 2413 619 2413 903 
Q 2413 1119 2222 1231 
Q 2100 1300 1741 1391 
L 1294 1503 
Q 866 1609 663 1741 
Q 300 1969 300 2372 
Q 300 2847 642 3140 
Q 984 3434 1563 3434 
Q 2319 3434 2653 2991 
Q 2863 2709 2856 2384 
L 2325 2384 
Q 2309 2575 2191 2731 
Q 1997 2953 1519 2953 
Q 1200 2953 1036 2831 
Q 872 2709 872 2509 
Q 872 2291 1088 2159 
Q 1213 2081 1456 2022 
L 1828 1931 
Q 2434 1784 2641 1647 
Q 2969 1431 2969 969 
Q 2969 522 2630 197 
Q 2291 -128 1597 -128 
Q 850 -128 539 211 
Q 228 550 206 1050 
L 747 1050 
z
M 1578 3428 
L 1578 3428 
z
" transform="scale(0.015625)"/>
       <path id="Helvetica-65" d="M 1806 3422 
Q 2163 3422 2497 3255 
Q 2831 3088 3006 2822 
Q 3175 2569 3231 2231 
Q 3281 2000 3281 1494 
L 828 1494 
Q 844 984 1069 676 
Q 1294 369 1766 369 
Q 2206 369 2469 659 
Q 2619 828 2681 1050 
L 3234 1050 
Q 3213 866 3089 639 
Q 2966 413 2813 269 
Q 2556 19 2178 -69 
Q 1975 -119 1719 -119 
Q 1094 -119 659 336 
Q 225 791 225 1609 
Q 225 2416 662 2919 
Q 1100 3422 1806 3422 
z
M 2703 1941 
Q 2669 2306 2544 2525 
Q 2313 2931 1772 2931 
Q 1384 2931 1121 2651 
Q 859 2372 844 1941 
L 2703 1941 
z
M 1753 3428 
L 1753 3428 
z
" transform="scale(0.015625)"/>
       <path id="Helvetica-6c" d="M 428 4591 
L 991 4591 
L 991 0 
L 428 0 
L 428 4591 
z
" transform="scale(0.015625)"/>
       <path id="Helvetica-74" d="M 525 4281 
L 1094 4281 
L 1094 3347 
L 1628 3347 
L 1628 2888 
L 1094 2888 
L 1094 703 
Q 1094 528 1213 469 
Q 1278 434 1431 434 
Q 1472 434 1519 436 
Q 1566 438 1628 444 
L 1628 0 
Q 1531 -28 1426 -40 
Q 1322 -53 1200 -53 
Q 806 -53 665 148 
Q 525 350 525 672 
L 525 2888 
L 72 2888 
L 72 3347 
L 525 3347 
L 525 4281 
z
" transform="scale(0.015625)"/>
       <path id="Helvetica-69" d="M 413 3331 
L 984 3331 
L 984 0 
L 413 0 
L 413 3331 
z
M 413 4591 
L 984 4591 
L 984 3953 
L 413 3953 
L 413 4591 
z
" transform="scale(0.015625)"/>
       <path id="Helvetica-76" d="M 688 3347 
L 1581 622 
L 2516 3347 
L 3131 3347 
L 1869 0 
L 1269 0 
L 34 3347 
L 688 3347 
z
" transform="scale(0.015625)"/>
       <path id="Helvetica-79" d="M 2503 3347 
L 3125 3347 
Q 3006 3025 2597 1878 
Q 2291 1016 2084 472 
Q 1597 -809 1397 -1090 
Q 1197 -1372 709 -1372 
Q 591 -1372 527 -1362 
Q 463 -1353 369 -1328 
L 369 -816 
Q 516 -856 581 -865 
Q 647 -875 697 -875 
Q 853 -875 926 -823 
Q 1000 -772 1050 -697 
Q 1066 -672 1162 -440 
Q 1259 -209 1303 -97 
L 66 3347 
L 703 3347 
L 1600 622 
L 2503 3347 
z
M 1597 3428 
L 1597 3428 
z
" transform="scale(0.015625)"/>
      </defs>
      <use xlink:href="#Helvetica-67"/>
      <use xlink:href="#Helvetica-70" transform="translate(55.615234 0)"/>
      <use xlink:href="#Helvetica-63" transform="translate(111.230469 0)"/>
      <use xlink:href="#Helvetica-72" transform="translate(161.230469 0)"/>
      <use xlink:href="#Helvetica-20" transform="translate(194.53125 0)"/>
      <use xlink:href="#Helvetica-73" transform="translate(222.314453 0)"/>
      <use xlink:href="#Helvetica-65" transform="translate(272.314453 0)"/>
      <use xlink:href="#Helvetica-6c" transform="translate(327.929688 0)"/>
      <use xlink:href="#Helvetica-65" transform="translate(350.146484 0)"/>
      <use xlink:href="#Helvetica-63" transform="translate(405.761719 0)"/>
      <use xlink:href="#Helvetica-74" transform="translate(455.761719 0)"/>
      <use xlink:href="#Helvetica-69" transform="translate(483.544922 0)"/>
      <use xlink:href="#Helvetica-76" transform="translate(505.761719 0)"/>
      <use xlink:href="#Helvetica-69" transform="translate(555.761719 0)"/>
      <use xlink:href="#Helvetica-74" transform="translate(577.978516 0)"/>
      <use xlink:href="#Helvetica-79" transform="translate(605.761719 0)"/>
     </g>
    </g>
   </g>
   <g id="matplotlib.axis_2">
    <g id="ytick_1">
     <g id="line2d_3">
      <path d="M 43.62 138.18 
L 168.525 138.18 
" clip-path="url(#p20a5ca2116)" style="fill: none; stroke: #cccccc; stroke-width: 0.8; stroke-linecap: round"/>
     </g>
     <g id="text_4">
      <!-- 0 -->
      <g style="fill: #262626" transform="translate(29.759063 141.766719) scale(0.1 -0.1)">
       <use xlink:href="#Helvetica-30"/>
      </g>
     </g>
    </g>
    <g id="ytick_2">
     <g id="line2d_4">
      <path d="M 43.62 128.395014 
L 168.525 128.395014 
" clip-path="url(#p20a5ca2116)" style="fill: none; stroke: #cccccc; stroke-width: 0.8; stroke-linecap: round"/>
     </g>
     <g id="text_5">
      <!-- 1 -->
      <g style="fill: #262626" transform="translate(29.759063 131.981732) scale(0.1 -0.1)">
       <use xlink:href="#Helvetica-31"/>
      </g>
     </g>
    </g>
    <g id="ytick_3">
     <g id="line2d_5">
      <path d="M 43.62 118.610027 
L 168.525 118.610027 
" clip-path="url(#p20a5ca2116)" style="fill: none; stroke: #cccccc; stroke-width: 0.8; stroke-linecap: round"/>
     </g>
     <g id="text_6">
      <!-- 2 -->
      <g style="fill: #262626" transform="translate(29.759063 122.196746) scale(0.1 -0.1)">
       <defs>
        <path id="Helvetica-32" d="M 200 0 
Q 231 578 439 1006 
Q 647 1434 1250 1784 
L 1850 2131 
Q 2253 2366 2416 2531 
Q 2672 2791 2672 3125 
Q 2672 3516 2437 3745 
Q 2203 3975 1813 3975 
Q 1234 3975 1013 3538 
Q 894 3303 881 2888 
L 309 2888 
Q 319 3472 525 3841 
Q 891 4491 1816 4491 
Q 2584 4491 2939 4075 
Q 3294 3659 3294 3150 
Q 3294 2613 2916 2231 
Q 2697 2009 2131 1694 
L 1703 1456 
Q 1397 1288 1222 1134 
Q 909 863 828 531 
L 3272 531 
L 3272 0 
L 200 0 
z
" transform="scale(0.015625)"/>
       </defs>
       <use xlink:href="#Helvetica-32"/>
      </g>
     </g>
    </g>
    <g id="ytick_4">
     <g id="line2d_6">
      <path d="M 43.62 108.825041 
L 168.525 108.825041 
" clip-path="url(#p20a5ca2116)" style="fill: none; stroke: #cccccc; stroke-width: 0.8; stroke-linecap: round"/>
     </g>
     <g id="text_7">
      <!-- 3 -->
      <g style="fill: #262626" transform="translate(29.759063 112.411759) scale(0.1 -0.1)">
       <defs>
        <path id="Helvetica-33" d="M 1663 -122 
Q 869 -122 511 314 
Q 153 750 153 1375 
L 741 1375 
Q 778 941 903 744 
Q 1122 391 1694 391 
Q 2138 391 2406 628 
Q 2675 866 2675 1241 
Q 2675 1703 2392 1887 
Q 2109 2072 1606 2072 
Q 1550 2072 1492 2070 
Q 1434 2069 1375 2066 
L 1375 2563 
Q 1463 2553 1522 2550 
Q 1581 2547 1650 2547 
Q 1966 2547 2169 2647 
Q 2525 2822 2525 3272 
Q 2525 3606 2287 3787 
Q 2050 3969 1734 3969 
Q 1172 3969 956 3594 
Q 838 3388 822 3006 
L 266 3006 
Q 266 3506 466 3856 
Q 809 4481 1675 4481 
Q 2359 4481 2734 4176 
Q 3109 3872 3109 3294 
Q 3109 2881 2888 2625 
Q 2750 2466 2531 2375 
Q 2884 2278 3082 2001 
Q 3281 1725 3281 1325 
Q 3281 684 2859 281 
Q 2438 -122 1663 -122 
z
" transform="scale(0.015625)"/>
       </defs>
       <use xlink:href="#Helvetica-33"/>
      </g>
     </g>
    </g>
    <g id="ytick_5">
     <g id="line2d_7">
      <path d="M 43.62 99.040054 
L 168.525 99.040054 
" clip-path="url(#p20a5ca2116)" style="fill: none; stroke: #cccccc; stroke-width: 0.8; stroke-linecap: round"/>
     </g>
     <g id="text_8">
      <!-- 4 -->
      <g style="fill: #262626" transform="translate(29.759063 102.626773) scale(0.1 -0.1)">
       <defs>
        <path id="Helvetica-34" d="M 2116 1584 
L 2116 3613 
L 681 1584 
L 2116 1584 
z
M 2125 0 
L 2125 1094 
L 163 1094 
L 163 1644 
L 2213 4488 
L 2688 4488 
L 2688 1584 
L 3347 1584 
L 3347 1094 
L 2688 1094 
L 2688 0 
L 2125 0 
z
" transform="scale(0.015625)"/>
       </defs>
       <use xlink:href="#Helvetica-34"/>
      </g>
     </g>
    </g>
    <g id="ytick_6">
     <g id="line2d_8">
      <path d="M 43.62 89.255068 
L 168.525 89.255068 
" clip-path="url(#p20a5ca2116)" style="fill: none; stroke: #cccccc; stroke-width: 0.8; stroke-linecap: round"/>
     </g>
     <g id="text_9">
      <!-- 5 -->
      <g style="fill: #262626" transform="translate(29.759063 92.841786) scale(0.1 -0.1)">
       <use xlink:href="#Helvetica-35"/>
      </g>
     </g>
    </g>
    <g id="ytick_7">
     <g id="line2d_9">
      <path d="M 43.62 79.470081 
L 168.525 79.470081 
" clip-path="url(#p20a5ca2116)" style="fill: none; stroke: #cccccc; stroke-width: 0.8; stroke-linecap: round"/>
     </g>
     <g id="text_10">
      <!-- 6 -->
      <g style="fill: #262626" transform="translate(29.759063 83.0568) scale(0.1 -0.1)">
       <defs>
        <path id="Helvetica-36" d="M 1872 4494 
Q 2622 4494 2917 4105 
Q 3213 3716 3213 3303 
L 2656 3303 
Q 2606 3569 2497 3719 
Q 2294 4000 1881 4000 
Q 1409 4000 1131 3564 
Q 853 3128 822 2316 
Q 1016 2600 1309 2741 
Q 1578 2866 1909 2866 
Q 2472 2866 2890 2506 
Q 3309 2147 3309 1434 
Q 3309 825 2912 354 
Q 2516 -116 1781 -116 
Q 1153 -116 697 361 
Q 241 838 241 1966 
Q 241 2800 444 3381 
Q 834 4494 1872 4494 
z
M 1831 384 
Q 2275 384 2495 682 
Q 2716 981 2716 1388 
Q 2716 1731 2519 2042 
Q 2322 2353 1803 2353 
Q 1441 2353 1167 2112 
Q 894 1872 894 1388 
Q 894 963 1142 673 
Q 1391 384 1831 384 
z
" transform="scale(0.015625)"/>
       </defs>
       <use xlink:href="#Helvetica-36"/>
      </g>
     </g>
    </g>
    <g id="ytick_8">
     <g id="line2d_10">
      <path d="M 43.62 69.685095 
L 168.525 69.685095 
" clip-path="url(#p20a5ca2116)" style="fill: none; stroke: #cccccc; stroke-width: 0.8; stroke-linecap: round"/>
     </g>
     <g id="text_11">
      <!-- 7 -->
      <g style="fill: #262626" transform="translate(29.759063 73.271813) scale(0.1 -0.1)">
       <defs>
        <path id="Helvetica-37" d="M 3347 4400 
L 3347 3909 
Q 3131 3700 2773 3181 
Q 2416 2663 2141 2063 
Q 1869 1478 1728 997 
Q 1638 688 1494 0 
L 872 0 
Q 1084 1281 1809 2550 
Q 2238 3294 2709 3834 
L 234 3834 
L 234 4400 
L 3347 4400 
z
" transform="scale(0.015625)"/>
       </defs>
       <use xlink:href="#Helvetica-37"/>
      </g>
     </g>
    </g>
    <g id="ytick_9">
     <g id="line2d_11">
      <path d="M 43.62 59.900108 
L 168.525 59.900108 
" clip-path="url(#p20a5ca2116)" style="fill: none; stroke: #cccccc; stroke-width: 0.8; stroke-linecap: round"/>
     </g>
     <g id="text_12">
      <!-- 8 -->
      <g style="fill: #262626" transform="translate(29.759063 63.486827) scale(0.1 -0.1)">
       <defs>
        <path id="Helvetica-38" d="M 1741 2600 
Q 2113 2600 2322 2808 
Q 2531 3016 2531 3303 
Q 2531 3553 2331 3762 
Q 2131 3972 1722 3972 
Q 1316 3972 1134 3762 
Q 953 3553 953 3272 
Q 953 2956 1187 2778 
Q 1422 2600 1741 2600 
z
M 1775 384 
Q 2166 384 2423 595 
Q 2681 806 2681 1225 
Q 2681 1659 2415 1884 
Q 2150 2109 1734 2109 
Q 1331 2109 1076 1879 
Q 822 1650 822 1244 
Q 822 894 1055 639 
Q 1288 384 1775 384 
z
M 975 2384 
Q 741 2484 609 2619 
Q 363 2869 363 3269 
Q 363 3769 725 4128 
Q 1088 4488 1753 4488 
Q 2397 4488 2762 4148 
Q 3128 3809 3128 3356 
Q 3128 2938 2916 2678 
Q 2797 2531 2547 2391 
Q 2825 2263 2984 2097 
Q 3281 1784 3281 1284 
Q 3281 694 2884 283 
Q 2488 -128 1763 -128 
Q 1109 -128 657 226 
Q 206 581 206 1256 
Q 206 1653 400 1942 
Q 594 2231 975 2384 
z
" transform="scale(0.015625)"/>
       </defs>
       <use xlink:href="#Helvetica-38"/>
      </g>
     </g>
    </g>
    <g id="ytick_10">
     <g id="line2d_12">
      <path d="M 43.62 50.115122 
L 168.525 50.115122 
" clip-path="url(#p20a5ca2116)" style="fill: none; stroke: #cccccc; stroke-width: 0.8; stroke-linecap: round"/>
     </g>
     <g id="text_13">
      <!-- 9 -->
      <g style="fill: #262626" transform="translate(29.759063 53.70184) scale(0.1 -0.1)">
       <defs>
        <path id="Helvetica-39" d="M 850 1081 
Q 875 616 1209 438 
Q 1381 344 1597 344 
Q 2000 344 2284 680 
Q 2569 1016 2688 2044 
Q 2500 1747 2223 1626 
Q 1947 1506 1628 1506 
Q 981 1506 604 1909 
Q 228 2313 228 2947 
Q 228 3556 600 4018 
Q 972 4481 1697 4481 
Q 2675 4481 3047 3600 
Q 3253 3116 3253 2388 
Q 3253 1566 3006 931 
Q 2597 -125 1619 -125 
Q 963 -125 622 219 
Q 281 563 281 1081 
L 850 1081 
z
M 1703 2000 
Q 2038 2000 2314 2220 
Q 2591 2441 2591 2991 
Q 2591 3484 2342 3726 
Q 2094 3969 1709 3969 
Q 1297 3969 1055 3692 
Q 813 3416 813 2953 
Q 813 2516 1025 2258 
Q 1238 2000 1703 2000 
z
" transform="scale(0.015625)"/>
       </defs>
       <use xlink:href="#Helvetica-39"/>
      </g>
     </g>
    </g>
    <g id="ytick_11">
     <g id="line2d_13">
      <path d="M 43.62 40.330135 
L 168.525 40.330135 
" clip-path="url(#p20a5ca2116)" style="fill: none; stroke: #cccccc; stroke-width: 0.8; stroke-linecap: round"/>
     </g>
     <g id="text_14">
      <!-- 10 -->
      <g style="fill: #262626" transform="translate(24.198125 43.916854) scale(0.1 -0.1)">
       <use xlink:href="#Helvetica-31"/>
       <use xlink:href="#Helvetica-30" transform="translate(55.615234 0)"/>
      </g>
     </g>
    </g>
    <g id="ytick_12">
     <g id="line2d_14">
      <path d="M 43.62 30.545149 
L 168.525 30.545149 
" clip-path="url(#p20a5ca2116)" style="fill: none; stroke: #cccccc; stroke-width: 0.8; stroke-linecap: round"/>
     </g>
     <g id="text_15">
      <!-- 11 -->
      <g style="fill: #262626" transform="translate(24.198125 34.131867) scale(0.1 -0.1)">
       <use xlink:href="#Helvetica-31"/>
       <use xlink:href="#Helvetica-31" transform="translate(55.615234 0)"/>
      </g>
     </g>
    </g>
    <g id="text_16">
     <!-- Rank -->
     <g style="fill: #262626" transform="translate(18.11375 92.761875) rotate(-90) scale(0.1 -0.1)">
      <defs>
       <path id="Helvetica-52" d="M 2622 2488 
Q 3059 2488 3314 2663 
Q 3569 2838 3569 3294 
Q 3569 3784 3213 3963 
Q 3022 4056 2703 4056 
L 1184 4056 
L 1184 2488 
L 2622 2488 
z
M 563 4591 
L 2688 4591 
Q 3213 4591 3553 4438 
Q 4200 4144 4200 3353 
Q 4200 2941 4029 2678 
Q 3859 2416 3553 2256 
Q 3822 2147 3958 1969 
Q 4094 1791 4109 1391 
L 4131 775 
Q 4141 513 4175 384 
Q 4231 166 4375 103 
L 4375 0 
L 3613 0 
Q 3581 59 3562 153 
Q 3544 247 3531 516 
L 3494 1281 
Q 3472 1731 3159 1884 
Q 2981 1969 2600 1969 
L 1184 1969 
L 1184 0 
L 563 0 
L 563 4591 
z
" transform="scale(0.015625)"/>
       <path id="Helvetica-61" d="M 844 891 
Q 844 647 1022 506 
Q 1200 366 1444 366 
Q 1741 366 2019 503 
Q 2488 731 2488 1250 
L 2488 1703 
Q 2384 1638 2221 1594 
Q 2059 1550 1903 1531 
L 1563 1488 
Q 1256 1447 1103 1359 
Q 844 1213 844 891 
z
M 2206 2028 
Q 2400 2053 2466 2191 
Q 2503 2266 2503 2406 
Q 2503 2694 2298 2823 
Q 2094 2953 1713 2953 
Q 1272 2953 1088 2716 
Q 984 2584 953 2325 
L 428 2325 
Q 444 2944 830 3186 
Q 1216 3428 1725 3428 
Q 2316 3428 2684 3203 
Q 3050 2978 3050 2503 
L 3050 575 
Q 3050 488 3086 434 
Q 3122 381 3238 381 
Q 3275 381 3322 386 
Q 3369 391 3422 400 
L 3422 -16 
Q 3291 -53 3222 -62 
Q 3153 -72 3034 -72 
Q 2744 -72 2613 134 
Q 2544 244 2516 444 
Q 2344 219 2022 53 
Q 1700 -113 1313 -113 
Q 847 -113 551 170 
Q 256 453 256 878 
Q 256 1344 547 1600 
Q 838 1856 1309 1916 
L 2206 2028 
z
M 1741 3428 
L 1741 3428 
z
" transform="scale(0.015625)"/>
       <path id="Helvetica-6e" d="M 413 3347 
L 947 3347 
L 947 2872 
Q 1184 3166 1450 3294 
Q 1716 3422 2041 3422 
Q 2753 3422 3003 2925 
Q 3141 2653 3141 2147 
L 3141 0 
L 2569 0 
L 2569 2109 
Q 2569 2416 2478 2603 
Q 2328 2916 1934 2916 
Q 1734 2916 1606 2875 
Q 1375 2806 1200 2600 
Q 1059 2434 1017 2257 
Q 975 2081 975 1753 
L 975 0 
L 413 0 
L 413 3347 
z
M 1734 3428 
L 1734 3428 
z
" transform="scale(0.015625)"/>
       <path id="Helvetica-6b" d="M 400 4591 
L 941 4591 
L 941 1925 
L 2384 3347 
L 3103 3347 
L 1822 2094 
L 3175 0 
L 2456 0 
L 1413 1688 
L 941 1256 
L 941 0 
L 400 0 
L 400 4591 
z
" transform="scale(0.015625)"/>
      </defs>
      <use xlink:href="#Helvetica-52"/>
      <use xlink:href="#Helvetica-61" transform="translate(72.216797 0)"/>
      <use xlink:href="#Helvetica-6e" transform="translate(127.832031 0)"/>
      <use xlink:href="#Helvetica-6b" transform="translate(183.447266 0)"/>
     </g>
    </g>
   </g>
   <g id="PathCollection_1">
    <defs>
     <path id="m6698d36c20" d="M 0 2.4 
C 0.636487 2.4 1.246992 2.147121 1.697056 1.697056 
C 2.147121 1.246992 2.4 0.636487 2.4 0 
C 2.4 -0.636487 2.147121 -1.246992 1.697056 -1.697056 
C 1.246992 -2.147121 0.636487 -2.4 0 -2.4 
C -0.636487 -2.4 -1.246992 -2.147121 -1.697056 -1.697056 
C -2.147121 -1.246992 -2.4 -0.636487 -2.4 0 
C -2.4 0.636487 -2.147121 1.246992 -1.697056 1.697056 
C -1.246992 2.147121 -0.636487 2.4 0 2.4 
z
" style="stroke: #1f77b4; stroke-opacity: 0.5"/>
    </defs>
    <g clip-path="url(#p20a5ca2116)">
     <use xlink:href="#m6698d36c20" x="49.2975" y="71.022754" style="fill: #1f77b4; fill-opacity: 0.5; stroke: #1f77b4; stroke-opacity: 0.5"/>
     <use xlink:href="#m6698d36c20" x="83.3625" y="110.212878" style="fill: #1f77b4; fill-opacity: 0.5; stroke: #1f77b4; stroke-opacity: 0.5"/>
     <use xlink:href="#m6698d36c20" x="83.3625" y="99.236489" style="fill: #1f77b4; fill-opacity: 0.5; stroke: #1f77b4; stroke-opacity: 0.5"/>
     <use xlink:href="#m6698d36c20" x="60.6525" y="119.666757" style="fill: #1f77b4; fill-opacity: 0.5; stroke: #1f77b4; stroke-opacity: 0.5"/>
     <use xlink:href="#m6698d36c20" x="49.2975" y="88.483893" style="fill: #1f77b4; fill-opacity: 0.5; stroke: #1f77b4; stroke-opacity: 0.5"/>
     <use xlink:href="#m6698d36c20" x="83.3625" y="118.258825" style="fill: #1f77b4; fill-opacity: 0.5; stroke: #1f77b4; stroke-opacity: 0.5"/>
     <use xlink:href="#m6698d36c20" x="140.1375" y="117.410018" style="fill: #1f77b4; fill-opacity: 0.5; stroke: #1f77b4; stroke-opacity: 0.5"/>
     <use xlink:href="#m6698d36c20" x="72.0075" y="98.932573" style="fill: #1f77b4; fill-opacity: 0.5; stroke: #1f77b4; stroke-opacity: 0.5"/>
     <use xlink:href="#m6698d36c20" x="83.3625" y="88.223954" style="fill: #1f77b4; fill-opacity: 0.5; stroke: #1f77b4; stroke-opacity: 0.5"/>
     <use xlink:href="#m6698d36c20" x="140.1375" y="40.213203" style="fill: #1f77b4; fill-opacity: 0.5; stroke: #1f77b4; stroke-opacity: 0.5"/>
     <use xlink:href="#m6698d36c20" x="60.6525" y="51.593625" style="fill: #1f77b4; fill-opacity: 0.5; stroke: #1f77b4; stroke-opacity: 0.5"/>
     <use xlink:href="#m6698d36c20" x="117.4275" y="120.128241" style="fill: #1f77b4; fill-opacity: 0.5; stroke: #1f77b4; stroke-opacity: 0.5"/>
     <use xlink:href="#m6698d36c20" x="49.2975" y="30.09225" style="fill: #1f77b4; fill-opacity: 0.5; stroke: #1f77b4; stroke-opacity: 0.5"/>
     <use xlink:href="#m6698d36c20" x="83.3625" y="128.275215" style="fill: #1f77b4; fill-opacity: 0.5; stroke: #1f77b4; stroke-opacity: 0.5"/>
     <use xlink:href="#m6698d36c20" x="83.3625" y="99.978936" style="fill: #1f77b4; fill-opacity: 0.5; stroke: #1f77b4; stroke-opacity: 0.5"/>
     <use xlink:href="#m6698d36c20" x="72.0075" y="91.069242" style="fill: #1f77b4; fill-opacity: 0.5; stroke: #1f77b4; stroke-opacity: 0.5"/>
     <use xlink:href="#m6698d36c20" x="60.6525" y="29.053072" style="fill: #1f77b4; fill-opacity: 0.5; stroke: #1f77b4; stroke-opacity: 0.5"/>
     <use xlink:href="#m6698d36c20" x="83.3625" y="98.812254" style="fill: #1f77b4; fill-opacity: 0.5; stroke: #1f77b4; stroke-opacity: 0.5"/>
     <use xlink:href="#m6698d36c20" x="60.6525" y="77.991891" style="fill: #1f77b4; fill-opacity: 0.5; stroke: #1f77b4; stroke-opacity: 0.5"/>
     <use xlink:href="#m6698d36c20" x="60.6525" y="87.802702" style="fill: #1f77b4; fill-opacity: 0.5; stroke: #1f77b4; stroke-opacity: 0.5"/>
     <use xlink:href="#m6698d36c20" x="60.6525" y="107.956337" style="fill: #1f77b4; fill-opacity: 0.5; stroke: #1f77b4; stroke-opacity: 0.5"/>
     <use xlink:href="#m6698d36c20" x="49.2975" y="32.329618" style="fill: #1f77b4; fill-opacity: 0.5; stroke: #1f77b4; stroke-opacity: 0.5"/>
     <use xlink:href="#m6698d36c20" x="49.2975" y="116.812292" style="fill: #1f77b4; fill-opacity: 0.5; stroke: #1f77b4; stroke-opacity: 0.5"/>
     <use xlink:href="#m6698d36c20" x="60.6525" y="89.800169" style="fill: #1f77b4; fill-opacity: 0.5; stroke: #1f77b4; stroke-opacity: 0.5"/>
     <use xlink:href="#m6698d36c20" x="49.2975" y="29.552225" style="fill: #1f77b4; fill-opacity: 0.5; stroke: #1f77b4; stroke-opacity: 0.5"/>
     <use xlink:href="#m6698d36c20" x="60.6525" y="129.834153" style="fill: #1f77b4; fill-opacity: 0.5; stroke: #1f77b4; stroke-opacity: 0.5"/>
     <use xlink:href="#m6698d36c20" x="49.2975" y="40.940033" style="fill: #1f77b4; fill-opacity: 0.5; stroke: #1f77b4; stroke-opacity: 0.5"/>
     <use xlink:href="#m6698d36c20" x="72.0075" y="127.483294" style="fill: #1f77b4; fill-opacity: 0.5; stroke: #1f77b4; stroke-opacity: 0.5"/>
     <use xlink:href="#m6698d36c20" x="117.4275" y="129.678787" style="fill: #1f77b4; fill-opacity: 0.5; stroke: #1f77b4; stroke-opacity: 0.5"/>
     <use xlink:href="#m6698d36c20" x="60.6525" y="127.684207" style="fill: #1f77b4; fill-opacity: 0.5; stroke: #1f77b4; stroke-opacity: 0.5"/>
     <use xlink:href="#m6698d36c20" x="151.4925" y="80.517774" style="fill: #1f77b4; fill-opacity: 0.5; stroke: #1f77b4; stroke-opacity: 0.5"/>
     <use xlink:href="#m6698d36c20" x="72.0075" y="117.806117" style="fill: #1f77b4; fill-opacity: 0.5; stroke: #1f77b4; stroke-opacity: 0.5"/>
     <use xlink:href="#m6698d36c20" x="106.0725" y="80.133737" style="fill: #1f77b4; fill-opacity: 0.5; stroke: #1f77b4; stroke-opacity: 0.5"/>
     <use xlink:href="#m6698d36c20" x="60.6525" y="117.569837" style="fill: #1f77b4; fill-opacity: 0.5; stroke: #1f77b4; stroke-opacity: 0.5"/>
     <use xlink:href="#m6698d36c20" x="72.0075" y="49.985499" style="fill: #1f77b4; fill-opacity: 0.5; stroke: #1f77b4; stroke-opacity: 0.5"/>
     <use xlink:href="#m6698d36c20" x="49.2975" y="107.233544" style="fill: #1f77b4; fill-opacity: 0.5; stroke: #1f77b4; stroke-opacity: 0.5"/>
     <use xlink:href="#m6698d36c20" x="49.2975" y="90.259891" style="fill: #1f77b4; fill-opacity: 0.5; stroke: #1f77b4; stroke-opacity: 0.5"/>
     <use xlink:href="#m6698d36c20" x="72.0075" y="97.291632" style="fill: #1f77b4; fill-opacity: 0.5; stroke: #1f77b4; stroke-opacity: 0.5"/>
     <use xlink:href="#m6698d36c20" x="72.0075" y="31.832502" style="fill: #1f77b4; fill-opacity: 0.5; stroke: #1f77b4; stroke-opacity: 0.5"/>
     <use xlink:href="#m6698d36c20" x="60.6525" y="110.477448" style="fill: #1f77b4; fill-opacity: 0.5; stroke: #1f77b4; stroke-opacity: 0.5"/>
     <use xlink:href="#m6698d36c20" x="49.2975" y="99.577626" style="fill: #1f77b4; fill-opacity: 0.5; stroke: #1f77b4; stroke-opacity: 0.5"/>
     <use xlink:href="#m6698d36c20" x="72.0075" y="119.472536" style="fill: #1f77b4; fill-opacity: 0.5; stroke: #1f77b4; stroke-opacity: 0.5"/>
     <use xlink:href="#m6698d36c20" x="72.0075" y="128.663053" style="fill: #1f77b4; fill-opacity: 0.5; stroke: #1f77b4; stroke-opacity: 0.5"/>
     <use xlink:href="#m6698d36c20" x="151.4925" y="109.47752" style="fill: #1f77b4; fill-opacity: 0.5; stroke: #1f77b4; stroke-opacity: 0.5"/>
     <use xlink:href="#m6698d36c20" x="128.7825" y="128.147909" style="fill: #1f77b4; fill-opacity: 0.5; stroke: #1f77b4; stroke-opacity: 0.5"/>
     <use xlink:href="#m6698d36c20" x="49.2975" y="68.45973" style="fill: #1f77b4; fill-opacity: 0.5; stroke: #1f77b4; stroke-opacity: 0.5"/>
     <use xlink:href="#m6698d36c20" x="72.0075" y="128.795448" style="fill: #1f77b4; fill-opacity: 0.5; stroke: #1f77b4; stroke-opacity: 0.5"/>
     <use xlink:href="#m6698d36c20" x="60.6525" y="107.284914" style="fill: #1f77b4; fill-opacity: 0.5; stroke: #1f77b4; stroke-opacity: 0.5"/>
     <use xlink:href="#m6698d36c20" x="49.2975" y="38.863604" style="fill: #1f77b4; fill-opacity: 0.5; stroke: #1f77b4; stroke-opacity: 0.5"/>
     <use xlink:href="#m6698d36c20" x="128.7825" y="88.08151" style="fill: #1f77b4; fill-opacity: 0.5; stroke: #1f77b4; stroke-opacity: 0.5"/>
     <use xlink:href="#m6698d36c20" x="94.7175" y="127.236225" style="fill: #1f77b4; fill-opacity: 0.5; stroke: #1f77b4; stroke-opacity: 0.5"/>
     <use xlink:href="#m6698d36c20" x="60.6525" y="110.294711" style="fill: #1f77b4; fill-opacity: 0.5; stroke: #1f77b4; stroke-opacity: 0.5"/>
     <use xlink:href="#m6698d36c20" x="94.7175" y="97.314727" style="fill: #1f77b4; fill-opacity: 0.5; stroke: #1f77b4; stroke-opacity: 0.5"/>
     <use xlink:href="#m6698d36c20" x="72.0075" y="89.682725" style="fill: #1f77b4; fill-opacity: 0.5; stroke: #1f77b4; stroke-opacity: 0.5"/>
     <use xlink:href="#m6698d36c20" x="128.7825" y="78.507169" style="fill: #1f77b4; fill-opacity: 0.5; stroke: #1f77b4; stroke-opacity: 0.5"/>
     <use xlink:href="#m6698d36c20" x="117.4275" y="120.50521" style="fill: #1f77b4; fill-opacity: 0.5; stroke: #1f77b4; stroke-opacity: 0.5"/>
     <use xlink:href="#m6698d36c20" x="72.0075" y="89.364793" style="fill: #1f77b4; fill-opacity: 0.5; stroke: #1f77b4; stroke-opacity: 0.5"/>
     <use xlink:href="#m6698d36c20" x="72.0075" y="118.628938" style="fill: #1f77b4; fill-opacity: 0.5; stroke: #1f77b4; stroke-opacity: 0.5"/>
     <use xlink:href="#m6698d36c20" x="60.6525" y="89.589789" style="fill: #1f77b4; fill-opacity: 0.5; stroke: #1f77b4; stroke-opacity: 0.5"/>
     <use xlink:href="#m6698d36c20" x="72.0075" y="30.764763" style="fill: #1f77b4; fill-opacity: 0.5; stroke: #1f77b4; stroke-opacity: 0.5"/>
     <use xlink:href="#m6698d36c20" x="162.8475" y="126.473626" style="fill: #1f77b4; fill-opacity: 0.5; stroke: #1f77b4; stroke-opacity: 0.5"/>
     <use xlink:href="#m6698d36c20" x="72.0075" y="48.348965" style="fill: #1f77b4; fill-opacity: 0.5; stroke: #1f77b4; stroke-opacity: 0.5"/>
     <use xlink:href="#m6698d36c20" x="106.0725" y="118.932782" style="fill: #1f77b4; fill-opacity: 0.5; stroke: #1f77b4; stroke-opacity: 0.5"/>
     <use xlink:href="#m6698d36c20" x="72.0075" y="116.805351" style="fill: #1f77b4; fill-opacity: 0.5; stroke: #1f77b4; stroke-opacity: 0.5"/>
     <use xlink:href="#m6698d36c20" x="49.2975" y="87.792835" style="fill: #1f77b4; fill-opacity: 0.5; stroke: #1f77b4; stroke-opacity: 0.5"/>
     <use xlink:href="#m6698d36c20" x="49.2975" y="98.328051" style="fill: #1f77b4; fill-opacity: 0.5; stroke: #1f77b4; stroke-opacity: 0.5"/>
     <use xlink:href="#m6698d36c20" x="94.7175" y="61.387668" style="fill: #1f77b4; fill-opacity: 0.5; stroke: #1f77b4; stroke-opacity: 0.5"/>
     <use xlink:href="#m6698d36c20" x="72.0075" y="90.591601" style="fill: #1f77b4; fill-opacity: 0.5; stroke: #1f77b4; stroke-opacity: 0.5"/>
     <use xlink:href="#m6698d36c20" x="83.3625" y="120.028763" style="fill: #1f77b4; fill-opacity: 0.5; stroke: #1f77b4; stroke-opacity: 0.5"/>
     <use xlink:href="#m6698d36c20" x="49.2975" y="119.450442" style="fill: #1f77b4; fill-opacity: 0.5; stroke: #1f77b4; stroke-opacity: 0.5"/>
     <use xlink:href="#m6698d36c20" x="83.3625" y="119.088451" style="fill: #1f77b4; fill-opacity: 0.5; stroke: #1f77b4; stroke-opacity: 0.5"/>
     <use xlink:href="#m6698d36c20" x="60.6525" y="50.746408" style="fill: #1f77b4; fill-opacity: 0.5; stroke: #1f77b4; stroke-opacity: 0.5"/>
     <use xlink:href="#m6698d36c20" x="49.2975" y="80.526442" style="fill: #1f77b4; fill-opacity: 0.5; stroke: #1f77b4; stroke-opacity: 0.5"/>
     <use xlink:href="#m6698d36c20" x="60.6525" y="80.417099" style="fill: #1f77b4; fill-opacity: 0.5; stroke: #1f77b4; stroke-opacity: 0.5"/>
     <use xlink:href="#m6698d36c20" x="83.3625" y="127.625527" style="fill: #1f77b4; fill-opacity: 0.5; stroke: #1f77b4; stroke-opacity: 0.5"/>
     <use xlink:href="#m6698d36c20" x="72.0075" y="109.611469" style="fill: #1f77b4; fill-opacity: 0.5; stroke: #1f77b4; stroke-opacity: 0.5"/>
     <use xlink:href="#m6698d36c20" x="72.0075" y="107.0951" style="fill: #1f77b4; fill-opacity: 0.5; stroke: #1f77b4; stroke-opacity: 0.5"/>
     <use xlink:href="#m6698d36c20" x="60.6525" y="120.51063" style="fill: #1f77b4; fill-opacity: 0.5; stroke: #1f77b4; stroke-opacity: 0.5"/>
     <use xlink:href="#m6698d36c20" x="72.0075" y="107.133581" style="fill: #1f77b4; fill-opacity: 0.5; stroke: #1f77b4; stroke-opacity: 0.5"/>
     <use xlink:href="#m6698d36c20" x="128.7825" y="71.513559" style="fill: #1f77b4; fill-opacity: 0.5; stroke: #1f77b4; stroke-opacity: 0.5"/>
     <use xlink:href="#m6698d36c20" x="72.0075" y="78.942506" style="fill: #1f77b4; fill-opacity: 0.5; stroke: #1f77b4; stroke-opacity: 0.5"/>
     <use xlink:href="#m6698d36c20" x="49.2975" y="129.432598" style="fill: #1f77b4; fill-opacity: 0.5; stroke: #1f77b4; stroke-opacity: 0.5"/>
     <use xlink:href="#m6698d36c20" x="106.0725" y="119.027783" style="fill: #1f77b4; fill-opacity: 0.5; stroke: #1f77b4; stroke-opacity: 0.5"/>
     <use xlink:href="#m6698d36c20" x="117.4275" y="127.002405" style="fill: #1f77b4; fill-opacity: 0.5; stroke: #1f77b4; stroke-opacity: 0.5"/>
     <use xlink:href="#m6698d36c20" x="49.2975" y="39.642031" style="fill: #1f77b4; fill-opacity: 0.5; stroke: #1f77b4; stroke-opacity: 0.5"/>
     <use xlink:href="#m6698d36c20" x="60.6525" y="119.971216" style="fill: #1f77b4; fill-opacity: 0.5; stroke: #1f77b4; stroke-opacity: 0.5"/>
     <use xlink:href="#m6698d36c20" x="60.6525" y="117.94589" style="fill: #1f77b4; fill-opacity: 0.5; stroke: #1f77b4; stroke-opacity: 0.5"/>
     <use xlink:href="#m6698d36c20" x="60.6525" y="51.344419" style="fill: #1f77b4; fill-opacity: 0.5; stroke: #1f77b4; stroke-opacity: 0.5"/>
     <use xlink:href="#m6698d36c20" x="49.2975" y="98.640662" style="fill: #1f77b4; fill-opacity: 0.5; stroke: #1f77b4; stroke-opacity: 0.5"/>
     <use xlink:href="#m6698d36c20" x="49.2975" y="59.67883" style="fill: #1f77b4; fill-opacity: 0.5; stroke: #1f77b4; stroke-opacity: 0.5"/>
     <use xlink:href="#m6698d36c20" x="140.1375" y="108.04177" style="fill: #1f77b4; fill-opacity: 0.5; stroke: #1f77b4; stroke-opacity: 0.5"/>
     <use xlink:href="#m6698d36c20" x="72.0075" y="126.775561" style="fill: #1f77b4; fill-opacity: 0.5; stroke: #1f77b4; stroke-opacity: 0.5"/>
     <use xlink:href="#m6698d36c20" x="49.2975" y="98.309744" style="fill: #1f77b4; fill-opacity: 0.5; stroke: #1f77b4; stroke-opacity: 0.5"/>
     <use xlink:href="#m6698d36c20" x="60.6525" y="99.622597" style="fill: #1f77b4; fill-opacity: 0.5; stroke: #1f77b4; stroke-opacity: 0.5"/>
     <use xlink:href="#m6698d36c20" x="72.0075" y="128.002785" style="fill: #1f77b4; fill-opacity: 0.5; stroke: #1f77b4; stroke-opacity: 0.5"/>
     <use xlink:href="#m6698d36c20" x="72.0075" y="118.51361" style="fill: #1f77b4; fill-opacity: 0.5; stroke: #1f77b4; stroke-opacity: 0.5"/>
     <use xlink:href="#m6698d36c20" x="49.2975" y="79.293732" style="fill: #1f77b4; fill-opacity: 0.5; stroke: #1f77b4; stroke-opacity: 0.5"/>
     <use xlink:href="#m6698d36c20" x="83.3625" y="39.739856" style="fill: #1f77b4; fill-opacity: 0.5; stroke: #1f77b4; stroke-opacity: 0.5"/>
     <use xlink:href="#m6698d36c20" x="60.6525" y="39.948295" style="fill: #1f77b4; fill-opacity: 0.5; stroke: #1f77b4; stroke-opacity: 0.5"/>
     <use xlink:href="#m6698d36c20" x="83.3625" y="42.139794" style="fill: #1f77b4; fill-opacity: 0.5; stroke: #1f77b4; stroke-opacity: 0.5"/>
     <use xlink:href="#m6698d36c20" x="117.4275" y="110.334907" style="fill: #1f77b4; fill-opacity: 0.5; stroke: #1f77b4; stroke-opacity: 0.5"/>
     <use xlink:href="#m6698d36c20" x="83.3625" y="40.565458" style="fill: #1f77b4; fill-opacity: 0.5; stroke: #1f77b4; stroke-opacity: 0.5"/>
     <use xlink:href="#m6698d36c20" x="49.2975" y="41.366963" style="fill: #1f77b4; fill-opacity: 0.5; stroke: #1f77b4; stroke-opacity: 0.5"/>
     <use xlink:href="#m6698d36c20" x="49.2975" y="87.562845" style="fill: #1f77b4; fill-opacity: 0.5; stroke: #1f77b4; stroke-opacity: 0.5"/>
     <use xlink:href="#m6698d36c20" x="49.2975" y="90.564346" style="fill: #1f77b4; fill-opacity: 0.5; stroke: #1f77b4; stroke-opacity: 0.5"/>
     <use xlink:href="#m6698d36c20" x="49.2975" y="108.157639" style="fill: #1f77b4; fill-opacity: 0.5; stroke: #1f77b4; stroke-opacity: 0.5"/>
     <use xlink:href="#m6698d36c20" x="49.2975" y="117.954557" style="fill: #1f77b4; fill-opacity: 0.5; stroke: #1f77b4; stroke-opacity: 0.5"/>
     <use xlink:href="#m6698d36c20" x="72.0075" y="119.637588" style="fill: #1f77b4; fill-opacity: 0.5; stroke: #1f77b4; stroke-opacity: 0.5"/>
     <use xlink:href="#m6698d36c20" x="49.2975" y="110.003046" style="fill: #1f77b4; fill-opacity: 0.5; stroke: #1f77b4; stroke-opacity: 0.5"/>
     <use xlink:href="#m6698d36c20" x="94.7175" y="117.155124" style="fill: #1f77b4; fill-opacity: 0.5; stroke: #1f77b4; stroke-opacity: 0.5"/>
     <use xlink:href="#m6698d36c20" x="106.0725" y="128.812423" style="fill: #1f77b4; fill-opacity: 0.5; stroke: #1f77b4; stroke-opacity: 0.5"/>
     <use xlink:href="#m6698d36c20" x="106.0725" y="107.613233" style="fill: #1f77b4; fill-opacity: 0.5; stroke: #1f77b4; stroke-opacity: 0.5"/>
     <use xlink:href="#m6698d36c20" x="94.7175" y="81.342705" style="fill: #1f77b4; fill-opacity: 0.5; stroke: #1f77b4; stroke-opacity: 0.5"/>
     <use xlink:href="#m6698d36c20" x="72.0075" y="79.120475" style="fill: #1f77b4; fill-opacity: 0.5; stroke: #1f77b4; stroke-opacity: 0.5"/>
     <use xlink:href="#m6698d36c20" x="83.3625" y="61.310735" style="fill: #1f77b4; fill-opacity: 0.5; stroke: #1f77b4; stroke-opacity: 0.5"/>
     <use xlink:href="#m6698d36c20" x="94.7175" y="89.331782" style="fill: #1f77b4; fill-opacity: 0.5; stroke: #1f77b4; stroke-opacity: 0.5"/>
     <use xlink:href="#m6698d36c20" x="49.2975" y="128.47379" style="fill: #1f77b4; fill-opacity: 0.5; stroke: #1f77b4; stroke-opacity: 0.5"/>
     <use xlink:href="#m6698d36c20" x="83.3625" y="127.010172" style="fill: #1f77b4; fill-opacity: 0.5; stroke: #1f77b4; stroke-opacity: 0.5"/>
     <use xlink:href="#m6698d36c20" x="72.0075" y="119.430928" style="fill: #1f77b4; fill-opacity: 0.5; stroke: #1f77b4; stroke-opacity: 0.5"/>
     <use xlink:href="#m6698d36c20" x="49.2975" y="39.102336" style="fill: #1f77b4; fill-opacity: 0.5; stroke: #1f77b4; stroke-opacity: 0.5"/>
     <use xlink:href="#m6698d36c20" x="94.7175" y="31.995739" style="fill: #1f77b4; fill-opacity: 0.5; stroke: #1f77b4; stroke-opacity: 0.5"/>
     <use xlink:href="#m6698d36c20" x="72.0075" y="29.116338" style="fill: #1f77b4; fill-opacity: 0.5; stroke: #1f77b4; stroke-opacity: 0.5"/>
    </g>
   </g>
   <g id="FillBetweenPolyCollection_1">
    <defs>
     <path id="m1001fa3d84" d="M 49.2975 -101.368092 
L 49.2975 -86.229437 
L 50.44447 -86.13421 
L 51.591439 -85.999953 
L 52.738409 -85.893773 
L 53.885379 -85.74104 
L 55.032348 -85.597902 
L 56.179318 -85.501155 
L 57.326288 -85.397191 
L 58.473258 -85.18119 
L 59.620227 -85.022654 
L 60.767197 -84.964942 
L 61.914167 -84.718588 
L 63.061136 -84.533796 
L 64.208106 -84.344798 
L 65.355076 -84.21084 
L 66.502045 -84.066139 
L 67.649015 -83.738216 
L 68.795985 -83.433063 
L 69.942955 -83.235298 
L 71.089924 -83.022908 
L 72.236894 -82.660683 
L 73.383864 -82.455243 
L 74.530833 -82.188293 
L 75.677803 -81.933003 
L 76.824773 -81.620731 
L 77.971742 -81.43716 
L 79.118712 -81.123974 
L 80.265682 -80.811231 
L 81.412652 -80.66991 
L 82.559621 -80.374418 
L 83.706591 -80.119087 
L 84.853561 -79.825677 
L 86.00053 -79.417345 
L 87.1475 -79.011098 
L 88.29447 -78.626727 
L 89.441439 -78.23109 
L 90.588409 -77.820613 
L 91.735379 -77.503309 
L 92.882348 -77.067538 
L 94.029318 -76.704419 
L 95.176288 -76.439189 
L 96.323258 -76.060303 
L 97.470227 -75.715826 
L 98.617197 -75.285598 
L 99.764167 -74.893414 
L 100.911136 -74.543199 
L 102.058106 -74.049797 
L 103.205076 -73.553472 
L 104.352045 -73.118821 
L 105.499015 -72.685887 
L 106.645985 -72.253956 
L 107.792955 -71.823312 
L 108.939924 -71.392989 
L 110.086894 -71.043421 
L 111.233864 -70.550316 
L 112.380833 -70.13074 
L 113.527803 -69.666029 
L 114.674773 -69.24325 
L 115.821742 -68.879444 
L 116.968712 -68.433519 
L 118.115682 -67.949297 
L 119.262652 -67.469917 
L 120.409621 -66.980161 
L 121.556591 -66.515246 
L 122.703561 -66.029686 
L 123.85053 -65.552139 
L 124.9975 -65.171938 
L 126.14447 -64.791737 
L 127.291439 -64.411536 
L 128.438409 -64.028926 
L 129.585379 -63.59554 
L 130.732348 -63.165323 
L 131.879318 -62.705878 
L 133.026288 -62.234621 
L 134.173258 -61.8008 
L 135.320227 -61.335225 
L 136.467197 -60.828724 
L 137.614167 -60.321413 
L 138.761136 -59.81316 
L 139.908106 -59.304908 
L 141.055076 -58.798524 
L 142.202045 -58.365654 
L 143.349015 -57.960088 
L 144.495985 -57.484548 
L 145.642955 -57.009007 
L 146.789924 -56.533467 
L 147.936894 -56.057926 
L 149.083864 -55.582386 
L 150.230833 -55.107537 
L 151.377803 -54.633041 
L 152.524773 -54.158545 
L 153.671742 -53.684049 
L 154.818712 -53.209553 
L 155.965682 -52.735057 
L 157.112652 -52.260561 
L 158.259621 -51.786065 
L 159.406591 -51.311569 
L 160.553561 -50.837073 
L 161.70053 -50.362577 
L 162.8475 -49.885487 
L 162.8475 -84.210073 
L 162.8475 -84.210073 
L 161.70053 -84.338647 
L 160.553561 -84.467222 
L 159.406591 -84.525997 
L 158.259621 -84.577838 
L 157.112652 -84.62847 
L 155.965682 -84.679101 
L 154.818712 -84.729732 
L 153.671742 -84.780022 
L 152.524773 -84.846646 
L 151.377803 -84.923414 
L 150.230833 -85.000346 
L 149.083864 -85.080235 
L 147.936894 -85.157949 
L 146.789924 -85.236071 
L 145.642955 -85.315745 
L 144.495985 -85.395094 
L 143.349015 -85.473266 
L 142.202045 -85.555877 
L 141.055076 -85.663712 
L 139.908106 -85.742159 
L 138.761136 -85.826404 
L 137.614167 -85.887693 
L 136.467197 -85.944959 
L 135.320227 -86.024209 
L 134.173258 -86.103459 
L 133.026288 -86.182709 
L 131.879318 -86.261959 
L 130.732348 -86.341209 
L 129.585379 -86.420459 
L 128.438409 -86.49949 
L 127.291439 -86.618083 
L 126.14447 -86.764126 
L 124.9975 -86.817245 
L 123.85053 -86.847184 
L 122.703561 -86.944159 
L 121.556591 -87.040078 
L 120.409621 -87.133501 
L 119.262652 -87.226924 
L 118.115682 -87.320348 
L 116.968712 -87.350536 
L 115.821742 -87.360212 
L 114.674773 -87.497139 
L 113.527803 -87.702331 
L 112.380833 -87.800538 
L 111.233864 -87.894016 
L 110.086894 -87.922673 
L 108.939924 -87.934629 
L 107.792955 -88.057105 
L 106.645985 -88.112075 
L 105.499015 -88.24468 
L 104.352045 -88.313418 
L 103.205076 -88.497535 
L 102.058106 -88.65897 
L 100.911136 -88.74089 
L 99.764167 -88.78642 
L 98.617197 -88.890992 
L 97.470227 -89.042199 
L 96.323258 -89.140632 
L 95.176288 -89.324546 
L 94.029318 -89.486904 
L 92.882348 -89.661381 
L 91.735379 -89.801185 
L 90.588409 -89.913323 
L 89.441439 -90.037861 
L 88.29447 -90.161741 
L 87.1475 -90.283965 
L 86.00053 -90.575937 
L 84.853561 -90.881584 
L 83.706591 -91.062975 
L 82.559621 -91.104306 
L 81.412652 -91.332947 
L 80.265682 -91.517966 
L 79.118712 -91.803466 
L 77.971742 -92.160406 
L 76.824773 -92.363319 
L 75.677803 -92.634082 
L 74.530833 -92.922475 
L 73.383864 -93.213359 
L 72.236894 -93.46873 
L 71.089924 -93.783436 
L 69.942955 -94.093257 
L 68.795985 -94.386379 
L 67.649015 -94.788089 
L 66.502045 -95.121058 
L 65.355076 -95.487664 
L 64.208106 -95.867009 
L 63.061136 -96.417951 
L 61.914167 -96.685623 
L 60.767197 -97.146941 
L 59.620227 -97.616159 
L 58.473258 -98.053584 
L 57.326288 -98.572191 
L 56.179318 -98.986804 
L 55.032348 -99.488912 
L 53.885379 -99.855182 
L 52.738409 -100.261393 
L 51.591439 -100.630439 
L 50.44447 -100.999266 
L 49.2975 -101.368092 
z
" style="stroke: #ffffff; stroke-opacity: 0.15; stroke-width: 0.8"/>
    </defs>
    <g clip-path="url(#p20a5ca2116)">
     <use xlink:href="#m1001fa3d84" x="0" y="180" style="fill: #1f77b4; fill-opacity: 0.15; stroke: #ffffff; stroke-opacity: 0.15; stroke-width: 0.8"/>
    </g>
   </g>
   <g id="line2d_15">
    <path d="M 49.2975 86.642396 
L 50.44447 86.900118 
L 51.591439 87.157841 
L 52.738409 87.415563 
L 53.885379 87.673286 
L 55.032348 87.931008 
L 56.179318 88.188731 
L 57.326288 88.446453 
L 58.473258 88.704175 
L 59.620227 88.961898 
L 60.767197 89.21962 
L 61.914167 89.477343 
L 63.061136 89.735065 
L 64.208106 89.992788 
L 65.355076 90.25051 
L 66.502045 90.508233 
L 67.649015 90.765955 
L 68.795985 91.023678 
L 69.942955 91.2814 
L 71.089924 91.539123 
L 72.236894 91.796845 
L 73.383864 92.054568 
L 74.530833 92.31229 
L 75.677803 92.570013 
L 76.824773 92.827735 
L 77.971742 93.085457 
L 79.118712 93.34318 
L 80.265682 93.600902 
L 81.412652 93.858625 
L 82.559621 94.116347 
L 83.706591 94.37407 
L 84.853561 94.631792 
L 86.00053 94.889515 
L 87.1475 95.147237 
L 88.29447 95.40496 
L 89.441439 95.662682 
L 90.588409 95.920405 
L 91.735379 96.178127 
L 92.882348 96.43585 
L 94.029318 96.693572 
L 95.176288 96.951295 
L 96.323258 97.209017 
L 97.470227 97.466739 
L 98.617197 97.724462 
L 99.764167 97.982184 
L 100.911136 98.239907 
L 102.058106 98.497629 
L 103.205076 98.755352 
L 104.352045 99.013074 
L 105.499015 99.270797 
L 106.645985 99.528519 
L 107.792955 99.786242 
L 108.939924 100.043964 
L 110.086894 100.301687 
L 111.233864 100.559409 
L 112.380833 100.817132 
L 113.527803 101.074854 
L 114.674773 101.332577 
L 115.821742 101.590299 
L 116.968712 101.848021 
L 118.115682 102.105744 
L 119.262652 102.363466 
L 120.409621 102.621189 
L 121.556591 102.878911 
L 122.703561 103.136634 
L 123.85053 103.394356 
L 124.9975 103.652079 
L 126.14447 103.909801 
L 127.291439 104.167524 
L 128.438409 104.425246 
L 129.585379 104.682969 
L 130.732348 104.940691 
L 131.879318 105.198414 
L 133.026288 105.456136 
L 134.173258 105.713859 
L 135.320227 105.971581 
L 136.467197 106.229303 
L 137.614167 106.487026 
L 138.761136 106.744748 
L 139.908106 107.002471 
L 141.055076 107.260193 
L 142.202045 107.517916 
L 143.349015 107.775638 
L 144.495985 108.033361 
L 145.642955 108.291083 
L 146.789924 108.548806 
L 147.936894 108.806528 
L 149.083864 109.064251 
L 150.230833 109.321973 
L 151.377803 109.579696 
L 152.524773 109.837418 
L 153.671742 110.095141 
L 154.818712 110.352863 
L 155.965682 110.610585 
L 157.112652 110.868308 
L 158.259621 111.12603 
L 159.406591 111.383753 
L 160.553561 111.641475 
L 161.70053 111.899198 
L 162.8475 112.15692 
" clip-path="url(#p20a5ca2116)" style="fill: none; stroke: #1f77b4; stroke-width: 1.8; stroke-linecap: round"/>
   </g>
   <g id="patch_3">
    <path d="M 43.62 138.18 
L 43.62 24 
" style="fill: none; stroke: #cccccc; stroke-linejoin: miter; stroke-linecap: square"/>
   </g>
   <g id="patch_4">
    <path d="M 168.525 138.18 
L 168.525 24 
" style="fill: none; stroke: #cccccc; stroke-linejoin: miter; stroke-linecap: square"/>
   </g>
   <g id="patch_5">
    <path d="M 43.62 138.18 
L 168.525 138.18 
" style="fill: none; stroke: #cccccc; stroke-linejoin: miter; stroke-linecap: square"/>
   </g>
   <g id="patch_6">
    <path d="M 43.62 24 
L 168.525 24 
" style="fill: none; stroke: #cccccc; stroke-linejoin: miter; stroke-linecap: square"/>
   </g>
   <g id="text_17">
    <!-- rho = -0.23 -->
    <g style="fill: #262626" transform="translate(118.563 36.882438) scale(0.1 -0.1)">
     <defs>
      <path id="Helvetica-68" d="M 413 4606 
L 975 4606 
L 975 2894 
Q 1175 3147 1334 3250 
Q 1606 3428 2013 3428 
Q 2741 3428 3000 2919 
Q 3141 2641 3141 2147 
L 3141 0 
L 2563 0 
L 2563 2109 
Q 2563 2478 2469 2650 
Q 2316 2925 1894 2925 
Q 1544 2925 1259 2684 
Q 975 2444 975 1775 
L 975 0 
L 413 0 
L 413 4606 
z
" transform="scale(0.015625)"/>
      <path id="Helvetica-6f" d="M 1741 363 
Q 2300 363 2508 786 
Q 2716 1209 2716 1728 
Q 2716 2197 2566 2491 
Q 2328 2953 1747 2953 
Q 1231 2953 997 2559 
Q 763 2166 763 1609 
Q 763 1075 997 719 
Q 1231 363 1741 363 
z
M 1763 3444 
Q 2409 3444 2856 3012 
Q 3303 2581 3303 1744 
Q 3303 934 2909 406 
Q 2516 -122 1688 -122 
Q 997 -122 590 345 
Q 184 813 184 1600 
Q 184 2444 612 2944 
Q 1041 3444 1763 3444 
z
M 1744 3428 
L 1744 3428 
z
" transform="scale(0.015625)"/>
      <path id="Helvetica-3d" d="M 3547 2569 
L 3547 2044 
L 288 2044 
L 288 2569 
L 3547 2569 
z
M 3547 1228 
L 3547 694 
L 288 694 
L 288 1228 
L 3547 1228 
z
" transform="scale(0.015625)"/>
      <path id="Helvetica-2d" d="M 266 2072 
L 1834 2072 
L 1834 1494 
L 266 1494 
L 266 2072 
z
" transform="scale(0.015625)"/>
      <path id="Helvetica-2e" d="M 547 681 
L 1200 681 
L 1200 0 
L 547 0 
L 547 681 
z
" transform="scale(0.015625)"/>
     </defs>
     <use xlink:href="#Helvetica-72"/>
     <use xlink:href="#Helvetica-68" transform="translate(33.300781 0)"/>
     <use xlink:href="#Helvetica-6f" transform="translate(88.916016 0)"/>
     <use xlink:href="#Helvetica-20" transform="translate(144.53125 0)"/>
     <use xlink:href="#Helvetica-3d" transform="translate(172.314453 0)"/>
     <use xlink:href="#Helvetica-20" transform="translate(230.712891 0)"/>
     <use xlink:href="#Helvetica-2d" transform="translate(258.496094 0)"/>
     <use xlink:href="#Helvetica-30" transform="translate(291.796875 0)"/>
     <use xlink:href="#Helvetica-2e" transform="translate(347.412109 0)"/>
     <use xlink:href="#Helvetica-32" transform="translate(375.195312 0)"/>
     <use xlink:href="#Helvetica-33" transform="translate(430.810547 0)"/>
    </g>
    <!-- p = 1.19e-02 -->
    <g style="fill: #262626" transform="translate(118.563 47.574938) scale(0.1 -0.1)">
     <use xlink:href="#Helvetica-70"/>
     <use xlink:href="#Helvetica-20" transform="translate(55.615234 0)"/>
     <use xlink:href="#Helvetica-3d" transform="translate(83.398438 0)"/>
     <use xlink:href="#Helvetica-20" transform="translate(141.796875 0)"/>
     <use xlink:href="#Helvetica-31" transform="translate(169.580078 0)"/>
     <use xlink:href="#Helvetica-2e" transform="translate(225.195312 0)"/>
     <use xlink:href="#Helvetica-31" transform="translate(252.978516 0)"/>
     <use xlink:href="#Helvetica-39" transform="translate(308.59375 0)"/>
     <use xlink:href="#Helvetica-65" transform="translate(364.208984 0)"/>
     <use xlink:href="#Helvetica-2d" transform="translate(419.824219 0)"/>
     <use xlink:href="#Helvetica-30" transform="translate(453.125 0)"/>
     <use xlink:href="#Helvetica-32" transform="translate(508.740234 0)"/>
    </g>
   </g>
   <g id="text_18">
    <!-- RF-AA (no templates) vs gpcr selectivity -->
    <g style="fill: #262626" transform="translate(17.163125 18) scale(0.1 -0.1)">
     <defs>
      <path id="Helvetica-46" d="M 547 4591 
L 3731 4591 
L 3731 4028 
L 1169 4028 
L 1169 2634 
L 3422 2634 
L 3422 2088 
L 1169 2088 
L 1169 0 
L 547 0 
L 547 4591 
z
" transform="scale(0.015625)"/>
      <path id="Helvetica-41" d="M 2844 1881 
L 2147 3909 
L 1406 1881 
L 2844 1881 
z
M 1822 4591 
L 2525 4591 
L 4191 0 
L 3509 0 
L 3044 1375 
L 1228 1375 
L 731 0 
L 94 0 
L 1822 4591 
z
" transform="scale(0.015625)"/>
      <path id="Helvetica-28" d="M 1894 4666 
Q 1403 3713 1256 3263 
Q 1034 2578 1034 1681 
Q 1034 775 1288 25 
Q 1444 -438 1903 -1306 
L 1525 -1306 
Q 1069 -594 959 -397 
Q 850 -200 722 138 
Q 547 600 478 1125 
Q 444 1397 444 1644 
Q 444 2569 734 3291 
Q 919 3750 1503 4666 
L 1894 4666 
z
" transform="scale(0.015625)"/>
      <path id="Helvetica-6d" d="M 413 3347 
L 969 3347 
L 969 2872 
Q 1169 3119 1331 3231 
Q 1609 3422 1963 3422 
Q 2363 3422 2606 3225 
Q 2744 3113 2856 2894 
Q 3044 3163 3297 3292 
Q 3550 3422 3866 3422 
Q 4541 3422 4784 2934 
Q 4916 2672 4916 2228 
L 4916 0 
L 4331 0 
L 4331 2325 
Q 4331 2659 4164 2784 
Q 3997 2909 3756 2909 
Q 3425 2909 3186 2687 
Q 2947 2466 2947 1947 
L 2947 0 
L 2375 0 
L 2375 2184 
Q 2375 2525 2294 2681 
Q 2166 2916 1816 2916 
Q 1497 2916 1236 2669 
Q 975 2422 975 1775 
L 975 0 
L 413 0 
L 413 3347 
z
" transform="scale(0.015625)"/>
      <path id="Helvetica-29" d="M 222 -1306 
Q 719 -338 863 106 
Q 1081 778 1081 1681 
Q 1081 2584 828 3334 
Q 672 3797 213 4666 
L 591 4666 
Q 1072 3897 1173 3717 
Q 1275 3538 1394 3222 
Q 1544 2831 1608 2450 
Q 1672 2069 1672 1716 
Q 1672 791 1378 66 
Q 1194 -400 613 -1306 
L 222 -1306 
z
" transform="scale(0.015625)"/>
     </defs>
     <use xlink:href="#Helvetica-52"/>
     <use xlink:href="#Helvetica-46" transform="translate(72.216797 0)"/>
     <use xlink:href="#Helvetica-2d" transform="translate(133.300781 0)"/>
     <use xlink:href="#Helvetica-41" transform="translate(166.601562 0)"/>
     <use xlink:href="#Helvetica-41" transform="translate(233.300781 0)"/>
     <use xlink:href="#Helvetica-20" transform="translate(300 0)"/>
     <use xlink:href="#Helvetica-28" transform="translate(327.783203 0)"/>
     <use xlink:href="#Helvetica-6e" transform="translate(361.083984 0)"/>
     <use xlink:href="#Helvetica-6f" transform="translate(416.699219 0)"/>
     <use xlink:href="#Helvetica-20" transform="translate(472.314453 0)"/>
     <use xlink:href="#Helvetica-74" transform="translate(500.097656 0)"/>
     <use xlink:href="#Helvetica-65" transform="translate(527.880859 0)"/>
     <use xlink:href="#Helvetica-6d" transform="translate(583.496094 0)"/>
     <use xlink:href="#Helvetica-70" transform="translate(666.796875 0)"/>
     <use xlink:href="#Helvetica-6c" transform="translate(722.412109 0)"/>
     <use xlink:href="#Helvetica-61" transform="translate(744.628906 0)"/>
     <use xlink:href="#Helvetica-74" transform="translate(800.244141 0)"/>
     <use xlink:href="#Helvetica-65" transform="translate(828.027344 0)"/>
     <use xlink:href="#Helvetica-73" transform="translate(883.642578 0)"/>
     <use xlink:href="#Helvetica-29" transform="translate(933.642578 0)"/>
     <use xlink:href="#Helvetica-20" transform="translate(966.943359 0)"/>
     <use xlink:href="#Helvetica-76" transform="translate(994.726562 0)"/>
     <use xlink:href="#Helvetica-73" transform="translate(1044.726562 0)"/>
     <use xlink:href="#Helvetica-20" transform="translate(1094.726562 0)"/>
     <use xlink:href="#Helvetica-67" transform="translate(1122.509766 0)"/>
     <use xlink:href="#Helvetica-70" transform="translate(1178.125 0)"/>
     <use xlink:href="#Helvetica-63" transform="translate(1233.740234 0)"/>
     <use xlink:href="#Helvetica-72" transform="translate(1283.740234 0)"/>
     <use xlink:href="#Helvetica-20" transform="translate(1317.041016 0)"/>
     <use xlink:href="#Helvetica-73" transform="translate(1344.824219 0)"/>
     <use xlink:href="#Helvetica-65" transform="translate(1394.824219 0)"/>
     <use xlink:href="#Helvetica-6c" transform="translate(1450.439453 0)"/>
     <use xlink:href="#Helvetica-65" transform="translate(1472.65625 0)"/>
     <use xlink:href="#Helvetica-63" transform="translate(1528.271484 0)"/>
     <use xlink:href="#Helvetica-74" transform="translate(1578.271484 0)"/>
     <use xlink:href="#Helvetica-69" transform="translate(1606.054688 0)"/>
     <use xlink:href="#Helvetica-76" transform="translate(1628.271484 0)"/>
     <use xlink:href="#Helvetica-69" transform="translate(1678.271484 0)"/>
     <use xlink:href="#Helvetica-74" transform="translate(1700.488281 0)"/>
     <use xlink:href="#Helvetica-79" transform="translate(1728.271484 0)"/>
    </g>
   </g>
  </g>
 </g>
 <defs>
  <clipPath id="p20a5ca2116">
   <rect x="43.62" y="24" width="124.905" height="114.18"/>
  </clipPath>
 </defs>
</svg>
