<?xml version="1.0" encoding="utf-8" standalone="no"?>
<!DOCTYPE svg PUBLIC "-//W3C//DTD SVG 1.1//EN"
  "http://www.w3.org/Graphics/SVG/1.1/DTD/svg11.dtd">
<svg xmlns:xlink="http://www.w3.org/1999/xlink" width="288pt" height="288pt" viewBox="0 0 288 288" xmlns="http://www.w3.org/2000/svg" version="1.1">
 <metadata>
  <rdf:RDF xmlns:dc="http://purl.org/dc/elements/1.1/" xmlns:cc="http://creativecommons.org/ns#" xmlns:rdf="http://www.w3.org/1999/02/22-rdf-syntax-ns#">
   <cc:Work>
    <dc:type rdf:resource="http://purl.org/dc/dcmitype/StillImage"/>
    <dc:date>2024-07-30T15:00:42.107522</dc:date>
    <dc:format>image/svg+xml</dc:format>
    <dc:creator>
     <cc:Agent>
      <dc:title>Matplotlib v3.8.3, https://matplotlib.org/</dc:title>
     </cc:Agent>
    </dc:creator>
   </cc:Work>
  </rdf:RDF>
 </metadata>
 <defs>
  <style type="text/css">*{stroke-linejoin: round; stroke-linecap: butt}</style>
 </defs>
 <g id="figure_1">
  <g id="patch_1">
   <path d="M 0 288 
L 288 288 
L 288 0 
L 0 0 
z
" style="fill: #ffffff"/>
  </g>
  <g id="axes_1">
   <g id="patch_2">
    <path d="M 30.58 263.12 
L 277.2 263.12 
L 277.2 31.92 
L 30.58 31.92 
z
" style="fill: #ffffff"/>
   </g>
   <g id="patch_3">
    <path d="M 30.58 263.12 
L 34.656364 263.12 
L 34.656364 246.929524 
L 30.58 246.929524 
z
" clip-path="url(#p293b7c127d)" style="fill: #d3d3d3; opacity: 0.5; stroke: #000000; stroke-width: 0.5; stroke-linejoin: miter"/>
   </g>
   <g id="patch_4">
    <path d="M 32.618182 263.12 
L 36.694545 263.12 
L 36.694545 227.500952 
L 32.618182 227.500952 
z
" clip-path="url(#p293b7c127d)" style="fill: #d3d3d3; opacity: 0.5; stroke: #000000; stroke-width: 0.5; stroke-linejoin: miter"/>
   </g>
   <g id="patch_5">
    <path d="M 34.656364 263.12 
L 38.732727 263.12 
L 38.732727 227.500952 
L 34.656364 227.500952 
z
" clip-path="url(#p293b7c127d)" style="fill: #d3d3d3; opacity: 0.5; stroke: #000000; stroke-width: 0.5; stroke-linejoin: miter"/>
   </g>
   <g id="patch_6">
    <path d="M 36.694545 263.12 
L 40.770909 263.12 
L 40.770909 227.500952 
L 36.694545 227.500952 
z
" clip-path="url(#p293b7c127d)" style="fill: #d3d3d3; opacity: 0.5; stroke: #000000; stroke-width: 0.5; stroke-linejoin: miter"/>
   </g>
   <g id="patch_7">
    <path d="M 38.732727 263.12 
L 42.809091 263.12 
L 42.809091 227.500952 
L 38.732727 227.500952 
z
" clip-path="url(#p293b7c127d)" style="fill: #d3d3d3; opacity: 0.5; stroke: #000000; stroke-width: 0.5; stroke-linejoin: miter"/>
   </g>
   <g id="patch_8">
    <path d="M 40.770909 263.12 
L 44.847273 263.12 
L 44.847273 211.310476 
L 40.770909 211.310476 
z
" clip-path="url(#p293b7c127d)" style="fill: #d3d3d3; opacity: 0.5; stroke: #000000; stroke-width: 0.5; stroke-linejoin: miter"/>
   </g>
   <g id="patch_9">
    <path d="M 42.809091 263.12 
L 46.885455 263.12 
L 46.885455 211.310476 
L 42.809091 211.310476 
z
" clip-path="url(#p293b7c127d)" style="fill: #d3d3d3; opacity: 0.5; stroke: #000000; stroke-width: 0.5; stroke-linejoin: miter"/>
   </g>
   <g id="patch_10">
    <path d="M 44.847273 263.12 
L 48.923636 263.12 
L 48.923636 211.310476 
L 44.847273 211.310476 
z
" clip-path="url(#p293b7c127d)" style="fill: #d3d3d3; opacity: 0.5; stroke: #000000; stroke-width: 0.5; stroke-linejoin: miter"/>
   </g>
   <g id="patch_11">
    <path d="M 46.885455 263.12 
L 50.961818 263.12 
L 50.961818 211.310476 
L 46.885455 211.310476 
z
" clip-path="url(#p293b7c127d)" style="fill: #d3d3d3; opacity: 0.5; stroke: #000000; stroke-width: 0.5; stroke-linejoin: miter"/>
   </g>
   <g id="patch_12">
    <path d="M 48.923636 263.12 
L 53 263.12 
L 53 211.310476 
L 48.923636 211.310476 
z
" clip-path="url(#p293b7c127d)" style="fill: #d3d3d3; opacity: 0.5; stroke: #000000; stroke-width: 0.5; stroke-linejoin: miter"/>
   </g>
   <g id="patch_13">
    <path d="M 50.961818 263.12 
L 55.038182 263.12 
L 55.038182 211.310476 
L 50.961818 211.310476 
z
" clip-path="url(#p293b7c127d)" style="fill: #d3d3d3; opacity: 0.5; stroke: #000000; stroke-width: 0.5; stroke-linejoin: miter"/>
   </g>
   <g id="patch_14">
    <path d="M 53 263.12 
L 57.076364 263.12 
L 57.076364 211.310476 
L 53 211.310476 
z
" clip-path="url(#p293b7c127d)" style="fill: #d3d3d3; opacity: 0.5; stroke: #000000; stroke-width: 0.5; stroke-linejoin: miter"/>
   </g>
   <g id="patch_15">
    <path d="M 55.038182 263.12 
L 59.114545 263.12 
L 59.114545 211.310476 
L 55.038182 211.310476 
z
" clip-path="url(#p293b7c127d)" style="fill: #d3d3d3; opacity: 0.5; stroke: #000000; stroke-width: 0.5; stroke-linejoin: miter"/>
   </g>
   <g id="patch_16">
    <path d="M 57.076364 263.12 
L 61.152727 263.12 
L 61.152727 211.310476 
L 57.076364 211.310476 
z
" clip-path="url(#p293b7c127d)" style="fill: #d3d3d3; opacity: 0.5; stroke: #000000; stroke-width: 0.5; stroke-linejoin: miter"/>
   </g>
   <g id="patch_17">
    <path d="M 59.114545 263.12 
L 63.190909 263.12 
L 63.190909 211.310476 
L 59.114545 211.310476 
z
" clip-path="url(#p293b7c127d)" style="fill: #d3d3d3; opacity: 0.5; stroke: #000000; stroke-width: 0.5; stroke-linejoin: miter"/>
   </g>
   <g id="patch_18">
    <path d="M 61.152727 263.12 
L 65.229091 263.12 
L 65.229091 211.310476 
L 61.152727 211.310476 
z
" clip-path="url(#p293b7c127d)" style="fill: #d3d3d3; opacity: 0.5; stroke: #000000; stroke-width: 0.5; stroke-linejoin: miter"/>
   </g>
   <g id="patch_19">
    <path d="M 63.190909 263.12 
L 67.267273 263.12 
L 67.267273 211.310476 
L 63.190909 211.310476 
z
" clip-path="url(#p293b7c127d)" style="fill: #d3d3d3; opacity: 0.5; stroke: #000000; stroke-width: 0.5; stroke-linejoin: miter"/>
   </g>
   <g id="patch_20">
    <path d="M 65.229091 263.12 
L 69.305455 263.12 
L 69.305455 211.310476 
L 65.229091 211.310476 
z
" clip-path="url(#p293b7c127d)" style="fill: #d3d3d3; opacity: 0.5; stroke: #000000; stroke-width: 0.5; stroke-linejoin: miter"/>
   </g>
   <g id="patch_21">
    <path d="M 67.267273 263.12 
L 71.343636 263.12 
L 71.343636 211.310476 
L 67.267273 211.310476 
z
" clip-path="url(#p293b7c127d)" style="fill: #d3d3d3; opacity: 0.5; stroke: #000000; stroke-width: 0.5; stroke-linejoin: miter"/>
   </g>
   <g id="patch_22">
    <path d="M 69.305455 263.12 
L 73.381818 263.12 
L 73.381818 211.310476 
L 69.305455 211.310476 
z
" clip-path="url(#p293b7c127d)" style="fill: #d3d3d3; opacity: 0.5; stroke: #000000; stroke-width: 0.5; stroke-linejoin: miter"/>
   </g>
   <g id="patch_23">
    <path d="M 71.343636 263.12 
L 75.42 263.12 
L 75.42 211.310476 
L 71.343636 211.310476 
z
" clip-path="url(#p293b7c127d)" style="fill: #d3d3d3; opacity: 0.5; stroke: #000000; stroke-width: 0.5; stroke-linejoin: miter"/>
   </g>
   <g id="patch_24">
    <path d="M 73.381818 263.12 
L 77.458182 263.12 
L 77.458182 211.310476 
L 73.381818 211.310476 
z
" clip-path="url(#p293b7c127d)" style="fill: #d3d3d3; opacity: 0.5; stroke: #000000; stroke-width: 0.5; stroke-linejoin: miter"/>
   </g>
   <g id="patch_25">
    <path d="M 75.42 263.12 
L 79.496364 263.12 
L 79.496364 211.310476 
L 75.42 211.310476 
z
" clip-path="url(#p293b7c127d)" style="fill: #d3d3d3; opacity: 0.5; stroke: #000000; stroke-width: 0.5; stroke-linejoin: miter"/>
   </g>
   <g id="patch_26">
    <path d="M 77.458182 263.12 
L 81.534545 263.12 
L 81.534545 211.310476 
L 77.458182 211.310476 
z
" clip-path="url(#p293b7c127d)" style="fill: #d3d3d3; opacity: 0.5; stroke: #000000; stroke-width: 0.5; stroke-linejoin: miter"/>
   </g>
   <g id="patch_27">
    <path d="M 79.496364 263.12 
L 83.572727 263.12 
L 83.572727 211.310476 
L 79.496364 211.310476 
z
" clip-path="url(#p293b7c127d)" style="fill: #d3d3d3; opacity: 0.5; stroke: #000000; stroke-width: 0.5; stroke-linejoin: miter"/>
   </g>
   <g id="patch_28">
    <path d="M 81.534545 263.12 
L 85.610909 263.12 
L 85.610909 211.310476 
L 81.534545 211.310476 
z
" clip-path="url(#p293b7c127d)" style="fill: #d3d3d3; opacity: 0.5; stroke: #000000; stroke-width: 0.5; stroke-linejoin: miter"/>
   </g>
   <g id="patch_29">
    <path d="M 83.572727 263.12 
L 87.649091 263.12 
L 87.649091 211.310476 
L 83.572727 211.310476 
z
" clip-path="url(#p293b7c127d)" style="fill: #d3d3d3; opacity: 0.5; stroke: #000000; stroke-width: 0.5; stroke-linejoin: miter"/>
   </g>
   <g id="patch_30">
    <path d="M 85.610909 263.12 
L 89.687273 263.12 
L 89.687273 211.310476 
L 85.610909 211.310476 
z
" clip-path="url(#p293b7c127d)" style="fill: #d3d3d3; opacity: 0.5; stroke: #000000; stroke-width: 0.5; stroke-linejoin: miter"/>
   </g>
   <g id="patch_31">
    <path d="M 87.649091 263.12 
L 91.725455 263.12 
L 91.725455 211.310476 
L 87.649091 211.310476 
z
" clip-path="url(#p293b7c127d)" style="fill: #d3d3d3; opacity: 0.5; stroke: #000000; stroke-width: 0.5; stroke-linejoin: miter"/>
   </g>
   <g id="patch_32">
    <path d="M 89.687273 263.12 
L 93.763636 263.12 
L 93.763636 195.12 
L 89.687273 195.12 
z
" clip-path="url(#p293b7c127d)" style="fill: #d3d3d3; opacity: 0.5; stroke: #000000; stroke-width: 0.5; stroke-linejoin: miter"/>
   </g>
   <g id="patch_33">
    <path d="M 91.725455 263.12 
L 95.801818 263.12 
L 95.801818 195.12 
L 91.725455 195.12 
z
" clip-path="url(#p293b7c127d)" style="fill: #d3d3d3; opacity: 0.5; stroke: #000000; stroke-width: 0.5; stroke-linejoin: miter"/>
   </g>
   <g id="patch_34">
    <path d="M 93.763636 263.12 
L 97.84 263.12 
L 97.84 195.12 
L 93.763636 195.12 
z
" clip-path="url(#p293b7c127d)" style="fill: #d3d3d3; opacity: 0.5; stroke: #000000; stroke-width: 0.5; stroke-linejoin: miter"/>
   </g>
   <g id="patch_35">
    <path d="M 95.801818 263.12 
L 99.878182 263.12 
L 99.878182 195.12 
L 95.801818 195.12 
z
" clip-path="url(#p293b7c127d)" style="fill: #d3d3d3; opacity: 0.5; stroke: #000000; stroke-width: 0.5; stroke-linejoin: miter"/>
   </g>
   <g id="patch_36">
    <path d="M 97.84 263.12 
L 101.916364 263.12 
L 101.916364 195.12 
L 97.84 195.12 
z
" clip-path="url(#p293b7c127d)" style="fill: #d3d3d3; opacity: 0.5; stroke: #000000; stroke-width: 0.5; stroke-linejoin: miter"/>
   </g>
   <g id="patch_37">
    <path d="M 99.878182 263.12 
L 103.954545 263.12 
L 103.954545 195.12 
L 99.878182 195.12 
z
" clip-path="url(#p293b7c127d)" style="fill: #d3d3d3; opacity: 0.5; stroke: #000000; stroke-width: 0.5; stroke-linejoin: miter"/>
   </g>
   <g id="patch_38">
    <path d="M 101.916364 263.12 
L 105.992727 263.12 
L 105.992727 195.12 
L 101.916364 195.12 
z
" clip-path="url(#p293b7c127d)" style="fill: #d3d3d3; opacity: 0.5; stroke: #000000; stroke-width: 0.5; stroke-linejoin: miter"/>
   </g>
   <g id="patch_39">
    <path d="M 103.954545 263.12 
L 108.030909 263.12 
L 108.030909 195.12 
L 103.954545 195.12 
z
" clip-path="url(#p293b7c127d)" style="fill: #d3d3d3; opacity: 0.5; stroke: #000000; stroke-width: 0.5; stroke-linejoin: miter"/>
   </g>
   <g id="patch_40">
    <path d="M 105.992727 263.12 
L 110.069091 263.12 
L 110.069091 195.12 
L 105.992727 195.12 
z
" clip-path="url(#p293b7c127d)" style="fill: #d3d3d3; opacity: 0.5; stroke: #000000; stroke-width: 0.5; stroke-linejoin: miter"/>
   </g>
   <g id="patch_41">
    <path d="M 108.030909 263.12 
L 112.107273 263.12 
L 112.107273 195.12 
L 108.030909 195.12 
z
" clip-path="url(#p293b7c127d)" style="fill: #d3d3d3; opacity: 0.5; stroke: #000000; stroke-width: 0.5; stroke-linejoin: miter"/>
   </g>
   <g id="patch_42">
    <path d="M 110.069091 263.12 
L 114.145455 263.12 
L 114.145455 195.12 
L 110.069091 195.12 
z
" clip-path="url(#p293b7c127d)" style="fill: #d3d3d3; opacity: 0.5; stroke: #000000; stroke-width: 0.5; stroke-linejoin: miter"/>
   </g>
   <g id="patch_43">
    <path d="M 112.107273 263.12 
L 116.183636 263.12 
L 116.183636 195.12 
L 112.107273 195.12 
z
" clip-path="url(#p293b7c127d)" style="fill: #d3d3d3; opacity: 0.5; stroke: #000000; stroke-width: 0.5; stroke-linejoin: miter"/>
   </g>
   <g id="patch_44">
    <path d="M 114.145455 263.12 
L 118.221818 263.12 
L 118.221818 195.12 
L 114.145455 195.12 
z
" clip-path="url(#p293b7c127d)" style="fill: #d3d3d3; opacity: 0.5; stroke: #000000; stroke-width: 0.5; stroke-linejoin: miter"/>
   </g>
   <g id="patch_45">
    <path d="M 116.183636 263.12 
L 120.26 263.12 
L 120.26 195.12 
L 116.183636 195.12 
z
" clip-path="url(#p293b7c127d)" style="fill: #d3d3d3; opacity: 0.5; stroke: #000000; stroke-width: 0.5; stroke-linejoin: miter"/>
   </g>
   <g id="patch_46">
    <path d="M 118.221818 263.12 
L 122.298182 263.12 
L 122.298182 195.12 
L 118.221818 195.12 
z
" clip-path="url(#p293b7c127d)" style="fill: #d3d3d3; opacity: 0.5; stroke: #000000; stroke-width: 0.5; stroke-linejoin: miter"/>
   </g>
   <g id="patch_47">
    <path d="M 120.26 263.12 
L 124.336364 263.12 
L 124.336364 195.12 
L 120.26 195.12 
z
" clip-path="url(#p293b7c127d)" style="fill: #d3d3d3; opacity: 0.5; stroke: #000000; stroke-width: 0.5; stroke-linejoin: miter"/>
   </g>
   <g id="patch_48">
    <path d="M 122.298182 263.12 
L 126.374545 263.12 
L 126.374545 195.12 
L 122.298182 195.12 
z
" clip-path="url(#p293b7c127d)" style="fill: #d3d3d3; opacity: 0.5; stroke: #000000; stroke-width: 0.5; stroke-linejoin: miter"/>
   </g>
   <g id="patch_49">
    <path d="M 124.336364 263.12 
L 128.412727 263.12 
L 128.412727 195.12 
L 124.336364 195.12 
z
" clip-path="url(#p293b7c127d)" style="fill: #d3d3d3; opacity: 0.5; stroke: #000000; stroke-width: 0.5; stroke-linejoin: miter"/>
   </g>
   <g id="patch_50">
    <path d="M 126.374545 263.12 
L 130.450909 263.12 
L 130.450909 178.929524 
L 126.374545 178.929524 
z
" clip-path="url(#p293b7c127d)" style="fill: #d3d3d3; opacity: 0.5; stroke: #000000; stroke-width: 0.5; stroke-linejoin: miter"/>
   </g>
   <g id="patch_51">
    <path d="M 128.412727 263.12 
L 132.489091 263.12 
L 132.489091 178.929524 
L 128.412727 178.929524 
z
" clip-path="url(#p293b7c127d)" style="fill: #d3d3d3; opacity: 0.5; stroke: #000000; stroke-width: 0.5; stroke-linejoin: miter"/>
   </g>
   <g id="patch_52">
    <path d="M 130.450909 263.12 
L 134.527273 263.12 
L 134.527273 178.929524 
L 130.450909 178.929524 
z
" clip-path="url(#p293b7c127d)" style="fill: #d3d3d3; opacity: 0.5; stroke: #000000; stroke-width: 0.5; stroke-linejoin: miter"/>
   </g>
   <g id="patch_53">
    <path d="M 132.489091 263.12 
L 136.565455 263.12 
L 136.565455 178.929524 
L 132.489091 178.929524 
z
" clip-path="url(#p293b7c127d)" style="fill: #d3d3d3; opacity: 0.5; stroke: #000000; stroke-width: 0.5; stroke-linejoin: miter"/>
   </g>
   <g id="patch_54">
    <path d="M 134.527273 263.12 
L 138.603636 263.12 
L 138.603636 178.929524 
L 134.527273 178.929524 
z
" clip-path="url(#p293b7c127d)" style="fill: #d3d3d3; opacity: 0.5; stroke: #000000; stroke-width: 0.5; stroke-linejoin: miter"/>
   </g>
   <g id="patch_55">
    <path d="M 136.565455 263.12 
L 140.641818 263.12 
L 140.641818 178.929524 
L 136.565455 178.929524 
z
" clip-path="url(#p293b7c127d)" style="fill: #d3d3d3; opacity: 0.5; stroke: #000000; stroke-width: 0.5; stroke-linejoin: miter"/>
   </g>
   <g id="patch_56">
    <path d="M 138.603636 263.12 
L 142.68 263.12 
L 142.68 178.929524 
L 138.603636 178.929524 
z
" clip-path="url(#p293b7c127d)" style="fill: #d3d3d3; opacity: 0.5; stroke: #000000; stroke-width: 0.5; stroke-linejoin: miter"/>
   </g>
   <g id="patch_57">
    <path d="M 140.641818 263.12 
L 144.718182 263.12 
L 144.718182 178.929524 
L 140.641818 178.929524 
z
" clip-path="url(#p293b7c127d)" style="fill: #d3d3d3; opacity: 0.5; stroke: #000000; stroke-width: 0.5; stroke-linejoin: miter"/>
   </g>
   <g id="patch_58">
    <path d="M 142.68 263.12 
L 146.756364 263.12 
L 146.756364 178.929524 
L 142.68 178.929524 
z
" clip-path="url(#p293b7c127d)" style="fill: #d3d3d3; opacity: 0.5; stroke: #000000; stroke-width: 0.5; stroke-linejoin: miter"/>
   </g>
   <g id="patch_59">
    <path d="M 144.718182 263.12 
L 148.794545 263.12 
L 148.794545 178.929524 
L 144.718182 178.929524 
z
" clip-path="url(#p293b7c127d)" style="fill: #d3d3d3; opacity: 0.5; stroke: #000000; stroke-width: 0.5; stroke-linejoin: miter"/>
   </g>
   <g id="patch_60">
    <path d="M 146.756364 263.12 
L 150.832727 263.12 
L 150.832727 178.929524 
L 146.756364 178.929524 
z
" clip-path="url(#p293b7c127d)" style="fill: #d3d3d3; opacity: 0.5; stroke: #000000; stroke-width: 0.5; stroke-linejoin: miter"/>
   </g>
   <g id="patch_61">
    <path d="M 148.794545 263.12 
L 152.870909 263.12 
L 152.870909 178.929524 
L 148.794545 178.929524 
z
" clip-path="url(#p293b7c127d)" style="fill: #d3d3d3; opacity: 0.5; stroke: #000000; stroke-width: 0.5; stroke-linejoin: miter"/>
   </g>
   <g id="patch_62">
    <path d="M 150.832727 263.12 
L 154.909091 263.12 
L 154.909091 178.929524 
L 150.832727 178.929524 
z
" clip-path="url(#p293b7c127d)" style="fill: #d3d3d3; opacity: 0.5; stroke: #000000; stroke-width: 0.5; stroke-linejoin: miter"/>
   </g>
   <g id="patch_63">
    <path d="M 152.870909 263.12 
L 156.947273 263.12 
L 156.947273 178.929524 
L 152.870909 178.929524 
z
" clip-path="url(#p293b7c127d)" style="fill: #d3d3d3; opacity: 0.5; stroke: #000000; stroke-width: 0.5; stroke-linejoin: miter"/>
   </g>
   <g id="patch_64">
    <path d="M 154.909091 263.12 
L 158.985455 263.12 
L 158.985455 178.929524 
L 154.909091 178.929524 
z
" clip-path="url(#p293b7c127d)" style="fill: #d3d3d3; opacity: 0.5; stroke: #000000; stroke-width: 0.5; stroke-linejoin: miter"/>
   </g>
   <g id="patch_65">
    <path d="M 156.947273 263.12 
L 161.023636 263.12 
L 161.023636 178.929524 
L 156.947273 178.929524 
z
" clip-path="url(#p293b7c127d)" style="fill: #d3d3d3; opacity: 0.5; stroke: #000000; stroke-width: 0.5; stroke-linejoin: miter"/>
   </g>
   <g id="patch_66">
    <path d="M 158.985455 263.12 
L 163.061818 263.12 
L 163.061818 178.929524 
L 158.985455 178.929524 
z
" clip-path="url(#p293b7c127d)" style="fill: #d3d3d3; opacity: 0.5; stroke: #000000; stroke-width: 0.5; stroke-linejoin: miter"/>
   </g>
   <g id="patch_67">
    <path d="M 161.023636 263.12 
L 165.1 263.12 
L 165.1 178.929524 
L 161.023636 178.929524 
z
" clip-path="url(#p293b7c127d)" style="fill: #d3d3d3; opacity: 0.5; stroke: #000000; stroke-width: 0.5; stroke-linejoin: miter"/>
   </g>
   <g id="patch_68">
    <path d="M 163.061818 263.12 
L 167.138182 263.12 
L 167.138182 178.929524 
L 163.061818 178.929524 
z
" clip-path="url(#p293b7c127d)" style="fill: #d3d3d3; opacity: 0.5; stroke: #000000; stroke-width: 0.5; stroke-linejoin: miter"/>
   </g>
   <g id="patch_69">
    <path d="M 165.1 263.12 
L 169.176364 263.12 
L 169.176364 178.929524 
L 165.1 178.929524 
z
" clip-path="url(#p293b7c127d)" style="fill: #d3d3d3; opacity: 0.5; stroke: #000000; stroke-width: 0.5; stroke-linejoin: miter"/>
   </g>
   <g id="patch_70">
    <path d="M 167.138182 263.12 
L 171.214545 263.12 
L 171.214545 178.929524 
L 167.138182 178.929524 
z
" clip-path="url(#p293b7c127d)" style="fill: #d3d3d3; opacity: 0.5; stroke: #000000; stroke-width: 0.5; stroke-linejoin: miter"/>
   </g>
   <g id="patch_71">
    <path d="M 169.176364 263.12 
L 173.252727 263.12 
L 173.252727 178.929524 
L 169.176364 178.929524 
z
" clip-path="url(#p293b7c127d)" style="fill: #d3d3d3; opacity: 0.5; stroke: #000000; stroke-width: 0.5; stroke-linejoin: miter"/>
   </g>
   <g id="patch_72">
    <path d="M 171.214545 263.12 
L 175.290909 263.12 
L 175.290909 178.929524 
L 171.214545 178.929524 
z
" clip-path="url(#p293b7c127d)" style="fill: #d3d3d3; opacity: 0.5; stroke: #000000; stroke-width: 0.5; stroke-linejoin: miter"/>
   </g>
   <g id="patch_73">
    <path d="M 173.252727 263.12 
L 177.329091 263.12 
L 177.329091 178.929524 
L 173.252727 178.929524 
z
" clip-path="url(#p293b7c127d)" style="fill: #d3d3d3; opacity: 0.5; stroke: #000000; stroke-width: 0.5; stroke-linejoin: miter"/>
   </g>
   <g id="patch_74">
    <path d="M 175.290909 263.12 
L 179.367273 263.12 
L 179.367273 178.929524 
L 175.290909 178.929524 
z
" clip-path="url(#p293b7c127d)" style="fill: #d3d3d3; opacity: 0.5; stroke: #000000; stroke-width: 0.5; stroke-linejoin: miter"/>
   </g>
   <g id="patch_75">
    <path d="M 177.329091 263.12 
L 181.405455 263.12 
L 181.405455 178.929524 
L 177.329091 178.929524 
z
" clip-path="url(#p293b7c127d)" style="fill: #d3d3d3; opacity: 0.5; stroke: #000000; stroke-width: 0.5; stroke-linejoin: miter"/>
   </g>
   <g id="patch_76">
    <path d="M 179.367273 263.12 
L 183.443636 263.12 
L 183.443636 178.929524 
L 179.367273 178.929524 
z
" clip-path="url(#p293b7c127d)" style="fill: #d3d3d3; opacity: 0.5; stroke: #000000; stroke-width: 0.5; stroke-linejoin: miter"/>
   </g>
   <g id="patch_77">
    <path d="M 181.405455 263.12 
L 185.481818 263.12 
L 185.481818 178.929524 
L 181.405455 178.929524 
z
" clip-path="url(#p293b7c127d)" style="fill: #d3d3d3; opacity: 0.5; stroke: #000000; stroke-width: 0.5; stroke-linejoin: miter"/>
   </g>
   <g id="patch_78">
    <path d="M 183.443636 263.12 
L 187.52 263.12 
L 187.52 178.929524 
L 183.443636 178.929524 
z
" clip-path="url(#p293b7c127d)" style="fill: #d3d3d3; opacity: 0.5; stroke: #000000; stroke-width: 0.5; stroke-linejoin: miter"/>
   </g>
   <g id="patch_79">
    <path d="M 185.481818 263.12 
L 189.558182 263.12 
L 189.558182 159.500952 
L 185.481818 159.500952 
z
" clip-path="url(#p293b7c127d)" style="fill: #d3d3d3; opacity: 0.5; stroke: #000000; stroke-width: 0.5; stroke-linejoin: miter"/>
   </g>
   <g id="patch_80">
    <path d="M 187.52 263.12 
L 191.596364 263.12 
L 191.596364 159.500952 
L 187.52 159.500952 
z
" clip-path="url(#p293b7c127d)" style="fill: #d3d3d3; opacity: 0.5; stroke: #000000; stroke-width: 0.5; stroke-linejoin: miter"/>
   </g>
   <g id="patch_81">
    <path d="M 189.558182 263.12 
L 193.634545 263.12 
L 193.634545 159.500952 
L 189.558182 159.500952 
z
" clip-path="url(#p293b7c127d)" style="fill: #d3d3d3; opacity: 0.5; stroke: #000000; stroke-width: 0.5; stroke-linejoin: miter"/>
   </g>
   <g id="patch_82">
    <path d="M 191.596364 263.12 
L 195.672727 263.12 
L 195.672727 159.500952 
L 191.596364 159.500952 
z
" clip-path="url(#p293b7c127d)" style="fill: #d3d3d3; opacity: 0.5; stroke: #000000; stroke-width: 0.5; stroke-linejoin: miter"/>
   </g>
   <g id="patch_83">
    <path d="M 193.634545 263.12 
L 197.710909 263.12 
L 197.710909 159.500952 
L 193.634545 159.500952 
z
" clip-path="url(#p293b7c127d)" style="fill: #d3d3d3; opacity: 0.5; stroke: #000000; stroke-width: 0.5; stroke-linejoin: miter"/>
   </g>
   <g id="patch_84">
    <path d="M 195.672727 263.12 
L 199.749091 263.12 
L 199.749091 159.500952 
L 195.672727 159.500952 
z
" clip-path="url(#p293b7c127d)" style="fill: #d3d3d3; opacity: 0.5; stroke: #000000; stroke-width: 0.5; stroke-linejoin: miter"/>
   </g>
   <g id="patch_85">
    <path d="M 197.710909 263.12 
L 201.787273 263.12 
L 201.787273 159.500952 
L 197.710909 159.500952 
z
" clip-path="url(#p293b7c127d)" style="fill: #d3d3d3; opacity: 0.5; stroke: #000000; stroke-width: 0.5; stroke-linejoin: miter"/>
   </g>
   <g id="patch_86">
    <path d="M 199.749091 263.12 
L 203.825455 263.12 
L 203.825455 159.500952 
L 199.749091 159.500952 
z
" clip-path="url(#p293b7c127d)" style="fill: #d3d3d3; opacity: 0.5; stroke: #000000; stroke-width: 0.5; stroke-linejoin: miter"/>
   </g>
   <g id="patch_87">
    <path d="M 201.787273 263.12 
L 205.863636 263.12 
L 205.863636 159.500952 
L 201.787273 159.500952 
z
" clip-path="url(#p293b7c127d)" style="fill: #d3d3d3; opacity: 0.5; stroke: #000000; stroke-width: 0.5; stroke-linejoin: miter"/>
   </g>
   <g id="patch_88">
    <path d="M 203.825455 263.12 
L 207.901818 263.12 
L 207.901818 159.500952 
L 203.825455 159.500952 
z
" clip-path="url(#p293b7c127d)" style="fill: #d3d3d3; opacity: 0.5; stroke: #000000; stroke-width: 0.5; stroke-linejoin: miter"/>
   </g>
   <g id="patch_89">
    <path d="M 205.863636 263.12 
L 209.94 263.12 
L 209.94 159.500952 
L 205.863636 159.500952 
z
" clip-path="url(#p293b7c127d)" style="fill: #d3d3d3; opacity: 0.5; stroke: #000000; stroke-width: 0.5; stroke-linejoin: miter"/>
   </g>
   <g id="patch_90">
    <path d="M 207.901818 263.12 
L 211.978182 263.12 
L 211.978182 159.500952 
L 207.901818 159.500952 
z
" clip-path="url(#p293b7c127d)" style="fill: #d3d3d3; opacity: 0.5; stroke: #000000; stroke-width: 0.5; stroke-linejoin: miter"/>
   </g>
   <g id="patch_91">
    <path d="M 209.94 263.12 
L 214.016364 263.12 
L 214.016364 159.500952 
L 209.94 159.500952 
z
" clip-path="url(#p293b7c127d)" style="fill: #d3d3d3; opacity: 0.5; stroke: #000000; stroke-width: 0.5; stroke-linejoin: miter"/>
   </g>
   <g id="patch_92">
    <path d="M 211.978182 263.12 
L 216.054545 263.12 
L 216.054545 159.500952 
L 211.978182 159.500952 
z
" clip-path="url(#p293b7c127d)" style="fill: #d3d3d3; opacity: 0.5; stroke: #000000; stroke-width: 0.5; stroke-linejoin: miter"/>
   </g>
   <g id="patch_93">
    <path d="M 214.016364 263.12 
L 218.092727 263.12 
L 218.092727 159.500952 
L 214.016364 159.500952 
z
" clip-path="url(#p293b7c127d)" style="fill: #d3d3d3; opacity: 0.5; stroke: #000000; stroke-width: 0.5; stroke-linejoin: miter"/>
   </g>
   <g id="patch_94">
    <path d="M 216.054545 263.12 
L 220.130909 263.12 
L 220.130909 159.500952 
L 216.054545 159.500952 
z
" clip-path="url(#p293b7c127d)" style="fill: #d3d3d3; opacity: 0.5; stroke: #000000; stroke-width: 0.5; stroke-linejoin: miter"/>
   </g>
   <g id="patch_95">
    <path d="M 218.092727 263.12 
L 222.169091 263.12 
L 222.169091 159.500952 
L 218.092727 159.500952 
z
" clip-path="url(#p293b7c127d)" style="fill: #d3d3d3; opacity: 0.5; stroke: #000000; stroke-width: 0.5; stroke-linejoin: miter"/>
   </g>
   <g id="patch_96">
    <path d="M 220.130909 263.12 
L 224.207273 263.12 
L 224.207273 159.500952 
L 220.130909 159.500952 
z
" clip-path="url(#p293b7c127d)" style="fill: #d3d3d3; opacity: 0.5; stroke: #000000; stroke-width: 0.5; stroke-linejoin: miter"/>
   </g>
   <g id="patch_97">
    <path d="M 222.169091 263.12 
L 226.245455 263.12 
L 226.245455 143.310476 
L 222.169091 143.310476 
z
" clip-path="url(#p293b7c127d)" style="fill: #d3d3d3; opacity: 0.5; stroke: #000000; stroke-width: 0.5; stroke-linejoin: miter"/>
   </g>
   <g id="patch_98">
    <path d="M 224.207273 263.12 
L 228.283636 263.12 
L 228.283636 143.310476 
L 224.207273 143.310476 
z
" clip-path="url(#p293b7c127d)" style="fill: #d3d3d3; opacity: 0.5; stroke: #000000; stroke-width: 0.5; stroke-linejoin: miter"/>
   </g>
   <g id="patch_99">
    <path d="M 226.245455 263.12 
L 230.321818 263.12 
L 230.321818 143.310476 
L 226.245455 143.310476 
z
" clip-path="url(#p293b7c127d)" style="fill: #d3d3d3; opacity: 0.5; stroke: #000000; stroke-width: 0.5; stroke-linejoin: miter"/>
   </g>
   <g id="patch_100">
    <path d="M 228.283636 263.12 
L 232.36 263.12 
L 232.36 143.310476 
L 228.283636 143.310476 
z
" clip-path="url(#p293b7c127d)" style="fill: #d3d3d3; opacity: 0.5; stroke: #000000; stroke-width: 0.5; stroke-linejoin: miter"/>
   </g>
   <g id="patch_101">
    <path d="M 230.321818 263.12 
L 234.398182 263.12 
L 234.398182 143.310476 
L 230.321818 143.310476 
z
" clip-path="url(#p293b7c127d)" style="fill: #d3d3d3; opacity: 0.5; stroke: #000000; stroke-width: 0.5; stroke-linejoin: miter"/>
   </g>
   <g id="patch_102">
    <path d="M 232.36 263.12 
L 236.436364 263.12 
L 236.436364 143.310476 
L 232.36 143.310476 
z
" clip-path="url(#p293b7c127d)" style="fill: #d3d3d3; opacity: 0.5; stroke: #000000; stroke-width: 0.5; stroke-linejoin: miter"/>
   </g>
   <g id="patch_103">
    <path d="M 234.398182 263.12 
L 238.474545 263.12 
L 238.474545 143.310476 
L 234.398182 143.310476 
z
" clip-path="url(#p293b7c127d)" style="fill: #d3d3d3; opacity: 0.5; stroke: #000000; stroke-width: 0.5; stroke-linejoin: miter"/>
   </g>
   <g id="patch_104">
    <path d="M 236.436364 263.12 
L 240.512727 263.12 
L 240.512727 143.310476 
L 236.436364 143.310476 
z
" clip-path="url(#p293b7c127d)" style="fill: #d3d3d3; opacity: 0.5; stroke: #000000; stroke-width: 0.5; stroke-linejoin: miter"/>
   </g>
   <g id="patch_105">
    <path d="M 238.474545 263.12 
L 242.550909 263.12 
L 242.550909 143.310476 
L 238.474545 143.310476 
z
" clip-path="url(#p293b7c127d)" style="fill: #d3d3d3; opacity: 0.5; stroke: #000000; stroke-width: 0.5; stroke-linejoin: miter"/>
   </g>
   <g id="patch_106">
    <path d="M 240.512727 263.12 
L 244.589091 263.12 
L 244.589091 143.310476 
L 240.512727 143.310476 
z
" clip-path="url(#p293b7c127d)" style="fill: #d3d3d3; opacity: 0.5; stroke: #000000; stroke-width: 0.5; stroke-linejoin: miter"/>
   </g>
   <g id="patch_107">
    <path d="M 242.550909 263.12 
L 246.627273 263.12 
L 246.627273 143.310476 
L 242.550909 143.310476 
z
" clip-path="url(#p293b7c127d)" style="fill: #d3d3d3; opacity: 0.5; stroke: #000000; stroke-width: 0.5; stroke-linejoin: miter"/>
   </g>
   <g id="patch_108">
    <path d="M 244.589091 263.12 
L 248.665455 263.12 
L 248.665455 127.12 
L 244.589091 127.12 
z
" clip-path="url(#p293b7c127d)" style="fill: #d3d3d3; opacity: 0.5; stroke: #000000; stroke-width: 0.5; stroke-linejoin: miter"/>
   </g>
   <g id="patch_109">
    <path d="M 246.627273 263.12 
L 250.703636 263.12 
L 250.703636 127.12 
L 246.627273 127.12 
z
" clip-path="url(#p293b7c127d)" style="fill: #d3d3d3; opacity: 0.5; stroke: #000000; stroke-width: 0.5; stroke-linejoin: miter"/>
   </g>
   <g id="patch_110">
    <path d="M 248.665455 263.12 
L 252.741818 263.12 
L 252.741818 127.12 
L 248.665455 127.12 
z
" clip-path="url(#p293b7c127d)" style="fill: #d3d3d3; opacity: 0.5; stroke: #000000; stroke-width: 0.5; stroke-linejoin: miter"/>
   </g>
   <g id="patch_111">
    <path d="M 250.703636 263.12 
L 254.78 263.12 
L 254.78 127.12 
L 250.703636 127.12 
z
" clip-path="url(#p293b7c127d)" style="fill: #d3d3d3; opacity: 0.5; stroke: #000000; stroke-width: 0.5; stroke-linejoin: miter"/>
   </g>
   <g id="patch_112">
    <path d="M 252.741818 263.12 
L 256.818182 263.12 
L 256.818182 127.12 
L 252.741818 127.12 
z
" clip-path="url(#p293b7c127d)" style="fill: #d3d3d3; opacity: 0.5; stroke: #000000; stroke-width: 0.5; stroke-linejoin: miter"/>
   </g>
   <g id="patch_113">
    <path d="M 254.78 263.12 
L 258.856364 263.12 
L 258.856364 110.929524 
L 254.78 110.929524 
z
" clip-path="url(#p293b7c127d)" style="fill: #d3d3d3; opacity: 0.5; stroke: #000000; stroke-width: 0.5; stroke-linejoin: miter"/>
   </g>
   <g id="patch_114">
    <path d="M 256.818182 263.12 
L 260.894545 263.12 
L 260.894545 91.500952 
L 256.818182 91.500952 
z
" clip-path="url(#p293b7c127d)" style="fill: #d3d3d3; opacity: 0.5; stroke: #000000; stroke-width: 0.5; stroke-linejoin: miter"/>
   </g>
   <g id="patch_115">
    <path d="M 258.856364 263.12 
L 262.932727 263.12 
L 262.932727 91.500952 
L 258.856364 91.500952 
z
" clip-path="url(#p293b7c127d)" style="fill: #d3d3d3; opacity: 0.5; stroke: #000000; stroke-width: 0.5; stroke-linejoin: miter"/>
   </g>
   <g id="patch_116">
    <path d="M 260.894545 263.12 
L 264.970909 263.12 
L 264.970909 75.310476 
L 260.894545 75.310476 
z
" clip-path="url(#p293b7c127d)" style="fill: #d3d3d3; opacity: 0.5; stroke: #000000; stroke-width: 0.5; stroke-linejoin: miter"/>
   </g>
   <g id="patch_117">
    <path d="M 262.932727 263.12 
L 267.009091 263.12 
L 267.009091 59.12 
L 262.932727 59.12 
z
" clip-path="url(#p293b7c127d)" style="fill: #d3d3d3; opacity: 0.5; stroke: #000000; stroke-width: 0.5; stroke-linejoin: miter"/>
   </g>
   <g id="patch_118">
    <path d="M 264.970909 263.12 
L 269.047273 263.12 
L 269.047273 59.12 
L 264.970909 59.12 
z
" clip-path="url(#p293b7c127d)" style="fill: #d3d3d3; opacity: 0.5; stroke: #000000; stroke-width: 0.5; stroke-linejoin: miter"/>
   </g>
   <g id="patch_119">
    <path d="M 267.009091 263.12 
L 271.085455 263.12 
L 271.085455 59.12 
L 267.009091 59.12 
z
" clip-path="url(#p293b7c127d)" style="fill: #d3d3d3; opacity: 0.5; stroke: #000000; stroke-width: 0.5; stroke-linejoin: miter"/>
   </g>
   <g id="patch_120">
    <path d="M 269.047273 263.12 
L 273.123636 263.12 
L 273.123636 42.929524 
L 269.047273 42.929524 
z
" clip-path="url(#p293b7c127d)" style="fill: #d3d3d3; opacity: 0.5; stroke: #000000; stroke-width: 0.5; stroke-linejoin: miter"/>
   </g>
   <g id="patch_121">
    <path d="M 271.085455 263.12 
L 275.161818 263.12 
L 275.161818 42.929524 
L 271.085455 42.929524 
z
" clip-path="url(#p293b7c127d)" style="fill: #d3d3d3; opacity: 0.5; stroke: #000000; stroke-width: 0.5; stroke-linejoin: miter"/>
   </g>
   <g id="patch_122">
    <path d="M 273.123636 263.12 
L 277.2 263.12 
L 277.2 42.929524 
L 273.123636 42.929524 
z
" clip-path="url(#p293b7c127d)" style="fill: #d3d3d3; opacity: 0.5; stroke: #000000; stroke-width: 0.5; stroke-linejoin: miter"/>
   </g>
   <g id="patch_123">
    <path d="M 34.656364 263.12 
L 38.732727 263.12 
L 38.732727 227.500952 
L 34.656364 227.500952 
z
" clip-path="url(#p293b7c127d)" style="fill: #99231b; stroke: #000000; stroke-width: 0.5; stroke-linejoin: miter"/>
   </g>
   <g id="patch_124">
    <path d="M 42.809091 263.12 
L 46.885455 263.12 
L 46.885455 211.310476 
L 42.809091 211.310476 
z
" clip-path="url(#p293b7c127d)" style="fill: #aa4b44; stroke: #000000; stroke-width: 0.5; stroke-linejoin: miter"/>
   </g>
   <g id="patch_125">
    <path d="M 44.847273 263.12 
L 48.923636 263.12 
L 48.923636 211.310476 
L 44.847273 211.310476 
z
" clip-path="url(#p293b7c127d)" style="fill: #cd9d9a; stroke: #000000; stroke-width: 0.5; stroke-linejoin: miter"/>
   </g>
   <g id="patch_126">
    <path d="M 53 263.12 
L 57.076364 263.12 
L 57.076364 211.310476 
L 53 211.310476 
z
" clip-path="url(#p293b7c127d)" style="fill: #bc7570; stroke: #000000; stroke-width: 0.5; stroke-linejoin: miter"/>
   </g>
   <g id="patch_127">
    <path d="M 146.756364 263.12 
L 150.832727 263.12 
L 150.832727 178.929524 
L 146.756364 178.929524 
z
" clip-path="url(#p293b7c127d)" style="fill: #dfc7c6; stroke: #000000; stroke-width: 0.5; stroke-linejoin: miter"/>
   </g>
   <g id="patch_128">
    <path d="M 264.970909 263.12 
L 269.047273 263.12 
L 269.047273 59.12 
L 264.970909 59.12 
z
" clip-path="url(#p293b7c127d)" style="fill: #c3cddd; stroke: #000000; stroke-width: 0.5; stroke-linejoin: miter"/>
   </g>
   <g id="patch_129">
    <path d="M 267.009091 263.12 
L 271.085455 263.12 
L 271.085455 59.12 
L 267.009091 59.12 
z
" clip-path="url(#p293b7c127d)" style="fill: #94a8ca; stroke: #000000; stroke-width: 0.5; stroke-linejoin: miter"/>
   </g>
   <g id="patch_130">
    <path d="M 269.047273 263.12 
L 273.123636 263.12 
L 273.123636 42.929524 
L 269.047273 42.929524 
z
" clip-path="url(#p293b7c127d)" style="fill: #6785b7; stroke: #000000; stroke-width: 0.5; stroke-linejoin: miter"/>
   </g>
   <g id="patch_131">
    <path d="M 271.085455 263.12 
L 275.161818 263.12 
L 275.161818 42.929524 
L 271.085455 42.929524 
z
" clip-path="url(#p293b7c127d)" style="fill: #3860a3; stroke: #000000; stroke-width: 0.5; stroke-linejoin: miter"/>
   </g>
   <g id="patch_132">
    <path d="M 273.123636 263.12 
L 277.2 263.12 
L 277.2 42.929524 
L 273.123636 42.929524 
z
" clip-path="url(#p293b7c127d)" style="fill: #0b3d91; stroke: #000000; stroke-width: 0.5; stroke-linejoin: miter"/>
   </g>
   <g id="matplotlib.axis_1">
    <g id="text_1">
     <!-- GPCR -->
     <g transform="translate(140.035312 274.718437) scale(0.1 -0.1)">
      <defs>
       <path id="DejaVuSans-47" d="M 3809 666 
L 3809 1919 
L 2778 1919 
L 2778 2438 
L 4434 2438 
L 4434 434 
Q 4069 175 3628 42 
Q 3188 -91 2688 -91 
Q 1594 -91 976 548 
Q 359 1188 359 2328 
Q 359 3472 976 4111 
Q 1594 4750 2688 4750 
Q 3144 4750 3555 4637 
Q 3966 4525 4313 4306 
L 4313 3634 
Q 3963 3931 3569 4081 
Q 3175 4231 2741 4231 
Q 1884 4231 1454 3753 
Q 1025 3275 1025 2328 
Q 1025 1384 1454 906 
Q 1884 428 2741 428 
Q 3075 428 3337 486 
Q 3600 544 3809 666 
z
" transform="scale(0.015625)"/>
       <path id="DejaVuSans-50" d="M 1259 4147 
L 1259 2394 
L 2053 2394 
Q 2494 2394 2734 2622 
Q 2975 2850 2975 3272 
Q 2975 3691 2734 3919 
Q 2494 4147 2053 4147 
L 1259 4147 
z
M 628 4666 
L 2053 4666 
Q 2838 4666 3239 4311 
Q 3641 3956 3641 3272 
Q 3641 2581 3239 2228 
Q 2838 1875 2053 1875 
L 1259 1875 
L 1259 0 
L 628 0 
L 628 4666 
z
" transform="scale(0.015625)"/>
       <path id="DejaVuSans-43" d="M 4122 4306 
L 4122 3641 
Q 3803 3938 3442 4084 
Q 3081 4231 2675 4231 
Q 1875 4231 1450 3742 
Q 1025 3253 1025 2328 
Q 1025 1406 1450 917 
Q 1875 428 2675 428 
Q 3081 428 3442 575 
Q 3803 722 4122 1019 
L 4122 359 
Q 3791 134 3420 21 
Q 3050 -91 2638 -91 
Q 1578 -91 968 557 
Q 359 1206 359 2328 
Q 359 3453 968 4101 
Q 1578 4750 2638 4750 
Q 3056 4750 3426 4639 
Q 3797 4528 4122 4306 
z
" transform="scale(0.015625)"/>
       <path id="DejaVuSans-52" d="M 2841 2188 
Q 3044 2119 3236 1894 
Q 3428 1669 3622 1275 
L 4263 0 
L 3584 0 
L 2988 1197 
Q 2756 1666 2539 1819 
Q 2322 1972 1947 1972 
L 1259 1972 
L 1259 0 
L 628 0 
L 628 4666 
L 2053 4666 
Q 2853 4666 3247 4331 
Q 3641 3997 3641 3322 
Q 3641 2881 3436 2590 
Q 3231 2300 2841 2188 
z
M 1259 4147 
L 1259 2491 
L 2053 2491 
Q 2509 2491 2742 2702 
Q 2975 2913 2975 3322 
Q 2975 3731 2742 3939 
Q 2509 4147 2053 4147 
L 1259 4147 
z
" transform="scale(0.015625)"/>
      </defs>
      <use xlink:href="#DejaVuSans-47"/>
      <use xlink:href="#DejaVuSans-50" x="77.490234"/>
      <use xlink:href="#DejaVuSans-43" x="137.792969"/>
      <use xlink:href="#DejaVuSans-52" x="207.617188"/>
     </g>
    </g>
   </g>
   <g id="matplotlib.axis_2">
    <g id="ytick_1">
     <g id="line2d_1">
      <path d="M 30.58 263.12 
L 277.2 263.12 
" clip-path="url(#p293b7c127d)" style="fill: none; stroke: #b0b0b0; stroke-width: 0.8; stroke-linecap: square"/>
     </g>
     <g id="line2d_2">
      <defs>
       <path id="mae5b7c35de" d="M 0 0 
L -3.5 0 
" style="stroke: #000000; stroke-width: 0.8"/>
      </defs>
      <g>
       <use xlink:href="#mae5b7c35de" x="30.58" y="263.12" style="stroke: #000000; stroke-width: 0.8"/>
      </g>
     </g>
     <g id="text_2">
      <!-- 0 -->
      <g transform="translate(17.2175 266.919219) scale(0.1 -0.1)">
       <defs>
        <path id="DejaVuSans-30" d="M 2034 4250 
Q 1547 4250 1301 3770 
Q 1056 3291 1056 2328 
Q 1056 1369 1301 889 
Q 1547 409 2034 409 
Q 2525 409 2770 889 
Q 3016 1369 3016 2328 
Q 3016 3291 2770 3770 
Q 2525 4250 2034 4250 
z
M 2034 4750 
Q 2819 4750 3233 4129 
Q 3647 3509 3647 2328 
Q 3647 1150 3233 529 
Q 2819 -91 2034 -91 
Q 1250 -91 836 529 
Q 422 1150 422 2328 
Q 422 3509 836 4129 
Q 1250 4750 2034 4750 
z
" transform="scale(0.015625)"/>
       </defs>
       <use xlink:href="#DejaVuSans-30"/>
      </g>
     </g>
    </g>
    <g id="ytick_2">
     <g id="line2d_3">
      <path d="M 30.58 230.739048 
L 277.2 230.739048 
" clip-path="url(#p293b7c127d)" style="fill: none; stroke: #b0b0b0; stroke-width: 0.8; stroke-linecap: square"/>
     </g>
     <g id="line2d_4">
      <g>
       <use xlink:href="#mae5b7c35de" x="30.58" y="230.739048" style="stroke: #000000; stroke-width: 0.8"/>
      </g>
     </g>
     <g id="text_3">
      <!-- 10 -->
      <g transform="translate(10.855 234.538266) scale(0.1 -0.1)">
       <defs>
        <path id="DejaVuSans-31" d="M 794 531 
L 1825 531 
L 1825 4091 
L 703 3866 
L 703 4441 
L 1819 4666 
L 2450 4666 
L 2450 531 
L 3481 531 
L 3481 0 
L 794 0 
L 794 531 
z
" transform="scale(0.015625)"/>
       </defs>
       <use xlink:href="#DejaVuSans-31"/>
       <use xlink:href="#DejaVuSans-30" x="63.623047"/>
      </g>
     </g>
    </g>
    <g id="ytick_3">
     <g id="line2d_5">
      <path d="M 30.58 198.358095 
L 277.2 198.358095 
" clip-path="url(#p293b7c127d)" style="fill: none; stroke: #b0b0b0; stroke-width: 0.8; stroke-linecap: square"/>
     </g>
     <g id="line2d_6">
      <g>
       <use xlink:href="#mae5b7c35de" x="30.58" y="198.358095" style="stroke: #000000; stroke-width: 0.8"/>
      </g>
     </g>
     <g id="text_4">
      <!-- 20 -->
      <g transform="translate(10.855 202.157314) scale(0.1 -0.1)">
       <defs>
        <path id="DejaVuSans-32" d="M 1228 531 
L 3431 531 
L 3431 0 
L 469 0 
L 469 531 
Q 828 903 1448 1529 
Q 2069 2156 2228 2338 
Q 2531 2678 2651 2914 
Q 2772 3150 2772 3378 
Q 2772 3750 2511 3984 
Q 2250 4219 1831 4219 
Q 1534 4219 1204 4116 
Q 875 4013 500 3803 
L 500 4441 
Q 881 4594 1212 4672 
Q 1544 4750 1819 4750 
Q 2544 4750 2975 4387 
Q 3406 4025 3406 3419 
Q 3406 3131 3298 2873 
Q 3191 2616 2906 2266 
Q 2828 2175 2409 1742 
Q 1991 1309 1228 531 
z
" transform="scale(0.015625)"/>
       </defs>
       <use xlink:href="#DejaVuSans-32"/>
       <use xlink:href="#DejaVuSans-30" x="63.623047"/>
      </g>
     </g>
    </g>
    <g id="ytick_4">
     <g id="line2d_7">
      <path d="M 30.58 165.977143 
L 277.2 165.977143 
" clip-path="url(#p293b7c127d)" style="fill: none; stroke: #b0b0b0; stroke-width: 0.8; stroke-linecap: square"/>
     </g>
     <g id="line2d_8">
      <g>
       <use xlink:href="#mae5b7c35de" x="30.58" y="165.977143" style="stroke: #000000; stroke-width: 0.8"/>
      </g>
     </g>
     <g id="text_5">
      <!-- 30 -->
      <g transform="translate(10.855 169.776362) scale(0.1 -0.1)">
       <defs>
        <path id="DejaVuSans-33" d="M 2597 2516 
Q 3050 2419 3304 2112 
Q 3559 1806 3559 1356 
Q 3559 666 3084 287 
Q 2609 -91 1734 -91 
Q 1441 -91 1130 -33 
Q 819 25 488 141 
L 488 750 
Q 750 597 1062 519 
Q 1375 441 1716 441 
Q 2309 441 2620 675 
Q 2931 909 2931 1356 
Q 2931 1769 2642 2001 
Q 2353 2234 1838 2234 
L 1294 2234 
L 1294 2753 
L 1863 2753 
Q 2328 2753 2575 2939 
Q 2822 3125 2822 3475 
Q 2822 3834 2567 4026 
Q 2313 4219 1838 4219 
Q 1578 4219 1281 4162 
Q 984 4106 628 3988 
L 628 4550 
Q 988 4650 1302 4700 
Q 1616 4750 1894 4750 
Q 2613 4750 3031 4423 
Q 3450 4097 3450 3541 
Q 3450 3153 3228 2886 
Q 3006 2619 2597 2516 
z
" transform="scale(0.015625)"/>
       </defs>
       <use xlink:href="#DejaVuSans-33"/>
       <use xlink:href="#DejaVuSans-30" x="63.623047"/>
      </g>
     </g>
    </g>
    <g id="ytick_5">
     <g id="line2d_9">
      <path d="M 30.58 133.59619 
L 277.2 133.59619 
" clip-path="url(#p293b7c127d)" style="fill: none; stroke: #b0b0b0; stroke-width: 0.8; stroke-linecap: square"/>
     </g>
     <g id="line2d_10">
      <g>
       <use xlink:href="#mae5b7c35de" x="30.58" y="133.59619" style="stroke: #000000; stroke-width: 0.8"/>
      </g>
     </g>
     <g id="text_6">
      <!-- 40 -->
      <g transform="translate(10.855 137.395409) scale(0.1 -0.1)">
       <defs>
        <path id="DejaVuSans-34" d="M 2419 4116 
L 825 1625 
L 2419 1625 
L 2419 4116 
z
M 2253 4666 
L 3047 4666 
L 3047 1625 
L 3713 1625 
L 3713 1100 
L 3047 1100 
L 3047 0 
L 2419 0 
L 2419 1100 
L 313 1100 
L 313 1709 
L 2253 4666 
z
" transform="scale(0.015625)"/>
       </defs>
       <use xlink:href="#DejaVuSans-34"/>
       <use xlink:href="#DejaVuSans-30" x="63.623047"/>
      </g>
     </g>
    </g>
    <g id="ytick_6">
     <g id="line2d_11">
      <path d="M 30.58 101.215238 
L 277.2 101.215238 
" clip-path="url(#p293b7c127d)" style="fill: none; stroke: #b0b0b0; stroke-width: 0.8; stroke-linecap: square"/>
     </g>
     <g id="line2d_12">
      <g>
       <use xlink:href="#mae5b7c35de" x="30.58" y="101.215238" style="stroke: #000000; stroke-width: 0.8"/>
      </g>
     </g>
     <g id="text_7">
      <!-- 50 -->
      <g transform="translate(10.855 105.014457) scale(0.1 -0.1)">
       <defs>
        <path id="DejaVuSans-35" d="M 691 4666 
L 3169 4666 
L 3169 4134 
L 1269 4134 
L 1269 2991 
Q 1406 3038 1543 3061 
Q 1681 3084 1819 3084 
Q 2600 3084 3056 2656 
Q 3513 2228 3513 1497 
Q 3513 744 3044 326 
Q 2575 -91 1722 -91 
Q 1428 -91 1123 -41 
Q 819 9 494 109 
L 494 744 
Q 775 591 1075 516 
Q 1375 441 1709 441 
Q 2250 441 2565 725 
Q 2881 1009 2881 1497 
Q 2881 1984 2565 2268 
Q 2250 2553 1709 2553 
Q 1456 2553 1204 2497 
Q 953 2441 691 2322 
L 691 4666 
z
" transform="scale(0.015625)"/>
       </defs>
       <use xlink:href="#DejaVuSans-35"/>
       <use xlink:href="#DejaVuSans-30" x="63.623047"/>
      </g>
     </g>
    </g>
    <g id="ytick_7">
     <g id="line2d_13">
      <path d="M 30.58 68.834286 
L 277.2 68.834286 
" clip-path="url(#p293b7c127d)" style="fill: none; stroke: #b0b0b0; stroke-width: 0.8; stroke-linecap: square"/>
     </g>
     <g id="line2d_14">
      <g>
       <use xlink:href="#mae5b7c35de" x="30.58" y="68.834286" style="stroke: #000000; stroke-width: 0.8"/>
      </g>
     </g>
     <g id="text_8">
      <!-- 60 -->
      <g transform="translate(10.855 72.633504) scale(0.1 -0.1)">
       <defs>
        <path id="DejaVuSans-36" d="M 2113 2584 
Q 1688 2584 1439 2293 
Q 1191 2003 1191 1497 
Q 1191 994 1439 701 
Q 1688 409 2113 409 
Q 2538 409 2786 701 
Q 3034 994 3034 1497 
Q 3034 2003 2786 2293 
Q 2538 2584 2113 2584 
z
M 3366 4563 
L 3366 3988 
Q 3128 4100 2886 4159 
Q 2644 4219 2406 4219 
Q 1781 4219 1451 3797 
Q 1122 3375 1075 2522 
Q 1259 2794 1537 2939 
Q 1816 3084 2150 3084 
Q 2853 3084 3261 2657 
Q 3669 2231 3669 1497 
Q 3669 778 3244 343 
Q 2819 -91 2113 -91 
Q 1303 -91 875 529 
Q 447 1150 447 2328 
Q 447 3434 972 4092 
Q 1497 4750 2381 4750 
Q 2619 4750 2861 4703 
Q 3103 4656 3366 4563 
z
" transform="scale(0.015625)"/>
       </defs>
       <use xlink:href="#DejaVuSans-36"/>
       <use xlink:href="#DejaVuSans-30" x="63.623047"/>
      </g>
     </g>
    </g>
    <g id="ytick_8">
     <g id="line2d_15">
      <path d="M 30.58 36.453333 
L 277.2 36.453333 
" clip-path="url(#p293b7c127d)" style="fill: none; stroke: #b0b0b0; stroke-width: 0.8; stroke-linecap: square"/>
     </g>
     <g id="line2d_16">
      <g>
       <use xlink:href="#mae5b7c35de" x="30.58" y="36.453333" style="stroke: #000000; stroke-width: 0.8"/>
      </g>
     </g>
     <g id="text_9">
      <!-- 70 -->
      <g transform="translate(10.855 40.252552) scale(0.1 -0.1)">
       <defs>
        <path id="DejaVuSans-37" d="M 525 4666 
L 3525 4666 
L 3525 4397 
L 1831 0 
L 1172 0 
L 2766 4134 
L 525 4134 
L 525 4666 
z
" transform="scale(0.015625)"/>
       </defs>
       <use xlink:href="#DejaVuSans-37"/>
       <use xlink:href="#DejaVuSans-30" x="63.623047"/>
      </g>
     </g>
    </g>
   </g>
   <g id="line2d_17">
    <path d="M 183.443636 263.12 
L 183.443636 31.92 
" clip-path="url(#p293b7c127d)" style="fill: none; stroke-dasharray: 3.7,1.6; stroke-dashoffset: 0; stroke: #000000"/>
   </g>
   <g id="patch_133">
    <path d="M 30.58 263.12 
L 30.58 31.92 
" style="fill: none; stroke: #000000; stroke-width: 0.8; stroke-linejoin: miter; stroke-linecap: square"/>
   </g>
   <g id="patch_134">
    <path d="M 277.2 263.12 
L 277.2 31.92 
" style="fill: none; stroke: #000000; stroke-width: 0.8; stroke-linejoin: miter; stroke-linecap: square"/>
   </g>
   <g id="patch_135">
    <path d="M 30.58 263.12 
L 277.2 263.12 
" style="fill: none; stroke: #000000; stroke-width: 0.8; stroke-linejoin: miter; stroke-linecap: square"/>
   </g>
   <g id="patch_136">
    <path d="M 30.58 31.92 
L 277.2 31.92 
" style="fill: none; stroke: #000000; stroke-width: 0.8; stroke-linejoin: miter; stroke-linecap: square"/>
   </g>
   <g id="text_10">
    <!-- Similarity -->
    <g transform="translate(106.610312 25.92) scale(0.2 -0.2)">
     <defs>
      <path id="DejaVuSans-53" d="M 3425 4513 
L 3425 3897 
Q 3066 4069 2747 4153 
Q 2428 4238 2131 4238 
Q 1616 4238 1336 4038 
Q 1056 3838 1056 3469 
Q 1056 3159 1242 3001 
Q 1428 2844 1947 2747 
L 2328 2669 
Q 3034 2534 3370 2195 
Q 3706 1856 3706 1288 
Q 3706 609 3251 259 
Q 2797 -91 1919 -91 
Q 1588 -91 1214 -16 
Q 841 59 441 206 
L 441 856 
Q 825 641 1194 531 
Q 1563 422 1919 422 
Q 2459 422 2753 634 
Q 3047 847 3047 1241 
Q 3047 1584 2836 1778 
Q 2625 1972 2144 2069 
L 1759 2144 
Q 1053 2284 737 2584 
Q 422 2884 422 3419 
Q 422 4038 858 4394 
Q 1294 4750 2059 4750 
Q 2388 4750 2728 4690 
Q 3069 4631 3425 4513 
z
" transform="scale(0.015625)"/>
      <path id="DejaVuSans-69" d="M 603 3500 
L 1178 3500 
L 1178 0 
L 603 0 
L 603 3500 
z
M 603 4863 
L 1178 4863 
L 1178 4134 
L 603 4134 
L 603 4863 
z
" transform="scale(0.015625)"/>
      <path id="DejaVuSans-6d" d="M 3328 2828 
Q 3544 3216 3844 3400 
Q 4144 3584 4550 3584 
Q 5097 3584 5394 3201 
Q 5691 2819 5691 2113 
L 5691 0 
L 5113 0 
L 5113 2094 
Q 5113 2597 4934 2840 
Q 4756 3084 4391 3084 
Q 3944 3084 3684 2787 
Q 3425 2491 3425 1978 
L 3425 0 
L 2847 0 
L 2847 2094 
Q 2847 2600 2669 2842 
Q 2491 3084 2119 3084 
Q 1678 3084 1418 2786 
Q 1159 2488 1159 1978 
L 1159 0 
L 581 0 
L 581 3500 
L 1159 3500 
L 1159 2956 
Q 1356 3278 1631 3431 
Q 1906 3584 2284 3584 
Q 2666 3584 2933 3390 
Q 3200 3197 3328 2828 
z
" transform="scale(0.015625)"/>
      <path id="DejaVuSans-6c" d="M 603 4863 
L 1178 4863 
L 1178 0 
L 603 0 
L 603 4863 
z
" transform="scale(0.015625)"/>
      <path id="DejaVuSans-61" d="M 2194 1759 
Q 1497 1759 1228 1600 
Q 959 1441 959 1056 
Q 959 750 1161 570 
Q 1363 391 1709 391 
Q 2188 391 2477 730 
Q 2766 1069 2766 1631 
L 2766 1759 
L 2194 1759 
z
M 3341 1997 
L 3341 0 
L 2766 0 
L 2766 531 
Q 2569 213 2275 61 
Q 1981 -91 1556 -91 
Q 1019 -91 701 211 
Q 384 513 384 1019 
Q 384 1609 779 1909 
Q 1175 2209 1959 2209 
L 2766 2209 
L 2766 2266 
Q 2766 2663 2505 2880 
Q 2244 3097 1772 3097 
Q 1472 3097 1187 3025 
Q 903 2953 641 2809 
L 641 3341 
Q 956 3463 1253 3523 
Q 1550 3584 1831 3584 
Q 2591 3584 2966 3190 
Q 3341 2797 3341 1997 
z
" transform="scale(0.015625)"/>
      <path id="DejaVuSans-72" d="M 2631 2963 
Q 2534 3019 2420 3045 
Q 2306 3072 2169 3072 
Q 1681 3072 1420 2755 
Q 1159 2438 1159 1844 
L 1159 0 
L 581 0 
L 581 3500 
L 1159 3500 
L 1159 2956 
Q 1341 3275 1631 3429 
Q 1922 3584 2338 3584 
Q 2397 3584 2469 3576 
Q 2541 3569 2628 3553 
L 2631 2963 
z
" transform="scale(0.015625)"/>
      <path id="DejaVuSans-74" d="M 1172 4494 
L 1172 3500 
L 2356 3500 
L 2356 3053 
L 1172 3053 
L 1172 1153 
Q 1172 725 1289 603 
Q 1406 481 1766 481 
L 2356 481 
L 2356 0 
L 1766 0 
Q 1100 0 847 248 
Q 594 497 594 1153 
L 594 3053 
L 172 3053 
L 172 3500 
L 594 3500 
L 594 4494 
L 1172 4494 
z
" transform="scale(0.015625)"/>
      <path id="DejaVuSans-79" d="M 2059 -325 
Q 1816 -950 1584 -1140 
Q 1353 -1331 966 -1331 
L 506 -1331 
L 506 -850 
L 844 -850 
Q 1081 -850 1212 -737 
Q 1344 -625 1503 -206 
L 1606 56 
L 191 3500 
L 800 3500 
L 1894 763 
L 2988 3500 
L 3597 3500 
L 2059 -325 
z
" transform="scale(0.015625)"/>
     </defs>
     <use xlink:href="#DejaVuSans-53"/>
     <use xlink:href="#DejaVuSans-69" x="63.476562"/>
     <use xlink:href="#DejaVuSans-6d" x="91.259766"/>
     <use xlink:href="#DejaVuSans-69" x="188.671875"/>
     <use xlink:href="#DejaVuSans-6c" x="216.455078"/>
     <use xlink:href="#DejaVuSans-61" x="244.238281"/>
     <use xlink:href="#DejaVuSans-72" x="305.517578"/>
     <use xlink:href="#DejaVuSans-69" x="346.630859"/>
     <use xlink:href="#DejaVuSans-74" x="374.414062"/>
     <use xlink:href="#DejaVuSans-79" x="413.623047"/>
    </g>
   </g>
  </g>
 </g>
 <defs>
  <clipPath id="p293b7c127d">
   <rect x="30.58" y="31.92" width="246.62" height="231.2"/>
  </clipPath>
 </defs>
</svg>
