<?xml version="1.0" encoding="utf-8" standalone="no"?>
<!DOCTYPE svg PUBLIC "-//W3C//DTD SVG 1.1//EN"
  "http://www.w3.org/Graphics/SVG/1.1/DTD/svg11.dtd">
<svg xmlns:xlink="http://www.w3.org/1999/xlink" width="504pt" height="360pt" viewBox="0 0 504 360" xmlns="http://www.w3.org/2000/svg" version="1.1">
 <metadata>
  <rdf:RDF xmlns:dc="http://purl.org/dc/elements/1.1/" xmlns:cc="http://creativecommons.org/ns#" xmlns:rdf="http://www.w3.org/1999/02/22-rdf-syntax-ns#">
   <cc:Work>
    <dc:type rdf:resource="http://purl.org/dc/dcmitype/StillImage"/>
    <dc:date>2025-03-06T16:43:07.853917</dc:date>
    <dc:format>image/svg+xml</dc:format>
    <dc:creator>
     <cc:Agent>
      <dc:title>Matplotlib v3.7.3, https://matplotlib.org/</dc:title>
     </cc:Agent>
    </dc:creator>
   </cc:Work>
  </rdf:RDF>
 </metadata>
 <defs>
  <style type="text/css">*{stroke-linejoin: round; stroke-linecap: butt}</style>
 </defs>
 <g id="figure_1">
  <g id="patch_1">
   <path d="M 0 360 
L 504 360 
L 504 0 
L 0 0 
z
" style="fill: #ffffff"/>
  </g>
  <g id="axes_1">
   <g id="patch_2">
    <path d="M 47.955 317.94 
L 485.235 317.94 
L 485.235 14.76 
L 47.955 14.76 
z
" style="fill: #ffffff"/>
   </g>
   <g id="PathCollection_1">
    <defs>
     <path id="m9e8ad4f994" d="M 0 2.236068 
C 0.593012 2.236068 1.161816 2.000462 1.581139 1.581139 
C 2.000462 1.161816 2.236068 0.593012 2.236068 0 
C 2.236068 -0.593012 2.000462 -1.161816 1.581139 -1.581139 
C 1.161816 -2.000462 0.593012 -2.236068 0 -2.236068 
C -0.593012 -2.236068 -1.161816 -2.000462 -1.581139 -1.581139 
C -2.000462 -1.161816 -2.236068 -0.593012 -2.236068 0 
C -2.236068 0.593012 -2.000462 1.161816 -1.581139 1.581139 
C -1.161816 2.000462 -0.593012 2.236068 0 2.236068 
z
" style="stroke: #115185; stroke-opacity: 0.8"/>
    </defs>
    <g clip-path="url(#pfe6135022a)">
     <use xlink:href="#m9e8ad4f994" x="282.33708" y="107.739377" style="fill: #115185; fill-opacity: 0.8; stroke: #115185; stroke-opacity: 0.8"/>
     <use xlink:href="#m9e8ad4f994" x="186.57276" y="114.257151" style="fill: #115185; fill-opacity: 0.8; stroke: #115185; stroke-opacity: 0.8"/>
     <use xlink:href="#m9e8ad4f994" x="220.6806" y="74.042033" style="fill: #115185; fill-opacity: 0.8; stroke: #115185; stroke-opacity: 0.8"/>
     <use xlink:href="#m9e8ad4f994" x="253.03932" y="73.275686" style="fill: #115185; fill-opacity: 0.8; stroke: #115185; stroke-opacity: 0.8"/>
     <use xlink:href="#m9e8ad4f994" x="204.93852" y="79.71937" style="fill: #115185; fill-opacity: 0.8; stroke: #115185; stroke-opacity: 0.8"/>
     <use xlink:href="#m9e8ad4f994" x="225.49068" y="59.784565" style="fill: #115185; fill-opacity: 0.8; stroke: #115185; stroke-opacity: 0.8"/>
     <use xlink:href="#m9e8ad4f994" x="252.16476" y="102.434025" style="fill: #115185; fill-opacity: 0.8; stroke: #115185; stroke-opacity: 0.8"/>
     <use xlink:href="#m9e8ad4f994" x="279.7134" y="83.900745" style="fill: #115185; fill-opacity: 0.8; stroke: #115185; stroke-opacity: 0.8"/>
     <use xlink:href="#m9e8ad4f994" x="303.7638" y="65.957525" style="fill: #115185; fill-opacity: 0.8; stroke: #115185; stroke-opacity: 0.8"/>
     <use xlink:href="#m9e8ad4f994" x="282.77436" y="83.905162" style="fill: #115185; fill-opacity: 0.8; stroke: #115185; stroke-opacity: 0.8"/>
     <use xlink:href="#m9e8ad4f994" x="326.06508" y="70.043935" style="fill: #115185; fill-opacity: 0.8; stroke: #115185; stroke-opacity: 0.8"/>
     <use xlink:href="#m9e8ad4f994" x="290.20812" y="93.018203" style="fill: #115185; fill-opacity: 0.8; stroke: #115185; stroke-opacity: 0.8"/>
     <use xlink:href="#m9e8ad4f994" x="155.0886" y="166.420964" style="fill: #115185; fill-opacity: 0.8; stroke: #115185; stroke-opacity: 0.8"/>
     <use xlink:href="#m9e8ad4f994" x="248.22924" y="75.10591" style="fill: #115185; fill-opacity: 0.8; stroke: #115185; stroke-opacity: 0.8"/>
     <use xlink:href="#m9e8ad4f994" x="260.91036" y="265.772744" style="fill: #115185; fill-opacity: 0.8; stroke: #115185; stroke-opacity: 0.8"/>
     <use xlink:href="#m9e8ad4f994" x="271.84236" y="113.441914" style="fill: #115185; fill-opacity: 0.8; stroke: #115185; stroke-opacity: 0.8"/>
     <use xlink:href="#m9e8ad4f994" x="232.04988" y="90.971738" style="fill: #115185; fill-opacity: 0.8; stroke: #115185; stroke-opacity: 0.8"/>
     <use xlink:href="#m9e8ad4f994" x="358.86108" y="78.93554" style="fill: #115185; fill-opacity: 0.8; stroke: #115185; stroke-opacity: 0.8"/>
     <use xlink:href="#m9e8ad4f994" x="279.7134" y="30.620869" style="fill: #115185; fill-opacity: 0.8; stroke: #115185; stroke-opacity: 0.8"/>
     <use xlink:href="#m9e8ad4f994" x="288.459" y="40.096303" style="fill: #115185; fill-opacity: 0.8; stroke: #115185; stroke-opacity: 0.8"/>
     <use xlink:href="#m9e8ad4f994" x="310.76028" y="51.728482" style="fill: #115185; fill-opacity: 0.8; stroke: #115185; stroke-opacity: 0.8"/>
     <use xlink:href="#m9e8ad4f994" x="312.07212" y="57.656953" style="fill: #115185; fill-opacity: 0.8; stroke: #115185; stroke-opacity: 0.8"/>
     <use xlink:href="#m9e8ad4f994" x="273.59148" y="62.709806" style="fill: #115185; fill-opacity: 0.8; stroke: #115185; stroke-opacity: 0.8"/>
     <use xlink:href="#m9e8ad4f994" x="190.94556" y="311.890393" style="fill: #115185; fill-opacity: 0.8; stroke: #115185; stroke-opacity: 0.8"/>
     <use xlink:href="#m9e8ad4f994" x="301.14012" y="118.993857" style="fill: #115185; fill-opacity: 0.8; stroke: #115185; stroke-opacity: 0.8"/>
     <use xlink:href="#m9e8ad4f994" x="265.28316" y="116.526525" style="fill: #115185; fill-opacity: 0.8; stroke: #115185; stroke-opacity: 0.8"/>
     <use xlink:href="#m9e8ad4f994" x="306.82476" y="98.140013" style="fill: #115185; fill-opacity: 0.8; stroke: #115185; stroke-opacity: 0.8"/>
     <use xlink:href="#m9e8ad4f994" x="264.4086" y="65.17189" style="fill: #115185; fill-opacity: 0.8; stroke: #115185; stroke-opacity: 0.8"/>
     <use xlink:href="#m9e8ad4f994" x="281.46252" y="89.068785" style="fill: #115185; fill-opacity: 0.8; stroke: #115185; stroke-opacity: 0.8"/>
     <use xlink:href="#m9e8ad4f994" x="47.955" y="308.832814" style="fill: #115185; fill-opacity: 0.8; stroke: #115185; stroke-opacity: 0.8"/>
     <use xlink:href="#m9e8ad4f994" x="162.95964" y="88.683781" style="fill: #115185; fill-opacity: 0.8; stroke: #115185; stroke-opacity: 0.8"/>
     <use xlink:href="#m9e8ad4f994" x="240.3582" y="51.969637" style="fill: #115185; fill-opacity: 0.8; stroke: #115185; stroke-opacity: 0.8"/>
     <use xlink:href="#m9e8ad4f994" x="264.4086" y="191.723001" style="fill: #115185; fill-opacity: 0.8; stroke: #115185; stroke-opacity: 0.8"/>
     <use xlink:href="#m9e8ad4f994" x="230.30076" y="212.845402" style="fill: #115185; fill-opacity: 0.8; stroke: #115185; stroke-opacity: 0.8"/>
     <use xlink:href="#m9e8ad4f994" x="117.9198" y="250.159048" style="fill: #115185; fill-opacity: 0.8; stroke: #115185; stroke-opacity: 0.8"/>
     <use xlink:href="#m9e8ad4f994" x="95.61852" y="241.310344" style="fill: #115185; fill-opacity: 0.8; stroke: #115185; stroke-opacity: 0.8"/>
     <use xlink:href="#m9e8ad4f994" x="139.7838" y="223.713034" style="fill: #115185; fill-opacity: 0.8; stroke: #115185; stroke-opacity: 0.8"/>
     <use xlink:href="#m9e8ad4f994" x="148.5294" y="194.928739" style="fill: #115185; fill-opacity: 0.8; stroke: #115185; stroke-opacity: 0.8"/>
     <use xlink:href="#m9e8ad4f994" x="167.76972" y="209.032883" style="fill: #115185; fill-opacity: 0.8; stroke: #115185; stroke-opacity: 0.8"/>
     <use xlink:href="#m9e8ad4f994" x="291.95724" y="99.363719" style="fill: #115185; fill-opacity: 0.8; stroke: #115185; stroke-opacity: 0.8"/>
     <use xlink:href="#m9e8ad4f994" x="208.87404" y="62.650719" style="fill: #115185; fill-opacity: 0.8; stroke: #115185; stroke-opacity: 0.8"/>
     <use xlink:href="#m9e8ad4f994" x="179.139" y="132.675155" style="fill: #115185; fill-opacity: 0.8; stroke: #115185; stroke-opacity: 0.8"/>
     <use xlink:href="#m9e8ad4f994" x="204.06396" y="111.986294" style="fill: #115185; fill-opacity: 0.8; stroke: #115185; stroke-opacity: 0.8"/>
     <use xlink:href="#m9e8ad4f994" x="308.1366" y="69.435427" style="fill: #115185; fill-opacity: 0.8; stroke: #115185; stroke-opacity: 0.8"/>
     <use xlink:href="#m9e8ad4f994" x="249.54108" y="78.211574" style="fill: #115185; fill-opacity: 0.8; stroke: #115185; stroke-opacity: 0.8"/>
     <use xlink:href="#m9e8ad4f994" x="274.46604" y="91.526772" style="fill: #115185; fill-opacity: 0.8; stroke: #115185; stroke-opacity: 0.8"/>
     <use xlink:href="#m9e8ad4f994" x="281.46252" y="49.557412" style="fill: #115185; fill-opacity: 0.8; stroke: #115185; stroke-opacity: 0.8"/>
     <use xlink:href="#m9e8ad4f994" x="270.9678" y="92.435706" style="fill: #115185; fill-opacity: 0.8; stroke: #115185; stroke-opacity: 0.8"/>
     <use xlink:href="#m9e8ad4f994" x="298.95372" y="73.440973" style="fill: #115185; fill-opacity: 0.8; stroke: #115185; stroke-opacity: 0.8"/>
     <use xlink:href="#m9e8ad4f994" x="309.44844" y="67.617217" style="fill: #115185; fill-opacity: 0.8; stroke: #115185; stroke-opacity: 0.8"/>
     <use xlink:href="#m9e8ad4f994" x="312.5094" y="68.24292" style="fill: #115185; fill-opacity: 0.8; stroke: #115185; stroke-opacity: 0.8"/>
     <use xlink:href="#m9e8ad4f994" x="289.77084" y="113.204681" style="fill: #115185; fill-opacity: 0.8; stroke: #115185; stroke-opacity: 0.8"/>
     <use xlink:href="#m9e8ad4f994" x="129.72636" y="201.096635" style="fill: #115185; fill-opacity: 0.8; stroke: #115185; stroke-opacity: 0.8"/>
     <use xlink:href="#m9e8ad4f994" x="159.89868" y="154.448518" style="fill: #115185; fill-opacity: 0.8; stroke: #115185; stroke-opacity: 0.8"/>
     <use xlink:href="#m9e8ad4f994" x="155.0886" y="134.412927" style="fill: #115185; fill-opacity: 0.8; stroke: #115185; stroke-opacity: 0.8"/>
     <use xlink:href="#m9e8ad4f994" x="177.38988" y="129.576166" style="fill: #115185; fill-opacity: 0.8; stroke: #115185; stroke-opacity: 0.8"/>
     <use xlink:href="#m9e8ad4f994" x="203.62668" y="83.125777" style="fill: #115185; fill-opacity: 0.8; stroke: #115185; stroke-opacity: 0.8"/>
     <use xlink:href="#m9e8ad4f994" x="313.38396" y="97.158879" style="fill: #115185; fill-opacity: 0.8; stroke: #115185; stroke-opacity: 0.8"/>
     <use xlink:href="#m9e8ad4f994" x="249.97836" y="182.065214" style="fill: #115185; fill-opacity: 0.8; stroke: #115185; stroke-opacity: 0.8"/>
     <use xlink:href="#m9e8ad4f994" x="261.34764" y="90.492262" style="fill: #115185; fill-opacity: 0.8; stroke: #115185; stroke-opacity: 0.8"/>
     <use xlink:href="#m9e8ad4f994" x="261.78492" y="87.663738" style="fill: #115185; fill-opacity: 0.8; stroke: #115185; stroke-opacity: 0.8"/>
     <use xlink:href="#m9e8ad4f994" x="330.87516" y="52.245851" style="fill: #115185; fill-opacity: 0.8; stroke: #115185; stroke-opacity: 0.8"/>
     <use xlink:href="#m9e8ad4f994" x="225.0534" y="110.127837" style="fill: #115185; fill-opacity: 0.8; stroke: #115185; stroke-opacity: 0.8"/>
     <use xlink:href="#m9e8ad4f994" x="253.4766" y="109.064853" style="fill: #115185; fill-opacity: 0.8; stroke: #115185; stroke-opacity: 0.8"/>
     <use xlink:href="#m9e8ad4f994" x="305.07564" y="91.766417" style="fill: #115185; fill-opacity: 0.8; stroke: #115185; stroke-opacity: 0.8"/>
     <use xlink:href="#m9e8ad4f994" x="309.44844" y="120.988525" style="fill: #115185; fill-opacity: 0.8; stroke: #115185; stroke-opacity: 0.8"/>
     <use xlink:href="#m9e8ad4f994" x="284.52348" y="105.878972" style="fill: #115185; fill-opacity: 0.8; stroke: #115185; stroke-opacity: 0.8"/>
    </g>
   </g>
   <g id="PolyCollection_1">
    <path d="M 47.955 199.199973 
L 47.955 280.138218 
L 51.095465 277.62659 
L 54.235931 275.114962 
L 57.376396 272.602527 
L 60.516862 270.015441 
L 63.657327 267.36451 
L 66.797793 264.907117 
L 69.938258 262.444095 
L 73.078724 260.020889 
L 76.219189 257.543905 
L 79.359655 255.035928 
L 82.50012 252.527951 
L 85.640585 250.018666 
L 88.781051 247.505327 
L 91.921516 244.882438 
L 95.061982 242.228469 
L 98.202447 239.632808 
L 101.342913 237.208485 
L 104.483378 234.784162 
L 107.623844 232.358172 
L 110.764309 229.718264 
L 113.904775 227.23665 
L 117.04524 224.921322 
L 120.185705 222.414655 
L 123.326171 219.907204 
L 126.466636 217.399754 
L 129.607102 214.892304 
L 132.747567 212.380221 
L 135.888033 209.865161 
L 139.028498 207.351174 
L 142.168964 204.927741 
L 145.309429 202.527388 
L 148.449895 200.127034 
L 151.59036 197.726681 
L 154.730825 195.326327 
L 157.871291 192.925974 
L 161.011756 190.525621 
L 164.152222 188.125267 
L 167.292687 185.736945 
L 170.433153 183.500175 
L 173.573618 180.954048 
L 176.714084 178.349145 
L 179.854549 175.830296 
L 182.995015 173.431488 
L 186.13548 171.032681 
L 189.275945 168.633873 
L 192.416411 166.2317 
L 195.556876 163.808785 
L 198.697342 161.426626 
L 201.837807 158.960548 
L 204.978273 156.513168 
L 208.118738 154.125925 
L 211.259204 151.690388 
L 214.399669 149.232746 
L 217.540135 146.796922 
L 220.6806 144.419728 
L 223.821065 141.763786 
L 226.961531 139.181095 
L 230.101996 137.176445 
L 233.242462 134.724222 
L 236.382927 132.229718 
L 239.523393 129.793751 
L 242.663858 127.836825 
L 245.804324 125.451189 
L 248.944789 123.159863 
L 252.085255 120.757197 
L 255.22572 118.431425 
L 258.366185 116.194446 
L 261.506651 114.110466 
L 264.647116 111.872571 
L 267.787582 109.680594 
L 270.928047 107.562443 
L 274.068513 105.387553 
L 277.208978 103.577909 
L 280.349444 101.609801 
L 283.489909 99.479619 
L 286.630375 97.307466 
L 289.77084 95.50852 
L 292.911305 93.817289 
L 296.051771 92.049437 
L 299.192236 90.028808 
L 302.332702 88.496439 
L 305.473167 86.806518 
L 308.613633 84.802021 
L 311.754098 82.692124 
L 314.894564 80.861506 
L 318.035029 79.115266 
L 321.175495 77.714123 
L 324.31596 76.219532 
L 327.456425 74.351282 
L 330.596891 72.597696 
L 333.737356 70.769591 
L 336.877822 69.059025 
L 340.018287 67.331513 
L 343.158753 65.799724 
L 346.299218 63.902423 
L 349.439684 62.459017 
L 352.580149 60.937894 
L 355.720615 59.375618 
L 358.86108 57.936543 
L 358.86108 20.317769 
L 358.86108 20.317769 
L 355.720615 22.809092 
L 352.580149 25.381443 
L 349.439684 27.956749 
L 346.299218 30.532056 
L 343.158753 33.103294 
L 340.018287 35.5585 
L 336.877822 37.939138 
L 333.737356 40.323714 
L 330.596891 42.697691 
L 327.456425 45.001307 
L 324.31596 47.464861 
L 321.175495 49.937321 
L 318.035029 52.468752 
L 314.894564 55.026114 
L 311.754098 57.547263 
L 308.613633 60.1108 
L 305.473167 62.598279 
L 302.332702 64.806784 
L 299.192236 67.047547 
L 296.051771 69.259336 
L 292.911305 71.436859 
L 289.77084 73.696498 
L 286.630375 76.026506 
L 283.489909 78.407013 
L 280.349444 80.788113 
L 277.208978 83.045852 
L 274.068513 84.932903 
L 270.928047 86.819955 
L 267.787582 88.862219 
L 264.647116 91.107714 
L 261.506651 93.136258 
L 258.366185 95.374991 
L 255.22572 97.353069 
L 252.085255 99.26491 
L 248.944789 101.172223 
L 245.804324 103.017271 
L 242.663858 105.061255 
L 239.523393 106.829133 
L 236.382927 108.617494 
L 233.242462 110.276015 
L 230.101996 112.071785 
L 226.961531 113.896044 
L 223.821065 115.571265 
L 220.6806 117.144842 
L 217.540135 118.88045 
L 214.399669 120.542237 
L 211.259204 121.91805 
L 208.118738 123.427862 
L 204.978273 125.02383 
L 201.837807 126.653797 
L 198.697342 128.442908 
L 195.556876 130.051915 
L 192.416411 131.51391 
L 189.275945 133.08354 
L 186.13548 134.691131 
L 182.995015 136.293537 
L 179.854549 137.753019 
L 176.714084 139.348816 
L 173.573618 140.691387 
L 170.433153 142.181965 
L 167.292687 143.833529 
L 164.152222 145.357482 
L 161.011756 146.649077 
L 157.871291 147.96107 
L 154.730825 149.584233 
L 151.59036 151.182506 
L 148.449895 152.826547 
L 145.309429 154.449587 
L 142.168964 156.062385 
L 139.028498 157.493269 
L 135.888033 158.96274 
L 132.747567 160.408398 
L 129.607102 161.854056 
L 126.466636 163.302052 
L 123.326171 164.75404 
L 120.185705 166.280648 
L 117.04524 167.657191 
L 113.904775 169.03162 
L 110.764309 170.405132 
L 107.623844 171.778645 
L 104.483378 173.152157 
L 101.342913 174.525669 
L 98.202447 175.899182 
L 95.061982 177.272694 
L 91.921516 178.646813 
L 88.781051 180.022981 
L 85.640585 181.399148 
L 82.50012 182.775316 
L 79.359655 184.151484 
L 76.219189 185.527652 
L 73.078724 186.916033 
L 69.938258 188.380217 
L 66.797793 189.924937 
L 63.657327 191.469657 
L 60.516862 193.014869 
L 57.376396 194.561145 
L 54.235931 196.107421 
L 51.095465 197.653697 
L 47.955 199.199973 
z
" clip-path="url(#pfe6135022a)" style="fill: #115185; fill-opacity: 0.15"/>
   </g>
   <g id="PathCollection_2">
    <defs>
     <path id="m6138b618ef" d="M -2.236068 2.236068 
L 2.236068 2.236068 
L 2.236068 -2.236068 
L -2.236068 -2.236068 
z
" style="stroke: #008fd7; stroke-opacity: 0.8"/>
    </defs>
    <g clip-path="url(#pfe6135022a)">
     <use xlink:href="#m6138b618ef" x="262.65948" y="231.370766" style="fill: #008fd7; fill-opacity: 0.8; stroke: #008fd7; stroke-opacity: 0.8"/>
     <use xlink:href="#m6138b618ef" x="165.14604" y="116.936097" style="fill: #008fd7; fill-opacity: 0.8; stroke: #008fd7; stroke-opacity: 0.8"/>
     <use xlink:href="#m6138b618ef" x="214.99596" y="73.969817" style="fill: #008fd7; fill-opacity: 0.8; stroke: #008fd7; stroke-opacity: 0.8"/>
     <use xlink:href="#m6138b618ef" x="181.76268" y="145.00929" style="fill: #008fd7; fill-opacity: 0.8; stroke: #008fd7; stroke-opacity: 0.8"/>
     <use xlink:href="#m6138b618ef" x="171.26796" y="94.319074" style="fill: #008fd7; fill-opacity: 0.8; stroke: #008fd7; stroke-opacity: 0.8"/>
     <use xlink:href="#m6138b618ef" x="210.18588" y="89.289287" style="fill: #008fd7; fill-opacity: 0.8; stroke: #008fd7; stroke-opacity: 0.8"/>
     <use xlink:href="#m6138b618ef" x="239.48364" y="100.650203" style="fill: #008fd7; fill-opacity: 0.8; stroke: #008fd7; stroke-opacity: 0.8"/>
     <use xlink:href="#m6138b618ef" x="280.58796" y="89.89298" style="fill: #008fd7; fill-opacity: 0.8; stroke: #008fd7; stroke-opacity: 0.8"/>
     <use xlink:href="#m6138b618ef" x="293.70636" y="74.3671" style="fill: #008fd7; fill-opacity: 0.8; stroke: #008fd7; stroke-opacity: 0.8"/>
     <use xlink:href="#m6138b618ef" x="276.21516" y="61.365" style="fill: #008fd7; fill-opacity: 0.8; stroke: #008fd7; stroke-opacity: 0.8"/>
     <use xlink:href="#m6138b618ef" x="319.0686" y="69.219252" style="fill: #008fd7; fill-opacity: 0.8; stroke: #008fd7; stroke-opacity: 0.8"/>
     <use xlink:href="#m6138b618ef" x="285.83532" y="89.644355" style="fill: #008fd7; fill-opacity: 0.8; stroke: #008fd7; stroke-opacity: 0.8"/>
     <use xlink:href="#m6138b618ef" x="145.90572" y="191.915008" style="fill: #008fd7; fill-opacity: 0.8; stroke: #008fd7; stroke-opacity: 0.8"/>
     <use xlink:href="#m6138b618ef" x="242.98188" y="83.191504" style="fill: #008fd7; fill-opacity: 0.8; stroke: #008fd7; stroke-opacity: 0.8"/>
     <use xlink:href="#m6138b618ef" x="224.61612" y="259.767608" style="fill: #008fd7; fill-opacity: 0.8; stroke: #008fd7; stroke-opacity: 0.8"/>
     <use xlink:href="#m6138b618ef" x="248.22924" y="105.487436" style="fill: #008fd7; fill-opacity: 0.8; stroke: #008fd7; stroke-opacity: 0.8"/>
     <use xlink:href="#m6138b618ef" x="211.49772" y="127.288534" style="fill: #008fd7; fill-opacity: 0.8; stroke: #008fd7; stroke-opacity: 0.8"/>
     <use xlink:href="#m6138b618ef" x="349.6782" y="79.488043" style="fill: #008fd7; fill-opacity: 0.8; stroke: #008fd7; stroke-opacity: 0.8"/>
     <use xlink:href="#m6138b618ef" x="178.26444" y="173.555337" style="fill: #008fd7; fill-opacity: 0.8; stroke: #008fd7; stroke-opacity: 0.8"/>
     <use xlink:href="#m6138b618ef" x="174.7662" y="190.964613" style="fill: #008fd7; fill-opacity: 0.8; stroke: #008fd7; stroke-opacity: 0.8"/>
     <use xlink:href="#m6138b618ef" x="308.1366" y="84.009383" style="fill: #008fd7; fill-opacity: 0.8; stroke: #008fd7; stroke-opacity: 0.8"/>
     <use xlink:href="#m6138b618ef" x="310.76028" y="59.958713" style="fill: #008fd7; fill-opacity: 0.8; stroke: #008fd7; stroke-opacity: 0.8"/>
     <use xlink:href="#m6138b618ef" x="205.81308" y="78.629787" style="fill: #008fd7; fill-opacity: 0.8; stroke: #008fd7; stroke-opacity: 0.8"/>
     <use xlink:href="#m6138b618ef" x="152.9022" y="134.976178" style="fill: #008fd7; fill-opacity: 0.8; stroke: #008fd7; stroke-opacity: 0.8"/>
     <use xlink:href="#m6138b618ef" x="278.83884" y="127.929018" style="fill: #008fd7; fill-opacity: 0.8; stroke: #008fd7; stroke-opacity: 0.8"/>
     <use xlink:href="#m6138b618ef" x="263.09676" y="121.638681" style="fill: #008fd7; fill-opacity: 0.8; stroke: #008fd7; stroke-opacity: 0.8"/>
     <use xlink:href="#m6138b618ef" x="295.45548" y="110.234737" style="fill: #008fd7; fill-opacity: 0.8; stroke: #008fd7; stroke-opacity: 0.8"/>
     <use xlink:href="#m6138b618ef" x="268.7814" y="73.082931" style="fill: #008fd7; fill-opacity: 0.8; stroke: #008fd7; stroke-opacity: 0.8"/>
     <use xlink:href="#m6138b618ef" x="280.15068" y="91.004539" style="fill: #008fd7; fill-opacity: 0.8; stroke: #008fd7; stroke-opacity: 0.8"/>
     <use xlink:href="#m6138b618ef" x="56.7006" y="306.66102" style="fill: #008fd7; fill-opacity: 0.8; stroke: #008fd7; stroke-opacity: 0.8"/>
     <use xlink:href="#m6138b618ef" x="127.97724" y="95.789677" style="fill: #008fd7; fill-opacity: 0.8; stroke: #008fd7; stroke-opacity: 0.8"/>
     <use xlink:href="#m6138b618ef" x="184.82364" y="63.924526" style="fill: #008fd7; fill-opacity: 0.8; stroke: #008fd7; stroke-opacity: 0.8"/>
     <use xlink:href="#m6138b618ef" x="257.8494" y="193.332367" style="fill: #008fd7; fill-opacity: 0.8; stroke: #008fd7; stroke-opacity: 0.8"/>
     <use xlink:href="#m6138b618ef" x="206.25036" y="212.004547" style="fill: #008fd7; fill-opacity: 0.8; stroke: #008fd7; stroke-opacity: 0.8"/>
     <use xlink:href="#m6138b618ef" x="120.1062" y="255.857227" style="fill: #008fd7; fill-opacity: 0.8; stroke: #008fd7; stroke-opacity: 0.8"/>
     <use xlink:href="#m6138b618ef" x="109.61148" y="283.52555" style="fill: #008fd7; fill-opacity: 0.8; stroke: #008fd7; stroke-opacity: 0.8"/>
     <use xlink:href="#m6138b618ef" x="145.03116" y="227.262635" style="fill: #008fd7; fill-opacity: 0.8; stroke: #008fd7; stroke-opacity: 0.8"/>
     <use xlink:href="#m6138b618ef" x="149.40396" y="134.723963" style="fill: #008fd7; fill-opacity: 0.8; stroke: #008fd7; stroke-opacity: 0.8"/>
     <use xlink:href="#m6138b618ef" x="167.76972" y="209.311371" style="fill: #008fd7; fill-opacity: 0.8; stroke: #008fd7; stroke-opacity: 0.8"/>
     <use xlink:href="#m6138b618ef" x="289.77084" y="82.875768" style="fill: #008fd7; fill-opacity: 0.8; stroke: #008fd7; stroke-opacity: 0.8"/>
     <use xlink:href="#m6138b618ef" x="253.91388" y="52.158176" style="fill: #008fd7; fill-opacity: 0.8; stroke: #008fd7; stroke-opacity: 0.8"/>
     <use xlink:href="#m6138b618ef" x="183.5118" y="134.656237" style="fill: #008fd7; fill-opacity: 0.8; stroke: #008fd7; stroke-opacity: 0.8"/>
     <use xlink:href="#m6138b618ef" x="181.3254" y="102.599538" style="fill: #008fd7; fill-opacity: 0.8; stroke: #008fd7; stroke-opacity: 0.8"/>
     <use xlink:href="#m6138b618ef" x="290.20812" y="73.779835" style="fill: #008fd7; fill-opacity: 0.8; stroke: #008fd7; stroke-opacity: 0.8"/>
     <use xlink:href="#m6138b618ef" x="224.17884" y="81.114217" style="fill: #008fd7; fill-opacity: 0.8; stroke: #008fd7; stroke-opacity: 0.8"/>
     <use xlink:href="#m6138b618ef" x="271.40508" y="92.087194" style="fill: #008fd7; fill-opacity: 0.8; stroke: #008fd7; stroke-opacity: 0.8"/>
     <use xlink:href="#m6138b618ef" x="282.77436" y="57.841843" style="fill: #008fd7; fill-opacity: 0.8; stroke: #008fd7; stroke-opacity: 0.8"/>
     <use xlink:href="#m6138b618ef" x="262.65948" y="78.838827" style="fill: #008fd7; fill-opacity: 0.8; stroke: #008fd7; stroke-opacity: 0.8"/>
     <use xlink:href="#m6138b618ef" x="294.14364" y="102.714842" style="fill: #008fd7; fill-opacity: 0.8; stroke: #008fd7; stroke-opacity: 0.8"/>
     <use xlink:href="#m6138b618ef" x="313.38396" y="66.651683" style="fill: #008fd7; fill-opacity: 0.8; stroke: #008fd7; stroke-opacity: 0.8"/>
     <use xlink:href="#m6138b618ef" x="313.82124" y="73.220664" style="fill: #008fd7; fill-opacity: 0.8; stroke: #008fd7; stroke-opacity: 0.8"/>
     <use xlink:href="#m6138b618ef" x="285.83532" y="130.683079" style="fill: #008fd7; fill-opacity: 0.8; stroke: #008fd7; stroke-opacity: 0.8"/>
     <use xlink:href="#m6138b618ef" x="142.40748" y="199.523901" style="fill: #008fd7; fill-opacity: 0.8; stroke: #008fd7; stroke-opacity: 0.8"/>
     <use xlink:href="#m6138b618ef" x="173.89164" y="164.489761" style="fill: #008fd7; fill-opacity: 0.8; stroke: #008fd7; stroke-opacity: 0.8"/>
     <use xlink:href="#m6138b618ef" x="127.97724" y="265.61255" style="fill: #008fd7; fill-opacity: 0.8; stroke: #008fd7; stroke-opacity: 0.8"/>
     <use xlink:href="#m6138b618ef" x="159.02412" y="181.645599" style="fill: #008fd7; fill-opacity: 0.8; stroke: #008fd7; stroke-opacity: 0.8"/>
     <use xlink:href="#m6138b618ef" x="235.54812" y="61.191643" style="fill: #008fd7; fill-opacity: 0.8; stroke: #008fd7; stroke-opacity: 0.8"/>
     <use xlink:href="#m6138b618ef" x="317.75676" y="102.908289" style="fill: #008fd7; fill-opacity: 0.8; stroke: #008fd7; stroke-opacity: 0.8"/>
     <use xlink:href="#m6138b618ef" x="228.55164" y="181.904385" style="fill: #008fd7; fill-opacity: 0.8; stroke: #008fd7; stroke-opacity: 0.8"/>
     <use xlink:href="#m6138b618ef" x="249.1038" y="97.879321" style="fill: #008fd7; fill-opacity: 0.8; stroke: #008fd7; stroke-opacity: 0.8"/>
     <use xlink:href="#m6138b618ef" x="244.731" y="87.852978" style="fill: #008fd7; fill-opacity: 0.8; stroke: #008fd7; stroke-opacity: 0.8"/>
     <use xlink:href="#m6138b618ef" x="312.07212" y="85.231512" style="fill: #008fd7; fill-opacity: 0.8; stroke: #008fd7; stroke-opacity: 0.8"/>
     <use xlink:href="#m6138b618ef" x="240.3582" y="115.348501" style="fill: #008fd7; fill-opacity: 0.8; stroke: #008fd7; stroke-opacity: 0.8"/>
     <use xlink:href="#m6138b618ef" x="230.30076" y="108.573029" style="fill: #008fd7; fill-opacity: 0.8; stroke: #008fd7; stroke-opacity: 0.8"/>
     <use xlink:href="#m6138b618ef" x="277.96428" y="99.526038" style="fill: #008fd7; fill-opacity: 0.8; stroke: #008fd7; stroke-opacity: 0.8"/>
     <use xlink:href="#m6138b618ef" x="256.10028" y="127.112892" style="fill: #008fd7; fill-opacity: 0.8; stroke: #008fd7; stroke-opacity: 0.8"/>
     <use xlink:href="#m6138b618ef" x="247.79196" y="116.341267" style="fill: #008fd7; fill-opacity: 0.8; stroke: #008fd7; stroke-opacity: 0.8"/>
    </g>
   </g>
   <g id="PolyCollection_2">
    <path d="M 56.7006 194.086086 
L 56.7006 274.594251 
L 59.65997 272.223313 
L 62.619339 269.852375 
L 65.578709 267.481437 
L 68.538079 265.110499 
L 71.497448 262.739561 
L 74.456818 260.368624 
L 77.416188 257.99734 
L 80.375558 255.584613 
L 83.334927 253.09164 
L 86.294297 250.597844 
L 89.253667 248.104048 
L 92.213036 245.560915 
L 95.172406 242.973172 
L 98.131776 240.575349 
L 101.091145 238.131858 
L 104.050515 235.640048 
L 107.009885 233.183312 
L 109.969255 230.660434 
L 112.928624 228.319042 
L 115.887994 225.984105 
L 118.847364 223.649168 
L 121.806733 221.358597 
L 124.766103 219.1201 
L 127.725473 216.785141 
L 130.684842 214.292338 
L 133.644212 212.060869 
L 136.603582 209.780855 
L 139.562952 207.456014 
L 142.522321 204.952227 
L 145.481691 202.613114 
L 148.441061 200.114167 
L 151.40043 197.695712 
L 154.3598 195.339858 
L 157.31917 192.991733 
L 160.278539 190.688687 
L 163.237909 188.385642 
L 166.197279 186.186794 
L 169.156648 183.93377 
L 172.116018 181.73982 
L 175.075388 179.463175 
L 178.034758 177.211085 
L 180.994127 174.934078 
L 183.953497 172.622248 
L 186.912867 170.294672 
L 189.872236 167.97047 
L 192.831606 165.73012 
L 195.790976 163.40874 
L 198.750345 161.023615 
L 201.709715 158.794147 
L 204.669085 156.538315 
L 207.628455 154.379073 
L 210.587824 152.380062 
L 213.547194 149.995672 
L 216.506564 147.817852 
L 219.465933 145.748832 
L 222.425303 143.5874 
L 225.384673 141.186429 
L 228.344042 138.869763 
L 231.303412 136.74134 
L 234.262782 134.68184 
L 237.222152 132.403438 
L 240.181521 130.073173 
L 243.140891 128.009339 
L 246.100261 125.784293 
L 249.05963 123.669595 
L 252.019 121.646849 
L 254.97837 119.7371 
L 257.937739 118.123087 
L 260.897109 116.067126 
L 263.856479 114.140543 
L 266.815848 112.078959 
L 269.775218 110.283558 
L 272.734588 108.538119 
L 275.693958 107.066239 
L 278.653327 105.257076 
L 281.612697 103.583062 
L 284.572067 101.885883 
L 287.531436 99.881781 
L 290.490806 98.167581 
L 293.450176 96.382737 
L 296.409545 95.11409 
L 299.368915 93.407849 
L 302.328285 91.863344 
L 305.287655 90.555823 
L 308.247024 88.995191 
L 311.206394 87.46285 
L 314.165764 85.793974 
L 317.125133 84.33743 
L 320.084503 82.68273 
L 323.043873 81.095043 
L 326.003242 79.877031 
L 328.962612 78.447094 
L 331.921982 77.052111 
L 334.881352 75.795129 
L 337.840721 74.488347 
L 340.800091 73.171851 
L 343.759461 71.896344 
L 346.71883 70.427741 
L 349.6782 68.914247 
L 349.6782 27.592521 
L 349.6782 27.592521 
L 346.71883 30.02511 
L 343.759461 32.271784 
L 340.800091 34.754139 
L 337.840721 37.199564 
L 334.881352 39.488612 
L 331.921982 41.758438 
L 328.962612 43.982029 
L 326.003242 46.342067 
L 323.043873 48.627729 
L 320.084503 50.928693 
L 317.125133 53.28117 
L 314.165764 55.556693 
L 311.206394 57.829443 
L 308.247024 60.126047 
L 305.287655 62.463382 
L 302.328285 64.801124 
L 299.368915 67.138866 
L 296.409545 69.475146 
L 293.450176 71.807687 
L 290.490806 74.014289 
L 287.531436 76.394299 
L 284.572067 78.812298 
L 281.612697 81.214652 
L 278.653327 83.500845 
L 275.693958 85.832843 
L 272.734588 87.769092 
L 269.775218 89.881322 
L 266.815848 92.002579 
L 263.856479 94.087292 
L 260.897109 96.216603 
L 257.937739 98.278461 
L 254.97837 100.143947 
L 252.019 101.97905 
L 249.05963 103.901304 
L 246.100261 105.63534 
L 243.140891 107.484209 
L 240.181521 109.621292 
L 237.222152 111.150762 
L 234.262782 112.78677 
L 231.303412 114.354062 
L 228.344042 115.484163 
L 225.384673 116.958526 
L 222.425303 118.565081 
L 219.465933 119.906281 
L 216.506564 121.609106 
L 213.547194 123.078112 
L 210.587824 124.707053 
L 207.628455 126.028725 
L 204.669085 127.611737 
L 201.709715 129.183503 
L 198.750345 130.756538 
L 195.790976 132.134223 
L 192.831606 133.426254 
L 189.872236 134.710421 
L 186.912867 135.994587 
L 183.953497 137.282182 
L 180.994127 138.57959 
L 178.034758 139.872907 
L 175.075388 141.159363 
L 172.116018 142.44582 
L 169.156648 143.460093 
L 166.197279 144.807823 
L 163.237909 146.168473 
L 160.278539 147.530155 
L 157.31917 148.883609 
L 154.3598 150.014722 
L 151.40043 151.233669 
L 148.441061 152.613282 
L 145.481691 153.993164 
L 142.522321 155.336977 
L 139.562952 156.624693 
L 136.603582 157.911426 
L 133.644212 159.19929 
L 130.684842 160.487627 
L 127.725473 161.778981 
L 124.766103 163.117227 
L 121.806733 164.420993 
L 118.847364 165.759506 
L 115.887994 167.121836 
L 112.928624 168.397503 
L 109.969255 169.743607 
L 107.009885 171.108631 
L 104.050515 172.475537 
L 101.091145 173.842443 
L 98.131776 175.209349 
L 95.172406 176.576255 
L 92.213036 177.943161 
L 89.253667 179.310067 
L 86.294297 180.676973 
L 83.334927 182.043879 
L 80.375558 183.410785 
L 77.416188 184.777691 
L 74.456818 186.144596 
L 71.497448 187.511502 
L 68.538079 188.778825 
L 65.578709 190.036916 
L 62.619339 191.366553 
L 59.65997 192.726319 
L 56.7006 194.086086 
z
" clip-path="url(#pfe6135022a)" style="fill: #008fd7; fill-opacity: 0.15"/>
   </g>
   <g id="PathCollection_3">
    <defs>
     <path id="md50d04abc3" d="M 0 -2.236068 
L -2.236068 2.236068 
L 2.236068 2.236068 
z
" style="stroke: #061f4a; stroke-opacity: 0.8"/>
    </defs>
    <g clip-path="url(#pfe6135022a)">
     <use xlink:href="#md50d04abc3" x="325.971228" y="115.286967" style="fill: #061f4a; fill-opacity: 0.8; stroke: #061f4a; stroke-opacity: 0.8"/>
     <use xlink:href="#md50d04abc3" x="315.917574" y="170.305253" style="fill: #061f4a; fill-opacity: 0.8; stroke: #061f4a; stroke-opacity: 0.8"/>
     <use xlink:href="#md50d04abc3" x="351.467911" y="46.237694" style="fill: #061f4a; fill-opacity: 0.8; stroke: #061f4a; stroke-opacity: 0.8"/>
     <use xlink:href="#md50d04abc3" x="325.741729" y="91.546737" style="fill: #061f4a; fill-opacity: 0.8; stroke: #061f4a; stroke-opacity: 0.8"/>
     <use xlink:href="#md50d04abc3" x="326.487846" y="79.098494" style="fill: #061f4a; fill-opacity: 0.8; stroke: #061f4a; stroke-opacity: 0.8"/>
     <use xlink:href="#md50d04abc3" x="374.562588" y="73.093028" style="fill: #061f4a; fill-opacity: 0.8; stroke: #061f4a; stroke-opacity: 0.8"/>
     <use xlink:href="#md50d04abc3" x="316.26755" y="91.09416" style="fill: #061f4a; fill-opacity: 0.8; stroke: #061f4a; stroke-opacity: 0.8"/>
     <use xlink:href="#md50d04abc3" x="287.430554" y="138.86497" style="fill: #061f4a; fill-opacity: 0.8; stroke: #061f4a; stroke-opacity: 0.8"/>
     <use xlink:href="#md50d04abc3" x="299.165939" y="152.610364" style="fill: #061f4a; fill-opacity: 0.8; stroke: #061f4a; stroke-opacity: 0.8"/>
     <use xlink:href="#md50d04abc3" x="311.688965" y="68.00914" style="fill: #061f4a; fill-opacity: 0.8; stroke: #061f4a; stroke-opacity: 0.8"/>
     <use xlink:href="#md50d04abc3" x="351.270646" y="73.809835" style="fill: #061f4a; fill-opacity: 0.8; stroke: #061f4a; stroke-opacity: 0.8"/>
     <use xlink:href="#md50d04abc3" x="337.992478" y="83.580415" style="fill: #061f4a; fill-opacity: 0.8; stroke: #061f4a; stroke-opacity: 0.8"/>
     <use xlink:href="#md50d04abc3" x="323.729321" y="90.408615" style="fill: #061f4a; fill-opacity: 0.8; stroke: #061f4a; stroke-opacity: 0.8"/>
     <use xlink:href="#md50d04abc3" x="411.140333" y="60.01287" style="fill: #061f4a; fill-opacity: 0.8; stroke: #061f4a; stroke-opacity: 0.8"/>
     <use xlink:href="#md50d04abc3" x="321.66918" y="250.695356" style="fill: #061f4a; fill-opacity: 0.8; stroke: #061f4a; stroke-opacity: 0.8"/>
     <use xlink:href="#md50d04abc3" x="357.523896" y="101.423618" style="fill: #061f4a; fill-opacity: 0.8; stroke: #061f4a; stroke-opacity: 0.8"/>
     <use xlink:href="#md50d04abc3" x="294.835271" y="95.208753" style="fill: #061f4a; fill-opacity: 0.8; stroke: #061f4a; stroke-opacity: 0.8"/>
     <use xlink:href="#md50d04abc3" x="407.223653" y="81.925013" style="fill: #061f4a; fill-opacity: 0.8; stroke: #061f4a; stroke-opacity: 0.8"/>
     <use xlink:href="#md50d04abc3" x="362.02225" y="160.595792" style="fill: #061f4a; fill-opacity: 0.8; stroke: #061f4a; stroke-opacity: 0.8"/>
     <use xlink:href="#md50d04abc3" x="342.53596" y="150.603127" style="fill: #061f4a; fill-opacity: 0.8; stroke: #061f4a; stroke-opacity: 0.8"/>
     <use xlink:href="#md50d04abc3" x="309.365228" y="71.825167" style="fill: #061f4a; fill-opacity: 0.8; stroke: #061f4a; stroke-opacity: 0.8"/>
     <use xlink:href="#md50d04abc3" x="325.536382" y="115.094442" style="fill: #061f4a; fill-opacity: 0.8; stroke: #061f4a; stroke-opacity: 0.8"/>
     <use xlink:href="#md50d04abc3" x="346.763" y="108.645537" style="fill: #061f4a; fill-opacity: 0.8; stroke: #061f4a; stroke-opacity: 0.8"/>
     <use xlink:href="#md50d04abc3" x="318.222521" y="67.719255" style="fill: #061f4a; fill-opacity: 0.8; stroke: #061f4a; stroke-opacity: 0.8"/>
     <use xlink:href="#md50d04abc3" x="334.078154" y="114.230209" style="fill: #061f4a; fill-opacity: 0.8; stroke: #061f4a; stroke-opacity: 0.8"/>
     <use xlink:href="#md50d04abc3" x="322.860338" y="112.643167" style="fill: #061f4a; fill-opacity: 0.8; stroke: #061f4a; stroke-opacity: 0.8"/>
     <use xlink:href="#md50d04abc3" x="389.289905" y="165.626054" style="fill: #061f4a; fill-opacity: 0.8; stroke: #061f4a; stroke-opacity: 0.8"/>
     <use xlink:href="#md50d04abc3" x="325.098281" y="92.807526" style="fill: #061f4a; fill-opacity: 0.8; stroke: #061f4a; stroke-opacity: 0.8"/>
     <use xlink:href="#md50d04abc3" x="320.567899" y="107.299656" style="fill: #061f4a; fill-opacity: 0.8; stroke: #061f4a; stroke-opacity: 0.8"/>
     <use xlink:href="#md50d04abc3" x="290.291599" y="307.880726" style="fill: #061f4a; fill-opacity: 0.8; stroke: #061f4a; stroke-opacity: 0.8"/>
     <use xlink:href="#md50d04abc3" x="365.916587" y="59.467349" style="fill: #061f4a; fill-opacity: 0.8; stroke: #061f4a; stroke-opacity: 0.8"/>
     <use xlink:href="#md50d04abc3" x="316.747947" y="55.867349" style="fill: #061f4a; fill-opacity: 0.8; stroke: #061f4a; stroke-opacity: 0.8"/>
     <use xlink:href="#md50d04abc3" x="325.999957" y="184.674807" style="fill: #061f4a; fill-opacity: 0.8; stroke: #061f4a; stroke-opacity: 0.8"/>
     <use xlink:href="#md50d04abc3" x="322.636756" y="211.404574" style="fill: #061f4a; fill-opacity: 0.8; stroke: #061f4a; stroke-opacity: 0.8"/>
     <use xlink:href="#md50d04abc3" x="341.823739" y="262.726121" style="fill: #061f4a; fill-opacity: 0.8; stroke: #061f4a; stroke-opacity: 0.8"/>
     <use xlink:href="#md50d04abc3" x="330.0397" y="266.448893" style="fill: #061f4a; fill-opacity: 0.8; stroke: #061f4a; stroke-opacity: 0.8"/>
     <use xlink:href="#md50d04abc3" x="322.149135" y="181.460325" style="fill: #061f4a; fill-opacity: 0.8; stroke: #061f4a; stroke-opacity: 0.8"/>
     <use xlink:href="#md50d04abc3" x="327.068724" y="185.806913" style="fill: #061f4a; fill-opacity: 0.8; stroke: #061f4a; stroke-opacity: 0.8"/>
     <use xlink:href="#md50d04abc3" x="326.330492" y="207.487975" style="fill: #061f4a; fill-opacity: 0.8; stroke: #061f4a; stroke-opacity: 0.8"/>
     <use xlink:href="#md50d04abc3" x="375.265417" y="78.534127" style="fill: #061f4a; fill-opacity: 0.8; stroke: #061f4a; stroke-opacity: 0.8"/>
     <use xlink:href="#md50d04abc3" x="340.107024" y="241.66339" style="fill: #061f4a; fill-opacity: 0.8; stroke: #061f4a; stroke-opacity: 0.8"/>
     <use xlink:href="#md50d04abc3" x="318.99278" y="258.841643" style="fill: #061f4a; fill-opacity: 0.8; stroke: #061f4a; stroke-opacity: 0.8"/>
     <use xlink:href="#md50d04abc3" x="344.680714" y="114.782971" style="fill: #061f4a; fill-opacity: 0.8; stroke: #061f4a; stroke-opacity: 0.8"/>
     <use xlink:href="#md50d04abc3" x="389.50712" y="74.585913" style="fill: #061f4a; fill-opacity: 0.8; stroke: #061f4a; stroke-opacity: 0.8"/>
     <use xlink:href="#md50d04abc3" x="301.096141" y="127.235306" style="fill: #061f4a; fill-opacity: 0.8; stroke: #061f4a; stroke-opacity: 0.8"/>
     <use xlink:href="#md50d04abc3" x="302.489181" y="114.792697" style="fill: #061f4a; fill-opacity: 0.8; stroke: #061f4a; stroke-opacity: 0.8"/>
     <use xlink:href="#md50d04abc3" x="325.012013" y="95.602434" style="fill: #061f4a; fill-opacity: 0.8; stroke: #061f4a; stroke-opacity: 0.8"/>
     <use xlink:href="#md50d04abc3" x="327.412078" y="85.76122" style="fill: #061f4a; fill-opacity: 0.8; stroke: #061f4a; stroke-opacity: 0.8"/>
     <use xlink:href="#md50d04abc3" x="344.084454" y="91.95324" style="fill: #061f4a; fill-opacity: 0.8; stroke: #061f4a; stroke-opacity: 0.8"/>
     <use xlink:href="#md50d04abc3" x="333.33377" y="74.115222" style="fill: #061f4a; fill-opacity: 0.8; stroke: #061f4a; stroke-opacity: 0.8"/>
     <use xlink:href="#md50d04abc3" x="344.241075" y="65.172707" style="fill: #061f4a; fill-opacity: 0.8; stroke: #061f4a; stroke-opacity: 0.8"/>
     <use xlink:href="#md50d04abc3" x="347.09187" y="130.353067" style="fill: #061f4a; fill-opacity: 0.8; stroke: #061f4a; stroke-opacity: 0.8"/>
     <use xlink:href="#md50d04abc3" x="335.42403" y="152.972339" style="fill: #061f4a; fill-opacity: 0.8; stroke: #061f4a; stroke-opacity: 0.8"/>
     <use xlink:href="#md50d04abc3" x="365.4385" y="180.274949" style="fill: #061f4a; fill-opacity: 0.8; stroke: #061f4a; stroke-opacity: 0.8"/>
     <use xlink:href="#md50d04abc3" x="316.484907" y="194.932611" style="fill: #061f4a; fill-opacity: 0.8; stroke: #061f4a; stroke-opacity: 0.8"/>
     <use xlink:href="#md50d04abc3" x="366.57725" y="168.812636" style="fill: #061f4a; fill-opacity: 0.8; stroke: #061f4a; stroke-opacity: 0.8"/>
     <use xlink:href="#md50d04abc3" x="345.88814" y="174.665012" style="fill: #061f4a; fill-opacity: 0.8; stroke: #061f4a; stroke-opacity: 0.8"/>
     <use xlink:href="#md50d04abc3" x="335.201173" y="259.936622" style="fill: #061f4a; fill-opacity: 0.8; stroke: #061f4a; stroke-opacity: 0.8"/>
     <use xlink:href="#md50d04abc3" x="362.116512" y="194.778458" style="fill: #061f4a; fill-opacity: 0.8; stroke: #061f4a; stroke-opacity: 0.8"/>
     <use xlink:href="#md50d04abc3" x="308.230351" y="102.730912" style="fill: #061f4a; fill-opacity: 0.8; stroke: #061f4a; stroke-opacity: 0.8"/>
     <use xlink:href="#md50d04abc3" x="291.183455" y="87.478248" style="fill: #061f4a; fill-opacity: 0.8; stroke: #061f4a; stroke-opacity: 0.8"/>
     <use xlink:href="#md50d04abc3" x="344.411936" y="141.556692" style="fill: #061f4a; fill-opacity: 0.8; stroke: #061f4a; stroke-opacity: 0.8"/>
     <use xlink:href="#md50d04abc3" x="362.231408" y="141.026928" style="fill: #061f4a; fill-opacity: 0.8; stroke: #061f4a; stroke-opacity: 0.8"/>
     <use xlink:href="#md50d04abc3" x="332.569155" y="143.007656" style="fill: #061f4a; fill-opacity: 0.8; stroke: #061f4a; stroke-opacity: 0.8"/>
     <use xlink:href="#md50d04abc3" x="343.553499" y="79.289865" style="fill: #061f4a; fill-opacity: 0.8; stroke: #061f4a; stroke-opacity: 0.8"/>
     <use xlink:href="#md50d04abc3" x="422.091313" y="118.988932" style="fill: #061f4a; fill-opacity: 0.8; stroke: #061f4a; stroke-opacity: 0.8"/>
     <use xlink:href="#md50d04abc3" x="396.123568" y="107.97771" style="fill: #061f4a; fill-opacity: 0.8; stroke: #061f4a; stroke-opacity: 0.8"/>
    </g>
   </g>
   <g id="PolyCollection_3">
    <path d="M 287.430554 123.147885 
L 287.430554 183.453053 
L 288.790764 182.414929 
L 290.150973 181.209832 
L 291.511183 180.000549 
L 292.871393 178.788342 
L 294.231602 177.576135 
L 295.591812 176.363927 
L 296.952022 175.380248 
L 298.312231 174.321408 
L 299.672441 173.320685 
L 301.032651 172.205859 
L 302.392861 171.308027 
L 303.75307 170.309463 
L 305.11328 169.310899 
L 306.47349 168.297447 
L 307.833699 166.861297 
L 309.193909 165.402252 
L 310.554119 164.553992 
L 311.914328 163.185513 
L 313.274538 162.285591 
L 314.634748 161.048499 
L 315.994957 160.396691 
L 317.355167 159.744016 
L 318.715377 158.702353 
L 320.075586 157.741342 
L 321.435796 156.533097 
L 322.796006 155.480323 
L 324.156215 154.489003 
L 325.516425 153.58168 
L 326.876635 152.98141 
L 328.236844 152.25305 
L 329.597054 151.407179 
L 330.957264 150.758555 
L 332.317474 150.251763 
L 333.677683 149.510889 
L 335.037893 148.789515 
L 336.398103 147.956933 
L 337.758312 146.90192 
L 339.118522 145.933695 
L 340.478732 145.299029 
L 341.838941 144.083277 
L 343.199151 143.643509 
L 344.559361 143.282121 
L 345.91957 142.665488 
L 347.27978 142.000132 
L 348.63999 141.582693 
L 350.000199 141.624111 
L 351.360409 141.374493 
L 352.720619 140.841567 
L 354.080828 140.607777 
L 355.441038 140.163505 
L 356.801248 139.888575 
L 358.161457 139.564196 
L 359.521667 139.512604 
L 360.881877 139.223512 
L 362.242087 139.18948 
L 363.602296 139.256391 
L 364.962506 138.994966 
L 366.322716 138.724346 
L 367.682925 138.404653 
L 369.043135 138.188451 
L 370.403345 138.017714 
L 371.763554 137.862127 
L 373.123764 137.704238 
L 374.483974 137.431461 
L 375.844183 137.234073 
L 377.204393 136.861963 
L 378.564603 136.844084 
L 379.924812 136.739049 
L 381.285022 136.643184 
L 382.645232 136.268474 
L 384.005441 136.074643 
L 385.365651 135.880812 
L 386.725861 135.686981 
L 388.08607 135.49315 
L 389.44628 135.299319 
L 390.80649 135.208189 
L 392.1667 135.396761 
L 393.526909 135.485226 
L 394.887119 135.363379 
L 396.247329 135.364167 
L 397.607538 135.407833 
L 398.967748 135.228254 
L 400.327958 135.047519 
L 401.688167 134.898959 
L 403.048377 134.975309 
L 404.408587 135.051659 
L 405.768796 135.145063 
L 407.129006 135.261449 
L 408.489216 135.377835 
L 409.849425 135.494221 
L 411.209635 135.610606 
L 412.569845 135.726992 
L 413.930054 135.843378 
L 415.290264 135.959764 
L 416.650474 136.07615 
L 418.010683 136.187621 
L 419.370893 136.314527 
L 420.731103 136.526987 
L 422.091313 136.622664 
L 422.091313 64.730415 
L 422.091313 64.730415 
L 420.731103 65.772834 
L 419.370893 66.978158 
L 418.010683 68.224322 
L 416.650474 69.550075 
L 415.290264 70.871074 
L 413.930054 72.017469 
L 412.569845 73.163863 
L 411.209635 74.310258 
L 409.849425 75.434286 
L 408.489216 76.600077 
L 407.129006 77.743094 
L 405.768796 78.886112 
L 404.408587 79.99552 
L 403.048377 80.957172 
L 401.688167 82.157553 
L 400.327958 83.36157 
L 398.967748 84.34977 
L 397.607538 85.4231 
L 396.247329 86.627742 
L 394.887119 87.836062 
L 393.526909 88.814789 
L 392.1667 89.767763 
L 390.80649 90.720737 
L 389.44628 91.67159 
L 388.08607 92.558523 
L 386.725861 93.576408 
L 385.365651 94.697224 
L 384.005441 95.476244 
L 382.645232 96.421868 
L 381.285022 97.356175 
L 379.924812 98.357521 
L 378.564603 99.276879 
L 377.204393 100.295706 
L 375.844183 101.08942 
L 374.483974 102.061002 
L 373.123764 103.000526 
L 371.763554 103.796356 
L 370.403345 104.648097 
L 369.043135 105.365114 
L 367.682925 105.953758 
L 366.322716 106.56601 
L 364.962506 107.356553 
L 363.602296 107.963139 
L 362.242087 108.729752 
L 360.881877 109.408633 
L 359.521667 110.086391 
L 358.161457 110.88811 
L 356.801248 111.498702 
L 355.441038 112.111778 
L 354.080828 112.778013 
L 352.720619 113.451469 
L 351.360409 113.983145 
L 350.000199 114.623477 
L 348.63999 115.079162 
L 347.27978 115.901682 
L 345.91957 116.178286 
L 344.559361 116.622419 
L 343.199151 117.280111 
L 341.838941 117.562976 
L 340.478732 118.083198 
L 339.118522 118.654838 
L 337.758312 118.765847 
L 336.398103 119.315577 
L 335.037893 119.381944 
L 333.677683 119.532561 
L 332.317474 119.952071 
L 330.957264 120.371616 
L 329.597054 120.582606 
L 328.236844 120.817252 
L 326.876635 121.122892 
L 325.516425 121.383876 
L 324.156215 121.544418 
L 322.796006 121.712471 
L 321.435796 121.917537 
L 320.075586 121.906719 
L 318.715377 122.055195 
L 317.355167 122.376127 
L 315.994957 122.259232 
L 314.634748 122.034726 
L 313.274538 122.065405 
L 311.914328 122.0454 
L 310.554119 122.124254 
L 309.193909 122.227899 
L 307.833699 122.579468 
L 306.47349 122.881415 
L 305.11328 122.76118 
L 303.75307 122.654339 
L 302.392861 122.873916 
L 301.032651 122.611347 
L 299.672441 122.932461 
L 298.312231 122.99445 
L 296.952022 123.018905 
L 295.591812 123.051027 
L 294.231602 123.310032 
L 292.871393 123.552765 
L 291.511183 123.444902 
L 290.150973 123.292585 
L 288.790764 123.140268 
L 287.430554 123.147885 
z
" clip-path="url(#pfe6135022a)" style="fill: #061f4a; fill-opacity: 0.15"/>
   </g>
   <g id="matplotlib.axis_1">
    <g id="xtick_1">
     <g id="line2d_1">
      <path d="M 47.955 317.94 
L 47.955 14.76 
" clip-path="url(#pfe6135022a)" style="fill: none; stroke: #808080; stroke-width: 0.25; stroke-linecap: square"/>
     </g>
     <g id="line2d_2">
      <defs>
       <path id="m7212c35021" d="M 0 0 
L 0 -3.5 
" style="stroke: #000000; stroke-width: 0.8"/>
      </defs>
      <g>
       <use xlink:href="#m7212c35021" x="47.955" y="317.94" style="stroke: #000000; stroke-width: 0.8"/>
      </g>
     </g>
     <g id="text_1">
      <text style="font: 10px 'DejaVu Sans', 'Bitstream Vera Sans', 'Computer Modern Sans Serif', 'Lucida Grande', 'Verdana', 'Geneva', 'Lucid', 'Arial', 'Helvetica', 'Avant Garde', sans-serif; text-anchor: middle" x="47.955" y="329.038437" transform="rotate(-0 47.955 329.038437)">0.0</text>
     </g>
    </g>
    <g id="xtick_2">
     <g id="line2d_3">
      <path d="M 135.411 317.94 
L 135.411 14.76 
" clip-path="url(#pfe6135022a)" style="fill: none; stroke: #808080; stroke-width: 0.25; stroke-linecap: square"/>
     </g>
     <g id="line2d_4">
      <g>
       <use xlink:href="#m7212c35021" x="135.411" y="317.94" style="stroke: #000000; stroke-width: 0.8"/>
      </g>
     </g>
     <g id="text_2">
      <text style="font: 10px 'DejaVu Sans', 'Bitstream Vera Sans', 'Computer Modern Sans Serif', 'Lucida Grande', 'Verdana', 'Geneva', 'Lucid', 'Arial', 'Helvetica', 'Avant Garde', sans-serif; text-anchor: middle" x="135.411" y="329.038437" transform="rotate(-0 135.411 329.038437)">0.2</text>
     </g>
    </g>
    <g id="xtick_3">
     <g id="line2d_5">
      <path d="M 222.867 317.94 
L 222.867 14.76 
" clip-path="url(#pfe6135022a)" style="fill: none; stroke: #808080; stroke-width: 0.25; stroke-linecap: square"/>
     </g>
     <g id="line2d_6">
      <g>
       <use xlink:href="#m7212c35021" x="222.867" y="317.94" style="stroke: #000000; stroke-width: 0.8"/>
      </g>
     </g>
     <g id="text_3">
      <text style="font: 10px 'DejaVu Sans', 'Bitstream Vera Sans', 'Computer Modern Sans Serif', 'Lucida Grande', 'Verdana', 'Geneva', 'Lucid', 'Arial', 'Helvetica', 'Avant Garde', sans-serif; text-anchor: middle" x="222.867" y="329.038437" transform="rotate(-0 222.867 329.038437)">0.4</text>
     </g>
    </g>
    <g id="xtick_4">
     <g id="line2d_7">
      <path d="M 310.323 317.94 
L 310.323 14.76 
" clip-path="url(#pfe6135022a)" style="fill: none; stroke: #808080; stroke-width: 0.25; stroke-linecap: square"/>
     </g>
     <g id="line2d_8">
      <g>
       <use xlink:href="#m7212c35021" x="310.323" y="317.94" style="stroke: #000000; stroke-width: 0.8"/>
      </g>
     </g>
     <g id="text_4">
      <text style="font: 10px 'DejaVu Sans', 'Bitstream Vera Sans', 'Computer Modern Sans Serif', 'Lucida Grande', 'Verdana', 'Geneva', 'Lucid', 'Arial', 'Helvetica', 'Avant Garde', sans-serif; text-anchor: middle" x="310.323" y="329.038437" transform="rotate(-0 310.323 329.038437)">0.6</text>
     </g>
    </g>
    <g id="xtick_5">
     <g id="line2d_9">
      <path d="M 397.779 317.94 
L 397.779 14.76 
" clip-path="url(#pfe6135022a)" style="fill: none; stroke: #808080; stroke-width: 0.25; stroke-linecap: square"/>
     </g>
     <g id="line2d_10">
      <g>
       <use xlink:href="#m7212c35021" x="397.779" y="317.94" style="stroke: #000000; stroke-width: 0.8"/>
      </g>
     </g>
     <g id="text_5">
      <text style="font: 10px 'DejaVu Sans', 'Bitstream Vera Sans', 'Computer Modern Sans Serif', 'Lucida Grande', 'Verdana', 'Geneva', 'Lucid', 'Arial', 'Helvetica', 'Avant Garde', sans-serif; text-anchor: middle" x="397.779" y="329.038437" transform="rotate(-0 397.779 329.038437)">0.8</text>
     </g>
    </g>
    <g id="xtick_6">
     <g id="line2d_11">
      <path d="M 485.235 317.94 
L 485.235 14.76 
" clip-path="url(#pfe6135022a)" style="fill: none; stroke: #808080; stroke-width: 0.25; stroke-linecap: square"/>
     </g>
     <g id="line2d_12">
      <g>
       <use xlink:href="#m7212c35021" x="485.235" y="317.94" style="stroke: #000000; stroke-width: 0.8"/>
      </g>
     </g>
     <g id="text_6">
      <text style="font: 10px 'DejaVu Sans', 'Bitstream Vera Sans', 'Computer Modern Sans Serif', 'Lucida Grande', 'Verdana', 'Geneva', 'Lucid', 'Arial', 'Helvetica', 'Avant Garde', sans-serif; text-anchor: middle" x="485.235" y="329.038437" transform="rotate(-0 485.235 329.038437)">1.0</text>
     </g>
    </g>
    <g id="text_7">
     <text style="font: 14px 'DejaVu Sans', 'Bitstream Vera Sans', 'Computer Modern Sans Serif', 'Lucida Grande', 'Verdana', 'Geneva', 'Lucid', 'Arial', 'Helvetica', 'Avant Garde', sans-serif; text-anchor: middle" x="266.595" y="345.755938" transform="rotate(-0 266.595 345.755938)">AFM-LIS</text>
    </g>
   </g>
   <g id="matplotlib.axis_2">
    <g id="ytick_1">
     <g id="line2d_13">
      <path d="M 47.955 317.94 
L 485.235 317.94 
" clip-path="url(#pfe6135022a)" style="fill: none; stroke: #808080; stroke-width: 0.25; stroke-linecap: square"/>
     </g>
     <g id="line2d_14">
      <defs>
       <path id="m392b24093e" d="M 0 0 
L 3.5 0 
" style="stroke: #000000; stroke-width: 0.8"/>
      </defs>
      <g>
       <use xlink:href="#m392b24093e" x="47.955" y="317.94" style="stroke: #000000; stroke-width: 0.8"/>
      </g>
     </g>
     <g id="text_8">
      <text style="font: 10px 'DejaVu Sans', 'Bitstream Vera Sans', 'Computer Modern Sans Serif', 'Lucida Grande', 'Verdana', 'Geneva', 'Lucid', 'Arial', 'Helvetica', 'Avant Garde', sans-serif; text-anchor: end" x="44.455" y="321.739219" transform="rotate(-0 44.455 321.739219)">0.0</text>
     </g>
    </g>
    <g id="ytick_2">
     <g id="line2d_15">
      <path d="M 47.955 257.304 
L 485.235 257.304 
" clip-path="url(#pfe6135022a)" style="fill: none; stroke: #808080; stroke-width: 0.25; stroke-linecap: square"/>
     </g>
     <g id="line2d_16">
      <g>
       <use xlink:href="#m392b24093e" x="47.955" y="257.304" style="stroke: #000000; stroke-width: 0.8"/>
      </g>
     </g>
     <g id="text_9">
      <text style="font: 10px 'DejaVu Sans', 'Bitstream Vera Sans', 'Computer Modern Sans Serif', 'Lucida Grande', 'Verdana', 'Geneva', 'Lucid', 'Arial', 'Helvetica', 'Avant Garde', sans-serif; text-anchor: end" x="44.455" y="261.103219" transform="rotate(-0 44.455 261.103219)">0.2</text>
     </g>
    </g>
    <g id="ytick_3">
     <g id="line2d_17">
      <path d="M 47.955 196.668 
L 485.235 196.668 
" clip-path="url(#pfe6135022a)" style="fill: none; stroke: #808080; stroke-width: 0.25; stroke-linecap: square"/>
     </g>
     <g id="line2d_18">
      <g>
       <use xlink:href="#m392b24093e" x="47.955" y="196.668" style="stroke: #000000; stroke-width: 0.8"/>
      </g>
     </g>
     <g id="text_10">
      <text style="font: 10px 'DejaVu Sans', 'Bitstream Vera Sans', 'Computer Modern Sans Serif', 'Lucida Grande', 'Verdana', 'Geneva', 'Lucid', 'Arial', 'Helvetica', 'Avant Garde', sans-serif; text-anchor: end" x="44.455" y="200.467219" transform="rotate(-0 44.455 200.467219)">0.4</text>
     </g>
    </g>
    <g id="ytick_4">
     <g id="line2d_19">
      <path d="M 47.955 136.032 
L 485.235 136.032 
" clip-path="url(#pfe6135022a)" style="fill: none; stroke: #808080; stroke-width: 0.25; stroke-linecap: square"/>
     </g>
     <g id="line2d_20">
      <g>
       <use xlink:href="#m392b24093e" x="47.955" y="136.032" style="stroke: #000000; stroke-width: 0.8"/>
      </g>
     </g>
     <g id="text_11">
      <text style="font: 10px 'DejaVu Sans', 'Bitstream Vera Sans', 'Computer Modern Sans Serif', 'Lucida Grande', 'Verdana', 'Geneva', 'Lucid', 'Arial', 'Helvetica', 'Avant Garde', sans-serif; text-anchor: end" x="44.455" y="139.831219" transform="rotate(-0 44.455 139.831219)">0.6</text>
     </g>
    </g>
    <g id="ytick_5">
     <g id="line2d_21">
      <path d="M 47.955 75.396 
L 485.235 75.396 
" clip-path="url(#pfe6135022a)" style="fill: none; stroke: #808080; stroke-width: 0.25; stroke-linecap: square"/>
     </g>
     <g id="line2d_22">
      <g>
       <use xlink:href="#m392b24093e" x="47.955" y="75.396" style="stroke: #000000; stroke-width: 0.8"/>
      </g>
     </g>
     <g id="text_12">
      <text style="font: 10px 'DejaVu Sans', 'Bitstream Vera Sans', 'Computer Modern Sans Serif', 'Lucida Grande', 'Verdana', 'Geneva', 'Lucid', 'Arial', 'Helvetica', 'Avant Garde', sans-serif; text-anchor: end" x="44.455" y="79.195219" transform="rotate(-0 44.455 79.195219)">0.8</text>
     </g>
    </g>
    <g id="ytick_6">
     <g id="line2d_23">
      <path d="M 47.955 14.76 
L 485.235 14.76 
" clip-path="url(#pfe6135022a)" style="fill: none; stroke: #808080; stroke-width: 0.25; stroke-linecap: square"/>
     </g>
     <g id="line2d_24">
      <g>
       <use xlink:href="#m392b24093e" x="47.955" y="14.76" style="stroke: #000000; stroke-width: 0.8"/>
      </g>
     </g>
     <g id="text_13">
      <text style="font: 10px 'DejaVu Sans', 'Bitstream Vera Sans', 'Computer Modern Sans Serif', 'Lucida Grande', 'Verdana', 'Geneva', 'Lucid', 'Arial', 'Helvetica', 'Avant Garde', sans-serif; text-anchor: end" x="44.455" y="18.559219" transform="rotate(-0 44.455 18.559219)">1.0</text>
     </g>
    </g>
    <g id="text_14">
     <text style="font: 14px 'DejaVu Sans', 'Bitstream Vera Sans', 'Computer Modern Sans Serif', 'Lucida Grande', 'Verdana', 'Geneva', 'Lucid', 'Arial', 'Helvetica', 'Avant Garde', sans-serif; text-anchor: middle" x="21.640313" y="166.35" transform="rotate(-90 21.640313 166.35)">DockQ score</text>
    </g>
   </g>
   <g id="line2d_25">
    <path d="M 47.955 246.210255 
L 51.095465 244.113495 
L 54.235931 242.016735 
L 57.376396 239.919974 
L 60.516862 237.823214 
L 63.657327 235.726454 
L 66.797793 233.629694 
L 69.938258 231.532933 
L 73.078724 229.436173 
L 76.219189 227.339413 
L 79.359655 225.242653 
L 82.50012 223.145893 
L 85.640585 221.049132 
L 88.781051 218.952372 
L 91.921516 216.855612 
L 95.061982 214.758852 
L 98.202447 212.662091 
L 101.342913 210.565331 
L 104.483378 208.468571 
L 107.623844 206.371811 
L 110.764309 204.275051 
L 113.904775 202.17829 
L 117.04524 200.08153 
L 120.185705 197.98477 
L 123.326171 195.88801 
L 126.466636 193.791249 
L 129.607102 191.694489 
L 132.747567 189.597729 
L 135.888033 187.500969 
L 139.028498 185.404209 
L 142.168964 183.307448 
L 145.309429 181.210688 
L 148.449895 179.113928 
L 151.59036 177.017168 
L 154.730825 174.920407 
L 157.871291 172.823647 
L 161.011756 170.726887 
L 164.152222 168.630127 
L 167.292687 166.533367 
L 170.433153 164.436606 
L 173.573618 162.339846 
L 176.714084 160.243086 
L 179.854549 158.146326 
L 182.995015 156.049565 
L 186.13548 153.952805 
L 189.275945 151.856045 
L 192.416411 149.759285 
L 195.556876 147.662525 
L 198.697342 145.565764 
L 201.837807 143.469004 
L 204.978273 141.372244 
L 208.118738 139.275484 
L 211.259204 137.178723 
L 214.399669 135.081963 
L 217.540135 132.985203 
L 220.6806 130.888443 
L 223.821065 128.791682 
L 226.961531 126.694922 
L 230.101996 124.598162 
L 233.242462 122.501402 
L 236.382927 120.404642 
L 239.523393 118.307881 
L 242.663858 116.211121 
L 245.804324 114.114361 
L 248.944789 112.017601 
L 252.085255 109.92084 
L 255.22572 107.82408 
L 258.366185 105.72732 
L 261.506651 103.63056 
L 264.647116 101.5338 
L 267.787582 99.437039 
L 270.928047 97.340279 
L 274.068513 95.243519 
L 277.208978 93.146759 
L 280.349444 91.049998 
L 283.489909 88.953238 
L 286.630375 86.856478 
L 289.77084 84.759718 
L 292.911305 82.662958 
L 296.051771 80.566197 
L 299.192236 78.469437 
L 302.332702 76.372677 
L 305.473167 74.275917 
L 308.613633 72.179156 
L 311.754098 70.082396 
L 314.894564 67.985636 
L 318.035029 65.888876 
L 321.175495 63.792116 
L 324.31596 61.695355 
L 327.456425 59.598595 
L 330.596891 57.501835 
L 333.737356 55.405075 
L 336.877822 53.308314 
L 340.018287 51.211554 
L 343.158753 49.114794 
L 346.299218 47.018034 
L 349.439684 44.921273 
L 352.580149 42.824513 
L 355.720615 40.727753 
L 358.86108 38.630993 
" clip-path="url(#pfe6135022a)" style="fill: none; stroke: #115185; stroke-width: 2; stroke-linecap: square"/>
   </g>
   <g id="line2d_26">
    <path d="M 56.7006 240.687446 
L 59.65997 238.735291 
L 62.619339 236.783137 
L 65.578709 234.830983 
L 68.538079 232.878829 
L 71.497448 230.926675 
L 74.456818 228.974521 
L 77.416188 227.022366 
L 80.375558 225.070212 
L 83.334927 223.118058 
L 86.294297 221.165904 
L 89.253667 219.21375 
L 92.213036 217.261596 
L 95.172406 215.309441 
L 98.131776 213.357287 
L 101.091145 211.405133 
L 104.050515 209.452979 
L 107.009885 207.500825 
L 109.969255 205.548671 
L 112.928624 203.596516 
L 115.887994 201.644362 
L 118.847364 199.692208 
L 121.806733 197.740054 
L 124.766103 195.7879 
L 127.725473 193.835746 
L 130.684842 191.883591 
L 133.644212 189.931437 
L 136.603582 187.979283 
L 139.562952 186.027129 
L 142.522321 184.074975 
L 145.481691 182.122821 
L 148.441061 180.170666 
L 151.40043 178.218512 
L 154.3598 176.266358 
L 157.31917 174.314204 
L 160.278539 172.36205 
L 163.237909 170.409896 
L 166.197279 168.457741 
L 169.156648 166.505587 
L 172.116018 164.553433 
L 175.075388 162.601279 
L 178.034758 160.649125 
L 180.994127 158.696971 
L 183.953497 156.744816 
L 186.912867 154.792662 
L 189.872236 152.840508 
L 192.831606 150.888354 
L 195.790976 148.9362 
L 198.750345 146.984046 
L 201.709715 145.031891 
L 204.669085 143.079737 
L 207.628455 141.127583 
L 210.587824 139.175429 
L 213.547194 137.223275 
L 216.506564 135.271121 
L 219.465933 133.318966 
L 222.425303 131.366812 
L 225.384673 129.414658 
L 228.344042 127.462504 
L 231.303412 125.51035 
L 234.262782 123.558196 
L 237.222152 121.606041 
L 240.181521 119.653887 
L 243.140891 117.701733 
L 246.100261 115.749579 
L 249.05963 113.797425 
L 252.019 111.845271 
L 254.97837 109.893116 
L 257.937739 107.940962 
L 260.897109 105.988808 
L 263.856479 104.036654 
L 266.815848 102.0845 
L 269.775218 100.132346 
L 272.734588 98.180191 
L 275.693958 96.228037 
L 278.653327 94.275883 
L 281.612697 92.323729 
L 284.572067 90.371575 
L 287.531436 88.419421 
L 290.490806 86.467266 
L 293.450176 84.515112 
L 296.409545 82.562958 
L 299.368915 80.610804 
L 302.328285 78.65865 
L 305.287655 76.706496 
L 308.247024 74.754341 
L 311.206394 72.802187 
L 314.165764 70.850033 
L 317.125133 68.897879 
L 320.084503 66.945725 
L 323.043873 64.993571 
L 326.003242 63.041416 
L 328.962612 61.089262 
L 331.921982 59.137108 
L 334.881352 57.184954 
L 337.840721 55.2328 
L 340.800091 53.280646 
L 343.759461 51.328491 
L 346.71883 49.376337 
L 349.6782 47.424183 
" clip-path="url(#pfe6135022a)" style="fill: none; stroke: #008fd7; stroke-width: 2; stroke-linecap: square"/>
   </g>
   <g id="line2d_27">
    <path d="M 287.430554 151.370574 
L 288.790764 150.851079 
L 290.150973 150.331583 
L 291.511183 149.812088 
L 292.871393 149.292592 
L 294.231602 148.773096 
L 295.591812 148.253601 
L 296.952022 147.734105 
L 298.312231 147.21461 
L 299.672441 146.695114 
L 301.032651 146.175619 
L 302.392861 145.656123 
L 303.75307 145.136627 
L 305.11328 144.617132 
L 306.47349 144.097636 
L 307.833699 143.578141 
L 309.193909 143.058645 
L 310.554119 142.539149 
L 311.914328 142.019654 
L 313.274538 141.500158 
L 314.634748 140.980663 
L 315.994957 140.461167 
L 317.355167 139.941672 
L 318.715377 139.422176 
L 320.075586 138.90268 
L 321.435796 138.383185 
L 322.796006 137.863689 
L 324.156215 137.344194 
L 325.516425 136.824698 
L 326.876635 136.305203 
L 328.236844 135.785707 
L 329.597054 135.266211 
L 330.957264 134.746716 
L 332.317474 134.22722 
L 333.677683 133.707725 
L 335.037893 133.188229 
L 336.398103 132.668734 
L 337.758312 132.149238 
L 339.118522 131.629742 
L 340.478732 131.110247 
L 341.838941 130.590751 
L 343.199151 130.071256 
L 344.559361 129.55176 
L 345.91957 129.032264 
L 347.27978 128.512769 
L 348.63999 127.993273 
L 350.000199 127.473778 
L 351.360409 126.954282 
L 352.720619 126.434787 
L 354.080828 125.915291 
L 355.441038 125.395795 
L 356.801248 124.8763 
L 358.161457 124.356804 
L 359.521667 123.837309 
L 360.881877 123.317813 
L 362.242087 122.798318 
L 363.602296 122.278822 
L 364.962506 121.759326 
L 366.322716 121.239831 
L 367.682925 120.720335 
L 369.043135 120.20084 
L 370.403345 119.681344 
L 371.763554 119.161849 
L 373.123764 118.642353 
L 374.483974 118.122857 
L 375.844183 117.603362 
L 377.204393 117.083866 
L 378.564603 116.564371 
L 379.924812 116.044875 
L 381.285022 115.525379 
L 382.645232 115.005884 
L 384.005441 114.486388 
L 385.365651 113.966893 
L 386.725861 113.447397 
L 388.08607 112.927902 
L 389.44628 112.408406 
L 390.80649 111.88891 
L 392.1667 111.369415 
L 393.526909 110.849919 
L 394.887119 110.330424 
L 396.247329 109.810928 
L 397.607538 109.291433 
L 398.967748 108.771937 
L 400.327958 108.252441 
L 401.688167 107.732946 
L 403.048377 107.21345 
L 404.408587 106.693955 
L 405.768796 106.174459 
L 407.129006 105.654964 
L 408.489216 105.135468 
L 409.849425 104.615972 
L 411.209635 104.096477 
L 412.569845 103.576981 
L 413.930054 103.057486 
L 415.290264 102.53799 
L 416.650474 102.018494 
L 418.010683 101.498999 
L 419.370893 100.979503 
L 420.731103 100.460008 
L 422.091313 99.940512 
" clip-path="url(#pfe6135022a)" style="fill: none; stroke: #061f4a; stroke-width: 2; stroke-linecap: square"/>
   </g>
   <g id="patch_3">
    <path d="M 47.955 317.94 
L 47.955 14.76 
" style="fill: none; stroke: #000000; stroke-width: 0.8; stroke-linejoin: miter; stroke-linecap: square"/>
   </g>
   <g id="patch_4">
    <path d="M 485.235 317.94 
L 485.235 14.76 
" style="fill: none; stroke: #000000; stroke-width: 0.8; stroke-linejoin: miter; stroke-linecap: square"/>
   </g>
   <g id="patch_5">
    <path d="M 47.955 317.94 
L 485.235 317.94 
" style="fill: none; stroke: #000000; stroke-width: 0.8; stroke-linejoin: miter; stroke-linecap: square"/>
   </g>
   <g id="patch_6">
    <path d="M 47.955 14.76 
L 485.235 14.76 
" style="fill: none; stroke: #000000; stroke-width: 0.8; stroke-linejoin: miter; stroke-linecap: square"/>
   </g>
   <g id="legend_1">
    <g id="patch_7">
     <path d="M 298.16 316.34 
L 480.435 316.34 
Q 483.635 316.34 483.635 313.14 
L 483.635 259.317187 
Q 483.635 256.117188 480.435 256.117188 
L 298.16 256.117188 
Q 294.96 256.117188 294.96 259.317187 
L 294.96 313.14 
Q 294.96 316.34 298.16 316.34 
z
" style="fill: #ffffff; stroke: #cccccc; stroke-width: 0.25; stroke-linejoin: miter"/>
    </g>
    <g id="text_15">
     <text style="font: 1px 'DejaVu Sans', 'Bitstream Vera Sans', 'Computer Modern Sans Serif', 'Lucida Grande', 'Verdana', 'Geneva', 'Lucid', 'Arial', 'Helvetica', 'Avant Garde', sans-serif; text-anchor: start" x="387.796172" y="258.477031" transform="rotate(-0 387.796172 258.477031)">Model</text>
    </g>
    <g id="PathCollection_4">
     <g>
      <use xlink:href="#m9e8ad4f994" x="312.56" y="269.8425" style="fill: #115185; fill-opacity: 0.8; stroke: #115185; stroke-opacity: 0.8"/>
     </g>
    </g>
    <g id="text_16">
     <text style="font: 16px 'DejaVu Sans', 'Bitstream Vera Sans', 'Computer Modern Sans Serif', 'Lucida Grande', 'Verdana', 'Geneva', 'Lucid', 'Arial', 'Helvetica', 'Avant Garde', sans-serif; text-anchor: start" x="328.56" y="274.0425" transform="rotate(-0 328.56 274.0425)">AF2</text>
    </g>
    <g id="PathCollection_5">
     <g>
      <use xlink:href="#m6138b618ef" x="312.56" y="288.5275" style="fill: #008fd7; fill-opacity: 0.8; stroke: #008fd7; stroke-opacity: 0.8"/>
     </g>
    </g>
    <g id="text_17">
     <text style="font: 16px 'DejaVu Sans', 'Bitstream Vera Sans', 'Computer Modern Sans Serif', 'Lucida Grande', 'Verdana', 'Geneva', 'Lucid', 'Arial', 'Helvetica', 'Avant Garde', sans-serif; text-anchor: start" x="328.56" y="292.7275" transform="rotate(-0 328.56 292.7275)">AF2 (no templates)</text>
    </g>
    <g id="PathCollection_6">
     <g>
      <use xlink:href="#md50d04abc3" x="312.56" y="307.2125" style="fill: #061f4a; fill-opacity: 0.8; stroke: #061f4a; stroke-opacity: 0.8"/>
     </g>
    </g>
    <g id="text_18">
     <text style="font: 16px 'DejaVu Sans', 'Bitstream Vera Sans', 'Computer Modern Sans Serif', 'Lucida Grande', 'Verdana', 'Geneva', 'Lucid', 'Arial', 'Helvetica', 'Avant Garde', sans-serif; text-anchor: start" x="328.56" y="311.4125" transform="rotate(-0 328.56 311.4125)">AF3</text>
    </g>
   </g>
  </g>
 </g>
 <defs>
  <clipPath id="pfe6135022a">
   <rect x="47.955" y="14.76" width="437.28" height="303.18"/>
  </clipPath>
 </defs>
</svg>
