<?xml version="1.0" encoding="utf-8" standalone="no"?>
<!DOCTYPE svg PUBLIC "-//W3C//DTD SVG 1.1//EN"
  "http://www.w3.org/Graphics/SVG/1.1/DTD/svg11.dtd">
<svg xmlns:xlink="http://www.w3.org/1999/xlink" width="504pt" height="360pt" viewBox="0 0 504 360" xmlns="http://www.w3.org/2000/svg" version="1.1">
 <metadata>
  <rdf:RDF xmlns:dc="http://purl.org/dc/elements/1.1/" xmlns:cc="http://creativecommons.org/ns#" xmlns:rdf="http://www.w3.org/1999/02/22-rdf-syntax-ns#">
   <cc:Work>
    <dc:type rdf:resource="http://purl.org/dc/dcmitype/StillImage"/>
    <dc:date>2025-03-12T12:12:57.764183</dc:date>
    <dc:format>image/svg+xml</dc:format>
    <dc:creator>
     <cc:Agent>
      <dc:title>Matplotlib v3.7.3, https://matplotlib.org/</dc:title>
     </cc:Agent>
    </dc:creator>
   </cc:Work>
  </rdf:RDF>
 </metadata>
 <defs>
  <style type="text/css">*{stroke-linejoin: round; stroke-linecap: butt}</style>
 </defs>
 <g id="figure_1">
  <g id="patch_1">
   <path d="M 0 360 
L 504 360 
L 504 0 
L 0 0 
z
" style="fill: #ffffff"/>
  </g>
  <g id="axes_1">
   <g id="patch_2">
    <path d="M 47.955 317.94 
L 485.235 317.94 
L 485.235 14.76 
L 47.955 14.76 
z
" style="fill: #ffffff"/>
   </g>
   <g id="PathCollection_1">
    <defs>
     <path id="m8eb2d4ccea" d="M 0 2.236068 
C 0.593012 2.236068 1.161816 2.000462 1.581139 1.581139 
C 2.000462 1.161816 2.236068 0.593012 2.236068 0 
C 2.236068 -0.593012 2.000462 -1.161816 1.581139 -1.581139 
C 1.161816 -2.000462 0.593012 -2.236068 0 -2.236068 
C -0.593012 -2.236068 -1.161816 -2.000462 -1.581139 -1.581139 
C -2.000462 -1.161816 -2.236068 -0.593012 -2.236068 0 
C -2.236068 0.593012 -2.000462 1.161816 -1.581139 1.581139 
C -1.161816 2.000462 -0.593012 2.236068 0 2.236068 
z
" style="stroke: #115185; stroke-opacity: 0.8"/>
    </defs>
    <g clip-path="url(#pde490f4edc)">
     <use xlink:href="#m8eb2d4ccea" x="282.33708" y="107.739377" style="fill: #115185; fill-opacity: 0.8; stroke: #115185; stroke-opacity: 0.8"/>
     <use xlink:href="#m8eb2d4ccea" x="186.57276" y="114.257151" style="fill: #115185; fill-opacity: 0.8; stroke: #115185; stroke-opacity: 0.8"/>
     <use xlink:href="#m8eb2d4ccea" x="220.6806" y="74.042033" style="fill: #115185; fill-opacity: 0.8; stroke: #115185; stroke-opacity: 0.8"/>
     <use xlink:href="#m8eb2d4ccea" x="253.03932" y="73.275686" style="fill: #115185; fill-opacity: 0.8; stroke: #115185; stroke-opacity: 0.8"/>
     <use xlink:href="#m8eb2d4ccea" x="204.93852" y="79.71937" style="fill: #115185; fill-opacity: 0.8; stroke: #115185; stroke-opacity: 0.8"/>
     <use xlink:href="#m8eb2d4ccea" x="225.49068" y="59.784565" style="fill: #115185; fill-opacity: 0.8; stroke: #115185; stroke-opacity: 0.8"/>
     <use xlink:href="#m8eb2d4ccea" x="252.16476" y="102.434025" style="fill: #115185; fill-opacity: 0.8; stroke: #115185; stroke-opacity: 0.8"/>
     <use xlink:href="#m8eb2d4ccea" x="279.7134" y="83.900745" style="fill: #115185; fill-opacity: 0.8; stroke: #115185; stroke-opacity: 0.8"/>
     <use xlink:href="#m8eb2d4ccea" x="303.7638" y="65.957525" style="fill: #115185; fill-opacity: 0.8; stroke: #115185; stroke-opacity: 0.8"/>
     <use xlink:href="#m8eb2d4ccea" x="282.77436" y="83.905162" style="fill: #115185; fill-opacity: 0.8; stroke: #115185; stroke-opacity: 0.8"/>
     <use xlink:href="#m8eb2d4ccea" x="326.06508" y="70.043935" style="fill: #115185; fill-opacity: 0.8; stroke: #115185; stroke-opacity: 0.8"/>
     <use xlink:href="#m8eb2d4ccea" x="290.20812" y="93.018203" style="fill: #115185; fill-opacity: 0.8; stroke: #115185; stroke-opacity: 0.8"/>
     <use xlink:href="#m8eb2d4ccea" x="155.0886" y="166.420964" style="fill: #115185; fill-opacity: 0.8; stroke: #115185; stroke-opacity: 0.8"/>
     <use xlink:href="#m8eb2d4ccea" x="248.22924" y="75.10591" style="fill: #115185; fill-opacity: 0.8; stroke: #115185; stroke-opacity: 0.8"/>
     <use xlink:href="#m8eb2d4ccea" x="260.91036" y="265.772744" style="fill: #115185; fill-opacity: 0.8; stroke: #115185; stroke-opacity: 0.8"/>
     <use xlink:href="#m8eb2d4ccea" x="271.84236" y="113.441914" style="fill: #115185; fill-opacity: 0.8; stroke: #115185; stroke-opacity: 0.8"/>
     <use xlink:href="#m8eb2d4ccea" x="232.04988" y="90.971738" style="fill: #115185; fill-opacity: 0.8; stroke: #115185; stroke-opacity: 0.8"/>
     <use xlink:href="#m8eb2d4ccea" x="358.86108" y="78.93554" style="fill: #115185; fill-opacity: 0.8; stroke: #115185; stroke-opacity: 0.8"/>
     <use xlink:href="#m8eb2d4ccea" x="279.7134" y="30.620869" style="fill: #115185; fill-opacity: 0.8; stroke: #115185; stroke-opacity: 0.8"/>
     <use xlink:href="#m8eb2d4ccea" x="288.459" y="40.096303" style="fill: #115185; fill-opacity: 0.8; stroke: #115185; stroke-opacity: 0.8"/>
     <use xlink:href="#m8eb2d4ccea" x="310.76028" y="51.728482" style="fill: #115185; fill-opacity: 0.8; stroke: #115185; stroke-opacity: 0.8"/>
     <use xlink:href="#m8eb2d4ccea" x="312.07212" y="57.656953" style="fill: #115185; fill-opacity: 0.8; stroke: #115185; stroke-opacity: 0.8"/>
     <use xlink:href="#m8eb2d4ccea" x="273.59148" y="62.709806" style="fill: #115185; fill-opacity: 0.8; stroke: #115185; stroke-opacity: 0.8"/>
     <use xlink:href="#m8eb2d4ccea" x="190.94556" y="311.890393" style="fill: #115185; fill-opacity: 0.8; stroke: #115185; stroke-opacity: 0.8"/>
     <use xlink:href="#m8eb2d4ccea" x="301.14012" y="118.993857" style="fill: #115185; fill-opacity: 0.8; stroke: #115185; stroke-opacity: 0.8"/>
     <use xlink:href="#m8eb2d4ccea" x="265.28316" y="116.526525" style="fill: #115185; fill-opacity: 0.8; stroke: #115185; stroke-opacity: 0.8"/>
     <use xlink:href="#m8eb2d4ccea" x="306.82476" y="98.140013" style="fill: #115185; fill-opacity: 0.8; stroke: #115185; stroke-opacity: 0.8"/>
     <use xlink:href="#m8eb2d4ccea" x="264.4086" y="65.17189" style="fill: #115185; fill-opacity: 0.8; stroke: #115185; stroke-opacity: 0.8"/>
     <use xlink:href="#m8eb2d4ccea" x="281.46252" y="89.068785" style="fill: #115185; fill-opacity: 0.8; stroke: #115185; stroke-opacity: 0.8"/>
     <use xlink:href="#m8eb2d4ccea" x="47.955" y="308.832814" style="fill: #115185; fill-opacity: 0.8; stroke: #115185; stroke-opacity: 0.8"/>
     <use xlink:href="#m8eb2d4ccea" x="162.95964" y="88.683781" style="fill: #115185; fill-opacity: 0.8; stroke: #115185; stroke-opacity: 0.8"/>
     <use xlink:href="#m8eb2d4ccea" x="240.3582" y="51.969637" style="fill: #115185; fill-opacity: 0.8; stroke: #115185; stroke-opacity: 0.8"/>
     <use xlink:href="#m8eb2d4ccea" x="264.4086" y="191.723001" style="fill: #115185; fill-opacity: 0.8; stroke: #115185; stroke-opacity: 0.8"/>
     <use xlink:href="#m8eb2d4ccea" x="230.30076" y="212.845402" style="fill: #115185; fill-opacity: 0.8; stroke: #115185; stroke-opacity: 0.8"/>
     <use xlink:href="#m8eb2d4ccea" x="117.9198" y="250.159048" style="fill: #115185; fill-opacity: 0.8; stroke: #115185; stroke-opacity: 0.8"/>
     <use xlink:href="#m8eb2d4ccea" x="95.61852" y="241.310344" style="fill: #115185; fill-opacity: 0.8; stroke: #115185; stroke-opacity: 0.8"/>
     <use xlink:href="#m8eb2d4ccea" x="139.7838" y="223.713034" style="fill: #115185; fill-opacity: 0.8; stroke: #115185; stroke-opacity: 0.8"/>
     <use xlink:href="#m8eb2d4ccea" x="148.5294" y="194.928739" style="fill: #115185; fill-opacity: 0.8; stroke: #115185; stroke-opacity: 0.8"/>
     <use xlink:href="#m8eb2d4ccea" x="167.76972" y="209.032883" style="fill: #115185; fill-opacity: 0.8; stroke: #115185; stroke-opacity: 0.8"/>
     <use xlink:href="#m8eb2d4ccea" x="291.95724" y="99.363719" style="fill: #115185; fill-opacity: 0.8; stroke: #115185; stroke-opacity: 0.8"/>
     <use xlink:href="#m8eb2d4ccea" x="208.87404" y="62.650719" style="fill: #115185; fill-opacity: 0.8; stroke: #115185; stroke-opacity: 0.8"/>
     <use xlink:href="#m8eb2d4ccea" x="179.139" y="132.675155" style="fill: #115185; fill-opacity: 0.8; stroke: #115185; stroke-opacity: 0.8"/>
     <use xlink:href="#m8eb2d4ccea" x="204.06396" y="111.986294" style="fill: #115185; fill-opacity: 0.8; stroke: #115185; stroke-opacity: 0.8"/>
     <use xlink:href="#m8eb2d4ccea" x="308.1366" y="69.435427" style="fill: #115185; fill-opacity: 0.8; stroke: #115185; stroke-opacity: 0.8"/>
     <use xlink:href="#m8eb2d4ccea" x="249.54108" y="78.211574" style="fill: #115185; fill-opacity: 0.8; stroke: #115185; stroke-opacity: 0.8"/>
     <use xlink:href="#m8eb2d4ccea" x="274.46604" y="91.526772" style="fill: #115185; fill-opacity: 0.8; stroke: #115185; stroke-opacity: 0.8"/>
     <use xlink:href="#m8eb2d4ccea" x="281.46252" y="49.557412" style="fill: #115185; fill-opacity: 0.8; stroke: #115185; stroke-opacity: 0.8"/>
     <use xlink:href="#m8eb2d4ccea" x="270.9678" y="92.435706" style="fill: #115185; fill-opacity: 0.8; stroke: #115185; stroke-opacity: 0.8"/>
     <use xlink:href="#m8eb2d4ccea" x="298.95372" y="73.440973" style="fill: #115185; fill-opacity: 0.8; stroke: #115185; stroke-opacity: 0.8"/>
     <use xlink:href="#m8eb2d4ccea" x="309.44844" y="67.617217" style="fill: #115185; fill-opacity: 0.8; stroke: #115185; stroke-opacity: 0.8"/>
     <use xlink:href="#m8eb2d4ccea" x="312.5094" y="68.24292" style="fill: #115185; fill-opacity: 0.8; stroke: #115185; stroke-opacity: 0.8"/>
     <use xlink:href="#m8eb2d4ccea" x="289.77084" y="113.204681" style="fill: #115185; fill-opacity: 0.8; stroke: #115185; stroke-opacity: 0.8"/>
     <use xlink:href="#m8eb2d4ccea" x="129.72636" y="201.096635" style="fill: #115185; fill-opacity: 0.8; stroke: #115185; stroke-opacity: 0.8"/>
     <use xlink:href="#m8eb2d4ccea" x="159.89868" y="154.448518" style="fill: #115185; fill-opacity: 0.8; stroke: #115185; stroke-opacity: 0.8"/>
     <use xlink:href="#m8eb2d4ccea" x="155.0886" y="134.412927" style="fill: #115185; fill-opacity: 0.8; stroke: #115185; stroke-opacity: 0.8"/>
     <use xlink:href="#m8eb2d4ccea" x="177.38988" y="129.576166" style="fill: #115185; fill-opacity: 0.8; stroke: #115185; stroke-opacity: 0.8"/>
     <use xlink:href="#m8eb2d4ccea" x="203.62668" y="83.125777" style="fill: #115185; fill-opacity: 0.8; stroke: #115185; stroke-opacity: 0.8"/>
     <use xlink:href="#m8eb2d4ccea" x="313.38396" y="97.158879" style="fill: #115185; fill-opacity: 0.8; stroke: #115185; stroke-opacity: 0.8"/>
     <use xlink:href="#m8eb2d4ccea" x="249.97836" y="182.065214" style="fill: #115185; fill-opacity: 0.8; stroke: #115185; stroke-opacity: 0.8"/>
     <use xlink:href="#m8eb2d4ccea" x="261.34764" y="90.492262" style="fill: #115185; fill-opacity: 0.8; stroke: #115185; stroke-opacity: 0.8"/>
     <use xlink:href="#m8eb2d4ccea" x="261.78492" y="87.663738" style="fill: #115185; fill-opacity: 0.8; stroke: #115185; stroke-opacity: 0.8"/>
     <use xlink:href="#m8eb2d4ccea" x="330.87516" y="52.245851" style="fill: #115185; fill-opacity: 0.8; stroke: #115185; stroke-opacity: 0.8"/>
     <use xlink:href="#m8eb2d4ccea" x="225.0534" y="110.127837" style="fill: #115185; fill-opacity: 0.8; stroke: #115185; stroke-opacity: 0.8"/>
     <use xlink:href="#m8eb2d4ccea" x="253.4766" y="109.064853" style="fill: #115185; fill-opacity: 0.8; stroke: #115185; stroke-opacity: 0.8"/>
     <use xlink:href="#m8eb2d4ccea" x="305.07564" y="91.766417" style="fill: #115185; fill-opacity: 0.8; stroke: #115185; stroke-opacity: 0.8"/>
     <use xlink:href="#m8eb2d4ccea" x="309.44844" y="120.988525" style="fill: #115185; fill-opacity: 0.8; stroke: #115185; stroke-opacity: 0.8"/>
     <use xlink:href="#m8eb2d4ccea" x="284.52348" y="105.878972" style="fill: #115185; fill-opacity: 0.8; stroke: #115185; stroke-opacity: 0.8"/>
    </g>
   </g>
   <g id="PolyCollection_1">
    <path d="M 47.955 198.771643 
L 47.955 279.305402 
L 51.095465 276.891559 
L 54.235931 274.476225 
L 57.376396 272.055685 
L 60.516862 269.511185 
L 63.657327 266.915026 
L 66.797793 264.367581 
L 69.938258 261.906208 
L 73.078724 259.444836 
L 76.219189 256.983464 
L 79.359655 254.522091 
L 82.50012 252.060719 
L 85.640585 249.594692 
L 88.781051 247.124027 
L 91.921516 244.552271 
L 95.061982 242.134153 
L 98.202447 239.732272 
L 101.342913 237.272581 
L 104.483378 234.81289 
L 107.623844 232.353198 
L 110.764309 229.893507 
L 113.904775 227.433816 
L 117.04524 224.967322 
L 120.185705 222.499732 
L 123.326171 220.091138 
L 126.466636 217.573012 
L 129.607102 215.113348 
L 132.747567 212.653684 
L 135.888033 210.188378 
L 139.028498 207.723446 
L 142.168964 205.312781 
L 145.309429 202.798282 
L 148.449895 200.338311 
L 151.59036 197.793162 
L 154.730825 195.407631 
L 157.871291 192.949372 
L 161.011756 190.486589 
L 164.152222 188.023358 
L 167.292687 185.560126 
L 170.433153 183.186079 
L 173.573618 180.780688 
L 176.714084 178.288279 
L 179.854549 175.790572 
L 182.995015 173.322512 
L 186.13548 171.045238 
L 189.275945 168.578838 
L 192.416411 166.29966 
L 195.556876 163.930546 
L 198.697342 161.561432 
L 201.837807 159.251779 
L 204.978273 156.807804 
L 208.118738 154.156584 
L 211.259204 152.019824 
L 214.399669 149.49927 
L 217.540135 147.098405 
L 220.6806 144.632718 
L 223.821065 142.424284 
L 226.961531 140.19854 
L 230.101996 137.827326 
L 233.242462 135.452136 
L 236.382927 132.992299 
L 239.523393 130.777839 
L 242.663858 128.537112 
L 245.804324 126.230222 
L 248.944789 124.051796 
L 252.085255 122.015103 
L 255.22572 119.83205 
L 258.366185 117.547298 
L 261.506651 115.453472 
L 264.647116 113.266169 
L 267.787582 111.087507 
L 270.928047 109.166267 
L 274.068513 106.839215 
L 277.208978 105.08077 
L 280.349444 102.761018 
L 283.489909 100.984337 
L 286.630375 98.898986 
L 289.77084 97.020726 
L 292.911305 94.908545 
L 296.051771 92.953462 
L 299.192236 91.00783 
L 302.332702 89.366756 
L 305.473167 87.651253 
L 308.613633 85.705483 
L 311.754098 83.923552 
L 314.894564 82.168965 
L 318.035029 80.320805 
L 321.175495 78.553828 
L 324.31596 76.847391 
L 327.456425 75.150259 
L 330.596891 73.29425 
L 333.737356 71.793841 
L 336.877822 70.19308 
L 340.018287 68.739123 
L 343.158753 67.170889 
L 346.299218 65.505174 
L 349.439684 63.863642 
L 352.580149 62.169911 
L 355.720615 60.426552 
L 358.86108 58.806674 
L 358.86108 21.591186 
L 358.86108 21.591186 
L 355.720615 23.877737 
L 352.580149 26.376613 
L 349.439684 28.670363 
L 346.299218 31.137832 
L 343.158753 33.60547 
L 340.018287 36.073237 
L 336.877822 38.491411 
L 333.737356 40.956143 
L 330.596891 43.421211 
L 327.456425 45.94349 
L 324.31596 48.435191 
L 321.175495 50.877578 
L 318.035029 53.345046 
L 314.894564 55.74337 
L 311.754098 58.107148 
L 308.613633 60.438514 
L 305.473167 62.76834 
L 302.332702 65.100471 
L 299.192236 67.43292 
L 296.051771 69.7643 
L 292.911305 72.022238 
L 289.77084 74.38825 
L 286.630375 76.57697 
L 283.489909 78.757041 
L 280.349444 80.80406 
L 277.208978 82.873357 
L 274.068513 84.932254 
L 270.928047 86.719567 
L 267.787582 88.67138 
L 264.647116 91.110215 
L 261.506651 92.970798 
L 258.366185 94.937019 
L 255.22572 96.83701 
L 252.085255 98.54698 
L 248.944789 100.537021 
L 245.804324 102.503662 
L 242.663858 104.173853 
L 239.523393 105.494345 
L 236.382927 107.3721 
L 233.242462 109.161918 
L 230.101996 110.972692 
L 226.961531 112.8257 
L 223.821065 114.548482 
L 220.6806 116.160836 
L 217.540135 117.69372 
L 214.399669 119.223859 
L 211.259204 120.815031 
L 208.118738 122.382544 
L 204.978273 124.002942 
L 201.837807 125.639161 
L 198.697342 127.272284 
L 195.556876 128.909628 
L 192.416411 130.338168 
L 189.275945 131.822751 
L 186.13548 133.345494 
L 182.995015 134.911081 
L 179.854549 136.424905 
L 176.714084 137.950666 
L 173.573618 139.6321 
L 170.433153 141.256231 
L 167.292687 142.744131 
L 164.152222 144.30603 
L 161.011756 145.86793 
L 157.871291 147.429975 
L 154.730825 148.995593 
L 151.59036 150.333997 
L 148.449895 151.668328 
L 145.309429 153.325833 
L 142.168964 154.884603 
L 139.028498 156.237809 
L 135.888033 157.591015 
L 132.747567 159.055677 
L 129.607102 160.583116 
L 126.466636 161.895935 
L 123.326171 163.310643 
L 120.185705 164.587846 
L 117.04524 166.084425 
L 113.904775 167.619016 
L 110.764309 169.153608 
L 107.623844 170.689253 
L 104.483378 172.22569 
L 101.342913 173.762127 
L 98.202447 175.301144 
L 95.061982 176.842763 
L 91.921516 178.384382 
L 88.781051 179.926001 
L 85.640585 181.46762 
L 82.50012 183.009239 
L 79.359655 184.550858 
L 76.219189 186.092478 
L 73.078724 187.634097 
L 69.938258 189.175716 
L 66.797793 190.577115 
L 63.657327 191.928356 
L 60.516862 193.279597 
L 57.376396 194.630838 
L 54.235931 195.98208 
L 51.095465 197.333321 
L 47.955 198.771643 
z
" clip-path="url(#pde490f4edc)" style="fill: #115185; fill-opacity: 0.15"/>
   </g>
   <g id="PathCollection_2">
    <defs>
     <path id="mb7ac847026" d="M -2.236068 2.236068 
L 2.236068 2.236068 
L 2.236068 -2.236068 
L -2.236068 -2.236068 
z
" style="stroke: #008fd7; stroke-opacity: 0.8"/>
    </defs>
    <g clip-path="url(#pde490f4edc)">
     <use xlink:href="#mb7ac847026" x="262.65948" y="231.370766" style="fill: #008fd7; fill-opacity: 0.8; stroke: #008fd7; stroke-opacity: 0.8"/>
     <use xlink:href="#mb7ac847026" x="165.14604" y="116.936097" style="fill: #008fd7; fill-opacity: 0.8; stroke: #008fd7; stroke-opacity: 0.8"/>
     <use xlink:href="#mb7ac847026" x="214.99596" y="73.969817" style="fill: #008fd7; fill-opacity: 0.8; stroke: #008fd7; stroke-opacity: 0.8"/>
     <use xlink:href="#mb7ac847026" x="181.76268" y="145.00929" style="fill: #008fd7; fill-opacity: 0.8; stroke: #008fd7; stroke-opacity: 0.8"/>
     <use xlink:href="#mb7ac847026" x="171.26796" y="94.319074" style="fill: #008fd7; fill-opacity: 0.8; stroke: #008fd7; stroke-opacity: 0.8"/>
     <use xlink:href="#mb7ac847026" x="210.18588" y="89.289287" style="fill: #008fd7; fill-opacity: 0.8; stroke: #008fd7; stroke-opacity: 0.8"/>
     <use xlink:href="#mb7ac847026" x="239.48364" y="100.650203" style="fill: #008fd7; fill-opacity: 0.8; stroke: #008fd7; stroke-opacity: 0.8"/>
     <use xlink:href="#mb7ac847026" x="280.58796" y="89.89298" style="fill: #008fd7; fill-opacity: 0.8; stroke: #008fd7; stroke-opacity: 0.8"/>
     <use xlink:href="#mb7ac847026" x="293.70636" y="74.3671" style="fill: #008fd7; fill-opacity: 0.8; stroke: #008fd7; stroke-opacity: 0.8"/>
     <use xlink:href="#mb7ac847026" x="276.21516" y="61.365" style="fill: #008fd7; fill-opacity: 0.8; stroke: #008fd7; stroke-opacity: 0.8"/>
     <use xlink:href="#mb7ac847026" x="319.0686" y="69.219252" style="fill: #008fd7; fill-opacity: 0.8; stroke: #008fd7; stroke-opacity: 0.8"/>
     <use xlink:href="#mb7ac847026" x="285.83532" y="89.644355" style="fill: #008fd7; fill-opacity: 0.8; stroke: #008fd7; stroke-opacity: 0.8"/>
     <use xlink:href="#mb7ac847026" x="145.90572" y="191.915008" style="fill: #008fd7; fill-opacity: 0.8; stroke: #008fd7; stroke-opacity: 0.8"/>
     <use xlink:href="#mb7ac847026" x="242.98188" y="83.191504" style="fill: #008fd7; fill-opacity: 0.8; stroke: #008fd7; stroke-opacity: 0.8"/>
     <use xlink:href="#mb7ac847026" x="224.61612" y="259.767608" style="fill: #008fd7; fill-opacity: 0.8; stroke: #008fd7; stroke-opacity: 0.8"/>
     <use xlink:href="#mb7ac847026" x="248.22924" y="105.487436" style="fill: #008fd7; fill-opacity: 0.8; stroke: #008fd7; stroke-opacity: 0.8"/>
     <use xlink:href="#mb7ac847026" x="211.49772" y="127.288534" style="fill: #008fd7; fill-opacity: 0.8; stroke: #008fd7; stroke-opacity: 0.8"/>
     <use xlink:href="#mb7ac847026" x="349.6782" y="79.488043" style="fill: #008fd7; fill-opacity: 0.8; stroke: #008fd7; stroke-opacity: 0.8"/>
     <use xlink:href="#mb7ac847026" x="178.26444" y="173.555337" style="fill: #008fd7; fill-opacity: 0.8; stroke: #008fd7; stroke-opacity: 0.8"/>
     <use xlink:href="#mb7ac847026" x="174.7662" y="190.964613" style="fill: #008fd7; fill-opacity: 0.8; stroke: #008fd7; stroke-opacity: 0.8"/>
     <use xlink:href="#mb7ac847026" x="308.1366" y="84.009383" style="fill: #008fd7; fill-opacity: 0.8; stroke: #008fd7; stroke-opacity: 0.8"/>
     <use xlink:href="#mb7ac847026" x="310.76028" y="59.958713" style="fill: #008fd7; fill-opacity: 0.8; stroke: #008fd7; stroke-opacity: 0.8"/>
     <use xlink:href="#mb7ac847026" x="205.81308" y="78.629787" style="fill: #008fd7; fill-opacity: 0.8; stroke: #008fd7; stroke-opacity: 0.8"/>
     <use xlink:href="#mb7ac847026" x="152.9022" y="134.976178" style="fill: #008fd7; fill-opacity: 0.8; stroke: #008fd7; stroke-opacity: 0.8"/>
     <use xlink:href="#mb7ac847026" x="278.83884" y="127.929018" style="fill: #008fd7; fill-opacity: 0.8; stroke: #008fd7; stroke-opacity: 0.8"/>
     <use xlink:href="#mb7ac847026" x="263.09676" y="121.638681" style="fill: #008fd7; fill-opacity: 0.8; stroke: #008fd7; stroke-opacity: 0.8"/>
     <use xlink:href="#mb7ac847026" x="295.45548" y="110.234737" style="fill: #008fd7; fill-opacity: 0.8; stroke: #008fd7; stroke-opacity: 0.8"/>
     <use xlink:href="#mb7ac847026" x="268.7814" y="73.082931" style="fill: #008fd7; fill-opacity: 0.8; stroke: #008fd7; stroke-opacity: 0.8"/>
     <use xlink:href="#mb7ac847026" x="280.15068" y="91.004539" style="fill: #008fd7; fill-opacity: 0.8; stroke: #008fd7; stroke-opacity: 0.8"/>
     <use xlink:href="#mb7ac847026" x="56.7006" y="306.66102" style="fill: #008fd7; fill-opacity: 0.8; stroke: #008fd7; stroke-opacity: 0.8"/>
     <use xlink:href="#mb7ac847026" x="127.97724" y="95.789677" style="fill: #008fd7; fill-opacity: 0.8; stroke: #008fd7; stroke-opacity: 0.8"/>
     <use xlink:href="#mb7ac847026" x="184.82364" y="63.924526" style="fill: #008fd7; fill-opacity: 0.8; stroke: #008fd7; stroke-opacity: 0.8"/>
     <use xlink:href="#mb7ac847026" x="257.8494" y="193.332367" style="fill: #008fd7; fill-opacity: 0.8; stroke: #008fd7; stroke-opacity: 0.8"/>
     <use xlink:href="#mb7ac847026" x="206.25036" y="212.004547" style="fill: #008fd7; fill-opacity: 0.8; stroke: #008fd7; stroke-opacity: 0.8"/>
     <use xlink:href="#mb7ac847026" x="120.1062" y="255.857227" style="fill: #008fd7; fill-opacity: 0.8; stroke: #008fd7; stroke-opacity: 0.8"/>
     <use xlink:href="#mb7ac847026" x="109.61148" y="283.52555" style="fill: #008fd7; fill-opacity: 0.8; stroke: #008fd7; stroke-opacity: 0.8"/>
     <use xlink:href="#mb7ac847026" x="145.03116" y="227.262635" style="fill: #008fd7; fill-opacity: 0.8; stroke: #008fd7; stroke-opacity: 0.8"/>
     <use xlink:href="#mb7ac847026" x="149.40396" y="134.723963" style="fill: #008fd7; fill-opacity: 0.8; stroke: #008fd7; stroke-opacity: 0.8"/>
     <use xlink:href="#mb7ac847026" x="167.76972" y="209.311371" style="fill: #008fd7; fill-opacity: 0.8; stroke: #008fd7; stroke-opacity: 0.8"/>
     <use xlink:href="#mb7ac847026" x="289.77084" y="82.875768" style="fill: #008fd7; fill-opacity: 0.8; stroke: #008fd7; stroke-opacity: 0.8"/>
     <use xlink:href="#mb7ac847026" x="253.91388" y="52.158176" style="fill: #008fd7; fill-opacity: 0.8; stroke: #008fd7; stroke-opacity: 0.8"/>
     <use xlink:href="#mb7ac847026" x="183.5118" y="134.656237" style="fill: #008fd7; fill-opacity: 0.8; stroke: #008fd7; stroke-opacity: 0.8"/>
     <use xlink:href="#mb7ac847026" x="181.3254" y="102.599538" style="fill: #008fd7; fill-opacity: 0.8; stroke: #008fd7; stroke-opacity: 0.8"/>
     <use xlink:href="#mb7ac847026" x="290.20812" y="73.779835" style="fill: #008fd7; fill-opacity: 0.8; stroke: #008fd7; stroke-opacity: 0.8"/>
     <use xlink:href="#mb7ac847026" x="224.17884" y="81.114217" style="fill: #008fd7; fill-opacity: 0.8; stroke: #008fd7; stroke-opacity: 0.8"/>
     <use xlink:href="#mb7ac847026" x="271.40508" y="92.087194" style="fill: #008fd7; fill-opacity: 0.8; stroke: #008fd7; stroke-opacity: 0.8"/>
     <use xlink:href="#mb7ac847026" x="282.77436" y="57.841843" style="fill: #008fd7; fill-opacity: 0.8; stroke: #008fd7; stroke-opacity: 0.8"/>
     <use xlink:href="#mb7ac847026" x="262.65948" y="78.838827" style="fill: #008fd7; fill-opacity: 0.8; stroke: #008fd7; stroke-opacity: 0.8"/>
     <use xlink:href="#mb7ac847026" x="294.14364" y="102.714842" style="fill: #008fd7; fill-opacity: 0.8; stroke: #008fd7; stroke-opacity: 0.8"/>
     <use xlink:href="#mb7ac847026" x="313.38396" y="66.651683" style="fill: #008fd7; fill-opacity: 0.8; stroke: #008fd7; stroke-opacity: 0.8"/>
     <use xlink:href="#mb7ac847026" x="313.82124" y="73.220664" style="fill: #008fd7; fill-opacity: 0.8; stroke: #008fd7; stroke-opacity: 0.8"/>
     <use xlink:href="#mb7ac847026" x="285.83532" y="130.683079" style="fill: #008fd7; fill-opacity: 0.8; stroke: #008fd7; stroke-opacity: 0.8"/>
     <use xlink:href="#mb7ac847026" x="142.40748" y="199.523901" style="fill: #008fd7; fill-opacity: 0.8; stroke: #008fd7; stroke-opacity: 0.8"/>
     <use xlink:href="#mb7ac847026" x="173.89164" y="164.489761" style="fill: #008fd7; fill-opacity: 0.8; stroke: #008fd7; stroke-opacity: 0.8"/>
     <use xlink:href="#mb7ac847026" x="127.97724" y="265.61255" style="fill: #008fd7; fill-opacity: 0.8; stroke: #008fd7; stroke-opacity: 0.8"/>
     <use xlink:href="#mb7ac847026" x="159.02412" y="181.645599" style="fill: #008fd7; fill-opacity: 0.8; stroke: #008fd7; stroke-opacity: 0.8"/>
     <use xlink:href="#mb7ac847026" x="235.54812" y="61.191643" style="fill: #008fd7; fill-opacity: 0.8; stroke: #008fd7; stroke-opacity: 0.8"/>
     <use xlink:href="#mb7ac847026" x="317.75676" y="102.908289" style="fill: #008fd7; fill-opacity: 0.8; stroke: #008fd7; stroke-opacity: 0.8"/>
     <use xlink:href="#mb7ac847026" x="228.55164" y="181.904385" style="fill: #008fd7; fill-opacity: 0.8; stroke: #008fd7; stroke-opacity: 0.8"/>
     <use xlink:href="#mb7ac847026" x="249.1038" y="97.879321" style="fill: #008fd7; fill-opacity: 0.8; stroke: #008fd7; stroke-opacity: 0.8"/>
     <use xlink:href="#mb7ac847026" x="244.731" y="87.852978" style="fill: #008fd7; fill-opacity: 0.8; stroke: #008fd7; stroke-opacity: 0.8"/>
     <use xlink:href="#mb7ac847026" x="312.07212" y="85.231512" style="fill: #008fd7; fill-opacity: 0.8; stroke: #008fd7; stroke-opacity: 0.8"/>
     <use xlink:href="#mb7ac847026" x="240.3582" y="115.348501" style="fill: #008fd7; fill-opacity: 0.8; stroke: #008fd7; stroke-opacity: 0.8"/>
     <use xlink:href="#mb7ac847026" x="230.30076" y="108.573029" style="fill: #008fd7; fill-opacity: 0.8; stroke: #008fd7; stroke-opacity: 0.8"/>
     <use xlink:href="#mb7ac847026" x="277.96428" y="99.526038" style="fill: #008fd7; fill-opacity: 0.8; stroke: #008fd7; stroke-opacity: 0.8"/>
     <use xlink:href="#mb7ac847026" x="256.10028" y="127.112892" style="fill: #008fd7; fill-opacity: 0.8; stroke: #008fd7; stroke-opacity: 0.8"/>
     <use xlink:href="#mb7ac847026" x="247.79196" y="116.341267" style="fill: #008fd7; fill-opacity: 0.8; stroke: #008fd7; stroke-opacity: 0.8"/>
    </g>
   </g>
   <g id="PolyCollection_2">
    <path d="M 56.7006 196.764085 
L 56.7006 274.146669 
L 59.65997 271.754045 
L 62.619339 269.361421 
L 65.578709 266.968797 
L 68.538079 264.576173 
L 71.497448 262.18355 
L 74.456818 259.819701 
L 77.416188 257.463364 
L 80.375558 255.103693 
L 83.334927 252.744022 
L 86.294297 250.390822 
L 89.253667 248.038724 
L 92.213036 245.730758 
L 95.172406 243.426138 
L 98.131776 240.978808 
L 101.091145 238.787186 
L 104.050515 236.413525 
L 107.009885 234.006932 
L 109.969255 231.554624 
L 112.928624 229.198214 
L 115.887994 226.795975 
L 118.847364 224.420164 
L 121.806733 221.97463 
L 124.766103 219.586583 
L 127.725473 217.236928 
L 130.684842 215.009829 
L 133.644212 212.719774 
L 136.603582 210.368627 
L 139.562952 208.017479 
L 142.522321 205.664643 
L 145.481691 203.308737 
L 148.441061 200.952832 
L 151.40043 198.596926 
L 154.3598 196.24102 
L 157.31917 193.885115 
L 160.278539 191.529209 
L 163.237909 189.146911 
L 166.197279 186.822944 
L 169.156648 184.598899 
L 172.116018 182.431288 
L 175.075388 180.263678 
L 178.034758 178.094432 
L 180.994127 175.919361 
L 183.953497 173.696342 
L 186.912867 170.936887 
L 189.872236 168.288153 
L 192.831606 166.198096 
L 195.790976 164.105902 
L 198.750345 162.013707 
L 201.709715 159.819214 
L 204.669085 157.727064 
L 207.628455 155.45413 
L 210.587824 153.127805 
L 213.547194 151.10018 
L 216.506564 148.978303 
L 219.465933 146.591235 
L 222.425303 144.200218 
L 225.384673 141.8092 
L 228.344042 139.443554 
L 231.303412 137.101087 
L 234.262782 134.809758 
L 237.222152 132.746536 
L 240.181521 130.760852 
L 243.140891 128.692395 
L 246.100261 126.535997 
L 249.05963 124.442223 
L 252.019 122.310571 
L 254.97837 120.200592 
L 257.937739 118.249616 
L 260.897109 116.36539 
L 263.856479 114.43648 
L 266.815848 112.47492 
L 269.775218 110.488648 
L 272.734588 108.55725 
L 275.693958 106.615833 
L 278.653327 104.803679 
L 281.612697 103.017116 
L 284.572067 101.353977 
L 287.531436 99.512641 
L 290.490806 97.879617 
L 293.450176 96.335225 
L 296.409545 94.702295 
L 299.368915 93.023574 
L 302.328285 91.640487 
L 305.287655 90.077419 
L 308.247024 88.511723 
L 311.206394 86.931088 
L 314.165764 85.134278 
L 317.125133 83.624782 
L 320.084503 82.236397 
L 323.043873 80.610933 
L 326.003242 79.190078 
L 328.962612 77.787707 
L 331.921982 76.336413 
L 334.881352 74.912863 
L 337.840721 73.482166 
L 340.800091 71.954726 
L 343.759461 70.63163 
L 346.71883 69.280217 
L 349.6782 67.856695 
L 349.6782 28.143706 
L 349.6782 28.143706 
L 346.71883 30.512232 
L 343.759461 32.922107 
L 340.800091 35.289008 
L 337.840721 37.528079 
L 334.881352 39.969486 
L 331.921982 42.483095 
L 328.962612 44.850501 
L 326.003242 47.191604 
L 323.043873 49.532708 
L 320.084503 51.840408 
L 317.125133 54.042317 
L 314.165764 56.245624 
L 311.206394 58.448931 
L 308.247024 60.652238 
L 305.287655 63.040155 
L 302.328285 65.459953 
L 299.368915 67.814959 
L 296.409545 69.907932 
L 293.450176 72.274043 
L 290.490806 74.62018 
L 287.531436 76.729762 
L 284.572067 78.89397 
L 281.612697 81.061266 
L 278.653327 83.387211 
L 275.693958 85.526088 
L 272.734588 87.546489 
L 269.775218 89.680852 
L 266.815848 91.828953 
L 263.856479 93.807017 
L 260.897109 95.781895 
L 257.937739 97.794792 
L 254.97837 99.717039 
L 252.019 101.642308 
L 249.05963 103.552114 
L 246.100261 105.342875 
L 243.140891 107.353262 
L 240.181521 109.123209 
L 237.222152 110.864469 
L 234.262782 112.803067 
L 231.303412 114.344528 
L 228.344042 115.876973 
L 225.384673 117.661279 
L 222.425303 119.11528 
L 219.465933 120.578161 
L 216.506564 122.080472 
L 213.547194 123.533055 
L 210.587824 124.94835 
L 207.628455 126.404859 
L 204.669085 127.853919 
L 201.709715 129.212383 
L 198.750345 130.77112 
L 195.790976 132.228692 
L 192.831606 133.769303 
L 189.872236 135.381698 
L 186.912867 136.861076 
L 183.953497 138.318973 
L 180.994127 139.801111 
L 178.034758 141.273573 
L 175.075388 142.636946 
L 172.116018 144.079042 
L 169.156648 145.515427 
L 166.197279 146.790688 
L 163.237909 148.242827 
L 160.278539 149.569306 
L 157.31917 151.099795 
L 154.3598 152.605794 
L 151.40043 153.866963 
L 148.441061 155.093722 
L 145.481691 156.362646 
L 142.522321 157.743204 
L 139.562952 159.125503 
L 136.603582 160.394406 
L 133.644212 161.762453 
L 130.684842 163.133049 
L 127.725473 164.394355 
L 124.766103 165.655662 
L 121.806733 166.916969 
L 118.847364 168.178275 
L 115.887994 169.439582 
L 112.928624 170.700889 
L 109.969255 171.962342 
L 107.009885 173.230672 
L 104.050515 174.499003 
L 101.091145 175.767333 
L 98.131776 177.086264 
L 95.172406 178.559013 
L 92.213036 180.031761 
L 89.253667 181.50451 
L 86.294297 182.977258 
L 83.334927 184.450007 
L 80.375558 185.923853 
L 77.416188 187.399036 
L 74.456818 188.874218 
L 71.497448 190.323575 
L 68.538079 191.611494 
L 65.578709 192.899413 
L 62.619339 194.187332 
L 59.65997 195.475251 
L 56.7006 196.764085 
z
" clip-path="url(#pde490f4edc)" style="fill: #008fd7; fill-opacity: 0.15"/>
   </g>
   <g id="PathCollection_3">
    <defs>
     <path id="m7359a07e8e" d="M 0 -2.236068 
L -2.236068 2.236068 
L 2.236068 2.236068 
z
" style="stroke: #061f4a; stroke-opacity: 0.8"/>
    </defs>
    <g clip-path="url(#pde490f4edc)">
     <use xlink:href="#m7359a07e8e" x="325.971228" y="97.533846" style="fill: #061f4a; fill-opacity: 0.8; stroke: #061f4a; stroke-opacity: 0.8"/>
     <use xlink:href="#m7359a07e8e" x="315.917574" y="169.730969" style="fill: #061f4a; fill-opacity: 0.8; stroke: #061f4a; stroke-opacity: 0.8"/>
     <use xlink:href="#m7359a07e8e" x="351.467911" y="48.39492" style="fill: #061f4a; fill-opacity: 0.8; stroke: #061f4a; stroke-opacity: 0.8"/>
     <use xlink:href="#m7359a07e8e" x="325.741729" y="124.440102" style="fill: #061f4a; fill-opacity: 0.8; stroke: #061f4a; stroke-opacity: 0.8"/>
     <use xlink:href="#m7359a07e8e" x="326.487846" y="72.004798" style="fill: #061f4a; fill-opacity: 0.8; stroke: #061f4a; stroke-opacity: 0.8"/>
     <use xlink:href="#m7359a07e8e" x="374.562588" y="88.944593" style="fill: #061f4a; fill-opacity: 0.8; stroke: #061f4a; stroke-opacity: 0.8"/>
     <use xlink:href="#m7359a07e8e" x="316.26755" y="86.558097" style="fill: #061f4a; fill-opacity: 0.8; stroke: #061f4a; stroke-opacity: 0.8"/>
     <use xlink:href="#m7359a07e8e" x="287.430554" y="111.490774" style="fill: #061f4a; fill-opacity: 0.8; stroke: #061f4a; stroke-opacity: 0.8"/>
     <use xlink:href="#m7359a07e8e" x="299.165939" y="154.653723" style="fill: #061f4a; fill-opacity: 0.8; stroke: #061f4a; stroke-opacity: 0.8"/>
     <use xlink:href="#m7359a07e8e" x="311.688965" y="80.286673" style="fill: #061f4a; fill-opacity: 0.8; stroke: #061f4a; stroke-opacity: 0.8"/>
     <use xlink:href="#m7359a07e8e" x="351.270646" y="72.050648" style="fill: #061f4a; fill-opacity: 0.8; stroke: #061f4a; stroke-opacity: 0.8"/>
     <use xlink:href="#m7359a07e8e" x="337.992478" y="84.106825" style="fill: #061f4a; fill-opacity: 0.8; stroke: #061f4a; stroke-opacity: 0.8"/>
     <use xlink:href="#m7359a07e8e" x="323.729321" y="95.13536" style="fill: #061f4a; fill-opacity: 0.8; stroke: #061f4a; stroke-opacity: 0.8"/>
     <use xlink:href="#m7359a07e8e" x="411.140333" y="56.485023" style="fill: #061f4a; fill-opacity: 0.8; stroke: #061f4a; stroke-opacity: 0.8"/>
     <use xlink:href="#m7359a07e8e" x="321.66918" y="237.727969" style="fill: #061f4a; fill-opacity: 0.8; stroke: #061f4a; stroke-opacity: 0.8"/>
     <use xlink:href="#m7359a07e8e" x="357.523896" y="108.786223" style="fill: #061f4a; fill-opacity: 0.8; stroke: #061f4a; stroke-opacity: 0.8"/>
     <use xlink:href="#m7359a07e8e" x="294.835271" y="152.183236" style="fill: #061f4a; fill-opacity: 0.8; stroke: #061f4a; stroke-opacity: 0.8"/>
     <use xlink:href="#m7359a07e8e" x="407.223653" y="80.875801" style="fill: #061f4a; fill-opacity: 0.8; stroke: #061f4a; stroke-opacity: 0.8"/>
     <use xlink:href="#m7359a07e8e" x="362.02225" y="160.382315" style="fill: #061f4a; fill-opacity: 0.8; stroke: #061f4a; stroke-opacity: 0.8"/>
     <use xlink:href="#m7359a07e8e" x="342.53596" y="182.040358" style="fill: #061f4a; fill-opacity: 0.8; stroke: #061f4a; stroke-opacity: 0.8"/>
     <use xlink:href="#m7359a07e8e" x="309.365228" y="236.153181" style="fill: #061f4a; fill-opacity: 0.8; stroke: #061f4a; stroke-opacity: 0.8"/>
     <use xlink:href="#m7359a07e8e" x="325.536382" y="239.230479" style="fill: #061f4a; fill-opacity: 0.8; stroke: #061f4a; stroke-opacity: 0.8"/>
     <use xlink:href="#m7359a07e8e" x="346.763" y="61.725716" style="fill: #061f4a; fill-opacity: 0.8; stroke: #061f4a; stroke-opacity: 0.8"/>
     <use xlink:href="#m7359a07e8e" x="318.222521" y="71.765455" style="fill: #061f4a; fill-opacity: 0.8; stroke: #061f4a; stroke-opacity: 0.8"/>
     <use xlink:href="#m7359a07e8e" x="334.078154" y="112.186021" style="fill: #061f4a; fill-opacity: 0.8; stroke: #061f4a; stroke-opacity: 0.8"/>
     <use xlink:href="#m7359a07e8e" x="322.860338" y="107.437142" style="fill: #061f4a; fill-opacity: 0.8; stroke: #061f4a; stroke-opacity: 0.8"/>
     <use xlink:href="#m7359a07e8e" x="389.289905" y="163.170754" style="fill: #061f4a; fill-opacity: 0.8; stroke: #061f4a; stroke-opacity: 0.8"/>
     <use xlink:href="#m7359a07e8e" x="325.098281" y="86.137739" style="fill: #061f4a; fill-opacity: 0.8; stroke: #061f4a; stroke-opacity: 0.8"/>
     <use xlink:href="#m7359a07e8e" x="320.567899" y="160.645856" style="fill: #061f4a; fill-opacity: 0.8; stroke: #061f4a; stroke-opacity: 0.8"/>
     <use xlink:href="#m7359a07e8e" x="290.291599" y="87.462009" style="fill: #061f4a; fill-opacity: 0.8; stroke: #061f4a; stroke-opacity: 0.8"/>
     <use xlink:href="#m7359a07e8e" x="365.916587" y="63.406133" style="fill: #061f4a; fill-opacity: 0.8; stroke: #061f4a; stroke-opacity: 0.8"/>
     <use xlink:href="#m7359a07e8e" x="316.747947" y="67.646484" style="fill: #061f4a; fill-opacity: 0.8; stroke: #061f4a; stroke-opacity: 0.8"/>
     <use xlink:href="#m7359a07e8e" x="325.999957" y="221.767284" style="fill: #061f4a; fill-opacity: 0.8; stroke: #061f4a; stroke-opacity: 0.8"/>
     <use xlink:href="#m7359a07e8e" x="322.636756" y="209.067226" style="fill: #061f4a; fill-opacity: 0.8; stroke: #061f4a; stroke-opacity: 0.8"/>
     <use xlink:href="#m7359a07e8e" x="341.823739" y="269.263829" style="fill: #061f4a; fill-opacity: 0.8; stroke: #061f4a; stroke-opacity: 0.8"/>
     <use xlink:href="#m7359a07e8e" x="330.0397" y="269.012107" style="fill: #061f4a; fill-opacity: 0.8; stroke: #061f4a; stroke-opacity: 0.8"/>
     <use xlink:href="#m7359a07e8e" x="322.149135" y="190.73731" style="fill: #061f4a; fill-opacity: 0.8; stroke: #061f4a; stroke-opacity: 0.8"/>
     <use xlink:href="#m7359a07e8e" x="327.068724" y="185.45793" style="fill: #061f4a; fill-opacity: 0.8; stroke: #061f4a; stroke-opacity: 0.8"/>
     <use xlink:href="#m7359a07e8e" x="326.330492" y="152.964783" style="fill: #061f4a; fill-opacity: 0.8; stroke: #061f4a; stroke-opacity: 0.8"/>
     <use xlink:href="#m7359a07e8e" x="375.265417" y="79.81305" style="fill: #061f4a; fill-opacity: 0.8; stroke: #061f4a; stroke-opacity: 0.8"/>
     <use xlink:href="#m7359a07e8e" x="340.107024" y="249.83605" style="fill: #061f4a; fill-opacity: 0.8; stroke: #061f4a; stroke-opacity: 0.8"/>
     <use xlink:href="#m7359a07e8e" x="318.99278" y="252.14004" style="fill: #061f4a; fill-opacity: 0.8; stroke: #061f4a; stroke-opacity: 0.8"/>
     <use xlink:href="#m7359a07e8e" x="344.680714" y="190.841239" style="fill: #061f4a; fill-opacity: 0.8; stroke: #061f4a; stroke-opacity: 0.8"/>
     <use xlink:href="#m7359a07e8e" x="389.50712" y="71.73904" style="fill: #061f4a; fill-opacity: 0.8; stroke: #061f4a; stroke-opacity: 0.8"/>
     <use xlink:href="#m7359a07e8e" x="301.096141" y="284.414645" style="fill: #061f4a; fill-opacity: 0.8; stroke: #061f4a; stroke-opacity: 0.8"/>
     <use xlink:href="#m7359a07e8e" x="302.489181" y="115.005928" style="fill: #061f4a; fill-opacity: 0.8; stroke: #061f4a; stroke-opacity: 0.8"/>
     <use xlink:href="#m7359a07e8e" x="325.012013" y="99.451262" style="fill: #061f4a; fill-opacity: 0.8; stroke: #061f4a; stroke-opacity: 0.8"/>
     <use xlink:href="#m7359a07e8e" x="327.412078" y="84.470794" style="fill: #061f4a; fill-opacity: 0.8; stroke: #061f4a; stroke-opacity: 0.8"/>
     <use xlink:href="#m7359a07e8e" x="344.084454" y="86.495888" style="fill: #061f4a; fill-opacity: 0.8; stroke: #061f4a; stroke-opacity: 0.8"/>
     <use xlink:href="#m7359a07e8e" x="333.33377" y="70.803457" style="fill: #061f4a; fill-opacity: 0.8; stroke: #061f4a; stroke-opacity: 0.8"/>
     <use xlink:href="#m7359a07e8e" x="344.241075" y="68.146364" style="fill: #061f4a; fill-opacity: 0.8; stroke: #061f4a; stroke-opacity: 0.8"/>
     <use xlink:href="#m7359a07e8e" x="347.09187" y="137.057637" style="fill: #061f4a; fill-opacity: 0.8; stroke: #061f4a; stroke-opacity: 0.8"/>
     <use xlink:href="#m7359a07e8e" x="335.42403" y="226.647848" style="fill: #061f4a; fill-opacity: 0.8; stroke: #061f4a; stroke-opacity: 0.8"/>
     <use xlink:href="#m7359a07e8e" x="365.4385" y="179.920035" style="fill: #061f4a; fill-opacity: 0.8; stroke: #061f4a; stroke-opacity: 0.8"/>
     <use xlink:href="#m7359a07e8e" x="316.484907" y="193.661685" style="fill: #061f4a; fill-opacity: 0.8; stroke: #061f4a; stroke-opacity: 0.8"/>
     <use xlink:href="#m7359a07e8e" x="366.57725" y="186.259229" style="fill: #061f4a; fill-opacity: 0.8; stroke: #061f4a; stroke-opacity: 0.8"/>
     <use xlink:href="#m7359a07e8e" x="345.88814" y="164.829113" style="fill: #061f4a; fill-opacity: 0.8; stroke: #061f4a; stroke-opacity: 0.8"/>
     <use xlink:href="#m7359a07e8e" x="335.201173" y="255.304621" style="fill: #061f4a; fill-opacity: 0.8; stroke: #061f4a; stroke-opacity: 0.8"/>
     <use xlink:href="#m7359a07e8e" x="362.116512" y="136.90644" style="fill: #061f4a; fill-opacity: 0.8; stroke: #061f4a; stroke-opacity: 0.8"/>
     <use xlink:href="#m7359a07e8e" x="308.230351" y="100.156944" style="fill: #061f4a; fill-opacity: 0.8; stroke: #061f4a; stroke-opacity: 0.8"/>
     <use xlink:href="#m7359a07e8e" x="291.183455" y="90.381775" style="fill: #061f4a; fill-opacity: 0.8; stroke: #061f4a; stroke-opacity: 0.8"/>
     <use xlink:href="#m7359a07e8e" x="344.411936" y="143.598547" style="fill: #061f4a; fill-opacity: 0.8; stroke: #061f4a; stroke-opacity: 0.8"/>
     <use xlink:href="#m7359a07e8e" x="362.231408" y="144.921481" style="fill: #061f4a; fill-opacity: 0.8; stroke: #061f4a; stroke-opacity: 0.8"/>
     <use xlink:href="#m7359a07e8e" x="332.569155" y="138.00114" style="fill: #061f4a; fill-opacity: 0.8; stroke: #061f4a; stroke-opacity: 0.8"/>
     <use xlink:href="#m7359a07e8e" x="343.553499" y="84.60276" style="fill: #061f4a; fill-opacity: 0.8; stroke: #061f4a; stroke-opacity: 0.8"/>
     <use xlink:href="#m7359a07e8e" x="422.091313" y="122.743276" style="fill: #061f4a; fill-opacity: 0.8; stroke: #061f4a; stroke-opacity: 0.8"/>
     <use xlink:href="#m7359a07e8e" x="396.123568" y="106.794276" style="fill: #061f4a; fill-opacity: 0.8; stroke: #061f4a; stroke-opacity: 0.8"/>
    </g>
   </g>
   <g id="PolyCollection_3">
    <path d="M 287.430554 131.348415 
L 287.430554 193.020002 
L 288.790764 191.945805 
L 290.150973 190.885074 
L 291.511183 189.821061 
L 292.871393 188.751671 
L 294.231602 187.482807 
L 295.591812 186.045308 
L 296.952022 184.728597 
L 298.312231 183.559576 
L 299.672441 182.385423 
L 301.032651 181.21127 
L 302.392861 179.914946 
L 303.75307 178.801582 
L 305.11328 177.711054 
L 306.47349 176.550601 
L 307.833699 175.387952 
L 309.193909 174.396236 
L 310.554119 173.498279 
L 311.914328 172.426622 
L 313.274538 171.173548 
L 314.634748 170.04278 
L 315.994957 168.89225 
L 317.355167 167.691462 
L 318.715377 166.476169 
L 320.075586 165.419109 
L 321.435796 164.388348 
L 322.796006 163.583811 
L 324.156215 162.930903 
L 325.516425 162.064967 
L 326.876635 161.036478 
L 328.236844 159.913124 
L 329.597054 158.810569 
L 330.957264 157.591072 
L 332.317474 156.753413 
L 333.677683 155.857855 
L 335.037893 154.844455 
L 336.398103 154.252915 
L 337.758312 153.060151 
L 339.118522 152.431486 
L 340.478732 151.599654 
L 341.838941 150.520723 
L 343.199151 149.698944 
L 344.559361 149.336966 
L 345.91957 148.422592 
L 347.27978 148.169123 
L 348.63999 147.687279 
L 350.000199 146.824903 
L 351.360409 145.860651 
L 352.720619 145.891738 
L 354.080828 145.25309 
L 355.441038 144.60522 
L 356.801248 144.294166 
L 358.161457 143.813332 
L 359.521667 143.259392 
L 360.881877 142.946875 
L 362.242087 142.621755 
L 363.602296 142.292821 
L 364.962506 141.963887 
L 366.322716 141.634953 
L 367.682925 141.465177 
L 369.043135 141.145673 
L 370.403345 140.87367 
L 371.763554 141.018707 
L 373.123764 140.784713 
L 374.483974 140.187776 
L 375.844183 139.957654 
L 377.204393 139.75505 
L 378.564603 139.552445 
L 379.924812 139.349841 
L 381.285022 139.14699 
L 382.645232 139.012247 
L 384.005441 138.839773 
L 385.365651 138.758306 
L 386.725861 138.760532 
L 388.08607 138.761626 
L 389.44628 138.762308 
L 390.80649 138.664764 
L 392.1667 138.645097 
L 393.526909 138.327689 
L 394.887119 138.010281 
L 396.247329 137.692873 
L 397.607538 137.375465 
L 398.967748 137.18095 
L 400.327958 137.136245 
L 401.688167 137.256176 
L 403.048377 137.373896 
L 404.408587 137.390316 
L 405.768796 137.315606 
L 407.129006 137.594961 
L 408.489216 137.874315 
L 409.849425 137.925908 
L 411.209635 137.718108 
L 412.569845 137.510046 
L 413.930054 137.301984 
L 415.290264 137.093922 
L 416.650474 136.885859 
L 418.010683 136.677797 
L 419.370893 136.469735 
L 420.731103 136.261673 
L 422.091313 136.05361 
L 422.091313 67.572684 
L 422.091313 67.572684 
L 420.731103 68.821955 
L 419.370893 70.071226 
L 418.010683 71.320498 
L 416.650474 72.372267 
L 415.290264 73.305822 
L 413.930054 74.239378 
L 412.569845 75.172933 
L 411.209635 76.106745 
L 409.849425 77.041545 
L 408.489216 77.976345 
L 407.129006 79.037695 
L 405.768796 80.162682 
L 404.408587 81.290106 
L 403.048377 82.516767 
L 401.688167 83.922191 
L 400.327958 85.187182 
L 398.967748 86.137744 
L 397.607538 87.088306 
L 396.247329 88.05769 
L 394.887119 89.178093 
L 393.526909 90.300465 
L 392.1667 91.125767 
L 390.80649 92.070688 
L 389.44628 93.321309 
L 388.08607 94.482164 
L 386.725861 95.461947 
L 385.365651 96.168317 
L 384.005441 97.185332 
L 382.645232 98.261341 
L 381.285022 99.345716 
L 379.924812 100.531262 
L 378.564603 101.504462 
L 377.204393 102.535835 
L 375.844183 103.502506 
L 374.483974 104.608389 
L 373.123764 105.716757 
L 371.763554 106.79862 
L 370.403345 107.771967 
L 369.043135 108.621651 
L 367.682925 109.460877 
L 366.322716 110.470471 
L 364.962506 111.485478 
L 363.602296 112.251644 
L 362.242087 113.147677 
L 360.881877 114.063544 
L 359.521667 114.881585 
L 358.161457 115.540768 
L 356.801248 116.152332 
L 355.441038 116.83636 
L 354.080828 117.36237 
L 352.720619 118.081695 
L 351.360409 118.351297 
L 350.000199 118.634433 
L 348.63999 119.306622 
L 347.27978 119.865503 
L 345.91957 120.505584 
L 344.559361 120.926516 
L 343.199151 121.463643 
L 341.838941 121.960269 
L 340.478732 122.546073 
L 339.118522 123.04059 
L 337.758312 123.314122 
L 336.398103 123.611773 
L 335.037893 124.195795 
L 333.677683 124.683919 
L 332.317474 124.822654 
L 330.957264 124.94759 
L 329.597054 125.479405 
L 328.236844 125.596014 
L 326.876635 125.693988 
L 325.516425 126.179243 
L 324.156215 126.567892 
L 322.796006 126.894007 
L 321.435796 127.220123 
L 320.075586 127.546369 
L 318.715377 127.880437 
L 317.355167 128.178748 
L 315.994957 128.206838 
L 314.634748 128.419617 
L 313.274538 128.74558 
L 311.914328 128.864446 
L 310.554119 129.211053 
L 309.193909 129.557659 
L 307.833699 129.904266 
L 306.47349 130.079324 
L 305.11328 129.94621 
L 303.75307 129.824155 
L 302.392861 129.702099 
L 301.032651 130.169875 
L 299.672441 130.659106 
L 298.312231 130.402317 
L 296.952022 130.690134 
L 295.591812 130.976209 
L 294.231602 131.185661 
L 292.871393 131.356402 
L 291.511183 131.355264 
L 290.150973 131.357016 
L 288.790764 131.387339 
L 287.430554 131.348415 
z
" clip-path="url(#pde490f4edc)" style="fill: #061f4a; fill-opacity: 0.15"/>
   </g>
   <g id="matplotlib.axis_1">
    <g id="xtick_1">
     <g id="line2d_1">
      <path d="M 47.955 317.94 
L 47.955 14.76 
" clip-path="url(#pde490f4edc)" style="fill: none; stroke: #808080; stroke-width: 0.25; stroke-linecap: square"/>
     </g>
     <g id="line2d_2">
      <defs>
       <path id="mcd3c652103" d="M 0 0 
L 0 -3.5 
" style="stroke: #000000; stroke-width: 0.8"/>
      </defs>
      <g>
       <use xlink:href="#mcd3c652103" x="47.955" y="317.94" style="stroke: #000000; stroke-width: 0.8"/>
      </g>
     </g>
     <g id="text_1">
      <text style="font: 10px 'DejaVu Sans', 'Bitstream Vera Sans', 'Computer Modern Sans Serif', 'Lucida Grande', 'Verdana', 'Geneva', 'Lucid', 'Arial', 'Helvetica', 'Avant Garde', sans-serif; text-anchor: middle" x="47.955" y="329.038437" transform="rotate(-0 47.955 329.038437)">0.0</text>
     </g>
    </g>
    <g id="xtick_2">
     <g id="line2d_3">
      <path d="M 135.411 317.94 
L 135.411 14.76 
" clip-path="url(#pde490f4edc)" style="fill: none; stroke: #808080; stroke-width: 0.25; stroke-linecap: square"/>
     </g>
     <g id="line2d_4">
      <g>
       <use xlink:href="#mcd3c652103" x="135.411" y="317.94" style="stroke: #000000; stroke-width: 0.8"/>
      </g>
     </g>
     <g id="text_2">
      <text style="font: 10px 'DejaVu Sans', 'Bitstream Vera Sans', 'Computer Modern Sans Serif', 'Lucida Grande', 'Verdana', 'Geneva', 'Lucid', 'Arial', 'Helvetica', 'Avant Garde', sans-serif; text-anchor: middle" x="135.411" y="329.038437" transform="rotate(-0 135.411 329.038437)">0.2</text>
     </g>
    </g>
    <g id="xtick_3">
     <g id="line2d_5">
      <path d="M 222.867 317.94 
L 222.867 14.76 
" clip-path="url(#pde490f4edc)" style="fill: none; stroke: #808080; stroke-width: 0.25; stroke-linecap: square"/>
     </g>
     <g id="line2d_6">
      <g>
       <use xlink:href="#mcd3c652103" x="222.867" y="317.94" style="stroke: #000000; stroke-width: 0.8"/>
      </g>
     </g>
     <g id="text_3">
      <text style="font: 10px 'DejaVu Sans', 'Bitstream Vera Sans', 'Computer Modern Sans Serif', 'Lucida Grande', 'Verdana', 'Geneva', 'Lucid', 'Arial', 'Helvetica', 'Avant Garde', sans-serif; text-anchor: middle" x="222.867" y="329.038437" transform="rotate(-0 222.867 329.038437)">0.4</text>
     </g>
    </g>
    <g id="xtick_4">
     <g id="line2d_7">
      <path d="M 310.323 317.94 
L 310.323 14.76 
" clip-path="url(#pde490f4edc)" style="fill: none; stroke: #808080; stroke-width: 0.25; stroke-linecap: square"/>
     </g>
     <g id="line2d_8">
      <g>
       <use xlink:href="#mcd3c652103" x="310.323" y="317.94" style="stroke: #000000; stroke-width: 0.8"/>
      </g>
     </g>
     <g id="text_4">
      <text style="font: 10px 'DejaVu Sans', 'Bitstream Vera Sans', 'Computer Modern Sans Serif', 'Lucida Grande', 'Verdana', 'Geneva', 'Lucid', 'Arial', 'Helvetica', 'Avant Garde', sans-serif; text-anchor: middle" x="310.323" y="329.038437" transform="rotate(-0 310.323 329.038437)">0.6</text>
     </g>
    </g>
    <g id="xtick_5">
     <g id="line2d_9">
      <path d="M 397.779 317.94 
L 397.779 14.76 
" clip-path="url(#pde490f4edc)" style="fill: none; stroke: #808080; stroke-width: 0.25; stroke-linecap: square"/>
     </g>
     <g id="line2d_10">
      <g>
       <use xlink:href="#mcd3c652103" x="397.779" y="317.94" style="stroke: #000000; stroke-width: 0.8"/>
      </g>
     </g>
     <g id="text_5">
      <text style="font: 10px 'DejaVu Sans', 'Bitstream Vera Sans', 'Computer Modern Sans Serif', 'Lucida Grande', 'Verdana', 'Geneva', 'Lucid', 'Arial', 'Helvetica', 'Avant Garde', sans-serif; text-anchor: middle" x="397.779" y="329.038437" transform="rotate(-0 397.779 329.038437)">0.8</text>
     </g>
    </g>
    <g id="xtick_6">
     <g id="line2d_11">
      <path d="M 485.235 317.94 
L 485.235 14.76 
" clip-path="url(#pde490f4edc)" style="fill: none; stroke: #808080; stroke-width: 0.25; stroke-linecap: square"/>
     </g>
     <g id="line2d_12">
      <g>
       <use xlink:href="#mcd3c652103" x="485.235" y="317.94" style="stroke: #000000; stroke-width: 0.8"/>
      </g>
     </g>
     <g id="text_6">
      <text style="font: 10px 'DejaVu Sans', 'Bitstream Vera Sans', 'Computer Modern Sans Serif', 'Lucida Grande', 'Verdana', 'Geneva', 'Lucid', 'Arial', 'Helvetica', 'Avant Garde', sans-serif; text-anchor: middle" x="485.235" y="329.038437" transform="rotate(-0 485.235 329.038437)">1.0</text>
     </g>
    </g>
    <g id="text_7">
     <text style="font: 14px 'DejaVu Sans', 'Bitstream Vera Sans', 'Computer Modern Sans Serif', 'Lucida Grande', 'Verdana', 'Geneva', 'Lucid', 'Arial', 'Helvetica', 'Avant Garde', sans-serif; text-anchor: middle" x="266.595" y="345.755938" transform="rotate(-0 266.595 345.755938)">AFM-LIS</text>
    </g>
   </g>
   <g id="matplotlib.axis_2">
    <g id="ytick_1">
     <g id="line2d_13">
      <path d="M 47.955 317.94 
L 485.235 317.94 
" clip-path="url(#pde490f4edc)" style="fill: none; stroke: #808080; stroke-width: 0.25; stroke-linecap: square"/>
     </g>
     <g id="line2d_14">
      <defs>
       <path id="m43c1f0ce08" d="M 0 0 
L 3.5 0 
" style="stroke: #000000; stroke-width: 0.8"/>
      </defs>
      <g>
       <use xlink:href="#m43c1f0ce08" x="47.955" y="317.94" style="stroke: #000000; stroke-width: 0.8"/>
      </g>
     </g>
     <g id="text_8">
      <text style="font: 10px 'DejaVu Sans', 'Bitstream Vera Sans', 'Computer Modern Sans Serif', 'Lucida Grande', 'Verdana', 'Geneva', 'Lucid', 'Arial', 'Helvetica', 'Avant Garde', sans-serif; text-anchor: end" x="44.455" y="321.739219" transform="rotate(-0 44.455 321.739219)">0.0</text>
     </g>
    </g>
    <g id="ytick_2">
     <g id="line2d_15">
      <path d="M 47.955 257.304 
L 485.235 257.304 
" clip-path="url(#pde490f4edc)" style="fill: none; stroke: #808080; stroke-width: 0.25; stroke-linecap: square"/>
     </g>
     <g id="line2d_16">
      <g>
       <use xlink:href="#m43c1f0ce08" x="47.955" y="257.304" style="stroke: #000000; stroke-width: 0.8"/>
      </g>
     </g>
     <g id="text_9">
      <text style="font: 10px 'DejaVu Sans', 'Bitstream Vera Sans', 'Computer Modern Sans Serif', 'Lucida Grande', 'Verdana', 'Geneva', 'Lucid', 'Arial', 'Helvetica', 'Avant Garde', sans-serif; text-anchor: end" x="44.455" y="261.103219" transform="rotate(-0 44.455 261.103219)">0.2</text>
     </g>
    </g>
    <g id="ytick_3">
     <g id="line2d_17">
      <path d="M 47.955 196.668 
L 485.235 196.668 
" clip-path="url(#pde490f4edc)" style="fill: none; stroke: #808080; stroke-width: 0.25; stroke-linecap: square"/>
     </g>
     <g id="line2d_18">
      <g>
       <use xlink:href="#m43c1f0ce08" x="47.955" y="196.668" style="stroke: #000000; stroke-width: 0.8"/>
      </g>
     </g>
     <g id="text_10">
      <text style="font: 10px 'DejaVu Sans', 'Bitstream Vera Sans', 'Computer Modern Sans Serif', 'Lucida Grande', 'Verdana', 'Geneva', 'Lucid', 'Arial', 'Helvetica', 'Avant Garde', sans-serif; text-anchor: end" x="44.455" y="200.467219" transform="rotate(-0 44.455 200.467219)">0.4</text>
     </g>
    </g>
    <g id="ytick_4">
     <g id="line2d_19">
      <path d="M 47.955 136.032 
L 485.235 136.032 
" clip-path="url(#pde490f4edc)" style="fill: none; stroke: #808080; stroke-width: 0.25; stroke-linecap: square"/>
     </g>
     <g id="line2d_20">
      <g>
       <use xlink:href="#m43c1f0ce08" x="47.955" y="136.032" style="stroke: #000000; stroke-width: 0.8"/>
      </g>
     </g>
     <g id="text_11">
      <text style="font: 10px 'DejaVu Sans', 'Bitstream Vera Sans', 'Computer Modern Sans Serif', 'Lucida Grande', 'Verdana', 'Geneva', 'Lucid', 'Arial', 'Helvetica', 'Avant Garde', sans-serif; text-anchor: end" x="44.455" y="139.831219" transform="rotate(-0 44.455 139.831219)">0.6</text>
     </g>
    </g>
    <g id="ytick_5">
     <g id="line2d_21">
      <path d="M 47.955 75.396 
L 485.235 75.396 
" clip-path="url(#pde490f4edc)" style="fill: none; stroke: #808080; stroke-width: 0.25; stroke-linecap: square"/>
     </g>
     <g id="line2d_22">
      <g>
       <use xlink:href="#m43c1f0ce08" x="47.955" y="75.396" style="stroke: #000000; stroke-width: 0.8"/>
      </g>
     </g>
     <g id="text_12">
      <text style="font: 10px 'DejaVu Sans', 'Bitstream Vera Sans', 'Computer Modern Sans Serif', 'Lucida Grande', 'Verdana', 'Geneva', 'Lucid', 'Arial', 'Helvetica', 'Avant Garde', sans-serif; text-anchor: end" x="44.455" y="79.195219" transform="rotate(-0 44.455 79.195219)">0.8</text>
     </g>
    </g>
    <g id="ytick_6">
     <g id="line2d_23">
      <path d="M 47.955 14.76 
L 485.235 14.76 
" clip-path="url(#pde490f4edc)" style="fill: none; stroke: #808080; stroke-width: 0.25; stroke-linecap: square"/>
     </g>
     <g id="line2d_24">
      <g>
       <use xlink:href="#m43c1f0ce08" x="47.955" y="14.76" style="stroke: #000000; stroke-width: 0.8"/>
      </g>
     </g>
     <g id="text_13">
      <text style="font: 10px 'DejaVu Sans', 'Bitstream Vera Sans', 'Computer Modern Sans Serif', 'Lucida Grande', 'Verdana', 'Geneva', 'Lucid', 'Arial', 'Helvetica', 'Avant Garde', sans-serif; text-anchor: end" x="44.455" y="18.559219" transform="rotate(-0 44.455 18.559219)">1.0</text>
     </g>
    </g>
    <g id="text_14">
     <text style="font: 14px 'DejaVu Sans', 'Bitstream Vera Sans', 'Computer Modern Sans Serif', 'Lucida Grande', 'Verdana', 'Geneva', 'Lucid', 'Arial', 'Helvetica', 'Avant Garde', sans-serif; text-anchor: middle" x="21.640313" y="166.35" transform="rotate(-90 21.640313 166.35)">DockQ score</text>
    </g>
   </g>
   <g id="line2d_25">
    <path d="M 47.955 246.210255 
L 51.095465 244.113495 
L 54.235931 242.016735 
L 57.376396 239.919974 
L 60.516862 237.823214 
L 63.657327 235.726454 
L 66.797793 233.629694 
L 69.938258 231.532933 
L 73.078724 229.436173 
L 76.219189 227.339413 
L 79.359655 225.242653 
L 82.50012 223.145893 
L 85.640585 221.049132 
L 88.781051 218.952372 
L 91.921516 216.855612 
L 95.061982 214.758852 
L 98.202447 212.662091 
L 101.342913 210.565331 
L 104.483378 208.468571 
L 107.623844 206.371811 
L 110.764309 204.275051 
L 113.904775 202.17829 
L 117.04524 200.08153 
L 120.185705 197.98477 
L 123.326171 195.88801 
L 126.466636 193.791249 
L 129.607102 191.694489 
L 132.747567 189.597729 
L 135.888033 187.500969 
L 139.028498 185.404209 
L 142.168964 183.307448 
L 145.309429 181.210688 
L 148.449895 179.113928 
L 151.59036 177.017168 
L 154.730825 174.920407 
L 157.871291 172.823647 
L 161.011756 170.726887 
L 164.152222 168.630127 
L 167.292687 166.533367 
L 170.433153 164.436606 
L 173.573618 162.339846 
L 176.714084 160.243086 
L 179.854549 158.146326 
L 182.995015 156.049565 
L 186.13548 153.952805 
L 189.275945 151.856045 
L 192.416411 149.759285 
L 195.556876 147.662525 
L 198.697342 145.565764 
L 201.837807 143.469004 
L 204.978273 141.372244 
L 208.118738 139.275484 
L 211.259204 137.178723 
L 214.399669 135.081963 
L 217.540135 132.985203 
L 220.6806 130.888443 
L 223.821065 128.791682 
L 226.961531 126.694922 
L 230.101996 124.598162 
L 233.242462 122.501402 
L 236.382927 120.404642 
L 239.523393 118.307881 
L 242.663858 116.211121 
L 245.804324 114.114361 
L 248.944789 112.017601 
L 252.085255 109.92084 
L 255.22572 107.82408 
L 258.366185 105.72732 
L 261.506651 103.63056 
L 264.647116 101.5338 
L 267.787582 99.437039 
L 270.928047 97.340279 
L 274.068513 95.243519 
L 277.208978 93.146759 
L 280.349444 91.049998 
L 283.489909 88.953238 
L 286.630375 86.856478 
L 289.77084 84.759718 
L 292.911305 82.662958 
L 296.051771 80.566197 
L 299.192236 78.469437 
L 302.332702 76.372677 
L 305.473167 74.275917 
L 308.613633 72.179156 
L 311.754098 70.082396 
L 314.894564 67.985636 
L 318.035029 65.888876 
L 321.175495 63.792116 
L 324.31596 61.695355 
L 327.456425 59.598595 
L 330.596891 57.501835 
L 333.737356 55.405075 
L 336.877822 53.308314 
L 340.018287 51.211554 
L 343.158753 49.114794 
L 346.299218 47.018034 
L 349.439684 44.921273 
L 352.580149 42.824513 
L 355.720615 40.727753 
L 358.86108 38.630993 
" clip-path="url(#pde490f4edc)" style="fill: none; stroke: #115185; stroke-width: 2; stroke-linecap: square"/>
   </g>
   <g id="line2d_26">
    <path d="M 56.7006 240.687446 
L 59.65997 238.735291 
L 62.619339 236.783137 
L 65.578709 234.830983 
L 68.538079 232.878829 
L 71.497448 230.926675 
L 74.456818 228.974521 
L 77.416188 227.022366 
L 80.375558 225.070212 
L 83.334927 223.118058 
L 86.294297 221.165904 
L 89.253667 219.21375 
L 92.213036 217.261596 
L 95.172406 215.309441 
L 98.131776 213.357287 
L 101.091145 211.405133 
L 104.050515 209.452979 
L 107.009885 207.500825 
L 109.969255 205.548671 
L 112.928624 203.596516 
L 115.887994 201.644362 
L 118.847364 199.692208 
L 121.806733 197.740054 
L 124.766103 195.7879 
L 127.725473 193.835746 
L 130.684842 191.883591 
L 133.644212 189.931437 
L 136.603582 187.979283 
L 139.562952 186.027129 
L 142.522321 184.074975 
L 145.481691 182.122821 
L 148.441061 180.170666 
L 151.40043 178.218512 
L 154.3598 176.266358 
L 157.31917 174.314204 
L 160.278539 172.36205 
L 163.237909 170.409896 
L 166.197279 168.457741 
L 169.156648 166.505587 
L 172.116018 164.553433 
L 175.075388 162.601279 
L 178.034758 160.649125 
L 180.994127 158.696971 
L 183.953497 156.744816 
L 186.912867 154.792662 
L 189.872236 152.840508 
L 192.831606 150.888354 
L 195.790976 148.9362 
L 198.750345 146.984046 
L 201.709715 145.031891 
L 204.669085 143.079737 
L 207.628455 141.127583 
L 210.587824 139.175429 
L 213.547194 137.223275 
L 216.506564 135.271121 
L 219.465933 133.318966 
L 222.425303 131.366812 
L 225.384673 129.414658 
L 228.344042 127.462504 
L 231.303412 125.51035 
L 234.262782 123.558196 
L 237.222152 121.606041 
L 240.181521 119.653887 
L 243.140891 117.701733 
L 246.100261 115.749579 
L 249.05963 113.797425 
L 252.019 111.845271 
L 254.97837 109.893116 
L 257.937739 107.940962 
L 260.897109 105.988808 
L 263.856479 104.036654 
L 266.815848 102.0845 
L 269.775218 100.132346 
L 272.734588 98.180191 
L 275.693958 96.228037 
L 278.653327 94.275883 
L 281.612697 92.323729 
L 284.572067 90.371575 
L 287.531436 88.419421 
L 290.490806 86.467266 
L 293.450176 84.515112 
L 296.409545 82.562958 
L 299.368915 80.610804 
L 302.328285 78.65865 
L 305.287655 76.706496 
L 308.247024 74.754341 
L 311.206394 72.802187 
L 314.165764 70.850033 
L 317.125133 68.897879 
L 320.084503 66.945725 
L 323.043873 64.993571 
L 326.003242 63.041416 
L 328.962612 61.089262 
L 331.921982 59.137108 
L 334.881352 57.184954 
L 337.840721 55.2328 
L 340.800091 53.280646 
L 343.759461 51.328491 
L 346.71883 49.376337 
L 349.6782 47.424183 
" clip-path="url(#pde490f4edc)" style="fill: none; stroke: #008fd7; stroke-width: 2; stroke-linecap: square"/>
   </g>
   <g id="line2d_27">
    <path d="M 287.430554 161.280513 
L 288.790764 160.665992 
L 290.150973 160.051471 
L 291.511183 159.43695 
L 292.871393 158.822428 
L 294.231602 158.207907 
L 295.591812 157.593386 
L 296.952022 156.978865 
L 298.312231 156.364344 
L 299.672441 155.749822 
L 301.032651 155.135301 
L 302.392861 154.52078 
L 303.75307 153.906259 
L 305.11328 153.291738 
L 306.47349 152.677217 
L 307.833699 152.062695 
L 309.193909 151.448174 
L 310.554119 150.833653 
L 311.914328 150.219132 
L 313.274538 149.604611 
L 314.634748 148.990089 
L 315.994957 148.375568 
L 317.355167 147.761047 
L 318.715377 147.146526 
L 320.075586 146.532005 
L 321.435796 145.917483 
L 322.796006 145.302962 
L 324.156215 144.688441 
L 325.516425 144.07392 
L 326.876635 143.459399 
L 328.236844 142.844877 
L 329.597054 142.230356 
L 330.957264 141.615835 
L 332.317474 141.001314 
L 333.677683 140.386793 
L 335.037893 139.772272 
L 336.398103 139.15775 
L 337.758312 138.543229 
L 339.118522 137.928708 
L 340.478732 137.314187 
L 341.838941 136.699666 
L 343.199151 136.085144 
L 344.559361 135.470623 
L 345.91957 134.856102 
L 347.27978 134.241581 
L 348.63999 133.62706 
L 350.000199 133.012538 
L 351.360409 132.398017 
L 352.720619 131.783496 
L 354.080828 131.168975 
L 355.441038 130.554454 
L 356.801248 129.939932 
L 358.161457 129.325411 
L 359.521667 128.71089 
L 360.881877 128.096369 
L 362.242087 127.481848 
L 363.602296 126.867327 
L 364.962506 126.252805 
L 366.322716 125.638284 
L 367.682925 125.023763 
L 369.043135 124.409242 
L 370.403345 123.794721 
L 371.763554 123.180199 
L 373.123764 122.565678 
L 374.483974 121.951157 
L 375.844183 121.336636 
L 377.204393 120.722115 
L 378.564603 120.107593 
L 379.924812 119.493072 
L 381.285022 118.878551 
L 382.645232 118.26403 
L 384.005441 117.649509 
L 385.365651 117.034987 
L 386.725861 116.420466 
L 388.08607 115.805945 
L 389.44628 115.191424 
L 390.80649 114.576903 
L 392.1667 113.962382 
L 393.526909 113.34786 
L 394.887119 112.733339 
L 396.247329 112.118818 
L 397.607538 111.504297 
L 398.967748 110.889776 
L 400.327958 110.275254 
L 401.688167 109.660733 
L 403.048377 109.046212 
L 404.408587 108.431691 
L 405.768796 107.81717 
L 407.129006 107.202648 
L 408.489216 106.588127 
L 409.849425 105.973606 
L 411.209635 105.359085 
L 412.569845 104.744564 
L 413.930054 104.130043 
L 415.290264 103.515521 
L 416.650474 102.901 
L 418.010683 102.286479 
L 419.370893 101.671958 
L 420.731103 101.057437 
L 422.091313 100.442915 
" clip-path="url(#pde490f4edc)" style="fill: none; stroke: #061f4a; stroke-width: 2; stroke-linecap: square"/>
   </g>
   <g id="patch_3">
    <path d="M 47.955 317.94 
L 47.955 14.76 
" style="fill: none; stroke: #000000; stroke-width: 0.8; stroke-linejoin: miter; stroke-linecap: square"/>
   </g>
   <g id="patch_4">
    <path d="M 485.235 317.94 
L 485.235 14.76 
" style="fill: none; stroke: #000000; stroke-width: 0.8; stroke-linejoin: miter; stroke-linecap: square"/>
   </g>
   <g id="patch_5">
    <path d="M 47.955 317.94 
L 485.235 317.94 
" style="fill: none; stroke: #000000; stroke-width: 0.8; stroke-linejoin: miter; stroke-linecap: square"/>
   </g>
   <g id="patch_6">
    <path d="M 47.955 14.76 
L 485.235 14.76 
" style="fill: none; stroke: #000000; stroke-width: 0.8; stroke-linejoin: miter; stroke-linecap: square"/>
   </g>
   <g id="legend_1">
    <g id="patch_7">
     <path d="M 302.48 317.78 
L 481.875 317.78 
Q 485.075 317.78 485.075 314.58 
L 485.075 263.637187 
Q 485.075 260.437187 481.875 260.437187 
L 302.48 260.437187 
Q 299.28 260.437187 299.28 263.637187 
L 299.28 314.58 
Q 299.28 317.78 302.48 317.78 
z
" style="fill: #ffffff; stroke: #cccccc; stroke-width: 0.1; stroke-linejoin: miter"/>
    </g>
    <g id="text_15">
     <text style="font: 1px 'DejaVu Sans', 'Bitstream Vera Sans', 'Computer Modern Sans Serif', 'Lucida Grande', 'Verdana', 'Geneva', 'Lucid', 'Arial', 'Helvetica', 'Avant Garde', sans-serif; text-anchor: start" x="390.676172" y="261.357031" transform="rotate(-0 390.676172 261.357031)">Model</text>
    </g>
    <g id="PathCollection_4">
     <g>
      <use xlink:href="#m8eb2d4ccea" x="315.44" y="272.7225" style="fill: #115185; fill-opacity: 0.8; stroke: #115185; stroke-opacity: 0.8"/>
     </g>
    </g>
    <g id="text_16">
     <text style="font: 16px 'DejaVu Sans', 'Bitstream Vera Sans', 'Computer Modern Sans Serif', 'Lucida Grande', 'Verdana', 'Geneva', 'Lucid', 'Arial', 'Helvetica', 'Avant Garde', sans-serif; text-anchor: start" x="331.44" y="276.9225" transform="rotate(-0 331.44 276.9225)">AF2</text>
    </g>
    <g id="PathCollection_5">
     <g>
      <use xlink:href="#mb7ac847026" x="315.44" y="291.4075" style="fill: #008fd7; fill-opacity: 0.8; stroke: #008fd7; stroke-opacity: 0.8"/>
     </g>
    </g>
    <g id="text_17">
     <text style="font: 16px 'DejaVu Sans', 'Bitstream Vera Sans', 'Computer Modern Sans Serif', 'Lucida Grande', 'Verdana', 'Geneva', 'Lucid', 'Arial', 'Helvetica', 'Avant Garde', sans-serif; text-anchor: start" x="331.44" y="295.6075" transform="rotate(-0 331.44 295.6075)">AF2 (no templates)</text>
    </g>
    <g id="PathCollection_6">
     <g>
      <use xlink:href="#m7359a07e8e" x="315.44" y="310.0925" style="fill: #061f4a; fill-opacity: 0.8; stroke: #061f4a; stroke-opacity: 0.8"/>
     </g>
    </g>
    <g id="text_18">
     <text style="font: 16px 'DejaVu Sans', 'Bitstream Vera Sans', 'Computer Modern Sans Serif', 'Lucida Grande', 'Verdana', 'Geneva', 'Lucid', 'Arial', 'Helvetica', 'Avant Garde', sans-serif; text-anchor: start" x="331.44" y="314.2925" transform="rotate(-0 331.44 314.2925)">AF3 (server)</text>
    </g>
   </g>
  </g>
 </g>
 <defs>
  <clipPath id="pde490f4edc">
   <rect x="47.955" y="14.76" width="437.28" height="303.18"/>
  </clipPath>
 </defs>
</svg>
