<?xml version="1.0" encoding="utf-8" standalone="no"?>
<!DOCTYPE svg PUBLIC "-//W3C//DTD SVG 1.1//EN"
  "http://www.w3.org/Graphics/SVG/1.1/DTD/svg11.dtd">
<svg xmlns:xlink="http://www.w3.org/1999/xlink" width="504pt" height="360pt" viewBox="0 0 504 360" xmlns="http://www.w3.org/2000/svg" version="1.1">
 <metadata>
  <rdf:RDF xmlns:dc="http://purl.org/dc/elements/1.1/" xmlns:cc="http://creativecommons.org/ns#" xmlns:rdf="http://www.w3.org/1999/02/22-rdf-syntax-ns#">
   <cc:Work>
    <dc:type rdf:resource="http://purl.org/dc/dcmitype/StillImage"/>
    <dc:date>2025-03-10T22:37:19.182681</dc:date>
    <dc:format>image/svg+xml</dc:format>
    <dc:creator>
     <cc:Agent>
      <dc:title>Matplotlib v3.7.3, https://matplotlib.org/</dc:title>
     </cc:Agent>
    </dc:creator>
   </cc:Work>
  </rdf:RDF>
 </metadata>
 <defs>
  <style type="text/css">*{stroke-linejoin: round; stroke-linecap: butt}</style>
 </defs>
 <g id="figure_1">
  <g id="patch_1">
   <path d="M 0 360 
L 504 360 
L 504 0 
L 0 0 
z
" style="fill: #ffffff"/>
  </g>
  <g id="axes_1">
   <g id="patch_2">
    <path d="M 47.955 317.94 
L 485.235 317.94 
L 485.235 14.76 
L 47.955 14.76 
z
" style="fill: #ffffff"/>
   </g>
   <g id="PathCollection_1">
    <defs>
     <path id="ma467b6b8a2" d="M 0 2.236068 
C 0.593012 2.236068 1.161816 2.000462 1.581139 1.581139 
C 2.000462 1.161816 2.236068 0.593012 2.236068 0 
C 2.236068 -0.593012 2.000462 -1.161816 1.581139 -1.581139 
C 1.161816 -2.000462 0.593012 -2.236068 0 -2.236068 
C -0.593012 -2.236068 -1.161816 -2.000462 -1.581139 -1.581139 
C -2.000462 -1.161816 -2.236068 -0.593012 -2.236068 0 
C -2.236068 0.593012 -2.000462 1.161816 -1.581139 1.581139 
C -1.161816 2.000462 -0.593012 2.236068 0 2.236068 
z
" style="stroke: #115185; stroke-opacity: 0.8"/>
    </defs>
    <g clip-path="url(#p296eef21bf)">
     <use xlink:href="#ma467b6b8a2" x="282.33708" y="107.739377" style="fill: #115185; fill-opacity: 0.8; stroke: #115185; stroke-opacity: 0.8"/>
     <use xlink:href="#ma467b6b8a2" x="186.57276" y="114.257151" style="fill: #115185; fill-opacity: 0.8; stroke: #115185; stroke-opacity: 0.8"/>
     <use xlink:href="#ma467b6b8a2" x="220.6806" y="74.042033" style="fill: #115185; fill-opacity: 0.8; stroke: #115185; stroke-opacity: 0.8"/>
     <use xlink:href="#ma467b6b8a2" x="253.03932" y="73.275686" style="fill: #115185; fill-opacity: 0.8; stroke: #115185; stroke-opacity: 0.8"/>
     <use xlink:href="#ma467b6b8a2" x="204.93852" y="79.71937" style="fill: #115185; fill-opacity: 0.8; stroke: #115185; stroke-opacity: 0.8"/>
     <use xlink:href="#ma467b6b8a2" x="225.49068" y="59.784565" style="fill: #115185; fill-opacity: 0.8; stroke: #115185; stroke-opacity: 0.8"/>
     <use xlink:href="#ma467b6b8a2" x="252.16476" y="102.434025" style="fill: #115185; fill-opacity: 0.8; stroke: #115185; stroke-opacity: 0.8"/>
     <use xlink:href="#ma467b6b8a2" x="279.7134" y="83.900745" style="fill: #115185; fill-opacity: 0.8; stroke: #115185; stroke-opacity: 0.8"/>
     <use xlink:href="#ma467b6b8a2" x="303.7638" y="65.957525" style="fill: #115185; fill-opacity: 0.8; stroke: #115185; stroke-opacity: 0.8"/>
     <use xlink:href="#ma467b6b8a2" x="282.77436" y="83.905162" style="fill: #115185; fill-opacity: 0.8; stroke: #115185; stroke-opacity: 0.8"/>
     <use xlink:href="#ma467b6b8a2" x="326.06508" y="70.043935" style="fill: #115185; fill-opacity: 0.8; stroke: #115185; stroke-opacity: 0.8"/>
     <use xlink:href="#ma467b6b8a2" x="290.20812" y="93.018203" style="fill: #115185; fill-opacity: 0.8; stroke: #115185; stroke-opacity: 0.8"/>
     <use xlink:href="#ma467b6b8a2" x="155.0886" y="166.420964" style="fill: #115185; fill-opacity: 0.8; stroke: #115185; stroke-opacity: 0.8"/>
     <use xlink:href="#ma467b6b8a2" x="248.22924" y="75.10591" style="fill: #115185; fill-opacity: 0.8; stroke: #115185; stroke-opacity: 0.8"/>
     <use xlink:href="#ma467b6b8a2" x="260.91036" y="265.772744" style="fill: #115185; fill-opacity: 0.8; stroke: #115185; stroke-opacity: 0.8"/>
     <use xlink:href="#ma467b6b8a2" x="271.84236" y="113.441914" style="fill: #115185; fill-opacity: 0.8; stroke: #115185; stroke-opacity: 0.8"/>
     <use xlink:href="#ma467b6b8a2" x="232.04988" y="90.971738" style="fill: #115185; fill-opacity: 0.8; stroke: #115185; stroke-opacity: 0.8"/>
     <use xlink:href="#ma467b6b8a2" x="358.86108" y="78.93554" style="fill: #115185; fill-opacity: 0.8; stroke: #115185; stroke-opacity: 0.8"/>
     <use xlink:href="#ma467b6b8a2" x="279.7134" y="30.620869" style="fill: #115185; fill-opacity: 0.8; stroke: #115185; stroke-opacity: 0.8"/>
     <use xlink:href="#ma467b6b8a2" x="288.459" y="40.096303" style="fill: #115185; fill-opacity: 0.8; stroke: #115185; stroke-opacity: 0.8"/>
     <use xlink:href="#ma467b6b8a2" x="310.76028" y="51.728482" style="fill: #115185; fill-opacity: 0.8; stroke: #115185; stroke-opacity: 0.8"/>
     <use xlink:href="#ma467b6b8a2" x="312.07212" y="57.656953" style="fill: #115185; fill-opacity: 0.8; stroke: #115185; stroke-opacity: 0.8"/>
     <use xlink:href="#ma467b6b8a2" x="273.59148" y="62.709806" style="fill: #115185; fill-opacity: 0.8; stroke: #115185; stroke-opacity: 0.8"/>
     <use xlink:href="#ma467b6b8a2" x="190.94556" y="311.890393" style="fill: #115185; fill-opacity: 0.8; stroke: #115185; stroke-opacity: 0.8"/>
     <use xlink:href="#ma467b6b8a2" x="301.14012" y="118.993857" style="fill: #115185; fill-opacity: 0.8; stroke: #115185; stroke-opacity: 0.8"/>
     <use xlink:href="#ma467b6b8a2" x="265.28316" y="116.526525" style="fill: #115185; fill-opacity: 0.8; stroke: #115185; stroke-opacity: 0.8"/>
     <use xlink:href="#ma467b6b8a2" x="306.82476" y="98.140013" style="fill: #115185; fill-opacity: 0.8; stroke: #115185; stroke-opacity: 0.8"/>
     <use xlink:href="#ma467b6b8a2" x="264.4086" y="65.17189" style="fill: #115185; fill-opacity: 0.8; stroke: #115185; stroke-opacity: 0.8"/>
     <use xlink:href="#ma467b6b8a2" x="281.46252" y="89.068785" style="fill: #115185; fill-opacity: 0.8; stroke: #115185; stroke-opacity: 0.8"/>
     <use xlink:href="#ma467b6b8a2" x="47.955" y="308.832814" style="fill: #115185; fill-opacity: 0.8; stroke: #115185; stroke-opacity: 0.8"/>
     <use xlink:href="#ma467b6b8a2" x="162.95964" y="88.683781" style="fill: #115185; fill-opacity: 0.8; stroke: #115185; stroke-opacity: 0.8"/>
     <use xlink:href="#ma467b6b8a2" x="240.3582" y="51.969637" style="fill: #115185; fill-opacity: 0.8; stroke: #115185; stroke-opacity: 0.8"/>
     <use xlink:href="#ma467b6b8a2" x="264.4086" y="191.723001" style="fill: #115185; fill-opacity: 0.8; stroke: #115185; stroke-opacity: 0.8"/>
     <use xlink:href="#ma467b6b8a2" x="230.30076" y="212.845402" style="fill: #115185; fill-opacity: 0.8; stroke: #115185; stroke-opacity: 0.8"/>
     <use xlink:href="#ma467b6b8a2" x="117.9198" y="250.159048" style="fill: #115185; fill-opacity: 0.8; stroke: #115185; stroke-opacity: 0.8"/>
     <use xlink:href="#ma467b6b8a2" x="95.61852" y="241.310344" style="fill: #115185; fill-opacity: 0.8; stroke: #115185; stroke-opacity: 0.8"/>
     <use xlink:href="#ma467b6b8a2" x="139.7838" y="223.713034" style="fill: #115185; fill-opacity: 0.8; stroke: #115185; stroke-opacity: 0.8"/>
     <use xlink:href="#ma467b6b8a2" x="148.5294" y="194.928739" style="fill: #115185; fill-opacity: 0.8; stroke: #115185; stroke-opacity: 0.8"/>
     <use xlink:href="#ma467b6b8a2" x="167.76972" y="209.032883" style="fill: #115185; fill-opacity: 0.8; stroke: #115185; stroke-opacity: 0.8"/>
     <use xlink:href="#ma467b6b8a2" x="291.95724" y="99.363719" style="fill: #115185; fill-opacity: 0.8; stroke: #115185; stroke-opacity: 0.8"/>
     <use xlink:href="#ma467b6b8a2" x="208.87404" y="62.650719" style="fill: #115185; fill-opacity: 0.8; stroke: #115185; stroke-opacity: 0.8"/>
     <use xlink:href="#ma467b6b8a2" x="179.139" y="132.675155" style="fill: #115185; fill-opacity: 0.8; stroke: #115185; stroke-opacity: 0.8"/>
     <use xlink:href="#ma467b6b8a2" x="204.06396" y="111.986294" style="fill: #115185; fill-opacity: 0.8; stroke: #115185; stroke-opacity: 0.8"/>
     <use xlink:href="#ma467b6b8a2" x="308.1366" y="69.435427" style="fill: #115185; fill-opacity: 0.8; stroke: #115185; stroke-opacity: 0.8"/>
     <use xlink:href="#ma467b6b8a2" x="249.54108" y="78.211574" style="fill: #115185; fill-opacity: 0.8; stroke: #115185; stroke-opacity: 0.8"/>
     <use xlink:href="#ma467b6b8a2" x="274.46604" y="91.526772" style="fill: #115185; fill-opacity: 0.8; stroke: #115185; stroke-opacity: 0.8"/>
     <use xlink:href="#ma467b6b8a2" x="281.46252" y="49.557412" style="fill: #115185; fill-opacity: 0.8; stroke: #115185; stroke-opacity: 0.8"/>
     <use xlink:href="#ma467b6b8a2" x="270.9678" y="92.435706" style="fill: #115185; fill-opacity: 0.8; stroke: #115185; stroke-opacity: 0.8"/>
     <use xlink:href="#ma467b6b8a2" x="298.95372" y="73.440973" style="fill: #115185; fill-opacity: 0.8; stroke: #115185; stroke-opacity: 0.8"/>
     <use xlink:href="#ma467b6b8a2" x="309.44844" y="67.617217" style="fill: #115185; fill-opacity: 0.8; stroke: #115185; stroke-opacity: 0.8"/>
     <use xlink:href="#ma467b6b8a2" x="312.5094" y="68.24292" style="fill: #115185; fill-opacity: 0.8; stroke: #115185; stroke-opacity: 0.8"/>
     <use xlink:href="#ma467b6b8a2" x="289.77084" y="113.204681" style="fill: #115185; fill-opacity: 0.8; stroke: #115185; stroke-opacity: 0.8"/>
     <use xlink:href="#ma467b6b8a2" x="129.72636" y="201.096635" style="fill: #115185; fill-opacity: 0.8; stroke: #115185; stroke-opacity: 0.8"/>
     <use xlink:href="#ma467b6b8a2" x="159.89868" y="154.448518" style="fill: #115185; fill-opacity: 0.8; stroke: #115185; stroke-opacity: 0.8"/>
     <use xlink:href="#ma467b6b8a2" x="155.0886" y="134.412927" style="fill: #115185; fill-opacity: 0.8; stroke: #115185; stroke-opacity: 0.8"/>
     <use xlink:href="#ma467b6b8a2" x="177.38988" y="129.576166" style="fill: #115185; fill-opacity: 0.8; stroke: #115185; stroke-opacity: 0.8"/>
     <use xlink:href="#ma467b6b8a2" x="203.62668" y="83.125777" style="fill: #115185; fill-opacity: 0.8; stroke: #115185; stroke-opacity: 0.8"/>
     <use xlink:href="#ma467b6b8a2" x="313.38396" y="97.158879" style="fill: #115185; fill-opacity: 0.8; stroke: #115185; stroke-opacity: 0.8"/>
     <use xlink:href="#ma467b6b8a2" x="249.97836" y="182.065214" style="fill: #115185; fill-opacity: 0.8; stroke: #115185; stroke-opacity: 0.8"/>
     <use xlink:href="#ma467b6b8a2" x="261.34764" y="90.492262" style="fill: #115185; fill-opacity: 0.8; stroke: #115185; stroke-opacity: 0.8"/>
     <use xlink:href="#ma467b6b8a2" x="261.78492" y="87.663738" style="fill: #115185; fill-opacity: 0.8; stroke: #115185; stroke-opacity: 0.8"/>
     <use xlink:href="#ma467b6b8a2" x="330.87516" y="52.245851" style="fill: #115185; fill-opacity: 0.8; stroke: #115185; stroke-opacity: 0.8"/>
     <use xlink:href="#ma467b6b8a2" x="225.0534" y="110.127837" style="fill: #115185; fill-opacity: 0.8; stroke: #115185; stroke-opacity: 0.8"/>
     <use xlink:href="#ma467b6b8a2" x="253.4766" y="109.064853" style="fill: #115185; fill-opacity: 0.8; stroke: #115185; stroke-opacity: 0.8"/>
     <use xlink:href="#ma467b6b8a2" x="305.07564" y="91.766417" style="fill: #115185; fill-opacity: 0.8; stroke: #115185; stroke-opacity: 0.8"/>
     <use xlink:href="#ma467b6b8a2" x="309.44844" y="120.988525" style="fill: #115185; fill-opacity: 0.8; stroke: #115185; stroke-opacity: 0.8"/>
     <use xlink:href="#ma467b6b8a2" x="284.52348" y="105.878972" style="fill: #115185; fill-opacity: 0.8; stroke: #115185; stroke-opacity: 0.8"/>
    </g>
   </g>
   <g id="PolyCollection_1">
    <path d="M 47.955 200.515542 
L 47.955 280.441321 
L 51.095465 277.967719 
L 54.235931 275.505257 
L 57.376396 273.073605 
L 60.516862 270.703551 
L 63.657327 268.16565 
L 66.797793 265.612964 
L 69.938258 263.13762 
L 73.078724 260.639877 
L 76.219189 258.191113 
L 79.359655 255.709155 
L 82.50012 253.251192 
L 85.640585 250.779134 
L 88.781051 248.221008 
L 91.921516 245.639665 
L 95.061982 243.053527 
L 98.202447 240.388009 
L 101.342913 237.889521 
L 104.483378 235.311551 
L 107.623844 232.729004 
L 110.764309 230.146457 
L 113.904775 227.612872 
L 117.04524 225.18081 
L 120.185705 222.662064 
L 123.326171 220.189564 
L 126.466636 217.710336 
L 129.607102 215.151887 
L 132.747567 212.635428 
L 135.888033 210.129678 
L 139.028498 207.63764 
L 142.168964 205.174672 
L 145.309429 202.711704 
L 148.449895 200.260567 
L 151.59036 197.844211 
L 154.730825 195.427854 
L 157.871291 192.993474 
L 161.011756 190.522682 
L 164.152222 188.051889 
L 167.292687 185.76821 
L 170.433153 183.357649 
L 173.573618 180.942767 
L 176.714084 178.435827 
L 179.854549 175.723077 
L 182.995015 173.227132 
L 186.13548 170.769823 
L 189.275945 168.371028 
L 192.416411 165.972085 
L 195.556876 163.573143 
L 198.697342 161.149332 
L 201.837807 158.766983 
L 204.978273 156.384633 
L 208.118738 154.002982 
L 211.259204 151.622686 
L 214.399669 149.242389 
L 217.540135 146.859321 
L 220.6806 144.487949 
L 223.821065 142.0935 
L 226.961531 139.629076 
L 230.101996 137.23479 
L 233.242462 134.948886 
L 236.382927 132.64384 
L 239.523393 130.561597 
L 242.663858 128.208572 
L 245.804324 125.770961 
L 248.944789 123.447479 
L 252.085255 121.279077 
L 255.22572 119.043226 
L 258.366185 116.807803 
L 261.506651 114.556609 
L 264.647116 112.330344 
L 267.787582 110.100146 
L 270.928047 107.977965 
L 274.068513 105.860819 
L 277.208978 103.635923 
L 280.349444 101.44476 
L 283.489909 99.330063 
L 286.630375 97.263658 
L 289.77084 95.294242 
L 292.911305 93.14234 
L 296.051771 91.323274 
L 299.192236 89.377247 
L 302.332702 87.460599 
L 305.473167 85.668116 
L 308.613633 83.969684 
L 311.754098 82.009935 
L 314.894564 80.254747 
L 318.035029 78.540764 
L 321.175495 76.728153 
L 324.31596 75.079975 
L 327.456425 73.442826 
L 330.596891 72.019016 
L 333.737356 70.430011 
L 336.877822 68.723452 
L 340.018287 67.075496 
L 343.158753 65.552696 
L 346.299218 64.03456 
L 349.439684 62.403796 
L 352.580149 60.775365 
L 355.720615 59.230943 
L 358.86108 57.756898 
L 358.86108 20.903364 
L 358.86108 20.903364 
L 355.720615 23.459387 
L 352.580149 25.889164 
L 349.439684 28.372911 
L 346.299218 30.929601 
L 343.158753 33.486291 
L 340.018287 35.817551 
L 336.877822 38.039943 
L 333.737356 40.566215 
L 330.596891 43.07842 
L 327.456425 45.586943 
L 324.31596 48.102138 
L 321.175495 50.498162 
L 318.035029 52.784089 
L 314.894564 55.130272 
L 311.754098 57.475504 
L 308.613633 59.80323 
L 305.473167 62.059614 
L 302.332702 64.488907 
L 299.192236 66.693028 
L 296.051771 68.945263 
L 292.911305 71.528807 
L 289.77084 73.74381 
L 286.630375 75.944817 
L 283.489909 78.035529 
L 280.349444 80.161033 
L 277.208978 82.548974 
L 274.068513 84.750859 
L 270.928047 86.790114 
L 267.787582 89.154627 
L 264.647116 91.226129 
L 261.506651 93.210789 
L 258.366185 95.166146 
L 255.22572 96.851053 
L 252.085255 98.846011 
L 248.944789 100.696063 
L 245.804324 102.541906 
L 242.663858 104.38486 
L 239.523393 106.169978 
L 236.382927 107.927367 
L 233.242462 109.808435 
L 230.101996 111.59233 
L 226.961531 113.443096 
L 223.821065 114.968425 
L 220.6806 116.395131 
L 217.540135 118.21036 
L 214.399669 120.116782 
L 211.259204 121.864593 
L 208.118738 123.497317 
L 204.978273 125.12003 
L 201.837807 126.703451 
L 198.697342 128.299565 
L 195.556876 129.761455 
L 192.416411 131.148667 
L 189.275945 132.535879 
L 186.13548 133.809976 
L 182.995015 135.0546 
L 179.854549 136.444013 
L 176.714084 138.083388 
L 173.573618 139.489866 
L 170.433153 140.88238 
L 167.292687 142.275916 
L 164.152222 143.669452 
L 161.011756 145.062987 
L 157.871291 146.456523 
L 154.730825 148.089724 
L 151.59036 149.790236 
L 148.449895 151.490748 
L 145.309429 153.19126 
L 142.168964 154.562076 
L 139.028498 155.848605 
L 135.888033 157.266718 
L 132.747567 158.810933 
L 129.607102 160.356929 
L 126.466636 161.902926 
L 123.326171 163.422465 
L 120.185705 164.868799 
L 117.04524 166.426654 
L 113.904775 167.985229 
L 110.764309 169.543804 
L 107.623844 171.103206 
L 104.483378 172.665401 
L 101.342913 174.227596 
L 98.202447 175.789792 
L 95.061982 177.351987 
L 91.921516 178.901252 
L 88.781051 180.447915 
L 85.640585 181.994578 
L 82.50012 183.541241 
L 79.359655 185.087905 
L 76.219189 186.632992 
L 73.078724 188.143016 
L 69.938258 189.720736 
L 66.797793 191.262851 
L 63.657327 192.804966 
L 60.516862 194.347081 
L 57.376396 195.889197 
L 54.235931 197.431312 
L 51.095465 198.973427 
L 47.955 200.515542 
z
" clip-path="url(#p296eef21bf)" style="fill: #115185; fill-opacity: 0.15"/>
   </g>
   <g id="PathCollection_2">
    <defs>
     <path id="m7bf7c9a226" d="M -2.236068 2.236068 
L 2.236068 2.236068 
L 2.236068 -2.236068 
L -2.236068 -2.236068 
z
" style="stroke: #008fd7; stroke-opacity: 0.8"/>
    </defs>
    <g clip-path="url(#p296eef21bf)">
     <use xlink:href="#m7bf7c9a226" x="262.65948" y="231.370766" style="fill: #008fd7; fill-opacity: 0.8; stroke: #008fd7; stroke-opacity: 0.8"/>
     <use xlink:href="#m7bf7c9a226" x="165.14604" y="116.936097" style="fill: #008fd7; fill-opacity: 0.8; stroke: #008fd7; stroke-opacity: 0.8"/>
     <use xlink:href="#m7bf7c9a226" x="214.99596" y="73.969817" style="fill: #008fd7; fill-opacity: 0.8; stroke: #008fd7; stroke-opacity: 0.8"/>
     <use xlink:href="#m7bf7c9a226" x="181.76268" y="145.00929" style="fill: #008fd7; fill-opacity: 0.8; stroke: #008fd7; stroke-opacity: 0.8"/>
     <use xlink:href="#m7bf7c9a226" x="171.26796" y="94.319074" style="fill: #008fd7; fill-opacity: 0.8; stroke: #008fd7; stroke-opacity: 0.8"/>
     <use xlink:href="#m7bf7c9a226" x="210.18588" y="89.289287" style="fill: #008fd7; fill-opacity: 0.8; stroke: #008fd7; stroke-opacity: 0.8"/>
     <use xlink:href="#m7bf7c9a226" x="239.48364" y="100.650203" style="fill: #008fd7; fill-opacity: 0.8; stroke: #008fd7; stroke-opacity: 0.8"/>
     <use xlink:href="#m7bf7c9a226" x="280.58796" y="89.89298" style="fill: #008fd7; fill-opacity: 0.8; stroke: #008fd7; stroke-opacity: 0.8"/>
     <use xlink:href="#m7bf7c9a226" x="293.70636" y="74.3671" style="fill: #008fd7; fill-opacity: 0.8; stroke: #008fd7; stroke-opacity: 0.8"/>
     <use xlink:href="#m7bf7c9a226" x="276.21516" y="61.365" style="fill: #008fd7; fill-opacity: 0.8; stroke: #008fd7; stroke-opacity: 0.8"/>
     <use xlink:href="#m7bf7c9a226" x="319.0686" y="69.219252" style="fill: #008fd7; fill-opacity: 0.8; stroke: #008fd7; stroke-opacity: 0.8"/>
     <use xlink:href="#m7bf7c9a226" x="285.83532" y="89.644355" style="fill: #008fd7; fill-opacity: 0.8; stroke: #008fd7; stroke-opacity: 0.8"/>
     <use xlink:href="#m7bf7c9a226" x="145.90572" y="191.915008" style="fill: #008fd7; fill-opacity: 0.8; stroke: #008fd7; stroke-opacity: 0.8"/>
     <use xlink:href="#m7bf7c9a226" x="242.98188" y="83.191504" style="fill: #008fd7; fill-opacity: 0.8; stroke: #008fd7; stroke-opacity: 0.8"/>
     <use xlink:href="#m7bf7c9a226" x="224.61612" y="259.767608" style="fill: #008fd7; fill-opacity: 0.8; stroke: #008fd7; stroke-opacity: 0.8"/>
     <use xlink:href="#m7bf7c9a226" x="248.22924" y="105.487436" style="fill: #008fd7; fill-opacity: 0.8; stroke: #008fd7; stroke-opacity: 0.8"/>
     <use xlink:href="#m7bf7c9a226" x="211.49772" y="127.288534" style="fill: #008fd7; fill-opacity: 0.8; stroke: #008fd7; stroke-opacity: 0.8"/>
     <use xlink:href="#m7bf7c9a226" x="349.6782" y="79.488043" style="fill: #008fd7; fill-opacity: 0.8; stroke: #008fd7; stroke-opacity: 0.8"/>
     <use xlink:href="#m7bf7c9a226" x="178.26444" y="173.555337" style="fill: #008fd7; fill-opacity: 0.8; stroke: #008fd7; stroke-opacity: 0.8"/>
     <use xlink:href="#m7bf7c9a226" x="174.7662" y="190.964613" style="fill: #008fd7; fill-opacity: 0.8; stroke: #008fd7; stroke-opacity: 0.8"/>
     <use xlink:href="#m7bf7c9a226" x="308.1366" y="84.009383" style="fill: #008fd7; fill-opacity: 0.8; stroke: #008fd7; stroke-opacity: 0.8"/>
     <use xlink:href="#m7bf7c9a226" x="310.76028" y="59.958713" style="fill: #008fd7; fill-opacity: 0.8; stroke: #008fd7; stroke-opacity: 0.8"/>
     <use xlink:href="#m7bf7c9a226" x="205.81308" y="78.629787" style="fill: #008fd7; fill-opacity: 0.8; stroke: #008fd7; stroke-opacity: 0.8"/>
     <use xlink:href="#m7bf7c9a226" x="152.9022" y="134.976178" style="fill: #008fd7; fill-opacity: 0.8; stroke: #008fd7; stroke-opacity: 0.8"/>
     <use xlink:href="#m7bf7c9a226" x="278.83884" y="127.929018" style="fill: #008fd7; fill-opacity: 0.8; stroke: #008fd7; stroke-opacity: 0.8"/>
     <use xlink:href="#m7bf7c9a226" x="263.09676" y="121.638681" style="fill: #008fd7; fill-opacity: 0.8; stroke: #008fd7; stroke-opacity: 0.8"/>
     <use xlink:href="#m7bf7c9a226" x="295.45548" y="110.234737" style="fill: #008fd7; fill-opacity: 0.8; stroke: #008fd7; stroke-opacity: 0.8"/>
     <use xlink:href="#m7bf7c9a226" x="268.7814" y="73.082931" style="fill: #008fd7; fill-opacity: 0.8; stroke: #008fd7; stroke-opacity: 0.8"/>
     <use xlink:href="#m7bf7c9a226" x="280.15068" y="91.004539" style="fill: #008fd7; fill-opacity: 0.8; stroke: #008fd7; stroke-opacity: 0.8"/>
     <use xlink:href="#m7bf7c9a226" x="56.7006" y="306.66102" style="fill: #008fd7; fill-opacity: 0.8; stroke: #008fd7; stroke-opacity: 0.8"/>
     <use xlink:href="#m7bf7c9a226" x="127.97724" y="95.789677" style="fill: #008fd7; fill-opacity: 0.8; stroke: #008fd7; stroke-opacity: 0.8"/>
     <use xlink:href="#m7bf7c9a226" x="184.82364" y="63.924526" style="fill: #008fd7; fill-opacity: 0.8; stroke: #008fd7; stroke-opacity: 0.8"/>
     <use xlink:href="#m7bf7c9a226" x="257.8494" y="193.332367" style="fill: #008fd7; fill-opacity: 0.8; stroke: #008fd7; stroke-opacity: 0.8"/>
     <use xlink:href="#m7bf7c9a226" x="206.25036" y="212.004547" style="fill: #008fd7; fill-opacity: 0.8; stroke: #008fd7; stroke-opacity: 0.8"/>
     <use xlink:href="#m7bf7c9a226" x="120.1062" y="255.857227" style="fill: #008fd7; fill-opacity: 0.8; stroke: #008fd7; stroke-opacity: 0.8"/>
     <use xlink:href="#m7bf7c9a226" x="109.61148" y="283.52555" style="fill: #008fd7; fill-opacity: 0.8; stroke: #008fd7; stroke-opacity: 0.8"/>
     <use xlink:href="#m7bf7c9a226" x="145.03116" y="227.262635" style="fill: #008fd7; fill-opacity: 0.8; stroke: #008fd7; stroke-opacity: 0.8"/>
     <use xlink:href="#m7bf7c9a226" x="149.40396" y="134.723963" style="fill: #008fd7; fill-opacity: 0.8; stroke: #008fd7; stroke-opacity: 0.8"/>
     <use xlink:href="#m7bf7c9a226" x="167.76972" y="209.311371" style="fill: #008fd7; fill-opacity: 0.8; stroke: #008fd7; stroke-opacity: 0.8"/>
     <use xlink:href="#m7bf7c9a226" x="289.77084" y="82.875768" style="fill: #008fd7; fill-opacity: 0.8; stroke: #008fd7; stroke-opacity: 0.8"/>
     <use xlink:href="#m7bf7c9a226" x="253.91388" y="52.158176" style="fill: #008fd7; fill-opacity: 0.8; stroke: #008fd7; stroke-opacity: 0.8"/>
     <use xlink:href="#m7bf7c9a226" x="183.5118" y="134.656237" style="fill: #008fd7; fill-opacity: 0.8; stroke: #008fd7; stroke-opacity: 0.8"/>
     <use xlink:href="#m7bf7c9a226" x="181.3254" y="102.599538" style="fill: #008fd7; fill-opacity: 0.8; stroke: #008fd7; stroke-opacity: 0.8"/>
     <use xlink:href="#m7bf7c9a226" x="290.20812" y="73.779835" style="fill: #008fd7; fill-opacity: 0.8; stroke: #008fd7; stroke-opacity: 0.8"/>
     <use xlink:href="#m7bf7c9a226" x="224.17884" y="81.114217" style="fill: #008fd7; fill-opacity: 0.8; stroke: #008fd7; stroke-opacity: 0.8"/>
     <use xlink:href="#m7bf7c9a226" x="271.40508" y="92.087194" style="fill: #008fd7; fill-opacity: 0.8; stroke: #008fd7; stroke-opacity: 0.8"/>
     <use xlink:href="#m7bf7c9a226" x="282.77436" y="57.841843" style="fill: #008fd7; fill-opacity: 0.8; stroke: #008fd7; stroke-opacity: 0.8"/>
     <use xlink:href="#m7bf7c9a226" x="262.65948" y="78.838827" style="fill: #008fd7; fill-opacity: 0.8; stroke: #008fd7; stroke-opacity: 0.8"/>
     <use xlink:href="#m7bf7c9a226" x="294.14364" y="102.714842" style="fill: #008fd7; fill-opacity: 0.8; stroke: #008fd7; stroke-opacity: 0.8"/>
     <use xlink:href="#m7bf7c9a226" x="313.38396" y="66.651683" style="fill: #008fd7; fill-opacity: 0.8; stroke: #008fd7; stroke-opacity: 0.8"/>
     <use xlink:href="#m7bf7c9a226" x="313.82124" y="73.220664" style="fill: #008fd7; fill-opacity: 0.8; stroke: #008fd7; stroke-opacity: 0.8"/>
     <use xlink:href="#m7bf7c9a226" x="285.83532" y="130.683079" style="fill: #008fd7; fill-opacity: 0.8; stroke: #008fd7; stroke-opacity: 0.8"/>
     <use xlink:href="#m7bf7c9a226" x="142.40748" y="199.523901" style="fill: #008fd7; fill-opacity: 0.8; stroke: #008fd7; stroke-opacity: 0.8"/>
     <use xlink:href="#m7bf7c9a226" x="173.89164" y="164.489761" style="fill: #008fd7; fill-opacity: 0.8; stroke: #008fd7; stroke-opacity: 0.8"/>
     <use xlink:href="#m7bf7c9a226" x="127.97724" y="265.61255" style="fill: #008fd7; fill-opacity: 0.8; stroke: #008fd7; stroke-opacity: 0.8"/>
     <use xlink:href="#m7bf7c9a226" x="159.02412" y="181.645599" style="fill: #008fd7; fill-opacity: 0.8; stroke: #008fd7; stroke-opacity: 0.8"/>
     <use xlink:href="#m7bf7c9a226" x="235.54812" y="61.191643" style="fill: #008fd7; fill-opacity: 0.8; stroke: #008fd7; stroke-opacity: 0.8"/>
     <use xlink:href="#m7bf7c9a226" x="317.75676" y="102.908289" style="fill: #008fd7; fill-opacity: 0.8; stroke: #008fd7; stroke-opacity: 0.8"/>
     <use xlink:href="#m7bf7c9a226" x="228.55164" y="181.904385" style="fill: #008fd7; fill-opacity: 0.8; stroke: #008fd7; stroke-opacity: 0.8"/>
     <use xlink:href="#m7bf7c9a226" x="249.1038" y="97.879321" style="fill: #008fd7; fill-opacity: 0.8; stroke: #008fd7; stroke-opacity: 0.8"/>
     <use xlink:href="#m7bf7c9a226" x="244.731" y="87.852978" style="fill: #008fd7; fill-opacity: 0.8; stroke: #008fd7; stroke-opacity: 0.8"/>
     <use xlink:href="#m7bf7c9a226" x="312.07212" y="85.231512" style="fill: #008fd7; fill-opacity: 0.8; stroke: #008fd7; stroke-opacity: 0.8"/>
     <use xlink:href="#m7bf7c9a226" x="240.3582" y="115.348501" style="fill: #008fd7; fill-opacity: 0.8; stroke: #008fd7; stroke-opacity: 0.8"/>
     <use xlink:href="#m7bf7c9a226" x="230.30076" y="108.573029" style="fill: #008fd7; fill-opacity: 0.8; stroke: #008fd7; stroke-opacity: 0.8"/>
     <use xlink:href="#m7bf7c9a226" x="277.96428" y="99.526038" style="fill: #008fd7; fill-opacity: 0.8; stroke: #008fd7; stroke-opacity: 0.8"/>
     <use xlink:href="#m7bf7c9a226" x="256.10028" y="127.112892" style="fill: #008fd7; fill-opacity: 0.8; stroke: #008fd7; stroke-opacity: 0.8"/>
     <use xlink:href="#m7bf7c9a226" x="247.79196" y="116.341267" style="fill: #008fd7; fill-opacity: 0.8; stroke: #008fd7; stroke-opacity: 0.8"/>
    </g>
   </g>
   <g id="PolyCollection_2">
    <path d="M 56.7006 197.122067 
L 56.7006 275.868555 
L 59.65997 273.524209 
L 62.619339 271.179862 
L 65.578709 268.835516 
L 68.538079 266.491169 
L 71.497448 264.146823 
L 74.456818 261.745215 
L 77.416188 259.311947 
L 80.375558 256.87729 
L 83.334927 254.438922 
L 86.294297 251.973129 
L 89.253667 249.429899 
L 92.213036 246.885277 
L 95.172406 244.337383 
L 98.131776 241.78949 
L 101.091145 239.244519 
L 104.050515 236.703936 
L 107.009885 234.163354 
L 109.969255 231.75171 
L 112.928624 229.627606 
L 115.887994 227.502721 
L 118.847364 225.213018 
L 121.806733 222.776341 
L 124.766103 220.339642 
L 127.725473 217.902943 
L 130.684842 215.431546 
L 133.644212 212.953398 
L 136.603582 210.474894 
L 139.562952 207.988862 
L 142.522321 205.376664 
L 145.481691 202.684433 
L 148.441061 199.992201 
L 151.40043 197.29997 
L 154.3598 194.957523 
L 157.31917 192.438807 
L 160.278539 190.166835 
L 163.237909 187.902272 
L 166.197279 185.640973 
L 169.156648 183.205047 
L 172.116018 180.772492 
L 175.075388 178.54398 
L 178.034758 176.314551 
L 180.994127 174.062399 
L 183.953497 171.628553 
L 186.912867 169.279353 
L 189.872236 167.03231 
L 192.831606 164.579739 
L 195.790976 162.134082 
L 198.750345 159.898452 
L 201.709715 157.55543 
L 204.669085 155.334704 
L 207.628455 153.364715 
L 210.587824 151.005518 
L 213.547194 148.874662 
L 216.506564 146.597885 
L 219.465933 144.520138 
L 222.425303 142.432386 
L 225.384673 140.30811 
L 228.344042 138.202724 
L 231.303412 136.094559 
L 234.262782 134.013579 
L 237.222152 131.887011 
L 240.181521 129.831051 
L 243.140891 127.828002 
L 246.100261 125.690167 
L 249.05963 123.632985 
L 252.019 121.611644 
L 254.97837 119.726997 
L 257.937739 117.677366 
L 260.897109 115.683492 
L 263.856479 113.716342 
L 266.815848 111.773403 
L 269.775218 109.91387 
L 272.734588 108.035372 
L 275.693958 106.148139 
L 278.653327 104.337064 
L 281.612697 102.506426 
L 284.572067 100.800491 
L 287.531436 99.140841 
L 290.490806 97.46434 
L 293.450176 95.979921 
L 296.409545 94.417623 
L 299.368915 92.798567 
L 302.328285 90.955847 
L 305.287655 89.262542 
L 308.247024 87.740262 
L 311.206394 86.148005 
L 314.165764 84.539359 
L 317.125133 83.168601 
L 320.084503 81.311129 
L 323.043873 79.785332 
L 326.003242 78.664442 
L 328.962612 76.958805 
L 331.921982 75.522622 
L 334.881352 74.125775 
L 337.840721 72.848204 
L 340.800091 71.512109 
L 343.759461 70.069806 
L 346.71883 68.676978 
L 349.6782 67.287639 
L 349.6782 27.442516 
L 349.6782 27.442516 
L 346.71883 29.822992 
L 343.759461 32.228128 
L 340.800091 34.706834 
L 337.840721 37.130318 
L 334.881352 39.406282 
L 331.921982 41.707349 
L 328.962612 43.989388 
L 326.003242 46.271428 
L 323.043873 48.553467 
L 320.084503 50.887882 
L 317.125133 53.394232 
L 314.165764 55.869472 
L 311.206394 58.368369 
L 308.247024 60.623276 
L 305.287655 62.886581 
L 302.328285 65.12426 
L 299.368915 67.342646 
L 296.409545 69.491576 
L 293.450176 71.575639 
L 290.490806 73.818548 
L 287.531436 76.15542 
L 284.572067 78.399508 
L 281.612697 80.502789 
L 278.653327 82.82012 
L 275.693958 84.98964 
L 272.734588 87.238805 
L 269.775218 89.499452 
L 266.815848 91.609161 
L 263.856479 93.733561 
L 260.897109 95.926299 
L 257.937739 97.692332 
L 254.97837 99.728983 
L 252.019 101.666342 
L 249.05963 103.527197 
L 246.100261 105.361191 
L 243.140891 107.252135 
L 240.181521 108.896749 
L 237.222152 110.732564 
L 234.262782 112.545592 
L 231.303412 114.064511 
L 228.344042 115.534816 
L 225.384673 116.895527 
L 222.425303 118.538479 
L 219.465933 120.256046 
L 216.506564 121.734054 
L 213.547194 123.266254 
L 210.587824 124.79652 
L 207.628455 126.182294 
L 204.669085 127.782886 
L 201.709715 129.385506 
L 198.750345 130.945385 
L 195.790976 132.445508 
L 192.831606 133.976904 
L 189.872236 135.429458 
L 186.912867 136.853963 
L 183.953497 138.274554 
L 180.994127 139.614942 
L 178.034758 141.058521 
L 175.075388 142.345242 
L 172.116018 143.631964 
L 169.156648 144.918685 
L 166.197279 146.205407 
L 163.237909 147.507239 
L 160.278539 148.821806 
L 157.31917 150.136372 
L 154.3598 151.450939 
L 151.40043 152.765692 
L 148.441061 154.081007 
L 145.481691 155.396323 
L 142.522321 156.711638 
L 139.562952 158.026954 
L 136.603582 159.34227 
L 133.644212 160.657585 
L 130.684842 161.972901 
L 127.725473 163.288216 
L 124.766103 164.603532 
L 121.806733 165.920199 
L 118.847364 167.317021 
L 115.887994 168.775658 
L 112.928624 170.234295 
L 109.969255 171.528093 
L 107.009885 172.770682 
L 104.050515 174.015624 
L 101.091145 175.426051 
L 98.131776 176.868025 
L 95.172406 178.314427 
L 92.213036 179.761169 
L 89.253667 181.20791 
L 86.294297 182.654652 
L 83.334927 184.101393 
L 80.375558 185.548135 
L 77.416188 186.994876 
L 74.456818 188.441618 
L 71.497448 189.888359 
L 68.538079 191.335101 
L 65.578709 192.781843 
L 62.619339 194.228584 
L 59.65997 195.675326 
L 56.7006 197.122067 
z
" clip-path="url(#p296eef21bf)" style="fill: #008fd7; fill-opacity: 0.15"/>
   </g>
   <g id="PathCollection_3">
    <defs>
     <path id="mba4fba5a94" d="M 0 -2.236068 
L -2.236068 2.236068 
L 2.236068 2.236068 
z
" style="stroke: #061f4a; stroke-opacity: 0.8"/>
    </defs>
    <g clip-path="url(#p296eef21bf)">
     <use xlink:href="#mba4fba5a94" x="325.971228" y="97.533846" style="fill: #061f4a; fill-opacity: 0.8; stroke: #061f4a; stroke-opacity: 0.8"/>
     <use xlink:href="#mba4fba5a94" x="315.917574" y="169.730969" style="fill: #061f4a; fill-opacity: 0.8; stroke: #061f4a; stroke-opacity: 0.8"/>
     <use xlink:href="#mba4fba5a94" x="351.467911" y="48.39492" style="fill: #061f4a; fill-opacity: 0.8; stroke: #061f4a; stroke-opacity: 0.8"/>
     <use xlink:href="#mba4fba5a94" x="325.741729" y="124.440102" style="fill: #061f4a; fill-opacity: 0.8; stroke: #061f4a; stroke-opacity: 0.8"/>
     <use xlink:href="#mba4fba5a94" x="326.487846" y="72.004798" style="fill: #061f4a; fill-opacity: 0.8; stroke: #061f4a; stroke-opacity: 0.8"/>
     <use xlink:href="#mba4fba5a94" x="374.562588" y="88.944593" style="fill: #061f4a; fill-opacity: 0.8; stroke: #061f4a; stroke-opacity: 0.8"/>
     <use xlink:href="#mba4fba5a94" x="316.26755" y="86.558097" style="fill: #061f4a; fill-opacity: 0.8; stroke: #061f4a; stroke-opacity: 0.8"/>
     <use xlink:href="#mba4fba5a94" x="287.430554" y="111.490774" style="fill: #061f4a; fill-opacity: 0.8; stroke: #061f4a; stroke-opacity: 0.8"/>
     <use xlink:href="#mba4fba5a94" x="299.165939" y="154.653723" style="fill: #061f4a; fill-opacity: 0.8; stroke: #061f4a; stroke-opacity: 0.8"/>
     <use xlink:href="#mba4fba5a94" x="311.688965" y="80.286673" style="fill: #061f4a; fill-opacity: 0.8; stroke: #061f4a; stroke-opacity: 0.8"/>
     <use xlink:href="#mba4fba5a94" x="351.270646" y="72.050648" style="fill: #061f4a; fill-opacity: 0.8; stroke: #061f4a; stroke-opacity: 0.8"/>
     <use xlink:href="#mba4fba5a94" x="337.992478" y="84.106825" style="fill: #061f4a; fill-opacity: 0.8; stroke: #061f4a; stroke-opacity: 0.8"/>
     <use xlink:href="#mba4fba5a94" x="323.729321" y="95.13536" style="fill: #061f4a; fill-opacity: 0.8; stroke: #061f4a; stroke-opacity: 0.8"/>
     <use xlink:href="#mba4fba5a94" x="411.140333" y="56.485023" style="fill: #061f4a; fill-opacity: 0.8; stroke: #061f4a; stroke-opacity: 0.8"/>
     <use xlink:href="#mba4fba5a94" x="321.66918" y="237.727969" style="fill: #061f4a; fill-opacity: 0.8; stroke: #061f4a; stroke-opacity: 0.8"/>
     <use xlink:href="#mba4fba5a94" x="357.523896" y="108.786223" style="fill: #061f4a; fill-opacity: 0.8; stroke: #061f4a; stroke-opacity: 0.8"/>
     <use xlink:href="#mba4fba5a94" x="294.835271" y="152.183236" style="fill: #061f4a; fill-opacity: 0.8; stroke: #061f4a; stroke-opacity: 0.8"/>
     <use xlink:href="#mba4fba5a94" x="407.223653" y="80.875801" style="fill: #061f4a; fill-opacity: 0.8; stroke: #061f4a; stroke-opacity: 0.8"/>
     <use xlink:href="#mba4fba5a94" x="362.02225" y="160.382315" style="fill: #061f4a; fill-opacity: 0.8; stroke: #061f4a; stroke-opacity: 0.8"/>
     <use xlink:href="#mba4fba5a94" x="342.53596" y="182.040358" style="fill: #061f4a; fill-opacity: 0.8; stroke: #061f4a; stroke-opacity: 0.8"/>
     <use xlink:href="#mba4fba5a94" x="309.365228" y="236.153181" style="fill: #061f4a; fill-opacity: 0.8; stroke: #061f4a; stroke-opacity: 0.8"/>
     <use xlink:href="#mba4fba5a94" x="325.536382" y="239.230479" style="fill: #061f4a; fill-opacity: 0.8; stroke: #061f4a; stroke-opacity: 0.8"/>
     <use xlink:href="#mba4fba5a94" x="346.763" y="61.725716" style="fill: #061f4a; fill-opacity: 0.8; stroke: #061f4a; stroke-opacity: 0.8"/>
     <use xlink:href="#mba4fba5a94" x="318.222521" y="71.765455" style="fill: #061f4a; fill-opacity: 0.8; stroke: #061f4a; stroke-opacity: 0.8"/>
     <use xlink:href="#mba4fba5a94" x="334.078154" y="112.186021" style="fill: #061f4a; fill-opacity: 0.8; stroke: #061f4a; stroke-opacity: 0.8"/>
     <use xlink:href="#mba4fba5a94" x="322.860338" y="107.437142" style="fill: #061f4a; fill-opacity: 0.8; stroke: #061f4a; stroke-opacity: 0.8"/>
     <use xlink:href="#mba4fba5a94" x="389.289905" y="163.170754" style="fill: #061f4a; fill-opacity: 0.8; stroke: #061f4a; stroke-opacity: 0.8"/>
     <use xlink:href="#mba4fba5a94" x="325.098281" y="86.137739" style="fill: #061f4a; fill-opacity: 0.8; stroke: #061f4a; stroke-opacity: 0.8"/>
     <use xlink:href="#mba4fba5a94" x="320.567899" y="160.645856" style="fill: #061f4a; fill-opacity: 0.8; stroke: #061f4a; stroke-opacity: 0.8"/>
     <use xlink:href="#mba4fba5a94" x="290.291599" y="87.462009" style="fill: #061f4a; fill-opacity: 0.8; stroke: #061f4a; stroke-opacity: 0.8"/>
     <use xlink:href="#mba4fba5a94" x="365.916587" y="63.406133" style="fill: #061f4a; fill-opacity: 0.8; stroke: #061f4a; stroke-opacity: 0.8"/>
     <use xlink:href="#mba4fba5a94" x="316.747947" y="67.646484" style="fill: #061f4a; fill-opacity: 0.8; stroke: #061f4a; stroke-opacity: 0.8"/>
     <use xlink:href="#mba4fba5a94" x="325.999957" y="221.767284" style="fill: #061f4a; fill-opacity: 0.8; stroke: #061f4a; stroke-opacity: 0.8"/>
     <use xlink:href="#mba4fba5a94" x="322.636756" y="209.067226" style="fill: #061f4a; fill-opacity: 0.8; stroke: #061f4a; stroke-opacity: 0.8"/>
     <use xlink:href="#mba4fba5a94" x="341.823739" y="269.263829" style="fill: #061f4a; fill-opacity: 0.8; stroke: #061f4a; stroke-opacity: 0.8"/>
     <use xlink:href="#mba4fba5a94" x="330.0397" y="269.012107" style="fill: #061f4a; fill-opacity: 0.8; stroke: #061f4a; stroke-opacity: 0.8"/>
     <use xlink:href="#mba4fba5a94" x="322.149135" y="190.73731" style="fill: #061f4a; fill-opacity: 0.8; stroke: #061f4a; stroke-opacity: 0.8"/>
     <use xlink:href="#mba4fba5a94" x="327.068724" y="185.45793" style="fill: #061f4a; fill-opacity: 0.8; stroke: #061f4a; stroke-opacity: 0.8"/>
     <use xlink:href="#mba4fba5a94" x="326.330492" y="152.964783" style="fill: #061f4a; fill-opacity: 0.8; stroke: #061f4a; stroke-opacity: 0.8"/>
     <use xlink:href="#mba4fba5a94" x="375.265417" y="79.81305" style="fill: #061f4a; fill-opacity: 0.8; stroke: #061f4a; stroke-opacity: 0.8"/>
     <use xlink:href="#mba4fba5a94" x="340.107024" y="249.83605" style="fill: #061f4a; fill-opacity: 0.8; stroke: #061f4a; stroke-opacity: 0.8"/>
     <use xlink:href="#mba4fba5a94" x="318.99278" y="252.14004" style="fill: #061f4a; fill-opacity: 0.8; stroke: #061f4a; stroke-opacity: 0.8"/>
     <use xlink:href="#mba4fba5a94" x="344.680714" y="190.841239" style="fill: #061f4a; fill-opacity: 0.8; stroke: #061f4a; stroke-opacity: 0.8"/>
     <use xlink:href="#mba4fba5a94" x="389.50712" y="71.73904" style="fill: #061f4a; fill-opacity: 0.8; stroke: #061f4a; stroke-opacity: 0.8"/>
     <use xlink:href="#mba4fba5a94" x="301.096141" y="284.414645" style="fill: #061f4a; fill-opacity: 0.8; stroke: #061f4a; stroke-opacity: 0.8"/>
     <use xlink:href="#mba4fba5a94" x="302.489181" y="115.005928" style="fill: #061f4a; fill-opacity: 0.8; stroke: #061f4a; stroke-opacity: 0.8"/>
     <use xlink:href="#mba4fba5a94" x="325.012013" y="99.451262" style="fill: #061f4a; fill-opacity: 0.8; stroke: #061f4a; stroke-opacity: 0.8"/>
     <use xlink:href="#mba4fba5a94" x="327.412078" y="84.470794" style="fill: #061f4a; fill-opacity: 0.8; stroke: #061f4a; stroke-opacity: 0.8"/>
     <use xlink:href="#mba4fba5a94" x="344.084454" y="86.495888" style="fill: #061f4a; fill-opacity: 0.8; stroke: #061f4a; stroke-opacity: 0.8"/>
     <use xlink:href="#mba4fba5a94" x="333.33377" y="70.803457" style="fill: #061f4a; fill-opacity: 0.8; stroke: #061f4a; stroke-opacity: 0.8"/>
     <use xlink:href="#mba4fba5a94" x="344.241075" y="68.146364" style="fill: #061f4a; fill-opacity: 0.8; stroke: #061f4a; stroke-opacity: 0.8"/>
     <use xlink:href="#mba4fba5a94" x="347.09187" y="137.057637" style="fill: #061f4a; fill-opacity: 0.8; stroke: #061f4a; stroke-opacity: 0.8"/>
     <use xlink:href="#mba4fba5a94" x="335.42403" y="226.647848" style="fill: #061f4a; fill-opacity: 0.8; stroke: #061f4a; stroke-opacity: 0.8"/>
     <use xlink:href="#mba4fba5a94" x="365.4385" y="179.920035" style="fill: #061f4a; fill-opacity: 0.8; stroke: #061f4a; stroke-opacity: 0.8"/>
     <use xlink:href="#mba4fba5a94" x="316.484907" y="193.661685" style="fill: #061f4a; fill-opacity: 0.8; stroke: #061f4a; stroke-opacity: 0.8"/>
     <use xlink:href="#mba4fba5a94" x="366.57725" y="186.259229" style="fill: #061f4a; fill-opacity: 0.8; stroke: #061f4a; stroke-opacity: 0.8"/>
     <use xlink:href="#mba4fba5a94" x="345.88814" y="164.829113" style="fill: #061f4a; fill-opacity: 0.8; stroke: #061f4a; stroke-opacity: 0.8"/>
     <use xlink:href="#mba4fba5a94" x="335.201173" y="255.304621" style="fill: #061f4a; fill-opacity: 0.8; stroke: #061f4a; stroke-opacity: 0.8"/>
     <use xlink:href="#mba4fba5a94" x="362.116512" y="136.90644" style="fill: #061f4a; fill-opacity: 0.8; stroke: #061f4a; stroke-opacity: 0.8"/>
     <use xlink:href="#mba4fba5a94" x="308.230351" y="100.156944" style="fill: #061f4a; fill-opacity: 0.8; stroke: #061f4a; stroke-opacity: 0.8"/>
     <use xlink:href="#mba4fba5a94" x="291.183455" y="90.381775" style="fill: #061f4a; fill-opacity: 0.8; stroke: #061f4a; stroke-opacity: 0.8"/>
     <use xlink:href="#mba4fba5a94" x="344.411936" y="143.598547" style="fill: #061f4a; fill-opacity: 0.8; stroke: #061f4a; stroke-opacity: 0.8"/>
     <use xlink:href="#mba4fba5a94" x="362.231408" y="144.921481" style="fill: #061f4a; fill-opacity: 0.8; stroke: #061f4a; stroke-opacity: 0.8"/>
     <use xlink:href="#mba4fba5a94" x="332.569155" y="138.00114" style="fill: #061f4a; fill-opacity: 0.8; stroke: #061f4a; stroke-opacity: 0.8"/>
     <use xlink:href="#mba4fba5a94" x="343.553499" y="84.60276" style="fill: #061f4a; fill-opacity: 0.8; stroke: #061f4a; stroke-opacity: 0.8"/>
     <use xlink:href="#mba4fba5a94" x="422.091313" y="122.743276" style="fill: #061f4a; fill-opacity: 0.8; stroke: #061f4a; stroke-opacity: 0.8"/>
     <use xlink:href="#mba4fba5a94" x="396.123568" y="106.794276" style="fill: #061f4a; fill-opacity: 0.8; stroke: #061f4a; stroke-opacity: 0.8"/>
    </g>
   </g>
   <g id="PolyCollection_3">
    <path d="M 287.430554 135.424286 
L 287.430554 198.692861 
L 288.790764 197.420095 
L 290.150973 196.064147 
L 291.511183 194.640136 
L 292.871393 193.242757 
L 294.231602 192.067242 
L 295.591812 190.891726 
L 296.952022 189.807009 
L 298.312231 188.543981 
L 299.672441 187.303974 
L 301.032651 186.004108 
L 302.392861 184.908891 
L 303.75307 183.480736 
L 305.11328 182.195736 
L 306.47349 180.882805 
L 307.833699 179.46077 
L 309.193909 178.038722 
L 310.554119 176.610497 
L 311.914328 175.397996 
L 313.274538 174.304348 
L 314.634748 173.202238 
L 315.994957 172.044043 
L 317.355167 170.776036 
L 318.715377 169.538636 
L 320.075586 168.252107 
L 321.435796 166.975367 
L 322.796006 165.909039 
L 324.156215 164.691188 
L 325.516425 163.964755 
L 326.876635 162.778003 
L 328.236844 161.582208 
L 329.597054 160.256392 
L 330.957264 159.399745 
L 332.317474 158.571795 
L 333.677683 157.380483 
L 335.037893 156.552944 
L 336.398103 155.693656 
L 337.758312 154.940077 
L 339.118522 154.049565 
L 340.478732 153.066101 
L 341.838941 152.257991 
L 343.199151 151.512257 
L 344.559361 150.830897 
L 345.91957 150.030745 
L 347.27978 149.228472 
L 348.63999 148.551798 
L 350.000199 147.794141 
L 351.360409 146.941149 
L 352.720619 146.464659 
L 354.080828 145.957615 
L 355.441038 145.273824 
L 356.801248 144.778617 
L 358.161457 144.442702 
L 359.521667 143.96719 
L 360.881877 143.471598 
L 362.242087 143.015635 
L 363.602296 142.706902 
L 364.962506 142.325901 
L 366.322716 141.948224 
L 367.682925 141.531871 
L 369.043135 140.947007 
L 370.403345 140.526884 
L 371.763554 140.250884 
L 373.123764 139.974885 
L 374.483974 139.884868 
L 375.844183 139.894709 
L 377.204393 139.46458 
L 378.564603 139.504036 
L 379.924812 139.4833 
L 381.285022 139.182151 
L 382.645232 139.091182 
L 384.005441 139.036966 
L 385.365651 138.454189 
L 386.725861 137.9922 
L 388.08607 137.846874 
L 389.44628 137.506283 
L 390.80649 137.008532 
L 392.1667 136.831499 
L 393.526909 136.654465 
L 394.887119 136.477431 
L 396.247329 136.366641 
L 397.607538 136.367931 
L 398.967748 136.369221 
L 400.327958 136.370511 
L 401.688167 136.371801 
L 403.048377 136.243013 
L 404.408587 136.098685 
L 405.768796 135.748968 
L 407.129006 135.501946 
L 408.489216 135.254923 
L 409.849425 135.007901 
L 411.209635 134.919236 
L 412.569845 134.89094 
L 413.930054 134.862643 
L 415.290264 134.893236 
L 416.650474 134.831151 
L 418.010683 134.786791 
L 419.370893 134.755882 
L 420.731103 134.57457 
L 422.091313 134.595159 
L 422.091313 61.423946 
L 422.091313 61.423946 
L 420.731103 62.755908 
L 419.370893 64.09007 
L 418.010683 65.424233 
L 416.650474 66.758396 
L 415.290264 68.093282 
L 413.930054 69.42857 
L 412.569845 70.820595 
L 411.209635 72.247355 
L 409.849425 73.675197 
L 408.489216 75.103239 
L 407.129006 76.404401 
L 405.768796 77.621706 
L 404.408587 78.927429 
L 403.048377 80.092095 
L 401.688167 81.420239 
L 400.327958 82.633443 
L 398.967748 83.81492 
L 397.607538 84.900588 
L 396.247329 86.030528 
L 394.887119 87.165091 
L 393.526909 88.718802 
L 392.1667 90.028496 
L 390.80649 90.910838 
L 389.44628 91.956813 
L 388.08607 93.247929 
L 386.725861 94.565442 
L 385.365651 95.750245 
L 384.005441 96.607779 
L 382.645232 97.84299 
L 381.285022 98.950042 
L 379.924812 99.966224 
L 378.564603 101.048121 
L 377.204393 102.212834 
L 375.844183 103.142565 
L 374.483974 104.115073 
L 373.123764 105.283095 
L 371.763554 106.130336 
L 370.403345 107.021236 
L 369.043135 107.989484 
L 367.682925 108.956692 
L 366.322716 109.926772 
L 364.962506 111.018655 
L 363.602296 111.871125 
L 362.242087 112.730653 
L 360.881877 113.551514 
L 359.521667 114.377964 
L 358.161457 115.202275 
L 356.801248 115.776714 
L 355.441038 116.724986 
L 354.080828 117.447456 
L 352.720619 118.003497 
L 351.360409 118.471637 
L 350.000199 119.11909 
L 348.63999 119.683678 
L 347.27978 120.390773 
L 345.91957 120.837487 
L 344.559361 121.174772 
L 343.199151 121.675066 
L 341.838941 122.144985 
L 340.478732 122.837392 
L 339.118522 123.472387 
L 337.758312 124.134865 
L 336.398103 124.696209 
L 335.037893 125.164665 
L 333.677683 125.670941 
L 332.317474 125.951751 
L 330.957264 125.963269 
L 329.597054 126.422129 
L 328.236844 126.937748 
L 326.876635 127.118842 
L 325.516425 127.452955 
L 324.156215 127.879046 
L 322.796006 128.344839 
L 321.435796 129.021942 
L 320.075586 129.173097 
L 318.715377 129.43347 
L 317.355167 129.80573 
L 315.994957 129.931352 
L 314.634748 130.14593 
L 313.274538 130.361039 
L 311.914328 130.746835 
L 310.554119 131.143426 
L 309.193909 131.552789 
L 307.833699 132.100787 
L 306.47349 132.501777 
L 305.11328 132.733452 
L 303.75307 133.080768 
L 302.392861 133.263387 
L 301.032651 133.248928 
L 299.672441 133.651664 
L 298.312231 133.550498 
L 296.952022 133.455348 
L 295.591812 133.417045 
L 294.231602 133.745771 
L 292.871393 134.081474 
L 291.511183 134.417177 
L 290.150973 134.75288 
L 288.790764 135.088583 
L 287.430554 135.424286 
z
" clip-path="url(#p296eef21bf)" style="fill: #061f4a; fill-opacity: 0.15"/>
   </g>
   <g id="matplotlib.axis_1">
    <g id="xtick_1">
     <g id="line2d_1">
      <path d="M 47.955 317.94 
L 47.955 14.76 
" clip-path="url(#p296eef21bf)" style="fill: none; stroke: #808080; stroke-width: 0.25; stroke-linecap: square"/>
     </g>
     <g id="line2d_2">
      <defs>
       <path id="m701068fe54" d="M 0 0 
L 0 -3.5 
" style="stroke: #000000; stroke-width: 0.8"/>
      </defs>
      <g>
       <use xlink:href="#m701068fe54" x="47.955" y="317.94" style="stroke: #000000; stroke-width: 0.8"/>
      </g>
     </g>
     <g id="text_1">
      <text style="font: 10px 'DejaVu Sans', 'Bitstream Vera Sans', 'Computer Modern Sans Serif', 'Lucida Grande', 'Verdana', 'Geneva', 'Lucid', 'Arial', 'Helvetica', 'Avant Garde', sans-serif; text-anchor: middle" x="47.955" y="329.038437" transform="rotate(-0 47.955 329.038437)">0.0</text>
     </g>
    </g>
    <g id="xtick_2">
     <g id="line2d_3">
      <path d="M 135.411 317.94 
L 135.411 14.76 
" clip-path="url(#p296eef21bf)" style="fill: none; stroke: #808080; stroke-width: 0.25; stroke-linecap: square"/>
     </g>
     <g id="line2d_4">
      <g>
       <use xlink:href="#m701068fe54" x="135.411" y="317.94" style="stroke: #000000; stroke-width: 0.8"/>
      </g>
     </g>
     <g id="text_2">
      <text style="font: 10px 'DejaVu Sans', 'Bitstream Vera Sans', 'Computer Modern Sans Serif', 'Lucida Grande', 'Verdana', 'Geneva', 'Lucid', 'Arial', 'Helvetica', 'Avant Garde', sans-serif; text-anchor: middle" x="135.411" y="329.038437" transform="rotate(-0 135.411 329.038437)">0.2</text>
     </g>
    </g>
    <g id="xtick_3">
     <g id="line2d_5">
      <path d="M 222.867 317.94 
L 222.867 14.76 
" clip-path="url(#p296eef21bf)" style="fill: none; stroke: #808080; stroke-width: 0.25; stroke-linecap: square"/>
     </g>
     <g id="line2d_6">
      <g>
       <use xlink:href="#m701068fe54" x="222.867" y="317.94" style="stroke: #000000; stroke-width: 0.8"/>
      </g>
     </g>
     <g id="text_3">
      <text style="font: 10px 'DejaVu Sans', 'Bitstream Vera Sans', 'Computer Modern Sans Serif', 'Lucida Grande', 'Verdana', 'Geneva', 'Lucid', 'Arial', 'Helvetica', 'Avant Garde', sans-serif; text-anchor: middle" x="222.867" y="329.038437" transform="rotate(-0 222.867 329.038437)">0.4</text>
     </g>
    </g>
    <g id="xtick_4">
     <g id="line2d_7">
      <path d="M 310.323 317.94 
L 310.323 14.76 
" clip-path="url(#p296eef21bf)" style="fill: none; stroke: #808080; stroke-width: 0.25; stroke-linecap: square"/>
     </g>
     <g id="line2d_8">
      <g>
       <use xlink:href="#m701068fe54" x="310.323" y="317.94" style="stroke: #000000; stroke-width: 0.8"/>
      </g>
     </g>
     <g id="text_4">
      <text style="font: 10px 'DejaVu Sans', 'Bitstream Vera Sans', 'Computer Modern Sans Serif', 'Lucida Grande', 'Verdana', 'Geneva', 'Lucid', 'Arial', 'Helvetica', 'Avant Garde', sans-serif; text-anchor: middle" x="310.323" y="329.038437" transform="rotate(-0 310.323 329.038437)">0.6</text>
     </g>
    </g>
    <g id="xtick_5">
     <g id="line2d_9">
      <path d="M 397.779 317.94 
L 397.779 14.76 
" clip-path="url(#p296eef21bf)" style="fill: none; stroke: #808080; stroke-width: 0.25; stroke-linecap: square"/>
     </g>
     <g id="line2d_10">
      <g>
       <use xlink:href="#m701068fe54" x="397.779" y="317.94" style="stroke: #000000; stroke-width: 0.8"/>
      </g>
     </g>
     <g id="text_5">
      <text style="font: 10px 'DejaVu Sans', 'Bitstream Vera Sans', 'Computer Modern Sans Serif', 'Lucida Grande', 'Verdana', 'Geneva', 'Lucid', 'Arial', 'Helvetica', 'Avant Garde', sans-serif; text-anchor: middle" x="397.779" y="329.038437" transform="rotate(-0 397.779 329.038437)">0.8</text>
     </g>
    </g>
    <g id="xtick_6">
     <g id="line2d_11">
      <path d="M 485.235 317.94 
L 485.235 14.76 
" clip-path="url(#p296eef21bf)" style="fill: none; stroke: #808080; stroke-width: 0.25; stroke-linecap: square"/>
     </g>
     <g id="line2d_12">
      <g>
       <use xlink:href="#m701068fe54" x="485.235" y="317.94" style="stroke: #000000; stroke-width: 0.8"/>
      </g>
     </g>
     <g id="text_6">
      <text style="font: 10px 'DejaVu Sans', 'Bitstream Vera Sans', 'Computer Modern Sans Serif', 'Lucida Grande', 'Verdana', 'Geneva', 'Lucid', 'Arial', 'Helvetica', 'Avant Garde', sans-serif; text-anchor: middle" x="485.235" y="329.038437" transform="rotate(-0 485.235 329.038437)">1.0</text>
     </g>
    </g>
    <g id="text_7">
     <text style="font: 14px 'DejaVu Sans', 'Bitstream Vera Sans', 'Computer Modern Sans Serif', 'Lucida Grande', 'Verdana', 'Geneva', 'Lucid', 'Arial', 'Helvetica', 'Avant Garde', sans-serif; text-anchor: middle" x="266.595" y="345.755938" transform="rotate(-0 266.595 345.755938)">AFM-LIS</text>
    </g>
   </g>
   <g id="matplotlib.axis_2">
    <g id="ytick_1">
     <g id="line2d_13">
      <path d="M 47.955 317.94 
L 485.235 317.94 
" clip-path="url(#p296eef21bf)" style="fill: none; stroke: #808080; stroke-width: 0.25; stroke-linecap: square"/>
     </g>
     <g id="line2d_14">
      <defs>
       <path id="medfdd96afe" d="M 0 0 
L 3.5 0 
" style="stroke: #000000; stroke-width: 0.8"/>
      </defs>
      <g>
       <use xlink:href="#medfdd96afe" x="47.955" y="317.94" style="stroke: #000000; stroke-width: 0.8"/>
      </g>
     </g>
     <g id="text_8">
      <text style="font: 10px 'DejaVu Sans', 'Bitstream Vera Sans', 'Computer Modern Sans Serif', 'Lucida Grande', 'Verdana', 'Geneva', 'Lucid', 'Arial', 'Helvetica', 'Avant Garde', sans-serif; text-anchor: end" x="44.455" y="321.739219" transform="rotate(-0 44.455 321.739219)">0.0</text>
     </g>
    </g>
    <g id="ytick_2">
     <g id="line2d_15">
      <path d="M 47.955 257.304 
L 485.235 257.304 
" clip-path="url(#p296eef21bf)" style="fill: none; stroke: #808080; stroke-width: 0.25; stroke-linecap: square"/>
     </g>
     <g id="line2d_16">
      <g>
       <use xlink:href="#medfdd96afe" x="47.955" y="257.304" style="stroke: #000000; stroke-width: 0.8"/>
      </g>
     </g>
     <g id="text_9">
      <text style="font: 10px 'DejaVu Sans', 'Bitstream Vera Sans', 'Computer Modern Sans Serif', 'Lucida Grande', 'Verdana', 'Geneva', 'Lucid', 'Arial', 'Helvetica', 'Avant Garde', sans-serif; text-anchor: end" x="44.455" y="261.103219" transform="rotate(-0 44.455 261.103219)">0.2</text>
     </g>
    </g>
    <g id="ytick_3">
     <g id="line2d_17">
      <path d="M 47.955 196.668 
L 485.235 196.668 
" clip-path="url(#p296eef21bf)" style="fill: none; stroke: #808080; stroke-width: 0.25; stroke-linecap: square"/>
     </g>
     <g id="line2d_18">
      <g>
       <use xlink:href="#medfdd96afe" x="47.955" y="196.668" style="stroke: #000000; stroke-width: 0.8"/>
      </g>
     </g>
     <g id="text_10">
      <text style="font: 10px 'DejaVu Sans', 'Bitstream Vera Sans', 'Computer Modern Sans Serif', 'Lucida Grande', 'Verdana', 'Geneva', 'Lucid', 'Arial', 'Helvetica', 'Avant Garde', sans-serif; text-anchor: end" x="44.455" y="200.467219" transform="rotate(-0 44.455 200.467219)">0.4</text>
     </g>
    </g>
    <g id="ytick_4">
     <g id="line2d_19">
      <path d="M 47.955 136.032 
L 485.235 136.032 
" clip-path="url(#p296eef21bf)" style="fill: none; stroke: #808080; stroke-width: 0.25; stroke-linecap: square"/>
     </g>
     <g id="line2d_20">
      <g>
       <use xlink:href="#medfdd96afe" x="47.955" y="136.032" style="stroke: #000000; stroke-width: 0.8"/>
      </g>
     </g>
     <g id="text_11">
      <text style="font: 10px 'DejaVu Sans', 'Bitstream Vera Sans', 'Computer Modern Sans Serif', 'Lucida Grande', 'Verdana', 'Geneva', 'Lucid', 'Arial', 'Helvetica', 'Avant Garde', sans-serif; text-anchor: end" x="44.455" y="139.831219" transform="rotate(-0 44.455 139.831219)">0.6</text>
     </g>
    </g>
    <g id="ytick_5">
     <g id="line2d_21">
      <path d="M 47.955 75.396 
L 485.235 75.396 
" clip-path="url(#p296eef21bf)" style="fill: none; stroke: #808080; stroke-width: 0.25; stroke-linecap: square"/>
     </g>
     <g id="line2d_22">
      <g>
       <use xlink:href="#medfdd96afe" x="47.955" y="75.396" style="stroke: #000000; stroke-width: 0.8"/>
      </g>
     </g>
     <g id="text_12">
      <text style="font: 10px 'DejaVu Sans', 'Bitstream Vera Sans', 'Computer Modern Sans Serif', 'Lucida Grande', 'Verdana', 'Geneva', 'Lucid', 'Arial', 'Helvetica', 'Avant Garde', sans-serif; text-anchor: end" x="44.455" y="79.195219" transform="rotate(-0 44.455 79.195219)">0.8</text>
     </g>
    </g>
    <g id="ytick_6">
     <g id="line2d_23">
      <path d="M 47.955 14.76 
L 485.235 14.76 
" clip-path="url(#p296eef21bf)" style="fill: none; stroke: #808080; stroke-width: 0.25; stroke-linecap: square"/>
     </g>
     <g id="line2d_24">
      <g>
       <use xlink:href="#medfdd96afe" x="47.955" y="14.76" style="stroke: #000000; stroke-width: 0.8"/>
      </g>
     </g>
     <g id="text_13">
      <text style="font: 10px 'DejaVu Sans', 'Bitstream Vera Sans', 'Computer Modern Sans Serif', 'Lucida Grande', 'Verdana', 'Geneva', 'Lucid', 'Arial', 'Helvetica', 'Avant Garde', sans-serif; text-anchor: end" x="44.455" y="18.559219" transform="rotate(-0 44.455 18.559219)">1.0</text>
     </g>
    </g>
    <g id="text_14">
     <text style="font: 14px 'DejaVu Sans', 'Bitstream Vera Sans', 'Computer Modern Sans Serif', 'Lucida Grande', 'Verdana', 'Geneva', 'Lucid', 'Arial', 'Helvetica', 'Avant Garde', sans-serif; text-anchor: middle" x="21.640313" y="166.35" transform="rotate(-90 21.640313 166.35)">DockQ score</text>
    </g>
   </g>
   <g id="line2d_25">
    <path d="M 47.955 246.210255 
L 51.095465 244.113495 
L 54.235931 242.016735 
L 57.376396 239.919974 
L 60.516862 237.823214 
L 63.657327 235.726454 
L 66.797793 233.629694 
L 69.938258 231.532933 
L 73.078724 229.436173 
L 76.219189 227.339413 
L 79.359655 225.242653 
L 82.50012 223.145893 
L 85.640585 221.049132 
L 88.781051 218.952372 
L 91.921516 216.855612 
L 95.061982 214.758852 
L 98.202447 212.662091 
L 101.342913 210.565331 
L 104.483378 208.468571 
L 107.623844 206.371811 
L 110.764309 204.275051 
L 113.904775 202.17829 
L 117.04524 200.08153 
L 120.185705 197.98477 
L 123.326171 195.88801 
L 126.466636 193.791249 
L 129.607102 191.694489 
L 132.747567 189.597729 
L 135.888033 187.500969 
L 139.028498 185.404209 
L 142.168964 183.307448 
L 145.309429 181.210688 
L 148.449895 179.113928 
L 151.59036 177.017168 
L 154.730825 174.920407 
L 157.871291 172.823647 
L 161.011756 170.726887 
L 164.152222 168.630127 
L 167.292687 166.533367 
L 170.433153 164.436606 
L 173.573618 162.339846 
L 176.714084 160.243086 
L 179.854549 158.146326 
L 182.995015 156.049565 
L 186.13548 153.952805 
L 189.275945 151.856045 
L 192.416411 149.759285 
L 195.556876 147.662525 
L 198.697342 145.565764 
L 201.837807 143.469004 
L 204.978273 141.372244 
L 208.118738 139.275484 
L 211.259204 137.178723 
L 214.399669 135.081963 
L 217.540135 132.985203 
L 220.6806 130.888443 
L 223.821065 128.791682 
L 226.961531 126.694922 
L 230.101996 124.598162 
L 233.242462 122.501402 
L 236.382927 120.404642 
L 239.523393 118.307881 
L 242.663858 116.211121 
L 245.804324 114.114361 
L 248.944789 112.017601 
L 252.085255 109.92084 
L 255.22572 107.82408 
L 258.366185 105.72732 
L 261.506651 103.63056 
L 264.647116 101.5338 
L 267.787582 99.437039 
L 270.928047 97.340279 
L 274.068513 95.243519 
L 277.208978 93.146759 
L 280.349444 91.049998 
L 283.489909 88.953238 
L 286.630375 86.856478 
L 289.77084 84.759718 
L 292.911305 82.662958 
L 296.051771 80.566197 
L 299.192236 78.469437 
L 302.332702 76.372677 
L 305.473167 74.275917 
L 308.613633 72.179156 
L 311.754098 70.082396 
L 314.894564 67.985636 
L 318.035029 65.888876 
L 321.175495 63.792116 
L 324.31596 61.695355 
L 327.456425 59.598595 
L 330.596891 57.501835 
L 333.737356 55.405075 
L 336.877822 53.308314 
L 340.018287 51.211554 
L 343.158753 49.114794 
L 346.299218 47.018034 
L 349.439684 44.921273 
L 352.580149 42.824513 
L 355.720615 40.727753 
L 358.86108 38.630993 
" clip-path="url(#p296eef21bf)" style="fill: none; stroke: #115185; stroke-width: 2; stroke-linecap: square"/>
   </g>
   <g id="line2d_26">
    <path d="M 56.7006 240.687446 
L 59.65997 238.735291 
L 62.619339 236.783137 
L 65.578709 234.830983 
L 68.538079 232.878829 
L 71.497448 230.926675 
L 74.456818 228.974521 
L 77.416188 227.022366 
L 80.375558 225.070212 
L 83.334927 223.118058 
L 86.294297 221.165904 
L 89.253667 219.21375 
L 92.213036 217.261596 
L 95.172406 215.309441 
L 98.131776 213.357287 
L 101.091145 211.405133 
L 104.050515 209.452979 
L 107.009885 207.500825 
L 109.969255 205.548671 
L 112.928624 203.596516 
L 115.887994 201.644362 
L 118.847364 199.692208 
L 121.806733 197.740054 
L 124.766103 195.7879 
L 127.725473 193.835746 
L 130.684842 191.883591 
L 133.644212 189.931437 
L 136.603582 187.979283 
L 139.562952 186.027129 
L 142.522321 184.074975 
L 145.481691 182.122821 
L 148.441061 180.170666 
L 151.40043 178.218512 
L 154.3598 176.266358 
L 157.31917 174.314204 
L 160.278539 172.36205 
L 163.237909 170.409896 
L 166.197279 168.457741 
L 169.156648 166.505587 
L 172.116018 164.553433 
L 175.075388 162.601279 
L 178.034758 160.649125 
L 180.994127 158.696971 
L 183.953497 156.744816 
L 186.912867 154.792662 
L 189.872236 152.840508 
L 192.831606 150.888354 
L 195.790976 148.9362 
L 198.750345 146.984046 
L 201.709715 145.031891 
L 204.669085 143.079737 
L 207.628455 141.127583 
L 210.587824 139.175429 
L 213.547194 137.223275 
L 216.506564 135.271121 
L 219.465933 133.318966 
L 222.425303 131.366812 
L 225.384673 129.414658 
L 228.344042 127.462504 
L 231.303412 125.51035 
L 234.262782 123.558196 
L 237.222152 121.606041 
L 240.181521 119.653887 
L 243.140891 117.701733 
L 246.100261 115.749579 
L 249.05963 113.797425 
L 252.019 111.845271 
L 254.97837 109.893116 
L 257.937739 107.940962 
L 260.897109 105.988808 
L 263.856479 104.036654 
L 266.815848 102.0845 
L 269.775218 100.132346 
L 272.734588 98.180191 
L 275.693958 96.228037 
L 278.653327 94.275883 
L 281.612697 92.323729 
L 284.572067 90.371575 
L 287.531436 88.419421 
L 290.490806 86.467266 
L 293.450176 84.515112 
L 296.409545 82.562958 
L 299.368915 80.610804 
L 302.328285 78.65865 
L 305.287655 76.706496 
L 308.247024 74.754341 
L 311.206394 72.802187 
L 314.165764 70.850033 
L 317.125133 68.897879 
L 320.084503 66.945725 
L 323.043873 64.993571 
L 326.003242 63.041416 
L 328.962612 61.089262 
L 331.921982 59.137108 
L 334.881352 57.184954 
L 337.840721 55.2328 
L 340.800091 53.280646 
L 343.759461 51.328491 
L 346.71883 49.376337 
L 349.6782 47.424183 
" clip-path="url(#p296eef21bf)" style="fill: none; stroke: #008fd7; stroke-width: 2; stroke-linecap: square"/>
   </g>
   <g id="line2d_27">
    <path d="M 287.430554 161.280513 
L 288.790764 160.665992 
L 290.150973 160.051471 
L 291.511183 159.43695 
L 292.871393 158.822428 
L 294.231602 158.207907 
L 295.591812 157.593386 
L 296.952022 156.978865 
L 298.312231 156.364344 
L 299.672441 155.749822 
L 301.032651 155.135301 
L 302.392861 154.52078 
L 303.75307 153.906259 
L 305.11328 153.291738 
L 306.47349 152.677217 
L 307.833699 152.062695 
L 309.193909 151.448174 
L 310.554119 150.833653 
L 311.914328 150.219132 
L 313.274538 149.604611 
L 314.634748 148.990089 
L 315.994957 148.375568 
L 317.355167 147.761047 
L 318.715377 147.146526 
L 320.075586 146.532005 
L 321.435796 145.917483 
L 322.796006 145.302962 
L 324.156215 144.688441 
L 325.516425 144.07392 
L 326.876635 143.459399 
L 328.236844 142.844877 
L 329.597054 142.230356 
L 330.957264 141.615835 
L 332.317474 141.001314 
L 333.677683 140.386793 
L 335.037893 139.772272 
L 336.398103 139.15775 
L 337.758312 138.543229 
L 339.118522 137.928708 
L 340.478732 137.314187 
L 341.838941 136.699666 
L 343.199151 136.085144 
L 344.559361 135.470623 
L 345.91957 134.856102 
L 347.27978 134.241581 
L 348.63999 133.62706 
L 350.000199 133.012538 
L 351.360409 132.398017 
L 352.720619 131.783496 
L 354.080828 131.168975 
L 355.441038 130.554454 
L 356.801248 129.939932 
L 358.161457 129.325411 
L 359.521667 128.71089 
L 360.881877 128.096369 
L 362.242087 127.481848 
L 363.602296 126.867327 
L 364.962506 126.252805 
L 366.322716 125.638284 
L 367.682925 125.023763 
L 369.043135 124.409242 
L 370.403345 123.794721 
L 371.763554 123.180199 
L 373.123764 122.565678 
L 374.483974 121.951157 
L 375.844183 121.336636 
L 377.204393 120.722115 
L 378.564603 120.107593 
L 379.924812 119.493072 
L 381.285022 118.878551 
L 382.645232 118.26403 
L 384.005441 117.649509 
L 385.365651 117.034987 
L 386.725861 116.420466 
L 388.08607 115.805945 
L 389.44628 115.191424 
L 390.80649 114.576903 
L 392.1667 113.962382 
L 393.526909 113.34786 
L 394.887119 112.733339 
L 396.247329 112.118818 
L 397.607538 111.504297 
L 398.967748 110.889776 
L 400.327958 110.275254 
L 401.688167 109.660733 
L 403.048377 109.046212 
L 404.408587 108.431691 
L 405.768796 107.81717 
L 407.129006 107.202648 
L 408.489216 106.588127 
L 409.849425 105.973606 
L 411.209635 105.359085 
L 412.569845 104.744564 
L 413.930054 104.130043 
L 415.290264 103.515521 
L 416.650474 102.901 
L 418.010683 102.286479 
L 419.370893 101.671958 
L 420.731103 101.057437 
L 422.091313 100.442915 
" clip-path="url(#p296eef21bf)" style="fill: none; stroke: #061f4a; stroke-width: 2; stroke-linecap: square"/>
   </g>
   <g id="patch_3">
    <path d="M 47.955 317.94 
L 47.955 14.76 
" style="fill: none; stroke: #000000; stroke-width: 0.8; stroke-linejoin: miter; stroke-linecap: square"/>
   </g>
   <g id="patch_4">
    <path d="M 485.235 317.94 
L 485.235 14.76 
" style="fill: none; stroke: #000000; stroke-width: 0.8; stroke-linejoin: miter; stroke-linecap: square"/>
   </g>
   <g id="patch_5">
    <path d="M 47.955 317.94 
L 485.235 317.94 
" style="fill: none; stroke: #000000; stroke-width: 0.8; stroke-linejoin: miter; stroke-linecap: square"/>
   </g>
   <g id="patch_6">
    <path d="M 47.955 14.76 
L 485.235 14.76 
" style="fill: none; stroke: #000000; stroke-width: 0.8; stroke-linejoin: miter; stroke-linecap: square"/>
   </g>
   <g id="legend_1">
    <g id="patch_7">
     <path d="M 302.48 317.78 
L 481.875 317.78 
Q 485.075 317.78 485.075 314.58 
L 485.075 263.637187 
Q 485.075 260.437187 481.875 260.437187 
L 302.48 260.437187 
Q 299.28 260.437187 299.28 263.637187 
L 299.28 314.58 
Q 299.28 317.78 302.48 317.78 
z
" style="fill: #ffffff; stroke: #cccccc; stroke-width: 0.1; stroke-linejoin: miter"/>
    </g>
    <g id="text_15">
     <text style="font: 1px 'DejaVu Sans', 'Bitstream Vera Sans', 'Computer Modern Sans Serif', 'Lucida Grande', 'Verdana', 'Geneva', 'Lucid', 'Arial', 'Helvetica', 'Avant Garde', sans-serif; text-anchor: start" x="390.676172" y="261.357031" transform="rotate(-0 390.676172 261.357031)">Model</text>
    </g>
    <g id="PathCollection_4">
     <g>
      <use xlink:href="#ma467b6b8a2" x="315.44" y="272.7225" style="fill: #115185; fill-opacity: 0.8; stroke: #115185; stroke-opacity: 0.8"/>
     </g>
    </g>
    <g id="text_16">
     <text style="font: 16px 'DejaVu Sans', 'Bitstream Vera Sans', 'Computer Modern Sans Serif', 'Lucida Grande', 'Verdana', 'Geneva', 'Lucid', 'Arial', 'Helvetica', 'Avant Garde', sans-serif; text-anchor: start" x="331.44" y="276.9225" transform="rotate(-0 331.44 276.9225)">AF2</text>
    </g>
    <g id="PathCollection_5">
     <g>
      <use xlink:href="#m7bf7c9a226" x="315.44" y="291.4075" style="fill: #008fd7; fill-opacity: 0.8; stroke: #008fd7; stroke-opacity: 0.8"/>
     </g>
    </g>
    <g id="text_17">
     <text style="font: 16px 'DejaVu Sans', 'Bitstream Vera Sans', 'Computer Modern Sans Serif', 'Lucida Grande', 'Verdana', 'Geneva', 'Lucid', 'Arial', 'Helvetica', 'Avant Garde', sans-serif; text-anchor: start" x="331.44" y="295.6075" transform="rotate(-0 331.44 295.6075)">AF2 (no templates)</text>
    </g>
    <g id="PathCollection_6">
     <g>
      <use xlink:href="#mba4fba5a94" x="315.44" y="310.0925" style="fill: #061f4a; fill-opacity: 0.8; stroke: #061f4a; stroke-opacity: 0.8"/>
     </g>
    </g>
    <g id="text_18">
     <text style="font: 16px 'DejaVu Sans', 'Bitstream Vera Sans', 'Computer Modern Sans Serif', 'Lucida Grande', 'Verdana', 'Geneva', 'Lucid', 'Arial', 'Helvetica', 'Avant Garde', sans-serif; text-anchor: start" x="331.44" y="314.2925" transform="rotate(-0 331.44 314.2925)">AF3 (server)</text>
    </g>
   </g>
  </g>
 </g>
 <defs>
  <clipPath id="p296eef21bf">
   <rect x="47.955" y="14.76" width="437.28" height="303.18"/>
  </clipPath>
 </defs>
</svg>
