<?xml version="1.0" encoding="utf-8" standalone="no"?>
<!DOCTYPE svg PUBLIC "-//W3C//DTD SVG 1.1//EN"
  "http://www.w3.org/Graphics/SVG/1.1/DTD/svg11.dtd">
<svg xmlns:xlink="http://www.w3.org/1999/xlink" width="288pt" height="288pt" viewBox="0 0 288 288" xmlns="http://www.w3.org/2000/svg" version="1.1">
 <metadata>
  <rdf:RDF xmlns:dc="http://purl.org/dc/elements/1.1/" xmlns:cc="http://creativecommons.org/ns#" xmlns:rdf="http://www.w3.org/1999/02/22-rdf-syntax-ns#">
   <cc:Work>
    <dc:type rdf:resource="http://purl.org/dc/dcmitype/StillImage"/>
    <dc:date>2025-03-05T17:37:21.224754</dc:date>
    <dc:format>image/svg+xml</dc:format>
    <dc:creator>
     <cc:Agent>
      <dc:title>Matplotlib v3.10.0, https://matplotlib.org/</dc:title>
     </cc:Agent>
    </dc:creator>
   </cc:Work>
  </rdf:RDF>
 </metadata>
 <defs>
  <style type="text/css">*{stroke-linejoin: round; stroke-linecap: butt}</style>
 </defs>
 <g id="figure_1">
  <g id="patch_1">
   <path d="M 0 288 
L 288 288 
L 288 0 
L 0 0 
z
" style="fill: #ffffff"/>
  </g>
  <g id="axes_1">
   <g id="patch_2">
    <path d="M 53.6132 245.532 
L 265.9292 245.532 
L 265.9292 33.216 
L 53.6132 33.216 
z
" style="fill: #ffffff"/>
   </g>
   <g id="matplotlib.axis_1">
    <g id="xtick_1">
     <g id="line2d_1">
      <path d="M 53.6132 245.532 
L 53.6132 33.216 
" clip-path="url(#pfa34111a10)" style="fill: none; stroke-dasharray: 2.96,1.28; stroke-dashoffset: 0; stroke: #cccccc; stroke-opacity: 0.5; stroke-width: 0.8"/>
     </g>
     <g id="text_1">
      <!-- 0.0 -->
      <g style="fill: #262626" transform="translate(45.2732 262.421375) scale(0.12 -0.12)">
       <defs>
        <path id="ArialMT-30" d="M 266 2259 
Q 266 3072 433 3567 
Q 600 4063 929 4331 
Q 1259 4600 1759 4600 
Q 2128 4600 2406 4451 
Q 2684 4303 2865 4023 
Q 3047 3744 3150 3342 
Q 3253 2941 3253 2259 
Q 3253 1453 3087 958 
Q 2922 463 2592 192 
Q 2263 -78 1759 -78 
Q 1097 -78 719 397 
Q 266 969 266 2259 
z
M 844 2259 
Q 844 1131 1108 757 
Q 1372 384 1759 384 
Q 2147 384 2411 759 
Q 2675 1134 2675 2259 
Q 2675 3391 2411 3762 
Q 2147 4134 1753 4134 
Q 1366 4134 1134 3806 
Q 844 3388 844 2259 
z
" transform="scale(0.015625)"/>
        <path id="ArialMT-2e" d="M 581 0 
L 581 641 
L 1222 641 
L 1222 0 
L 581 0 
z
" transform="scale(0.015625)"/>
       </defs>
       <use xlink:href="#ArialMT-30"/>
       <use xlink:href="#ArialMT-2e" transform="translate(55.615234 0)"/>
       <use xlink:href="#ArialMT-30" transform="translate(83.398438 0)"/>
      </g>
     </g>
    </g>
    <g id="xtick_2">
     <g id="line2d_2">
      <path d="M 74.634587 245.532 
L 74.634587 33.216 
" clip-path="url(#pfa34111a10)" style="fill: none; stroke-dasharray: 2.96,1.28; stroke-dashoffset: 0; stroke: #cccccc; stroke-opacity: 0.5; stroke-width: 0.8"/>
     </g>
    </g>
    <g id="xtick_3">
     <g id="line2d_3">
      <path d="M 95.655973 245.532 
L 95.655973 33.216 
" clip-path="url(#pfa34111a10)" style="fill: none; stroke-dasharray: 2.96,1.28; stroke-dashoffset: 0; stroke: #cccccc; stroke-opacity: 0.5; stroke-width: 0.8"/>
     </g>
     <g id="text_2">
      <!-- 0.2 -->
      <g style="fill: #262626" transform="translate(87.315973 262.421375) scale(0.12 -0.12)">
       <defs>
        <path id="ArialMT-32" d="M 3222 541 
L 3222 0 
L 194 0 
Q 188 203 259 391 
Q 375 700 629 1000 
Q 884 1300 1366 1694 
Q 2113 2306 2375 2664 
Q 2638 3022 2638 3341 
Q 2638 3675 2398 3904 
Q 2159 4134 1775 4134 
Q 1369 4134 1125 3890 
Q 881 3647 878 3216 
L 300 3275 
Q 359 3922 746 4261 
Q 1134 4600 1788 4600 
Q 2447 4600 2831 4234 
Q 3216 3869 3216 3328 
Q 3216 3053 3103 2787 
Q 2991 2522 2730 2228 
Q 2469 1934 1863 1422 
Q 1356 997 1212 845 
Q 1069 694 975 541 
L 3222 541 
z
" transform="scale(0.015625)"/>
       </defs>
       <use xlink:href="#ArialMT-30"/>
       <use xlink:href="#ArialMT-2e" transform="translate(55.615234 0)"/>
       <use xlink:href="#ArialMT-32" transform="translate(83.398438 0)"/>
      </g>
     </g>
    </g>
    <g id="xtick_4">
     <g id="line2d_4">
      <path d="M 116.677359 245.532 
L 116.677359 33.216 
" clip-path="url(#pfa34111a10)" style="fill: none; stroke-dasharray: 2.96,1.28; stroke-dashoffset: 0; stroke: #cccccc; stroke-opacity: 0.5; stroke-width: 0.8"/>
     </g>
    </g>
    <g id="xtick_5">
     <g id="line2d_5">
      <path d="M 137.698745 245.532 
L 137.698745 33.216 
" clip-path="url(#pfa34111a10)" style="fill: none; stroke-dasharray: 2.96,1.28; stroke-dashoffset: 0; stroke: #cccccc; stroke-opacity: 0.5; stroke-width: 0.8"/>
     </g>
     <g id="text_3">
      <!-- 0.4 -->
      <g style="fill: #262626" transform="translate(129.358745 262.421375) scale(0.12 -0.12)">
       <defs>
        <path id="ArialMT-34" d="M 2069 0 
L 2069 1097 
L 81 1097 
L 81 1613 
L 2172 4581 
L 2631 4581 
L 2631 1613 
L 3250 1613 
L 3250 1097 
L 2631 1097 
L 2631 0 
L 2069 0 
z
M 2069 1613 
L 2069 3678 
L 634 1613 
L 2069 1613 
z
" transform="scale(0.015625)"/>
       </defs>
       <use xlink:href="#ArialMT-30"/>
       <use xlink:href="#ArialMT-2e" transform="translate(55.615234 0)"/>
       <use xlink:href="#ArialMT-34" transform="translate(83.398438 0)"/>
      </g>
     </g>
    </g>
    <g id="xtick_6">
     <g id="line2d_6">
      <path d="M 158.720131 245.532 
L 158.720131 33.216 
" clip-path="url(#pfa34111a10)" style="fill: none; stroke-dasharray: 2.96,1.28; stroke-dashoffset: 0; stroke: #cccccc; stroke-opacity: 0.5; stroke-width: 0.8"/>
     </g>
    </g>
    <g id="xtick_7">
     <g id="line2d_7">
      <path d="M 179.741517 245.532 
L 179.741517 33.216 
" clip-path="url(#pfa34111a10)" style="fill: none; stroke-dasharray: 2.96,1.28; stroke-dashoffset: 0; stroke: #cccccc; stroke-opacity: 0.5; stroke-width: 0.8"/>
     </g>
     <g id="text_4">
      <!-- 0.6 -->
      <g style="fill: #262626" transform="translate(171.401517 262.421375) scale(0.12 -0.12)">
       <defs>
        <path id="ArialMT-36" d="M 3184 3459 
L 2625 3416 
Q 2550 3747 2413 3897 
Q 2184 4138 1850 4138 
Q 1581 4138 1378 3988 
Q 1113 3794 959 3422 
Q 806 3050 800 2363 
Q 1003 2672 1297 2822 
Q 1591 2972 1913 2972 
Q 2475 2972 2870 2558 
Q 3266 2144 3266 1488 
Q 3266 1056 3080 686 
Q 2894 316 2569 119 
Q 2244 -78 1831 -78 
Q 1128 -78 684 439 
Q 241 956 241 2144 
Q 241 3472 731 4075 
Q 1159 4600 1884 4600 
Q 2425 4600 2770 4297 
Q 3116 3994 3184 3459 
z
M 888 1484 
Q 888 1194 1011 928 
Q 1134 663 1356 523 
Q 1578 384 1822 384 
Q 2178 384 2434 671 
Q 2691 959 2691 1453 
Q 2691 1928 2437 2201 
Q 2184 2475 1800 2475 
Q 1419 2475 1153 2201 
Q 888 1928 888 1484 
z
" transform="scale(0.015625)"/>
       </defs>
       <use xlink:href="#ArialMT-30"/>
       <use xlink:href="#ArialMT-2e" transform="translate(55.615234 0)"/>
       <use xlink:href="#ArialMT-36" transform="translate(83.398438 0)"/>
      </g>
     </g>
    </g>
    <g id="xtick_8">
     <g id="line2d_8">
      <path d="M 200.762903 245.532 
L 200.762903 33.216 
" clip-path="url(#pfa34111a10)" style="fill: none; stroke-dasharray: 2.96,1.28; stroke-dashoffset: 0; stroke: #cccccc; stroke-opacity: 0.5; stroke-width: 0.8"/>
     </g>
    </g>
    <g id="xtick_9">
     <g id="line2d_9">
      <path d="M 221.78429 245.532 
L 221.78429 33.216 
" clip-path="url(#pfa34111a10)" style="fill: none; stroke-dasharray: 2.96,1.28; stroke-dashoffset: 0; stroke: #cccccc; stroke-opacity: 0.5; stroke-width: 0.8"/>
     </g>
     <g id="text_5">
      <!-- 0.8 -->
      <g style="fill: #262626" transform="translate(213.44429 262.421375) scale(0.12 -0.12)">
       <defs>
        <path id="ArialMT-38" d="M 1131 2484 
Q 781 2613 612 2850 
Q 444 3088 444 3419 
Q 444 3919 803 4259 
Q 1163 4600 1759 4600 
Q 2359 4600 2725 4251 
Q 3091 3903 3091 3403 
Q 3091 3084 2923 2848 
Q 2756 2613 2416 2484 
Q 2838 2347 3058 2040 
Q 3278 1734 3278 1309 
Q 3278 722 2862 322 
Q 2447 -78 1769 -78 
Q 1091 -78 675 323 
Q 259 725 259 1325 
Q 259 1772 486 2073 
Q 713 2375 1131 2484 
z
M 1019 3438 
Q 1019 3113 1228 2906 
Q 1438 2700 1772 2700 
Q 2097 2700 2305 2904 
Q 2513 3109 2513 3406 
Q 2513 3716 2298 3927 
Q 2084 4138 1766 4138 
Q 1444 4138 1231 3931 
Q 1019 3725 1019 3438 
z
M 838 1322 
Q 838 1081 952 856 
Q 1066 631 1291 507 
Q 1516 384 1775 384 
Q 2178 384 2440 643 
Q 2703 903 2703 1303 
Q 2703 1709 2433 1975 
Q 2163 2241 1756 2241 
Q 1359 2241 1098 1978 
Q 838 1716 838 1322 
z
" transform="scale(0.015625)"/>
       </defs>
       <use xlink:href="#ArialMT-30"/>
       <use xlink:href="#ArialMT-2e" transform="translate(55.615234 0)"/>
       <use xlink:href="#ArialMT-38" transform="translate(83.398438 0)"/>
      </g>
     </g>
    </g>
    <g id="xtick_10">
     <g id="line2d_10">
      <path d="M 242.805676 245.532 
L 242.805676 33.216 
" clip-path="url(#pfa34111a10)" style="fill: none; stroke-dasharray: 2.96,1.28; stroke-dashoffset: 0; stroke: #cccccc; stroke-opacity: 0.5; stroke-width: 0.8"/>
     </g>
    </g>
    <g id="xtick_11">
     <g id="line2d_11">
      <path d="M 263.827062 245.532 
L 263.827062 33.216 
" clip-path="url(#pfa34111a10)" style="fill: none; stroke-dasharray: 2.96,1.28; stroke-dashoffset: 0; stroke: #cccccc; stroke-opacity: 0.5; stroke-width: 0.8"/>
     </g>
     <g id="text_6">
      <!-- 1.0 -->
      <g style="fill: #262626" transform="translate(255.487062 262.421375) scale(0.12 -0.12)">
       <defs>
        <path id="ArialMT-31" d="M 2384 0 
L 1822 0 
L 1822 3584 
Q 1619 3391 1289 3197 
Q 959 3003 697 2906 
L 697 3450 
Q 1169 3672 1522 3987 
Q 1875 4303 2022 4600 
L 2384 4600 
L 2384 0 
z
" transform="scale(0.015625)"/>
       </defs>
       <use xlink:href="#ArialMT-31"/>
       <use xlink:href="#ArialMT-2e" transform="translate(55.615234 0)"/>
       <use xlink:href="#ArialMT-30" transform="translate(83.398438 0)"/>
      </g>
     </g>
    </g>
    <g id="text_7">
     <!-- False Positive Rate -->
     <g style="fill: #262626" transform="translate(118.4222 275.677875) scale(0.096 -0.096)">
      <defs>
       <path id="ArialMT-46" d="M 525 0 
L 525 4581 
L 3616 4581 
L 3616 4041 
L 1131 4041 
L 1131 2622 
L 3281 2622 
L 3281 2081 
L 1131 2081 
L 1131 0 
L 525 0 
z
" transform="scale(0.015625)"/>
       <path id="ArialMT-61" d="M 2588 409 
Q 2275 144 1986 34 
Q 1697 -75 1366 -75 
Q 819 -75 525 192 
Q 231 459 231 875 
Q 231 1119 342 1320 
Q 453 1522 633 1644 
Q 813 1766 1038 1828 
Q 1203 1872 1538 1913 
Q 2219 1994 2541 2106 
Q 2544 2222 2544 2253 
Q 2544 2597 2384 2738 
Q 2169 2928 1744 2928 
Q 1347 2928 1158 2789 
Q 969 2650 878 2297 
L 328 2372 
Q 403 2725 575 2942 
Q 747 3159 1072 3276 
Q 1397 3394 1825 3394 
Q 2250 3394 2515 3294 
Q 2781 3194 2906 3042 
Q 3031 2891 3081 2659 
Q 3109 2516 3109 2141 
L 3109 1391 
Q 3109 606 3145 398 
Q 3181 191 3288 0 
L 2700 0 
Q 2613 175 2588 409 
z
M 2541 1666 
Q 2234 1541 1622 1453 
Q 1275 1403 1131 1340 
Q 988 1278 909 1158 
Q 831 1038 831 891 
Q 831 666 1001 516 
Q 1172 366 1500 366 
Q 1825 366 2078 508 
Q 2331 650 2450 897 
Q 2541 1088 2541 1459 
L 2541 1666 
z
" transform="scale(0.015625)"/>
       <path id="ArialMT-6c" d="M 409 0 
L 409 4581 
L 972 4581 
L 972 0 
L 409 0 
z
" transform="scale(0.015625)"/>
       <path id="ArialMT-73" d="M 197 991 
L 753 1078 
Q 800 744 1014 566 
Q 1228 388 1613 388 
Q 2000 388 2187 545 
Q 2375 703 2375 916 
Q 2375 1106 2209 1216 
Q 2094 1291 1634 1406 
Q 1016 1563 777 1677 
Q 538 1791 414 1992 
Q 291 2194 291 2438 
Q 291 2659 392 2848 
Q 494 3038 669 3163 
Q 800 3259 1026 3326 
Q 1253 3394 1513 3394 
Q 1903 3394 2198 3281 
Q 2494 3169 2634 2976 
Q 2775 2784 2828 2463 
L 2278 2388 
Q 2241 2644 2061 2787 
Q 1881 2931 1553 2931 
Q 1166 2931 1000 2803 
Q 834 2675 834 2503 
Q 834 2394 903 2306 
Q 972 2216 1119 2156 
Q 1203 2125 1616 2013 
Q 2213 1853 2448 1751 
Q 2684 1650 2818 1456 
Q 2953 1263 2953 975 
Q 2953 694 2789 445 
Q 2625 197 2315 61 
Q 2006 -75 1616 -75 
Q 969 -75 630 194 
Q 291 463 197 991 
z
" transform="scale(0.015625)"/>
       <path id="ArialMT-65" d="M 2694 1069 
L 3275 997 
Q 3138 488 2766 206 
Q 2394 -75 1816 -75 
Q 1088 -75 661 373 
Q 234 822 234 1631 
Q 234 2469 665 2931 
Q 1097 3394 1784 3394 
Q 2450 3394 2872 2941 
Q 3294 2488 3294 1666 
Q 3294 1616 3291 1516 
L 816 1516 
Q 847 969 1125 678 
Q 1403 388 1819 388 
Q 2128 388 2347 550 
Q 2566 713 2694 1069 
z
M 847 1978 
L 2700 1978 
Q 2663 2397 2488 2606 
Q 2219 2931 1791 2931 
Q 1403 2931 1139 2672 
Q 875 2413 847 1978 
z
" transform="scale(0.015625)"/>
       <path id="ArialMT-20" transform="scale(0.015625)"/>
       <path id="ArialMT-50" d="M 494 0 
L 494 4581 
L 2222 4581 
Q 2678 4581 2919 4538 
Q 3256 4481 3484 4323 
Q 3713 4166 3852 3881 
Q 3991 3597 3991 3256 
Q 3991 2672 3619 2267 
Q 3247 1863 2275 1863 
L 1100 1863 
L 1100 0 
L 494 0 
z
M 1100 2403 
L 2284 2403 
Q 2872 2403 3119 2622 
Q 3366 2841 3366 3238 
Q 3366 3525 3220 3729 
Q 3075 3934 2838 4000 
Q 2684 4041 2272 4041 
L 1100 4041 
L 1100 2403 
z
" transform="scale(0.015625)"/>
       <path id="ArialMT-6f" d="M 213 1659 
Q 213 2581 725 3025 
Q 1153 3394 1769 3394 
Q 2453 3394 2887 2945 
Q 3322 2497 3322 1706 
Q 3322 1066 3130 698 
Q 2938 331 2570 128 
Q 2203 -75 1769 -75 
Q 1072 -75 642 372 
Q 213 819 213 1659 
z
M 791 1659 
Q 791 1022 1069 705 
Q 1347 388 1769 388 
Q 2188 388 2466 706 
Q 2744 1025 2744 1678 
Q 2744 2294 2464 2611 
Q 2184 2928 1769 2928 
Q 1347 2928 1069 2612 
Q 791 2297 791 1659 
z
" transform="scale(0.015625)"/>
       <path id="ArialMT-69" d="M 425 3934 
L 425 4581 
L 988 4581 
L 988 3934 
L 425 3934 
z
M 425 0 
L 425 3319 
L 988 3319 
L 988 0 
L 425 0 
z
" transform="scale(0.015625)"/>
       <path id="ArialMT-74" d="M 1650 503 
L 1731 6 
Q 1494 -44 1306 -44 
Q 1000 -44 831 53 
Q 663 150 594 308 
Q 525 466 525 972 
L 525 2881 
L 113 2881 
L 113 3319 
L 525 3319 
L 525 4141 
L 1084 4478 
L 1084 3319 
L 1650 3319 
L 1650 2881 
L 1084 2881 
L 1084 941 
Q 1084 700 1114 631 
Q 1144 563 1211 522 
Q 1278 481 1403 481 
Q 1497 481 1650 503 
z
" transform="scale(0.015625)"/>
       <path id="ArialMT-76" d="M 1344 0 
L 81 3319 
L 675 3319 
L 1388 1331 
Q 1503 1009 1600 663 
Q 1675 925 1809 1294 
L 2547 3319 
L 3125 3319 
L 1869 0 
L 1344 0 
z
" transform="scale(0.015625)"/>
       <path id="ArialMT-52" d="M 503 0 
L 503 4581 
L 2534 4581 
Q 3147 4581 3465 4457 
Q 3784 4334 3975 4021 
Q 4166 3709 4166 3331 
Q 4166 2844 3850 2509 
Q 3534 2175 2875 2084 
Q 3116 1969 3241 1856 
Q 3506 1613 3744 1247 
L 4541 0 
L 3778 0 
L 3172 953 
Q 2906 1366 2734 1584 
Q 2563 1803 2427 1890 
Q 2291 1978 2150 2013 
Q 2047 2034 1813 2034 
L 1109 2034 
L 1109 0 
L 503 0 
z
M 1109 2559 
L 2413 2559 
Q 2828 2559 3062 2645 
Q 3297 2731 3419 2920 
Q 3541 3109 3541 3331 
Q 3541 3656 3305 3865 
Q 3069 4075 2559 4075 
L 1109 4075 
L 1109 2559 
z
" transform="scale(0.015625)"/>
      </defs>
      <use xlink:href="#ArialMT-46"/>
      <use xlink:href="#ArialMT-61" transform="translate(61.083984 0)"/>
      <use xlink:href="#ArialMT-6c" transform="translate(116.699219 0)"/>
      <use xlink:href="#ArialMT-73" transform="translate(138.916016 0)"/>
      <use xlink:href="#ArialMT-65" transform="translate(188.916016 0)"/>
      <use xlink:href="#ArialMT-20" transform="translate(244.53125 0)"/>
      <use xlink:href="#ArialMT-50" transform="translate(272.314453 0)"/>
      <use xlink:href="#ArialMT-6f" transform="translate(339.013672 0)"/>
      <use xlink:href="#ArialMT-73" transform="translate(394.628906 0)"/>
      <use xlink:href="#ArialMT-69" transform="translate(444.628906 0)"/>
      <use xlink:href="#ArialMT-74" transform="translate(466.845703 0)"/>
      <use xlink:href="#ArialMT-69" transform="translate(494.628906 0)"/>
      <use xlink:href="#ArialMT-76" transform="translate(516.845703 0)"/>
      <use xlink:href="#ArialMT-65" transform="translate(566.845703 0)"/>
      <use xlink:href="#ArialMT-20" transform="translate(622.460938 0)"/>
      <use xlink:href="#ArialMT-52" transform="translate(650.244141 0)"/>
      <use xlink:href="#ArialMT-61" transform="translate(722.460938 0)"/>
      <use xlink:href="#ArialMT-74" transform="translate(778.076172 0)"/>
      <use xlink:href="#ArialMT-65" transform="translate(805.859375 0)"/>
     </g>
    </g>
   </g>
   <g id="matplotlib.axis_2">
    <g id="ytick_1">
     <g id="line2d_12">
      <path d="M 53.6132 245.532 
L 265.9292 245.532 
" clip-path="url(#pfa34111a10)" style="fill: none; stroke-dasharray: 2.96,1.28; stroke-dashoffset: 0; stroke: #cccccc; stroke-opacity: 0.5; stroke-width: 0.8"/>
     </g>
     <g id="text_8">
      <!-- 0.0 -->
      <g style="fill: #262626" transform="translate(28.6332 249.826687) scale(0.12 -0.12)">
       <use xlink:href="#ArialMT-30"/>
       <use xlink:href="#ArialMT-2e" transform="translate(55.615234 0)"/>
       <use xlink:href="#ArialMT-30" transform="translate(83.398438 0)"/>
      </g>
     </g>
    </g>
    <g id="ytick_2">
     <g id="line2d_13">
      <path d="M 53.6132 224.510614 
L 265.9292 224.510614 
" clip-path="url(#pfa34111a10)" style="fill: none; stroke-dasharray: 2.96,1.28; stroke-dashoffset: 0; stroke: #cccccc; stroke-opacity: 0.5; stroke-width: 0.8"/>
     </g>
    </g>
    <g id="ytick_3">
     <g id="line2d_14">
      <path d="M 53.6132 203.489228 
L 265.9292 203.489228 
" clip-path="url(#pfa34111a10)" style="fill: none; stroke-dasharray: 2.96,1.28; stroke-dashoffset: 0; stroke: #cccccc; stroke-opacity: 0.5; stroke-width: 0.8"/>
     </g>
     <g id="text_9">
      <!-- 0.2 -->
      <g style="fill: #262626" transform="translate(28.6332 207.783915) scale(0.12 -0.12)">
       <use xlink:href="#ArialMT-30"/>
       <use xlink:href="#ArialMT-2e" transform="translate(55.615234 0)"/>
       <use xlink:href="#ArialMT-32" transform="translate(83.398438 0)"/>
      </g>
     </g>
    </g>
    <g id="ytick_4">
     <g id="line2d_15">
      <path d="M 53.6132 182.467842 
L 265.9292 182.467842 
" clip-path="url(#pfa34111a10)" style="fill: none; stroke-dasharray: 2.96,1.28; stroke-dashoffset: 0; stroke: #cccccc; stroke-opacity: 0.5; stroke-width: 0.8"/>
     </g>
    </g>
    <g id="ytick_5">
     <g id="line2d_16">
      <path d="M 53.6132 161.446455 
L 265.9292 161.446455 
" clip-path="url(#pfa34111a10)" style="fill: none; stroke-dasharray: 2.96,1.28; stroke-dashoffset: 0; stroke: #cccccc; stroke-opacity: 0.5; stroke-width: 0.8"/>
     </g>
     <g id="text_10">
      <!-- 0.4 -->
      <g style="fill: #262626" transform="translate(28.6332 165.741143) scale(0.12 -0.12)">
       <use xlink:href="#ArialMT-30"/>
       <use xlink:href="#ArialMT-2e" transform="translate(55.615234 0)"/>
       <use xlink:href="#ArialMT-34" transform="translate(83.398438 0)"/>
      </g>
     </g>
    </g>
    <g id="ytick_6">
     <g id="line2d_17">
      <path d="M 53.6132 140.425069 
L 265.9292 140.425069 
" clip-path="url(#pfa34111a10)" style="fill: none; stroke-dasharray: 2.96,1.28; stroke-dashoffset: 0; stroke: #cccccc; stroke-opacity: 0.5; stroke-width: 0.8"/>
     </g>
    </g>
    <g id="ytick_7">
     <g id="line2d_18">
      <path d="M 53.6132 119.403683 
L 265.9292 119.403683 
" clip-path="url(#pfa34111a10)" style="fill: none; stroke-dasharray: 2.96,1.28; stroke-dashoffset: 0; stroke: #cccccc; stroke-opacity: 0.5; stroke-width: 0.8"/>
     </g>
     <g id="text_11">
      <!-- 0.6 -->
      <g style="fill: #262626" transform="translate(28.6332 123.698371) scale(0.12 -0.12)">
       <use xlink:href="#ArialMT-30"/>
       <use xlink:href="#ArialMT-2e" transform="translate(55.615234 0)"/>
       <use xlink:href="#ArialMT-36" transform="translate(83.398438 0)"/>
      </g>
     </g>
    </g>
    <g id="ytick_8">
     <g id="line2d_19">
      <path d="M 53.6132 98.382297 
L 265.9292 98.382297 
" clip-path="url(#pfa34111a10)" style="fill: none; stroke-dasharray: 2.96,1.28; stroke-dashoffset: 0; stroke: #cccccc; stroke-opacity: 0.5; stroke-width: 0.8"/>
     </g>
    </g>
    <g id="ytick_9">
     <g id="line2d_20">
      <path d="M 53.6132 77.360911 
L 265.9292 77.360911 
" clip-path="url(#pfa34111a10)" style="fill: none; stroke-dasharray: 2.96,1.28; stroke-dashoffset: 0; stroke: #cccccc; stroke-opacity: 0.5; stroke-width: 0.8"/>
     </g>
     <g id="text_12">
      <!-- 0.8 -->
      <g style="fill: #262626" transform="translate(28.6332 81.655598) scale(0.12 -0.12)">
       <use xlink:href="#ArialMT-30"/>
       <use xlink:href="#ArialMT-2e" transform="translate(55.615234 0)"/>
       <use xlink:href="#ArialMT-38" transform="translate(83.398438 0)"/>
      </g>
     </g>
    </g>
    <g id="ytick_10">
     <g id="line2d_21">
      <path d="M 53.6132 56.339525 
L 265.9292 56.339525 
" clip-path="url(#pfa34111a10)" style="fill: none; stroke-dasharray: 2.96,1.28; stroke-dashoffset: 0; stroke: #cccccc; stroke-opacity: 0.5; stroke-width: 0.8"/>
     </g>
    </g>
    <g id="ytick_11">
     <g id="line2d_22">
      <path d="M 53.6132 35.318139 
L 265.9292 35.318139 
" clip-path="url(#pfa34111a10)" style="fill: none; stroke-dasharray: 2.96,1.28; stroke-dashoffset: 0; stroke: #cccccc; stroke-opacity: 0.5; stroke-width: 0.8"/>
     </g>
     <g id="text_13">
      <!-- 1.0 -->
      <g style="fill: #262626" transform="translate(28.6332 39.612826) scale(0.12 -0.12)">
       <use xlink:href="#ArialMT-31"/>
       <use xlink:href="#ArialMT-2e" transform="translate(55.615234 0)"/>
       <use xlink:href="#ArialMT-30" transform="translate(83.398438 0)"/>
      </g>
     </g>
    </g>
    <g id="text_14">
     <!-- True Positive Rate -->
     <g style="fill: #262626" transform="translate(22.7252 178.67475) rotate(-90) scale(0.096 -0.096)">
      <defs>
       <path id="ArialMT-54" d="M 1659 0 
L 1659 4041 
L 150 4041 
L 150 4581 
L 3781 4581 
L 3781 4041 
L 2266 4041 
L 2266 0 
L 1659 0 
z
" transform="scale(0.015625)"/>
       <path id="ArialMT-72" d="M 416 0 
L 416 3319 
L 922 3319 
L 922 2816 
Q 1116 3169 1280 3281 
Q 1444 3394 1641 3394 
Q 1925 3394 2219 3213 
L 2025 2691 
Q 1819 2813 1613 2813 
Q 1428 2813 1281 2702 
Q 1134 2591 1072 2394 
Q 978 2094 978 1738 
L 978 0 
L 416 0 
z
" transform="scale(0.015625)"/>
       <path id="ArialMT-75" d="M 2597 0 
L 2597 488 
Q 2209 -75 1544 -75 
Q 1250 -75 995 37 
Q 741 150 617 320 
Q 494 491 444 738 
Q 409 903 409 1263 
L 409 3319 
L 972 3319 
L 972 1478 
Q 972 1038 1006 884 
Q 1059 663 1231 536 
Q 1403 409 1656 409 
Q 1909 409 2131 539 
Q 2353 669 2445 892 
Q 2538 1116 2538 1541 
L 2538 3319 
L 3100 3319 
L 3100 0 
L 2597 0 
z
" transform="scale(0.015625)"/>
      </defs>
      <use xlink:href="#ArialMT-54"/>
      <use xlink:href="#ArialMT-72" transform="translate(57.333984 0)"/>
      <use xlink:href="#ArialMT-75" transform="translate(90.634766 0)"/>
      <use xlink:href="#ArialMT-65" transform="translate(146.25 0)"/>
      <use xlink:href="#ArialMT-20" transform="translate(201.865234 0)"/>
      <use xlink:href="#ArialMT-50" transform="translate(229.648438 0)"/>
      <use xlink:href="#ArialMT-6f" transform="translate(296.347656 0)"/>
      <use xlink:href="#ArialMT-73" transform="translate(351.962891 0)"/>
      <use xlink:href="#ArialMT-69" transform="translate(401.962891 0)"/>
      <use xlink:href="#ArialMT-74" transform="translate(424.179688 0)"/>
      <use xlink:href="#ArialMT-69" transform="translate(451.962891 0)"/>
      <use xlink:href="#ArialMT-76" transform="translate(474.179688 0)"/>
      <use xlink:href="#ArialMT-65" transform="translate(524.179688 0)"/>
      <use xlink:href="#ArialMT-20" transform="translate(579.794922 0)"/>
      <use xlink:href="#ArialMT-52" transform="translate(607.578125 0)"/>
      <use xlink:href="#ArialMT-61" transform="translate(679.794922 0)"/>
      <use xlink:href="#ArialMT-74" transform="translate(735.410156 0)"/>
      <use xlink:href="#ArialMT-65" transform="translate(763.193359 0)"/>
     </g>
    </g>
   </g>
   <g id="line2d_23">
    <path d="M 53.6132 232.103705 
L 54.97161 214.768996 
L 55.311212 209.641829 
L 56.669622 198.532966 
L 57.009224 189.133159 
L 57.688429 179.733352 
L 58.367634 173.751657 
L 58.707236 160.079211 
L 59.046838 151.533932 
L 59.726043 139.570541 
L 60.74485 132.734318 
L 61.424055 129.316207 
L 62.10326 128.461679 
L 63.122067 122.479984 
L 64.140874 117.352816 
L 65.838885 110.516593 
L 67.536897 101.971314 
L 69.574511 101.971314 
L 69.914114 96.844147 
L 72.29133 95.135091 
L 73.310137 95.135091 
L 75.347752 91.716979 
L 76.706161 91.716979 
L 80.102185 90.007924 
L 82.819004 84.880756 
L 85.875425 83.171701 
L 90.629858 83.171701 
L 94.365484 83.171701 
L 101.497133 83.171701 
L 103.534748 81.462645 
L 106.591169 79.753589 
L 110.666397 78.044533 
L 115.760433 72.917366 
L 119.156456 71.20831 
L 130.702936 64.372087 
L 135.457369 59.24492 
L 139.192995 57.535864 
L 142.249417 52.408696 
L 148.022657 52.408696 
L 154.135499 48.990585 
L 157.871125 48.990585 
L 160.927547 48.990585 
L 167.040389 48.990585 
L 170.09681 48.990585 
L 181.643291 48.990585 
L 187.076928 48.990585 
L 192.850168 48.990585 
L 198.623409 45.572473 
L 203.377842 45.572473 
L 209.151082 45.572473 
L 214.58472 43.863418 
L 218.320346 42.154362 
L 222.055971 42.154362 
L 226.470802 42.154362 
L 228.848019 42.154362 
L 232.244042 40.445306 
L 235.640066 40.445306 
L 238.356885 40.445306 
L 241.752908 37.027194 
L 244.80933 37.027194 
L 246.507341 37.027194 
L 250.242967 37.027194 
L 253.299389 37.027194 
L 255.676605 35.318139 
L 258.053822 35.318139 
L 260.770641 35.318139 
L 262.12905 35.318139 
L 262.808255 35.318139 
L 263.827062 35.318139 
" clip-path="url(#pfa34111a10)" style="fill: none; stroke: #0b1321; stroke-linecap: round"/>
   </g>
   <g id="line2d_24">
    <path d="M 53.6132 234.230179 
L 53.952803 190.435625 
L 54.292405 164.158892 
L 54.632008 157.3778 
L 54.97161 149.749071 
L 55.311212 143.815615 
L 55.650815 141.272706 
L 55.990417 138.729796 
L 56.669622 136.186887 
L 57.009224 134.491614 
L 57.688429 131.948704 
L 58.028031 127.710521 
L 58.707236 123.472339 
L 59.046838 120.081792 
L 60.065645 117.538883 
L 60.405248 115.84361 
L 60.74485 112.453064 
L 61.763657 107.367244 
L 62.10326 103.976698 
L 62.782464 102.281425 
L 63.122067 100.586152 
L 63.461669 98.890879 
L 63.801271 97.195606 
L 64.480476 94.652696 
L 65.838885 92.109787 
L 66.857693 87.023967 
L 68.895307 81.938148 
L 69.574511 80.242875 
L 74.668547 78.547602 
L 81.120992 76.852329 
L 81.800196 75.157056 
L 82.479401 73.461783 
L 85.875425 71.76651 
L 88.252641 70.071237 
L 89.271448 68.375964 
L 89.950653 66.680691 
L 90.290255 64.985417 
L 91.988267 63.290144 
L 114.062421 61.594871 
L 114.402023 59.899598 
L 114.741625 58.204325 
L 124.929696 56.509052 
L 129.004925 54.813779 
L 137.155381 53.118506 
L 141.570212 51.423233 
L 147.00385 49.72796 
L 160.248342 47.18505 
L 181.303688 44.642141 
L 189.114542 42.946867 
L 210.169889 41.251594 
L 214.58472 39.556321 
L 222.735176 37.861048 
L 243.790523 36.165775 
L 263.827062 35.318139 
" clip-path="url(#pfa34111a10)" style="fill: none; stroke: #008fd7; stroke-linecap: round"/>
   </g>
   <g id="line2d_25">
    <path d="M 53.6132 245.532 
L 53.952803 245.532 
L 54.97161 237.903271 
L 55.990417 234.512725 
L 56.330019 232.817452 
L 57.688429 231.122179 
L 58.367634 228.579269 
L 59.726043 226.03636 
L 61.424055 219.255267 
L 63.122067 217.559994 
L 63.461669 215.017085 
L 66.178488 212.474175 
L 68.555704 210.778902 
L 69.574511 209.083629 
L 69.914114 207.388356 
L 73.64974 205.693083 
L 82.819004 204.845446 
L 86.55463 203.150173 
L 86.894232 200.607263 
L 99.119917 198.91199 
L 101.497133 197.216717 
L 105.572362 194.673808 
L 106.930771 192.130898 
L 107.609976 190.435625 
L 108.968385 188.740352 
L 109.987192 187.045079 
L 110.326795 184.502169 
L 111.005999 181.95926 
L 113.043614 178.568714 
L 113.383216 175.178167 
L 117.118842 173.482894 
L 117.458444 171.787621 
L 118.137649 166.701802 
L 118.477251 165.006529 
L 120.514866 163.311256 
L 123.231684 161.615983 
L 123.910889 159.92071 
L 127.646515 157.3778 
L 127.986118 154.83489 
L 129.004925 153.139617 
L 131.042539 151.444344 
L 136.476177 148.901435 
L 138.513791 146.358525 
L 150.060271 144.663252 
L 161.946354 142.120342 
L 164.663173 139.577433 
L 166.700787 138.729796 
L 167.379991 137.034523 
L 169.757208 134.491614 
L 179.266074 133.643977 
L 181.303688 133.643977 
L 181.643291 131.948704 
L 183.0017 131.101067 
L 185.378917 130.253431 
L 186.058121 130.253431 
L 188.095735 129.405794 
L 188.435338 126.862885 
L 193.868976 126.862885 
L 194.208578 125.167612 
L 196.585794 125.167612 
L 196.925397 122.624702 
L 197.264999 120.929429 
L 200.32142 118.386519 
L 200.661023 116.691246 
L 201.340227 116.691246 
L 201.67983 115.84361 
L 202.359035 114.995973 
L 203.038239 114.995973 
L 205.075853 111.605427 
L 205.755058 111.605427 
L 207.113468 110.75779 
L 208.132275 109.910154 
L 209.490684 109.062517 
L 209.830287 105.671971 
L 210.509491 102.281425 
L 213.565912 99.738515 
L 215.603527 97.195606 
L 217.641141 95.500333 
L 218.99955 94.652696 
L 219.339153 92.957423 
L 221.376767 92.109787 
L 222.395574 90.414514 
L 223.414381 89.566877 
L 224.093586 87.871604 
L 227.150007 85.328694 
L 227.489609 84.481058 
L 228.168814 84.481058 
L 228.848019 83.633421 
L 229.527223 78.547602 
L 230.885633 75.157056 
L 234.281656 71.76651 
L 234.621259 70.918873 
L 234.960861 69.2236 
L 238.356885 68.375964 
L 238.696487 66.680691 
L 242.432113 64.985417 
L 243.45092 63.290144 
L 244.130125 62.442508 
L 244.469727 60.747235 
L 248.884558 60.747235 
L 249.22416 59.051962 
L 250.922172 58.204325 
L 251.601377 57.356689 
L 251.940979 53.966142 
L 253.978593 53.966142 
L 254.318196 49.72796 
L 254.9974 48.032687 
L 256.35581 47.18505 
L 257.035015 47.18505 
L 259.072629 45.489777 
L 259.751834 43.794504 
L 260.431038 43.794504 
L 262.12905 42.946867 
L 262.468652 41.251594 
L 263.147857 39.556321 
L 263.48746 37.013412 
L 263.827062 35.318139 
L 263.827062 35.318139 
" clip-path="url(#pfa34111a10)" style="fill: none; stroke: #aeb0b5; stroke-linecap: round"/>
   </g>
   <g id="line2d_26">
    <path d="M 53.6132 241.011272 
L 53.952803 224.341087 
L 54.292405 213.321812 
L 54.632008 199.759627 
L 54.97161 173.482894 
L 55.311212 155.682527 
L 55.990417 151.444344 
L 57.009224 145.510889 
L 57.348826 137.88216 
L 58.028031 134.491614 
L 58.367634 131.101067 
L 58.707236 127.710521 
L 59.046838 126.015248 
L 59.386441 124.319975 
L 60.065645 122.624702 
L 60.74485 120.929429 
L 61.084452 114.995973 
L 61.424055 108.214881 
L 62.782464 105.671971 
L 64.820078 103.976698 
L 65.499283 102.281425 
L 66.178488 100.586152 
L 66.51809 98.890879 
L 67.197295 97.195606 
L 67.536897 95.500333 
L 67.8765 93.80506 
L 68.895307 91.26215 
L 69.574511 87.871604 
L 72.970535 85.328694 
L 73.310137 83.633421 
L 76.366559 81.938148 
L 77.724968 80.242875 
L 78.743775 78.547602 
L 79.762582 76.852329 
L 80.102185 75.157056 
L 87.573437 73.461783 
L 89.950653 71.76651 
L 90.629858 70.071237 
L 99.459519 68.375964 
L 99.799122 66.680691 
L 101.497133 64.985417 
L 112.364409 63.290144 
L 114.402023 61.594871 
L 122.892082 59.899598 
L 123.571287 58.204325 
L 126.627708 56.509052 
L 133.080153 54.813779 
L 136.815779 53.118506 
L 137.834586 51.423233 
L 140.211803 48.880323 
L 184.360109 46.337414 
L 188.095735 44.642141 
L 190.13335 42.946867 
L 202.359035 41.251594 
L 215.943129 39.556321 
L 219.678755 37.861048 
L 244.130125 36.165775 
L 263.827062 35.318139 
" clip-path="url(#pfa34111a10)" style="fill: none; stroke: #115185; stroke-linecap: round"/>
   </g>
   <g id="line2d_27">
    <path d="M 53.6132 230.88295 
L 54.292405 209.641829 
L 54.632008 204.514661 
L 54.97161 195.969382 
L 57.009224 185.715048 
L 57.348826 182.296936 
L 58.028031 178.024297 
L 58.367634 165.206378 
L 58.707236 153.242988 
L 59.046838 142.988653 
L 59.386441 139.570541 
L 60.065645 137.861486 
L 60.405248 134.443374 
L 61.084452 129.316207 
L 61.424055 127.607151 
L 62.10326 125.898095 
L 62.782464 117.352816 
L 63.801271 112.225649 
L 65.159681 107.098482 
L 65.499283 101.971314 
L 67.8765 100.262258 
L 68.555704 95.135091 
L 70.593319 91.716979 
L 71.951728 90.007924 
L 74.668547 88.298868 
L 78.06457 88.298868 
L 80.441787 84.880756 
L 83.498208 81.462645 
L 85.875425 76.335477 
L 88.592244 76.335477 
L 91.988267 76.335477 
L 96.7427 74.626422 
L 98.440712 72.917366 
L 102.51594 72.917366 
L 105.911964 69.499254 
L 110.666397 66.081143 
L 116.77924 62.663031 
L 123.231684 60.953975 
L 124.250492 59.24492 
L 128.665322 59.24492 
L 131.721743 57.535864 
L 137.494984 54.117752 
L 142.928621 54.117752 
L 145.985043 50.699641 
L 149.720669 50.699641 
L 155.833511 50.699641 
L 162.965161 48.990585 
L 168.059196 47.281529 
L 172.474027 47.281529 
L 179.266074 45.572473 
L 185.039314 45.572473 
L 187.076928 45.572473 
L 192.170964 45.572473 
L 198.963011 45.572473 
L 203.717444 45.572473 
L 207.792672 45.572473 
L 210.849094 43.863418 
L 214.58472 43.863418 
L 221.037164 42.154362 
L 224.77279 42.154362 
L 227.489609 42.154362 
L 231.225235 42.154362 
L 233.942054 42.154362 
L 238.017282 42.154362 
L 241.752908 40.445306 
L 245.828137 38.73625 
L 248.544956 38.73625 
L 251.940979 38.73625 
L 255.676605 37.027194 
L 257.714219 37.027194 
L 260.431038 35.318139 
L 263.147857 35.318139 
L 263.827062 35.318139 
" clip-path="url(#pfa34111a10)" style="fill: none; stroke: #061f4a; stroke-linecap: round"/>
   </g>
   <g id="line2d_28">
    <path d="M 53.6132 244.684363 
L 53.952803 242.141454 
L 55.990417 239.598544 
L 58.707236 237.903271 
L 62.10326 236.207998 
L 62.782464 234.512725 
L 63.122067 232.817452 
L 63.801271 229.426906 
L 65.159681 225.188723 
L 66.178488 222.645813 
L 68.555704 220.95054 
L 68.895307 219.255267 
L 69.234909 217.559994 
L 69.574511 215.864721 
L 69.914114 214.169448 
L 70.253716 212.474175 
L 72.970535 210.778902 
L 74.328945 209.083629 
L 76.706161 207.388356 
L 77.045763 205.693083 
L 78.404173 203.99781 
L 79.762582 202.302537 
L 82.139799 199.759627 
L 85.19622 197.216717 
L 85.535822 195.521444 
L 87.233834 193.826171 
L 90.96946 192.130898 
L 91.648665 190.435625 
L 92.32787 188.740352 
L 92.667472 187.045079 
L 95.044689 185.349806 
L 96.403098 183.654533 
L 96.7427 181.95926 
L 97.082303 180.263987 
L 98.10111 178.568714 
L 102.176338 175.178167 
L 103.195145 171.787621 
L 103.534748 170.092348 
L 105.232759 168.397075 
L 106.930771 165.854165 
L 107.270374 163.311256 
L 108.628783 161.615983 
L 109.307988 159.073073 
L 113.722818 156.530164 
L 114.402023 154.83489 
L 115.081228 152.291981 
L 118.137649 149.749071 
L 120.175263 148.053798 
L 120.514866 146.358525 
L 122.892082 144.663252 
L 123.231684 142.967979 
L 126.96731 141.272706 
L 127.306913 139.577433 
L 136.815779 137.88216 
L 143.947428 136.186887 
L 148.362259 134.491614 
L 156.852318 132.79634 
L 162.285956 131.101067 
L 162.965161 128.558158 
L 164.32357 126.015248 
L 167.719594 124.319975 
L 171.45522 122.624702 
L 174.511641 120.929429 
L 179.266074 119.234156 
L 179.945279 117.538883 
L 180.964086 115.84361 
L 189.793747 113.3007 
L 191.152157 110.75779 
L 191.831361 109.062517 
L 192.850168 107.367244 
L 195.566987 105.671971 
L 196.925397 103.976698 
L 199.642216 102.281425 
L 201.67983 100.586152 
L 204.057046 98.890879 
L 207.792672 97.195606 
L 208.132275 95.500333 
L 209.151082 93.80506 
L 210.849094 91.26215 
L 211.528298 88.71924 
L 212.886708 87.023967 
L 215.943129 85.328694 
L 216.622334 83.633421 
L 221.376767 81.090512 
L 222.055971 78.547602 
L 222.395574 76.852329 
L 224.77279 75.157056 
L 225.112393 73.461783 
L 225.451995 71.76651 
L 226.1312 70.071237 
L 226.470802 68.375964 
L 226.810405 66.680691 
L 227.489609 64.985417 
L 231.225235 63.290144 
L 233.262849 61.594871 
L 234.281656 59.899598 
L 239.03609 58.204325 
L 240.734101 56.509052 
L 241.073704 54.813779 
L 245.488534 53.118506 
L 250.242967 51.423233 
L 251.940979 49.72796 
L 253.978593 48.032687 
L 257.374617 46.337414 
L 259.751834 44.642141 
L 260.091436 42.946867 
L 262.468652 40.403958 
L 262.808255 37.861048 
L 263.48746 36.165775 
L 263.827062 35.318139 
" clip-path="url(#pfa34111a10)" style="fill: none; stroke: #5b616b; stroke-linecap: round"/>
   </g>
   <g id="line2d_29">
    <path d="M 53.6132 239.88109 
L 54.632008 207.388356 
L 55.311212 200.607263 
L 55.990417 198.91199 
L 56.669622 196.369081 
L 57.009224 193.826171 
L 57.348826 192.130898 
L 58.028031 189.587989 
L 58.707236 184.502169 
L 60.065645 176.025804 
L 60.74485 173.482894 
L 61.084452 170.939985 
L 61.763657 167.549439 
L 63.801271 165.006529 
L 64.140874 162.463619 
L 64.480476 159.073073 
L 65.159681 155.682527 
L 66.178488 153.139617 
L 68.216102 152.291981 
L 68.555704 149.749071 
L 68.895307 148.053798 
L 70.253716 146.358525 
L 70.593319 144.663252 
L 71.272523 143.815615 
L 71.612126 139.859978 
L 73.64974 136.186887 
L 75.008149 134.491614 
L 76.366559 129.405794 
L 78.743775 126.015248 
L 80.781389 121.777065 
L 82.479401 120.081792 
L 82.819004 118.386519 
L 84.856618 117.538883 
L 85.535822 115.84361 
L 85.875425 113.3007 
L 88.252641 113.3007 
L 88.931846 112.453064 
L 91.309063 110.75779 
L 91.988267 109.910154 
L 93.346677 109.910154 
L 93.686279 109.062517 
L 94.365484 106.519608 
L 95.044689 104.824335 
L 99.119917 103.976698 
L 99.799122 102.281425 
L 100.138724 99.738515 
L 100.817929 99.738515 
L 102.176338 96.347969 
L 102.855543 96.347969 
L 103.534748 94.652696 
L 107.609976 94.652696 
L 108.968385 93.80506 
L 109.987192 92.109787 
L 110.326795 90.414514 
L 111.685204 88.71924 
L 114.741625 87.023967 
L 115.42083 85.328694 
L 116.100035 84.481058 
L 116.439637 84.481058 
L 117.458444 82.785785 
L 118.477251 82.785785 
L 119.835661 81.938148 
L 123.231684 80.242875 
L 123.571287 78.547602 
L 126.627708 77.699966 
L 127.306913 77.699966 
L 127.986118 76.004692 
L 131.721743 76.004692 
L 136.815779 75.157056 
L 137.834586 74.309419 
L 139.532598 74.309419 
L 140.891007 73.461783 
L 141.909814 71.76651 
L 144.287031 70.071237 
L 144.966236 69.2236 
L 147.00385 68.375964 
L 148.022657 67.528327 
L 148.362259 65.833054 
L 149.720669 64.985417 
L 150.060271 64.137781 
L 151.079078 64.137781 
L 152.097885 63.290144 
L 153.116692 61.594871 
L 154.475102 60.747235 
L 155.154306 59.051962 
L 163.644365 59.051962 
L 163.983968 58.204325 
L 165.342377 57.356689 
L 170.436413 57.356689 
L 171.115617 55.661416 
L 173.153232 54.813779 
L 173.492834 53.966142 
L 174.172039 53.118506 
L 175.190846 52.270869 
L 180.284881 52.270869 
L 181.643291 51.423233 
L 181.982893 50.575596 
L 183.680905 50.575596 
L 186.058121 49.72796 
L 186.397724 48.880323 
L 189.114542 48.880323 
L 191.491759 48.032687 
L 193.868976 46.337414 
L 196.925397 45.489777 
L 220.35796 45.489777 
L 220.697562 43.794504 
L 230.546031 43.794504 
L 230.885633 41.251594 
L 232.583645 40.403958 
L 238.017282 40.403958 
L 238.356885 38.708685 
L 252.620184 38.708685 
L 254.657798 37.861048 
L 255.676605 37.013412 
L 256.35581 37.013412 
L 260.770641 36.165775 
L 263.827062 35.318139 
L 263.827062 35.318139 
" clip-path="url(#pfa34111a10)" style="fill: none; stroke: #855e40; stroke-linecap: round"/>
   </g>
   <g id="line2d_30">
    <path d="M 53.6132 244.663348 
L 55.316716 242.926043 
L 55.998123 240.320086 
L 57.020232 237.714129 
L 60.767967 235.976824 
L 61.10867 234.23952 
L 61.790077 232.502215 
L 65.878515 230.764911 
L 66.559921 229.027606 
L 70.989063 227.290301 
L 71.329766 225.552997 
L 72.351875 223.815692 
L 79.506642 222.078387 
L 79.847345 220.341083 
L 84.276487 218.603778 
L 85.298596 215.997821 
L 89.727737 213.391864 
L 91.09055 209.917255 
L 94.838285 206.442646 
L 100.289536 204.705341 
L 107.444303 202.968036 
L 109.829225 201.230732 
L 110.510631 198.624775 
L 111.532741 196.018818 
L 112.55485 194.281513 
L 115.280476 192.544208 
L 115.621179 190.806904 
L 117.324695 189.069599 
L 117.665398 187.332295 
L 118.687508 185.59499 
L 119.709617 182.989033 
L 120.05032 180.383076 
L 121.413133 178.645771 
L 122.775946 176.908467 
L 127.205087 175.171162 
L 127.886493 173.433857 
L 129.249306 171.696553 
L 134.019151 169.959248 
L 135.381963 168.221944 
L 135.722667 166.484639 
L 143.218137 164.747334 
L 144.580949 163.01003 
L 145.262356 161.272725 
L 146.284465 157.798116 
L 148.328684 154.323506 
L 150.372903 152.586202 
L 151.395013 150.848897 
L 152.076419 149.111593 
L 155.142748 146.505636 
L 156.164857 143.899679 
L 156.846264 140.425069 
L 157.868373 136.95046 
L 158.209076 135.213155 
L 159.231186 133.475851 
L 165.02314 131.738546 
L 166.385953 130.001241 
L 170.815094 128.263937 
L 172.51861 126.526632 
L 173.540719 124.789328 
L 176.607048 121.314718 
L 181.376893 117.840109 
L 184.102518 116.102804 
L 188.872363 114.3655 
L 189.213066 112.628195 
L 190.235175 110.89089 
L 193.642207 109.153586 
L 197.049239 107.416281 
L 200.115567 105.678977 
L 203.181896 103.941672 
L 205.907521 102.204367 
L 206.588928 100.467063 
L 209.655256 98.729758 
L 211.018069 96.992453 
L 212.040179 95.255149 
L 213.743695 92.649192 
L 214.084398 90.043235 
L 217.49143 88.30593 
L 218.854242 86.568625 
L 219.535649 84.831321 
L 222.261274 83.094016 
L 223.96479 81.356712 
L 228.053228 79.619407 
L 229.756744 77.882102 
L 230.097447 76.144798 
L 230.43815 74.407493 
L 231.46026 72.670188 
L 232.141666 70.932884 
L 232.482369 68.326927 
L 233.163776 65.72097 
L 238.615027 63.983665 
L 239.977839 61.377708 
L 243.044168 58.771751 
L 244.747684 57.034447 
L 248.836122 54.42849 
L 249.517528 50.95388 
L 253.605967 48.347923 
L 254.968779 46.610619 
L 255.650186 44.873314 
L 255.990889 43.136009 
L 257.353701 41.398705 
L 260.079327 39.6614 
L 260.760733 37.924096 
L 262.804952 36.186791 
L 263.827062 35.318139 
" clip-path="url(#pfa34111a10)" style="fill: none; stroke: #478347; stroke-linecap: round"/>
   </g>
   <g id="line2d_31">
    <path d="M 53.6132 245.532 
L 53.952803 245.532 
L 54.632008 243.822944 
L 54.97161 239.550305 
L 56.669622 234.423137 
L 62.782464 231.005026 
L 63.461669 227.586914 
L 64.480476 224.168803 
L 65.838885 222.459747 
L 66.857693 220.750691 
L 67.536897 219.041635 
L 71.612126 217.33258 
L 71.951728 215.623524 
L 72.29133 212.205412 
L 72.970535 207.932773 
L 73.310137 203.660133 
L 73.64974 200.242022 
L 76.366559 197.678438 
L 77.385366 195.114854 
L 78.743775 192.551271 
L 79.083378 188.278631 
L 84.517015 184.86052 
L 86.894232 183.151464 
L 88.252641 181.442408 
L 88.592244 179.733352 
L 89.271448 178.024297 
L 90.629858 176.315241 
L 90.96946 174.606185 
L 91.309063 172.897129 
L 91.988267 171.188073 
L 93.007074 169.479018 
L 93.686279 167.769962 
L 95.384291 166.060906 
L 96.063496 164.35185 
L 96.7427 162.642794 
L 100.817929 160.079211 
L 102.51594 157.515627 
L 104.553555 154.952043 
L 106.591169 152.38846 
L 110.666397 149.824876 
L 111.005999 147.261292 
L 112.704011 145.552237 
L 115.081228 143.843181 
L 121.19407 142.134125 
L 123.231684 140.425069 
L 125.269299 138.716014 
L 125.608901 136.15243 
L 127.986118 133.588846 
L 130.363334 131.87979 
L 132.061346 130.170735 
L 133.419755 128.461679 
L 136.815779 126.752623 
L 138.174188 125.043567 
L 139.192995 123.334511 
L 139.532598 121.625456 
L 139.8722 119.9164 
L 147.00385 118.207344 
L 147.683054 116.498288 
L 150.739476 114.789233 
L 152.097885 113.080177 
L 154.814704 111.371121 
L 155.493909 109.662065 
L 156.173113 107.953009 
L 157.191921 106.243954 
L 158.889932 104.534898 
L 159.908739 102.825842 
L 170.776015 101.116786 
L 171.115617 99.40773 
L 174.511641 97.698675 
L 175.190846 95.135091 
L 176.209653 92.571507 
L 176.549255 90.862452 
L 181.303688 89.153396 
L 183.0017 87.44434 
L 183.680905 85.735284 
L 184.360109 84.026228 
L 186.058121 82.317173 
L 186.737326 80.608117 
L 187.416531 78.899061 
L 189.454145 77.190005 
L 194.887783 74.626422 
L 195.227385 71.20831 
L 199.302613 68.644726 
L 205.755058 66.935671 
L 206.094661 65.226615 
L 209.490684 63.517559 
L 212.207503 61.808503 
L 215.943129 60.099447 
L 216.622334 57.535864 
L 223.753983 54.97228 
L 236.658873 52.408696 
L 255.676605 49.845113 
L 257.035015 48.136057 
L 260.770641 44.717945 
L 261.110243 41.299834 
L 261.789448 39.590778 
L 262.468652 37.881722 
L 263.147857 36.172667 
L 263.827062 35.318139 
" clip-path="url(#pfa34111a10)" style="fill: none; stroke: #7352bf; stroke-linecap: round"/>
   </g>
   <g id="line2d_32">
    <path d="M 53.6132 245.532 
L 53.952803 243.822944 
L 54.632008 241.259361 
L 54.97161 238.695777 
L 55.650815 235.277665 
L 55.990417 232.714082 
L 56.330019 231.005026 
L 57.009224 229.29597 
L 57.688429 226.732386 
L 59.386441 224.168803 
L 60.74485 222.459747 
L 61.763657 220.750691 
L 62.10326 219.041635 
L 65.499283 217.33258 
L 66.178488 215.623524 
L 66.857693 213.914468 
L 67.8765 212.205412 
L 68.895307 210.496356 
L 70.932921 208.787301 
L 71.612126 206.223717 
L 72.970535 203.660133 
L 73.310137 201.951078 
L 76.026956 199.387494 
L 76.366559 195.969382 
L 76.706161 193.405799 
L 78.404173 191.696743 
L 79.42298 189.987687 
L 80.781389 188.278631 
L 81.120992 186.569575 
L 81.800196 184.86052 
L 84.517015 183.151464 
L 85.19622 180.58788 
L 85.875425 178.024297 
L 87.233834 175.460713 
L 88.931846 172.042601 
L 90.96946 169.479018 
L 91.988267 167.769962 
L 93.686279 166.060906 
L 94.365484 163.497322 
L 95.044689 160.933739 
L 95.384291 159.224683 
L 98.780314 157.515627 
L 106.930771 155.806571 
L 107.949578 154.097516 
L 110.326795 152.38846 
L 112.704011 149.824876 
L 113.383216 147.261292 
L 114.741625 144.697709 
L 122.212877 142.134125 
L 122.55248 140.425069 
L 127.986118 138.716014 
L 128.32572 137.006958 
L 128.665322 135.297902 
L 129.004925 133.588846 
L 132.400948 131.87979 
L 133.759358 130.170735 
L 134.09896 128.461679 
L 134.778165 126.752623 
L 137.834586 125.043567 
L 141.23061 123.334511 
L 143.268224 121.625456 
L 143.607826 119.9164 
L 145.985043 118.207344 
L 150.399873 116.498288 
L 152.437488 114.789233 
L 153.116692 112.225649 
L 157.191921 109.662065 
L 157.871125 107.098482 
L 160.587944 104.534898 
L 161.606751 102.825842 
L 162.965161 101.116786 
L 163.304763 99.40773 
L 164.663173 97.698675 
L 172.813629 95.989619 
L 175.190846 94.280563 
L 176.209653 92.571507 
L 178.247267 90.862452 
L 179.945279 89.153396 
L 180.284881 87.44434 
L 181.982893 85.735284 
L 185.378917 84.026228 
L 186.058121 82.317173 
L 188.77494 80.608117 
L 190.812554 78.899061 
L 192.170964 77.190005 
L 193.189771 74.626422 
L 193.868976 72.062838 
L 200.661023 70.353782 
L 201.340227 68.644726 
L 209.490684 66.935671 
L 213.905515 65.226615 
L 216.282731 63.517559 
L 217.980743 61.808503 
L 221.716369 60.099447 
L 223.753983 57.535864 
L 224.093586 54.97228 
L 239.715294 53.263224 
L 245.148932 51.554169 
L 255.676605 49.845113 
L 257.374617 48.136057 
L 260.431038 44.717945 
L 261.110243 41.299834 
L 261.449845 39.590778 
L 262.12905 37.881722 
L 263.48746 36.172667 
L 263.827062 35.318139 
" clip-path="url(#pfa34111a10)" style="fill: none; stroke: #a676d6; stroke-linecap: round"/>
   </g>
   <g id="line2d_33">
    <path d="M 53.6132 245.532 
L 54.66427 242.968416 
L 60.970686 237.841249 
L 66.226032 232.714082 
L 69.37924 227.586914 
L 70.430309 222.459747 
L 74.634587 212.205412 
L 93.553834 201.951078 
L 98.809181 191.696743 
L 108.268804 181.442408 
L 117.728428 176.315241 
L 128.239121 171.188073 
L 130.34126 166.060906 
L 139.800884 160.933739 
L 151.362646 155.806571 
L 152.413715 150.679404 
L 154.515854 145.552237 
L 166.077616 140.425069 
L 179.741517 135.297902 
L 192.354349 130.170735 
L 194.456488 125.043567 
L 195.507557 119.9164 
L 212.324666 114.789233 
L 221.78429 109.662065 
L 233.346052 104.534898 
L 239.652468 99.40773 
L 240.703537 94.280563 
L 250.163161 89.153396 
L 253.316369 84.026228 
L 255.418507 76.335477 
L 259.622785 66.081143 
L 260.673854 58.390392 
L 263.827062 45.572473 
" clip-path="url(#pfa34111a10)" style="fill: none; stroke: #9e005d; stroke-linecap: round"/>
   </g>
   <g id="line2d_34">
    <path d="M 53.6132 245.532 
L 263.827062 35.318139 
" clip-path="url(#pfa34111a10)" style="fill: none; stroke-dasharray: 3.7,1.6; stroke-dashoffset: 0; stroke: #000000"/>
   </g>
   <g id="patch_3">
    <path d="M 53.6132 245.532 
L 53.6132 33.216 
" style="fill: none; stroke: #cccccc; stroke-linejoin: miter; stroke-linecap: square"/>
   </g>
   <g id="patch_4">
    <path d="M 265.9292 245.532 
L 265.9292 33.216 
" style="fill: none; stroke: #cccccc; stroke-linejoin: miter; stroke-linecap: square"/>
   </g>
   <g id="patch_5">
    <path d="M 53.6132 245.532 
L 265.9292 245.532 
" style="fill: none; stroke: #cccccc; stroke-linejoin: miter; stroke-linecap: square"/>
   </g>
   <g id="patch_6">
    <path d="M 53.6132 33.216 
L 265.9292 33.216 
" style="fill: none; stroke: #cccccc; stroke-linejoin: miter; stroke-linecap: square"/>
   </g>
   <g id="text_15">
    <!-- Classifier performance -->
    <g style="fill: #262626" transform="translate(111.7577 16.9218) scale(0.096 -0.096)">
     <defs>
      <path id="ArialMT-43" d="M 3763 1606 
L 4369 1453 
Q 4178 706 3683 314 
Q 3188 -78 2472 -78 
Q 1731 -78 1267 223 
Q 803 525 561 1097 
Q 319 1669 319 2325 
Q 319 3041 592 3573 
Q 866 4106 1370 4382 
Q 1875 4659 2481 4659 
Q 3169 4659 3637 4309 
Q 4106 3959 4291 3325 
L 3694 3184 
Q 3534 3684 3231 3912 
Q 2928 4141 2469 4141 
Q 1941 4141 1586 3887 
Q 1231 3634 1087 3207 
Q 944 2781 944 2328 
Q 944 1744 1114 1308 
Q 1284 872 1643 656 
Q 2003 441 2422 441 
Q 2931 441 3284 734 
Q 3638 1028 3763 1606 
z
" transform="scale(0.015625)"/>
      <path id="ArialMT-66" d="M 556 0 
L 556 2881 
L 59 2881 
L 59 3319 
L 556 3319 
L 556 3672 
Q 556 4006 616 4169 
Q 697 4388 901 4523 
Q 1106 4659 1475 4659 
Q 1713 4659 2000 4603 
L 1916 4113 
Q 1741 4144 1584 4144 
Q 1328 4144 1222 4034 
Q 1116 3925 1116 3625 
L 1116 3319 
L 1763 3319 
L 1763 2881 
L 1116 2881 
L 1116 0 
L 556 0 
z
" transform="scale(0.015625)"/>
      <path id="ArialMT-70" d="M 422 -1272 
L 422 3319 
L 934 3319 
L 934 2888 
Q 1116 3141 1344 3267 
Q 1572 3394 1897 3394 
Q 2322 3394 2647 3175 
Q 2972 2956 3137 2557 
Q 3303 2159 3303 1684 
Q 3303 1175 3120 767 
Q 2938 359 2589 142 
Q 2241 -75 1856 -75 
Q 1575 -75 1351 44 
Q 1128 163 984 344 
L 984 -1272 
L 422 -1272 
z
M 931 1641 
Q 931 1000 1190 694 
Q 1450 388 1819 388 
Q 2194 388 2461 705 
Q 2728 1022 2728 1688 
Q 2728 2322 2467 2637 
Q 2206 2953 1844 2953 
Q 1484 2953 1207 2617 
Q 931 2281 931 1641 
z
" transform="scale(0.015625)"/>
      <path id="ArialMT-6d" d="M 422 0 
L 422 3319 
L 925 3319 
L 925 2853 
Q 1081 3097 1340 3245 
Q 1600 3394 1931 3394 
Q 2300 3394 2536 3241 
Q 2772 3088 2869 2813 
Q 3263 3394 3894 3394 
Q 4388 3394 4653 3120 
Q 4919 2847 4919 2278 
L 4919 0 
L 4359 0 
L 4359 2091 
Q 4359 2428 4304 2576 
Q 4250 2725 4106 2815 
Q 3963 2906 3769 2906 
Q 3419 2906 3187 2673 
Q 2956 2441 2956 1928 
L 2956 0 
L 2394 0 
L 2394 2156 
Q 2394 2531 2256 2718 
Q 2119 2906 1806 2906 
Q 1569 2906 1367 2781 
Q 1166 2656 1075 2415 
Q 984 2175 984 1722 
L 984 0 
L 422 0 
z
" transform="scale(0.015625)"/>
      <path id="ArialMT-6e" d="M 422 0 
L 422 3319 
L 928 3319 
L 928 2847 
Q 1294 3394 1984 3394 
Q 2284 3394 2536 3286 
Q 2788 3178 2913 3003 
Q 3038 2828 3088 2588 
Q 3119 2431 3119 2041 
L 3119 0 
L 2556 0 
L 2556 2019 
Q 2556 2363 2490 2533 
Q 2425 2703 2258 2804 
Q 2091 2906 1866 2906 
Q 1506 2906 1245 2678 
Q 984 2450 984 1813 
L 984 0 
L 422 0 
z
" transform="scale(0.015625)"/>
      <path id="ArialMT-63" d="M 2588 1216 
L 3141 1144 
Q 3050 572 2676 248 
Q 2303 -75 1759 -75 
Q 1078 -75 664 370 
Q 250 816 250 1647 
Q 250 2184 428 2587 
Q 606 2991 970 3192 
Q 1334 3394 1763 3394 
Q 2303 3394 2647 3120 
Q 2991 2847 3088 2344 
L 2541 2259 
Q 2463 2594 2264 2762 
Q 2066 2931 1784 2931 
Q 1359 2931 1093 2626 
Q 828 2322 828 1663 
Q 828 994 1084 691 
Q 1341 388 1753 388 
Q 2084 388 2306 591 
Q 2528 794 2588 1216 
z
" transform="scale(0.015625)"/>
     </defs>
     <use xlink:href="#ArialMT-43"/>
     <use xlink:href="#ArialMT-6c" transform="translate(72.216797 0)"/>
     <use xlink:href="#ArialMT-61" transform="translate(94.433594 0)"/>
     <use xlink:href="#ArialMT-73" transform="translate(150.048828 0)"/>
     <use xlink:href="#ArialMT-73" transform="translate(200.048828 0)"/>
     <use xlink:href="#ArialMT-69" transform="translate(250.048828 0)"/>
     <use xlink:href="#ArialMT-66" transform="translate(272.265625 0)"/>
     <use xlink:href="#ArialMT-69" transform="translate(300.048828 0)"/>
     <use xlink:href="#ArialMT-65" transform="translate(322.265625 0)"/>
     <use xlink:href="#ArialMT-72" transform="translate(377.880859 0)"/>
     <use xlink:href="#ArialMT-20" transform="translate(411.181641 0)"/>
     <use xlink:href="#ArialMT-70" transform="translate(438.964844 0)"/>
     <use xlink:href="#ArialMT-65" transform="translate(494.580078 0)"/>
     <use xlink:href="#ArialMT-72" transform="translate(550.195312 0)"/>
     <use xlink:href="#ArialMT-66" transform="translate(583.496094 0)"/>
     <use xlink:href="#ArialMT-6f" transform="translate(611.279297 0)"/>
     <use xlink:href="#ArialMT-72" transform="translate(666.894531 0)"/>
     <use xlink:href="#ArialMT-6d" transform="translate(700.195312 0)"/>
     <use xlink:href="#ArialMT-61" transform="translate(783.496094 0)"/>
     <use xlink:href="#ArialMT-6e" transform="translate(839.111328 0)"/>
     <use xlink:href="#ArialMT-63" transform="translate(894.726562 0)"/>
     <use xlink:href="#ArialMT-65" transform="translate(944.726562 0)"/>
    </g>
    <!--  n=743, (124 +, 619 -) -->
    <g style="fill: #262626" transform="translate(113.34245 27.216) scale(0.096 -0.096)">
     <defs>
      <path id="ArialMT-3d" d="M 3381 2694 
L 356 2694 
L 356 3219 
L 3381 3219 
L 3381 2694 
z
M 3381 1303 
L 356 1303 
L 356 1828 
L 3381 1828 
L 3381 1303 
z
" transform="scale(0.015625)"/>
      <path id="ArialMT-37" d="M 303 3981 
L 303 4522 
L 3269 4522 
L 3269 4084 
Q 2831 3619 2401 2847 
Q 1972 2075 1738 1259 
Q 1569 684 1522 0 
L 944 0 
Q 953 541 1156 1306 
Q 1359 2072 1739 2783 
Q 2119 3494 2547 3981 
L 303 3981 
z
" transform="scale(0.015625)"/>
      <path id="ArialMT-33" d="M 269 1209 
L 831 1284 
Q 928 806 1161 595 
Q 1394 384 1728 384 
Q 2125 384 2398 659 
Q 2672 934 2672 1341 
Q 2672 1728 2419 1979 
Q 2166 2231 1775 2231 
Q 1616 2231 1378 2169 
L 1441 2663 
Q 1497 2656 1531 2656 
Q 1891 2656 2178 2843 
Q 2466 3031 2466 3422 
Q 2466 3731 2256 3934 
Q 2047 4138 1716 4138 
Q 1388 4138 1169 3931 
Q 950 3725 888 3313 
L 325 3413 
Q 428 3978 793 4289 
Q 1159 4600 1703 4600 
Q 2078 4600 2393 4439 
Q 2709 4278 2876 4000 
Q 3044 3722 3044 3409 
Q 3044 3113 2884 2869 
Q 2725 2625 2413 2481 
Q 2819 2388 3044 2092 
Q 3269 1797 3269 1353 
Q 3269 753 2831 336 
Q 2394 -81 1725 -81 
Q 1122 -81 723 278 
Q 325 638 269 1209 
z
" transform="scale(0.015625)"/>
      <path id="ArialMT-2c" d="M 569 0 
L 569 641 
L 1209 641 
L 1209 0 
Q 1209 -353 1084 -570 
Q 959 -788 688 -906 
L 531 -666 
Q 709 -588 793 -436 
Q 878 -284 888 0 
L 569 0 
z
" transform="scale(0.015625)"/>
      <path id="ArialMT-28" d="M 1497 -1347 
Q 1031 -759 709 28 
Q 388 816 388 1659 
Q 388 2403 628 3084 
Q 909 3875 1497 4659 
L 1900 4659 
Q 1522 4009 1400 3731 
Q 1209 3300 1100 2831 
Q 966 2247 966 1656 
Q 966 153 1900 -1347 
L 1497 -1347 
z
" transform="scale(0.015625)"/>
      <path id="ArialMT-2b" d="M 1603 741 
L 1603 1997 
L 356 1997 
L 356 2522 
L 1603 2522 
L 1603 3769 
L 2134 3769 
L 2134 2522 
L 3381 2522 
L 3381 1997 
L 2134 1997 
L 2134 741 
L 1603 741 
z
" transform="scale(0.015625)"/>
      <path id="ArialMT-39" d="M 350 1059 
L 891 1109 
Q 959 728 1153 556 
Q 1347 384 1650 384 
Q 1909 384 2104 503 
Q 2300 622 2425 820 
Q 2550 1019 2634 1356 
Q 2719 1694 2719 2044 
Q 2719 2081 2716 2156 
Q 2547 1888 2255 1720 
Q 1963 1553 1622 1553 
Q 1053 1553 659 1965 
Q 266 2378 266 3053 
Q 266 3750 677 4175 
Q 1088 4600 1706 4600 
Q 2153 4600 2523 4359 
Q 2894 4119 3086 3673 
Q 3278 3228 3278 2384 
Q 3278 1506 3087 986 
Q 2897 466 2520 194 
Q 2144 -78 1638 -78 
Q 1100 -78 759 220 
Q 419 519 350 1059 
z
M 2653 3081 
Q 2653 3566 2395 3850 
Q 2138 4134 1775 4134 
Q 1400 4134 1122 3828 
Q 844 3522 844 3034 
Q 844 2597 1108 2323 
Q 1372 2050 1759 2050 
Q 2150 2050 2401 2323 
Q 2653 2597 2653 3081 
z
" transform="scale(0.015625)"/>
      <path id="ArialMT-2d" d="M 203 1375 
L 203 1941 
L 1931 1941 
L 1931 1375 
L 203 1375 
z
" transform="scale(0.015625)"/>
      <path id="ArialMT-29" d="M 791 -1347 
L 388 -1347 
Q 1322 153 1322 1656 
Q 1322 2244 1188 2822 
Q 1081 3291 891 3722 
Q 769 4003 388 4659 
L 791 4659 
Q 1378 3875 1659 3084 
Q 1900 2403 1900 1659 
Q 1900 816 1576 28 
Q 1253 -759 791 -1347 
z
" transform="scale(0.015625)"/>
     </defs>
     <use xlink:href="#ArialMT-20"/>
     <use xlink:href="#ArialMT-6e" transform="translate(27.783203 0)"/>
     <use xlink:href="#ArialMT-3d" transform="translate(83.398438 0)"/>
     <use xlink:href="#ArialMT-37" transform="translate(141.796875 0)"/>
     <use xlink:href="#ArialMT-34" transform="translate(197.412109 0)"/>
     <use xlink:href="#ArialMT-33" transform="translate(253.027344 0)"/>
     <use xlink:href="#ArialMT-2c" transform="translate(308.642578 0)"/>
     <use xlink:href="#ArialMT-20" transform="translate(336.425781 0)"/>
     <use xlink:href="#ArialMT-28" transform="translate(364.208984 0)"/>
     <use xlink:href="#ArialMT-31" transform="translate(397.509766 0)"/>
     <use xlink:href="#ArialMT-32" transform="translate(453.125 0)"/>
     <use xlink:href="#ArialMT-34" transform="translate(508.740234 0)"/>
     <use xlink:href="#ArialMT-20" transform="translate(564.355469 0)"/>
     <use xlink:href="#ArialMT-2b" transform="translate(592.138672 0)"/>
     <use xlink:href="#ArialMT-2c" transform="translate(650.537109 0)"/>
     <use xlink:href="#ArialMT-20" transform="translate(678.320312 0)"/>
     <use xlink:href="#ArialMT-36" transform="translate(706.103516 0)"/>
     <use xlink:href="#ArialMT-31" transform="translate(761.71875 0)"/>
     <use xlink:href="#ArialMT-39" transform="translate(817.333984 0)"/>
     <use xlink:href="#ArialMT-20" transform="translate(872.949219 0)"/>
     <use xlink:href="#ArialMT-2d" transform="translate(900.732422 0)"/>
     <use xlink:href="#ArialMT-29" transform="translate(934.033203 0)"/>
    </g>
   </g>
   <g id="legend_1">
    <g id="patch_7">
     <path d="M 55.3732 277.18885 
L 184.52695 277.18885 
Q 186.28695 277.18885 186.28695 275.42885 
L 186.28695 34.976 
Q 186.28695 33.216 184.52695 33.216 
L 55.3732 33.216 
Q 53.6132 33.216 53.6132 34.976 
L 53.6132 275.42885 
Q 53.6132 277.18885 55.3732 277.18885 
z
" style="fill: #ffffff; opacity: 0.8; stroke: #cccccc; stroke-width: 0.8; stroke-linejoin: miter"/>
    </g>
    <g id="line2d_35">
     <path d="M 57.1332 45.588387 
L 65.9332 45.588387 
L 74.7332 45.588387 
" style="fill: none; stroke: #008fd7; stroke-linecap: round"/>
    </g>
    <g id="text_16">
     <!-- AF2 (no templates), -->
     <g style="fill: #262626" transform="translate(81.7732 43.142125) scale(0.088 -0.088)">
      <defs>
       <path id="ArialMT-41" d="M -9 0 
L 1750 4581 
L 2403 4581 
L 4278 0 
L 3588 0 
L 3053 1388 
L 1138 1388 
L 634 0 
L -9 0 
z
M 1313 1881 
L 2866 1881 
L 2388 3150 
Q 2169 3728 2063 4100 
Q 1975 3659 1816 3225 
L 1313 1881 
z
" transform="scale(0.015625)"/>
      </defs>
      <use xlink:href="#ArialMT-41"/>
      <use xlink:href="#ArialMT-46" transform="translate(66.699219 0)"/>
      <use xlink:href="#ArialMT-32" transform="translate(127.783203 0)"/>
      <use xlink:href="#ArialMT-20" transform="translate(183.398438 0)"/>
      <use xlink:href="#ArialMT-28" transform="translate(211.181641 0)"/>
      <use xlink:href="#ArialMT-6e" transform="translate(244.482422 0)"/>
      <use xlink:href="#ArialMT-6f" transform="translate(300.097656 0)"/>
      <use xlink:href="#ArialMT-20" transform="translate(355.712891 0)"/>
      <use xlink:href="#ArialMT-74" transform="translate(383.496094 0)"/>
      <use xlink:href="#ArialMT-65" transform="translate(411.279297 0)"/>
      <use xlink:href="#ArialMT-6d" transform="translate(466.894531 0)"/>
      <use xlink:href="#ArialMT-70" transform="translate(550.195312 0)"/>
      <use xlink:href="#ArialMT-6c" transform="translate(605.810547 0)"/>
      <use xlink:href="#ArialMT-61" transform="translate(628.027344 0)"/>
      <use xlink:href="#ArialMT-74" transform="translate(683.642578 0)"/>
      <use xlink:href="#ArialMT-65" transform="translate(711.425781 0)"/>
      <use xlink:href="#ArialMT-73" transform="translate(767.041016 0)"/>
      <use xlink:href="#ArialMT-29" transform="translate(817.041016 0)"/>
      <use xlink:href="#ArialMT-2c" transform="translate(850.341797 0)"/>
     </g>
     <!-- AUC = 0.91 -->
     <g style="fill: #262626" transform="translate(81.7732 52.5529) scale(0.088 -0.088)">
      <defs>
       <path id="ArialMT-55" d="M 3500 4581 
L 4106 4581 
L 4106 1934 
Q 4106 1244 3950 837 
Q 3794 431 3386 176 
Q 2978 -78 2316 -78 
Q 1672 -78 1262 144 
Q 853 366 678 786 
Q 503 1206 503 1934 
L 503 4581 
L 1109 4581 
L 1109 1938 
Q 1109 1341 1220 1058 
Q 1331 775 1601 622 
Q 1872 469 2263 469 
Q 2931 469 3215 772 
Q 3500 1075 3500 1938 
L 3500 4581 
z
" transform="scale(0.015625)"/>
      </defs>
      <use xlink:href="#ArialMT-41"/>
      <use xlink:href="#ArialMT-55" transform="translate(66.699219 0)"/>
      <use xlink:href="#ArialMT-43" transform="translate(138.916016 0)"/>
      <use xlink:href="#ArialMT-20" transform="translate(211.132812 0)"/>
      <use xlink:href="#ArialMT-3d" transform="translate(238.916016 0)"/>
      <use xlink:href="#ArialMT-20" transform="translate(297.314453 0)"/>
      <use xlink:href="#ArialMT-30" transform="translate(325.097656 0)"/>
      <use xlink:href="#ArialMT-2e" transform="translate(380.712891 0)"/>
      <use xlink:href="#ArialMT-39" transform="translate(408.496094 0)"/>
      <use xlink:href="#ArialMT-31" transform="translate(464.111328 0)"/>
     </g>
    </g>
    <g id="line2d_36">
     <path d="M 57.1332 67.4491 
L 65.9332 67.4491 
L 74.7332 67.4491 
" style="fill: none; stroke: #115185; stroke-linecap: round"/>
    </g>
    <g id="text_17">
     <!-- AF2, -->
     <g style="fill: #262626" transform="translate(81.7732 65.000775) scale(0.088 -0.088)">
      <use xlink:href="#ArialMT-41"/>
      <use xlink:href="#ArialMT-46" transform="translate(66.699219 0)"/>
      <use xlink:href="#ArialMT-32" transform="translate(127.783203 0)"/>
      <use xlink:href="#ArialMT-2c" transform="translate(183.398438 0)"/>
     </g>
     <!-- AUC = 0.90 -->
     <g style="fill: #262626" transform="translate(81.7732 74.308425) scale(0.088 -0.088)">
      <use xlink:href="#ArialMT-41"/>
      <use xlink:href="#ArialMT-55" transform="translate(66.699219 0)"/>
      <use xlink:href="#ArialMT-43" transform="translate(138.916016 0)"/>
      <use xlink:href="#ArialMT-20" transform="translate(211.132812 0)"/>
      <use xlink:href="#ArialMT-3d" transform="translate(238.916016 0)"/>
      <use xlink:href="#ArialMT-20" transform="translate(297.314453 0)"/>
      <use xlink:href="#ArialMT-30" transform="translate(325.097656 0)"/>
      <use xlink:href="#ArialMT-2e" transform="translate(380.712891 0)"/>
      <use xlink:href="#ArialMT-39" transform="translate(408.496094 0)"/>
      <use xlink:href="#ArialMT-30" transform="translate(464.111328 0)"/>
     </g>
    </g>
    <g id="line2d_37">
     <path d="M 57.1332 89.320537 
L 65.9332 89.320537 
L 74.7332 89.320537 
" style="fill: none; stroke: #061f4a; stroke-linecap: round"/>
    </g>
    <g id="text_18">
     <!-- AF3, -->
     <g style="fill: #262626" transform="translate(81.7732 86.7563) scale(0.088 -0.088)">
      <use xlink:href="#ArialMT-41"/>
      <use xlink:href="#ArialMT-46" transform="translate(66.699219 0)"/>
      <use xlink:href="#ArialMT-33" transform="translate(127.783203 0)"/>
      <use xlink:href="#ArialMT-2c" transform="translate(183.398438 0)"/>
     </g>
     <!-- AUC = 0.88 (1 missing) -->
     <g style="fill: #262626" transform="translate(81.7732 96.19265) scale(0.088 -0.088)">
      <defs>
       <path id="ArialMT-67" d="M 319 -275 
L 866 -356 
Q 900 -609 1056 -725 
Q 1266 -881 1628 -881 
Q 2019 -881 2231 -725 
Q 2444 -569 2519 -288 
Q 2563 -116 2559 434 
Q 2191 0 1641 0 
Q 956 0 581 494 
Q 206 988 206 1678 
Q 206 2153 378 2554 
Q 550 2956 876 3175 
Q 1203 3394 1644 3394 
Q 2231 3394 2613 2919 
L 2613 3319 
L 3131 3319 
L 3131 450 
Q 3131 -325 2973 -648 
Q 2816 -972 2473 -1159 
Q 2131 -1347 1631 -1347 
Q 1038 -1347 672 -1080 
Q 306 -813 319 -275 
z
M 784 1719 
Q 784 1066 1043 766 
Q 1303 466 1694 466 
Q 2081 466 2343 764 
Q 2606 1063 2606 1700 
Q 2606 2309 2336 2618 
Q 2066 2928 1684 2928 
Q 1309 2928 1046 2623 
Q 784 2319 784 1719 
z
" transform="scale(0.015625)"/>
      </defs>
      <use xlink:href="#ArialMT-41"/>
      <use xlink:href="#ArialMT-55" transform="translate(66.699219 0)"/>
      <use xlink:href="#ArialMT-43" transform="translate(138.916016 0)"/>
      <use xlink:href="#ArialMT-20" transform="translate(211.132812 0)"/>
      <use xlink:href="#ArialMT-3d" transform="translate(238.916016 0)"/>
      <use xlink:href="#ArialMT-20" transform="translate(297.314453 0)"/>
      <use xlink:href="#ArialMT-30" transform="translate(325.097656 0)"/>
      <use xlink:href="#ArialMT-2e" transform="translate(380.712891 0)"/>
      <use xlink:href="#ArialMT-38" transform="translate(408.496094 0)"/>
      <use xlink:href="#ArialMT-38" transform="translate(464.111328 0)"/>
      <use xlink:href="#ArialMT-20" transform="translate(519.726562 0)"/>
      <use xlink:href="#ArialMT-28" transform="translate(547.509766 0)"/>
      <use xlink:href="#ArialMT-31" transform="translate(580.810547 0)"/>
      <use xlink:href="#ArialMT-20" transform="translate(636.425781 0)"/>
      <use xlink:href="#ArialMT-6d" transform="translate(664.208984 0)"/>
      <use xlink:href="#ArialMT-69" transform="translate(747.509766 0)"/>
      <use xlink:href="#ArialMT-73" transform="translate(769.726562 0)"/>
      <use xlink:href="#ArialMT-73" transform="translate(819.726562 0)"/>
      <use xlink:href="#ArialMT-69" transform="translate(869.726562 0)"/>
      <use xlink:href="#ArialMT-6e" transform="translate(891.943359 0)"/>
      <use xlink:href="#ArialMT-67" transform="translate(947.558594 0)"/>
      <use xlink:href="#ArialMT-29" transform="translate(1003.173828 0)"/>
     </g>
    </g>
    <g id="line2d_38">
     <path d="M 57.1332 111.413075 
L 65.9332 111.413075 
L 74.7332 111.413075 
" style="fill: none; stroke: #0b1321; stroke-linecap: round"/>
    </g>
    <g id="text_19">
     <!-- AF3 (no templates), -->
     <g style="fill: #262626" transform="translate(81.7732 108.8509) scale(0.088 -0.088)">
      <use xlink:href="#ArialMT-41"/>
      <use xlink:href="#ArialMT-46" transform="translate(66.699219 0)"/>
      <use xlink:href="#ArialMT-33" transform="translate(127.783203 0)"/>
      <use xlink:href="#ArialMT-20" transform="translate(183.398438 0)"/>
      <use xlink:href="#ArialMT-28" transform="translate(211.181641 0)"/>
      <use xlink:href="#ArialMT-6e" transform="translate(244.482422 0)"/>
      <use xlink:href="#ArialMT-6f" transform="translate(300.097656 0)"/>
      <use xlink:href="#ArialMT-20" transform="translate(355.712891 0)"/>
      <use xlink:href="#ArialMT-74" transform="translate(383.496094 0)"/>
      <use xlink:href="#ArialMT-65" transform="translate(411.279297 0)"/>
      <use xlink:href="#ArialMT-6d" transform="translate(466.894531 0)"/>
      <use xlink:href="#ArialMT-70" transform="translate(550.195312 0)"/>
      <use xlink:href="#ArialMT-6c" transform="translate(605.810547 0)"/>
      <use xlink:href="#ArialMT-61" transform="translate(628.027344 0)"/>
      <use xlink:href="#ArialMT-74" transform="translate(683.642578 0)"/>
      <use xlink:href="#ArialMT-65" transform="translate(711.425781 0)"/>
      <use xlink:href="#ArialMT-73" transform="translate(767.041016 0)"/>
      <use xlink:href="#ArialMT-29" transform="translate(817.041016 0)"/>
      <use xlink:href="#ArialMT-2c" transform="translate(850.341797 0)"/>
     </g>
     <!-- AUC = 0.87 (1 missing) -->
     <g style="fill: #262626" transform="translate(81.7732 118.390375) scale(0.088 -0.088)">
      <use xlink:href="#ArialMT-41"/>
      <use xlink:href="#ArialMT-55" transform="translate(66.699219 0)"/>
      <use xlink:href="#ArialMT-43" transform="translate(138.916016 0)"/>
      <use xlink:href="#ArialMT-20" transform="translate(211.132812 0)"/>
      <use xlink:href="#ArialMT-3d" transform="translate(238.916016 0)"/>
      <use xlink:href="#ArialMT-20" transform="translate(297.314453 0)"/>
      <use xlink:href="#ArialMT-30" transform="translate(325.097656 0)"/>
      <use xlink:href="#ArialMT-2e" transform="translate(380.712891 0)"/>
      <use xlink:href="#ArialMT-38" transform="translate(408.496094 0)"/>
      <use xlink:href="#ArialMT-37" transform="translate(464.111328 0)"/>
      <use xlink:href="#ArialMT-20" transform="translate(519.726562 0)"/>
      <use xlink:href="#ArialMT-28" transform="translate(547.509766 0)"/>
      <use xlink:href="#ArialMT-31" transform="translate(580.810547 0)"/>
      <use xlink:href="#ArialMT-20" transform="translate(636.425781 0)"/>
      <use xlink:href="#ArialMT-6d" transform="translate(664.208984 0)"/>
      <use xlink:href="#ArialMT-69" transform="translate(747.509766 0)"/>
      <use xlink:href="#ArialMT-73" transform="translate(769.726562 0)"/>
      <use xlink:href="#ArialMT-73" transform="translate(819.726562 0)"/>
      <use xlink:href="#ArialMT-69" transform="translate(869.726562 0)"/>
      <use xlink:href="#ArialMT-6e" transform="translate(891.943359 0)"/>
      <use xlink:href="#ArialMT-67" transform="translate(947.558594 0)"/>
      <use xlink:href="#ArialMT-29" transform="translate(1003.173828 0)"/>
     </g>
    </g>
    <g id="line2d_39">
     <path d="M 57.1332 133.3897 
L 65.9332 133.3897 
L 74.7332 133.3897 
" style="fill: none; stroke: #855e40; stroke-linecap: round"/>
    </g>
    <g id="text_20">
     <!-- Chai-1, -->
     <g style="fill: #262626" transform="translate(81.7732 130.941375) scale(0.088 -0.088)">
      <defs>
       <path id="ArialMT-68" d="M 422 0 
L 422 4581 
L 984 4581 
L 984 2938 
Q 1378 3394 1978 3394 
Q 2347 3394 2619 3248 
Q 2891 3103 3008 2847 
Q 3125 2591 3125 2103 
L 3125 0 
L 2563 0 
L 2563 2103 
Q 2563 2525 2380 2717 
Q 2197 2909 1863 2909 
Q 1613 2909 1392 2779 
Q 1172 2650 1078 2428 
Q 984 2206 984 1816 
L 984 0 
L 422 0 
z
" transform="scale(0.015625)"/>
      </defs>
      <use xlink:href="#ArialMT-43"/>
      <use xlink:href="#ArialMT-68" transform="translate(72.216797 0)"/>
      <use xlink:href="#ArialMT-61" transform="translate(127.832031 0)"/>
      <use xlink:href="#ArialMT-69" transform="translate(183.447266 0)"/>
      <use xlink:href="#ArialMT-2d" transform="translate(205.664062 0)"/>
      <use xlink:href="#ArialMT-31" transform="translate(238.964844 0)"/>
      <use xlink:href="#ArialMT-2c" transform="translate(294.580078 0)"/>
     </g>
     <!-- AUC = 0.81 -->
     <g style="fill: #262626" transform="translate(81.7732 140.249025) scale(0.088 -0.088)">
      <use xlink:href="#ArialMT-41"/>
      <use xlink:href="#ArialMT-55" transform="translate(66.699219 0)"/>
      <use xlink:href="#ArialMT-43" transform="translate(138.916016 0)"/>
      <use xlink:href="#ArialMT-20" transform="translate(211.132812 0)"/>
      <use xlink:href="#ArialMT-3d" transform="translate(238.916016 0)"/>
      <use xlink:href="#ArialMT-20" transform="translate(297.314453 0)"/>
      <use xlink:href="#ArialMT-30" transform="translate(325.097656 0)"/>
      <use xlink:href="#ArialMT-2e" transform="translate(380.712891 0)"/>
      <use xlink:href="#ArialMT-38" transform="translate(408.496094 0)"/>
      <use xlink:href="#ArialMT-31" transform="translate(464.111328 0)"/>
     </g>
    </g>
    <g id="line2d_40">
     <path d="M 57.1332 155.366325 
L 65.9332 155.366325 
L 74.7332 155.366325 
" style="fill: none; stroke: #7352bf; stroke-linecap: round"/>
    </g>
    <g id="text_21">
     <!-- RF-AA (no templates), -->
     <g style="fill: #262626" transform="translate(81.7732 152.80415) scale(0.088 -0.088)">
      <use xlink:href="#ArialMT-52"/>
      <use xlink:href="#ArialMT-46" transform="translate(72.216797 0)"/>
      <use xlink:href="#ArialMT-2d" transform="translate(133.300781 0)"/>
      <use xlink:href="#ArialMT-41" transform="translate(166.601562 0)"/>
      <use xlink:href="#ArialMT-41" transform="translate(233.300781 0)"/>
      <use xlink:href="#ArialMT-20" transform="translate(294.5 0)"/>
      <use xlink:href="#ArialMT-28" transform="translate(322.283203 0)"/>
      <use xlink:href="#ArialMT-6e" transform="translate(355.583984 0)"/>
      <use xlink:href="#ArialMT-6f" transform="translate(411.199219 0)"/>
      <use xlink:href="#ArialMT-20" transform="translate(466.814453 0)"/>
      <use xlink:href="#ArialMT-74" transform="translate(494.597656 0)"/>
      <use xlink:href="#ArialMT-65" transform="translate(522.380859 0)"/>
      <use xlink:href="#ArialMT-6d" transform="translate(577.996094 0)"/>
      <use xlink:href="#ArialMT-70" transform="translate(661.296875 0)"/>
      <use xlink:href="#ArialMT-6c" transform="translate(716.912109 0)"/>
      <use xlink:href="#ArialMT-61" transform="translate(739.128906 0)"/>
      <use xlink:href="#ArialMT-74" transform="translate(794.744141 0)"/>
      <use xlink:href="#ArialMT-65" transform="translate(822.527344 0)"/>
      <use xlink:href="#ArialMT-73" transform="translate(878.142578 0)"/>
      <use xlink:href="#ArialMT-29" transform="translate(928.142578 0)"/>
      <use xlink:href="#ArialMT-2c" transform="translate(961.443359 0)"/>
     </g>
     <!-- AUC = 0.62 (1 missing) -->
     <g style="fill: #262626" transform="translate(81.7732 162.343625) scale(0.088 -0.088)">
      <use xlink:href="#ArialMT-41"/>
      <use xlink:href="#ArialMT-55" transform="translate(66.699219 0)"/>
      <use xlink:href="#ArialMT-43" transform="translate(138.916016 0)"/>
      <use xlink:href="#ArialMT-20" transform="translate(211.132812 0)"/>
      <use xlink:href="#ArialMT-3d" transform="translate(238.916016 0)"/>
      <use xlink:href="#ArialMT-20" transform="translate(297.314453 0)"/>
      <use xlink:href="#ArialMT-30" transform="translate(325.097656 0)"/>
      <use xlink:href="#ArialMT-2e" transform="translate(380.712891 0)"/>
      <use xlink:href="#ArialMT-36" transform="translate(408.496094 0)"/>
      <use xlink:href="#ArialMT-32" transform="translate(464.111328 0)"/>
      <use xlink:href="#ArialMT-20" transform="translate(519.726562 0)"/>
      <use xlink:href="#ArialMT-28" transform="translate(547.509766 0)"/>
      <use xlink:href="#ArialMT-31" transform="translate(580.810547 0)"/>
      <use xlink:href="#ArialMT-20" transform="translate(636.425781 0)"/>
      <use xlink:href="#ArialMT-6d" transform="translate(664.208984 0)"/>
      <use xlink:href="#ArialMT-69" transform="translate(747.509766 0)"/>
      <use xlink:href="#ArialMT-73" transform="translate(769.726562 0)"/>
      <use xlink:href="#ArialMT-73" transform="translate(819.726562 0)"/>
      <use xlink:href="#ArialMT-69" transform="translate(869.726562 0)"/>
      <use xlink:href="#ArialMT-6e" transform="translate(891.943359 0)"/>
      <use xlink:href="#ArialMT-67" transform="translate(947.558594 0)"/>
      <use xlink:href="#ArialMT-29" transform="translate(1003.173828 0)"/>
     </g>
    </g>
    <g id="line2d_41">
     <path d="M 57.1332 177.458862 
L 65.9332 177.458862 
L 74.7332 177.458862 
" style="fill: none; stroke: #a676d6; stroke-linecap: round"/>
    </g>
    <g id="text_22">
     <!-- RF-AA, -->
     <g style="fill: #262626" transform="translate(81.7732 174.894625) scale(0.088 -0.088)">
      <use xlink:href="#ArialMT-52"/>
      <use xlink:href="#ArialMT-46" transform="translate(72.216797 0)"/>
      <use xlink:href="#ArialMT-2d" transform="translate(133.300781 0)"/>
      <use xlink:href="#ArialMT-41" transform="translate(166.601562 0)"/>
      <use xlink:href="#ArialMT-41" transform="translate(233.300781 0)"/>
      <use xlink:href="#ArialMT-2c" transform="translate(300 0)"/>
     </g>
     <!-- AUC = 0.62 (1 missing) -->
     <g style="fill: #262626" transform="translate(81.7732 184.330975) scale(0.088 -0.088)">
      <use xlink:href="#ArialMT-41"/>
      <use xlink:href="#ArialMT-55" transform="translate(66.699219 0)"/>
      <use xlink:href="#ArialMT-43" transform="translate(138.916016 0)"/>
      <use xlink:href="#ArialMT-20" transform="translate(211.132812 0)"/>
      <use xlink:href="#ArialMT-3d" transform="translate(238.916016 0)"/>
      <use xlink:href="#ArialMT-20" transform="translate(297.314453 0)"/>
      <use xlink:href="#ArialMT-30" transform="translate(325.097656 0)"/>
      <use xlink:href="#ArialMT-2e" transform="translate(380.712891 0)"/>
      <use xlink:href="#ArialMT-36" transform="translate(408.496094 0)"/>
      <use xlink:href="#ArialMT-32" transform="translate(464.111328 0)"/>
      <use xlink:href="#ArialMT-20" transform="translate(519.726562 0)"/>
      <use xlink:href="#ArialMT-28" transform="translate(547.509766 0)"/>
      <use xlink:href="#ArialMT-31" transform="translate(580.810547 0)"/>
      <use xlink:href="#ArialMT-20" transform="translate(636.425781 0)"/>
      <use xlink:href="#ArialMT-6d" transform="translate(664.208984 0)"/>
      <use xlink:href="#ArialMT-69" transform="translate(747.509766 0)"/>
      <use xlink:href="#ArialMT-73" transform="translate(769.726562 0)"/>
      <use xlink:href="#ArialMT-73" transform="translate(819.726562 0)"/>
      <use xlink:href="#ArialMT-69" transform="translate(869.726562 0)"/>
      <use xlink:href="#ArialMT-6e" transform="translate(891.943359 0)"/>
      <use xlink:href="#ArialMT-67" transform="translate(947.558594 0)"/>
      <use xlink:href="#ArialMT-29" transform="translate(1003.173828 0)"/>
     </g>
    </g>
    <g id="line2d_42">
     <path d="M 57.1332 199.3303 
L 65.9332 199.3303 
L 74.7332 199.3303 
" style="fill: none; stroke: #5b616b; stroke-linecap: round"/>
    </g>
    <g id="text_23">
     <!-- Neuralplexer, -->
     <g style="fill: #262626" transform="translate(81.7732 196.881975) scale(0.088 -0.088)">
      <defs>
       <path id="ArialMT-4e" d="M 488 0 
L 488 4581 
L 1109 4581 
L 3516 984 
L 3516 4581 
L 4097 4581 
L 4097 0 
L 3475 0 
L 1069 3600 
L 1069 0 
L 488 0 
z
" transform="scale(0.015625)"/>
       <path id="ArialMT-78" d="M 47 0 
L 1259 1725 
L 138 3319 
L 841 3319 
L 1350 2541 
Q 1494 2319 1581 2169 
Q 1719 2375 1834 2534 
L 2394 3319 
L 3066 3319 
L 1919 1756 
L 3153 0 
L 2463 0 
L 1781 1031 
L 1600 1309 
L 728 0 
L 47 0 
z
" transform="scale(0.015625)"/>
      </defs>
      <use xlink:href="#ArialMT-4e"/>
      <use xlink:href="#ArialMT-65" transform="translate(72.216797 0)"/>
      <use xlink:href="#ArialMT-75" transform="translate(127.832031 0)"/>
      <use xlink:href="#ArialMT-72" transform="translate(183.447266 0)"/>
      <use xlink:href="#ArialMT-61" transform="translate(216.748047 0)"/>
      <use xlink:href="#ArialMT-6c" transform="translate(272.363281 0)"/>
      <use xlink:href="#ArialMT-70" transform="translate(294.580078 0)"/>
      <use xlink:href="#ArialMT-6c" transform="translate(350.195312 0)"/>
      <use xlink:href="#ArialMT-65" transform="translate(372.412109 0)"/>
      <use xlink:href="#ArialMT-78" transform="translate(428.027344 0)"/>
      <use xlink:href="#ArialMT-65" transform="translate(478.027344 0)"/>
      <use xlink:href="#ArialMT-72" transform="translate(533.642578 0)"/>
      <use xlink:href="#ArialMT-2c" transform="translate(561.443359 0)"/>
     </g>
     <!-- AUC = 0.55 -->
     <g style="fill: #262626" transform="translate(81.7732 206.189625) scale(0.088 -0.088)">
      <defs>
       <path id="ArialMT-35" d="M 266 1200 
L 856 1250 
Q 922 819 1161 601 
Q 1400 384 1738 384 
Q 2144 384 2425 690 
Q 2706 997 2706 1503 
Q 2706 1984 2436 2262 
Q 2166 2541 1728 2541 
Q 1456 2541 1237 2417 
Q 1019 2294 894 2097 
L 366 2166 
L 809 4519 
L 3088 4519 
L 3088 3981 
L 1259 3981 
L 1013 2750 
Q 1425 3038 1878 3038 
Q 2478 3038 2890 2622 
Q 3303 2206 3303 1553 
Q 3303 931 2941 478 
Q 2500 -78 1738 -78 
Q 1113 -78 717 272 
Q 322 622 266 1200 
z
" transform="scale(0.015625)"/>
      </defs>
      <use xlink:href="#ArialMT-41"/>
      <use xlink:href="#ArialMT-55" transform="translate(66.699219 0)"/>
      <use xlink:href="#ArialMT-43" transform="translate(138.916016 0)"/>
      <use xlink:href="#ArialMT-20" transform="translate(211.132812 0)"/>
      <use xlink:href="#ArialMT-3d" transform="translate(238.916016 0)"/>
      <use xlink:href="#ArialMT-20" transform="translate(297.314453 0)"/>
      <use xlink:href="#ArialMT-30" transform="translate(325.097656 0)"/>
      <use xlink:href="#ArialMT-2e" transform="translate(380.712891 0)"/>
      <use xlink:href="#ArialMT-35" transform="translate(408.496094 0)"/>
      <use xlink:href="#ArialMT-35" transform="translate(464.111328 0)"/>
     </g>
    </g>
    <g id="line2d_43">
     <path d="M 57.1332 221.085825 
L 65.9332 221.085825 
L 74.7332 221.085825 
" style="fill: none; stroke: #aeb0b5; stroke-linecap: round"/>
    </g>
    <g id="text_24">
     <!-- D-SCRIPT, -->
     <g style="fill: #262626" transform="translate(81.7732 218.6375) scale(0.088 -0.088)">
      <defs>
       <path id="ArialMT-44" d="M 494 0 
L 494 4581 
L 2072 4581 
Q 2606 4581 2888 4516 
Q 3281 4425 3559 4188 
Q 3922 3881 4101 3404 
Q 4281 2928 4281 2316 
Q 4281 1794 4159 1391 
Q 4038 988 3847 723 
Q 3656 459 3429 307 
Q 3203 156 2883 78 
Q 2563 0 2147 0 
L 494 0 
z
M 1100 541 
L 2078 541 
Q 2531 541 2789 625 
Q 3047 709 3200 863 
Q 3416 1078 3536 1442 
Q 3656 1806 3656 2325 
Q 3656 3044 3420 3430 
Q 3184 3816 2847 3947 
Q 2603 4041 2063 4041 
L 1100 4041 
L 1100 541 
z
" transform="scale(0.015625)"/>
       <path id="ArialMT-53" d="M 288 1472 
L 859 1522 
Q 900 1178 1048 958 
Q 1197 738 1509 602 
Q 1822 466 2213 466 
Q 2559 466 2825 569 
Q 3091 672 3220 851 
Q 3350 1031 3350 1244 
Q 3350 1459 3225 1620 
Q 3100 1781 2813 1891 
Q 2628 1963 1997 2114 
Q 1366 2266 1113 2400 
Q 784 2572 623 2826 
Q 463 3081 463 3397 
Q 463 3744 659 4045 
Q 856 4347 1234 4503 
Q 1613 4659 2075 4659 
Q 2584 4659 2973 4495 
Q 3363 4331 3572 4012 
Q 3781 3694 3797 3291 
L 3216 3247 
Q 3169 3681 2898 3903 
Q 2628 4125 2100 4125 
Q 1550 4125 1298 3923 
Q 1047 3722 1047 3438 
Q 1047 3191 1225 3031 
Q 1400 2872 2139 2705 
Q 2878 2538 3153 2413 
Q 3553 2228 3743 1945 
Q 3934 1663 3934 1294 
Q 3934 928 3725 604 
Q 3516 281 3123 101 
Q 2731 -78 2241 -78 
Q 1619 -78 1198 103 
Q 778 284 539 648 
Q 300 1013 288 1472 
z
" transform="scale(0.015625)"/>
       <path id="ArialMT-49" d="M 597 0 
L 597 4581 
L 1203 4581 
L 1203 0 
L 597 0 
z
" transform="scale(0.015625)"/>
      </defs>
      <use xlink:href="#ArialMT-44"/>
      <use xlink:href="#ArialMT-2d" transform="translate(72.216797 0)"/>
      <use xlink:href="#ArialMT-53" transform="translate(105.517578 0)"/>
      <use xlink:href="#ArialMT-43" transform="translate(172.216797 0)"/>
      <use xlink:href="#ArialMT-52" transform="translate(244.433594 0)"/>
      <use xlink:href="#ArialMT-49" transform="translate(316.650391 0)"/>
      <use xlink:href="#ArialMT-50" transform="translate(344.433594 0)"/>
      <use xlink:href="#ArialMT-54" transform="translate(411.132812 0)"/>
      <use xlink:href="#ArialMT-2c" transform="translate(461.091797 0)"/>
     </g>
     <!-- AUC = 0.50 -->
     <g style="fill: #262626" transform="translate(81.7732 227.94515) scale(0.088 -0.088)">
      <use xlink:href="#ArialMT-41"/>
      <use xlink:href="#ArialMT-55" transform="translate(66.699219 0)"/>
      <use xlink:href="#ArialMT-43" transform="translate(138.916016 0)"/>
      <use xlink:href="#ArialMT-20" transform="translate(211.132812 0)"/>
      <use xlink:href="#ArialMT-3d" transform="translate(238.916016 0)"/>
      <use xlink:href="#ArialMT-20" transform="translate(297.314453 0)"/>
      <use xlink:href="#ArialMT-30" transform="translate(325.097656 0)"/>
      <use xlink:href="#ArialMT-2e" transform="translate(380.712891 0)"/>
      <use xlink:href="#ArialMT-35" transform="translate(408.496094 0)"/>
      <use xlink:href="#ArialMT-30" transform="translate(464.111328 0)"/>
     </g>
    </g>
    <g id="line2d_44">
     <path d="M 57.1332 242.957262 
L 65.9332 242.957262 
L 74.7332 242.957262 
" style="fill: none; stroke: #478347; stroke-linecap: round"/>
    </g>
    <g id="text_25">
     <!-- ESMFold, -->
     <g style="fill: #262626" transform="translate(81.7732 240.393025) scale(0.088 -0.088)">
      <defs>
       <path id="ArialMT-45" d="M 506 0 
L 506 4581 
L 3819 4581 
L 3819 4041 
L 1113 4041 
L 1113 2638 
L 3647 2638 
L 3647 2100 
L 1113 2100 
L 1113 541 
L 3925 541 
L 3925 0 
L 506 0 
z
" transform="scale(0.015625)"/>
       <path id="ArialMT-4d" d="M 475 0 
L 475 4581 
L 1388 4581 
L 2472 1338 
Q 2622 884 2691 659 
Q 2769 909 2934 1394 
L 4031 4581 
L 4847 4581 
L 4847 0 
L 4263 0 
L 4263 3834 
L 2931 0 
L 2384 0 
L 1059 3900 
L 1059 0 
L 475 0 
z
" transform="scale(0.015625)"/>
       <path id="ArialMT-64" d="M 2575 0 
L 2575 419 
Q 2259 -75 1647 -75 
Q 1250 -75 917 144 
Q 584 363 401 755 
Q 219 1147 219 1656 
Q 219 2153 384 2558 
Q 550 2963 881 3178 
Q 1213 3394 1622 3394 
Q 1922 3394 2156 3267 
Q 2391 3141 2538 2938 
L 2538 4581 
L 3097 4581 
L 3097 0 
L 2575 0 
z
M 797 1656 
Q 797 1019 1065 703 
Q 1334 388 1700 388 
Q 2069 388 2326 689 
Q 2584 991 2584 1609 
Q 2584 2291 2321 2609 
Q 2059 2928 1675 2928 
Q 1300 2928 1048 2622 
Q 797 2316 797 1656 
z
" transform="scale(0.015625)"/>
      </defs>
      <use xlink:href="#ArialMT-45"/>
      <use xlink:href="#ArialMT-53" transform="translate(66.699219 0)"/>
      <use xlink:href="#ArialMT-4d" transform="translate(133.398438 0)"/>
      <use xlink:href="#ArialMT-46" transform="translate(216.699219 0)"/>
      <use xlink:href="#ArialMT-6f" transform="translate(277.783203 0)"/>
      <use xlink:href="#ArialMT-6c" transform="translate(333.398438 0)"/>
      <use xlink:href="#ArialMT-64" transform="translate(355.615234 0)"/>
      <use xlink:href="#ArialMT-2c" transform="translate(411.230469 0)"/>
     </g>
     <!-- AUC = 0.49 (5 missing) -->
     <g style="fill: #262626" transform="translate(81.7732 249.829375) scale(0.088 -0.088)">
      <use xlink:href="#ArialMT-41"/>
      <use xlink:href="#ArialMT-55" transform="translate(66.699219 0)"/>
      <use xlink:href="#ArialMT-43" transform="translate(138.916016 0)"/>
      <use xlink:href="#ArialMT-20" transform="translate(211.132812 0)"/>
      <use xlink:href="#ArialMT-3d" transform="translate(238.916016 0)"/>
      <use xlink:href="#ArialMT-20" transform="translate(297.314453 0)"/>
      <use xlink:href="#ArialMT-30" transform="translate(325.097656 0)"/>
      <use xlink:href="#ArialMT-2e" transform="translate(380.712891 0)"/>
      <use xlink:href="#ArialMT-34" transform="translate(408.496094 0)"/>
      <use xlink:href="#ArialMT-39" transform="translate(464.111328 0)"/>
      <use xlink:href="#ArialMT-20" transform="translate(519.726562 0)"/>
      <use xlink:href="#ArialMT-28" transform="translate(547.509766 0)"/>
      <use xlink:href="#ArialMT-35" transform="translate(580.810547 0)"/>
      <use xlink:href="#ArialMT-20" transform="translate(636.425781 0)"/>
      <use xlink:href="#ArialMT-6d" transform="translate(664.208984 0)"/>
      <use xlink:href="#ArialMT-69" transform="translate(747.509766 0)"/>
      <use xlink:href="#ArialMT-73" transform="translate(769.726562 0)"/>
      <use xlink:href="#ArialMT-73" transform="translate(819.726562 0)"/>
      <use xlink:href="#ArialMT-69" transform="translate(869.726562 0)"/>
      <use xlink:href="#ArialMT-6e" transform="translate(891.943359 0)"/>
      <use xlink:href="#ArialMT-67" transform="translate(947.558594 0)"/>
      <use xlink:href="#ArialMT-29" transform="translate(1003.173828 0)"/>
     </g>
    </g>
    <g id="line2d_45">
     <path d="M 57.1332 264.944613 
L 65.9332 264.944613 
L 74.7332 264.944613 
" style="fill: none; stroke: #9e005d; stroke-linecap: round"/>
    </g>
    <g id="text_26">
     <!-- Peptriever, -->
     <g style="fill: #262626" transform="translate(81.7732 262.380375) scale(0.088 -0.088)">
      <use xlink:href="#ArialMT-50"/>
      <use xlink:href="#ArialMT-65" transform="translate(66.699219 0)"/>
      <use xlink:href="#ArialMT-70" transform="translate(122.314453 0)"/>
      <use xlink:href="#ArialMT-74" transform="translate(177.929688 0)"/>
      <use xlink:href="#ArialMT-72" transform="translate(205.712891 0)"/>
      <use xlink:href="#ArialMT-69" transform="translate(239.013672 0)"/>
      <use xlink:href="#ArialMT-65" transform="translate(261.230469 0)"/>
      <use xlink:href="#ArialMT-76" transform="translate(316.845703 0)"/>
      <use xlink:href="#ArialMT-65" transform="translate(366.845703 0)"/>
      <use xlink:href="#ArialMT-72" transform="translate(422.460938 0)"/>
      <use xlink:href="#ArialMT-2c" transform="translate(450.261719 0)"/>
     </g>
     <!-- AUC = 0.45 (502 missing) -->
     <g style="fill: #262626" transform="translate(81.7732 271.816725) scale(0.088 -0.088)">
      <use xlink:href="#ArialMT-41"/>
      <use xlink:href="#ArialMT-55" transform="translate(66.699219 0)"/>
      <use xlink:href="#ArialMT-43" transform="translate(138.916016 0)"/>
      <use xlink:href="#ArialMT-20" transform="translate(211.132812 0)"/>
      <use xlink:href="#ArialMT-3d" transform="translate(238.916016 0)"/>
      <use xlink:href="#ArialMT-20" transform="translate(297.314453 0)"/>
      <use xlink:href="#ArialMT-30" transform="translate(325.097656 0)"/>
      <use xlink:href="#ArialMT-2e" transform="translate(380.712891 0)"/>
      <use xlink:href="#ArialMT-34" transform="translate(408.496094 0)"/>
      <use xlink:href="#ArialMT-35" transform="translate(464.111328 0)"/>
      <use xlink:href="#ArialMT-20" transform="translate(519.726562 0)"/>
      <use xlink:href="#ArialMT-28" transform="translate(547.509766 0)"/>
      <use xlink:href="#ArialMT-35" transform="translate(580.810547 0)"/>
      <use xlink:href="#ArialMT-30" transform="translate(636.425781 0)"/>
      <use xlink:href="#ArialMT-32" transform="translate(692.041016 0)"/>
      <use xlink:href="#ArialMT-20" transform="translate(747.65625 0)"/>
      <use xlink:href="#ArialMT-6d" transform="translate(775.439453 0)"/>
      <use xlink:href="#ArialMT-69" transform="translate(858.740234 0)"/>
      <use xlink:href="#ArialMT-73" transform="translate(880.957031 0)"/>
      <use xlink:href="#ArialMT-73" transform="translate(930.957031 0)"/>
      <use xlink:href="#ArialMT-69" transform="translate(980.957031 0)"/>
      <use xlink:href="#ArialMT-6e" transform="translate(1003.173828 0)"/>
      <use xlink:href="#ArialMT-67" transform="translate(1058.789062 0)"/>
      <use xlink:href="#ArialMT-29" transform="translate(1114.404297 0)"/>
     </g>
    </g>
   </g>
  </g>
 </g>
 <defs>
  <clipPath id="pfa34111a10">
   <rect x="53.6132" y="33.216" width="212.316" height="212.316"/>
  </clipPath>
 </defs>
</svg>
