<?xml version="1.0" encoding="utf-8" standalone="no"?>
<!DOCTYPE svg PUBLIC "-//W3C//DTD SVG 1.1//EN"
  "http://www.w3.org/Graphics/SVG/1.1/DTD/svg11.dtd">
<svg xmlns:xlink="http://www.w3.org/1999/xlink" width="460.8pt" height="345.6pt" viewBox="0 0 460.8 345.6" xmlns="http://www.w3.org/2000/svg" version="1.1">
 <metadata>
  <rdf:RDF xmlns:dc="http://purl.org/dc/elements/1.1/" xmlns:cc="http://creativecommons.org/ns#" xmlns:rdf="http://www.w3.org/1999/02/22-rdf-syntax-ns#">
   <cc:Work>
    <dc:type rdf:resource="http://purl.org/dc/dcmitype/StillImage"/>
    <dc:date>2024-10-17T17:18:21.625730</dc:date>
    <dc:format>image/svg+xml</dc:format>
    <dc:creator>
     <cc:Agent>
      <dc:title>Matplotlib v3.6.3, https://matplotlib.org/</dc:title>
     </cc:Agent>
    </dc:creator>
   </cc:Work>
  </rdf:RDF>
 </metadata>
 <defs>
  <style type="text/css">*{stroke-linejoin: round; stroke-linecap: butt}</style>
 </defs>
 <g id="figure_1">
  <g id="patch_1">
   <path d="M 0 345.6 
L 460.8 345.6 
L 460.8 0 
L 0 0 
z
" style="fill: #ffffff"/>
  </g>
  <g id="axes_1">
   <g id="patch_2">
    <path d="M 57.6 307.584 
L 414.72 307.584 
L 414.72 41.472 
L 57.6 41.472 
z
" style="fill: #ffffff"/>
   </g>
   <g id="matplotlib.axis_1">
    <g id="xtick_1">
     <g id="line2d_1">
      <path d="M 106.298182 307.584 
L 106.298182 41.472 
" clip-path="url(#ped7fb31d81)" style="fill: none; stroke: #cccccc; stroke-width: 0.8; stroke-linecap: round"/>
     </g>
     <g id="text_1">
      <!-- 2 -->
      <g style="fill: #262626" transform="translate(103.517713 323.057437) scale(0.1 -0.1)">
       <defs>
        <path id="Helvetica-32" d="M 200 0 
Q 231 578 439 1006 
Q 647 1434 1250 1784 
L 1850 2131 
Q 2253 2366 2416 2531 
Q 2672 2791 2672 3125 
Q 2672 3516 2437 3745 
Q 2203 3975 1813 3975 
Q 1234 3975 1013 3538 
Q 894 3303 881 2888 
L 309 2888 
Q 319 3472 525 3841 
Q 891 4491 1816 4491 
Q 2584 4491 2939 4075 
Q 3294 3659 3294 3150 
Q 3294 2613 2916 2231 
Q 2697 2009 2131 1694 
L 1703 1456 
Q 1397 1288 1222 1134 
Q 909 863 828 531 
L 3272 531 
L 3272 0 
L 200 0 
z
" transform="scale(0.015625)"/>
       </defs>
       <use xlink:href="#Helvetica-32"/>
      </g>
     </g>
    </g>
    <g id="xtick_2">
     <g id="line2d_2">
      <path d="M 171.229091 307.584 
L 171.229091 41.472 
" clip-path="url(#ped7fb31d81)" style="fill: none; stroke: #cccccc; stroke-width: 0.8; stroke-linecap: round"/>
     </g>
     <g id="text_2">
      <!-- 4 -->
      <g style="fill: #262626" transform="translate(168.448622 323.057437) scale(0.1 -0.1)">
       <defs>
        <path id="Helvetica-34" d="M 2116 1584 
L 2116 3613 
L 681 1584 
L 2116 1584 
z
M 2125 0 
L 2125 1094 
L 163 1094 
L 163 1644 
L 2213 4488 
L 2688 4488 
L 2688 1584 
L 3347 1584 
L 3347 1094 
L 2688 1094 
L 2688 0 
L 2125 0 
z
" transform="scale(0.015625)"/>
       </defs>
       <use xlink:href="#Helvetica-34"/>
      </g>
     </g>
    </g>
    <g id="xtick_3">
     <g id="line2d_3">
      <path d="M 236.16 307.584 
L 236.16 41.472 
" clip-path="url(#ped7fb31d81)" style="fill: none; stroke: #cccccc; stroke-width: 0.8; stroke-linecap: round"/>
     </g>
     <g id="text_3">
      <!-- 6 -->
      <g style="fill: #262626" transform="translate(233.379531 323.057437) scale(0.1 -0.1)">
       <defs>
        <path id="Helvetica-36" d="M 1872 4494 
Q 2622 4494 2917 4105 
Q 3213 3716 3213 3303 
L 2656 3303 
Q 2606 3569 2497 3719 
Q 2294 4000 1881 4000 
Q 1409 4000 1131 3564 
Q 853 3128 822 2316 
Q 1016 2600 1309 2741 
Q 1578 2866 1909 2866 
Q 2472 2866 2890 2506 
Q 3309 2147 3309 1434 
Q 3309 825 2912 354 
Q 2516 -116 1781 -116 
Q 1153 -116 697 361 
Q 241 838 241 1966 
Q 241 2800 444 3381 
Q 834 4494 1872 4494 
z
M 1831 384 
Q 2275 384 2495 682 
Q 2716 981 2716 1388 
Q 2716 1731 2519 2042 
Q 2322 2353 1803 2353 
Q 1441 2353 1167 2112 
Q 894 1872 894 1388 
Q 894 963 1142 673 
Q 1391 384 1831 384 
z
" transform="scale(0.015625)"/>
       </defs>
       <use xlink:href="#Helvetica-36"/>
      </g>
     </g>
    </g>
    <g id="xtick_4">
     <g id="line2d_4">
      <path d="M 301.090909 307.584 
L 301.090909 41.472 
" clip-path="url(#ped7fb31d81)" style="fill: none; stroke: #cccccc; stroke-width: 0.8; stroke-linecap: round"/>
     </g>
     <g id="text_4">
      <!-- 8 -->
      <g style="fill: #262626" transform="translate(298.31044 323.057437) scale(0.1 -0.1)">
       <defs>
        <path id="Helvetica-38" d="M 1741 2600 
Q 2113 2600 2322 2808 
Q 2531 3016 2531 3303 
Q 2531 3553 2331 3762 
Q 2131 3972 1722 3972 
Q 1316 3972 1134 3762 
Q 953 3553 953 3272 
Q 953 2956 1187 2778 
Q 1422 2600 1741 2600 
z
M 1775 384 
Q 2166 384 2423 595 
Q 2681 806 2681 1225 
Q 2681 1659 2415 1884 
Q 2150 2109 1734 2109 
Q 1331 2109 1076 1879 
Q 822 1650 822 1244 
Q 822 894 1055 639 
Q 1288 384 1775 384 
z
M 975 2384 
Q 741 2484 609 2619 
Q 363 2869 363 3269 
Q 363 3769 725 4128 
Q 1088 4488 1753 4488 
Q 2397 4488 2762 4148 
Q 3128 3809 3128 3356 
Q 3128 2938 2916 2678 
Q 2797 2531 2547 2391 
Q 2825 2263 2984 2097 
Q 3281 1784 3281 1284 
Q 3281 694 2884 283 
Q 2488 -128 1763 -128 
Q 1109 -128 657 226 
Q 206 581 206 1256 
Q 206 1653 400 1942 
Q 594 2231 975 2384 
z
" transform="scale(0.015625)"/>
       </defs>
       <use xlink:href="#Helvetica-38"/>
      </g>
     </g>
    </g>
    <g id="xtick_5">
     <g id="line2d_5">
      <path d="M 366.021818 307.584 
L 366.021818 41.472 
" clip-path="url(#ped7fb31d81)" style="fill: none; stroke: #cccccc; stroke-width: 0.8; stroke-linecap: round"/>
     </g>
     <g id="text_5">
      <!-- 10 -->
      <g style="fill: #262626" transform="translate(360.460881 323.057437) scale(0.1 -0.1)">
       <defs>
        <path id="Helvetica-31" d="M 613 3169 
L 613 3600 
Q 1222 3659 1462 3798 
Q 1703 3938 1822 4456 
L 2266 4456 
L 2266 0 
L 1666 0 
L 1666 3169 
L 613 3169 
z
" transform="scale(0.015625)"/>
        <path id="Helvetica-30" d="M 1731 4475 
Q 2600 4475 2988 3759 
Q 3288 3206 3288 2244 
Q 3288 1331 3016 734 
Q 2622 -122 1728 -122 
Q 922 -122 528 578 
Q 200 1163 200 2147 
Q 200 2909 397 3456 
Q 766 4475 1731 4475 
z
M 1725 391 
Q 2163 391 2422 778 
Q 2681 1166 2681 2222 
Q 2681 2984 2493 3476 
Q 2306 3969 1766 3969 
Q 1269 3969 1039 3501 
Q 809 3034 809 2125 
Q 809 1441 956 1025 
Q 1181 391 1725 391 
z
" transform="scale(0.015625)"/>
       </defs>
       <use xlink:href="#Helvetica-31"/>
       <use xlink:href="#Helvetica-30" x="55.615234"/>
      </g>
     </g>
    </g>
    <g id="text_6">
     <!-- gpcr selectivity -->
     <g style="fill: #262626" transform="translate(203.373281 336.31525) scale(0.1 -0.1)">
      <defs>
       <path id="Helvetica-67" d="M 1594 3406 
Q 1988 3406 2281 3213 
Q 2441 3103 2606 2894 
L 2606 3316 
L 3125 3316 
L 3125 272 
Q 3125 -366 2938 -734 
Q 2588 -1416 1616 -1416 
Q 1075 -1416 706 -1173 
Q 338 -931 294 -416 
L 866 -416 
Q 906 -641 1028 -763 
Q 1219 -950 1628 -950 
Q 2275 -950 2475 -494 
Q 2594 -225 2584 466 
Q 2416 209 2178 84 
Q 1941 -41 1550 -41 
Q 1006 -41 598 345 
Q 191 731 191 1622 
Q 191 2463 602 2934 
Q 1013 3406 1594 3406 
z
M 2606 1688 
Q 2606 2309 2350 2609 
Q 2094 2909 1697 2909 
Q 1103 2909 884 2353 
Q 769 2056 769 1575 
Q 769 1009 998 714 
Q 1228 419 1616 419 
Q 2222 419 2469 966 
Q 2606 1275 2606 1688 
z
M 1659 3428 
L 1659 3428 
z
" transform="scale(0.015625)"/>
       <path id="Helvetica-70" d="M 1825 378 
Q 2219 378 2480 708 
Q 2741 1038 2741 1694 
Q 2741 2094 2625 2381 
Q 2406 2934 1825 2934 
Q 1241 2934 1025 2350 
Q 909 2038 909 1556 
Q 909 1169 1025 897 
Q 1244 378 1825 378 
z
M 369 3331 
L 916 3331 
L 916 2888 
Q 1084 3116 1284 3241 
Q 1569 3428 1953 3428 
Q 2522 3428 2919 2992 
Q 3316 2556 3316 1747 
Q 3316 653 2744 184 
Q 2381 -113 1900 -113 
Q 1522 -113 1266 53 
Q 1116 147 931 375 
L 931 -1334 
L 369 -1334 
L 369 3331 
z
" transform="scale(0.015625)"/>
       <path id="Helvetica-63" d="M 1703 3444 
Q 2269 3444 2623 3169 
Q 2978 2894 3050 2222 
L 2503 2222 
Q 2453 2531 2275 2736 
Q 2097 2941 1703 2941 
Q 1166 2941 934 2416 
Q 784 2075 784 1575 
Q 784 1072 996 728 
Q 1209 384 1666 384 
Q 2016 384 2220 598 
Q 2425 813 2503 1184 
L 3050 1184 
Q 2956 519 2581 211 
Q 2206 -97 1622 -97 
Q 966 -97 575 383 
Q 184 863 184 1581 
Q 184 2463 612 2953 
Q 1041 3444 1703 3444 
z
M 1616 3428 
L 1616 3428 
z
" transform="scale(0.015625)"/>
       <path id="Helvetica-72" d="M 428 3347 
L 963 3347 
L 963 2769 
Q 1028 2938 1284 3180 
Q 1541 3422 1875 3422 
Q 1891 3422 1928 3419 
Q 1966 3416 2056 3406 
L 2056 2813 
Q 2006 2822 1964 2825 
Q 1922 2828 1872 2828 
Q 1447 2828 1219 2554 
Q 991 2281 991 1925 
L 991 0 
L 428 0 
L 428 3347 
z
" transform="scale(0.015625)"/>
       <path id="Helvetica-20" transform="scale(0.015625)"/>
       <path id="Helvetica-73" d="M 747 1050 
Q 772 769 888 619 
Q 1100 347 1625 347 
Q 1938 347 2175 483 
Q 2413 619 2413 903 
Q 2413 1119 2222 1231 
Q 2100 1300 1741 1391 
L 1294 1503 
Q 866 1609 663 1741 
Q 300 1969 300 2372 
Q 300 2847 642 3140 
Q 984 3434 1563 3434 
Q 2319 3434 2653 2991 
Q 2863 2709 2856 2384 
L 2325 2384 
Q 2309 2575 2191 2731 
Q 1997 2953 1519 2953 
Q 1200 2953 1036 2831 
Q 872 2709 872 2509 
Q 872 2291 1088 2159 
Q 1213 2081 1456 2022 
L 1828 1931 
Q 2434 1784 2641 1647 
Q 2969 1431 2969 969 
Q 2969 522 2630 197 
Q 2291 -128 1597 -128 
Q 850 -128 539 211 
Q 228 550 206 1050 
L 747 1050 
z
M 1578 3428 
L 1578 3428 
z
" transform="scale(0.015625)"/>
       <path id="Helvetica-65" d="M 1806 3422 
Q 2163 3422 2497 3255 
Q 2831 3088 3006 2822 
Q 3175 2569 3231 2231 
Q 3281 2000 3281 1494 
L 828 1494 
Q 844 984 1069 676 
Q 1294 369 1766 369 
Q 2206 369 2469 659 
Q 2619 828 2681 1050 
L 3234 1050 
Q 3213 866 3089 639 
Q 2966 413 2813 269 
Q 2556 19 2178 -69 
Q 1975 -119 1719 -119 
Q 1094 -119 659 336 
Q 225 791 225 1609 
Q 225 2416 662 2919 
Q 1100 3422 1806 3422 
z
M 2703 1941 
Q 2669 2306 2544 2525 
Q 2313 2931 1772 2931 
Q 1384 2931 1121 2651 
Q 859 2372 844 1941 
L 2703 1941 
z
M 1753 3428 
L 1753 3428 
z
" transform="scale(0.015625)"/>
       <path id="Helvetica-6c" d="M 428 4591 
L 991 4591 
L 991 0 
L 428 0 
L 428 4591 
z
" transform="scale(0.015625)"/>
       <path id="Helvetica-74" d="M 525 4281 
L 1094 4281 
L 1094 3347 
L 1628 3347 
L 1628 2888 
L 1094 2888 
L 1094 703 
Q 1094 528 1213 469 
Q 1278 434 1431 434 
Q 1472 434 1519 436 
Q 1566 438 1628 444 
L 1628 0 
Q 1531 -28 1426 -40 
Q 1322 -53 1200 -53 
Q 806 -53 665 148 
Q 525 350 525 672 
L 525 2888 
L 72 2888 
L 72 3347 
L 525 3347 
L 525 4281 
z
" transform="scale(0.015625)"/>
       <path id="Helvetica-69" d="M 413 3331 
L 984 3331 
L 984 0 
L 413 0 
L 413 3331 
z
M 413 4591 
L 984 4591 
L 984 3953 
L 413 3953 
L 413 4591 
z
" transform="scale(0.015625)"/>
       <path id="Helvetica-76" d="M 688 3347 
L 1581 622 
L 2516 3347 
L 3131 3347 
L 1869 0 
L 1269 0 
L 34 3347 
L 688 3347 
z
" transform="scale(0.015625)"/>
       <path id="Helvetica-79" d="M 2503 3347 
L 3125 3347 
Q 3006 3025 2597 1878 
Q 2291 1016 2084 472 
Q 1597 -809 1397 -1090 
Q 1197 -1372 709 -1372 
Q 591 -1372 527 -1362 
Q 463 -1353 369 -1328 
L 369 -816 
Q 516 -856 581 -865 
Q 647 -875 697 -875 
Q 853 -875 926 -823 
Q 1000 -772 1050 -697 
Q 1066 -672 1162 -440 
Q 1259 -209 1303 -97 
L 66 3347 
L 703 3347 
L 1600 622 
L 2503 3347 
z
M 1597 3428 
L 1597 3428 
z
" transform="scale(0.015625)"/>
      </defs>
      <use xlink:href="#Helvetica-67"/>
      <use xlink:href="#Helvetica-70" x="55.615234"/>
      <use xlink:href="#Helvetica-63" x="111.230469"/>
      <use xlink:href="#Helvetica-72" x="161.230469"/>
      <use xlink:href="#Helvetica-20" x="194.53125"/>
      <use xlink:href="#Helvetica-73" x="222.314453"/>
      <use xlink:href="#Helvetica-65" x="272.314453"/>
      <use xlink:href="#Helvetica-6c" x="327.929688"/>
      <use xlink:href="#Helvetica-65" x="350.146484"/>
      <use xlink:href="#Helvetica-63" x="405.761719"/>
      <use xlink:href="#Helvetica-74" x="455.761719"/>
      <use xlink:href="#Helvetica-69" x="483.544922"/>
      <use xlink:href="#Helvetica-76" x="505.761719"/>
      <use xlink:href="#Helvetica-69" x="555.761719"/>
      <use xlink:href="#Helvetica-74" x="577.978516"/>
      <use xlink:href="#Helvetica-79" x="605.761719"/>
     </g>
    </g>
   </g>
   <g id="matplotlib.axis_2">
    <g id="ytick_1">
     <g id="line2d_6">
      <path d="M 57.6 306.540747 
L 414.72 306.540747 
" clip-path="url(#ped7fb31d81)" style="fill: none; stroke: #cccccc; stroke-width: 0.8; stroke-linecap: round"/>
     </g>
     <g id="text_7">
      <!-- 0 -->
      <g style="fill: #262626" transform="translate(43.739062 310.127466) scale(0.1 -0.1)">
       <use xlink:href="#Helvetica-30"/>
      </g>
     </g>
    </g>
    <g id="ytick_2">
     <g id="line2d_7">
      <path d="M 57.6 283.643011 
L 414.72 283.643011 
" clip-path="url(#ped7fb31d81)" style="fill: none; stroke: #cccccc; stroke-width: 0.8; stroke-linecap: round"/>
     </g>
     <g id="text_8">
      <!-- 1 -->
      <g style="fill: #262626" transform="translate(43.739062 287.229729) scale(0.1 -0.1)">
       <use xlink:href="#Helvetica-31"/>
      </g>
     </g>
    </g>
    <g id="ytick_3">
     <g id="line2d_8">
      <path d="M 57.6 260.745274 
L 414.72 260.745274 
" clip-path="url(#ped7fb31d81)" style="fill: none; stroke: #cccccc; stroke-width: 0.8; stroke-linecap: round"/>
     </g>
     <g id="text_9">
      <!-- 2 -->
      <g style="fill: #262626" transform="translate(43.739062 264.331993) scale(0.1 -0.1)">
       <use xlink:href="#Helvetica-32"/>
      </g>
     </g>
    </g>
    <g id="ytick_4">
     <g id="line2d_9">
      <path d="M 57.6 237.847538 
L 414.72 237.847538 
" clip-path="url(#ped7fb31d81)" style="fill: none; stroke: #cccccc; stroke-width: 0.8; stroke-linecap: round"/>
     </g>
     <g id="text_10">
      <!-- 3 -->
      <g style="fill: #262626" transform="translate(43.739062 241.434257) scale(0.1 -0.1)">
       <defs>
        <path id="Helvetica-33" d="M 1663 -122 
Q 869 -122 511 314 
Q 153 750 153 1375 
L 741 1375 
Q 778 941 903 744 
Q 1122 391 1694 391 
Q 2138 391 2406 628 
Q 2675 866 2675 1241 
Q 2675 1703 2392 1887 
Q 2109 2072 1606 2072 
Q 1550 2072 1492 2070 
Q 1434 2069 1375 2066 
L 1375 2563 
Q 1463 2553 1522 2550 
Q 1581 2547 1650 2547 
Q 1966 2547 2169 2647 
Q 2525 2822 2525 3272 
Q 2525 3606 2287 3787 
Q 2050 3969 1734 3969 
Q 1172 3969 956 3594 
Q 838 3388 822 3006 
L 266 3006 
Q 266 3506 466 3856 
Q 809 4481 1675 4481 
Q 2359 4481 2734 4176 
Q 3109 3872 3109 3294 
Q 3109 2881 2888 2625 
Q 2750 2466 2531 2375 
Q 2884 2278 3082 2001 
Q 3281 1725 3281 1325 
Q 3281 684 2859 281 
Q 2438 -122 1663 -122 
z
" transform="scale(0.015625)"/>
       </defs>
       <use xlink:href="#Helvetica-33"/>
      </g>
     </g>
    </g>
    <g id="ytick_5">
     <g id="line2d_10">
      <path d="M 57.6 214.949802 
L 414.72 214.949802 
" clip-path="url(#ped7fb31d81)" style="fill: none; stroke: #cccccc; stroke-width: 0.8; stroke-linecap: round"/>
     </g>
     <g id="text_11">
      <!-- 4 -->
      <g style="fill: #262626" transform="translate(43.739062 218.53652) scale(0.1 -0.1)">
       <use xlink:href="#Helvetica-34"/>
      </g>
     </g>
    </g>
    <g id="ytick_6">
     <g id="line2d_11">
      <path d="M 57.6 192.052065 
L 414.72 192.052065 
" clip-path="url(#ped7fb31d81)" style="fill: none; stroke: #cccccc; stroke-width: 0.8; stroke-linecap: round"/>
     </g>
     <g id="text_12">
      <!-- 5 -->
      <g style="fill: #262626" transform="translate(43.739062 195.638784) scale(0.1 -0.1)">
       <defs>
        <path id="Helvetica-35" d="M 791 1141 
Q 847 659 1238 475 
Q 1438 381 1700 381 
Q 2200 381 2440 700 
Q 2681 1019 2681 1406 
Q 2681 1875 2395 2131 
Q 2109 2388 1709 2388 
Q 1419 2388 1211 2275 
Q 1003 2163 856 1963 
L 369 1991 
L 709 4400 
L 3034 4400 
L 3034 3856 
L 1131 3856 
L 941 2613 
Q 1097 2731 1238 2791 
Q 1488 2894 1816 2894 
Q 2431 2894 2859 2497 
Q 3288 2100 3288 1491 
Q 3288 856 2895 371 
Q 2503 -113 1644 -113 
Q 1097 -113 676 195 
Q 256 503 206 1141 
L 791 1141 
z
" transform="scale(0.015625)"/>
       </defs>
       <use xlink:href="#Helvetica-35"/>
      </g>
     </g>
    </g>
    <g id="ytick_7">
     <g id="line2d_12">
      <path d="M 57.6 169.154329 
L 414.72 169.154329 
" clip-path="url(#ped7fb31d81)" style="fill: none; stroke: #cccccc; stroke-width: 0.8; stroke-linecap: round"/>
     </g>
     <g id="text_13">
      <!-- 6 -->
      <g style="fill: #262626" transform="translate(43.739062 172.741048) scale(0.1 -0.1)">
       <use xlink:href="#Helvetica-36"/>
      </g>
     </g>
    </g>
    <g id="ytick_8">
     <g id="line2d_13">
      <path d="M 57.6 146.256592 
L 414.72 146.256592 
" clip-path="url(#ped7fb31d81)" style="fill: none; stroke: #cccccc; stroke-width: 0.8; stroke-linecap: round"/>
     </g>
     <g id="text_14">
      <!-- 7 -->
      <g style="fill: #262626" transform="translate(43.739062 149.843311) scale(0.1 -0.1)">
       <defs>
        <path id="Helvetica-37" d="M 3347 4400 
L 3347 3909 
Q 3131 3700 2773 3181 
Q 2416 2663 2141 2063 
Q 1869 1478 1728 997 
Q 1638 688 1494 0 
L 872 0 
Q 1084 1281 1809 2550 
Q 2238 3294 2709 3834 
L 234 3834 
L 234 4400 
L 3347 4400 
z
" transform="scale(0.015625)"/>
       </defs>
       <use xlink:href="#Helvetica-37"/>
      </g>
     </g>
    </g>
    <g id="ytick_9">
     <g id="line2d_14">
      <path d="M 57.6 123.358856 
L 414.72 123.358856 
" clip-path="url(#ped7fb31d81)" style="fill: none; stroke: #cccccc; stroke-width: 0.8; stroke-linecap: round"/>
     </g>
     <g id="text_15">
      <!-- 8 -->
      <g style="fill: #262626" transform="translate(43.739062 126.945575) scale(0.1 -0.1)">
       <use xlink:href="#Helvetica-38"/>
      </g>
     </g>
    </g>
    <g id="ytick_10">
     <g id="line2d_15">
      <path d="M 57.6 100.46112 
L 414.72 100.46112 
" clip-path="url(#ped7fb31d81)" style="fill: none; stroke: #cccccc; stroke-width: 0.8; stroke-linecap: round"/>
     </g>
     <g id="text_16">
      <!-- 9 -->
      <g style="fill: #262626" transform="translate(43.739062 104.047838) scale(0.1 -0.1)">
       <defs>
        <path id="Helvetica-39" d="M 850 1081 
Q 875 616 1209 438 
Q 1381 344 1597 344 
Q 2000 344 2284 680 
Q 2569 1016 2688 2044 
Q 2500 1747 2223 1626 
Q 1947 1506 1628 1506 
Q 981 1506 604 1909 
Q 228 2313 228 2947 
Q 228 3556 600 4018 
Q 972 4481 1697 4481 
Q 2675 4481 3047 3600 
Q 3253 3116 3253 2388 
Q 3253 1566 3006 931 
Q 2597 -125 1619 -125 
Q 963 -125 622 219 
Q 281 563 281 1081 
L 850 1081 
z
M 1703 2000 
Q 2038 2000 2314 2220 
Q 2591 2441 2591 2991 
Q 2591 3484 2342 3726 
Q 2094 3969 1709 3969 
Q 1297 3969 1055 3692 
Q 813 3416 813 2953 
Q 813 2516 1025 2258 
Q 1238 2000 1703 2000 
z
" transform="scale(0.015625)"/>
       </defs>
       <use xlink:href="#Helvetica-39"/>
      </g>
     </g>
    </g>
    <g id="ytick_11">
     <g id="line2d_16">
      <path d="M 57.6 77.563383 
L 414.72 77.563383 
" clip-path="url(#ped7fb31d81)" style="fill: none; stroke: #cccccc; stroke-width: 0.8; stroke-linecap: round"/>
     </g>
     <g id="text_17">
      <!-- 10 -->
      <g style="fill: #262626" transform="translate(38.178125 81.150102) scale(0.1 -0.1)">
       <use xlink:href="#Helvetica-31"/>
       <use xlink:href="#Helvetica-30" x="55.615234"/>
      </g>
     </g>
    </g>
    <g id="ytick_12">
     <g id="line2d_17">
      <path d="M 57.6 54.665647 
L 414.72 54.665647 
" clip-path="url(#ped7fb31d81)" style="fill: none; stroke: #cccccc; stroke-width: 0.8; stroke-linecap: round"/>
     </g>
     <g id="text_18">
      <!-- 11 -->
      <g style="fill: #262626" transform="translate(38.178125 58.252366) scale(0.1 -0.1)">
       <use xlink:href="#Helvetica-31"/>
       <use xlink:href="#Helvetica-31" x="55.615234"/>
      </g>
     </g>
    </g>
    <g id="text_19">
     <!-- Rank -->
     <g style="fill: #262626" transform="translate(32.09375 186.199875) rotate(-90) scale(0.1 -0.1)">
      <defs>
       <path id="Helvetica-52" d="M 2622 2488 
Q 3059 2488 3314 2663 
Q 3569 2838 3569 3294 
Q 3569 3784 3213 3963 
Q 3022 4056 2703 4056 
L 1184 4056 
L 1184 2488 
L 2622 2488 
z
M 563 4591 
L 2688 4591 
Q 3213 4591 3553 4438 
Q 4200 4144 4200 3353 
Q 4200 2941 4029 2678 
Q 3859 2416 3553 2256 
Q 3822 2147 3958 1969 
Q 4094 1791 4109 1391 
L 4131 775 
Q 4141 513 4175 384 
Q 4231 166 4375 103 
L 4375 0 
L 3613 0 
Q 3581 59 3562 153 
Q 3544 247 3531 516 
L 3494 1281 
Q 3472 1731 3159 1884 
Q 2981 1969 2600 1969 
L 1184 1969 
L 1184 0 
L 563 0 
L 563 4591 
z
" transform="scale(0.015625)"/>
       <path id="Helvetica-61" d="M 844 891 
Q 844 647 1022 506 
Q 1200 366 1444 366 
Q 1741 366 2019 503 
Q 2488 731 2488 1250 
L 2488 1703 
Q 2384 1638 2221 1594 
Q 2059 1550 1903 1531 
L 1563 1488 
Q 1256 1447 1103 1359 
Q 844 1213 844 891 
z
M 2206 2028 
Q 2400 2053 2466 2191 
Q 2503 2266 2503 2406 
Q 2503 2694 2298 2823 
Q 2094 2953 1713 2953 
Q 1272 2953 1088 2716 
Q 984 2584 953 2325 
L 428 2325 
Q 444 2944 830 3186 
Q 1216 3428 1725 3428 
Q 2316 3428 2684 3203 
Q 3050 2978 3050 2503 
L 3050 575 
Q 3050 488 3086 434 
Q 3122 381 3238 381 
Q 3275 381 3322 386 
Q 3369 391 3422 400 
L 3422 -16 
Q 3291 -53 3222 -62 
Q 3153 -72 3034 -72 
Q 2744 -72 2613 134 
Q 2544 244 2516 444 
Q 2344 219 2022 53 
Q 1700 -113 1313 -113 
Q 847 -113 551 170 
Q 256 453 256 878 
Q 256 1344 547 1600 
Q 838 1856 1309 1916 
L 2206 2028 
z
M 1741 3428 
L 1741 3428 
z
" transform="scale(0.015625)"/>
       <path id="Helvetica-6e" d="M 413 3347 
L 947 3347 
L 947 2872 
Q 1184 3166 1450 3294 
Q 1716 3422 2041 3422 
Q 2753 3422 3003 2925 
Q 3141 2653 3141 2147 
L 3141 0 
L 2569 0 
L 2569 2109 
Q 2569 2416 2478 2603 
Q 2328 2916 1934 2916 
Q 1734 2916 1606 2875 
Q 1375 2806 1200 2600 
Q 1059 2434 1017 2257 
Q 975 2081 975 1753 
L 975 0 
L 413 0 
L 413 3347 
z
M 1734 3428 
L 1734 3428 
z
" transform="scale(0.015625)"/>
       <path id="Helvetica-6b" d="M 400 4591 
L 941 4591 
L 941 1925 
L 2384 3347 
L 3103 3347 
L 1822 2094 
L 3175 0 
L 2456 0 
L 1413 1688 
L 941 1256 
L 941 0 
L 400 0 
L 400 4591 
z
" transform="scale(0.015625)"/>
      </defs>
      <use xlink:href="#Helvetica-52"/>
      <use xlink:href="#Helvetica-61" x="72.216797"/>
      <use xlink:href="#Helvetica-6e" x="127.832031"/>
      <use xlink:href="#Helvetica-6b" x="183.447266"/>
     </g>
    </g>
   </g>
   <g id="PathCollection_1">
    <defs>
     <path id="m4695b9588a" d="M 0 2.4 
C 0.636487 2.4 1.246992 2.147121 1.697056 1.697056 
C 2.147121 1.246992 2.4 0.636487 2.4 0 
C 2.4 -0.636487 2.147121 -1.246992 1.697056 -1.697056 
C 1.246992 -2.147121 0.636487 -2.4 0 -2.4 
C -0.636487 -2.4 -1.246992 -2.147121 -1.697056 -1.697056 
C -2.147121 -1.246992 -2.4 -0.636487 -2.4 0 
C -2.4 0.636487 -2.147121 1.246992 -1.697056 1.697056 
C -1.246992 2.147121 -0.636487 2.4 0 2.4 
z
" style="stroke: #1f77b4; stroke-opacity: 0.5"/>
    </defs>
    <g clip-path="url(#ped7fb31d81)">
     <use xlink:href="#m4695b9588a" x="171.229091" y="287.968137" style="fill: #1f77b4; fill-opacity: 0.5; stroke: #1f77b4; stroke-opacity: 0.5"/>
     <use xlink:href="#m4695b9588a" x="171.229091" y="239.061102" style="fill: #1f77b4; fill-opacity: 0.5; stroke: #1f77b4; stroke-opacity: 0.5"/>
     <use xlink:href="#m4695b9588a" x="171.229091" y="279.370976" style="fill: #1f77b4; fill-opacity: 0.5; stroke: #1f77b4; stroke-opacity: 0.5"/>
     <use xlink:href="#m4695b9588a" x="333.556364" y="282.681711" style="fill: #1f77b4; fill-opacity: 0.5; stroke: #1f77b4; stroke-opacity: 0.5"/>
     <use xlink:href="#m4695b9588a" x="106.298182" y="256.710949" style="fill: #1f77b4; fill-opacity: 0.5; stroke: #1f77b4; stroke-opacity: 0.5"/>
     <use xlink:href="#m4695b9588a" x="138.763636" y="280.182033" style="fill: #1f77b4; fill-opacity: 0.5; stroke: #1f77b4; stroke-opacity: 0.5"/>
     <use xlink:href="#m4695b9588a" x="138.763636" y="263.926149" style="fill: #1f77b4; fill-opacity: 0.5; stroke: #1f77b4; stroke-opacity: 0.5"/>
     <use xlink:href="#m4695b9588a" x="236.16" y="284.636691" style="fill: #1f77b4; fill-opacity: 0.5; stroke: #1f77b4; stroke-opacity: 0.5"/>
     <use xlink:href="#m4695b9588a" x="106.298182" y="286.056955" style="fill: #1f77b4; fill-opacity: 0.5; stroke: #1f77b4; stroke-opacity: 0.5"/>
     <use xlink:href="#m4695b9588a" x="203.694545" y="283.319828" style="fill: #1f77b4; fill-opacity: 0.5; stroke: #1f77b4; stroke-opacity: 0.5"/>
     <use xlink:href="#m4695b9588a" x="138.763636" y="241.379585" style="fill: #1f77b4; fill-opacity: 0.5; stroke: #1f77b4; stroke-opacity: 0.5"/>
     <use xlink:href="#m4695b9588a" x="171.229091" y="235.776414" style="fill: #1f77b4; fill-opacity: 0.5; stroke: #1f77b4; stroke-opacity: 0.5"/>
     <use xlink:href="#m4695b9588a" x="106.298182" y="282.550284" style="fill: #1f77b4; fill-opacity: 0.5; stroke: #1f77b4; stroke-opacity: 0.5"/>
     <use xlink:href="#m4695b9588a" x="73.832727" y="256.815866" style="fill: #1f77b4; fill-opacity: 0.5; stroke: #1f77b4; stroke-opacity: 0.5"/>
     <use xlink:href="#m4695b9588a" x="268.625455" y="285.184596" style="fill: #1f77b4; fill-opacity: 0.5; stroke: #1f77b4; stroke-opacity: 0.5"/>
     <use xlink:href="#m4695b9588a" x="138.763636" y="256.200255" style="fill: #1f77b4; fill-opacity: 0.5; stroke: #1f77b4; stroke-opacity: 0.5"/>
     <use xlink:href="#m4695b9588a" x="301.090909" y="190.160704" style="fill: #1f77b4; fill-opacity: 0.5; stroke: #1f77b4; stroke-opacity: 0.5"/>
     <use xlink:href="#m4695b9588a" x="366.021818" y="284.731209" style="fill: #1f77b4; fill-opacity: 0.5; stroke: #1f77b4; stroke-opacity: 0.5"/>
     <use xlink:href="#m4695b9588a" x="138.763636" y="280.009013" style="fill: #1f77b4; fill-opacity: 0.5; stroke: #1f77b4; stroke-opacity: 0.5"/>
     <use xlink:href="#m4695b9588a" x="138.763636" y="191.105164" style="fill: #1f77b4; fill-opacity: 0.5; stroke: #1f77b4; stroke-opacity: 0.5"/>
     <use xlink:href="#m4695b9588a" x="171.229091" y="260.213685" style="fill: #1f77b4; fill-opacity: 0.5; stroke: #1f77b4; stroke-opacity: 0.5"/>
     <use xlink:href="#m4695b9588a" x="138.763636" y="281.601053" style="fill: #1f77b4; fill-opacity: 0.5; stroke: #1f77b4; stroke-opacity: 0.5"/>
     <use xlink:href="#m4695b9588a" x="398.487273" y="284.991487" style="fill: #1f77b4; fill-opacity: 0.5; stroke: #1f77b4; stroke-opacity: 0.5"/>
     <use xlink:href="#m4695b9588a" x="106.298182" y="216.011605" style="fill: #1f77b4; fill-opacity: 0.5; stroke: #1f77b4; stroke-opacity: 0.5"/>
     <use xlink:href="#m4695b9588a" x="73.832727" y="283.837408" style="fill: #1f77b4; fill-opacity: 0.5; stroke: #1f77b4; stroke-opacity: 0.5"/>
     <use xlink:href="#m4695b9588a" x="106.298182" y="258.865234" style="fill: #1f77b4; fill-opacity: 0.5; stroke: #1f77b4; stroke-opacity: 0.5"/>
     <use xlink:href="#m4695b9588a" x="106.298182" y="256.371074" style="fill: #1f77b4; fill-opacity: 0.5; stroke: #1f77b4; stroke-opacity: 0.5"/>
     <use xlink:href="#m4695b9588a" x="138.763636" y="286.01315" style="fill: #1f77b4; fill-opacity: 0.5; stroke: #1f77b4; stroke-opacity: 0.5"/>
     <use xlink:href="#m4695b9588a" x="171.229091" y="280.664909" style="fill: #1f77b4; fill-opacity: 0.5; stroke: #1f77b4; stroke-opacity: 0.5"/>
     <use xlink:href="#m4695b9588a" x="73.832727" y="279.144506" style="fill: #1f77b4; fill-opacity: 0.5; stroke: #1f77b4; stroke-opacity: 0.5"/>
     <use xlink:href="#m4695b9588a" x="106.298182" y="281.903199" style="fill: #1f77b4; fill-opacity: 0.5; stroke: #1f77b4; stroke-opacity: 0.5"/>
     <use xlink:href="#m4695b9588a" x="73.832727" y="239.158059" style="fill: #1f77b4; fill-opacity: 0.5; stroke: #1f77b4; stroke-opacity: 0.5"/>
     <use xlink:href="#m4695b9588a" x="138.763636" y="284.1057" style="fill: #1f77b4; fill-opacity: 0.5; stroke: #1f77b4; stroke-opacity: 0.5"/>
     <use xlink:href="#m4695b9588a" x="73.832727" y="147.93217" style="fill: #1f77b4; fill-opacity: 0.5; stroke: #1f77b4; stroke-opacity: 0.5"/>
     <use xlink:href="#m4695b9588a" x="73.832727" y="286.89024" style="fill: #1f77b4; fill-opacity: 0.5; stroke: #1f77b4; stroke-opacity: 0.5"/>
     <use xlink:href="#m4695b9588a" x="106.298182" y="287.237491" style="fill: #1f77b4; fill-opacity: 0.5; stroke: #1f77b4; stroke-opacity: 0.5"/>
     <use xlink:href="#m4695b9588a" x="73.832727" y="265.160502" style="fill: #1f77b4; fill-opacity: 0.5; stroke: #1f77b4; stroke-opacity: 0.5"/>
     <use xlink:href="#m4695b9588a" x="106.298182" y="279.305241" style="fill: #1f77b4; fill-opacity: 0.5; stroke: #1f77b4; stroke-opacity: 0.5"/>
     <use xlink:href="#m4695b9588a" x="106.298182" y="281.482645" style="fill: #1f77b4; fill-opacity: 0.5; stroke: #1f77b4; stroke-opacity: 0.5"/>
     <use xlink:href="#m4695b9588a" x="73.832727" y="194.92595" style="fill: #1f77b4; fill-opacity: 0.5; stroke: #1f77b4; stroke-opacity: 0.5"/>
     <use xlink:href="#m4695b9588a" x="171.229091" y="285.272591" style="fill: #1f77b4; fill-opacity: 0.5; stroke: #1f77b4; stroke-opacity: 0.5"/>
     <use xlink:href="#m4695b9588a" x="73.832727" y="262.190976" style="fill: #1f77b4; fill-opacity: 0.5; stroke: #1f77b4; stroke-opacity: 0.5"/>
     <use xlink:href="#m4695b9588a" x="73.832727" y="53.568" style="fill: #1f77b4; fill-opacity: 0.5; stroke: #1f77b4; stroke-opacity: 0.5"/>
     <use xlink:href="#m4695b9588a" x="268.625455" y="282.283771" style="fill: #1f77b4; fill-opacity: 0.5; stroke: #1f77b4; stroke-opacity: 0.5"/>
     <use xlink:href="#m4695b9588a" x="138.763636" y="259.483472" style="fill: #1f77b4; fill-opacity: 0.5; stroke: #1f77b4; stroke-opacity: 0.5"/>
     <use xlink:href="#m4695b9588a" x="171.229091" y="283.724402" style="fill: #1f77b4; fill-opacity: 0.5; stroke: #1f77b4; stroke-opacity: 0.5"/>
     <use xlink:href="#m4695b9588a" x="366.021818" y="261.216989" style="fill: #1f77b4; fill-opacity: 0.5; stroke: #1f77b4; stroke-opacity: 0.5"/>
     <use xlink:href="#m4695b9588a" x="236.16" y="264.111219" style="fill: #1f77b4; fill-opacity: 0.5; stroke: #1f77b4; stroke-opacity: 0.5"/>
     <use xlink:href="#m4695b9588a" x="138.763636" y="287.913568" style="fill: #1f77b4; fill-opacity: 0.5; stroke: #1f77b4; stroke-opacity: 0.5"/>
     <use xlink:href="#m4695b9588a" x="138.763636" y="283.364644" style="fill: #1f77b4; fill-opacity: 0.5; stroke: #1f77b4; stroke-opacity: 0.5"/>
     <use xlink:href="#m4695b9588a" x="73.832727" y="281.581066" style="fill: #1f77b4; fill-opacity: 0.5; stroke: #1f77b4; stroke-opacity: 0.5"/>
     <use xlink:href="#m4695b9588a" x="138.763636" y="284.911265" style="fill: #1f77b4; fill-opacity: 0.5; stroke: #1f77b4; stroke-opacity: 0.5"/>
     <use xlink:href="#m4695b9588a" x="203.694545" y="282.749017" style="fill: #1f77b4; fill-opacity: 0.5; stroke: #1f77b4; stroke-opacity: 0.5"/>
     <use xlink:href="#m4695b9588a" x="106.298182" y="234.909048" style="fill: #1f77b4; fill-opacity: 0.5; stroke: #1f77b4; stroke-opacity: 0.5"/>
     <use xlink:href="#m4695b9588a" x="138.763636" y="283.234444" style="fill: #1f77b4; fill-opacity: 0.5; stroke: #1f77b4; stroke-opacity: 0.5"/>
     <use xlink:href="#m4695b9588a" x="138.763636" y="283.060676" style="fill: #1f77b4; fill-opacity: 0.5; stroke: #1f77b4; stroke-opacity: 0.5"/>
     <use xlink:href="#m4695b9588a" x="171.229091" y="283.623568" style="fill: #1f77b4; fill-opacity: 0.5; stroke: #1f77b4; stroke-opacity: 0.5"/>
     <use xlink:href="#m4695b9588a" x="138.763636" y="286.508642" style="fill: #1f77b4; fill-opacity: 0.5; stroke: #1f77b4; stroke-opacity: 0.5"/>
     <use xlink:href="#m4695b9588a" x="171.229091" y="283.33497" style="fill: #1f77b4; fill-opacity: 0.5; stroke: #1f77b4; stroke-opacity: 0.5"/>
     <use xlink:href="#m4695b9588a" x="73.832727" y="284.914007" style="fill: #1f77b4; fill-opacity: 0.5; stroke: #1f77b4; stroke-opacity: 0.5"/>
     <use xlink:href="#m4695b9588a" x="106.298182" y="257.858932" style="fill: #1f77b4; fill-opacity: 0.5; stroke: #1f77b4; stroke-opacity: 0.5"/>
     <use xlink:href="#m4695b9588a" x="268.625455" y="285.125883" style="fill: #1f77b4; fill-opacity: 0.5; stroke: #1f77b4; stroke-opacity: 0.5"/>
     <use xlink:href="#m4695b9588a" x="333.556364" y="147.012255" style="fill: #1f77b4; fill-opacity: 0.5; stroke: #1f77b4; stroke-opacity: 0.5"/>
     <use xlink:href="#m4695b9588a" x="73.832727" y="143.303102" style="fill: #1f77b4; fill-opacity: 0.5; stroke: #1f77b4; stroke-opacity: 0.5"/>
     <use xlink:href="#m4695b9588a" x="138.763636" y="283.662607" style="fill: #1f77b4; fill-opacity: 0.5; stroke: #1f77b4; stroke-opacity: 0.5"/>
     <use xlink:href="#m4695b9588a" x="203.694545" y="238.184925" style="fill: #1f77b4; fill-opacity: 0.5; stroke: #1f77b4; stroke-opacity: 0.5"/>
     <use xlink:href="#m4695b9588a" x="138.763636" y="281.071552" style="fill: #1f77b4; fill-opacity: 0.5; stroke: #1f77b4; stroke-opacity: 0.5"/>
     <use xlink:href="#m4695b9588a" x="73.832727" y="259.79217" style="fill: #1f77b4; fill-opacity: 0.5; stroke: #1f77b4; stroke-opacity: 0.5"/>
     <use xlink:href="#m4695b9588a" x="106.298182" y="283.323774" style="fill: #1f77b4; fill-opacity: 0.5; stroke: #1f77b4; stroke-opacity: 0.5"/>
     <use xlink:href="#m4695b9588a" x="106.298182" y="282.285705" style="fill: #1f77b4; fill-opacity: 0.5; stroke: #1f77b4; stroke-opacity: 0.5"/>
     <use xlink:href="#m4695b9588a" x="106.298182" y="282.077636" style="fill: #1f77b4; fill-opacity: 0.5; stroke: #1f77b4; stroke-opacity: 0.5"/>
     <use xlink:href="#m4695b9588a" x="138.763636" y="280.900551" style="fill: #1f77b4; fill-opacity: 0.5; stroke: #1f77b4; stroke-opacity: 0.5"/>
     <use xlink:href="#m4695b9588a" x="138.763636" y="279.604497" style="fill: #1f77b4; fill-opacity: 0.5; stroke: #1f77b4; stroke-opacity: 0.5"/>
     <use xlink:href="#m4695b9588a" x="171.229091" y="285.144067" style="fill: #1f77b4; fill-opacity: 0.5; stroke: #1f77b4; stroke-opacity: 0.5"/>
     <use xlink:href="#m4695b9588a" x="301.090909" y="264.113841" style="fill: #1f77b4; fill-opacity: 0.5; stroke: #1f77b4; stroke-opacity: 0.5"/>
     <use xlink:href="#m4695b9588a" x="171.229091" y="195.626472" style="fill: #1f77b4; fill-opacity: 0.5; stroke: #1f77b4; stroke-opacity: 0.5"/>
     <use xlink:href="#m4695b9588a" x="138.763636" y="262.886393" style="fill: #1f77b4; fill-opacity: 0.5; stroke: #1f77b4; stroke-opacity: 0.5"/>
     <use xlink:href="#m4695b9588a" x="73.832727" y="190.258979" style="fill: #1f77b4; fill-opacity: 0.5; stroke: #1f77b4; stroke-opacity: 0.5"/>
     <use xlink:href="#m4695b9588a" x="106.298182" y="282.667651" style="fill: #1f77b4; fill-opacity: 0.5; stroke: #1f77b4; stroke-opacity: 0.5"/>
     <use xlink:href="#m4695b9588a" x="268.625455" y="257.327967" style="fill: #1f77b4; fill-opacity: 0.5; stroke: #1f77b4; stroke-opacity: 0.5"/>
     <use xlink:href="#m4695b9588a" x="106.298182" y="286.549723" style="fill: #1f77b4; fill-opacity: 0.5; stroke: #1f77b4; stroke-opacity: 0.5"/>
     <use xlink:href="#m4695b9588a" x="106.298182" y="279.45942" style="fill: #1f77b4; fill-opacity: 0.5; stroke: #1f77b4; stroke-opacity: 0.5"/>
     <use xlink:href="#m4695b9588a" x="138.763636" y="279.602317" style="fill: #1f77b4; fill-opacity: 0.5; stroke: #1f77b4; stroke-opacity: 0.5"/>
     <use xlink:href="#m4695b9588a" x="73.832727" y="262.000398" style="fill: #1f77b4; fill-opacity: 0.5; stroke: #1f77b4; stroke-opacity: 0.5"/>
     <use xlink:href="#m4695b9588a" x="106.298182" y="282.322364" style="fill: #1f77b4; fill-opacity: 0.5; stroke: #1f77b4; stroke-opacity: 0.5"/>
     <use xlink:href="#m4695b9588a" x="73.832727" y="256.938811" style="fill: #1f77b4; fill-opacity: 0.5; stroke: #1f77b4; stroke-opacity: 0.5"/>
     <use xlink:href="#m4695b9588a" x="301.090909" y="233.340174" style="fill: #1f77b4; fill-opacity: 0.5; stroke: #1f77b4; stroke-opacity: 0.5"/>
     <use xlink:href="#m4695b9588a" x="171.229091" y="193.714756" style="fill: #1f77b4; fill-opacity: 0.5; stroke: #1f77b4; stroke-opacity: 0.5"/>
     <use xlink:href="#m4695b9588a" x="73.832727" y="279.098097" style="fill: #1f77b4; fill-opacity: 0.5; stroke: #1f77b4; stroke-opacity: 0.5"/>
     <use xlink:href="#m4695b9588a" x="236.16" y="213.421531" style="fill: #1f77b4; fill-opacity: 0.5; stroke: #1f77b4; stroke-opacity: 0.5"/>
     <use xlink:href="#m4695b9588a" x="106.298182" y="100.699186" style="fill: #1f77b4; fill-opacity: 0.5; stroke: #1f77b4; stroke-opacity: 0.5"/>
     <use xlink:href="#m4695b9588a" x="138.763636" y="211.380711" style="fill: #1f77b4; fill-opacity: 0.5; stroke: #1f77b4; stroke-opacity: 0.5"/>
     <use xlink:href="#m4695b9588a" x="73.832727" y="283.214078" style="fill: #1f77b4; fill-opacity: 0.5; stroke: #1f77b4; stroke-opacity: 0.5"/>
     <use xlink:href="#m4695b9588a" x="333.556364" y="213.554859" style="fill: #1f77b4; fill-opacity: 0.5; stroke: #1f77b4; stroke-opacity: 0.5"/>
     <use xlink:href="#m4695b9588a" x="301.090909" y="233.521838" style="fill: #1f77b4; fill-opacity: 0.5; stroke: #1f77b4; stroke-opacity: 0.5"/>
     <use xlink:href="#m4695b9588a" x="268.625455" y="257.236338" style="fill: #1f77b4; fill-opacity: 0.5; stroke: #1f77b4; stroke-opacity: 0.5"/>
     <use xlink:href="#m4695b9588a" x="73.832727" y="120.313177" style="fill: #1f77b4; fill-opacity: 0.5; stroke: #1f77b4; stroke-opacity: 0.5"/>
     <use xlink:href="#m4695b9588a" x="138.763636" y="284.485254" style="fill: #1f77b4; fill-opacity: 0.5; stroke: #1f77b4; stroke-opacity: 0.5"/>
     <use xlink:href="#m4695b9588a" x="106.298182" y="283.634284" style="fill: #1f77b4; fill-opacity: 0.5; stroke: #1f77b4; stroke-opacity: 0.5"/>
     <use xlink:href="#m4695b9588a" x="106.298182" y="167.223833" style="fill: #1f77b4; fill-opacity: 0.5; stroke: #1f77b4; stroke-opacity: 0.5"/>
     <use xlink:href="#m4695b9588a" x="73.832727" y="283.739751" style="fill: #1f77b4; fill-opacity: 0.5; stroke: #1f77b4; stroke-opacity: 0.5"/>
     <use xlink:href="#m4695b9588a" x="73.832727" y="102.394127" style="fill: #1f77b4; fill-opacity: 0.5; stroke: #1f77b4; stroke-opacity: 0.5"/>
     <use xlink:href="#m4695b9588a" x="73.832727" y="233.282754" style="fill: #1f77b4; fill-opacity: 0.5; stroke: #1f77b4; stroke-opacity: 0.5"/>
     <use xlink:href="#m4695b9588a" x="73.832727" y="234.471832" style="fill: #1f77b4; fill-opacity: 0.5; stroke: #1f77b4; stroke-opacity: 0.5"/>
     <use xlink:href="#m4695b9588a" x="73.832727" y="164.609736" style="fill: #1f77b4; fill-opacity: 0.5; stroke: #1f77b4; stroke-opacity: 0.5"/>
     <use xlink:href="#m4695b9588a" x="203.694545" y="281.95985" style="fill: #1f77b4; fill-opacity: 0.5; stroke: #1f77b4; stroke-opacity: 0.5"/>
     <use xlink:href="#m4695b9588a" x="236.16" y="282.595098" style="fill: #1f77b4; fill-opacity: 0.5; stroke: #1f77b4; stroke-opacity: 0.5"/>
     <use xlink:href="#m4695b9588a" x="138.763636" y="286.834543" style="fill: #1f77b4; fill-opacity: 0.5; stroke: #1f77b4; stroke-opacity: 0.5"/>
     <use xlink:href="#m4695b9588a" x="73.832727" y="286.991596" style="fill: #1f77b4; fill-opacity: 0.5; stroke: #1f77b4; stroke-opacity: 0.5"/>
     <use xlink:href="#m4695b9588a" x="73.832727" y="282.811075" style="fill: #1f77b4; fill-opacity: 0.5; stroke: #1f77b4; stroke-opacity: 0.5"/>
     <use xlink:href="#m4695b9588a" x="138.763636" y="282.121322" style="fill: #1f77b4; fill-opacity: 0.5; stroke: #1f77b4; stroke-opacity: 0.5"/>
     <use xlink:href="#m4695b9588a" x="73.832727" y="282.621076" style="fill: #1f77b4; fill-opacity: 0.5; stroke: #1f77b4; stroke-opacity: 0.5"/>
     <use xlink:href="#m4695b9588a" x="203.694545" y="218.951094" style="fill: #1f77b4; fill-opacity: 0.5; stroke: #1f77b4; stroke-opacity: 0.5"/>
     <use xlink:href="#m4695b9588a" x="171.229091" y="283.574853" style="fill: #1f77b4; fill-opacity: 0.5; stroke: #1f77b4; stroke-opacity: 0.5"/>
     <use xlink:href="#m4695b9588a" x="73.832727" y="218.958887" style="fill: #1f77b4; fill-opacity: 0.5; stroke: #1f77b4; stroke-opacity: 0.5"/>
     <use xlink:href="#m4695b9588a" x="236.16" y="261.924581" style="fill: #1f77b4; fill-opacity: 0.5; stroke: #1f77b4; stroke-opacity: 0.5"/>
     <use xlink:href="#m4695b9588a" x="203.694545" y="260.116408" style="fill: #1f77b4; fill-opacity: 0.5; stroke: #1f77b4; stroke-opacity: 0.5"/>
     <use xlink:href="#m4695b9588a" x="73.832727" y="281.567441" style="fill: #1f77b4; fill-opacity: 0.5; stroke: #1f77b4; stroke-opacity: 0.5"/>
     <use xlink:href="#m4695b9588a" x="138.763636" y="284.055711" style="fill: #1f77b4; fill-opacity: 0.5; stroke: #1f77b4; stroke-opacity: 0.5"/>
     <use xlink:href="#m4695b9588a" x="171.229091" y="284.691092" style="fill: #1f77b4; fill-opacity: 0.5; stroke: #1f77b4; stroke-opacity: 0.5"/>
     <use xlink:href="#m4695b9588a" x="138.763636" y="279.995595" style="fill: #1f77b4; fill-opacity: 0.5; stroke: #1f77b4; stroke-opacity: 0.5"/>
     <use xlink:href="#m4695b9588a" x="203.694545" y="279.134862" style="fill: #1f77b4; fill-opacity: 0.5; stroke: #1f77b4; stroke-opacity: 0.5"/>
     <use xlink:href="#m4695b9588a" x="73.832727" y="281.372513" style="fill: #1f77b4; fill-opacity: 0.5; stroke: #1f77b4; stroke-opacity: 0.5"/>
    </g>
   </g>
   <g id="PolyCollection_1">
    <defs>
     <path id="m4312dae6b8" d="M 73.832727 -105.825131 
L 73.832727 -79.941151 
L 77.112066 -80.136116 
L 80.391405 -80.119653 
L 83.670744 -80.275825 
L 86.950083 -80.445701 
L 90.229421 -80.6175 
L 93.50876 -80.770251 
L 96.788099 -80.840509 
L 100.067438 -80.76605 
L 103.346777 -80.803392 
L 106.626116 -80.843701 
L 109.905455 -80.881484 
L 113.184793 -80.929762 
L 116.464132 -81.111018 
L 119.743471 -81.209021 
L 123.02281 -81.300703 
L 126.302149 -81.505237 
L 129.581488 -81.452949 
L 132.860826 -81.569175 
L 136.140165 -81.618268 
L 139.419504 -81.555847 
L 142.698843 -81.505475 
L 145.978182 -81.522396 
L 149.257521 -81.409966 
L 152.53686 -81.481766 
L 155.816198 -81.232271 
L 159.095537 -81.103715 
L 162.374876 -81.082789 
L 165.654215 -80.941937 
L 168.933554 -80.777042 
L 172.212893 -80.566687 
L 175.492231 -80.43678 
L 178.77157 -80.08797 
L 182.050909 -79.918278 
L 185.330248 -79.768889 
L 188.609587 -79.551138 
L 191.888926 -79.364691 
L 195.168264 -79.052126 
L 198.447603 -78.778055 
L 201.726942 -78.48032 
L 205.006281 -78.166112 
L 208.28562 -77.857547 
L 211.564959 -77.481413 
L 214.844298 -77.162239 
L 218.123636 -76.841675 
L 221.402975 -76.354251 
L 224.682314 -75.955866 
L 227.961653 -75.648791 
L 231.240992 -75.081102 
L 234.520331 -74.573134 
L 237.799669 -74.132803 
L 241.079008 -73.788309 
L 244.358347 -73.424624 
L 247.637686 -73.103357 
L 250.917025 -72.783481 
L 254.196364 -72.357131 
L 257.475702 -71.83646 
L 260.755041 -71.31579 
L 264.03438 -70.869597 
L 267.313719 -70.465339 
L 270.593058 -69.973786 
L 273.872397 -69.622237 
L 277.151736 -69.230071 
L 280.431074 -68.817047 
L 283.710413 -68.404024 
L 286.989752 -67.991 
L 290.269091 -67.577977 
L 293.54843 -67.041349 
L 296.827769 -66.481214 
L 300.107107 -65.922155 
L 303.386446 -65.363096 
L 306.665785 -64.823196 
L 309.945124 -64.347204 
L 313.224463 -63.982365 
L 316.503802 -63.617592 
L 319.78314 -63.220461 
L 323.062479 -62.691051 
L 326.341818 -62.161641 
L 329.621157 -61.534229 
L 332.900496 -60.893081 
L 336.179835 -60.253269 
L 339.459174 -59.613987 
L 342.738512 -58.975392 
L 346.017851 -58.378456 
L 349.29719 -57.917339 
L 352.576529 -57.456521 
L 355.855868 -56.995703 
L 359.135207 -56.534886 
L 362.414545 -56.048764 
L 365.693884 -55.412728 
L 368.973223 -54.916007 
L 372.252562 -54.427302 
L 375.531901 -53.933469 
L 378.81124 -53.348314 
L 382.090579 -52.763158 
L 385.369917 -52.178003 
L 388.649256 -51.644448 
L 391.928595 -51.133632 
L 395.207934 -50.622816 
L 398.487273 -50.112 
L 398.487273 -103.935477 
L 398.487273 -103.935477 
L 395.207934 -103.692072 
L 391.928595 -103.485924 
L 388.649256 -103.279775 
L 385.369917 -103.073627 
L 382.090579 -102.867479 
L 378.81124 -102.660628 
L 375.531901 -102.452644 
L 372.252562 -102.24466 
L 368.973223 -102.036676 
L 365.693884 -101.828693 
L 362.414545 -101.66919 
L 359.135207 -101.4315 
L 355.855868 -101.211558 
L 352.576529 -101.003879 
L 349.29719 -100.843699 
L 346.017851 -100.680587 
L 342.738512 -100.414897 
L 339.459174 -100.180148 
L 336.179835 -99.975992 
L 332.900496 -99.771706 
L 329.621157 -99.591132 
L 326.341818 -99.432733 
L 323.062479 -99.274335 
L 319.78314 -99.115936 
L 316.503802 -98.957538 
L 313.224463 -98.799139 
L 309.945124 -98.640741 
L 306.665785 -98.482342 
L 303.386446 -98.323943 
L 300.107107 -98.144682 
L 296.827769 -98.009917 
L 293.54843 -97.89007 
L 290.269091 -97.764869 
L 286.989752 -97.637308 
L 283.710413 -97.508257 
L 280.431074 -97.327405 
L 277.151736 -97.128193 
L 273.872397 -96.92869 
L 270.593058 -96.729906 
L 267.313719 -96.532027 
L 264.03438 -96.365004 
L 260.755041 -96.286722 
L 257.475702 -96.121987 
L 254.196364 -95.920913 
L 250.917025 -95.816372 
L 247.637686 -95.518765 
L 244.358347 -95.502468 
L 241.079008 -95.347119 
L 237.799669 -95.196883 
L 234.520331 -95.061306 
L 231.240992 -94.909261 
L 227.961653 -94.820819 
L 224.682314 -94.640938 
L 221.402975 -94.555625 
L 218.123636 -94.434462 
L 214.844298 -94.405995 
L 211.564959 -94.347042 
L 208.28562 -94.337247 
L 205.006281 -94.33653 
L 201.726942 -94.37944 
L 198.447603 -94.423647 
L 195.168264 -94.482876 
L 191.888926 -94.480321 
L 188.609587 -94.576052 
L 185.330248 -94.677661 
L 182.050909 -94.772787 
L 178.77157 -94.947356 
L 175.492231 -95.219089 
L 172.212893 -95.345597 
L 168.933554 -95.383571 
L 165.654215 -95.608903 
L 162.374876 -95.863073 
L 159.095537 -95.990376 
L 155.816198 -96.253182 
L 152.53686 -96.517799 
L 149.257521 -96.78146 
L 145.978182 -97.108326 
L 142.698843 -97.428275 
L 139.419504 -97.883134 
L 136.140165 -98.248982 
L 132.860826 -98.431193 
L 129.581488 -98.763286 
L 126.302149 -99.12844 
L 123.02281 -99.592451 
L 119.743471 -100.008633 
L 116.464132 -100.421906 
L 113.184793 -100.837142 
L 109.905455 -101.381806 
L 106.626116 -101.729907 
L 103.346777 -102.125703 
L 100.067438 -102.523815 
L 96.788099 -103.028843 
L 93.50876 -103.447239 
L 90.229421 -103.720317 
L 86.950083 -104.051793 
L 83.670744 -104.49112 
L 80.391405 -104.930447 
L 77.112066 -105.395961 
L 73.832727 -105.825131 
z
" style="stroke: #ffffff; stroke-opacity: 0.15; stroke-width: 0.8"/>
    </defs>
    <g clip-path="url(#ped7fb31d81)">
     <use xlink:href="#m4312dae6b8" x="0" y="345.6" style="fill: #1f77b4; fill-opacity: 0.15; stroke: #ffffff; stroke-opacity: 0.15; stroke-width: 0.8"/>
    </g>
   </g>
   <g id="line2d_18">
    <path d="M 73.832727 253.066825 
L 77.112066 253.222472 
L 80.391405 253.378119 
L 83.670744 253.533766 
L 86.950083 253.689414 
L 90.229421 253.845061 
L 93.50876 254.000708 
L 96.788099 254.156355 
L 100.067438 254.312002 
L 103.346777 254.467649 
L 106.626116 254.623296 
L 109.905455 254.778943 
L 113.184793 254.93459 
L 116.464132 255.090237 
L 119.743471 255.245884 
L 123.02281 255.401531 
L 126.302149 255.557178 
L 129.581488 255.712825 
L 132.860826 255.868472 
L 136.140165 256.024119 
L 139.419504 256.179766 
L 142.698843 256.335413 
L 145.978182 256.49106 
L 149.257521 256.646707 
L 152.53686 256.802354 
L 155.816198 256.958001 
L 159.095537 257.113648 
L 162.374876 257.269295 
L 165.654215 257.424942 
L 168.933554 257.580589 
L 172.212893 257.736237 
L 175.492231 257.891884 
L 178.77157 258.047531 
L 182.050909 258.203178 
L 185.330248 258.358825 
L 188.609587 258.514472 
L 191.888926 258.670119 
L 195.168264 258.825766 
L 198.447603 258.981413 
L 201.726942 259.13706 
L 205.006281 259.292707 
L 208.28562 259.448354 
L 211.564959 259.604001 
L 214.844298 259.759648 
L 218.123636 259.915295 
L 221.402975 260.070942 
L 224.682314 260.226589 
L 227.961653 260.382236 
L 231.240992 260.537883 
L 234.520331 260.69353 
L 237.799669 260.849177 
L 241.079008 261.004824 
L 244.358347 261.160471 
L 247.637686 261.316118 
L 250.917025 261.471765 
L 254.196364 261.627413 
L 257.475702 261.78306 
L 260.755041 261.938707 
L 264.03438 262.094354 
L 267.313719 262.250001 
L 270.593058 262.405648 
L 273.872397 262.561295 
L 277.151736 262.716942 
L 280.431074 262.872589 
L 283.710413 263.028236 
L 286.989752 263.183883 
L 290.269091 263.33953 
L 293.54843 263.495177 
L 296.827769 263.650824 
L 300.107107 263.806471 
L 303.386446 263.962118 
L 306.665785 264.117765 
L 309.945124 264.273412 
L 313.224463 264.429059 
L 316.503802 264.584706 
L 319.78314 264.740353 
L 323.062479 264.896 
L 326.341818 265.051647 
L 329.621157 265.207294 
L 332.900496 265.362941 
L 336.179835 265.518588 
L 339.459174 265.674236 
L 342.738512 265.829883 
L 346.017851 265.98553 
L 349.29719 266.141177 
L 352.576529 266.296824 
L 355.855868 266.452471 
L 359.135207 266.608118 
L 362.414545 266.763765 
L 365.693884 266.919412 
L 368.973223 267.075059 
L 372.252562 267.230706 
L 375.531901 267.386353 
L 378.81124 267.542 
L 382.090579 267.697647 
L 385.369917 267.853294 
L 388.649256 268.008941 
L 391.928595 268.164588 
L 395.207934 268.320235 
L 398.487273 268.475882 
" clip-path="url(#ped7fb31d81)" style="fill: none; stroke: #1f77b4; stroke-width: 1.8; stroke-linecap: round"/>
   </g>
   <g id="patch_3">
    <path d="M 57.6 307.584 
L 57.6 41.472 
" style="fill: none; stroke: #cccccc; stroke-linejoin: miter; stroke-linecap: square"/>
   </g>
   <g id="patch_4">
    <path d="M 414.72 307.584 
L 414.72 41.472 
" style="fill: none; stroke: #cccccc; stroke-linejoin: miter; stroke-linecap: square"/>
   </g>
   <g id="patch_5">
    <path d="M 57.6 307.584 
L 414.72 307.584 
" style="fill: none; stroke: #cccccc; stroke-linejoin: miter; stroke-linecap: square"/>
   </g>
   <g id="patch_6">
    <path d="M 57.6 41.472 
L 414.72 41.472 
" style="fill: none; stroke: #cccccc; stroke-linejoin: miter; stroke-linecap: square"/>
   </g>
   <g id="text_20">
    <!-- rho = -0.07 -->
    <g style="fill: #262626" transform="translate(236.16 181.701437) scale(0.1 -0.1)">
     <defs>
      <path id="Helvetica-68" d="M 413 4606 
L 975 4606 
L 975 2894 
Q 1175 3147 1334 3250 
Q 1606 3428 2013 3428 
Q 2741 3428 3000 2919 
Q 3141 2641 3141 2147 
L 3141 0 
L 2563 0 
L 2563 2109 
Q 2563 2478 2469 2650 
Q 2316 2925 1894 2925 
Q 1544 2925 1259 2684 
Q 975 2444 975 1775 
L 975 0 
L 413 0 
L 413 4606 
z
" transform="scale(0.015625)"/>
      <path id="Helvetica-6f" d="M 1741 363 
Q 2300 363 2508 786 
Q 2716 1209 2716 1728 
Q 2716 2197 2566 2491 
Q 2328 2953 1747 2953 
Q 1231 2953 997 2559 
Q 763 2166 763 1609 
Q 763 1075 997 719 
Q 1231 363 1741 363 
z
M 1763 3444 
Q 2409 3444 2856 3012 
Q 3303 2581 3303 1744 
Q 3303 934 2909 406 
Q 2516 -122 1688 -122 
Q 997 -122 590 345 
Q 184 813 184 1600 
Q 184 2444 612 2944 
Q 1041 3444 1763 3444 
z
M 1744 3428 
L 1744 3428 
z
" transform="scale(0.015625)"/>
      <path id="Helvetica-3d" d="M 3547 2569 
L 3547 2044 
L 288 2044 
L 288 2569 
L 3547 2569 
z
M 3547 1228 
L 3547 694 
L 288 694 
L 288 1228 
L 3547 1228 
z
" transform="scale(0.015625)"/>
      <path id="Helvetica-2d" d="M 266 2072 
L 1834 2072 
L 1834 1494 
L 266 1494 
L 266 2072 
z
" transform="scale(0.015625)"/>
      <path id="Helvetica-2e" d="M 547 681 
L 1200 681 
L 1200 0 
L 547 0 
L 547 681 
z
" transform="scale(0.015625)"/>
     </defs>
     <use xlink:href="#Helvetica-72"/>
     <use xlink:href="#Helvetica-68" x="33.300781"/>
     <use xlink:href="#Helvetica-6f" x="88.916016"/>
     <use xlink:href="#Helvetica-20" x="144.53125"/>
     <use xlink:href="#Helvetica-3d" x="172.314453"/>
     <use xlink:href="#Helvetica-20" x="230.712891"/>
     <use xlink:href="#Helvetica-2d" x="258.496094"/>
     <use xlink:href="#Helvetica-30" x="291.796875"/>
     <use xlink:href="#Helvetica-2e" x="347.412109"/>
     <use xlink:href="#Helvetica-30" x="375.195312"/>
     <use xlink:href="#Helvetica-37" x="430.810547"/>
    </g>
    <!-- p = 4.15e-01 -->
    <g style="fill: #262626" transform="translate(236.16 192.393937) scale(0.1 -0.1)">
     <use xlink:href="#Helvetica-70"/>
     <use xlink:href="#Helvetica-20" x="55.615234"/>
     <use xlink:href="#Helvetica-3d" x="83.398438"/>
     <use xlink:href="#Helvetica-20" x="141.796875"/>
     <use xlink:href="#Helvetica-34" x="169.580078"/>
     <use xlink:href="#Helvetica-2e" x="225.195312"/>
     <use xlink:href="#Helvetica-31" x="252.978516"/>
     <use xlink:href="#Helvetica-35" x="308.59375"/>
     <use xlink:href="#Helvetica-65" x="364.208984"/>
     <use xlink:href="#Helvetica-2d" x="419.824219"/>
     <use xlink:href="#Helvetica-30" x="453.125"/>
     <use xlink:href="#Helvetica-31" x="508.740234"/>
    </g>
   </g>
   <g id="text_21">
    <!-- AF2 RIA energy (no templates) vs gpcr selectivity -->
    <g style="fill: #262626" transform="translate(126.681094 35.472) scale(0.1 -0.1)">
     <defs>
      <path id="Helvetica-41" d="M 2844 1881 
L 2147 3909 
L 1406 1881 
L 2844 1881 
z
M 1822 4591 
L 2525 4591 
L 4191 0 
L 3509 0 
L 3044 1375 
L 1228 1375 
L 731 0 
L 94 0 
L 1822 4591 
z
" transform="scale(0.015625)"/>
      <path id="Helvetica-46" d="M 547 4591 
L 3731 4591 
L 3731 4028 
L 1169 4028 
L 1169 2634 
L 3422 2634 
L 3422 2088 
L 1169 2088 
L 1169 0 
L 547 0 
L 547 4591 
z
" transform="scale(0.015625)"/>
      <path id="Helvetica-49" d="M 628 4591 
L 1256 4591 
L 1256 0 
L 628 0 
L 628 4591 
z
" transform="scale(0.015625)"/>
      <path id="Helvetica-28" d="M 1894 4666 
Q 1403 3713 1256 3263 
Q 1034 2578 1034 1681 
Q 1034 775 1288 25 
Q 1444 -438 1903 -1306 
L 1525 -1306 
Q 1069 -594 959 -397 
Q 850 -200 722 138 
Q 547 600 478 1125 
Q 444 1397 444 1644 
Q 444 2569 734 3291 
Q 919 3750 1503 4666 
L 1894 4666 
z
" transform="scale(0.015625)"/>
      <path id="Helvetica-6d" d="M 413 3347 
L 969 3347 
L 969 2872 
Q 1169 3119 1331 3231 
Q 1609 3422 1963 3422 
Q 2363 3422 2606 3225 
Q 2744 3113 2856 2894 
Q 3044 3163 3297 3292 
Q 3550 3422 3866 3422 
Q 4541 3422 4784 2934 
Q 4916 2672 4916 2228 
L 4916 0 
L 4331 0 
L 4331 2325 
Q 4331 2659 4164 2784 
Q 3997 2909 3756 2909 
Q 3425 2909 3186 2687 
Q 2947 2466 2947 1947 
L 2947 0 
L 2375 0 
L 2375 2184 
Q 2375 2525 2294 2681 
Q 2166 2916 1816 2916 
Q 1497 2916 1236 2669 
Q 975 2422 975 1775 
L 975 0 
L 413 0 
L 413 3347 
z
" transform="scale(0.015625)"/>
      <path id="Helvetica-29" d="M 222 -1306 
Q 719 -338 863 106 
Q 1081 778 1081 1681 
Q 1081 2584 828 3334 
Q 672 3797 213 4666 
L 591 4666 
Q 1072 3897 1173 3717 
Q 1275 3538 1394 3222 
Q 1544 2831 1608 2450 
Q 1672 2069 1672 1716 
Q 1672 791 1378 66 
Q 1194 -400 613 -1306 
L 222 -1306 
z
" transform="scale(0.015625)"/>
     </defs>
     <use xlink:href="#Helvetica-41"/>
     <use xlink:href="#Helvetica-46" x="66.699219"/>
     <use xlink:href="#Helvetica-32" x="127.783203"/>
     <use xlink:href="#Helvetica-20" x="183.398438"/>
     <use xlink:href="#Helvetica-52" x="211.181641"/>
     <use xlink:href="#Helvetica-49" x="283.398438"/>
     <use xlink:href="#Helvetica-41" x="311.181641"/>
     <use xlink:href="#Helvetica-20" x="377.880859"/>
     <use xlink:href="#Helvetica-65" x="405.664062"/>
     <use xlink:href="#Helvetica-6e" x="461.279297"/>
     <use xlink:href="#Helvetica-65" x="516.894531"/>
     <use xlink:href="#Helvetica-72" x="572.509766"/>
     <use xlink:href="#Helvetica-67" x="605.810547"/>
     <use xlink:href="#Helvetica-79" x="661.425781"/>
     <use xlink:href="#Helvetica-20" x="711.425781"/>
     <use xlink:href="#Helvetica-28" x="739.208984"/>
     <use xlink:href="#Helvetica-6e" x="772.509766"/>
     <use xlink:href="#Helvetica-6f" x="828.125"/>
     <use xlink:href="#Helvetica-20" x="883.740234"/>
     <use xlink:href="#Helvetica-74" x="911.523438"/>
     <use xlink:href="#Helvetica-65" x="939.306641"/>
     <use xlink:href="#Helvetica-6d" x="994.921875"/>
     <use xlink:href="#Helvetica-70" x="1078.222656"/>
     <use xlink:href="#Helvetica-6c" x="1133.837891"/>
     <use xlink:href="#Helvetica-61" x="1156.054688"/>
     <use xlink:href="#Helvetica-74" x="1211.669922"/>
     <use xlink:href="#Helvetica-65" x="1239.453125"/>
     <use xlink:href="#Helvetica-73" x="1295.068359"/>
     <use xlink:href="#Helvetica-29" x="1345.068359"/>
     <use xlink:href="#Helvetica-20" x="1378.369141"/>
     <use xlink:href="#Helvetica-76" x="1406.152344"/>
     <use xlink:href="#Helvetica-73" x="1456.152344"/>
     <use xlink:href="#Helvetica-20" x="1506.152344"/>
     <use xlink:href="#Helvetica-67" x="1533.935547"/>
     <use xlink:href="#Helvetica-70" x="1589.550781"/>
     <use xlink:href="#Helvetica-63" x="1645.166016"/>
     <use xlink:href="#Helvetica-72" x="1695.166016"/>
     <use xlink:href="#Helvetica-20" x="1728.466797"/>
     <use xlink:href="#Helvetica-73" x="1756.25"/>
     <use xlink:href="#Helvetica-65" x="1806.25"/>
     <use xlink:href="#Helvetica-6c" x="1861.865234"/>
     <use xlink:href="#Helvetica-65" x="1884.082031"/>
     <use xlink:href="#Helvetica-63" x="1939.697266"/>
     <use xlink:href="#Helvetica-74" x="1989.697266"/>
     <use xlink:href="#Helvetica-69" x="2017.480469"/>
     <use xlink:href="#Helvetica-76" x="2039.697266"/>
     <use xlink:href="#Helvetica-69" x="2089.697266"/>
     <use xlink:href="#Helvetica-74" x="2111.914062"/>
     <use xlink:href="#Helvetica-79" x="2139.697266"/>
    </g>
   </g>
  </g>
 </g>
 <defs>
  <clipPath id="ped7fb31d81">
   <rect x="57.6" y="41.472" width="357.12" height="266.112"/>
  </clipPath>
 </defs>
</svg>
