<?xml version="1.0" encoding="utf-8" standalone="no"?>
<!DOCTYPE svg PUBLIC "-//W3C//DTD SVG 1.1//EN"
  "http://www.w3.org/Graphics/SVG/1.1/DTD/svg11.dtd">
<svg xmlns:xlink="http://www.w3.org/1999/xlink" width="180pt" height="180pt" viewBox="0 0 180 180" xmlns="http://www.w3.org/2000/svg" version="1.1">
 <metadata>
  <rdf:RDF xmlns:dc="http://purl.org/dc/elements/1.1/" xmlns:cc="http://creativecommons.org/ns#" xmlns:rdf="http://www.w3.org/1999/02/22-rdf-syntax-ns#">
   <cc:Work>
    <dc:type rdf:resource="http://purl.org/dc/dcmitype/StillImage"/>
    <dc:date>2024-11-12T13:43:55.983038</dc:date>
    <dc:format>image/svg+xml</dc:format>
    <dc:creator>
     <cc:Agent>
      <dc:title>Matplotlib v3.6.3, https://matplotlib.org/</dc:title>
     </cc:Agent>
    </dc:creator>
   </cc:Work>
  </rdf:RDF>
 </metadata>
 <defs>
  <style type="text/css">*{stroke-linejoin: round; stroke-linecap: butt}</style>
 </defs>
 <g id="figure_1">
  <g id="patch_1">
   <path d="M 0 180 
L 180 180 
L 180 0 
L 0 0 
z
" style="fill: #ffffff"/>
  </g>
  <g id="axes_1">
   <g id="patch_2">
    <path d="M 43.62 138.18 
L 166.897754 138.18 
L 166.897754 24.21375 
L 43.62 24.21375 
z
" style="fill: #ffffff"/>
   </g>
   <g id="matplotlib.axis_1">
    <g id="xtick_1">
     <g id="line2d_1">
      <path d="M 49.168544 138.18 
L 49.168544 24.21375 
" clip-path="url(#p77200a4605)" style="fill: none; stroke: #cccccc; stroke-width: 0.8; stroke-linecap: round"/>
     </g>
     <g id="text_1">
      <!-- 0 -->
      <g style="fill: #262626" transform="translate(46.388075 153.653437) scale(0.1 -0.1)">
       <defs>
        <path id="Helvetica-30" d="M 1731 4475 
Q 2600 4475 2988 3759 
Q 3288 3206 3288 2244 
Q 3288 1331 3016 734 
Q 2622 -122 1728 -122 
Q 922 -122 528 578 
Q 200 1163 200 2147 
Q 200 2909 397 3456 
Q 766 4475 1731 4475 
z
M 1725 391 
Q 2163 391 2422 778 
Q 2681 1166 2681 2222 
Q 2681 2984 2493 3476 
Q 2306 3969 1766 3969 
Q 1269 3969 1039 3501 
Q 809 3034 809 2125 
Q 809 1441 956 1025 
Q 1181 391 1725 391 
z
" transform="scale(0.015625)"/>
       </defs>
       <use xlink:href="#Helvetica-30"/>
      </g>
     </g>
    </g>
    <g id="xtick_2">
     <g id="line2d_2">
      <path d="M 104.159066 138.18 
L 104.159066 24.21375 
" clip-path="url(#p77200a4605)" style="fill: none; stroke: #cccccc; stroke-width: 0.8; stroke-linecap: round"/>
     </g>
     <g id="text_2">
      <!-- 1000 -->
      <g style="fill: #262626" transform="translate(93.037191 153.653437) scale(0.1 -0.1)">
       <defs>
        <path id="Helvetica-31" d="M 613 3169 
L 613 3600 
Q 1222 3659 1462 3798 
Q 1703 3938 1822 4456 
L 2266 4456 
L 2266 0 
L 1666 0 
L 1666 3169 
L 613 3169 
z
" transform="scale(0.015625)"/>
       </defs>
       <use xlink:href="#Helvetica-31"/>
       <use xlink:href="#Helvetica-30" x="55.615234"/>
       <use xlink:href="#Helvetica-30" x="111.230469"/>
       <use xlink:href="#Helvetica-30" x="166.845703"/>
      </g>
     </g>
    </g>
    <g id="xtick_3">
     <g id="line2d_3">
      <path d="M 159.149589 138.18 
L 159.149589 24.21375 
" clip-path="url(#p77200a4605)" style="fill: none; stroke: #cccccc; stroke-width: 0.8; stroke-linecap: round"/>
     </g>
     <g id="text_3">
      <!-- 2000 -->
      <g style="fill: #262626" transform="translate(148.027714 153.653437) scale(0.1 -0.1)">
       <defs>
        <path id="Helvetica-32" d="M 200 0 
Q 231 578 439 1006 
Q 647 1434 1250 1784 
L 1850 2131 
Q 2253 2366 2416 2531 
Q 2672 2791 2672 3125 
Q 2672 3516 2437 3745 
Q 2203 3975 1813 3975 
Q 1234 3975 1013 3538 
Q 894 3303 881 2888 
L 309 2888 
Q 319 3472 525 3841 
Q 891 4491 1816 4491 
Q 2584 4491 2939 4075 
Q 3294 3659 3294 3150 
Q 3294 2613 2916 2231 
Q 2697 2009 2131 1694 
L 1703 1456 
Q 1397 1288 1222 1134 
Q 909 863 828 531 
L 3272 531 
L 3272 0 
L 200 0 
z
" transform="scale(0.015625)"/>
       </defs>
       <use xlink:href="#Helvetica-32"/>
       <use xlink:href="#Helvetica-30" x="55.615234"/>
       <use xlink:href="#Helvetica-30" x="111.230469"/>
       <use xlink:href="#Helvetica-30" x="166.845703"/>
      </g>
     </g>
    </g>
    <g id="text_4">
     <!-- agonist msa depth -->
     <g style="fill: #262626" transform="translate(64.402627 166.934687) scale(0.1 -0.1)">
      <defs>
       <path id="Helvetica-61" d="M 844 891 
Q 844 647 1022 506 
Q 1200 366 1444 366 
Q 1741 366 2019 503 
Q 2488 731 2488 1250 
L 2488 1703 
Q 2384 1638 2221 1594 
Q 2059 1550 1903 1531 
L 1563 1488 
Q 1256 1447 1103 1359 
Q 844 1213 844 891 
z
M 2206 2028 
Q 2400 2053 2466 2191 
Q 2503 2266 2503 2406 
Q 2503 2694 2298 2823 
Q 2094 2953 1713 2953 
Q 1272 2953 1088 2716 
Q 984 2584 953 2325 
L 428 2325 
Q 444 2944 830 3186 
Q 1216 3428 1725 3428 
Q 2316 3428 2684 3203 
Q 3050 2978 3050 2503 
L 3050 575 
Q 3050 488 3086 434 
Q 3122 381 3238 381 
Q 3275 381 3322 386 
Q 3369 391 3422 400 
L 3422 -16 
Q 3291 -53 3222 -62 
Q 3153 -72 3034 -72 
Q 2744 -72 2613 134 
Q 2544 244 2516 444 
Q 2344 219 2022 53 
Q 1700 -113 1313 -113 
Q 847 -113 551 170 
Q 256 453 256 878 
Q 256 1344 547 1600 
Q 838 1856 1309 1916 
L 2206 2028 
z
M 1741 3428 
L 1741 3428 
z
" transform="scale(0.015625)"/>
       <path id="Helvetica-67" d="M 1594 3406 
Q 1988 3406 2281 3213 
Q 2441 3103 2606 2894 
L 2606 3316 
L 3125 3316 
L 3125 272 
Q 3125 -366 2938 -734 
Q 2588 -1416 1616 -1416 
Q 1075 -1416 706 -1173 
Q 338 -931 294 -416 
L 866 -416 
Q 906 -641 1028 -763 
Q 1219 -950 1628 -950 
Q 2275 -950 2475 -494 
Q 2594 -225 2584 466 
Q 2416 209 2178 84 
Q 1941 -41 1550 -41 
Q 1006 -41 598 345 
Q 191 731 191 1622 
Q 191 2463 602 2934 
Q 1013 3406 1594 3406 
z
M 2606 1688 
Q 2606 2309 2350 2609 
Q 2094 2909 1697 2909 
Q 1103 2909 884 2353 
Q 769 2056 769 1575 
Q 769 1009 998 714 
Q 1228 419 1616 419 
Q 2222 419 2469 966 
Q 2606 1275 2606 1688 
z
M 1659 3428 
L 1659 3428 
z
" transform="scale(0.015625)"/>
       <path id="Helvetica-6f" d="M 1741 363 
Q 2300 363 2508 786 
Q 2716 1209 2716 1728 
Q 2716 2197 2566 2491 
Q 2328 2953 1747 2953 
Q 1231 2953 997 2559 
Q 763 2166 763 1609 
Q 763 1075 997 719 
Q 1231 363 1741 363 
z
M 1763 3444 
Q 2409 3444 2856 3012 
Q 3303 2581 3303 1744 
Q 3303 934 2909 406 
Q 2516 -122 1688 -122 
Q 997 -122 590 345 
Q 184 813 184 1600 
Q 184 2444 612 2944 
Q 1041 3444 1763 3444 
z
M 1744 3428 
L 1744 3428 
z
" transform="scale(0.015625)"/>
       <path id="Helvetica-6e" d="M 413 3347 
L 947 3347 
L 947 2872 
Q 1184 3166 1450 3294 
Q 1716 3422 2041 3422 
Q 2753 3422 3003 2925 
Q 3141 2653 3141 2147 
L 3141 0 
L 2569 0 
L 2569 2109 
Q 2569 2416 2478 2603 
Q 2328 2916 1934 2916 
Q 1734 2916 1606 2875 
Q 1375 2806 1200 2600 
Q 1059 2434 1017 2257 
Q 975 2081 975 1753 
L 975 0 
L 413 0 
L 413 3347 
z
M 1734 3428 
L 1734 3428 
z
" transform="scale(0.015625)"/>
       <path id="Helvetica-69" d="M 413 3331 
L 984 3331 
L 984 0 
L 413 0 
L 413 3331 
z
M 413 4591 
L 984 4591 
L 984 3953 
L 413 3953 
L 413 4591 
z
" transform="scale(0.015625)"/>
       <path id="Helvetica-73" d="M 747 1050 
Q 772 769 888 619 
Q 1100 347 1625 347 
Q 1938 347 2175 483 
Q 2413 619 2413 903 
Q 2413 1119 2222 1231 
Q 2100 1300 1741 1391 
L 1294 1503 
Q 866 1609 663 1741 
Q 300 1969 300 2372 
Q 300 2847 642 3140 
Q 984 3434 1563 3434 
Q 2319 3434 2653 2991 
Q 2863 2709 2856 2384 
L 2325 2384 
Q 2309 2575 2191 2731 
Q 1997 2953 1519 2953 
Q 1200 2953 1036 2831 
Q 872 2709 872 2509 
Q 872 2291 1088 2159 
Q 1213 2081 1456 2022 
L 1828 1931 
Q 2434 1784 2641 1647 
Q 2969 1431 2969 969 
Q 2969 522 2630 197 
Q 2291 -128 1597 -128 
Q 850 -128 539 211 
Q 228 550 206 1050 
L 747 1050 
z
M 1578 3428 
L 1578 3428 
z
" transform="scale(0.015625)"/>
       <path id="Helvetica-74" d="M 525 4281 
L 1094 4281 
L 1094 3347 
L 1628 3347 
L 1628 2888 
L 1094 2888 
L 1094 703 
Q 1094 528 1213 469 
Q 1278 434 1431 434 
Q 1472 434 1519 436 
Q 1566 438 1628 444 
L 1628 0 
Q 1531 -28 1426 -40 
Q 1322 -53 1200 -53 
Q 806 -53 665 148 
Q 525 350 525 672 
L 525 2888 
L 72 2888 
L 72 3347 
L 525 3347 
L 525 4281 
z
" transform="scale(0.015625)"/>
       <path id="Helvetica-20" transform="scale(0.015625)"/>
       <path id="Helvetica-6d" d="M 413 3347 
L 969 3347 
L 969 2872 
Q 1169 3119 1331 3231 
Q 1609 3422 1963 3422 
Q 2363 3422 2606 3225 
Q 2744 3113 2856 2894 
Q 3044 3163 3297 3292 
Q 3550 3422 3866 3422 
Q 4541 3422 4784 2934 
Q 4916 2672 4916 2228 
L 4916 0 
L 4331 0 
L 4331 2325 
Q 4331 2659 4164 2784 
Q 3997 2909 3756 2909 
Q 3425 2909 3186 2687 
Q 2947 2466 2947 1947 
L 2947 0 
L 2375 0 
L 2375 2184 
Q 2375 2525 2294 2681 
Q 2166 2916 1816 2916 
Q 1497 2916 1236 2669 
Q 975 2422 975 1775 
L 975 0 
L 413 0 
L 413 3347 
z
" transform="scale(0.015625)"/>
       <path id="Helvetica-64" d="M 769 1634 
Q 769 1097 997 734 
Q 1225 372 1728 372 
Q 2119 372 2370 708 
Q 2622 1044 2622 1672 
Q 2622 2306 2362 2611 
Q 2103 2916 1722 2916 
Q 1297 2916 1033 2591 
Q 769 2266 769 1634 
z
M 1616 3406 
Q 2000 3406 2259 3244 
Q 2409 3150 2600 2916 
L 2600 4606 
L 3141 4606 
L 3141 0 
L 2634 0 
L 2634 466 
Q 2438 156 2169 18 
Q 1900 -119 1553 -119 
Q 994 -119 584 351 
Q 175 822 175 1603 
Q 175 2334 548 2870 
Q 922 3406 1616 3406 
z
" transform="scale(0.015625)"/>
       <path id="Helvetica-65" d="M 1806 3422 
Q 2163 3422 2497 3255 
Q 2831 3088 3006 2822 
Q 3175 2569 3231 2231 
Q 3281 2000 3281 1494 
L 828 1494 
Q 844 984 1069 676 
Q 1294 369 1766 369 
Q 2206 369 2469 659 
Q 2619 828 2681 1050 
L 3234 1050 
Q 3213 866 3089 639 
Q 2966 413 2813 269 
Q 2556 19 2178 -69 
Q 1975 -119 1719 -119 
Q 1094 -119 659 336 
Q 225 791 225 1609 
Q 225 2416 662 2919 
Q 1100 3422 1806 3422 
z
M 2703 1941 
Q 2669 2306 2544 2525 
Q 2313 2931 1772 2931 
Q 1384 2931 1121 2651 
Q 859 2372 844 1941 
L 2703 1941 
z
M 1753 3428 
L 1753 3428 
z
" transform="scale(0.015625)"/>
       <path id="Helvetica-70" d="M 1825 378 
Q 2219 378 2480 708 
Q 2741 1038 2741 1694 
Q 2741 2094 2625 2381 
Q 2406 2934 1825 2934 
Q 1241 2934 1025 2350 
Q 909 2038 909 1556 
Q 909 1169 1025 897 
Q 1244 378 1825 378 
z
M 369 3331 
L 916 3331 
L 916 2888 
Q 1084 3116 1284 3241 
Q 1569 3428 1953 3428 
Q 2522 3428 2919 2992 
Q 3316 2556 3316 1747 
Q 3316 653 2744 184 
Q 2381 -113 1900 -113 
Q 1522 -113 1266 53 
Q 1116 147 931 375 
L 931 -1334 
L 369 -1334 
L 369 3331 
z
" transform="scale(0.015625)"/>
       <path id="Helvetica-68" d="M 413 4606 
L 975 4606 
L 975 2894 
Q 1175 3147 1334 3250 
Q 1606 3428 2013 3428 
Q 2741 3428 3000 2919 
Q 3141 2641 3141 2147 
L 3141 0 
L 2563 0 
L 2563 2109 
Q 2563 2478 2469 2650 
Q 2316 2925 1894 2925 
Q 1544 2925 1259 2684 
Q 975 2444 975 1775 
L 975 0 
L 413 0 
L 413 4606 
z
" transform="scale(0.015625)"/>
      </defs>
      <use xlink:href="#Helvetica-61"/>
      <use xlink:href="#Helvetica-67" x="55.615234"/>
      <use xlink:href="#Helvetica-6f" x="111.230469"/>
      <use xlink:href="#Helvetica-6e" x="166.845703"/>
      <use xlink:href="#Helvetica-69" x="222.460938"/>
      <use xlink:href="#Helvetica-73" x="244.677734"/>
      <use xlink:href="#Helvetica-74" x="294.677734"/>
      <use xlink:href="#Helvetica-20" x="322.460938"/>
      <use xlink:href="#Helvetica-6d" x="350.244141"/>
      <use xlink:href="#Helvetica-73" x="433.544922"/>
      <use xlink:href="#Helvetica-61" x="483.544922"/>
      <use xlink:href="#Helvetica-20" x="539.160156"/>
      <use xlink:href="#Helvetica-64" x="566.943359"/>
      <use xlink:href="#Helvetica-65" x="622.558594"/>
      <use xlink:href="#Helvetica-70" x="678.173828"/>
      <use xlink:href="#Helvetica-74" x="733.789062"/>
      <use xlink:href="#Helvetica-68" x="761.572266"/>
     </g>
    </g>
   </g>
   <g id="matplotlib.axis_2">
    <g id="ytick_1">
     <g id="line2d_4">
      <path d="M 43.62 138.18 
L 166.897754 138.18 
" clip-path="url(#p77200a4605)" style="fill: none; stroke: #cccccc; stroke-width: 0.8; stroke-linecap: round"/>
     </g>
     <g id="text_5">
      <!-- 0 -->
      <g style="fill: #262626" transform="translate(29.759063 141.766719) scale(0.1 -0.1)">
       <use xlink:href="#Helvetica-30"/>
      </g>
     </g>
    </g>
    <g id="ytick_2">
     <g id="line2d_5">
      <path d="M 43.62 128.197918 
L 166.897754 128.197918 
" clip-path="url(#p77200a4605)" style="fill: none; stroke: #cccccc; stroke-width: 0.8; stroke-linecap: round"/>
     </g>
     <g id="text_6">
      <!-- 1 -->
      <g style="fill: #262626" transform="translate(29.759063 131.784637) scale(0.1 -0.1)">
       <use xlink:href="#Helvetica-31"/>
      </g>
     </g>
    </g>
    <g id="ytick_3">
     <g id="line2d_6">
      <path d="M 43.62 118.215836 
L 166.897754 118.215836 
" clip-path="url(#p77200a4605)" style="fill: none; stroke: #cccccc; stroke-width: 0.8; stroke-linecap: round"/>
     </g>
     <g id="text_7">
      <!-- 2 -->
      <g style="fill: #262626" transform="translate(29.759063 121.802554) scale(0.1 -0.1)">
       <use xlink:href="#Helvetica-32"/>
      </g>
     </g>
    </g>
    <g id="ytick_4">
     <g id="line2d_7">
      <path d="M 43.62 108.233753 
L 166.897754 108.233753 
" clip-path="url(#p77200a4605)" style="fill: none; stroke: #cccccc; stroke-width: 0.8; stroke-linecap: round"/>
     </g>
     <g id="text_8">
      <!-- 3 -->
      <g style="fill: #262626" transform="translate(29.759063 111.820472) scale(0.1 -0.1)">
       <defs>
        <path id="Helvetica-33" d="M 1663 -122 
Q 869 -122 511 314 
Q 153 750 153 1375 
L 741 1375 
Q 778 941 903 744 
Q 1122 391 1694 391 
Q 2138 391 2406 628 
Q 2675 866 2675 1241 
Q 2675 1703 2392 1887 
Q 2109 2072 1606 2072 
Q 1550 2072 1492 2070 
Q 1434 2069 1375 2066 
L 1375 2563 
Q 1463 2553 1522 2550 
Q 1581 2547 1650 2547 
Q 1966 2547 2169 2647 
Q 2525 2822 2525 3272 
Q 2525 3606 2287 3787 
Q 2050 3969 1734 3969 
Q 1172 3969 956 3594 
Q 838 3388 822 3006 
L 266 3006 
Q 266 3506 466 3856 
Q 809 4481 1675 4481 
Q 2359 4481 2734 4176 
Q 3109 3872 3109 3294 
Q 3109 2881 2888 2625 
Q 2750 2466 2531 2375 
Q 2884 2278 3082 2001 
Q 3281 1725 3281 1325 
Q 3281 684 2859 281 
Q 2438 -122 1663 -122 
z
" transform="scale(0.015625)"/>
       </defs>
       <use xlink:href="#Helvetica-33"/>
      </g>
     </g>
    </g>
    <g id="ytick_5">
     <g id="line2d_8">
      <path d="M 43.62 98.251671 
L 166.897754 98.251671 
" clip-path="url(#p77200a4605)" style="fill: none; stroke: #cccccc; stroke-width: 0.8; stroke-linecap: round"/>
     </g>
     <g id="text_9">
      <!-- 4 -->
      <g style="fill: #262626" transform="translate(29.759063 101.83839) scale(0.1 -0.1)">
       <defs>
        <path id="Helvetica-34" d="M 2116 1584 
L 2116 3613 
L 681 1584 
L 2116 1584 
z
M 2125 0 
L 2125 1094 
L 163 1094 
L 163 1644 
L 2213 4488 
L 2688 4488 
L 2688 1584 
L 3347 1584 
L 3347 1094 
L 2688 1094 
L 2688 0 
L 2125 0 
z
" transform="scale(0.015625)"/>
       </defs>
       <use xlink:href="#Helvetica-34"/>
      </g>
     </g>
    </g>
    <g id="ytick_6">
     <g id="line2d_9">
      <path d="M 43.62 88.269589 
L 166.897754 88.269589 
" clip-path="url(#p77200a4605)" style="fill: none; stroke: #cccccc; stroke-width: 0.8; stroke-linecap: round"/>
     </g>
     <g id="text_10">
      <!-- 5 -->
      <g style="fill: #262626" transform="translate(29.759063 91.856308) scale(0.1 -0.1)">
       <defs>
        <path id="Helvetica-35" d="M 791 1141 
Q 847 659 1238 475 
Q 1438 381 1700 381 
Q 2200 381 2440 700 
Q 2681 1019 2681 1406 
Q 2681 1875 2395 2131 
Q 2109 2388 1709 2388 
Q 1419 2388 1211 2275 
Q 1003 2163 856 1963 
L 369 1991 
L 709 4400 
L 3034 4400 
L 3034 3856 
L 1131 3856 
L 941 2613 
Q 1097 2731 1238 2791 
Q 1488 2894 1816 2894 
Q 2431 2894 2859 2497 
Q 3288 2100 3288 1491 
Q 3288 856 2895 371 
Q 2503 -113 1644 -113 
Q 1097 -113 676 195 
Q 256 503 206 1141 
L 791 1141 
z
" transform="scale(0.015625)"/>
       </defs>
       <use xlink:href="#Helvetica-35"/>
      </g>
     </g>
    </g>
    <g id="ytick_7">
     <g id="line2d_10">
      <path d="M 43.62 78.287507 
L 166.897754 78.287507 
" clip-path="url(#p77200a4605)" style="fill: none; stroke: #cccccc; stroke-width: 0.8; stroke-linecap: round"/>
     </g>
     <g id="text_11">
      <!-- 6 -->
      <g style="fill: #262626" transform="translate(29.759063 81.874226) scale(0.1 -0.1)">
       <defs>
        <path id="Helvetica-36" d="M 1872 4494 
Q 2622 4494 2917 4105 
Q 3213 3716 3213 3303 
L 2656 3303 
Q 2606 3569 2497 3719 
Q 2294 4000 1881 4000 
Q 1409 4000 1131 3564 
Q 853 3128 822 2316 
Q 1016 2600 1309 2741 
Q 1578 2866 1909 2866 
Q 2472 2866 2890 2506 
Q 3309 2147 3309 1434 
Q 3309 825 2912 354 
Q 2516 -116 1781 -116 
Q 1153 -116 697 361 
Q 241 838 241 1966 
Q 241 2800 444 3381 
Q 834 4494 1872 4494 
z
M 1831 384 
Q 2275 384 2495 682 
Q 2716 981 2716 1388 
Q 2716 1731 2519 2042 
Q 2322 2353 1803 2353 
Q 1441 2353 1167 2112 
Q 894 1872 894 1388 
Q 894 963 1142 673 
Q 1391 384 1831 384 
z
" transform="scale(0.015625)"/>
       </defs>
       <use xlink:href="#Helvetica-36"/>
      </g>
     </g>
    </g>
    <g id="ytick_8">
     <g id="line2d_11">
      <path d="M 43.62 68.305425 
L 166.897754 68.305425 
" clip-path="url(#p77200a4605)" style="fill: none; stroke: #cccccc; stroke-width: 0.8; stroke-linecap: round"/>
     </g>
     <g id="text_12">
      <!-- 7 -->
      <g style="fill: #262626" transform="translate(29.759063 71.892143) scale(0.1 -0.1)">
       <defs>
        <path id="Helvetica-37" d="M 3347 4400 
L 3347 3909 
Q 3131 3700 2773 3181 
Q 2416 2663 2141 2063 
Q 1869 1478 1728 997 
Q 1638 688 1494 0 
L 872 0 
Q 1084 1281 1809 2550 
Q 2238 3294 2709 3834 
L 234 3834 
L 234 4400 
L 3347 4400 
z
" transform="scale(0.015625)"/>
       </defs>
       <use xlink:href="#Helvetica-37"/>
      </g>
     </g>
    </g>
    <g id="ytick_9">
     <g id="line2d_12">
      <path d="M 43.62 58.323342 
L 166.897754 58.323342 
" clip-path="url(#p77200a4605)" style="fill: none; stroke: #cccccc; stroke-width: 0.8; stroke-linecap: round"/>
     </g>
     <g id="text_13">
      <!-- 8 -->
      <g style="fill: #262626" transform="translate(29.759063 61.910061) scale(0.1 -0.1)">
       <defs>
        <path id="Helvetica-38" d="M 1741 2600 
Q 2113 2600 2322 2808 
Q 2531 3016 2531 3303 
Q 2531 3553 2331 3762 
Q 2131 3972 1722 3972 
Q 1316 3972 1134 3762 
Q 953 3553 953 3272 
Q 953 2956 1187 2778 
Q 1422 2600 1741 2600 
z
M 1775 384 
Q 2166 384 2423 595 
Q 2681 806 2681 1225 
Q 2681 1659 2415 1884 
Q 2150 2109 1734 2109 
Q 1331 2109 1076 1879 
Q 822 1650 822 1244 
Q 822 894 1055 639 
Q 1288 384 1775 384 
z
M 975 2384 
Q 741 2484 609 2619 
Q 363 2869 363 3269 
Q 363 3769 725 4128 
Q 1088 4488 1753 4488 
Q 2397 4488 2762 4148 
Q 3128 3809 3128 3356 
Q 3128 2938 2916 2678 
Q 2797 2531 2547 2391 
Q 2825 2263 2984 2097 
Q 3281 1784 3281 1284 
Q 3281 694 2884 283 
Q 2488 -128 1763 -128 
Q 1109 -128 657 226 
Q 206 581 206 1256 
Q 206 1653 400 1942 
Q 594 2231 975 2384 
z
" transform="scale(0.015625)"/>
       </defs>
       <use xlink:href="#Helvetica-38"/>
      </g>
     </g>
    </g>
    <g id="ytick_10">
     <g id="line2d_13">
      <path d="M 43.62 48.34126 
L 166.897754 48.34126 
" clip-path="url(#p77200a4605)" style="fill: none; stroke: #cccccc; stroke-width: 0.8; stroke-linecap: round"/>
     </g>
     <g id="text_14">
      <!-- 9 -->
      <g style="fill: #262626" transform="translate(29.759063 51.927979) scale(0.1 -0.1)">
       <defs>
        <path id="Helvetica-39" d="M 850 1081 
Q 875 616 1209 438 
Q 1381 344 1597 344 
Q 2000 344 2284 680 
Q 2569 1016 2688 2044 
Q 2500 1747 2223 1626 
Q 1947 1506 1628 1506 
Q 981 1506 604 1909 
Q 228 2313 228 2947 
Q 228 3556 600 4018 
Q 972 4481 1697 4481 
Q 2675 4481 3047 3600 
Q 3253 3116 3253 2388 
Q 3253 1566 3006 931 
Q 2597 -125 1619 -125 
Q 963 -125 622 219 
Q 281 563 281 1081 
L 850 1081 
z
M 1703 2000 
Q 2038 2000 2314 2220 
Q 2591 2441 2591 2991 
Q 2591 3484 2342 3726 
Q 2094 3969 1709 3969 
Q 1297 3969 1055 3692 
Q 813 3416 813 2953 
Q 813 2516 1025 2258 
Q 1238 2000 1703 2000 
z
" transform="scale(0.015625)"/>
       </defs>
       <use xlink:href="#Helvetica-39"/>
      </g>
     </g>
    </g>
    <g id="ytick_11">
     <g id="line2d_14">
      <path d="M 43.62 38.359178 
L 166.897754 38.359178 
" clip-path="url(#p77200a4605)" style="fill: none; stroke: #cccccc; stroke-width: 0.8; stroke-linecap: round"/>
     </g>
     <g id="text_15">
      <!-- 10 -->
      <g style="fill: #262626" transform="translate(24.198125 41.945897) scale(0.1 -0.1)">
       <use xlink:href="#Helvetica-31"/>
       <use xlink:href="#Helvetica-30" x="55.615234"/>
      </g>
     </g>
    </g>
    <g id="ytick_12">
     <g id="line2d_15">
      <path d="M 43.62 28.377096 
L 166.897754 28.377096 
" clip-path="url(#p77200a4605)" style="fill: none; stroke: #cccccc; stroke-width: 0.8; stroke-linecap: round"/>
     </g>
     <g id="text_16">
      <!-- 11 -->
      <g style="fill: #262626" transform="translate(24.198125 31.963815) scale(0.1 -0.1)">
       <use xlink:href="#Helvetica-31"/>
       <use xlink:href="#Helvetica-31" x="55.615234"/>
      </g>
     </g>
    </g>
    <g id="text_17">
     <!-- Rank -->
     <g style="fill: #262626" transform="translate(18.11375 92.86875) rotate(-90) scale(0.1 -0.1)">
      <defs>
       <path id="Helvetica-52" d="M 2622 2488 
Q 3059 2488 3314 2663 
Q 3569 2838 3569 3294 
Q 3569 3784 3213 3963 
Q 3022 4056 2703 4056 
L 1184 4056 
L 1184 2488 
L 2622 2488 
z
M 563 4591 
L 2688 4591 
Q 3213 4591 3553 4438 
Q 4200 4144 4200 3353 
Q 4200 2941 4029 2678 
Q 3859 2416 3553 2256 
Q 3822 2147 3958 1969 
Q 4094 1791 4109 1391 
L 4131 775 
Q 4141 513 4175 384 
Q 4231 166 4375 103 
L 4375 0 
L 3613 0 
Q 3581 59 3562 153 
Q 3544 247 3531 516 
L 3494 1281 
Q 3472 1731 3159 1884 
Q 2981 1969 2600 1969 
L 1184 1969 
L 1184 0 
L 563 0 
L 563 4591 
z
" transform="scale(0.015625)"/>
       <path id="Helvetica-6b" d="M 400 4591 
L 941 4591 
L 941 1925 
L 2384 3347 
L 3103 3347 
L 1822 2094 
L 3175 0 
L 2456 0 
L 1413 1688 
L 941 1256 
L 941 0 
L 400 0 
L 400 4591 
z
" transform="scale(0.015625)"/>
      </defs>
      <use xlink:href="#Helvetica-52"/>
      <use xlink:href="#Helvetica-61" x="72.216797"/>
      <use xlink:href="#Helvetica-6e" x="127.832031"/>
      <use xlink:href="#Helvetica-6b" x="183.447266"/>
     </g>
    </g>
   </g>
   <g id="PathCollection_1">
    <defs>
     <path id="ma9fdef6b0d" d="M 0 2.4 
C 0.636487 2.4 1.246992 2.147121 1.697056 1.697056 
C 2.147121 1.246992 2.4 0.636487 2.4 0 
C 2.4 -0.636487 2.147121 -1.246992 1.697056 -1.697056 
C 1.246992 -2.147121 0.636487 -2.4 0 -2.4 
C -0.636487 -2.4 -1.246992 -2.147121 -1.697056 -1.697056 
C -2.147121 -1.246992 -2.4 -0.636487 -2.4 0 
C -2.4 0.636487 -2.147121 1.246992 -1.697056 1.697056 
C -1.246992 2.147121 -0.636487 2.4 0 2.4 
z
" style="stroke: #1f77b4; stroke-opacity: 0.5"/>
    </defs>
    <g clip-path="url(#p77200a4605)">
     <use xlink:href="#ma9fdef6b0d" x="56.812226" y="128.422003" style="fill: #1f77b4; fill-opacity: 0.5; stroke: #1f77b4; stroke-opacity: 0.5"/>
     <use xlink:href="#ma9fdef6b0d" x="61.046497" y="130.074836" style="fill: #1f77b4; fill-opacity: 0.5; stroke: #1f77b4; stroke-opacity: 0.5"/>
     <use xlink:href="#ma9fdef6b0d" x="52.083041" y="128.038256" style="fill: #1f77b4; fill-opacity: 0.5; stroke: #1f77b4; stroke-opacity: 0.5"/>
     <use xlink:href="#ma9fdef6b0d" x="50.87325" y="128.259835" style="fill: #1f77b4; fill-opacity: 0.5; stroke: #1f77b4; stroke-opacity: 0.5"/>
     <use xlink:href="#ma9fdef6b0d" x="160.744314" y="128.654056" style="fill: #1f77b4; fill-opacity: 0.5; stroke: #1f77b4; stroke-opacity: 0.5"/>
     <use xlink:href="#ma9fdef6b0d" x="54.0627" y="126.944347" style="fill: #1f77b4; fill-opacity: 0.5; stroke: #1f77b4; stroke-opacity: 0.5"/>
     <use xlink:href="#ma9fdef6b0d" x="129.674669" y="116.753505" style="fill: #1f77b4; fill-opacity: 0.5; stroke: #1f77b4; stroke-opacity: 0.5"/>
     <use xlink:href="#ma9fdef6b0d" x="55.05253" y="127.169649" style="fill: #1f77b4; fill-opacity: 0.5; stroke: #1f77b4; stroke-opacity: 0.5"/>
     <use xlink:href="#ma9fdef6b0d" x="52.687937" y="126.900856" style="fill: #1f77b4; fill-opacity: 0.5; stroke: #1f77b4; stroke-opacity: 0.5"/>
     <use xlink:href="#ma9fdef6b0d" x="77.433672" y="129.266833" style="fill: #1f77b4; fill-opacity: 0.5; stroke: #1f77b4; stroke-opacity: 0.5"/>
     <use xlink:href="#ma9fdef6b0d" x="53.182852" y="128.683911" style="fill: #1f77b4; fill-opacity: 0.5; stroke: #1f77b4; stroke-opacity: 0.5"/>
     <use xlink:href="#ma9fdef6b0d" x="65.445738" y="128.275552" style="fill: #1f77b4; fill-opacity: 0.5; stroke: #1f77b4; stroke-opacity: 0.5"/>
     <use xlink:href="#ma9fdef6b0d" x="59.836705" y="127.194126" style="fill: #1f77b4; fill-opacity: 0.5; stroke: #1f77b4; stroke-opacity: 0.5"/>
     <use xlink:href="#ma9fdef6b0d" x="55.05253" y="127.977725" style="fill: #1f77b4; fill-opacity: 0.5; stroke: #1f77b4; stroke-opacity: 0.5"/>
     <use xlink:href="#ma9fdef6b0d" x="129.179754" y="128.946736" style="fill: #1f77b4; fill-opacity: 0.5; stroke: #1f77b4; stroke-opacity: 0.5"/>
     <use xlink:href="#ma9fdef6b0d" x="51.863079" y="98.143542" style="fill: #1f77b4; fill-opacity: 0.5; stroke: #1f77b4; stroke-opacity: 0.5"/>
     <use xlink:href="#ma9fdef6b0d" x="52.083041" y="127.930664" style="fill: #1f77b4; fill-opacity: 0.5; stroke: #1f77b4; stroke-opacity: 0.5"/>
     <use xlink:href="#ma9fdef6b0d" x="77.433672" y="127.597511" style="fill: #1f77b4; fill-opacity: 0.5; stroke: #1f77b4; stroke-opacity: 0.5"/>
     <use xlink:href="#ma9fdef6b0d" x="76.058909" y="127.802408" style="fill: #1f77b4; fill-opacity: 0.5; stroke: #1f77b4; stroke-opacity: 0.5"/>
     <use xlink:href="#ma9fdef6b0d" x="49.223534" y="127.809008" style="fill: #1f77b4; fill-opacity: 0.5; stroke: #1f77b4; stroke-opacity: 0.5"/>
     <use xlink:href="#ma9fdef6b0d" x="55.05253" y="130.076159" style="fill: #1f77b4; fill-opacity: 0.5; stroke: #1f77b4; stroke-opacity: 0.5"/>
     <use xlink:href="#ma9fdef6b0d" x="55.05253" y="128.35829" style="fill: #1f77b4; fill-opacity: 0.5; stroke: #1f77b4; stroke-opacity: 0.5"/>
     <use xlink:href="#ma9fdef6b0d" x="160.249399" y="119.586109" style="fill: #1f77b4; fill-opacity: 0.5; stroke: #1f77b4; stroke-opacity: 0.5"/>
     <use xlink:href="#ma9fdef6b0d" x="59.836705" y="129.791746" style="fill: #1f77b4; fill-opacity: 0.5; stroke: #1f77b4; stroke-opacity: 0.5"/>
     <use xlink:href="#ma9fdef6b0d" x="160.909286" y="127.993586" style="fill: #1f77b4; fill-opacity: 0.5; stroke: #1f77b4; stroke-opacity: 0.5"/>
     <use xlink:href="#ma9fdef6b0d" x="62.036326" y="127.074218" style="fill: #1f77b4; fill-opacity: 0.5; stroke: #1f77b4; stroke-opacity: 0.5"/>
     <use xlink:href="#ma9fdef6b0d" x="50.653288" y="129.384743" style="fill: #1f77b4; fill-opacity: 0.5; stroke: #1f77b4; stroke-opacity: 0.5"/>
     <use xlink:href="#ma9fdef6b0d" x="51.148203" y="119.67444" style="fill: #1f77b4; fill-opacity: 0.5; stroke: #1f77b4; stroke-opacity: 0.5"/>
     <use xlink:href="#ma9fdef6b0d" x="159.919456" y="117.593688" style="fill: #1f77b4; fill-opacity: 0.5; stroke: #1f77b4; stroke-opacity: 0.5"/>
     <use xlink:href="#ma9fdef6b0d" x="136.328522" y="128.604536" style="fill: #1f77b4; fill-opacity: 0.5; stroke: #1f77b4; stroke-opacity: 0.5"/>
     <use xlink:href="#ma9fdef6b0d" x="50.158373" y="129.745478" style="fill: #1f77b4; fill-opacity: 0.5; stroke: #1f77b4; stroke-opacity: 0.5"/>
     <use xlink:href="#ma9fdef6b0d" x="66.875492" y="127.128305" style="fill: #1f77b4; fill-opacity: 0.5; stroke: #1f77b4; stroke-opacity: 0.5"/>
     <use xlink:href="#ma9fdef6b0d" x="117.851706" y="127.858815" style="fill: #1f77b4; fill-opacity: 0.5; stroke: #1f77b4; stroke-opacity: 0.5"/>
     <use xlink:href="#ma9fdef6b0d" x="118.18165" y="128.718796" style="fill: #1f77b4; fill-opacity: 0.5; stroke: #1f77b4; stroke-opacity: 0.5"/>
     <use xlink:href="#ma9fdef6b0d" x="56.262321" y="129.414658" style="fill: #1f77b4; fill-opacity: 0.5; stroke: #1f77b4; stroke-opacity: 0.5"/>
     <use xlink:href="#ma9fdef6b0d" x="160.469361" y="119.638154" style="fill: #1f77b4; fill-opacity: 0.5; stroke: #1f77b4; stroke-opacity: 0.5"/>
     <use xlink:href="#ma9fdef6b0d" x="125.935313" y="127.086009" style="fill: #1f77b4; fill-opacity: 0.5; stroke: #1f77b4; stroke-opacity: 0.5"/>
     <use xlink:href="#ma9fdef6b0d" x="160.909286" y="128.741118" style="fill: #1f77b4; fill-opacity: 0.5; stroke: #1f77b4; stroke-opacity: 0.5"/>
     <use xlink:href="#ma9fdef6b0d" x="51.203193" y="127.596912" style="fill: #1f77b4; fill-opacity: 0.5; stroke: #1f77b4; stroke-opacity: 0.5"/>
     <use xlink:href="#ma9fdef6b0d" x="136.328522" y="129.767074" style="fill: #1f77b4; fill-opacity: 0.5; stroke: #1f77b4; stroke-opacity: 0.5"/>
     <use xlink:href="#ma9fdef6b0d" x="54.0627" y="129.807302" style="fill: #1f77b4; fill-opacity: 0.5; stroke: #1f77b4; stroke-opacity: 0.5"/>
     <use xlink:href="#ma9fdef6b0d" x="55.05253" y="128.912877" style="fill: #1f77b4; fill-opacity: 0.5; stroke: #1f77b4; stroke-opacity: 0.5"/>
     <use xlink:href="#ma9fdef6b0d" x="161.294219" y="116.653165" style="fill: #1f77b4; fill-opacity: 0.5; stroke: #1f77b4; stroke-opacity: 0.5"/>
     <use xlink:href="#ma9fdef6b0d" x="160.524352" y="129.159973" style="fill: #1f77b4; fill-opacity: 0.5; stroke: #1f77b4; stroke-opacity: 0.5"/>
     <use xlink:href="#ma9fdef6b0d" x="51.148203" y="126.290289" style="fill: #1f77b4; fill-opacity: 0.5; stroke: #1f77b4; stroke-opacity: 0.5"/>
     <use xlink:href="#ma9fdef6b0d" x="51.038222" y="127.969293" style="fill: #1f77b4; fill-opacity: 0.5; stroke: #1f77b4; stroke-opacity: 0.5"/>
     <use xlink:href="#ma9fdef6b0d" x="77.488663" y="129.264065" style="fill: #1f77b4; fill-opacity: 0.5; stroke: #1f77b4; stroke-opacity: 0.5"/>
     <use xlink:href="#ma9fdef6b0d" x="127.475048" y="128.172182" style="fill: #1f77b4; fill-opacity: 0.5; stroke: #1f77b4; stroke-opacity: 0.5"/>
     <use xlink:href="#ma9fdef6b0d" x="49.82843" y="129.72835" style="fill: #1f77b4; fill-opacity: 0.5; stroke: #1f77b4; stroke-opacity: 0.5"/>
     <use xlink:href="#ma9fdef6b0d" x="52.907899" y="129.343047" style="fill: #1f77b4; fill-opacity: 0.5; stroke: #1f77b4; stroke-opacity: 0.5"/>
     <use xlink:href="#ma9fdef6b0d" x="160.139418" y="127.663602" style="fill: #1f77b4; fill-opacity: 0.5; stroke: #1f77b4; stroke-opacity: 0.5"/>
     <use xlink:href="#ma9fdef6b0d" x="148.811371" y="117.193943" style="fill: #1f77b4; fill-opacity: 0.5; stroke: #1f77b4; stroke-opacity: 0.5"/>
     <use xlink:href="#ma9fdef6b0d" x="158.544693" y="128.645111" style="fill: #1f77b4; fill-opacity: 0.5; stroke: #1f77b4; stroke-opacity: 0.5"/>
     <use xlink:href="#ma9fdef6b0d" x="161.074257" y="128.319924" style="fill: #1f77b4; fill-opacity: 0.5; stroke: #1f77b4; stroke-opacity: 0.5"/>
     <use xlink:href="#ma9fdef6b0d" x="53.347823" y="69.662061" style="fill: #1f77b4; fill-opacity: 0.5; stroke: #1f77b4; stroke-opacity: 0.5"/>
     <use xlink:href="#ma9fdef6b0d" x="50.268354" y="126.944389" style="fill: #1f77b4; fill-opacity: 0.5; stroke: #1f77b4; stroke-opacity: 0.5"/>
     <use xlink:href="#ma9fdef6b0d" x="156.949968" y="127.023015" style="fill: #1f77b4; fill-opacity: 0.5; stroke: #1f77b4; stroke-opacity: 0.5"/>
     <use xlink:href="#ma9fdef6b0d" x="160.414371" y="128.485908" style="fill: #1f77b4; fill-opacity: 0.5; stroke: #1f77b4; stroke-opacity: 0.5"/>
     <use xlink:href="#ma9fdef6b0d" x="161.294219" y="129.761938" style="fill: #1f77b4; fill-opacity: 0.5; stroke: #1f77b4; stroke-opacity: 0.5"/>
     <use xlink:href="#ma9fdef6b0d" x="128.849811" y="129.954189" style="fill: #1f77b4; fill-opacity: 0.5; stroke: #1f77b4; stroke-opacity: 0.5"/>
     <use xlink:href="#ma9fdef6b0d" x="61.156478" y="130.127519" style="fill: #1f77b4; fill-opacity: 0.5; stroke: #1f77b4; stroke-opacity: 0.5"/>
     <use xlink:href="#ma9fdef6b0d" x="64.180956" y="128.207747" style="fill: #1f77b4; fill-opacity: 0.5; stroke: #1f77b4; stroke-opacity: 0.5"/>
     <use xlink:href="#ma9fdef6b0d" x="122.085977" y="128.271501" style="fill: #1f77b4; fill-opacity: 0.5; stroke: #1f77b4; stroke-opacity: 0.5"/>
     <use xlink:href="#ma9fdef6b0d" x="49.938411" y="128.790611" style="fill: #1f77b4; fill-opacity: 0.5; stroke: #1f77b4; stroke-opacity: 0.5"/>
     <use xlink:href="#ma9fdef6b0d" x="161.129248" y="126.261541" style="fill: #1f77b4; fill-opacity: 0.5; stroke: #1f77b4; stroke-opacity: 0.5"/>
     <use xlink:href="#ma9fdef6b0d" x="155.245262" y="127.328418" style="fill: #1f77b4; fill-opacity: 0.5; stroke: #1f77b4; stroke-opacity: 0.5"/>
     <use xlink:href="#ma9fdef6b0d" x="52.467975" y="56.934076" style="fill: #1f77b4; fill-opacity: 0.5; stroke: #1f77b4; stroke-opacity: 0.5"/>
     <use xlink:href="#ma9fdef6b0d" x="53.402814" y="126.300892" style="fill: #1f77b4; fill-opacity: 0.5; stroke: #1f77b4; stroke-opacity: 0.5"/>
     <use xlink:href="#ma9fdef6b0d" x="128.464877" y="129.97554" style="fill: #1f77b4; fill-opacity: 0.5; stroke: #1f77b4; stroke-opacity: 0.5"/>
     <use xlink:href="#ma9fdef6b0d" x="160.524352" y="128.739617" style="fill: #1f77b4; fill-opacity: 0.5; stroke: #1f77b4; stroke-opacity: 0.5"/>
     <use xlink:href="#ma9fdef6b0d" x="57.967027" y="76.462515" style="fill: #1f77b4; fill-opacity: 0.5; stroke: #1f77b4; stroke-opacity: 0.5"/>
     <use xlink:href="#ma9fdef6b0d" x="50.433326" y="129.497932" style="fill: #1f77b4; fill-opacity: 0.5; stroke: #1f77b4; stroke-opacity: 0.5"/>
     <use xlink:href="#ma9fdef6b0d" x="160.909286" y="79.650131" style="fill: #1f77b4; fill-opacity: 0.5; stroke: #1f77b4; stroke-opacity: 0.5"/>
     <use xlink:href="#ma9fdef6b0d" x="49.718449" y="127.127655" style="fill: #1f77b4; fill-opacity: 0.5; stroke: #1f77b4; stroke-opacity: 0.5"/>
     <use xlink:href="#ma9fdef6b0d" x="49.333515" y="117.162152" style="fill: #1f77b4; fill-opacity: 0.5; stroke: #1f77b4; stroke-opacity: 0.5"/>
     <use xlink:href="#ma9fdef6b0d" x="74.07925" y="129.170363" style="fill: #1f77b4; fill-opacity: 0.5; stroke: #1f77b4; stroke-opacity: 0.5"/>
     <use xlink:href="#ma9fdef6b0d" x="60.056667" y="126.218328" style="fill: #1f77b4; fill-opacity: 0.5; stroke: #1f77b4; stroke-opacity: 0.5"/>
     <use xlink:href="#ma9fdef6b0d" x="56.262321" y="127.642607" style="fill: #1f77b4; fill-opacity: 0.5; stroke: #1f77b4; stroke-opacity: 0.5"/>
     <use xlink:href="#ma9fdef6b0d" x="122.085977" y="130.192393" style="fill: #1f77b4; fill-opacity: 0.5; stroke: #1f77b4; stroke-opacity: 0.5"/>
     <use xlink:href="#ma9fdef6b0d" x="80.788094" y="128.938372" style="fill: #1f77b4; fill-opacity: 0.5; stroke: #1f77b4; stroke-opacity: 0.5"/>
     <use xlink:href="#ma9fdef6b0d" x="49.608468" y="118.136986" style="fill: #1f77b4; fill-opacity: 0.5; stroke: #1f77b4; stroke-opacity: 0.5"/>
     <use xlink:href="#ma9fdef6b0d" x="160.964276" y="29.260352" style="fill: #1f77b4; fill-opacity: 0.5; stroke: #1f77b4; stroke-opacity: 0.5"/>
     <use xlink:href="#ma9fdef6b0d" x="54.172681" y="117.133887" style="fill: #1f77b4; fill-opacity: 0.5; stroke: #1f77b4; stroke-opacity: 0.5"/>
     <use xlink:href="#ma9fdef6b0d" x="53.402814" y="80.145147" style="fill: #1f77b4; fill-opacity: 0.5; stroke: #1f77b4; stroke-opacity: 0.5"/>
     <use xlink:href="#ma9fdef6b0d" x="55.05253" y="128.032373" style="fill: #1f77b4; fill-opacity: 0.5; stroke: #1f77b4; stroke-opacity: 0.5"/>
     <use xlink:href="#ma9fdef6b0d" x="69.075113" y="107.484789" style="fill: #1f77b4; fill-opacity: 0.5; stroke: #1f77b4; stroke-opacity: 0.5"/>
     <use xlink:href="#ma9fdef6b0d" x="52.083041" y="119.467246" style="fill: #1f77b4; fill-opacity: 0.5; stroke: #1f77b4; stroke-opacity: 0.5"/>
     <use xlink:href="#ma9fdef6b0d" x="155.245262" y="128.441523" style="fill: #1f77b4; fill-opacity: 0.5; stroke: #1f77b4; stroke-opacity: 0.5"/>
     <use xlink:href="#ma9fdef6b0d" x="49.663458" y="129.501038" style="fill: #1f77b4; fill-opacity: 0.5; stroke: #1f77b4; stroke-opacity: 0.5"/>
     <use xlink:href="#ma9fdef6b0d" x="59.946686" y="130.129991" style="fill: #1f77b4; fill-opacity: 0.5; stroke: #1f77b4; stroke-opacity: 0.5"/>
     <use xlink:href="#ma9fdef6b0d" x="51.423155" y="57.093444" style="fill: #1f77b4; fill-opacity: 0.5; stroke: #1f77b4; stroke-opacity: 0.5"/>
     <use xlink:href="#ma9fdef6b0d" x="49.223534" y="97.194832" style="fill: #1f77b4; fill-opacity: 0.5; stroke: #1f77b4; stroke-opacity: 0.5"/>
     <use xlink:href="#ma9fdef6b0d" x="59.946686" y="100.181959" style="fill: #1f77b4; fill-opacity: 0.5; stroke: #1f77b4; stroke-opacity: 0.5"/>
     <use xlink:href="#ma9fdef6b0d" x="54.777577" y="127.597583" style="fill: #1f77b4; fill-opacity: 0.5; stroke: #1f77b4; stroke-opacity: 0.5"/>
     <use xlink:href="#ma9fdef6b0d" x="49.223534" y="119.18142" style="fill: #1f77b4; fill-opacity: 0.5; stroke: #1f77b4; stroke-opacity: 0.5"/>
     <use xlink:href="#ma9fdef6b0d" x="49.223534" y="126.648325" style="fill: #1f77b4; fill-opacity: 0.5; stroke: #1f77b4; stroke-opacity: 0.5"/>
     <use xlink:href="#ma9fdef6b0d" x="58.351961" y="68.151719" style="fill: #1f77b4; fill-opacity: 0.5; stroke: #1f77b4; stroke-opacity: 0.5"/>
     <use xlink:href="#ma9fdef6b0d" x="54.777577" y="128.940377" style="fill: #1f77b4; fill-opacity: 0.5; stroke: #1f77b4; stroke-opacity: 0.5"/>
     <use xlink:href="#ma9fdef6b0d" x="60.936516" y="106.393215" style="fill: #1f77b4; fill-opacity: 0.5; stroke: #1f77b4; stroke-opacity: 0.5"/>
     <use xlink:href="#ma9fdef6b0d" x="50.818259" y="120.16042" style="fill: #1f77b4; fill-opacity: 0.5; stroke: #1f77b4; stroke-opacity: 0.5"/>
     <use xlink:href="#ma9fdef6b0d" x="96.955308" y="119.381485" style="fill: #1f77b4; fill-opacity: 0.5; stroke: #1f77b4; stroke-opacity: 0.5"/>
     <use xlink:href="#ma9fdef6b0d" x="52.522966" y="116.556597" style="fill: #1f77b4; fill-opacity: 0.5; stroke: #1f77b4; stroke-opacity: 0.5"/>
     <use xlink:href="#ma9fdef6b0d" x="50.983231" y="88.531015" style="fill: #1f77b4; fill-opacity: 0.5; stroke: #1f77b4; stroke-opacity: 0.5"/>
     <use xlink:href="#ma9fdef6b0d" x="160.854295" y="36.977431" style="fill: #1f77b4; fill-opacity: 0.5; stroke: #1f77b4; stroke-opacity: 0.5"/>
     <use xlink:href="#ma9fdef6b0d" x="60.936516" y="50.073243" style="fill: #1f77b4; fill-opacity: 0.5; stroke: #1f77b4; stroke-opacity: 0.5"/>
     <use xlink:href="#ma9fdef6b0d" x="88.101834" y="129.773312" style="fill: #1f77b4; fill-opacity: 0.5; stroke: #1f77b4; stroke-opacity: 0.5"/>
     <use xlink:href="#ma9fdef6b0d" x="71.87963" y="128.992908" style="fill: #1f77b4; fill-opacity: 0.5; stroke: #1f77b4; stroke-opacity: 0.5"/>
     <use xlink:href="#ma9fdef6b0d" x="87.386957" y="129.90313" style="fill: #1f77b4; fill-opacity: 0.5; stroke: #1f77b4; stroke-opacity: 0.5"/>
     <use xlink:href="#ma9fdef6b0d" x="88.101834" y="129.399242" style="fill: #1f77b4; fill-opacity: 0.5; stroke: #1f77b4; stroke-opacity: 0.5"/>
     <use xlink:href="#ma9fdef6b0d" x="81.502971" y="127.023888" style="fill: #1f77b4; fill-opacity: 0.5; stroke: #1f77b4; stroke-opacity: 0.5"/>
     <use xlink:href="#ma9fdef6b0d" x="74.464184" y="129.440718" style="fill: #1f77b4; fill-opacity: 0.5; stroke: #1f77b4; stroke-opacity: 0.5"/>
     <use xlink:href="#ma9fdef6b0d" x="77.323691" y="128.606809" style="fill: #1f77b4; fill-opacity: 0.5; stroke: #1f77b4; stroke-opacity: 0.5"/>
     <use xlink:href="#ma9fdef6b0d" x="71.93462" y="126.941956" style="fill: #1f77b4; fill-opacity: 0.5; stroke: #1f77b4; stroke-opacity: 0.5"/>
     <use xlink:href="#ma9fdef6b0d" x="54.887558" y="90.017013" style="fill: #1f77b4; fill-opacity: 0.5; stroke: #1f77b4; stroke-opacity: 0.5"/>
     <use xlink:href="#ma9fdef6b0d" x="73.034431" y="126.323927" style="fill: #1f77b4; fill-opacity: 0.5; stroke: #1f77b4; stroke-opacity: 0.5"/>
     <use xlink:href="#ma9fdef6b0d" x="74.299213" y="129.623505" style="fill: #1f77b4; fill-opacity: 0.5; stroke: #1f77b4; stroke-opacity: 0.5"/>
     <use xlink:href="#ma9fdef6b0d" x="77.21371" y="119.319111" style="fill: #1f77b4; fill-opacity: 0.5; stroke: #1f77b4; stroke-opacity: 0.5"/>
     <use xlink:href="#ma9fdef6b0d" x="59.506762" y="128.3492" style="fill: #1f77b4; fill-opacity: 0.5; stroke: #1f77b4; stroke-opacity: 0.5"/>
     <use xlink:href="#ma9fdef6b0d" x="91.731208" y="109.180081" style="fill: #1f77b4; fill-opacity: 0.5; stroke: #1f77b4; stroke-opacity: 0.5"/>
     <use xlink:href="#ma9fdef6b0d" x="59.506762" y="126.679872" style="fill: #1f77b4; fill-opacity: 0.5; stroke: #1f77b4; stroke-opacity: 0.5"/>
     <use xlink:href="#ma9fdef6b0d" x="150.186134" y="126.414157" style="fill: #1f77b4; fill-opacity: 0.5; stroke: #1f77b4; stroke-opacity: 0.5"/>
     <use xlink:href="#ma9fdef6b0d" x="149.306285" y="130.062281" style="fill: #1f77b4; fill-opacity: 0.5; stroke: #1f77b4; stroke-opacity: 0.5"/>
     <use xlink:href="#ma9fdef6b0d" x="149.856191" y="127.670785" style="fill: #1f77b4; fill-opacity: 0.5; stroke: #1f77b4; stroke-opacity: 0.5"/>
    </g>
   </g>
   <g id="PolyCollection_1">
    <defs>
     <path id="m296526f5cc" d="M 49.223534 -65.807503 
L 49.223534 -56.197374 
L 50.355561 -56.305345 
L 51.487588 -56.382109 
L 52.619616 -56.406193 
L 53.751643 -56.479406 
L 54.88367 -56.462444 
L 56.015697 -56.485806 
L 57.147724 -56.571319 
L 58.279751 -56.644163 
L 59.411778 -56.700482 
L 60.543805 -56.663317 
L 61.675833 -56.691849 
L 62.80786 -56.723501 
L 63.939887 -56.763443 
L 65.071914 -56.829044 
L 66.203941 -56.915199 
L 67.335968 -56.964643 
L 68.467995 -56.961382 
L 69.600022 -57.010216 
L 70.73205 -57.008758 
L 71.864077 -57.012554 
L 72.996104 -57.029392 
L 74.128131 -57.081624 
L 75.260158 -57.126752 
L 76.392185 -57.121961 
L 77.524212 -57.146876 
L 78.656239 -57.176172 
L 79.788267 -57.166105 
L 80.920294 -57.154354 
L 82.052321 -57.138899 
L 83.184348 -57.105109 
L 84.316375 -57.123244 
L 85.448402 -57.121484 
L 86.580429 -57.13301 
L 87.712456 -57.130851 
L 88.844484 -57.080447 
L 89.976511 -57.049361 
L 91.108538 -57.041882 
L 92.240565 -57.034403 
L 93.372592 -56.976017 
L 94.504619 -56.917153 
L 95.636646 -56.856087 
L 96.768673 -56.751658 
L 97.900701 -56.684907 
L 99.032728 -56.660558 
L 100.164755 -56.613737 
L 101.296782 -56.567008 
L 102.428809 -56.504995 
L 103.560836 -56.467893 
L 104.692863 -56.475062 
L 105.82489 -56.447436 
L 106.956917 -56.391887 
L 108.088945 -56.334055 
L 109.220972 -56.265544 
L 110.352999 -56.198275 
L 111.485026 -56.13756 
L 112.617053 -56.076845 
L 113.74908 -55.987035 
L 114.881107 -55.868878 
L 116.013134 -55.765622 
L 117.145162 -55.686557 
L 118.277189 -55.6231 
L 119.409216 -55.485959 
L 120.541243 -55.429096 
L 121.67327 -55.337865 
L 122.805297 -55.2594 
L 123.937324 -55.221605 
L 125.069351 -55.183583 
L 126.201379 -55.089975 
L 127.333406 -54.978558 
L 128.465433 -54.895683 
L 129.59746 -54.797042 
L 130.729487 -54.692789 
L 131.861514 -54.612994 
L 132.993541 -54.538141 
L 134.125568 -54.456332 
L 135.257596 -54.312588 
L 136.389623 -54.169032 
L 137.52165 -54.04181 
L 138.653677 -53.938364 
L 139.785704 -53.844388 
L 140.917731 -53.79495 
L 142.049758 -53.696276 
L 143.181785 -53.57599 
L 144.313813 -53.46007 
L 145.44584 -53.417305 
L 146.577867 -53.373355 
L 147.709894 -53.218353 
L 148.841921 -53.132291 
L 149.973948 -53.074467 
L 151.105975 -53.016643 
L 152.238002 -52.930928 
L 153.370029 -52.803 
L 154.502057 -52.727817 
L 155.634084 -52.67971 
L 156.766111 -52.574382 
L 157.898138 -52.469489 
L 159.030165 -52.389381 
L 160.162192 -52.309274 
L 161.294219 -52.229166 
L 161.294219 -70.381072 
L 161.294219 -70.381072 
L 160.162192 -70.278093 
L 159.030165 -70.174232 
L 157.898138 -70.07037 
L 156.766111 -69.966509 
L 155.634084 -69.862648 
L 154.502057 -69.758786 
L 153.370029 -69.654925 
L 152.238002 -69.551063 
L 151.105975 -69.44707 
L 149.973948 -69.342822 
L 148.841921 -69.238573 
L 147.709894 -69.134325 
L 146.577867 -69.030077 
L 145.44584 -68.925828 
L 144.313813 -68.82158 
L 143.181785 -68.717331 
L 142.049758 -68.613083 
L 140.917731 -68.508835 
L 139.785704 -68.404586 
L 138.653677 -68.300338 
L 137.52165 -68.196089 
L 136.389623 -68.091841 
L 135.257596 -67.987593 
L 134.125568 -67.883344 
L 132.993541 -67.778585 
L 131.861514 -67.67311 
L 130.729487 -67.569462 
L 129.59746 -67.466088 
L 128.465433 -67.350209 
L 127.333406 -67.181343 
L 126.201379 -67.10627 
L 125.069351 -67.003625 
L 123.937324 -66.928647 
L 122.805297 -66.806121 
L 121.67327 -66.722415 
L 120.541243 -66.631324 
L 119.409216 -66.527608 
L 118.277189 -66.423615 
L 117.145162 -66.318756 
L 116.013134 -66.193663 
L 114.881107 -66.063328 
L 113.74908 -65.932993 
L 112.617053 -65.802401 
L 111.485026 -65.707715 
L 110.352999 -65.637312 
L 109.220972 -65.568414 
L 108.088945 -65.485447 
L 106.956917 -65.399587 
L 105.82489 -65.293175 
L 104.692863 -65.172886 
L 103.560836 -65.080507 
L 102.428809 -64.964389 
L 101.296782 -64.866694 
L 100.164755 -64.788514 
L 99.032728 -64.711983 
L 97.900701 -64.671594 
L 96.768673 -64.666695 
L 95.636646 -64.615921 
L 94.504619 -64.514968 
L 93.372592 -64.436211 
L 92.240565 -64.432313 
L 91.108538 -64.38535 
L 89.976511 -64.334402 
L 88.844484 -64.303067 
L 87.712456 -64.224926 
L 86.580429 -64.127233 
L 85.448402 -64.114906 
L 84.316375 -64.047429 
L 83.184348 -64.060408 
L 82.052321 -64.023164 
L 80.920294 -64.035529 
L 79.788267 -64.04789 
L 78.656239 -64.135924 
L 77.524212 -64.191707 
L 76.392185 -64.188124 
L 75.260158 -64.254869 
L 74.128131 -64.328428 
L 72.996104 -64.276649 
L 71.864077 -64.243657 
L 70.73205 -64.330214 
L 69.600022 -64.423835 
L 68.467995 -64.440447 
L 67.335968 -64.514686 
L 66.203941 -64.570009 
L 65.071914 -64.675444 
L 63.939887 -64.721982 
L 62.80786 -64.834681 
L 61.675833 -64.885924 
L 60.543805 -64.930312 
L 59.411778 -65.006866 
L 58.279751 -65.08342 
L 57.147724 -65.159974 
L 56.015697 -65.236529 
L 54.88367 -65.312224 
L 53.751643 -65.38715 
L 52.619616 -65.505068 
L 51.487588 -65.640834 
L 50.355561 -65.763797 
L 49.223534 -65.807503 
z
" style="stroke: #ffffff; stroke-opacity: 0.15; stroke-width: 0.8"/>
    </defs>
    <g clip-path="url(#p77200a4605)">
     <use xlink:href="#m296526f5cc" x="0" y="180" style="fill: #1f77b4; fill-opacity: 0.15; stroke: #ffffff; stroke-opacity: 0.15; stroke-width: 0.8"/>
    </g>
   </g>
   <g id="line2d_16">
    <path d="M 49.223534 119.307238 
L 50.355561 119.31349 
L 51.487588 119.319742 
L 52.619616 119.325994 
L 53.751643 119.332246 
L 54.88367 119.338499 
L 56.015697 119.344751 
L 57.147724 119.351003 
L 58.279751 119.357255 
L 59.411778 119.363507 
L 60.543805 119.369759 
L 61.675833 119.376011 
L 62.80786 119.382263 
L 63.939887 119.388515 
L 65.071914 119.394767 
L 66.203941 119.40102 
L 67.335968 119.407272 
L 68.467995 119.413524 
L 69.600022 119.419776 
L 70.73205 119.426028 
L 71.864077 119.43228 
L 72.996104 119.438532 
L 74.128131 119.444784 
L 75.260158 119.451036 
L 76.392185 119.457288 
L 77.524212 119.463541 
L 78.656239 119.469793 
L 79.788267 119.476045 
L 80.920294 119.482297 
L 82.052321 119.488549 
L 83.184348 119.494801 
L 84.316375 119.501053 
L 85.448402 119.507305 
L 86.580429 119.513557 
L 87.712456 119.519809 
L 88.844484 119.526062 
L 89.976511 119.532314 
L 91.108538 119.538566 
L 92.240565 119.544818 
L 93.372592 119.55107 
L 94.504619 119.557322 
L 95.636646 119.563574 
L 96.768673 119.569826 
L 97.900701 119.576078 
L 99.032728 119.58233 
L 100.164755 119.588583 
L 101.296782 119.594835 
L 102.428809 119.601087 
L 103.560836 119.607339 
L 104.692863 119.613591 
L 105.82489 119.619843 
L 106.956917 119.626095 
L 108.088945 119.632347 
L 109.220972 119.638599 
L 110.352999 119.644851 
L 111.485026 119.651104 
L 112.617053 119.657356 
L 113.74908 119.663608 
L 114.881107 119.66986 
L 116.013134 119.676112 
L 117.145162 119.682364 
L 118.277189 119.688616 
L 119.409216 119.694868 
L 120.541243 119.70112 
L 121.67327 119.707372 
L 122.805297 119.713625 
L 123.937324 119.719877 
L 125.069351 119.726129 
L 126.201379 119.732381 
L 127.333406 119.738633 
L 128.465433 119.744885 
L 129.59746 119.751137 
L 130.729487 119.757389 
L 131.861514 119.763641 
L 132.993541 119.769893 
L 134.125568 119.776146 
L 135.257596 119.782398 
L 136.389623 119.78865 
L 137.52165 119.794902 
L 138.653677 119.801154 
L 139.785704 119.807406 
L 140.917731 119.813658 
L 142.049758 119.81991 
L 143.181785 119.826162 
L 144.313813 119.832414 
L 145.44584 119.838667 
L 146.577867 119.844919 
L 147.709894 119.851171 
L 148.841921 119.857423 
L 149.973948 119.863675 
L 151.105975 119.869927 
L 152.238002 119.876179 
L 153.370029 119.882431 
L 154.502057 119.888683 
L 155.634084 119.894935 
L 156.766111 119.901188 
L 157.898138 119.90744 
L 159.030165 119.913692 
L 160.162192 119.919944 
L 161.294219 119.926196 
" clip-path="url(#p77200a4605)" style="fill: none; stroke: #1f77b4; stroke-width: 1.8; stroke-linecap: round"/>
   </g>
   <g id="patch_3">
    <path d="M 43.62 138.18 
L 43.62 24.21375 
" style="fill: none; stroke: #cccccc; stroke-linejoin: miter; stroke-linecap: square"/>
   </g>
   <g id="patch_4">
    <path d="M 166.897754 138.18 
L 166.897754 24.21375 
" style="fill: none; stroke: #cccccc; stroke-linejoin: miter; stroke-linecap: square"/>
   </g>
   <g id="patch_5">
    <path d="M 43.62 138.18 
L 166.897754 138.18 
" style="fill: none; stroke: #cccccc; stroke-linejoin: miter; stroke-linecap: square"/>
   </g>
   <g id="patch_6">
    <path d="M 43.62 24.21375 
L 166.897754 24.21375 
" style="fill: none; stroke: #cccccc; stroke-linejoin: miter; stroke-linecap: square"/>
   </g>
   <g id="text_18">
    <!-- rho = -0.09 -->
    <g style="fill: #262626" transform="translate(117.586652 37.0855) scale(0.1 -0.1)">
     <defs>
      <path id="Helvetica-72" d="M 428 3347 
L 963 3347 
L 963 2769 
Q 1028 2938 1284 3180 
Q 1541 3422 1875 3422 
Q 1891 3422 1928 3419 
Q 1966 3416 2056 3406 
L 2056 2813 
Q 2006 2822 1964 2825 
Q 1922 2828 1872 2828 
Q 1447 2828 1219 2554 
Q 991 2281 991 1925 
L 991 0 
L 428 0 
L 428 3347 
z
" transform="scale(0.015625)"/>
      <path id="Helvetica-3d" d="M 3547 2569 
L 3547 2044 
L 288 2044 
L 288 2569 
L 3547 2569 
z
M 3547 1228 
L 3547 694 
L 288 694 
L 288 1228 
L 3547 1228 
z
" transform="scale(0.015625)"/>
      <path id="Helvetica-2d" d="M 266 2072 
L 1834 2072 
L 1834 1494 
L 266 1494 
L 266 2072 
z
" transform="scale(0.015625)"/>
      <path id="Helvetica-2e" d="M 547 681 
L 1200 681 
L 1200 0 
L 547 0 
L 547 681 
z
" transform="scale(0.015625)"/>
     </defs>
     <use xlink:href="#Helvetica-72"/>
     <use xlink:href="#Helvetica-68" x="33.300781"/>
     <use xlink:href="#Helvetica-6f" x="88.916016"/>
     <use xlink:href="#Helvetica-20" x="144.53125"/>
     <use xlink:href="#Helvetica-3d" x="172.314453"/>
     <use xlink:href="#Helvetica-20" x="230.712891"/>
     <use xlink:href="#Helvetica-2d" x="258.496094"/>
     <use xlink:href="#Helvetica-30" x="291.796875"/>
     <use xlink:href="#Helvetica-2e" x="347.412109"/>
     <use xlink:href="#Helvetica-30" x="375.195312"/>
     <use xlink:href="#Helvetica-39" x="430.810547"/>
    </g>
    <!-- p = 3.01e-01 -->
    <g style="fill: #262626" transform="translate(117.586652 47.778) scale(0.1 -0.1)">
     <use xlink:href="#Helvetica-70"/>
     <use xlink:href="#Helvetica-20" x="55.615234"/>
     <use xlink:href="#Helvetica-3d" x="83.398438"/>
     <use xlink:href="#Helvetica-20" x="141.796875"/>
     <use xlink:href="#Helvetica-33" x="169.580078"/>
     <use xlink:href="#Helvetica-2e" x="225.195312"/>
     <use xlink:href="#Helvetica-30" x="252.978516"/>
     <use xlink:href="#Helvetica-31" x="308.59375"/>
     <use xlink:href="#Helvetica-65" x="364.208984"/>
     <use xlink:href="#Helvetica-2d" x="419.824219"/>
     <use xlink:href="#Helvetica-30" x="453.125"/>
     <use xlink:href="#Helvetica-31" x="508.740234"/>
    </g>
   </g>
   <g id="text_19">
    <!-- AF2 LIS (no templates) vs agonist msa depth -->
    <g style="fill: #262626" transform="translate(5.216689 18.21375) scale(0.1 -0.1)">
     <defs>
      <path id="Helvetica-41" d="M 2844 1881 
L 2147 3909 
L 1406 1881 
L 2844 1881 
z
M 1822 4591 
L 2525 4591 
L 4191 0 
L 3509 0 
L 3044 1375 
L 1228 1375 
L 731 0 
L 94 0 
L 1822 4591 
z
" transform="scale(0.015625)"/>
      <path id="Helvetica-46" d="M 547 4591 
L 3731 4591 
L 3731 4028 
L 1169 4028 
L 1169 2634 
L 3422 2634 
L 3422 2088 
L 1169 2088 
L 1169 0 
L 547 0 
L 547 4591 
z
" transform="scale(0.015625)"/>
      <path id="Helvetica-4c" d="M 488 4591 
L 1109 4591 
L 1109 547 
L 3434 547 
L 3434 0 
L 488 0 
L 488 4591 
z
" transform="scale(0.015625)"/>
      <path id="Helvetica-49" d="M 628 4591 
L 1256 4591 
L 1256 0 
L 628 0 
L 628 4591 
z
" transform="scale(0.015625)"/>
      <path id="Helvetica-53" d="M 894 1481 
Q 916 1091 1078 847 
Q 1388 391 2169 391 
Q 2519 391 2806 491 
Q 3363 684 3363 1184 
Q 3363 1559 3128 1719 
Q 2891 1875 2384 1991 
L 1763 2131 
Q 1153 2269 900 2434 
Q 463 2722 463 3294 
Q 463 3913 891 4309 
Q 1319 4706 2103 4706 
Q 2825 4706 3329 4357 
Q 3834 4009 3834 3244 
L 3250 3244 
Q 3203 3613 3050 3809 
Q 2766 4169 2084 4169 
Q 1534 4169 1293 3937 
Q 1053 3706 1053 3400 
Q 1053 3063 1334 2906 
Q 1519 2806 2169 2656 
L 2813 2509 
Q 3278 2403 3531 2219 
Q 3969 1897 3969 1284 
Q 3969 522 3414 194 
Q 2859 -134 2125 -134 
Q 1269 -134 784 303 
Q 300 738 309 1481 
L 894 1481 
z
M 2150 4716 
L 2150 4716 
z
" transform="scale(0.015625)"/>
      <path id="Helvetica-28" d="M 1894 4666 
Q 1403 3713 1256 3263 
Q 1034 2578 1034 1681 
Q 1034 775 1288 25 
Q 1444 -438 1903 -1306 
L 1525 -1306 
Q 1069 -594 959 -397 
Q 850 -200 722 138 
Q 547 600 478 1125 
Q 444 1397 444 1644 
Q 444 2569 734 3291 
Q 919 3750 1503 4666 
L 1894 4666 
z
" transform="scale(0.015625)"/>
      <path id="Helvetica-6c" d="M 428 4591 
L 991 4591 
L 991 0 
L 428 0 
L 428 4591 
z
" transform="scale(0.015625)"/>
      <path id="Helvetica-29" d="M 222 -1306 
Q 719 -338 863 106 
Q 1081 778 1081 1681 
Q 1081 2584 828 3334 
Q 672 3797 213 4666 
L 591 4666 
Q 1072 3897 1173 3717 
Q 1275 3538 1394 3222 
Q 1544 2831 1608 2450 
Q 1672 2069 1672 1716 
Q 1672 791 1378 66 
Q 1194 -400 613 -1306 
L 222 -1306 
z
" transform="scale(0.015625)"/>
      <path id="Helvetica-76" d="M 688 3347 
L 1581 622 
L 2516 3347 
L 3131 3347 
L 1869 0 
L 1269 0 
L 34 3347 
L 688 3347 
z
" transform="scale(0.015625)"/>
     </defs>
     <use xlink:href="#Helvetica-41"/>
     <use xlink:href="#Helvetica-46" x="66.699219"/>
     <use xlink:href="#Helvetica-32" x="127.783203"/>
     <use xlink:href="#Helvetica-20" x="183.398438"/>
     <use xlink:href="#Helvetica-4c" x="211.181641"/>
     <use xlink:href="#Helvetica-49" x="266.796875"/>
     <use xlink:href="#Helvetica-53" x="294.580078"/>
     <use xlink:href="#Helvetica-20" x="361.279297"/>
     <use xlink:href="#Helvetica-28" x="389.0625"/>
     <use xlink:href="#Helvetica-6e" x="422.363281"/>
     <use xlink:href="#Helvetica-6f" x="477.978516"/>
     <use xlink:href="#Helvetica-20" x="533.59375"/>
     <use xlink:href="#Helvetica-74" x="561.376953"/>
     <use xlink:href="#Helvetica-65" x="589.160156"/>
     <use xlink:href="#Helvetica-6d" x="644.775391"/>
     <use xlink:href="#Helvetica-70" x="728.076172"/>
     <use xlink:href="#Helvetica-6c" x="783.691406"/>
     <use xlink:href="#Helvetica-61" x="805.908203"/>
     <use xlink:href="#Helvetica-74" x="861.523438"/>
     <use xlink:href="#Helvetica-65" x="889.306641"/>
     <use xlink:href="#Helvetica-73" x="944.921875"/>
     <use xlink:href="#Helvetica-29" x="994.921875"/>
     <use xlink:href="#Helvetica-20" x="1028.222656"/>
     <use xlink:href="#Helvetica-76" x="1056.005859"/>
     <use xlink:href="#Helvetica-73" x="1106.005859"/>
     <use xlink:href="#Helvetica-20" x="1156.005859"/>
     <use xlink:href="#Helvetica-61" x="1183.789062"/>
     <use xlink:href="#Helvetica-67" x="1239.404297"/>
     <use xlink:href="#Helvetica-6f" x="1295.019531"/>
     <use xlink:href="#Helvetica-6e" x="1350.634766"/>
     <use xlink:href="#Helvetica-69" x="1406.25"/>
     <use xlink:href="#Helvetica-73" x="1428.466797"/>
     <use xlink:href="#Helvetica-74" x="1478.466797"/>
     <use xlink:href="#Helvetica-20" x="1506.25"/>
     <use xlink:href="#Helvetica-6d" x="1534.033203"/>
     <use xlink:href="#Helvetica-73" x="1617.333984"/>
     <use xlink:href="#Helvetica-61" x="1667.333984"/>
     <use xlink:href="#Helvetica-20" x="1722.949219"/>
     <use xlink:href="#Helvetica-64" x="1750.732422"/>
     <use xlink:href="#Helvetica-65" x="1806.347656"/>
     <use xlink:href="#Helvetica-70" x="1861.962891"/>
     <use xlink:href="#Helvetica-74" x="1917.578125"/>
     <use xlink:href="#Helvetica-68" x="1945.361328"/>
    </g>
   </g>
  </g>
 </g>
 <defs>
  <clipPath id="p77200a4605">
   <rect x="43.62" y="24.21375" width="123.277754" height="113.96625"/>
  </clipPath>
 </defs>
</svg>
