<?xml version="1.0" encoding="utf-8" standalone="no"?>
<!DOCTYPE svg PUBLIC "-//W3C//DTD SVG 1.1//EN"
  "http://www.w3.org/Graphics/SVG/1.1/DTD/svg11.dtd">
<svg xmlns:xlink="http://www.w3.org/1999/xlink" width="180pt" height="180pt" viewBox="0 0 180 180" xmlns="http://www.w3.org/2000/svg" version="1.1">
 <metadata>
  <rdf:RDF xmlns:dc="http://purl.org/dc/elements/1.1/" xmlns:cc="http://creativecommons.org/ns#" xmlns:rdf="http://www.w3.org/1999/02/22-rdf-syntax-ns#">
   <cc:Work>
    <dc:type rdf:resource="http://purl.org/dc/dcmitype/StillImage"/>
    <dc:date>2024-11-12T13:43:57.981271</dc:date>
    <dc:format>image/svg+xml</dc:format>
    <dc:creator>
     <cc:Agent>
      <dc:title>Matplotlib v3.6.3, https://matplotlib.org/</dc:title>
     </cc:Agent>
    </dc:creator>
   </cc:Work>
  </rdf:RDF>
 </metadata>
 <defs>
  <style type="text/css">*{stroke-linejoin: round; stroke-linecap: butt}</style>
 </defs>
 <g id="figure_1">
  <g id="patch_1">
   <path d="M 0 180 
L 180 180 
L 180 0 
L 0 0 
z
" style="fill: #ffffff"/>
  </g>
  <g id="axes_1">
   <g id="patch_2">
    <path d="M 43.62 138.18 
L 168.57 138.18 
L 168.57 24.21375 
L 43.62 24.21375 
z
" style="fill: #ffffff"/>
   </g>
   <g id="matplotlib.axis_1">
    <g id="xtick_1">
     <g id="line2d_1">
      <path d="M 48.378538 138.18 
L 48.378538 24.21375 
" clip-path="url(#pf6d7913e3c)" style="fill: none; stroke: #cccccc; stroke-width: 0.8; stroke-linecap: round"/>
     </g>
     <g id="text_1">
      <!-- 0 -->
      <g style="fill: #262626" transform="translate(45.598069 153.653437) scale(0.1 -0.1)">
       <defs>
        <path id="Helvetica-30" d="M 1731 4475 
Q 2600 4475 2988 3759 
Q 3288 3206 3288 2244 
Q 3288 1331 3016 734 
Q 2622 -122 1728 -122 
Q 922 -122 528 578 
Q 200 1163 200 2147 
Q 200 2909 397 3456 
Q 766 4475 1731 4475 
z
M 1725 391 
Q 2163 391 2422 778 
Q 2681 1166 2681 2222 
Q 2681 2984 2493 3476 
Q 2306 3969 1766 3969 
Q 1269 3969 1039 3501 
Q 809 3034 809 2125 
Q 809 1441 956 1025 
Q 1181 391 1725 391 
z
" transform="scale(0.015625)"/>
       </defs>
       <use xlink:href="#Helvetica-30"/>
      </g>
     </g>
    </g>
    <g id="xtick_2">
     <g id="line2d_2">
      <path d="M 109.779029 138.18 
L 109.779029 24.21375 
" clip-path="url(#pf6d7913e3c)" style="fill: none; stroke: #cccccc; stroke-width: 0.8; stroke-linecap: round"/>
     </g>
     <g id="text_2">
      <!-- 200 -->
      <g style="fill: #262626" transform="translate(101.437623 153.653437) scale(0.1 -0.1)">
       <defs>
        <path id="Helvetica-32" d="M 200 0 
Q 231 578 439 1006 
Q 647 1434 1250 1784 
L 1850 2131 
Q 2253 2366 2416 2531 
Q 2672 2791 2672 3125 
Q 2672 3516 2437 3745 
Q 2203 3975 1813 3975 
Q 1234 3975 1013 3538 
Q 894 3303 881 2888 
L 309 2888 
Q 319 3472 525 3841 
Q 891 4491 1816 4491 
Q 2584 4491 2939 4075 
Q 3294 3659 3294 3150 
Q 3294 2613 2916 2231 
Q 2697 2009 2131 1694 
L 1703 1456 
Q 1397 1288 1222 1134 
Q 909 863 828 531 
L 3272 531 
L 3272 0 
L 200 0 
z
" transform="scale(0.015625)"/>
       </defs>
       <use xlink:href="#Helvetica-32"/>
       <use xlink:href="#Helvetica-30" x="55.615234"/>
       <use xlink:href="#Helvetica-30" x="111.230469"/>
      </g>
     </g>
    </g>
    <g id="text_3">
     <!-- agonist length -->
     <g style="fill: #262626" transform="translate(74.962187 166.934687) scale(0.1 -0.1)">
      <defs>
       <path id="Helvetica-61" d="M 844 891 
Q 844 647 1022 506 
Q 1200 366 1444 366 
Q 1741 366 2019 503 
Q 2488 731 2488 1250 
L 2488 1703 
Q 2384 1638 2221 1594 
Q 2059 1550 1903 1531 
L 1563 1488 
Q 1256 1447 1103 1359 
Q 844 1213 844 891 
z
M 2206 2028 
Q 2400 2053 2466 2191 
Q 2503 2266 2503 2406 
Q 2503 2694 2298 2823 
Q 2094 2953 1713 2953 
Q 1272 2953 1088 2716 
Q 984 2584 953 2325 
L 428 2325 
Q 444 2944 830 3186 
Q 1216 3428 1725 3428 
Q 2316 3428 2684 3203 
Q 3050 2978 3050 2503 
L 3050 575 
Q 3050 488 3086 434 
Q 3122 381 3238 381 
Q 3275 381 3322 386 
Q 3369 391 3422 400 
L 3422 -16 
Q 3291 -53 3222 -62 
Q 3153 -72 3034 -72 
Q 2744 -72 2613 134 
Q 2544 244 2516 444 
Q 2344 219 2022 53 
Q 1700 -113 1313 -113 
Q 847 -113 551 170 
Q 256 453 256 878 
Q 256 1344 547 1600 
Q 838 1856 1309 1916 
L 2206 2028 
z
M 1741 3428 
L 1741 3428 
z
" transform="scale(0.015625)"/>
       <path id="Helvetica-67" d="M 1594 3406 
Q 1988 3406 2281 3213 
Q 2441 3103 2606 2894 
L 2606 3316 
L 3125 3316 
L 3125 272 
Q 3125 -366 2938 -734 
Q 2588 -1416 1616 -1416 
Q 1075 -1416 706 -1173 
Q 338 -931 294 -416 
L 866 -416 
Q 906 -641 1028 -763 
Q 1219 -950 1628 -950 
Q 2275 -950 2475 -494 
Q 2594 -225 2584 466 
Q 2416 209 2178 84 
Q 1941 -41 1550 -41 
Q 1006 -41 598 345 
Q 191 731 191 1622 
Q 191 2463 602 2934 
Q 1013 3406 1594 3406 
z
M 2606 1688 
Q 2606 2309 2350 2609 
Q 2094 2909 1697 2909 
Q 1103 2909 884 2353 
Q 769 2056 769 1575 
Q 769 1009 998 714 
Q 1228 419 1616 419 
Q 2222 419 2469 966 
Q 2606 1275 2606 1688 
z
M 1659 3428 
L 1659 3428 
z
" transform="scale(0.015625)"/>
       <path id="Helvetica-6f" d="M 1741 363 
Q 2300 363 2508 786 
Q 2716 1209 2716 1728 
Q 2716 2197 2566 2491 
Q 2328 2953 1747 2953 
Q 1231 2953 997 2559 
Q 763 2166 763 1609 
Q 763 1075 997 719 
Q 1231 363 1741 363 
z
M 1763 3444 
Q 2409 3444 2856 3012 
Q 3303 2581 3303 1744 
Q 3303 934 2909 406 
Q 2516 -122 1688 -122 
Q 997 -122 590 345 
Q 184 813 184 1600 
Q 184 2444 612 2944 
Q 1041 3444 1763 3444 
z
M 1744 3428 
L 1744 3428 
z
" transform="scale(0.015625)"/>
       <path id="Helvetica-6e" d="M 413 3347 
L 947 3347 
L 947 2872 
Q 1184 3166 1450 3294 
Q 1716 3422 2041 3422 
Q 2753 3422 3003 2925 
Q 3141 2653 3141 2147 
L 3141 0 
L 2569 0 
L 2569 2109 
Q 2569 2416 2478 2603 
Q 2328 2916 1934 2916 
Q 1734 2916 1606 2875 
Q 1375 2806 1200 2600 
Q 1059 2434 1017 2257 
Q 975 2081 975 1753 
L 975 0 
L 413 0 
L 413 3347 
z
M 1734 3428 
L 1734 3428 
z
" transform="scale(0.015625)"/>
       <path id="Helvetica-69" d="M 413 3331 
L 984 3331 
L 984 0 
L 413 0 
L 413 3331 
z
M 413 4591 
L 984 4591 
L 984 3953 
L 413 3953 
L 413 4591 
z
" transform="scale(0.015625)"/>
       <path id="Helvetica-73" d="M 747 1050 
Q 772 769 888 619 
Q 1100 347 1625 347 
Q 1938 347 2175 483 
Q 2413 619 2413 903 
Q 2413 1119 2222 1231 
Q 2100 1300 1741 1391 
L 1294 1503 
Q 866 1609 663 1741 
Q 300 1969 300 2372 
Q 300 2847 642 3140 
Q 984 3434 1563 3434 
Q 2319 3434 2653 2991 
Q 2863 2709 2856 2384 
L 2325 2384 
Q 2309 2575 2191 2731 
Q 1997 2953 1519 2953 
Q 1200 2953 1036 2831 
Q 872 2709 872 2509 
Q 872 2291 1088 2159 
Q 1213 2081 1456 2022 
L 1828 1931 
Q 2434 1784 2641 1647 
Q 2969 1431 2969 969 
Q 2969 522 2630 197 
Q 2291 -128 1597 -128 
Q 850 -128 539 211 
Q 228 550 206 1050 
L 747 1050 
z
M 1578 3428 
L 1578 3428 
z
" transform="scale(0.015625)"/>
       <path id="Helvetica-74" d="M 525 4281 
L 1094 4281 
L 1094 3347 
L 1628 3347 
L 1628 2888 
L 1094 2888 
L 1094 703 
Q 1094 528 1213 469 
Q 1278 434 1431 434 
Q 1472 434 1519 436 
Q 1566 438 1628 444 
L 1628 0 
Q 1531 -28 1426 -40 
Q 1322 -53 1200 -53 
Q 806 -53 665 148 
Q 525 350 525 672 
L 525 2888 
L 72 2888 
L 72 3347 
L 525 3347 
L 525 4281 
z
" transform="scale(0.015625)"/>
       <path id="Helvetica-20" transform="scale(0.015625)"/>
       <path id="Helvetica-6c" d="M 428 4591 
L 991 4591 
L 991 0 
L 428 0 
L 428 4591 
z
" transform="scale(0.015625)"/>
       <path id="Helvetica-65" d="M 1806 3422 
Q 2163 3422 2497 3255 
Q 2831 3088 3006 2822 
Q 3175 2569 3231 2231 
Q 3281 2000 3281 1494 
L 828 1494 
Q 844 984 1069 676 
Q 1294 369 1766 369 
Q 2206 369 2469 659 
Q 2619 828 2681 1050 
L 3234 1050 
Q 3213 866 3089 639 
Q 2966 413 2813 269 
Q 2556 19 2178 -69 
Q 1975 -119 1719 -119 
Q 1094 -119 659 336 
Q 225 791 225 1609 
Q 225 2416 662 2919 
Q 1100 3422 1806 3422 
z
M 2703 1941 
Q 2669 2306 2544 2525 
Q 2313 2931 1772 2931 
Q 1384 2931 1121 2651 
Q 859 2372 844 1941 
L 2703 1941 
z
M 1753 3428 
L 1753 3428 
z
" transform="scale(0.015625)"/>
       <path id="Helvetica-68" d="M 413 4606 
L 975 4606 
L 975 2894 
Q 1175 3147 1334 3250 
Q 1606 3428 2013 3428 
Q 2741 3428 3000 2919 
Q 3141 2641 3141 2147 
L 3141 0 
L 2563 0 
L 2563 2109 
Q 2563 2478 2469 2650 
Q 2316 2925 1894 2925 
Q 1544 2925 1259 2684 
Q 975 2444 975 1775 
L 975 0 
L 413 0 
L 413 4606 
z
" transform="scale(0.015625)"/>
      </defs>
      <use xlink:href="#Helvetica-61"/>
      <use xlink:href="#Helvetica-67" x="55.615234"/>
      <use xlink:href="#Helvetica-6f" x="111.230469"/>
      <use xlink:href="#Helvetica-6e" x="166.845703"/>
      <use xlink:href="#Helvetica-69" x="222.460938"/>
      <use xlink:href="#Helvetica-73" x="244.677734"/>
      <use xlink:href="#Helvetica-74" x="294.677734"/>
      <use xlink:href="#Helvetica-20" x="322.460938"/>
      <use xlink:href="#Helvetica-6c" x="350.244141"/>
      <use xlink:href="#Helvetica-65" x="372.460938"/>
      <use xlink:href="#Helvetica-6e" x="428.076172"/>
      <use xlink:href="#Helvetica-67" x="483.691406"/>
      <use xlink:href="#Helvetica-74" x="539.306641"/>
      <use xlink:href="#Helvetica-68" x="567.089844"/>
     </g>
    </g>
   </g>
   <g id="matplotlib.axis_2">
    <g id="ytick_1">
     <g id="line2d_3">
      <path d="M 43.62 138.18 
L 168.57 138.18 
" clip-path="url(#pf6d7913e3c)" style="fill: none; stroke: #cccccc; stroke-width: 0.8; stroke-linecap: round"/>
     </g>
     <g id="text_4">
      <!-- 0 -->
      <g style="fill: #262626" transform="translate(29.759063 141.766719) scale(0.1 -0.1)">
       <use xlink:href="#Helvetica-30"/>
      </g>
     </g>
    </g>
    <g id="ytick_2">
     <g id="line2d_4">
      <path d="M 43.62 128.385806 
L 168.57 128.385806 
" clip-path="url(#pf6d7913e3c)" style="fill: none; stroke: #cccccc; stroke-width: 0.8; stroke-linecap: round"/>
     </g>
     <g id="text_5">
      <!-- 1 -->
      <g style="fill: #262626" transform="translate(29.759063 131.972525) scale(0.1 -0.1)">
       <defs>
        <path id="Helvetica-31" d="M 613 3169 
L 613 3600 
Q 1222 3659 1462 3798 
Q 1703 3938 1822 4456 
L 2266 4456 
L 2266 0 
L 1666 0 
L 1666 3169 
L 613 3169 
z
" transform="scale(0.015625)"/>
       </defs>
       <use xlink:href="#Helvetica-31"/>
      </g>
     </g>
    </g>
    <g id="ytick_3">
     <g id="line2d_5">
      <path d="M 43.62 118.591613 
L 168.57 118.591613 
" clip-path="url(#pf6d7913e3c)" style="fill: none; stroke: #cccccc; stroke-width: 0.8; stroke-linecap: round"/>
     </g>
     <g id="text_6">
      <!-- 2 -->
      <g style="fill: #262626" transform="translate(29.759063 122.178332) scale(0.1 -0.1)">
       <use xlink:href="#Helvetica-32"/>
      </g>
     </g>
    </g>
    <g id="ytick_4">
     <g id="line2d_6">
      <path d="M 43.62 108.797419 
L 168.57 108.797419 
" clip-path="url(#pf6d7913e3c)" style="fill: none; stroke: #cccccc; stroke-width: 0.8; stroke-linecap: round"/>
     </g>
     <g id="text_7">
      <!-- 3 -->
      <g style="fill: #262626" transform="translate(29.759063 112.384138) scale(0.1 -0.1)">
       <defs>
        <path id="Helvetica-33" d="M 1663 -122 
Q 869 -122 511 314 
Q 153 750 153 1375 
L 741 1375 
Q 778 941 903 744 
Q 1122 391 1694 391 
Q 2138 391 2406 628 
Q 2675 866 2675 1241 
Q 2675 1703 2392 1887 
Q 2109 2072 1606 2072 
Q 1550 2072 1492 2070 
Q 1434 2069 1375 2066 
L 1375 2563 
Q 1463 2553 1522 2550 
Q 1581 2547 1650 2547 
Q 1966 2547 2169 2647 
Q 2525 2822 2525 3272 
Q 2525 3606 2287 3787 
Q 2050 3969 1734 3969 
Q 1172 3969 956 3594 
Q 838 3388 822 3006 
L 266 3006 
Q 266 3506 466 3856 
Q 809 4481 1675 4481 
Q 2359 4481 2734 4176 
Q 3109 3872 3109 3294 
Q 3109 2881 2888 2625 
Q 2750 2466 2531 2375 
Q 2884 2278 3082 2001 
Q 3281 1725 3281 1325 
Q 3281 684 2859 281 
Q 2438 -122 1663 -122 
z
" transform="scale(0.015625)"/>
       </defs>
       <use xlink:href="#Helvetica-33"/>
      </g>
     </g>
    </g>
    <g id="ytick_5">
     <g id="line2d_7">
      <path d="M 43.62 99.003226 
L 168.57 99.003226 
" clip-path="url(#pf6d7913e3c)" style="fill: none; stroke: #cccccc; stroke-width: 0.8; stroke-linecap: round"/>
     </g>
     <g id="text_8">
      <!-- 4 -->
      <g style="fill: #262626" transform="translate(29.759063 102.589945) scale(0.1 -0.1)">
       <defs>
        <path id="Helvetica-34" d="M 2116 1584 
L 2116 3613 
L 681 1584 
L 2116 1584 
z
M 2125 0 
L 2125 1094 
L 163 1094 
L 163 1644 
L 2213 4488 
L 2688 4488 
L 2688 1584 
L 3347 1584 
L 3347 1094 
L 2688 1094 
L 2688 0 
L 2125 0 
z
" transform="scale(0.015625)"/>
       </defs>
       <use xlink:href="#Helvetica-34"/>
      </g>
     </g>
    </g>
    <g id="ytick_6">
     <g id="line2d_8">
      <path d="M 43.62 89.209032 
L 168.57 89.209032 
" clip-path="url(#pf6d7913e3c)" style="fill: none; stroke: #cccccc; stroke-width: 0.8; stroke-linecap: round"/>
     </g>
     <g id="text_9">
      <!-- 5 -->
      <g style="fill: #262626" transform="translate(29.759063 92.795751) scale(0.1 -0.1)">
       <defs>
        <path id="Helvetica-35" d="M 791 1141 
Q 847 659 1238 475 
Q 1438 381 1700 381 
Q 2200 381 2440 700 
Q 2681 1019 2681 1406 
Q 2681 1875 2395 2131 
Q 2109 2388 1709 2388 
Q 1419 2388 1211 2275 
Q 1003 2163 856 1963 
L 369 1991 
L 709 4400 
L 3034 4400 
L 3034 3856 
L 1131 3856 
L 941 2613 
Q 1097 2731 1238 2791 
Q 1488 2894 1816 2894 
Q 2431 2894 2859 2497 
Q 3288 2100 3288 1491 
Q 3288 856 2895 371 
Q 2503 -113 1644 -113 
Q 1097 -113 676 195 
Q 256 503 206 1141 
L 791 1141 
z
" transform="scale(0.015625)"/>
       </defs>
       <use xlink:href="#Helvetica-35"/>
      </g>
     </g>
    </g>
    <g id="ytick_7">
     <g id="line2d_9">
      <path d="M 43.62 79.414839 
L 168.57 79.414839 
" clip-path="url(#pf6d7913e3c)" style="fill: none; stroke: #cccccc; stroke-width: 0.8; stroke-linecap: round"/>
     </g>
     <g id="text_10">
      <!-- 6 -->
      <g style="fill: #262626" transform="translate(29.759063 83.001558) scale(0.1 -0.1)">
       <defs>
        <path id="Helvetica-36" d="M 1872 4494 
Q 2622 4494 2917 4105 
Q 3213 3716 3213 3303 
L 2656 3303 
Q 2606 3569 2497 3719 
Q 2294 4000 1881 4000 
Q 1409 4000 1131 3564 
Q 853 3128 822 2316 
Q 1016 2600 1309 2741 
Q 1578 2866 1909 2866 
Q 2472 2866 2890 2506 
Q 3309 2147 3309 1434 
Q 3309 825 2912 354 
Q 2516 -116 1781 -116 
Q 1153 -116 697 361 
Q 241 838 241 1966 
Q 241 2800 444 3381 
Q 834 4494 1872 4494 
z
M 1831 384 
Q 2275 384 2495 682 
Q 2716 981 2716 1388 
Q 2716 1731 2519 2042 
Q 2322 2353 1803 2353 
Q 1441 2353 1167 2112 
Q 894 1872 894 1388 
Q 894 963 1142 673 
Q 1391 384 1831 384 
z
" transform="scale(0.015625)"/>
       </defs>
       <use xlink:href="#Helvetica-36"/>
      </g>
     </g>
    </g>
    <g id="ytick_8">
     <g id="line2d_10">
      <path d="M 43.62 69.620645 
L 168.57 69.620645 
" clip-path="url(#pf6d7913e3c)" style="fill: none; stroke: #cccccc; stroke-width: 0.8; stroke-linecap: round"/>
     </g>
     <g id="text_11">
      <!-- 7 -->
      <g style="fill: #262626" transform="translate(29.759063 73.207364) scale(0.1 -0.1)">
       <defs>
        <path id="Helvetica-37" d="M 3347 4400 
L 3347 3909 
Q 3131 3700 2773 3181 
Q 2416 2663 2141 2063 
Q 1869 1478 1728 997 
Q 1638 688 1494 0 
L 872 0 
Q 1084 1281 1809 2550 
Q 2238 3294 2709 3834 
L 234 3834 
L 234 4400 
L 3347 4400 
z
" transform="scale(0.015625)"/>
       </defs>
       <use xlink:href="#Helvetica-37"/>
      </g>
     </g>
    </g>
    <g id="ytick_9">
     <g id="line2d_11">
      <path d="M 43.62 59.826452 
L 168.57 59.826452 
" clip-path="url(#pf6d7913e3c)" style="fill: none; stroke: #cccccc; stroke-width: 0.8; stroke-linecap: round"/>
     </g>
     <g id="text_12">
      <!-- 8 -->
      <g style="fill: #262626" transform="translate(29.759063 63.413171) scale(0.1 -0.1)">
       <defs>
        <path id="Helvetica-38" d="M 1741 2600 
Q 2113 2600 2322 2808 
Q 2531 3016 2531 3303 
Q 2531 3553 2331 3762 
Q 2131 3972 1722 3972 
Q 1316 3972 1134 3762 
Q 953 3553 953 3272 
Q 953 2956 1187 2778 
Q 1422 2600 1741 2600 
z
M 1775 384 
Q 2166 384 2423 595 
Q 2681 806 2681 1225 
Q 2681 1659 2415 1884 
Q 2150 2109 1734 2109 
Q 1331 2109 1076 1879 
Q 822 1650 822 1244 
Q 822 894 1055 639 
Q 1288 384 1775 384 
z
M 975 2384 
Q 741 2484 609 2619 
Q 363 2869 363 3269 
Q 363 3769 725 4128 
Q 1088 4488 1753 4488 
Q 2397 4488 2762 4148 
Q 3128 3809 3128 3356 
Q 3128 2938 2916 2678 
Q 2797 2531 2547 2391 
Q 2825 2263 2984 2097 
Q 3281 1784 3281 1284 
Q 3281 694 2884 283 
Q 2488 -128 1763 -128 
Q 1109 -128 657 226 
Q 206 581 206 1256 
Q 206 1653 400 1942 
Q 594 2231 975 2384 
z
" transform="scale(0.015625)"/>
       </defs>
       <use xlink:href="#Helvetica-38"/>
      </g>
     </g>
    </g>
    <g id="ytick_10">
     <g id="line2d_12">
      <path d="M 43.62 50.032258 
L 168.57 50.032258 
" clip-path="url(#pf6d7913e3c)" style="fill: none; stroke: #cccccc; stroke-width: 0.8; stroke-linecap: round"/>
     </g>
     <g id="text_13">
      <!-- 9 -->
      <g style="fill: #262626" transform="translate(29.759063 53.618977) scale(0.1 -0.1)">
       <defs>
        <path id="Helvetica-39" d="M 850 1081 
Q 875 616 1209 438 
Q 1381 344 1597 344 
Q 2000 344 2284 680 
Q 2569 1016 2688 2044 
Q 2500 1747 2223 1626 
Q 1947 1506 1628 1506 
Q 981 1506 604 1909 
Q 228 2313 228 2947 
Q 228 3556 600 4018 
Q 972 4481 1697 4481 
Q 2675 4481 3047 3600 
Q 3253 3116 3253 2388 
Q 3253 1566 3006 931 
Q 2597 -125 1619 -125 
Q 963 -125 622 219 
Q 281 563 281 1081 
L 850 1081 
z
M 1703 2000 
Q 2038 2000 2314 2220 
Q 2591 2441 2591 2991 
Q 2591 3484 2342 3726 
Q 2094 3969 1709 3969 
Q 1297 3969 1055 3692 
Q 813 3416 813 2953 
Q 813 2516 1025 2258 
Q 1238 2000 1703 2000 
z
" transform="scale(0.015625)"/>
       </defs>
       <use xlink:href="#Helvetica-39"/>
      </g>
     </g>
    </g>
    <g id="ytick_11">
     <g id="line2d_13">
      <path d="M 43.62 40.238065 
L 168.57 40.238065 
" clip-path="url(#pf6d7913e3c)" style="fill: none; stroke: #cccccc; stroke-width: 0.8; stroke-linecap: round"/>
     </g>
     <g id="text_14">
      <!-- 10 -->
      <g style="fill: #262626" transform="translate(24.198125 43.824784) scale(0.1 -0.1)">
       <use xlink:href="#Helvetica-31"/>
       <use xlink:href="#Helvetica-30" x="55.615234"/>
      </g>
     </g>
    </g>
    <g id="ytick_12">
     <g id="line2d_14">
      <path d="M 43.62 30.443871 
L 168.57 30.443871 
" clip-path="url(#pf6d7913e3c)" style="fill: none; stroke: #cccccc; stroke-width: 0.8; stroke-linecap: round"/>
     </g>
     <g id="text_15">
      <!-- 11 -->
      <g style="fill: #262626" transform="translate(24.198125 34.03059) scale(0.1 -0.1)">
       <use xlink:href="#Helvetica-31"/>
       <use xlink:href="#Helvetica-31" x="55.615234"/>
      </g>
     </g>
    </g>
    <g id="text_16">
     <!-- Rank -->
     <g style="fill: #262626" transform="translate(18.11375 92.86875) rotate(-90) scale(0.1 -0.1)">
      <defs>
       <path id="Helvetica-52" d="M 2622 2488 
Q 3059 2488 3314 2663 
Q 3569 2838 3569 3294 
Q 3569 3784 3213 3963 
Q 3022 4056 2703 4056 
L 1184 4056 
L 1184 2488 
L 2622 2488 
z
M 563 4591 
L 2688 4591 
Q 3213 4591 3553 4438 
Q 4200 4144 4200 3353 
Q 4200 2941 4029 2678 
Q 3859 2416 3553 2256 
Q 3822 2147 3958 1969 
Q 4094 1791 4109 1391 
L 4131 775 
Q 4141 513 4175 384 
Q 4231 166 4375 103 
L 4375 0 
L 3613 0 
Q 3581 59 3562 153 
Q 3544 247 3531 516 
L 3494 1281 
Q 3472 1731 3159 1884 
Q 2981 1969 2600 1969 
L 1184 1969 
L 1184 0 
L 563 0 
L 563 4591 
z
" transform="scale(0.015625)"/>
       <path id="Helvetica-6b" d="M 400 4591 
L 941 4591 
L 941 1925 
L 2384 3347 
L 3103 3347 
L 1822 2094 
L 3175 0 
L 2456 0 
L 1413 1688 
L 941 1256 
L 941 0 
L 400 0 
L 400 4591 
z
" transform="scale(0.015625)"/>
      </defs>
      <use xlink:href="#Helvetica-52"/>
      <use xlink:href="#Helvetica-61" x="72.216797"/>
      <use xlink:href="#Helvetica-6e" x="127.832031"/>
      <use xlink:href="#Helvetica-6b" x="183.447266"/>
     </g>
    </g>
   </g>
   <g id="PathCollection_1">
    <defs>
     <path id="m8eec0eed90" d="M 0 2.4 
C 0.636487 2.4 1.246992 2.147121 1.697056 1.697056 
C 2.147121 1.246992 2.4 0.636487 2.4 0 
C 2.4 -0.636487 2.147121 -1.246992 1.697056 -1.697056 
C 1.246992 -2.147121 0.636487 -2.4 0 -2.4 
C -0.636487 -2.4 -1.246992 -2.147121 -1.697056 -1.697056 
C -2.147121 -1.246992 -2.4 -0.636487 -2.4 0 
C -2.4 0.636487 -2.147121 1.246992 -1.697056 1.697056 
C -1.246992 2.147121 -0.636487 2.4 0 2.4 
z
" style="stroke: #1f77b4; stroke-opacity: 0.5"/>
    </defs>
    <g clip-path="url(#pf6d7913e3c)">
     <use xlink:href="#m8eec0eed90" x="69.254705" y="107.022555" style="fill: #1f77b4; fill-opacity: 0.5; stroke: #1f77b4; stroke-opacity: 0.5"/>
     <use xlink:href="#m8eec0eed90" x="75.087752" y="129.189804" style="fill: #1f77b4; fill-opacity: 0.5; stroke: #1f77b4; stroke-opacity: 0.5"/>
     <use xlink:href="#m8eec0eed90" x="72.017727" y="128.976272" style="fill: #1f77b4; fill-opacity: 0.5; stroke: #1f77b4; stroke-opacity: 0.5"/>
     <use xlink:href="#m8eec0eed90" x="71.09672" y="127.975402" style="fill: #1f77b4; fill-opacity: 0.5; stroke: #1f77b4; stroke-opacity: 0.5"/>
     <use xlink:href="#m8eec0eed90" x="117.454091" y="129.377485" style="fill: #1f77b4; fill-opacity: 0.5; stroke: #1f77b4; stroke-opacity: 0.5"/>
     <use xlink:href="#m8eec0eed90" x="70.789717" y="128.509414" style="fill: #1f77b4; fill-opacity: 0.5; stroke: #1f77b4; stroke-opacity: 0.5"/>
     <use xlink:href="#m8eec0eed90" x="69.254705" y="128.529531" style="fill: #1f77b4; fill-opacity: 0.5; stroke: #1f77b4; stroke-opacity: 0.5"/>
     <use xlink:href="#m8eec0eed90" x="69.561708" y="69.638286" style="fill: #1f77b4; fill-opacity: 0.5; stroke: #1f77b4; stroke-opacity: 0.5"/>
     <use xlink:href="#m8eec0eed90" x="72.017727" y="128.535062" style="fill: #1f77b4; fill-opacity: 0.5; stroke: #1f77b4; stroke-opacity: 0.5"/>
     <use xlink:href="#m8eec0eed90" x="55.439595" y="128.523926" style="fill: #1f77b4; fill-opacity: 0.5; stroke: #1f77b4; stroke-opacity: 0.5"/>
     <use xlink:href="#m8eec0eed90" x="69.254705" y="98.707586" style="fill: #1f77b4; fill-opacity: 0.5; stroke: #1f77b4; stroke-opacity: 0.5"/>
     <use xlink:href="#m8eec0eed90" x="69.86871" y="116.929352" style="fill: #1f77b4; fill-opacity: 0.5; stroke: #1f77b4; stroke-opacity: 0.5"/>
     <use xlink:href="#m8eec0eed90" x="87.36785" y="117.369324" style="fill: #1f77b4; fill-opacity: 0.5; stroke: #1f77b4; stroke-opacity: 0.5"/>
     <use xlink:href="#m8eec0eed90" x="70.175713" y="126.539078" style="fill: #1f77b4; fill-opacity: 0.5; stroke: #1f77b4; stroke-opacity: 0.5"/>
     <use xlink:href="#m8eec0eed90" x="76.622764" y="78.812704" style="fill: #1f77b4; fill-opacity: 0.5; stroke: #1f77b4; stroke-opacity: 0.5"/>
     <use xlink:href="#m8eec0eed90" x="70.789717" y="126.901563" style="fill: #1f77b4; fill-opacity: 0.5; stroke: #1f77b4; stroke-opacity: 0.5"/>
     <use xlink:href="#m8eec0eed90" x="69.254705" y="117.611486" style="fill: #1f77b4; fill-opacity: 0.5; stroke: #1f77b4; stroke-opacity: 0.5"/>
     <use xlink:href="#m8eec0eed90" x="70.789717" y="116.775296" style="fill: #1f77b4; fill-opacity: 0.5; stroke: #1f77b4; stroke-opacity: 0.5"/>
     <use xlink:href="#m8eec0eed90" x="89.516867" y="128.217883" style="fill: #1f77b4; fill-opacity: 0.5; stroke: #1f77b4; stroke-opacity: 0.5"/>
     <use xlink:href="#m8eec0eed90" x="76.929767" y="127.762737" style="fill: #1f77b4; fill-opacity: 0.5; stroke: #1f77b4; stroke-opacity: 0.5"/>
     <use xlink:href="#m8eec0eed90" x="162.890455" y="51.442177" style="fill: #1f77b4; fill-opacity: 0.5; stroke: #1f77b4; stroke-opacity: 0.5"/>
     <use xlink:href="#m8eec0eed90" x="75.394754" y="128.906364" style="fill: #1f77b4; fill-opacity: 0.5; stroke: #1f77b4; stroke-opacity: 0.5"/>
     <use xlink:href="#m8eec0eed90" x="72.017727" y="128.735042" style="fill: #1f77b4; fill-opacity: 0.5; stroke: #1f77b4; stroke-opacity: 0.5"/>
     <use xlink:href="#m8eec0eed90" x="71.710725" y="117.796733" style="fill: #1f77b4; fill-opacity: 0.5; stroke: #1f77b4; stroke-opacity: 0.5"/>
     <use xlink:href="#m8eec0eed90" x="55.439595" y="129.336965" style="fill: #1f77b4; fill-opacity: 0.5; stroke: #1f77b4; stroke-opacity: 0.5"/>
     <use xlink:href="#m8eec0eed90" x="54.82559" y="127.006985" style="fill: #1f77b4; fill-opacity: 0.5; stroke: #1f77b4; stroke-opacity: 0.5"/>
     <use xlink:href="#m8eec0eed90" x="56.360602" y="129.828565" style="fill: #1f77b4; fill-opacity: 0.5; stroke: #1f77b4; stroke-opacity: 0.5"/>
     <use xlink:href="#m8eec0eed90" x="55.132592" y="118.776236" style="fill: #1f77b4; fill-opacity: 0.5; stroke: #1f77b4; stroke-opacity: 0.5"/>
     <use xlink:href="#m8eec0eed90" x="72.017727" y="128.218367" style="fill: #1f77b4; fill-opacity: 0.5; stroke: #1f77b4; stroke-opacity: 0.5"/>
     <use xlink:href="#m8eec0eed90" x="55.746597" y="88.539826" style="fill: #1f77b4; fill-opacity: 0.5; stroke: #1f77b4; stroke-opacity: 0.5"/>
     <use xlink:href="#m8eec0eed90" x="69.254705" y="61.417653" style="fill: #1f77b4; fill-opacity: 0.5; stroke: #1f77b4; stroke-opacity: 0.5"/>
     <use xlink:href="#m8eec0eed90" x="54.82559" y="126.439353" style="fill: #1f77b4; fill-opacity: 0.5; stroke: #1f77b4; stroke-opacity: 0.5"/>
     <use xlink:href="#m8eec0eed90" x="56.667604" y="127.355834" style="fill: #1f77b4; fill-opacity: 0.5; stroke: #1f77b4; stroke-opacity: 0.5"/>
     <use xlink:href="#m8eec0eed90" x="69.254705" y="127.183367" style="fill: #1f77b4; fill-opacity: 0.5; stroke: #1f77b4; stroke-opacity: 0.5"/>
     <use xlink:href="#m8eec0eed90" x="79.692789" y="126.944673" style="fill: #1f77b4; fill-opacity: 0.5; stroke: #1f77b4; stroke-opacity: 0.5"/>
     <use xlink:href="#m8eec0eed90" x="59.430627" y="127.737026" style="fill: #1f77b4; fill-opacity: 0.5; stroke: #1f77b4; stroke-opacity: 0.5"/>
     <use xlink:href="#m8eec0eed90" x="50.527555" y="79.776433" style="fill: #1f77b4; fill-opacity: 0.5; stroke: #1f77b4; stroke-opacity: 0.5"/>
     <use xlink:href="#m8eec0eed90" x="59.430627" y="129.090386" style="fill: #1f77b4; fill-opacity: 0.5; stroke: #1f77b4; stroke-opacity: 0.5"/>
     <use xlink:href="#m8eec0eed90" x="56.0536" y="126.95887" style="fill: #1f77b4; fill-opacity: 0.5; stroke: #1f77b4; stroke-opacity: 0.5"/>
     <use xlink:href="#m8eec0eed90" x="54.211585" y="109.986571" style="fill: #1f77b4; fill-opacity: 0.5; stroke: #1f77b4; stroke-opacity: 0.5"/>
     <use xlink:href="#m8eec0eed90" x="120.524115" y="32.154191" style="fill: #1f77b4; fill-opacity: 0.5; stroke: #1f77b4; stroke-opacity: 0.5"/>
     <use xlink:href="#m8eec0eed90" x="56.0536" y="127.353022" style="fill: #1f77b4; fill-opacity: 0.5; stroke: #1f77b4; stroke-opacity: 0.5"/>
     <use xlink:href="#m8eec0eed90" x="59.430627" y="127.714978" style="fill: #1f77b4; fill-opacity: 0.5; stroke: #1f77b4; stroke-opacity: 0.5"/>
     <use xlink:href="#m8eec0eed90" x="79.692789" y="129.868896" style="fill: #1f77b4; fill-opacity: 0.5; stroke: #1f77b4; stroke-opacity: 0.5"/>
     <use xlink:href="#m8eec0eed90" x="59.430627" y="126.980445" style="fill: #1f77b4; fill-opacity: 0.5; stroke: #1f77b4; stroke-opacity: 0.5"/>
     <use xlink:href="#m8eec0eed90" x="56.667604" y="127.508574" style="fill: #1f77b4; fill-opacity: 0.5; stroke: #1f77b4; stroke-opacity: 0.5"/>
     <use xlink:href="#m8eec0eed90" x="51.448563" y="107.577734" style="fill: #1f77b4; fill-opacity: 0.5; stroke: #1f77b4; stroke-opacity: 0.5"/>
     <use xlink:href="#m8eec0eed90" x="51.14156" y="118.314281" style="fill: #1f77b4; fill-opacity: 0.5; stroke: #1f77b4; stroke-opacity: 0.5"/>
     <use xlink:href="#m8eec0eed90" x="51.755565" y="118.090672" style="fill: #1f77b4; fill-opacity: 0.5; stroke: #1f77b4; stroke-opacity: 0.5"/>
     <use xlink:href="#m8eec0eed90" x="52.676572" y="57.889596" style="fill: #1f77b4; fill-opacity: 0.5; stroke: #1f77b4; stroke-opacity: 0.5"/>
     <use xlink:href="#m8eec0eed90" x="53.904582" y="118.049117" style="fill: #1f77b4; fill-opacity: 0.5; stroke: #1f77b4; stroke-opacity: 0.5"/>
     <use xlink:href="#m8eec0eed90" x="56.974607" y="126.891526" style="fill: #1f77b4; fill-opacity: 0.5; stroke: #1f77b4; stroke-opacity: 0.5"/>
     <use xlink:href="#m8eec0eed90" x="54.518587" y="126.452349" style="fill: #1f77b4; fill-opacity: 0.5; stroke: #1f77b4; stroke-opacity: 0.5"/>
     <use xlink:href="#m8eec0eed90" x="56.974607" y="130.222939" style="fill: #1f77b4; fill-opacity: 0.5; stroke: #1f77b4; stroke-opacity: 0.5"/>
     <use xlink:href="#m8eec0eed90" x="54.211585" y="90.491227" style="fill: #1f77b4; fill-opacity: 0.5; stroke: #1f77b4; stroke-opacity: 0.5"/>
     <use xlink:href="#m8eec0eed90" x="54.518587" y="49.889975" style="fill: #1f77b4; fill-opacity: 0.5; stroke: #1f77b4; stroke-opacity: 0.5"/>
     <use xlink:href="#m8eec0eed90" x="52.36957" y="108.296764" style="fill: #1f77b4; fill-opacity: 0.5; stroke: #1f77b4; stroke-opacity: 0.5"/>
     <use xlink:href="#m8eec0eed90" x="53.59758" y="59.31139" style="fill: #1f77b4; fill-opacity: 0.5; stroke: #1f77b4; stroke-opacity: 0.5"/>
     <use xlink:href="#m8eec0eed90" x="51.755565" y="99.459418" style="fill: #1f77b4; fill-opacity: 0.5; stroke: #1f77b4; stroke-opacity: 0.5"/>
     <use xlink:href="#m8eec0eed90" x="51.14156" y="99.317196" style="fill: #1f77b4; fill-opacity: 0.5; stroke: #1f77b4; stroke-opacity: 0.5"/>
     <use xlink:href="#m8eec0eed90" x="56.974607" y="117.126001" style="fill: #1f77b4; fill-opacity: 0.5; stroke: #1f77b4; stroke-opacity: 0.5"/>
     <use xlink:href="#m8eec0eed90" x="114.384066" y="127.361239" style="fill: #1f77b4; fill-opacity: 0.5; stroke: #1f77b4; stroke-opacity: 0.5"/>
     <use xlink:href="#m8eec0eed90" x="51.448563" y="41.591529" style="fill: #1f77b4; fill-opacity: 0.5; stroke: #1f77b4; stroke-opacity: 0.5"/>
     <use xlink:href="#m8eec0eed90" x="50.834558" y="108.203077" style="fill: #1f77b4; fill-opacity: 0.5; stroke: #1f77b4; stroke-opacity: 0.5"/>
     <use xlink:href="#m8eec0eed90" x="50.527555" y="107.821736" style="fill: #1f77b4; fill-opacity: 0.5; stroke: #1f77b4; stroke-opacity: 0.5"/>
     <use xlink:href="#m8eec0eed90" x="51.448563" y="119.815195" style="fill: #1f77b4; fill-opacity: 0.5; stroke: #1f77b4; stroke-opacity: 0.5"/>
     <use xlink:href="#m8eec0eed90" x="51.14156" y="89.055276" style="fill: #1f77b4; fill-opacity: 0.5; stroke: #1f77b4; stroke-opacity: 0.5"/>
     <use xlink:href="#m8eec0eed90" x="51.448563" y="118.684594" style="fill: #1f77b4; fill-opacity: 0.5; stroke: #1f77b4; stroke-opacity: 0.5"/>
     <use xlink:href="#m8eec0eed90" x="57.895614" y="59.772633" style="fill: #1f77b4; fill-opacity: 0.5; stroke: #1f77b4; stroke-opacity: 0.5"/>
     <use xlink:href="#m8eec0eed90" x="49.606548" y="91.082482" style="fill: #1f77b4; fill-opacity: 0.5; stroke: #1f77b4; stroke-opacity: 0.5"/>
     <use xlink:href="#m8eec0eed90" x="53.904582" y="127.832212" style="fill: #1f77b4; fill-opacity: 0.5; stroke: #1f77b4; stroke-opacity: 0.5"/>
     <use xlink:href="#m8eec0eed90" x="52.676572" y="109.212662" style="fill: #1f77b4; fill-opacity: 0.5; stroke: #1f77b4; stroke-opacity: 0.5"/>
     <use xlink:href="#m8eec0eed90" x="52.676572" y="108.314722" style="fill: #1f77b4; fill-opacity: 0.5; stroke: #1f77b4; stroke-opacity: 0.5"/>
     <use xlink:href="#m8eec0eed90" x="52.676572" y="118.946826" style="fill: #1f77b4; fill-opacity: 0.5; stroke: #1f77b4; stroke-opacity: 0.5"/>
     <use xlink:href="#m8eec0eed90" x="52.676572" y="119.492516" style="fill: #1f77b4; fill-opacity: 0.5; stroke: #1f77b4; stroke-opacity: 0.5"/>
     <use xlink:href="#m8eec0eed90" x="69.254705" y="50.170041" style="fill: #1f77b4; fill-opacity: 0.5; stroke: #1f77b4; stroke-opacity: 0.5"/>
     <use xlink:href="#m8eec0eed90" x="51.448563" y="108.240913" style="fill: #1f77b4; fill-opacity: 0.5; stroke: #1f77b4; stroke-opacity: 0.5"/>
     <use xlink:href="#m8eec0eed90" x="53.59758" y="126.483531" style="fill: #1f77b4; fill-opacity: 0.5; stroke: #1f77b4; stroke-opacity: 0.5"/>
     <use xlink:href="#m8eec0eed90" x="54.518587" y="116.991519" style="fill: #1f77b4; fill-opacity: 0.5; stroke: #1f77b4; stroke-opacity: 0.5"/>
     <use xlink:href="#m8eec0eed90" x="57.588612" y="130.151568" style="fill: #1f77b4; fill-opacity: 0.5; stroke: #1f77b4; stroke-opacity: 0.5"/>
     <use xlink:href="#m8eec0eed90" x="51.14156" y="127.958715" style="fill: #1f77b4; fill-opacity: 0.5; stroke: #1f77b4; stroke-opacity: 0.5"/>
     <use xlink:href="#m8eec0eed90" x="114.384066" y="129.881515" style="fill: #1f77b4; fill-opacity: 0.5; stroke: #1f77b4; stroke-opacity: 0.5"/>
     <use xlink:href="#m8eec0eed90" x="52.36957" y="127.555563" style="fill: #1f77b4; fill-opacity: 0.5; stroke: #1f77b4; stroke-opacity: 0.5"/>
     <use xlink:href="#m8eec0eed90" x="52.36957" y="117.990551" style="fill: #1f77b4; fill-opacity: 0.5; stroke: #1f77b4; stroke-opacity: 0.5"/>
     <use xlink:href="#m8eec0eed90" x="52.36957" y="118.565411" style="fill: #1f77b4; fill-opacity: 0.5; stroke: #1f77b4; stroke-opacity: 0.5"/>
     <use xlink:href="#m8eec0eed90" x="49.606548" y="58.581669" style="fill: #1f77b4; fill-opacity: 0.5; stroke: #1f77b4; stroke-opacity: 0.5"/>
     <use xlink:href="#m8eec0eed90" x="52.676572" y="126.535807" style="fill: #1f77b4; fill-opacity: 0.5; stroke: #1f77b4; stroke-opacity: 0.5"/>
     <use xlink:href="#m8eec0eed90" x="49.299545" y="117.571098" style="fill: #1f77b4; fill-opacity: 0.5; stroke: #1f77b4; stroke-opacity: 0.5"/>
     <use xlink:href="#m8eec0eed90" x="89.516867" y="49.940154" style="fill: #1f77b4; fill-opacity: 0.5; stroke: #1f77b4; stroke-opacity: 0.5"/>
     <use xlink:href="#m8eec0eed90" x="114.384066" y="129.28813" style="fill: #1f77b4; fill-opacity: 0.5; stroke: #1f77b4; stroke-opacity: 0.5"/>
     <use xlink:href="#m8eec0eed90" x="50.834558" y="127.045951" style="fill: #1f77b4; fill-opacity: 0.5; stroke: #1f77b4; stroke-opacity: 0.5"/>
     <use xlink:href="#m8eec0eed90" x="120.524115" y="40.051591" style="fill: #1f77b4; fill-opacity: 0.5; stroke: #1f77b4; stroke-opacity: 0.5"/>
     <use xlink:href="#m8eec0eed90" x="51.14156" y="126.71168" style="fill: #1f77b4; fill-opacity: 0.5; stroke: #1f77b4; stroke-opacity: 0.5"/>
     <use xlink:href="#m8eec0eed90" x="50.834558" y="100.627904" style="fill: #1f77b4; fill-opacity: 0.5; stroke: #1f77b4; stroke-opacity: 0.5"/>
     <use xlink:href="#m8eec0eed90" x="55.132592" y="107.680325" style="fill: #1f77b4; fill-opacity: 0.5; stroke: #1f77b4; stroke-opacity: 0.5"/>
     <use xlink:href="#m8eec0eed90" x="51.755565" y="79.720307" style="fill: #1f77b4; fill-opacity: 0.5; stroke: #1f77b4; stroke-opacity: 0.5"/>
     <use xlink:href="#m8eec0eed90" x="66.798686" y="29.273525" style="fill: #1f77b4; fill-opacity: 0.5; stroke: #1f77b4; stroke-opacity: 0.5"/>
     <use xlink:href="#m8eec0eed90" x="50.834558" y="129.830319" style="fill: #1f77b4; fill-opacity: 0.5; stroke: #1f77b4; stroke-opacity: 0.5"/>
     <use xlink:href="#m8eec0eed90" x="55.132592" y="108.877768" style="fill: #1f77b4; fill-opacity: 0.5; stroke: #1f77b4; stroke-opacity: 0.5"/>
     <use xlink:href="#m8eec0eed90" x="55.439595" y="97.837342" style="fill: #1f77b4; fill-opacity: 0.5; stroke: #1f77b4; stroke-opacity: 0.5"/>
     <use xlink:href="#m8eec0eed90" x="51.14156" y="29.954663" style="fill: #1f77b4; fill-opacity: 0.5; stroke: #1f77b4; stroke-opacity: 0.5"/>
     <use xlink:href="#m8eec0eed90" x="54.82559" y="100.121702" style="fill: #1f77b4; fill-opacity: 0.5; stroke: #1f77b4; stroke-opacity: 0.5"/>
     <use xlink:href="#m8eec0eed90" x="60.351634" y="70.170843" style="fill: #1f77b4; fill-opacity: 0.5; stroke: #1f77b4; stroke-opacity: 0.5"/>
     <use xlink:href="#m8eec0eed90" x="52.983575" y="60.111493" style="fill: #1f77b4; fill-opacity: 0.5; stroke: #1f77b4; stroke-opacity: 0.5"/>
     <use xlink:href="#m8eec0eed90" x="78.157776" y="69.940718" style="fill: #1f77b4; fill-opacity: 0.5; stroke: #1f77b4; stroke-opacity: 0.5"/>
     <use xlink:href="#m8eec0eed90" x="59.430627" y="127.147499" style="fill: #1f77b4; fill-opacity: 0.5; stroke: #1f77b4; stroke-opacity: 0.5"/>
     <use xlink:href="#m8eec0eed90" x="59.430627" y="127.443748" style="fill: #1f77b4; fill-opacity: 0.5; stroke: #1f77b4; stroke-opacity: 0.5"/>
     <use xlink:href="#m8eec0eed90" x="61.272641" y="106.870671" style="fill: #1f77b4; fill-opacity: 0.5; stroke: #1f77b4; stroke-opacity: 0.5"/>
     <use xlink:href="#m8eec0eed90" x="58.509619" y="126.589757" style="fill: #1f77b4; fill-opacity: 0.5; stroke: #1f77b4; stroke-opacity: 0.5"/>
     <use xlink:href="#m8eec0eed90" x="57.281609" y="107.889068" style="fill: #1f77b4; fill-opacity: 0.5; stroke: #1f77b4; stroke-opacity: 0.5"/>
     <use xlink:href="#m8eec0eed90" x="57.281609" y="117.441294" style="fill: #1f77b4; fill-opacity: 0.5; stroke: #1f77b4; stroke-opacity: 0.5"/>
     <use xlink:href="#m8eec0eed90" x="56.974607" y="117.781204" style="fill: #1f77b4; fill-opacity: 0.5; stroke: #1f77b4; stroke-opacity: 0.5"/>
     <use xlink:href="#m8eec0eed90" x="56.667604" y="109.018665" style="fill: #1f77b4; fill-opacity: 0.5; stroke: #1f77b4; stroke-opacity: 0.5"/>
     <use xlink:href="#m8eec0eed90" x="56.667604" y="110.098233" style="fill: #1f77b4; fill-opacity: 0.5; stroke: #1f77b4; stroke-opacity: 0.5"/>
     <use xlink:href="#m8eec0eed90" x="59.737629" y="128.919121" style="fill: #1f77b4; fill-opacity: 0.5; stroke: #1f77b4; stroke-opacity: 0.5"/>
     <use xlink:href="#m8eec0eed90" x="59.737629" y="130.330302" style="fill: #1f77b4; fill-opacity: 0.5; stroke: #1f77b4; stroke-opacity: 0.5"/>
     <use xlink:href="#m8eec0eed90" x="60.044631" y="129.015008" style="fill: #1f77b4; fill-opacity: 0.5; stroke: #1f77b4; stroke-opacity: 0.5"/>
     <use xlink:href="#m8eec0eed90" x="61.886646" y="68.057408" style="fill: #1f77b4; fill-opacity: 0.5; stroke: #1f77b4; stroke-opacity: 0.5"/>
     <use xlink:href="#m8eec0eed90" x="56.974607" y="118.024331" style="fill: #1f77b4; fill-opacity: 0.5; stroke: #1f77b4; stroke-opacity: 0.5"/>
     <use xlink:href="#m8eec0eed90" x="60.044631" y="109.447319" style="fill: #1f77b4; fill-opacity: 0.5; stroke: #1f77b4; stroke-opacity: 0.5"/>
     <use xlink:href="#m8eec0eed90" x="146.312322" y="126.841384" style="fill: #1f77b4; fill-opacity: 0.5; stroke: #1f77b4; stroke-opacity: 0.5"/>
     <use xlink:href="#m8eec0eed90" x="146.312322" y="118.209972" style="fill: #1f77b4; fill-opacity: 0.5; stroke: #1f77b4; stroke-opacity: 0.5"/>
     <use xlink:href="#m8eec0eed90" x="146.312322" y="130.323823" style="fill: #1f77b4; fill-opacity: 0.5; stroke: #1f77b4; stroke-opacity: 0.5"/>
    </g>
   </g>
   <g id="PolyCollection_1">
    <defs>
     <path id="me60251a31c" d="M 49.299545 -76.199047 
L 49.299545 -64.466612 
L 50.446928 -64.789428 
L 51.594311 -65.157979 
L 52.741694 -65.490948 
L 53.889077 -65.762461 
L 55.03646 -66.008277 
L 56.183843 -66.361104 
L 57.331226 -66.509618 
L 58.478609 -66.630367 
L 59.625992 -66.712419 
L 60.773375 -66.808383 
L 61.920758 -66.878964 
L 63.06814 -66.9279 
L 64.215523 -66.921305 
L 65.362906 -66.926312 
L 66.510289 -66.9004 
L 67.657672 -66.832439 
L 68.805055 -66.778486 
L 69.952438 -66.606239 
L 71.099821 -66.422813 
L 72.247204 -66.342772 
L 73.394587 -66.212144 
L 74.54197 -66.152194 
L 75.689353 -66.020379 
L 76.836736 -65.839507 
L 77.984118 -65.70503 
L 79.131501 -65.504425 
L 80.278884 -65.294257 
L 81.426267 -65.119853 
L 82.57365 -64.981651 
L 83.721033 -64.730338 
L 84.868416 -64.568067 
L 86.015799 -64.343098 
L 87.163182 -64.183508 
L 88.310565 -64.058453 
L 89.457948 -63.933397 
L 90.605331 -63.808341 
L 91.752713 -63.638804 
L 92.900096 -63.422853 
L 94.047479 -63.208295 
L 95.194862 -62.995946 
L 96.342245 -62.783597 
L 97.489628 -62.571247 
L 98.637011 -62.367623 
L 99.784394 -62.139311 
L 100.931777 -61.922613 
L 102.07916 -61.705914 
L 103.226543 -61.489215 
L 104.373926 -61.272517 
L 105.521309 -61.056309 
L 106.668691 -60.823611 
L 107.816074 -60.588717 
L 108.963457 -60.38499 
L 110.11084 -60.104074 
L 111.258223 -59.860752 
L 112.405606 -59.669631 
L 113.552989 -59.528266 
L 114.700372 -59.335689 
L 115.847755 -59.154299 
L 116.995138 -58.992584 
L 118.142521 -58.764214 
L 119.289904 -58.512133 
L 120.437287 -58.260052 
L 121.584669 -58.041261 
L 122.732052 -57.824649 
L 123.879435 -57.608037 
L 125.026818 -57.391425 
L 126.174201 -57.174814 
L 127.321584 -56.958202 
L 128.468967 -56.74159 
L 129.61635 -56.524978 
L 130.763733 -56.308366 
L 131.911116 -56.091755 
L 133.058499 -55.875143 
L 134.205882 -55.658531 
L 135.353264 -55.418109 
L 136.500647 -55.175834 
L 137.64803 -54.93356 
L 138.795413 -54.691285 
L 139.942796 -54.449011 
L 141.090179 -54.206736 
L 142.237562 -53.964461 
L 143.384945 -53.722187 
L 144.532328 -53.479912 
L 145.679711 -53.237637 
L 146.827094 -52.995363 
L 147.974477 -52.753088 
L 149.12186 -52.510813 
L 150.269242 -52.268539 
L 151.416625 -52.026264 
L 152.564008 -51.784617 
L 153.711391 -51.543002 
L 154.858774 -51.301388 
L 156.006157 -51.059774 
L 157.15354 -50.818159 
L 158.300923 -50.561439 
L 159.448306 -50.303824 
L 160.595689 -50.046209 
L 161.743072 -49.788593 
L 162.890455 -49.530978 
L 162.890455 -110.713254 
L 162.890455 -110.713254 
L 161.743072 -110.289277 
L 160.595689 -109.865299 
L 159.448306 -109.441167 
L 158.300923 -109.016338 
L 157.15354 -108.591509 
L 156.006157 -108.16668 
L 154.858774 -107.741851 
L 153.711391 -107.317022 
L 152.564008 -106.892193 
L 151.416625 -106.467364 
L 150.269242 -106.042535 
L 149.12186 -105.617706 
L 147.974477 -105.192877 
L 146.827094 -104.739924 
L 145.679711 -104.275426 
L 144.532328 -103.810927 
L 143.384945 -103.346429 
L 142.237562 -102.88193 
L 141.090179 -102.417432 
L 139.942796 -101.952934 
L 138.795413 -101.547743 
L 137.64803 -101.155188 
L 136.500647 -100.762634 
L 135.353264 -100.370079 
L 134.205882 -99.977525 
L 133.058499 -99.584971 
L 131.911116 -99.192416 
L 130.763733 -98.799862 
L 129.61635 -98.407307 
L 128.468967 -97.988906 
L 127.321584 -97.565922 
L 126.174201 -97.142938 
L 125.026818 -96.718389 
L 123.879435 -96.293579 
L 122.732052 -95.848545 
L 121.584669 -95.384775 
L 120.437287 -94.921006 
L 119.289904 -94.571454 
L 118.142521 -94.175411 
L 116.995138 -93.753557 
L 115.847755 -93.329282 
L 114.700372 -92.904348 
L 113.552989 -92.479413 
L 112.405606 -92.018575 
L 111.258223 -91.556489 
L 110.11084 -91.09938 
L 108.963457 -90.698262 
L 107.816074 -90.296615 
L 106.668691 -89.865782 
L 105.521309 -89.412531 
L 104.373926 -88.959119 
L 103.226543 -88.505281 
L 102.07916 -88.118178 
L 100.931777 -87.775248 
L 99.784394 -87.394492 
L 98.637011 -86.970514 
L 97.489628 -86.567045 
L 96.342245 -86.135388 
L 95.194862 -85.698581 
L 94.047479 -85.23628 
L 92.900096 -84.748141 
L 91.752713 -84.235975 
L 90.605331 -83.75929 
L 89.457948 -83.264791 
L 88.310565 -82.783501 
L 87.163182 -82.32379 
L 86.015799 -81.968704 
L 84.868416 -81.648825 
L 83.721033 -81.32544 
L 82.57365 -81.004471 
L 81.426267 -80.681116 
L 80.278884 -80.330601 
L 79.131501 -79.800532 
L 77.984118 -79.43927 
L 76.836736 -78.992409 
L 75.689353 -78.547725 
L 74.54197 -78.270822 
L 73.394587 -77.967624 
L 72.247204 -77.607743 
L 71.099821 -77.406108 
L 69.952438 -77.23111 
L 68.805055 -77.05491 
L 67.657672 -76.770853 
L 66.510289 -76.597152 
L 65.362906 -76.376444 
L 64.215523 -76.232612 
L 63.06814 -76.085964 
L 61.920758 -75.986943 
L 60.773375 -75.844692 
L 59.625992 -75.723783 
L 58.478609 -75.706997 
L 57.331226 -75.685992 
L 56.183843 -75.591731 
L 55.03646 -75.673228 
L 53.889077 -75.781234 
L 52.741694 -75.884636 
L 51.594311 -75.962095 
L 50.446928 -76.093381 
L 49.299545 -76.199047 
z
" style="stroke: #ffffff; stroke-opacity: 0.15; stroke-width: 0.8"/>
    </defs>
    <g clip-path="url(#pf6d7913e3c)">
     <use xlink:href="#me60251a31c" x="0" y="180" style="fill: #1f77b4; fill-opacity: 0.15; stroke: #ffffff; stroke-opacity: 0.15; stroke-width: 0.8"/>
    </g>
   </g>
   <g id="line2d_15">
    <path d="M 49.299545 109.892745 
L 50.446928 109.798124 
L 51.594311 109.703504 
L 52.741694 109.608883 
L 53.889077 109.514262 
L 55.03646 109.419641 
L 56.183843 109.325021 
L 57.331226 109.2304 
L 58.478609 109.135779 
L 59.625992 109.041159 
L 60.773375 108.946538 
L 61.920758 108.851917 
L 63.06814 108.757296 
L 64.215523 108.662676 
L 65.362906 108.568055 
L 66.510289 108.473434 
L 67.657672 108.378813 
L 68.805055 108.284193 
L 69.952438 108.189572 
L 71.099821 108.094951 
L 72.247204 108.000331 
L 73.394587 107.90571 
L 74.54197 107.811089 
L 75.689353 107.716468 
L 76.836736 107.621848 
L 77.984118 107.527227 
L 79.131501 107.432606 
L 80.278884 107.337986 
L 81.426267 107.243365 
L 82.57365 107.148744 
L 83.721033 107.054123 
L 84.868416 106.959503 
L 86.015799 106.864882 
L 87.163182 106.770261 
L 88.310565 106.67564 
L 89.457948 106.58102 
L 90.605331 106.486399 
L 91.752713 106.391778 
L 92.900096 106.297158 
L 94.047479 106.202537 
L 95.194862 106.107916 
L 96.342245 106.013295 
L 97.489628 105.918675 
L 98.637011 105.824054 
L 99.784394 105.729433 
L 100.931777 105.634813 
L 102.07916 105.540192 
L 103.226543 105.445571 
L 104.373926 105.35095 
L 105.521309 105.25633 
L 106.668691 105.161709 
L 107.816074 105.067088 
L 108.963457 104.972467 
L 110.11084 104.877847 
L 111.258223 104.783226 
L 112.405606 104.688605 
L 113.552989 104.593985 
L 114.700372 104.499364 
L 115.847755 104.404743 
L 116.995138 104.310122 
L 118.142521 104.215502 
L 119.289904 104.120881 
L 120.437287 104.02626 
L 121.584669 103.93164 
L 122.732052 103.837019 
L 123.879435 103.742398 
L 125.026818 103.647777 
L 126.174201 103.553157 
L 127.321584 103.458536 
L 128.468967 103.363915 
L 129.61635 103.269295 
L 130.763733 103.174674 
L 131.911116 103.080053 
L 133.058499 102.985432 
L 134.205882 102.890812 
L 135.353264 102.796191 
L 136.500647 102.70157 
L 137.64803 102.606949 
L 138.795413 102.512329 
L 139.942796 102.417708 
L 141.090179 102.323087 
L 142.237562 102.228467 
L 143.384945 102.133846 
L 144.532328 102.039225 
L 145.679711 101.944604 
L 146.827094 101.849984 
L 147.974477 101.755363 
L 149.12186 101.660742 
L 150.269242 101.566122 
L 151.416625 101.471501 
L 152.564008 101.37688 
L 153.711391 101.282259 
L 154.858774 101.187639 
L 156.006157 101.093018 
L 157.15354 100.998397 
L 158.300923 100.903776 
L 159.448306 100.809156 
L 160.595689 100.714535 
L 161.743072 100.619914 
L 162.890455 100.525294 
" clip-path="url(#pf6d7913e3c)" style="fill: none; stroke: #1f77b4; stroke-width: 1.8; stroke-linecap: round"/>
   </g>
   <g id="patch_3">
    <path d="M 43.62 138.18 
L 43.62 24.21375 
" style="fill: none; stroke: #cccccc; stroke-linejoin: miter; stroke-linecap: square"/>
   </g>
   <g id="patch_4">
    <path d="M 168.57 138.18 
L 168.57 24.21375 
" style="fill: none; stroke: #cccccc; stroke-linejoin: miter; stroke-linecap: square"/>
   </g>
   <g id="patch_5">
    <path d="M 43.62 138.18 
L 168.57 138.18 
" style="fill: none; stroke: #cccccc; stroke-linejoin: miter; stroke-linecap: square"/>
   </g>
   <g id="patch_6">
    <path d="M 43.62 24.21375 
L 168.57 24.21375 
" style="fill: none; stroke: #cccccc; stroke-linejoin: miter; stroke-linecap: square"/>
   </g>
   <g id="text_17">
    <!-- rho = -0.23 -->
    <g style="fill: #262626" transform="translate(118.59 37.0855) scale(0.1 -0.1)">
     <defs>
      <path id="Helvetica-72" d="M 428 3347 
L 963 3347 
L 963 2769 
Q 1028 2938 1284 3180 
Q 1541 3422 1875 3422 
Q 1891 3422 1928 3419 
Q 1966 3416 2056 3406 
L 2056 2813 
Q 2006 2822 1964 2825 
Q 1922 2828 1872 2828 
Q 1447 2828 1219 2554 
Q 991 2281 991 1925 
L 991 0 
L 428 0 
L 428 3347 
z
" transform="scale(0.015625)"/>
      <path id="Helvetica-3d" d="M 3547 2569 
L 3547 2044 
L 288 2044 
L 288 2569 
L 3547 2569 
z
M 3547 1228 
L 3547 694 
L 288 694 
L 288 1228 
L 3547 1228 
z
" transform="scale(0.015625)"/>
      <path id="Helvetica-2d" d="M 266 2072 
L 1834 2072 
L 1834 1494 
L 266 1494 
L 266 2072 
z
" transform="scale(0.015625)"/>
      <path id="Helvetica-2e" d="M 547 681 
L 1200 681 
L 1200 0 
L 547 0 
L 547 681 
z
" transform="scale(0.015625)"/>
     </defs>
     <use xlink:href="#Helvetica-72"/>
     <use xlink:href="#Helvetica-68" x="33.300781"/>
     <use xlink:href="#Helvetica-6f" x="88.916016"/>
     <use xlink:href="#Helvetica-20" x="144.53125"/>
     <use xlink:href="#Helvetica-3d" x="172.314453"/>
     <use xlink:href="#Helvetica-20" x="230.712891"/>
     <use xlink:href="#Helvetica-2d" x="258.496094"/>
     <use xlink:href="#Helvetica-30" x="291.796875"/>
     <use xlink:href="#Helvetica-2e" x="347.412109"/>
     <use xlink:href="#Helvetica-32" x="375.195312"/>
     <use xlink:href="#Helvetica-33" x="430.810547"/>
    </g>
    <!-- p = 1.21e-02 -->
    <g style="fill: #262626" transform="translate(118.59 47.778) scale(0.1 -0.1)">
     <defs>
      <path id="Helvetica-70" d="M 1825 378 
Q 2219 378 2480 708 
Q 2741 1038 2741 1694 
Q 2741 2094 2625 2381 
Q 2406 2934 1825 2934 
Q 1241 2934 1025 2350 
Q 909 2038 909 1556 
Q 909 1169 1025 897 
Q 1244 378 1825 378 
z
M 369 3331 
L 916 3331 
L 916 2888 
Q 1084 3116 1284 3241 
Q 1569 3428 1953 3428 
Q 2522 3428 2919 2992 
Q 3316 2556 3316 1747 
Q 3316 653 2744 184 
Q 2381 -113 1900 -113 
Q 1522 -113 1266 53 
Q 1116 147 931 375 
L 931 -1334 
L 369 -1334 
L 369 3331 
z
" transform="scale(0.015625)"/>
     </defs>
     <use xlink:href="#Helvetica-70"/>
     <use xlink:href="#Helvetica-20" x="55.615234"/>
     <use xlink:href="#Helvetica-3d" x="83.398438"/>
     <use xlink:href="#Helvetica-20" x="141.796875"/>
     <use xlink:href="#Helvetica-31" x="169.580078"/>
     <use xlink:href="#Helvetica-2e" x="225.195312"/>
     <use xlink:href="#Helvetica-32" x="252.978516"/>
     <use xlink:href="#Helvetica-31" x="308.59375"/>
     <use xlink:href="#Helvetica-65" x="364.208984"/>
     <use xlink:href="#Helvetica-2d" x="419.824219"/>
     <use xlink:href="#Helvetica-30" x="453.125"/>
     <use xlink:href="#Helvetica-32" x="508.740234"/>
    </g>
   </g>
   <g id="text_18">
    <!-- AF2 APPRAISE (no templates) vs agonist length -->
    <g style="fill: #262626" transform="translate(-1.73 18.21375) scale(0.1 -0.1)">
     <defs>
      <path id="Helvetica-41" d="M 2844 1881 
L 2147 3909 
L 1406 1881 
L 2844 1881 
z
M 1822 4591 
L 2525 4591 
L 4191 0 
L 3509 0 
L 3044 1375 
L 1228 1375 
L 731 0 
L 94 0 
L 1822 4591 
z
" transform="scale(0.015625)"/>
      <path id="Helvetica-46" d="M 547 4591 
L 3731 4591 
L 3731 4028 
L 1169 4028 
L 1169 2634 
L 3422 2634 
L 3422 2088 
L 1169 2088 
L 1169 0 
L 547 0 
L 547 4591 
z
" transform="scale(0.015625)"/>
      <path id="Helvetica-50" d="M 547 4591 
L 2613 4591 
Q 3225 4591 3600 4245 
Q 3975 3900 3975 3275 
Q 3975 2738 3640 2339 
Q 3306 1941 2613 1941 
L 1169 1941 
L 1169 0 
L 547 0 
L 547 4591 
z
M 3347 3272 
Q 3347 3778 2972 3959 
Q 2766 4056 2406 4056 
L 1169 4056 
L 1169 2466 
L 2406 2466 
Q 2825 2466 3086 2644 
Q 3347 2822 3347 3272 
z
" transform="scale(0.015625)"/>
      <path id="Helvetica-49" d="M 628 4591 
L 1256 4591 
L 1256 0 
L 628 0 
L 628 4591 
z
" transform="scale(0.015625)"/>
      <path id="Helvetica-53" d="M 894 1481 
Q 916 1091 1078 847 
Q 1388 391 2169 391 
Q 2519 391 2806 491 
Q 3363 684 3363 1184 
Q 3363 1559 3128 1719 
Q 2891 1875 2384 1991 
L 1763 2131 
Q 1153 2269 900 2434 
Q 463 2722 463 3294 
Q 463 3913 891 4309 
Q 1319 4706 2103 4706 
Q 2825 4706 3329 4357 
Q 3834 4009 3834 3244 
L 3250 3244 
Q 3203 3613 3050 3809 
Q 2766 4169 2084 4169 
Q 1534 4169 1293 3937 
Q 1053 3706 1053 3400 
Q 1053 3063 1334 2906 
Q 1519 2806 2169 2656 
L 2813 2509 
Q 3278 2403 3531 2219 
Q 3969 1897 3969 1284 
Q 3969 522 3414 194 
Q 2859 -134 2125 -134 
Q 1269 -134 784 303 
Q 300 738 309 1481 
L 894 1481 
z
M 2150 4716 
L 2150 4716 
z
" transform="scale(0.015625)"/>
      <path id="Helvetica-45" d="M 547 4591 
L 3894 4591 
L 3894 4028 
L 1153 4028 
L 1153 2634 
L 3688 2634 
L 3688 2103 
L 1153 2103 
L 1153 547 
L 3941 547 
L 3941 0 
L 547 0 
L 547 4591 
z
M 2244 4591 
L 2244 4591 
z
" transform="scale(0.015625)"/>
      <path id="Helvetica-28" d="M 1894 4666 
Q 1403 3713 1256 3263 
Q 1034 2578 1034 1681 
Q 1034 775 1288 25 
Q 1444 -438 1903 -1306 
L 1525 -1306 
Q 1069 -594 959 -397 
Q 850 -200 722 138 
Q 547 600 478 1125 
Q 444 1397 444 1644 
Q 444 2569 734 3291 
Q 919 3750 1503 4666 
L 1894 4666 
z
" transform="scale(0.015625)"/>
      <path id="Helvetica-6d" d="M 413 3347 
L 969 3347 
L 969 2872 
Q 1169 3119 1331 3231 
Q 1609 3422 1963 3422 
Q 2363 3422 2606 3225 
Q 2744 3113 2856 2894 
Q 3044 3163 3297 3292 
Q 3550 3422 3866 3422 
Q 4541 3422 4784 2934 
Q 4916 2672 4916 2228 
L 4916 0 
L 4331 0 
L 4331 2325 
Q 4331 2659 4164 2784 
Q 3997 2909 3756 2909 
Q 3425 2909 3186 2687 
Q 2947 2466 2947 1947 
L 2947 0 
L 2375 0 
L 2375 2184 
Q 2375 2525 2294 2681 
Q 2166 2916 1816 2916 
Q 1497 2916 1236 2669 
Q 975 2422 975 1775 
L 975 0 
L 413 0 
L 413 3347 
z
" transform="scale(0.015625)"/>
      <path id="Helvetica-29" d="M 222 -1306 
Q 719 -338 863 106 
Q 1081 778 1081 1681 
Q 1081 2584 828 3334 
Q 672 3797 213 4666 
L 591 4666 
Q 1072 3897 1173 3717 
Q 1275 3538 1394 3222 
Q 1544 2831 1608 2450 
Q 1672 2069 1672 1716 
Q 1672 791 1378 66 
Q 1194 -400 613 -1306 
L 222 -1306 
z
" transform="scale(0.015625)"/>
      <path id="Helvetica-76" d="M 688 3347 
L 1581 622 
L 2516 3347 
L 3131 3347 
L 1869 0 
L 1269 0 
L 34 3347 
L 688 3347 
z
" transform="scale(0.015625)"/>
     </defs>
     <use xlink:href="#Helvetica-41"/>
     <use xlink:href="#Helvetica-46" x="66.699219"/>
     <use xlink:href="#Helvetica-32" x="127.783203"/>
     <use xlink:href="#Helvetica-20" x="183.398438"/>
     <use xlink:href="#Helvetica-41" x="211.181641"/>
     <use xlink:href="#Helvetica-50" x="277.880859"/>
     <use xlink:href="#Helvetica-50" x="344.580078"/>
     <use xlink:href="#Helvetica-52" x="411.279297"/>
     <use xlink:href="#Helvetica-41" x="483.496094"/>
     <use xlink:href="#Helvetica-49" x="550.195312"/>
     <use xlink:href="#Helvetica-53" x="577.978516"/>
     <use xlink:href="#Helvetica-45" x="644.677734"/>
     <use xlink:href="#Helvetica-20" x="711.376953"/>
     <use xlink:href="#Helvetica-28" x="739.160156"/>
     <use xlink:href="#Helvetica-6e" x="772.460938"/>
     <use xlink:href="#Helvetica-6f" x="828.076172"/>
     <use xlink:href="#Helvetica-20" x="883.691406"/>
     <use xlink:href="#Helvetica-74" x="911.474609"/>
     <use xlink:href="#Helvetica-65" x="939.257812"/>
     <use xlink:href="#Helvetica-6d" x="994.873047"/>
     <use xlink:href="#Helvetica-70" x="1078.173828"/>
     <use xlink:href="#Helvetica-6c" x="1133.789062"/>
     <use xlink:href="#Helvetica-61" x="1156.005859"/>
     <use xlink:href="#Helvetica-74" x="1211.621094"/>
     <use xlink:href="#Helvetica-65" x="1239.404297"/>
     <use xlink:href="#Helvetica-73" x="1295.019531"/>
     <use xlink:href="#Helvetica-29" x="1345.019531"/>
     <use xlink:href="#Helvetica-20" x="1378.320312"/>
     <use xlink:href="#Helvetica-76" x="1406.103516"/>
     <use xlink:href="#Helvetica-73" x="1456.103516"/>
     <use xlink:href="#Helvetica-20" x="1506.103516"/>
     <use xlink:href="#Helvetica-61" x="1533.886719"/>
     <use xlink:href="#Helvetica-67" x="1589.501953"/>
     <use xlink:href="#Helvetica-6f" x="1645.117188"/>
     <use xlink:href="#Helvetica-6e" x="1700.732422"/>
     <use xlink:href="#Helvetica-69" x="1756.347656"/>
     <use xlink:href="#Helvetica-73" x="1778.564453"/>
     <use xlink:href="#Helvetica-74" x="1828.564453"/>
     <use xlink:href="#Helvetica-20" x="1856.347656"/>
     <use xlink:href="#Helvetica-6c" x="1884.130859"/>
     <use xlink:href="#Helvetica-65" x="1906.347656"/>
     <use xlink:href="#Helvetica-6e" x="1961.962891"/>
     <use xlink:href="#Helvetica-67" x="2017.578125"/>
     <use xlink:href="#Helvetica-74" x="2073.193359"/>
     <use xlink:href="#Helvetica-68" x="2100.976562"/>
    </g>
   </g>
  </g>
 </g>
 <defs>
  <clipPath id="pf6d7913e3c">
   <rect x="43.62" y="24.21375" width="124.95" height="113.96625"/>
  </clipPath>
 </defs>
</svg>
