<?xml version="1.0" encoding="utf-8" standalone="no"?>
<!DOCTYPE svg PUBLIC "-//W3C//DTD SVG 1.1//EN"
  "http://www.w3.org/Graphics/SVG/1.1/DTD/svg11.dtd">
<svg xmlns:xlink="http://www.w3.org/1999/xlink" width="108pt" height="108pt" viewBox="0 0 108 108" xmlns="http://www.w3.org/2000/svg" version="1.1">
 <metadata>
  <rdf:RDF xmlns:dc="http://purl.org/dc/elements/1.1/" xmlns:cc="http://creativecommons.org/ns#" xmlns:rdf="http://www.w3.org/1999/02/22-rdf-syntax-ns#">
   <cc:Work>
    <dc:type rdf:resource="http://purl.org/dc/dcmitype/StillImage"/>
    <dc:date>2025-03-07T14:44:40.429450</dc:date>
    <dc:format>image/svg+xml</dc:format>
    <dc:creator>
     <cc:Agent>
      <dc:title>Matplotlib v3.10.0, https://matplotlib.org/</dc:title>
     </cc:Agent>
    </dc:creator>
   </cc:Work>
  </rdf:RDF>
 </metadata>
 <defs>
  <style type="text/css">*{stroke-linejoin: round; stroke-linecap: butt}</style>
 </defs>
 <g id="figure_1">
  <g id="patch_1">
   <path d="M 0 108 
L 108 108 
L 108 0 
L 0 0 
z
" style="fill: #ffffff"/>
  </g>
  <g id="axes_1">
   <g id="patch_2">
    <path d="M 22.35 87 
L 99.36 87 
L 99.36 20.4 
L 22.35 20.4 
z
" style="fill: #ffffff"/>
   </g>
   <g id="matplotlib.axis_1">
    <g id="xtick_1">
     <g id="line2d_1">
      <path d="M 53.854091 87 
L 53.854091 20.4 
" clip-path="url(#p5a15277f02)" style="fill: none; stroke: #cccccc; stroke-width: 0.8; stroke-linecap: round"/>
     </g>
     <g id="text_1">
      <!-- 5 -->
      <g style="fill: #262626" transform="translate(51.629716 97.53875) scale(0.08 -0.08)">
       <defs>
        <path id="Helvetica-35" d="M 791 1141 
Q 847 659 1238 475 
Q 1438 381 1700 381 
Q 2200 381 2440 700 
Q 2681 1019 2681 1406 
Q 2681 1875 2395 2131 
Q 2109 2388 1709 2388 
Q 1419 2388 1211 2275 
Q 1003 2163 856 1963 
L 369 1991 
L 709 4400 
L 3034 4400 
L 3034 3856 
L 1131 3856 
L 941 2613 
Q 1097 2731 1238 2791 
Q 1488 2894 1816 2894 
Q 2431 2894 2859 2497 
Q 3288 2100 3288 1491 
Q 3288 856 2895 371 
Q 2503 -113 1644 -113 
Q 1097 -113 676 195 
Q 256 503 206 1141 
L 791 1141 
z
" transform="scale(0.015625)"/>
       </defs>
       <use xlink:href="#Helvetica-35"/>
      </g>
     </g>
    </g>
    <g id="xtick_2">
     <g id="line2d_2">
      <path d="M 88.858636 87 
L 88.858636 20.4 
" clip-path="url(#p5a15277f02)" style="fill: none; stroke: #cccccc; stroke-width: 0.8; stroke-linecap: round"/>
     </g>
     <g id="text_2">
      <!-- 10 -->
      <g style="fill: #262626" transform="translate(84.409886 97.53875) scale(0.08 -0.08)">
       <defs>
        <path id="Helvetica-31" d="M 613 3169 
L 613 3600 
Q 1222 3659 1462 3798 
Q 1703 3938 1822 4456 
L 2266 4456 
L 2266 0 
L 1666 0 
L 1666 3169 
L 613 3169 
z
" transform="scale(0.015625)"/>
        <path id="Helvetica-30" d="M 1731 4475 
Q 2600 4475 2988 3759 
Q 3288 3206 3288 2244 
Q 3288 1331 3016 734 
Q 2622 -122 1728 -122 
Q 922 -122 528 578 
Q 200 1163 200 2147 
Q 200 2909 397 3456 
Q 766 4475 1731 4475 
z
M 1725 391 
Q 2163 391 2422 778 
Q 2681 1166 2681 2222 
Q 2681 2984 2493 3476 
Q 2306 3969 1766 3969 
Q 1269 3969 1039 3501 
Q 809 3034 809 2125 
Q 809 1441 956 1025 
Q 1181 391 1725 391 
z
" transform="scale(0.015625)"/>
       </defs>
       <use xlink:href="#Helvetica-31"/>
       <use xlink:href="#Helvetica-30" transform="translate(55.615234 0)"/>
      </g>
     </g>
    </g>
   </g>
   <g id="matplotlib.axis_2">
    <g id="ytick_1">
     <g id="line2d_3">
      <path d="M 22.35 82.915653 
L 99.36 82.915653 
" clip-path="url(#p5a15277f02)" style="fill: none; stroke: #cccccc; stroke-width: 0.8; stroke-linecap: round"/>
     </g>
     <g id="text_3">
      <!-- 0 -->
      <g style="fill: #262626" transform="translate(13.10125 85.785028) scale(0.08 -0.08)">
       <use xlink:href="#Helvetica-30"/>
      </g>
     </g>
    </g>
    <g id="ytick_2">
     <g id="line2d_4">
      <path d="M 22.35 77.515497 
L 99.36 77.515497 
" clip-path="url(#p5a15277f02)" style="fill: none; stroke: #cccccc; stroke-width: 0.8; stroke-linecap: round"/>
     </g>
     <g id="text_4">
      <!-- 1 -->
      <g style="fill: #262626" transform="translate(13.10125 80.384872) scale(0.08 -0.08)">
       <use xlink:href="#Helvetica-31"/>
      </g>
     </g>
    </g>
    <g id="ytick_3">
     <g id="line2d_5">
      <path d="M 22.35 72.11534 
L 99.36 72.11534 
" clip-path="url(#p5a15277f02)" style="fill: none; stroke: #cccccc; stroke-width: 0.8; stroke-linecap: round"/>
     </g>
     <g id="text_5">
      <!-- 2 -->
      <g style="fill: #262626" transform="translate(13.10125 74.984715) scale(0.08 -0.08)">
       <defs>
        <path id="Helvetica-32" d="M 200 0 
Q 231 578 439 1006 
Q 647 1434 1250 1784 
L 1850 2131 
Q 2253 2366 2416 2531 
Q 2672 2791 2672 3125 
Q 2672 3516 2437 3745 
Q 2203 3975 1813 3975 
Q 1234 3975 1013 3538 
Q 894 3303 881 2888 
L 309 2888 
Q 319 3472 525 3841 
Q 891 4491 1816 4491 
Q 2584 4491 2939 4075 
Q 3294 3659 3294 3150 
Q 3294 2613 2916 2231 
Q 2697 2009 2131 1694 
L 1703 1456 
Q 1397 1288 1222 1134 
Q 909 863 828 531 
L 3272 531 
L 3272 0 
L 200 0 
z
" transform="scale(0.015625)"/>
       </defs>
       <use xlink:href="#Helvetica-32"/>
      </g>
     </g>
    </g>
    <g id="ytick_4">
     <g id="line2d_6">
      <path d="M 22.35 66.715183 
L 99.36 66.715183 
" clip-path="url(#p5a15277f02)" style="fill: none; stroke: #cccccc; stroke-width: 0.8; stroke-linecap: round"/>
     </g>
     <g id="text_6">
      <!-- 3 -->
      <g style="fill: #262626" transform="translate(13.10125 69.584558) scale(0.08 -0.08)">
       <defs>
        <path id="Helvetica-33" d="M 1663 -122 
Q 869 -122 511 314 
Q 153 750 153 1375 
L 741 1375 
Q 778 941 903 744 
Q 1122 391 1694 391 
Q 2138 391 2406 628 
Q 2675 866 2675 1241 
Q 2675 1703 2392 1887 
Q 2109 2072 1606 2072 
Q 1550 2072 1492 2070 
Q 1434 2069 1375 2066 
L 1375 2563 
Q 1463 2553 1522 2550 
Q 1581 2547 1650 2547 
Q 1966 2547 2169 2647 
Q 2525 2822 2525 3272 
Q 2525 3606 2287 3787 
Q 2050 3969 1734 3969 
Q 1172 3969 956 3594 
Q 838 3388 822 3006 
L 266 3006 
Q 266 3506 466 3856 
Q 809 4481 1675 4481 
Q 2359 4481 2734 4176 
Q 3109 3872 3109 3294 
Q 3109 2881 2888 2625 
Q 2750 2466 2531 2375 
Q 2884 2278 3082 2001 
Q 3281 1725 3281 1325 
Q 3281 684 2859 281 
Q 2438 -122 1663 -122 
z
" transform="scale(0.015625)"/>
       </defs>
       <use xlink:href="#Helvetica-33"/>
      </g>
     </g>
    </g>
    <g id="ytick_5">
     <g id="line2d_7">
      <path d="M 22.35 61.315027 
L 99.36 61.315027 
" clip-path="url(#p5a15277f02)" style="fill: none; stroke: #cccccc; stroke-width: 0.8; stroke-linecap: round"/>
     </g>
     <g id="text_7">
      <!-- 4 -->
      <g style="fill: #262626" transform="translate(13.10125 64.184402) scale(0.08 -0.08)">
       <defs>
        <path id="Helvetica-34" d="M 2116 1584 
L 2116 3613 
L 681 1584 
L 2116 1584 
z
M 2125 0 
L 2125 1094 
L 163 1094 
L 163 1644 
L 2213 4488 
L 2688 4488 
L 2688 1584 
L 3347 1584 
L 3347 1094 
L 2688 1094 
L 2688 0 
L 2125 0 
z
" transform="scale(0.015625)"/>
       </defs>
       <use xlink:href="#Helvetica-34"/>
      </g>
     </g>
    </g>
    <g id="ytick_6">
     <g id="line2d_8">
      <path d="M 22.35 55.91487 
L 99.36 55.91487 
" clip-path="url(#p5a15277f02)" style="fill: none; stroke: #cccccc; stroke-width: 0.8; stroke-linecap: round"/>
     </g>
     <g id="text_8">
      <!-- 5 -->
      <g style="fill: #262626" transform="translate(13.10125 58.784245) scale(0.08 -0.08)">
       <use xlink:href="#Helvetica-35"/>
      </g>
     </g>
    </g>
    <g id="ytick_7">
     <g id="line2d_9">
      <path d="M 22.35 50.514713 
L 99.36 50.514713 
" clip-path="url(#p5a15277f02)" style="fill: none; stroke: #cccccc; stroke-width: 0.8; stroke-linecap: round"/>
     </g>
     <g id="text_9">
      <!-- 6 -->
      <g style="fill: #262626" transform="translate(13.10125 53.384088) scale(0.08 -0.08)">
       <defs>
        <path id="Helvetica-36" d="M 1872 4494 
Q 2622 4494 2917 4105 
Q 3213 3716 3213 3303 
L 2656 3303 
Q 2606 3569 2497 3719 
Q 2294 4000 1881 4000 
Q 1409 4000 1131 3564 
Q 853 3128 822 2316 
Q 1016 2600 1309 2741 
Q 1578 2866 1909 2866 
Q 2472 2866 2890 2506 
Q 3309 2147 3309 1434 
Q 3309 825 2912 354 
Q 2516 -116 1781 -116 
Q 1153 -116 697 361 
Q 241 838 241 1966 
Q 241 2800 444 3381 
Q 834 4494 1872 4494 
z
M 1831 384 
Q 2275 384 2495 682 
Q 2716 981 2716 1388 
Q 2716 1731 2519 2042 
Q 2322 2353 1803 2353 
Q 1441 2353 1167 2112 
Q 894 1872 894 1388 
Q 894 963 1142 673 
Q 1391 384 1831 384 
z
" transform="scale(0.015625)"/>
       </defs>
       <use xlink:href="#Helvetica-36"/>
      </g>
     </g>
    </g>
    <g id="ytick_8">
     <g id="line2d_10">
      <path d="M 22.35 45.114557 
L 99.36 45.114557 
" clip-path="url(#p5a15277f02)" style="fill: none; stroke: #cccccc; stroke-width: 0.8; stroke-linecap: round"/>
     </g>
     <g id="text_10">
      <!-- 7 -->
      <g style="fill: #262626" transform="translate(13.10125 47.983932) scale(0.08 -0.08)">
       <defs>
        <path id="Helvetica-37" d="M 3347 4400 
L 3347 3909 
Q 3131 3700 2773 3181 
Q 2416 2663 2141 2063 
Q 1869 1478 1728 997 
Q 1638 688 1494 0 
L 872 0 
Q 1084 1281 1809 2550 
Q 2238 3294 2709 3834 
L 234 3834 
L 234 4400 
L 3347 4400 
z
" transform="scale(0.015625)"/>
       </defs>
       <use xlink:href="#Helvetica-37"/>
      </g>
     </g>
    </g>
    <g id="ytick_9">
     <g id="line2d_11">
      <path d="M 22.35 39.7144 
L 99.36 39.7144 
" clip-path="url(#p5a15277f02)" style="fill: none; stroke: #cccccc; stroke-width: 0.8; stroke-linecap: round"/>
     </g>
     <g id="text_11">
      <!-- 8 -->
      <g style="fill: #262626" transform="translate(13.10125 42.583775) scale(0.08 -0.08)">
       <defs>
        <path id="Helvetica-38" d="M 1741 2600 
Q 2113 2600 2322 2808 
Q 2531 3016 2531 3303 
Q 2531 3553 2331 3762 
Q 2131 3972 1722 3972 
Q 1316 3972 1134 3762 
Q 953 3553 953 3272 
Q 953 2956 1187 2778 
Q 1422 2600 1741 2600 
z
M 1775 384 
Q 2166 384 2423 595 
Q 2681 806 2681 1225 
Q 2681 1659 2415 1884 
Q 2150 2109 1734 2109 
Q 1331 2109 1076 1879 
Q 822 1650 822 1244 
Q 822 894 1055 639 
Q 1288 384 1775 384 
z
M 975 2384 
Q 741 2484 609 2619 
Q 363 2869 363 3269 
Q 363 3769 725 4128 
Q 1088 4488 1753 4488 
Q 2397 4488 2762 4148 
Q 3128 3809 3128 3356 
Q 3128 2938 2916 2678 
Q 2797 2531 2547 2391 
Q 2825 2263 2984 2097 
Q 3281 1784 3281 1284 
Q 3281 694 2884 283 
Q 2488 -128 1763 -128 
Q 1109 -128 657 226 
Q 206 581 206 1256 
Q 206 1653 400 1942 
Q 594 2231 975 2384 
z
" transform="scale(0.015625)"/>
       </defs>
       <use xlink:href="#Helvetica-38"/>
      </g>
     </g>
    </g>
    <g id="ytick_10">
     <g id="line2d_12">
      <path d="M 22.35 34.314244 
L 99.36 34.314244 
" clip-path="url(#p5a15277f02)" style="fill: none; stroke: #cccccc; stroke-width: 0.8; stroke-linecap: round"/>
     </g>
     <g id="text_12">
      <!-- 9 -->
      <g style="fill: #262626" transform="translate(13.10125 37.183619) scale(0.08 -0.08)">
       <defs>
        <path id="Helvetica-39" d="M 850 1081 
Q 875 616 1209 438 
Q 1381 344 1597 344 
Q 2000 344 2284 680 
Q 2569 1016 2688 2044 
Q 2500 1747 2223 1626 
Q 1947 1506 1628 1506 
Q 981 1506 604 1909 
Q 228 2313 228 2947 
Q 228 3556 600 4018 
Q 972 4481 1697 4481 
Q 2675 4481 3047 3600 
Q 3253 3116 3253 2388 
Q 3253 1566 3006 931 
Q 2597 -125 1619 -125 
Q 963 -125 622 219 
Q 281 563 281 1081 
L 850 1081 
z
M 1703 2000 
Q 2038 2000 2314 2220 
Q 2591 2441 2591 2991 
Q 2591 3484 2342 3726 
Q 2094 3969 1709 3969 
Q 1297 3969 1055 3692 
Q 813 3416 813 2953 
Q 813 2516 1025 2258 
Q 1238 2000 1703 2000 
z
" transform="scale(0.015625)"/>
       </defs>
       <use xlink:href="#Helvetica-39"/>
      </g>
     </g>
    </g>
    <g id="ytick_11">
     <g id="line2d_13">
      <path d="M 22.35 28.914087 
L 99.36 28.914087 
" clip-path="url(#p5a15277f02)" style="fill: none; stroke: #cccccc; stroke-width: 0.8; stroke-linecap: round"/>
     </g>
     <g id="text_13">
      <!-- 10 -->
      <g style="fill: #262626" transform="translate(8.6525 31.783462) scale(0.08 -0.08)">
       <use xlink:href="#Helvetica-31"/>
       <use xlink:href="#Helvetica-30" transform="translate(55.615234 0)"/>
      </g>
     </g>
    </g>
    <g id="ytick_12">
     <g id="line2d_14">
      <path d="M 22.35 23.51393 
L 99.36 23.51393 
" clip-path="url(#p5a15277f02)" style="fill: none; stroke: #cccccc; stroke-width: 0.8; stroke-linecap: round"/>
     </g>
     <g id="text_14">
      <!-- 11 -->
      <g style="fill: #262626" transform="translate(8.6525 26.383305) scale(0.08 -0.08)">
       <use xlink:href="#Helvetica-31"/>
       <use xlink:href="#Helvetica-31" transform="translate(55.615234 0)"/>
      </g>
     </g>
    </g>
   </g>
   <g id="PathCollection_1">
    <defs>
     <path id="m2d565d3fc4" d="M 0 1.2 
C 0.318244 1.2 0.623496 1.07356 0.848528 0.848528 
C 1.07356 0.623496 1.2 0.318244 1.2 0 
C 1.2 -0.318244 1.07356 -0.623496 0.848528 -0.848528 
C 0.623496 -1.07356 0.318244 -1.2 0 -1.2 
C -0.318244 -1.2 -0.623496 -1.07356 -0.848528 -0.848528 
C -1.07356 -0.623496 -1.2 -0.318244 -1.2 0 
C -1.2 0.318244 -1.07356 0.623496 -0.848528 0.848528 
C -0.623496 1.07356 -0.318244 1.2 0 1.2 
z
" style="stroke: #000000; stroke-opacity: 0.5"/>
    </defs>
    <g clip-path="url(#p5a15277f02)">
     <use xlink:href="#m2d565d3fc4" x="39.852273" y="77.570019" style="fill-opacity: 0.5; stroke: #000000; stroke-opacity: 0.5"/>
     <use xlink:href="#m2d565d3fc4" x="39.852273" y="77.479208" style="fill-opacity: 0.5; stroke: #000000; stroke-opacity: 0.5"/>
     <use xlink:href="#m2d565d3fc4" x="81.857727" y="77.642233" style="fill-opacity: 0.5; stroke: #000000; stroke-opacity: 0.5"/>
     <use xlink:href="#m2d565d3fc4" x="32.851364" y="77.012093" style="fill-opacity: 0.5; stroke: #000000; stroke-opacity: 0.5"/>
     <use xlink:href="#m2d565d3fc4" x="39.852273" y="77.591963" style="fill-opacity: 0.5; stroke: #000000; stroke-opacity: 0.5"/>
     <use xlink:href="#m2d565d3fc4" x="32.851364" y="77.000322" style="fill-opacity: 0.5; stroke: #000000; stroke-opacity: 0.5"/>
     <use xlink:href="#m2d565d3fc4" x="39.852273" y="71.046051" style="fill-opacity: 0.5; stroke: #000000; stroke-opacity: 0.5"/>
     <use xlink:href="#m2d565d3fc4" x="32.851364" y="77.196892" style="fill-opacity: 0.5; stroke: #000000; stroke-opacity: 0.5"/>
     <use xlink:href="#m2d565d3fc4" x="53.854091" y="76.942881" style="fill-opacity: 0.5; stroke: #000000; stroke-opacity: 0.5"/>
     <use xlink:href="#m2d565d3fc4" x="39.852273" y="77.573823" style="fill-opacity: 0.5; stroke: #000000; stroke-opacity: 0.5"/>
     <use xlink:href="#m2d565d3fc4" x="32.851364" y="77.818654" style="fill-opacity: 0.5; stroke: #000000; stroke-opacity: 0.5"/>
     <use xlink:href="#m2d565d3fc4" x="32.851364" y="77.022797" style="fill-opacity: 0.5; stroke: #000000; stroke-opacity: 0.5"/>
     <use xlink:href="#m2d565d3fc4" x="39.852273" y="77.554478" style="fill-opacity: 0.5; stroke: #000000; stroke-opacity: 0.5"/>
     <use xlink:href="#m2d565d3fc4" x="25.850455" y="77.097835" style="fill-opacity: 0.5; stroke: #000000; stroke-opacity: 0.5"/>
     <use xlink:href="#m2d565d3fc4" x="25.850455" y="77.712415" style="fill-opacity: 0.5; stroke: #000000; stroke-opacity: 0.5"/>
     <use xlink:href="#m2d565d3fc4" x="95.859545" y="77.691966" style="fill-opacity: 0.5; stroke: #000000; stroke-opacity: 0.5"/>
     <use xlink:href="#m2d565d3fc4" x="39.852273" y="71.205489" style="fill-opacity: 0.5; stroke: #000000; stroke-opacity: 0.5"/>
     <use xlink:href="#m2d565d3fc4" x="74.856818" y="55.740439" style="fill-opacity: 0.5; stroke: #000000; stroke-opacity: 0.5"/>
     <use xlink:href="#m2d565d3fc4" x="39.852273" y="78.261742" style="fill-opacity: 0.5; stroke: #000000; stroke-opacity: 0.5"/>
     <use xlink:href="#m2d565d3fc4" x="39.852273" y="77.675755" style="fill-opacity: 0.5; stroke: #000000; stroke-opacity: 0.5"/>
     <use xlink:href="#m2d565d3fc4" x="32.851364" y="78.307409" style="fill-opacity: 0.5; stroke: #000000; stroke-opacity: 0.5"/>
     <use xlink:href="#m2d565d3fc4" x="39.852273" y="72.040634" style="fill-opacity: 0.5; stroke: #000000; stroke-opacity: 0.5"/>
     <use xlink:href="#m2d565d3fc4" x="60.855" y="77.747736" style="fill-opacity: 0.5; stroke: #000000; stroke-opacity: 0.5"/>
     <use xlink:href="#m2d565d3fc4" x="46.853182" y="76.524864" style="fill-opacity: 0.5; stroke: #000000; stroke-opacity: 0.5"/>
     <use xlink:href="#m2d565d3fc4" x="39.852273" y="77.910047" style="fill-opacity: 0.5; stroke: #000000; stroke-opacity: 0.5"/>
     <use xlink:href="#m2d565d3fc4" x="53.854091" y="76.512815" style="fill-opacity: 0.5; stroke: #000000; stroke-opacity: 0.5"/>
     <use xlink:href="#m2d565d3fc4" x="39.852273" y="77.320671" style="fill-opacity: 0.5; stroke: #000000; stroke-opacity: 0.5"/>
     <use xlink:href="#m2d565d3fc4" x="88.858636" y="78.2316" style="fill-opacity: 0.5; stroke: #000000; stroke-opacity: 0.5"/>
     <use xlink:href="#m2d565d3fc4" x="81.857727" y="62.173614" style="fill-opacity: 0.5; stroke: #000000; stroke-opacity: 0.5"/>
     <use xlink:href="#m2d565d3fc4" x="39.852273" y="76.749573" style="fill-opacity: 0.5; stroke: #000000; stroke-opacity: 0.5"/>
     <use xlink:href="#m2d565d3fc4" x="39.852273" y="67.401278" style="fill-opacity: 0.5; stroke: #000000; stroke-opacity: 0.5"/>
     <use xlink:href="#m2d565d3fc4" x="32.851364" y="61.184196" style="fill-opacity: 0.5; stroke: #000000; stroke-opacity: 0.5"/>
     <use xlink:href="#m2d565d3fc4" x="32.851364" y="76.632464" style="fill-opacity: 0.5; stroke: #000000; stroke-opacity: 0.5"/>
     <use xlink:href="#m2d565d3fc4" x="39.852273" y="77.404435" style="fill-opacity: 0.5; stroke: #000000; stroke-opacity: 0.5"/>
     <use xlink:href="#m2d565d3fc4" x="32.851364" y="76.910781" style="fill-opacity: 0.5; stroke: #000000; stroke-opacity: 0.5"/>
     <use xlink:href="#m2d565d3fc4" x="67.855909" y="78.545004" style="fill-opacity: 0.5; stroke: #000000; stroke-opacity: 0.5"/>
     <use xlink:href="#m2d565d3fc4" x="60.855" y="78.220361" style="fill-opacity: 0.5; stroke: #000000; stroke-opacity: 0.5"/>
     <use xlink:href="#m2d565d3fc4" x="25.850455" y="77.226826" style="fill-opacity: 0.5; stroke: #000000; stroke-opacity: 0.5"/>
     <use xlink:href="#m2d565d3fc4" x="39.852273" y="77.066958" style="fill-opacity: 0.5; stroke: #000000; stroke-opacity: 0.5"/>
     <use xlink:href="#m2d565d3fc4" x="46.853182" y="76.616008" style="fill-opacity: 0.5; stroke: #000000; stroke-opacity: 0.5"/>
     <use xlink:href="#m2d565d3fc4" x="25.850455" y="66.093563" style="fill-opacity: 0.5; stroke: #000000; stroke-opacity: 0.5"/>
     <use xlink:href="#m2d565d3fc4" x="39.852273" y="77.264718" style="fill-opacity: 0.5; stroke: #000000; stroke-opacity: 0.5"/>
     <use xlink:href="#m2d565d3fc4" x="32.851364" y="51.233015" style="fill-opacity: 0.5; stroke: #000000; stroke-opacity: 0.5"/>
     <use xlink:href="#m2d565d3fc4" x="67.855909" y="78.052447" style="fill-opacity: 0.5; stroke: #000000; stroke-opacity: 0.5"/>
     <use xlink:href="#m2d565d3fc4" x="39.852273" y="76.581304" style="fill-opacity: 0.5; stroke: #000000; stroke-opacity: 0.5"/>
     <use xlink:href="#m2d565d3fc4" x="32.851364" y="73.052627" style="fill-opacity: 0.5; stroke: #000000; stroke-opacity: 0.5"/>
     <use xlink:href="#m2d565d3fc4" x="88.858636" y="72.814781" style="fill-opacity: 0.5; stroke: #000000; stroke-opacity: 0.5"/>
     <use xlink:href="#m2d565d3fc4" x="46.853182" y="78.208662" style="fill-opacity: 0.5; stroke: #000000; stroke-opacity: 0.5"/>
     <use xlink:href="#m2d565d3fc4" x="25.850455" y="76.6761" style="fill-opacity: 0.5; stroke: #000000; stroke-opacity: 0.5"/>
     <use xlink:href="#m2d565d3fc4" x="39.852273" y="78.187404" style="fill-opacity: 0.5; stroke: #000000; stroke-opacity: 0.5"/>
     <use xlink:href="#m2d565d3fc4" x="46.853182" y="49.72737" style="fill-opacity: 0.5; stroke: #000000; stroke-opacity: 0.5"/>
     <use xlink:href="#m2d565d3fc4" x="32.851364" y="76.798851" style="fill-opacity: 0.5; stroke: #000000; stroke-opacity: 0.5"/>
     <use xlink:href="#m2d565d3fc4" x="46.853182" y="44.937891" style="fill-opacity: 0.5; stroke: #000000; stroke-opacity: 0.5"/>
     <use xlink:href="#m2d565d3fc4" x="67.855909" y="77.63142" style="fill-opacity: 0.5; stroke: #000000; stroke-opacity: 0.5"/>
     <use xlink:href="#m2d565d3fc4" x="74.856818" y="61.631783" style="fill-opacity: 0.5; stroke: #000000; stroke-opacity: 0.5"/>
     <use xlink:href="#m2d565d3fc4" x="39.852273" y="78.560504" style="fill-opacity: 0.5; stroke: #000000; stroke-opacity: 0.5"/>
     <use xlink:href="#m2d565d3fc4" x="25.850455" y="76.455101" style="fill-opacity: 0.5; stroke: #000000; stroke-opacity: 0.5"/>
     <use xlink:href="#m2d565d3fc4" x="32.851364" y="71.874445" style="fill-opacity: 0.5; stroke: #000000; stroke-opacity: 0.5"/>
     <use xlink:href="#m2d565d3fc4" x="39.852273" y="78.127774" style="fill-opacity: 0.5; stroke: #000000; stroke-opacity: 0.5"/>
     <use xlink:href="#m2d565d3fc4" x="46.853182" y="56.247113" style="fill-opacity: 0.5; stroke: #000000; stroke-opacity: 0.5"/>
     <use xlink:href="#m2d565d3fc4" x="32.851364" y="78.014614" style="fill-opacity: 0.5; stroke: #000000; stroke-opacity: 0.5"/>
     <use xlink:href="#m2d565d3fc4" x="46.853182" y="72.111256" style="fill-opacity: 0.5; stroke: #000000; stroke-opacity: 0.5"/>
     <use xlink:href="#m2d565d3fc4" x="25.850455" y="66.315961" style="fill-opacity: 0.5; stroke: #000000; stroke-opacity: 0.5"/>
     <use xlink:href="#m2d565d3fc4" x="60.855" y="67.22233" style="fill-opacity: 0.5; stroke: #000000; stroke-opacity: 0.5"/>
     <use xlink:href="#m2d565d3fc4" x="32.851364" y="65.75887" style="fill-opacity: 0.5; stroke: #000000; stroke-opacity: 0.5"/>
     <use xlink:href="#m2d565d3fc4" x="25.850455" y="77.143755" style="fill-opacity: 0.5; stroke: #000000; stroke-opacity: 0.5"/>
     <use xlink:href="#m2d565d3fc4" x="25.850455" y="66.010925" style="fill-opacity: 0.5; stroke: #000000; stroke-opacity: 0.5"/>
     <use xlink:href="#m2d565d3fc4" x="67.855909" y="78.409871" style="fill-opacity: 0.5; stroke: #000000; stroke-opacity: 0.5"/>
     <use xlink:href="#m2d565d3fc4" x="46.853182" y="49.575516" style="fill-opacity: 0.5; stroke: #000000; stroke-opacity: 0.5"/>
     <use xlink:href="#m2d565d3fc4" x="46.853182" y="71.036791" style="fill-opacity: 0.5; stroke: #000000; stroke-opacity: 0.5"/>
     <use xlink:href="#m2d565d3fc4" x="25.850455" y="66.917185" style="fill-opacity: 0.5; stroke: #000000; stroke-opacity: 0.5"/>
     <use xlink:href="#m2d565d3fc4" x="67.855909" y="76.564401" style="fill-opacity: 0.5; stroke: #000000; stroke-opacity: 0.5"/>
     <use xlink:href="#m2d565d3fc4" x="46.853182" y="77.318801" style="fill-opacity: 0.5; stroke: #000000; stroke-opacity: 0.5"/>
     <use xlink:href="#m2d565d3fc4" x="25.850455" y="77.591705" style="fill-opacity: 0.5; stroke: #000000; stroke-opacity: 0.5"/>
     <use xlink:href="#m2d565d3fc4" x="32.851364" y="76.683829" style="fill-opacity: 0.5; stroke: #000000; stroke-opacity: 0.5"/>
     <use xlink:href="#m2d565d3fc4" x="25.850455" y="24.28827" style="fill-opacity: 0.5; stroke: #000000; stroke-opacity: 0.5"/>
     <use xlink:href="#m2d565d3fc4" x="25.850455" y="67.214767" style="fill-opacity: 0.5; stroke: #000000; stroke-opacity: 0.5"/>
     <use xlink:href="#m2d565d3fc4" x="32.851364" y="78.460073" style="fill-opacity: 0.5; stroke: #000000; stroke-opacity: 0.5"/>
     <use xlink:href="#m2d565d3fc4" x="32.851364" y="67.559827" style="fill-opacity: 0.5; stroke: #000000; stroke-opacity: 0.5"/>
     <use xlink:href="#m2d565d3fc4" x="53.854091" y="78.53711" style="fill-opacity: 0.5; stroke: #000000; stroke-opacity: 0.5"/>
     <use xlink:href="#m2d565d3fc4" x="25.850455" y="77.826983" style="fill-opacity: 0.5; stroke: #000000; stroke-opacity: 0.5"/>
     <use xlink:href="#m2d565d3fc4" x="25.850455" y="66.492724" style="fill-opacity: 0.5; stroke: #000000; stroke-opacity: 0.5"/>
     <use xlink:href="#m2d565d3fc4" x="32.851364" y="72.519779" style="fill-opacity: 0.5; stroke: #000000; stroke-opacity: 0.5"/>
     <use xlink:href="#m2d565d3fc4" x="25.850455" y="76.947462" style="fill-opacity: 0.5; stroke: #000000; stroke-opacity: 0.5"/>
     <use xlink:href="#m2d565d3fc4" x="39.852273" y="73.060949" style="fill-opacity: 0.5; stroke: #000000; stroke-opacity: 0.5"/>
     <use xlink:href="#m2d565d3fc4" x="81.857727" y="77.663598" style="fill-opacity: 0.5; stroke: #000000; stroke-opacity: 0.5"/>
     <use xlink:href="#m2d565d3fc4" x="74.856818" y="78.294953" style="fill-opacity: 0.5; stroke: #000000; stroke-opacity: 0.5"/>
     <use xlink:href="#m2d565d3fc4" x="39.852273" y="55.034813" style="fill-opacity: 0.5; stroke: #000000; stroke-opacity: 0.5"/>
     <use xlink:href="#m2d565d3fc4" x="25.850455" y="67.612917" style="fill-opacity: 0.5; stroke: #000000; stroke-opacity: 0.5"/>
     <use xlink:href="#m2d565d3fc4" x="74.856818" y="45.807397" style="fill-opacity: 0.5; stroke: #000000; stroke-opacity: 0.5"/>
     <use xlink:href="#m2d565d3fc4" x="46.853182" y="77.205272" style="fill-opacity: 0.5; stroke: #000000; stroke-opacity: 0.5"/>
     <use xlink:href="#m2d565d3fc4" x="46.853182" y="78.119376" style="fill-opacity: 0.5; stroke: #000000; stroke-opacity: 0.5"/>
     <use xlink:href="#m2d565d3fc4" x="32.851364" y="71.819809" style="fill-opacity: 0.5; stroke: #000000; stroke-opacity: 0.5"/>
     <use xlink:href="#m2d565d3fc4" x="25.850455" y="62.331035" style="fill-opacity: 0.5; stroke: #000000; stroke-opacity: 0.5"/>
     <use xlink:href="#m2d565d3fc4" x="32.851364" y="72.195635" style="fill-opacity: 0.5; stroke: #000000; stroke-opacity: 0.5"/>
     <use xlink:href="#m2d565d3fc4" x="39.852273" y="62.252626" style="fill-opacity: 0.5; stroke: #000000; stroke-opacity: 0.5"/>
     <use xlink:href="#m2d565d3fc4" x="25.850455" y="40.738196" style="fill-opacity: 0.5; stroke: #000000; stroke-opacity: 0.5"/>
     <use xlink:href="#m2d565d3fc4" x="32.851364" y="60.74031" style="fill-opacity: 0.5; stroke: #000000; stroke-opacity: 0.5"/>
     <use xlink:href="#m2d565d3fc4" x="25.850455" y="61.889588" style="fill-opacity: 0.5; stroke: #000000; stroke-opacity: 0.5"/>
     <use xlink:href="#m2d565d3fc4" x="25.850455" y="71.522934" style="fill-opacity: 0.5; stroke: #000000; stroke-opacity: 0.5"/>
     <use xlink:href="#m2d565d3fc4" x="25.850455" y="39.385467" style="fill-opacity: 0.5; stroke: #000000; stroke-opacity: 0.5"/>
     <use xlink:href="#m2d565d3fc4" x="46.853182" y="66.627781" style="fill-opacity: 0.5; stroke: #000000; stroke-opacity: 0.5"/>
     <use xlink:href="#m2d565d3fc4" x="25.850455" y="23.427273" style="fill-opacity: 0.5; stroke: #000000; stroke-opacity: 0.5"/>
     <use xlink:href="#m2d565d3fc4" x="25.850455" y="61.729823" style="fill-opacity: 0.5; stroke: #000000; stroke-opacity: 0.5"/>
     <use xlink:href="#m2d565d3fc4" x="25.850455" y="39.680073" style="fill-opacity: 0.5; stroke: #000000; stroke-opacity: 0.5"/>
     <use xlink:href="#m2d565d3fc4" x="25.850455" y="76.82994" style="fill-opacity: 0.5; stroke: #000000; stroke-opacity: 0.5"/>
     <use xlink:href="#m2d565d3fc4" x="39.852273" y="78.128611" style="fill-opacity: 0.5; stroke: #000000; stroke-opacity: 0.5"/>
     <use xlink:href="#m2d565d3fc4" x="53.854091" y="78.126818" style="fill-opacity: 0.5; stroke: #000000; stroke-opacity: 0.5"/>
     <use xlink:href="#m2d565d3fc4" x="39.852273" y="76.480636" style="fill-opacity: 0.5; stroke: #000000; stroke-opacity: 0.5"/>
     <use xlink:href="#m2d565d3fc4" x="25.850455" y="71.104484" style="fill-opacity: 0.5; stroke: #000000; stroke-opacity: 0.5"/>
     <use xlink:href="#m2d565d3fc4" x="53.854091" y="78.417486" style="fill-opacity: 0.5; stroke: #000000; stroke-opacity: 0.5"/>
     <use xlink:href="#m2d565d3fc4" x="25.850455" y="55.029579" style="fill-opacity: 0.5; stroke: #000000; stroke-opacity: 0.5"/>
     <use xlink:href="#m2d565d3fc4" x="60.855" y="77.596906" style="fill-opacity: 0.5; stroke: #000000; stroke-opacity: 0.5"/>
     <use xlink:href="#m2d565d3fc4" x="25.850455" y="61.612724" style="fill-opacity: 0.5; stroke: #000000; stroke-opacity: 0.5"/>
     <use xlink:href="#m2d565d3fc4" x="53.854091" y="76.592649" style="fill-opacity: 0.5; stroke: #000000; stroke-opacity: 0.5"/>
     <use xlink:href="#m2d565d3fc4" x="25.850455" y="54.882766" style="fill-opacity: 0.5; stroke: #000000; stroke-opacity: 0.5"/>
     <use xlink:href="#m2d565d3fc4" x="46.853182" y="77.355919" style="fill-opacity: 0.5; stroke: #000000; stroke-opacity: 0.5"/>
     <use xlink:href="#m2d565d3fc4" x="60.855" y="77.063345" style="fill-opacity: 0.5; stroke: #000000; stroke-opacity: 0.5"/>
     <use xlink:href="#m2d565d3fc4" x="46.853182" y="77.143608" style="fill-opacity: 0.5; stroke: #000000; stroke-opacity: 0.5"/>
     <use xlink:href="#m2d565d3fc4" x="39.852273" y="77.943323" style="fill-opacity: 0.5; stroke: #000000; stroke-opacity: 0.5"/>
     <use xlink:href="#m2d565d3fc4" x="53.854091" y="72.019125" style="fill-opacity: 0.5; stroke: #000000; stroke-opacity: 0.5"/>
     <use xlink:href="#m2d565d3fc4" x="25.850455" y="77.633187" style="fill-opacity: 0.5; stroke: #000000; stroke-opacity: 0.5"/>
     <use xlink:href="#m2d565d3fc4" x="39.852273" y="78.431847" style="fill-opacity: 0.5; stroke: #000000; stroke-opacity: 0.5"/>
    </g>
   </g>
   <g id="FillBetweenPolyCollection_1">
    <defs>
     <path id="m299eb36228" d="M 25.850455 -42.801739 
L 25.850455 -36.043719 
L 26.557617 -36.015592 
L 27.26478 -36.011383 
L 27.971942 -35.9786 
L 28.679105 -35.963968 
L 29.386267 -35.954934 
L 30.09343 -35.947417 
L 30.800592 -35.9379 
L 31.507755 -35.914138 
L 32.214917 -35.903692 
L 32.92208 -35.873134 
L 33.629242 -35.869723 
L 34.336405 -35.864864 
L 35.043567 -35.853716 
L 35.75073 -35.764056 
L 36.457893 -35.716521 
L 37.165055 -35.685407 
L 37.872218 -35.715554 
L 38.57938 -35.713494 
L 39.286543 -35.619302 
L 39.993705 -35.570363 
L 40.700868 -35.542227 
L 41.40803 -35.497007 
L 42.115193 -35.443775 
L 42.822355 -35.340131 
L 43.529518 -35.272881 
L 44.23668 -35.227408 
L 44.943843 -35.163999 
L 45.651006 -35.074027 
L 46.358168 -34.967998 
L 47.065331 -34.886686 
L 47.772493 -34.77814 
L 48.479656 -34.668296 
L 49.186818 -34.556333 
L 49.893981 -34.441188 
L 50.601143 -34.327093 
L 51.308306 -34.199637 
L 52.015468 -34.07138 
L 52.722631 -33.962581 
L 53.429793 -33.871607 
L 54.136956 -33.724712 
L 54.844118 -33.612127 
L 55.551281 -33.475116 
L 56.258444 -33.337498 
L 56.965606 -33.168335 
L 57.672769 -33.059486 
L 58.379931 -32.894888 
L 59.087094 -32.758024 
L 59.794256 -32.626788 
L 60.501419 -32.486022 
L 61.208581 -32.331862 
L 61.915744 -32.166416 
L 62.622906 -32.00495 
L 63.330069 -31.844833 
L 64.037231 -31.69477 
L 64.744394 -31.523772 
L 65.451556 -31.373258 
L 66.158719 -31.223667 
L 66.865882 -31.074075 
L 67.573044 -30.925308 
L 68.280207 -30.744862 
L 68.987369 -30.564028 
L 69.694532 -30.417869 
L 70.401694 -30.276661 
L 71.108857 -30.135854 
L 71.816019 -29.995827 
L 72.523182 -29.866661 
L 73.230344 -29.714761 
L 73.937507 -29.573599 
L 74.644669 -29.431595 
L 75.351832 -29.255773 
L 76.058994 -29.077371 
L 76.766157 -28.917765 
L 77.47332 -28.758158 
L 78.180482 -28.551833 
L 78.887645 -28.335501 
L 79.594807 -28.148871 
L 80.30197 -27.987483 
L 81.009132 -27.81565 
L 81.716295 -27.626096 
L 82.423457 -27.437275 
L 83.13062 -27.255015 
L 83.837782 -27.101236 
L 84.544945 -26.947457 
L 85.252107 -26.793677 
L 85.95927 -26.620107 
L 86.666433 -26.429797 
L 87.373595 -26.239487 
L 88.080758 -26.049177 
L 88.78792 -25.858867 
L 89.495083 -25.669188 
L 90.202245 -25.479737 
L 90.909408 -25.290285 
L 91.61657 -25.100834 
L 92.323733 -24.943401 
L 93.030895 -24.775305 
L 93.738058 -24.588297 
L 94.44522 -24.401289 
L 95.152383 -24.214281 
L 95.859545 -24.027273 
L 95.859545 -37.395288 
L 95.859545 -37.395288 
L 95.152383 -37.391281 
L 94.44522 -37.38262 
L 93.738058 -37.373178 
L 93.030895 -37.363736 
L 92.323733 -37.354294 
L 91.61657 -37.344852 
L 90.909408 -37.33541 
L 90.202245 -37.325968 
L 89.495083 -37.316274 
L 88.78792 -37.306537 
L 88.080758 -37.297458 
L 87.373595 -37.294222 
L 86.666433 -37.291155 
L 85.95927 -37.288402 
L 85.252107 -37.285649 
L 84.544945 -37.286854 
L 83.837782 -37.289186 
L 83.13062 -37.291518 
L 82.423457 -37.293284 
L 81.716295 -37.280288 
L 81.009132 -37.280464 
L 80.30197 -37.280471 
L 79.594807 -37.280478 
L 78.887645 -37.275068 
L 78.180482 -37.281226 
L 77.47332 -37.281335 
L 76.766157 -37.290996 
L 76.058994 -37.287104 
L 75.351832 -37.28158 
L 74.644669 -37.279263 
L 73.937507 -37.2755 
L 73.230344 -37.271541 
L 72.523182 -37.259593 
L 71.816019 -37.263319 
L 71.108857 -37.260448 
L 70.401694 -37.257966 
L 69.694532 -37.283049 
L 68.987369 -37.312169 
L 68.280207 -37.339256 
L 67.573044 -37.343964 
L 66.865882 -37.394329 
L 66.158719 -37.417689 
L 65.451556 -37.406422 
L 64.744394 -37.394569 
L 64.037231 -37.410513 
L 63.330069 -37.446502 
L 62.622906 -37.500576 
L 61.915744 -37.554021 
L 61.208581 -37.607077 
L 60.501419 -37.641298 
L 59.794256 -37.668985 
L 59.087094 -37.668352 
L 58.379931 -37.677012 
L 57.672769 -37.732399 
L 56.965606 -37.778425 
L 56.258444 -37.848598 
L 55.551281 -37.858771 
L 54.844118 -37.988042 
L 54.136956 -38.014434 
L 53.429793 -38.042088 
L 52.722631 -38.060001 
L 52.015468 -38.08231 
L 51.308306 -38.122786 
L 50.601143 -38.222629 
L 49.893981 -38.294184 
L 49.186818 -38.355001 
L 48.479656 -38.436657 
L 47.772493 -38.557153 
L 47.065331 -38.633981 
L 46.358168 -38.727037 
L 45.651006 -38.794323 
L 44.943843 -38.925985 
L 44.23668 -39.055733 
L 43.529518 -39.150093 
L 42.822355 -39.216878 
L 42.115193 -39.349968 
L 41.40803 -39.498277 
L 40.700868 -39.647513 
L 39.993705 -39.805319 
L 39.286543 -39.903278 
L 38.57938 -40.039371 
L 37.872218 -40.173984 
L 37.165055 -40.322514 
L 36.457893 -40.471045 
L 35.75073 -40.619376 
L 35.043567 -40.766133 
L 34.336405 -40.867911 
L 33.629242 -40.980108 
L 32.92208 -41.084383 
L 32.214917 -41.216127 
L 31.507755 -41.436764 
L 30.800592 -41.582676 
L 30.09343 -41.766903 
L 29.386267 -41.949818 
L 28.679105 -42.098252 
L 27.971942 -42.248574 
L 27.26478 -42.407267 
L 26.557617 -42.610973 
L 25.850455 -42.801739 
z
" style="stroke: #ffffff; stroke-opacity: 0.15; stroke-width: 0.8"/>
    </defs>
    <g clip-path="url(#p5a15277f02)">
     <use xlink:href="#m299eb36228" x="0" y="108" style="fill-opacity: 0.15; stroke: #ffffff; stroke-opacity: 0.15; stroke-width: 0.8"/>
    </g>
   </g>
   <g id="line2d_15">
    <path d="M 25.850455 68.844048 
L 26.557617 68.927034 
L 27.26478 69.010019 
L 27.971942 69.093004 
L 28.679105 69.175989 
L 29.386267 69.258974 
L 30.09343 69.341959 
L 30.800592 69.424944 
L 31.507755 69.507929 
L 32.214917 69.590914 
L 32.92208 69.673899 
L 33.629242 69.756885 
L 34.336405 69.83987 
L 35.043567 69.922855 
L 35.75073 70.00584 
L 36.457893 70.088825 
L 37.165055 70.17181 
L 37.872218 70.254795 
L 38.57938 70.33778 
L 39.286543 70.420765 
L 39.993705 70.50375 
L 40.700868 70.586735 
L 41.40803 70.669721 
L 42.115193 70.752706 
L 42.822355 70.835691 
L 43.529518 70.918676 
L 44.23668 71.001661 
L 44.943843 71.084646 
L 45.651006 71.167631 
L 46.358168 71.250616 
L 47.065331 71.333601 
L 47.772493 71.416586 
L 48.479656 71.499572 
L 49.186818 71.582557 
L 49.893981 71.665542 
L 50.601143 71.748527 
L 51.308306 71.831512 
L 52.015468 71.914497 
L 52.722631 71.997482 
L 53.429793 72.080467 
L 54.136956 72.163452 
L 54.844118 72.246437 
L 55.551281 72.329422 
L 56.258444 72.412408 
L 56.965606 72.495393 
L 57.672769 72.578378 
L 58.379931 72.661363 
L 59.087094 72.744348 
L 59.794256 72.827333 
L 60.501419 72.910318 
L 61.208581 72.993303 
L 61.915744 73.076288 
L 62.622906 73.159273 
L 63.330069 73.242259 
L 64.037231 73.325244 
L 64.744394 73.408229 
L 65.451556 73.491214 
L 66.158719 73.574199 
L 66.865882 73.657184 
L 67.573044 73.740169 
L 68.280207 73.823154 
L 68.987369 73.906139 
L 69.694532 73.989124 
L 70.401694 74.072109 
L 71.108857 74.155095 
L 71.816019 74.23808 
L 72.523182 74.321065 
L 73.230344 74.40405 
L 73.937507 74.487035 
L 74.644669 74.57002 
L 75.351832 74.653005 
L 76.058994 74.73599 
L 76.766157 74.818975 
L 77.47332 74.90196 
L 78.180482 74.984946 
L 78.887645 75.067931 
L 79.594807 75.150916 
L 80.30197 75.233901 
L 81.009132 75.316886 
L 81.716295 75.399871 
L 82.423457 75.482856 
L 83.13062 75.565841 
L 83.837782 75.648826 
L 84.544945 75.731811 
L 85.252107 75.814797 
L 85.95927 75.897782 
L 86.666433 75.980767 
L 87.373595 76.063752 
L 88.080758 76.146737 
L 88.78792 76.229722 
L 89.495083 76.312707 
L 90.202245 76.395692 
L 90.909408 76.478677 
L 91.61657 76.561662 
L 92.323733 76.644647 
L 93.030895 76.727633 
L 93.738058 76.810618 
L 94.44522 76.893603 
L 95.152383 76.976588 
L 95.859545 77.059573 
" clip-path="url(#p5a15277f02)" style="fill: none; stroke: #000000; stroke-width: 1.8; stroke-linecap: round"/>
   </g>
   <g id="patch_3">
    <path d="M 22.35 87 
L 22.35 20.4 
" style="fill: none; stroke: #cccccc; stroke-linejoin: miter; stroke-linecap: square"/>
   </g>
   <g id="patch_4">
    <path d="M 99.36 87 
L 99.36 20.4 
" style="fill: none; stroke: #cccccc; stroke-linejoin: miter; stroke-linecap: square"/>
   </g>
   <g id="patch_5">
    <path d="M 22.35 87 
L 99.36 87 
" style="fill: none; stroke: #cccccc; stroke-linejoin: miter; stroke-linecap: square"/>
   </g>
   <g id="patch_6">
    <path d="M 22.35 20.4 
L 99.36 20.4 
" style="fill: none; stroke: #cccccc; stroke-linejoin: miter; stroke-linecap: square"/>
   </g>
   <g id="text_15">
    <!-- ('rho = -0.26 p=4.26e-03',) -->
    <g style="fill: #262626" transform="translate(14.635625 14.4) scale(0.08 -0.08)">
     <defs>
      <path id="Helvetica-28" d="M 1894 4666 
Q 1403 3713 1256 3263 
Q 1034 2578 1034 1681 
Q 1034 775 1288 25 
Q 1444 -438 1903 -1306 
L 1525 -1306 
Q 1069 -594 959 -397 
Q 850 -200 722 138 
Q 547 600 478 1125 
Q 444 1397 444 1644 
Q 444 2569 734 3291 
Q 919 3750 1503 4666 
L 1894 4666 
z
" transform="scale(0.015625)"/>
      <path id="Helvetica-27" d="M 1056 4591 
L 953 2753 
L 591 2753 
L 488 4591 
L 1056 4591 
z
" transform="scale(0.015625)"/>
      <path id="Helvetica-72" d="M 428 3347 
L 963 3347 
L 963 2769 
Q 1028 2938 1284 3180 
Q 1541 3422 1875 3422 
Q 1891 3422 1928 3419 
Q 1966 3416 2056 3406 
L 2056 2813 
Q 2006 2822 1964 2825 
Q 1922 2828 1872 2828 
Q 1447 2828 1219 2554 
Q 991 2281 991 1925 
L 991 0 
L 428 0 
L 428 3347 
z
" transform="scale(0.015625)"/>
      <path id="Helvetica-68" d="M 413 4606 
L 975 4606 
L 975 2894 
Q 1175 3147 1334 3250 
Q 1606 3428 2013 3428 
Q 2741 3428 3000 2919 
Q 3141 2641 3141 2147 
L 3141 0 
L 2563 0 
L 2563 2109 
Q 2563 2478 2469 2650 
Q 2316 2925 1894 2925 
Q 1544 2925 1259 2684 
Q 975 2444 975 1775 
L 975 0 
L 413 0 
L 413 4606 
z
" transform="scale(0.015625)"/>
      <path id="Helvetica-6f" d="M 1741 363 
Q 2300 363 2508 786 
Q 2716 1209 2716 1728 
Q 2716 2197 2566 2491 
Q 2328 2953 1747 2953 
Q 1231 2953 997 2559 
Q 763 2166 763 1609 
Q 763 1075 997 719 
Q 1231 363 1741 363 
z
M 1763 3444 
Q 2409 3444 2856 3012 
Q 3303 2581 3303 1744 
Q 3303 934 2909 406 
Q 2516 -122 1688 -122 
Q 997 -122 590 345 
Q 184 813 184 1600 
Q 184 2444 612 2944 
Q 1041 3444 1763 3444 
z
M 1744 3428 
L 1744 3428 
z
" transform="scale(0.015625)"/>
      <path id="Helvetica-20" transform="scale(0.015625)"/>
      <path id="Helvetica-3d" d="M 3547 2569 
L 3547 2044 
L 288 2044 
L 288 2569 
L 3547 2569 
z
M 3547 1228 
L 3547 694 
L 288 694 
L 288 1228 
L 3547 1228 
z
" transform="scale(0.015625)"/>
      <path id="Helvetica-2d" d="M 266 2072 
L 1834 2072 
L 1834 1494 
L 266 1494 
L 266 2072 
z
" transform="scale(0.015625)"/>
      <path id="Helvetica-2e" d="M 547 681 
L 1200 681 
L 1200 0 
L 547 0 
L 547 681 
z
" transform="scale(0.015625)"/>
      <path id="Helvetica-70" d="M 1825 378 
Q 2219 378 2480 708 
Q 2741 1038 2741 1694 
Q 2741 2094 2625 2381 
Q 2406 2934 1825 2934 
Q 1241 2934 1025 2350 
Q 909 2038 909 1556 
Q 909 1169 1025 897 
Q 1244 378 1825 378 
z
M 369 3331 
L 916 3331 
L 916 2888 
Q 1084 3116 1284 3241 
Q 1569 3428 1953 3428 
Q 2522 3428 2919 2992 
Q 3316 2556 3316 1747 
Q 3316 653 2744 184 
Q 2381 -113 1900 -113 
Q 1522 -113 1266 53 
Q 1116 147 931 375 
L 931 -1334 
L 369 -1334 
L 369 3331 
z
" transform="scale(0.015625)"/>
      <path id="Helvetica-65" d="M 1806 3422 
Q 2163 3422 2497 3255 
Q 2831 3088 3006 2822 
Q 3175 2569 3231 2231 
Q 3281 2000 3281 1494 
L 828 1494 
Q 844 984 1069 676 
Q 1294 369 1766 369 
Q 2206 369 2469 659 
Q 2619 828 2681 1050 
L 3234 1050 
Q 3213 866 3089 639 
Q 2966 413 2813 269 
Q 2556 19 2178 -69 
Q 1975 -119 1719 -119 
Q 1094 -119 659 336 
Q 225 791 225 1609 
Q 225 2416 662 2919 
Q 1100 3422 1806 3422 
z
M 2703 1941 
Q 2669 2306 2544 2525 
Q 2313 2931 1772 2931 
Q 1384 2931 1121 2651 
Q 859 2372 844 1941 
L 2703 1941 
z
M 1753 3428 
L 1753 3428 
z
" transform="scale(0.015625)"/>
      <path id="Helvetica-2c" d="M 531 -653 
Q 747 -616 834 -350 
Q 881 -209 881 -78 
Q 881 -56 879 -39 
Q 878 -22 872 0 
L 531 0 
L 531 681 
L 1200 681 
L 1200 50 
Q 1200 -322 1050 -603 
Q 900 -884 531 -950 
L 531 -653 
z
" transform="scale(0.015625)"/>
      <path id="Helvetica-29" d="M 222 -1306 
Q 719 -338 863 106 
Q 1081 778 1081 1681 
Q 1081 2584 828 3334 
Q 672 3797 213 4666 
L 591 4666 
Q 1072 3897 1173 3717 
Q 1275 3538 1394 3222 
Q 1544 2831 1608 2450 
Q 1672 2069 1672 1716 
Q 1672 791 1378 66 
Q 1194 -400 613 -1306 
L 222 -1306 
z
" transform="scale(0.015625)"/>
     </defs>
     <use xlink:href="#Helvetica-28"/>
     <use xlink:href="#Helvetica-27" transform="translate(33.300781 0)"/>
     <use xlink:href="#Helvetica-72" transform="translate(52.392578 0)"/>
     <use xlink:href="#Helvetica-68" transform="translate(85.693359 0)"/>
     <use xlink:href="#Helvetica-6f" transform="translate(141.308594 0)"/>
     <use xlink:href="#Helvetica-20" transform="translate(196.923828 0)"/>
     <use xlink:href="#Helvetica-3d" transform="translate(224.707031 0)"/>
     <use xlink:href="#Helvetica-20" transform="translate(283.105469 0)"/>
     <use xlink:href="#Helvetica-2d" transform="translate(310.888672 0)"/>
     <use xlink:href="#Helvetica-30" transform="translate(344.189453 0)"/>
     <use xlink:href="#Helvetica-2e" transform="translate(399.804688 0)"/>
     <use xlink:href="#Helvetica-32" transform="translate(427.587891 0)"/>
     <use xlink:href="#Helvetica-36" transform="translate(483.203125 0)"/>
     <use xlink:href="#Helvetica-20" transform="translate(538.818359 0)"/>
     <use xlink:href="#Helvetica-70" transform="translate(566.601562 0)"/>
     <use xlink:href="#Helvetica-3d" transform="translate(622.216797 0)"/>
     <use xlink:href="#Helvetica-34" transform="translate(680.615234 0)"/>
     <use xlink:href="#Helvetica-2e" transform="translate(736.230469 0)"/>
     <use xlink:href="#Helvetica-32" transform="translate(764.013672 0)"/>
     <use xlink:href="#Helvetica-36" transform="translate(819.628906 0)"/>
     <use xlink:href="#Helvetica-65" transform="translate(875.244141 0)"/>
     <use xlink:href="#Helvetica-2d" transform="translate(930.859375 0)"/>
     <use xlink:href="#Helvetica-30" transform="translate(964.160156 0)"/>
     <use xlink:href="#Helvetica-33" transform="translate(1019.775391 0)"/>
     <use xlink:href="#Helvetica-27" transform="translate(1075.390625 0)"/>
     <use xlink:href="#Helvetica-2c" transform="translate(1094.482422 0)"/>
     <use xlink:href="#Helvetica-29" transform="translate(1122.265625 0)"/>
    </g>
   </g>
  </g>
 </g>
 <defs>
  <clipPath id="p5a15277f02">
   <rect x="22.35" y="20.4" width="77.01" height="66.6"/>
  </clipPath>
 </defs>
</svg>
