<?xml version="1.0" encoding="utf-8" standalone="no"?>
<!DOCTYPE svg PUBLIC "-//W3C//DTD SVG 1.1//EN"
  "http://www.w3.org/Graphics/SVG/1.1/DTD/svg11.dtd">
<svg xmlns:xlink="http://www.w3.org/1999/xlink" width="180pt" height="180pt" viewBox="0 0 180 180" xmlns="http://www.w3.org/2000/svg" version="1.1">
 <metadata>
  <rdf:RDF xmlns:dc="http://purl.org/dc/elements/1.1/" xmlns:cc="http://creativecommons.org/ns#" xmlns:rdf="http://www.w3.org/1999/02/22-rdf-syntax-ns#">
   <cc:Work>
    <dc:type rdf:resource="http://purl.org/dc/dcmitype/StillImage"/>
    <dc:date>2024-11-12T13:43:57.038289</dc:date>
    <dc:format>image/svg+xml</dc:format>
    <dc:creator>
     <cc:Agent>
      <dc:title>Matplotlib v3.6.3, https://matplotlib.org/</dc:title>
     </cc:Agent>
    </dc:creator>
   </cc:Work>
  </rdf:RDF>
 </metadata>
 <defs>
  <style type="text/css">*{stroke-linejoin: round; stroke-linecap: butt}</style>
 </defs>
 <g id="figure_1">
  <g id="patch_1">
   <path d="M 0 180 
L 180 180 
L 180 0 
L 0 0 
z
" style="fill: #ffffff"/>
  </g>
  <g id="axes_1">
   <g id="patch_2">
    <path d="M 43.62 138.18 
L 168.525 138.18 
L 168.525 24 
L 43.62 24 
z
" style="fill: #ffffff"/>
   </g>
   <g id="matplotlib.axis_1">
    <g id="xtick_1">
     <g id="line2d_1">
      <path d="M 46.45875 138.18 
L 46.45875 24 
" clip-path="url(#pd8b478f8f8)" style="fill: none; stroke: #cccccc; stroke-width: 0.8; stroke-linecap: round"/>
     </g>
     <g id="text_1">
      <!-- 6 -->
      <g style="fill: #262626" transform="translate(43.678281 153.653437) scale(0.1 -0.1)">
       <defs>
        <path id="Helvetica-36" d="M 1872 4494 
Q 2622 4494 2917 4105 
Q 3213 3716 3213 3303 
L 2656 3303 
Q 2606 3569 2497 3719 
Q 2294 4000 1881 4000 
Q 1409 4000 1131 3564 
Q 853 3128 822 2316 
Q 1016 2600 1309 2741 
Q 1578 2866 1909 2866 
Q 2472 2866 2890 2506 
Q 3309 2147 3309 1434 
Q 3309 825 2912 354 
Q 2516 -116 1781 -116 
Q 1153 -116 697 361 
Q 241 838 241 1966 
Q 241 2800 444 3381 
Q 834 4494 1872 4494 
z
M 1831 384 
Q 2275 384 2495 682 
Q 2716 981 2716 1388 
Q 2716 1731 2519 2042 
Q 2322 2353 1803 2353 
Q 1441 2353 1167 2112 
Q 894 1872 894 1388 
Q 894 963 1142 673 
Q 1391 384 1831 384 
z
" transform="scale(0.015625)"/>
       </defs>
       <use xlink:href="#Helvetica-36"/>
      </g>
     </g>
    </g>
    <g id="xtick_2">
     <g id="line2d_2">
      <path d="M 103.23375 138.18 
L 103.23375 24 
" clip-path="url(#pd8b478f8f8)" style="fill: none; stroke: #cccccc; stroke-width: 0.8; stroke-linecap: round"/>
     </g>
     <g id="text_2">
      <!-- 8 -->
      <g style="fill: #262626" transform="translate(100.453281 153.653437) scale(0.1 -0.1)">
       <defs>
        <path id="Helvetica-38" d="M 1741 2600 
Q 2113 2600 2322 2808 
Q 2531 3016 2531 3303 
Q 2531 3553 2331 3762 
Q 2131 3972 1722 3972 
Q 1316 3972 1134 3762 
Q 953 3553 953 3272 
Q 953 2956 1187 2778 
Q 1422 2600 1741 2600 
z
M 1775 384 
Q 2166 384 2423 595 
Q 2681 806 2681 1225 
Q 2681 1659 2415 1884 
Q 2150 2109 1734 2109 
Q 1331 2109 1076 1879 
Q 822 1650 822 1244 
Q 822 894 1055 639 
Q 1288 384 1775 384 
z
M 975 2384 
Q 741 2484 609 2619 
Q 363 2869 363 3269 
Q 363 3769 725 4128 
Q 1088 4488 1753 4488 
Q 2397 4488 2762 4148 
Q 3128 3809 3128 3356 
Q 3128 2938 2916 2678 
Q 2797 2531 2547 2391 
Q 2825 2263 2984 2097 
Q 3281 1784 3281 1284 
Q 3281 694 2884 283 
Q 2488 -128 1763 -128 
Q 1109 -128 657 226 
Q 206 581 206 1256 
Q 206 1653 400 1942 
Q 594 2231 975 2384 
z
" transform="scale(0.015625)"/>
       </defs>
       <use xlink:href="#Helvetica-38"/>
      </g>
     </g>
    </g>
    <g id="xtick_3">
     <g id="line2d_3">
      <path d="M 160.00875 138.18 
L 160.00875 24 
" clip-path="url(#pd8b478f8f8)" style="fill: none; stroke: #cccccc; stroke-width: 0.8; stroke-linecap: round"/>
     </g>
     <g id="text_3">
      <!-- 10 -->
      <g style="fill: #262626" transform="translate(154.447812 153.653437) scale(0.1 -0.1)">
       <defs>
        <path id="Helvetica-31" d="M 613 3169 
L 613 3600 
Q 1222 3659 1462 3798 
Q 1703 3938 1822 4456 
L 2266 4456 
L 2266 0 
L 1666 0 
L 1666 3169 
L 613 3169 
z
" transform="scale(0.015625)"/>
        <path id="Helvetica-30" d="M 1731 4475 
Q 2600 4475 2988 3759 
Q 3288 3206 3288 2244 
Q 3288 1331 3016 734 
Q 2622 -122 1728 -122 
Q 922 -122 528 578 
Q 200 1163 200 2147 
Q 200 2909 397 3456 
Q 766 4475 1731 4475 
z
M 1725 391 
Q 2163 391 2422 778 
Q 2681 1166 2681 2222 
Q 2681 2984 2493 3476 
Q 2306 3969 1766 3969 
Q 1269 3969 1039 3501 
Q 809 3034 809 2125 
Q 809 1441 956 1025 
Q 1181 391 1725 391 
z
" transform="scale(0.015625)"/>
       </defs>
       <use xlink:href="#Helvetica-31"/>
       <use xlink:href="#Helvetica-30" x="55.615234"/>
      </g>
     </g>
    </g>
    <g id="text_4">
     <!-- pKi -->
     <g style="fill: #262626" transform="translate(98.845937 166.91125) scale(0.1 -0.1)">
      <defs>
       <path id="Helvetica-70" d="M 1825 378 
Q 2219 378 2480 708 
Q 2741 1038 2741 1694 
Q 2741 2094 2625 2381 
Q 2406 2934 1825 2934 
Q 1241 2934 1025 2350 
Q 909 2038 909 1556 
Q 909 1169 1025 897 
Q 1244 378 1825 378 
z
M 369 3331 
L 916 3331 
L 916 2888 
Q 1084 3116 1284 3241 
Q 1569 3428 1953 3428 
Q 2522 3428 2919 2992 
Q 3316 2556 3316 1747 
Q 3316 653 2744 184 
Q 2381 -113 1900 -113 
Q 1522 -113 1266 53 
Q 1116 147 931 375 
L 931 -1334 
L 369 -1334 
L 369 3331 
z
" transform="scale(0.015625)"/>
       <path id="Helvetica-4b" d="M 488 4591 
L 1094 4591 
L 1094 2353 
L 3331 4591 
L 4191 4591 
L 2281 2741 
L 4244 0 
L 3434 0 
L 1828 2303 
L 1094 1600 
L 1094 0 
L 488 0 
L 488 4591 
z
" transform="scale(0.015625)"/>
       <path id="Helvetica-69" d="M 413 3331 
L 984 3331 
L 984 0 
L 413 0 
L 413 3331 
z
M 413 4591 
L 984 4591 
L 984 3953 
L 413 3953 
L 413 4591 
z
" transform="scale(0.015625)"/>
      </defs>
      <use xlink:href="#Helvetica-70"/>
      <use xlink:href="#Helvetica-4b" x="55.615234"/>
      <use xlink:href="#Helvetica-69" x="122.314453"/>
     </g>
    </g>
   </g>
   <g id="matplotlib.axis_2">
    <g id="ytick_1">
     <g id="line2d_4">
      <path d="M 43.62 132.23048 
L 168.525 132.23048 
" clip-path="url(#pd8b478f8f8)" style="fill: none; stroke: #cccccc; stroke-width: 0.8; stroke-linecap: round"/>
     </g>
     <g id="text_5">
      <!-- 0 -->
      <g style="fill: #262626" transform="translate(29.759063 135.817199) scale(0.1 -0.1)">
       <use xlink:href="#Helvetica-30"/>
      </g>
     </g>
    </g>
    <g id="ytick_2">
     <g id="line2d_5">
      <path d="M 43.62 122.391345 
L 168.525 122.391345 
" clip-path="url(#pd8b478f8f8)" style="fill: none; stroke: #cccccc; stroke-width: 0.8; stroke-linecap: round"/>
     </g>
     <g id="text_6">
      <!-- 1 -->
      <g style="fill: #262626" transform="translate(29.759063 125.978064) scale(0.1 -0.1)">
       <use xlink:href="#Helvetica-31"/>
      </g>
     </g>
    </g>
    <g id="ytick_3">
     <g id="line2d_6">
      <path d="M 43.62 112.552211 
L 168.525 112.552211 
" clip-path="url(#pd8b478f8f8)" style="fill: none; stroke: #cccccc; stroke-width: 0.8; stroke-linecap: round"/>
     </g>
     <g id="text_7">
      <!-- 2 -->
      <g style="fill: #262626" transform="translate(29.759063 116.13893) scale(0.1 -0.1)">
       <defs>
        <path id="Helvetica-32" d="M 200 0 
Q 231 578 439 1006 
Q 647 1434 1250 1784 
L 1850 2131 
Q 2253 2366 2416 2531 
Q 2672 2791 2672 3125 
Q 2672 3516 2437 3745 
Q 2203 3975 1813 3975 
Q 1234 3975 1013 3538 
Q 894 3303 881 2888 
L 309 2888 
Q 319 3472 525 3841 
Q 891 4491 1816 4491 
Q 2584 4491 2939 4075 
Q 3294 3659 3294 3150 
Q 3294 2613 2916 2231 
Q 2697 2009 2131 1694 
L 1703 1456 
Q 1397 1288 1222 1134 
Q 909 863 828 531 
L 3272 531 
L 3272 0 
L 200 0 
z
" transform="scale(0.015625)"/>
       </defs>
       <use xlink:href="#Helvetica-32"/>
      </g>
     </g>
    </g>
    <g id="ytick_4">
     <g id="line2d_7">
      <path d="M 43.62 102.713076 
L 168.525 102.713076 
" clip-path="url(#pd8b478f8f8)" style="fill: none; stroke: #cccccc; stroke-width: 0.8; stroke-linecap: round"/>
     </g>
     <g id="text_8">
      <!-- 3 -->
      <g style="fill: #262626" transform="translate(29.759063 106.299795) scale(0.1 -0.1)">
       <defs>
        <path id="Helvetica-33" d="M 1663 -122 
Q 869 -122 511 314 
Q 153 750 153 1375 
L 741 1375 
Q 778 941 903 744 
Q 1122 391 1694 391 
Q 2138 391 2406 628 
Q 2675 866 2675 1241 
Q 2675 1703 2392 1887 
Q 2109 2072 1606 2072 
Q 1550 2072 1492 2070 
Q 1434 2069 1375 2066 
L 1375 2563 
Q 1463 2553 1522 2550 
Q 1581 2547 1650 2547 
Q 1966 2547 2169 2647 
Q 2525 2822 2525 3272 
Q 2525 3606 2287 3787 
Q 2050 3969 1734 3969 
Q 1172 3969 956 3594 
Q 838 3388 822 3006 
L 266 3006 
Q 266 3506 466 3856 
Q 809 4481 1675 4481 
Q 2359 4481 2734 4176 
Q 3109 3872 3109 3294 
Q 3109 2881 2888 2625 
Q 2750 2466 2531 2375 
Q 2884 2278 3082 2001 
Q 3281 1725 3281 1325 
Q 3281 684 2859 281 
Q 2438 -122 1663 -122 
z
" transform="scale(0.015625)"/>
       </defs>
       <use xlink:href="#Helvetica-33"/>
      </g>
     </g>
    </g>
    <g id="ytick_5">
     <g id="line2d_8">
      <path d="M 43.62 92.873942 
L 168.525 92.873942 
" clip-path="url(#pd8b478f8f8)" style="fill: none; stroke: #cccccc; stroke-width: 0.8; stroke-linecap: round"/>
     </g>
     <g id="text_9">
      <!-- 4 -->
      <g style="fill: #262626" transform="translate(29.759063 96.460661) scale(0.1 -0.1)">
       <defs>
        <path id="Helvetica-34" d="M 2116 1584 
L 2116 3613 
L 681 1584 
L 2116 1584 
z
M 2125 0 
L 2125 1094 
L 163 1094 
L 163 1644 
L 2213 4488 
L 2688 4488 
L 2688 1584 
L 3347 1584 
L 3347 1094 
L 2688 1094 
L 2688 0 
L 2125 0 
z
" transform="scale(0.015625)"/>
       </defs>
       <use xlink:href="#Helvetica-34"/>
      </g>
     </g>
    </g>
    <g id="ytick_6">
     <g id="line2d_9">
      <path d="M 43.62 83.034807 
L 168.525 83.034807 
" clip-path="url(#pd8b478f8f8)" style="fill: none; stroke: #cccccc; stroke-width: 0.8; stroke-linecap: round"/>
     </g>
     <g id="text_10">
      <!-- 5 -->
      <g style="fill: #262626" transform="translate(29.759063 86.621526) scale(0.1 -0.1)">
       <defs>
        <path id="Helvetica-35" d="M 791 1141 
Q 847 659 1238 475 
Q 1438 381 1700 381 
Q 2200 381 2440 700 
Q 2681 1019 2681 1406 
Q 2681 1875 2395 2131 
Q 2109 2388 1709 2388 
Q 1419 2388 1211 2275 
Q 1003 2163 856 1963 
L 369 1991 
L 709 4400 
L 3034 4400 
L 3034 3856 
L 1131 3856 
L 941 2613 
Q 1097 2731 1238 2791 
Q 1488 2894 1816 2894 
Q 2431 2894 2859 2497 
Q 3288 2100 3288 1491 
Q 3288 856 2895 371 
Q 2503 -113 1644 -113 
Q 1097 -113 676 195 
Q 256 503 206 1141 
L 791 1141 
z
" transform="scale(0.015625)"/>
       </defs>
       <use xlink:href="#Helvetica-35"/>
      </g>
     </g>
    </g>
    <g id="ytick_7">
     <g id="line2d_10">
      <path d="M 43.62 73.195673 
L 168.525 73.195673 
" clip-path="url(#pd8b478f8f8)" style="fill: none; stroke: #cccccc; stroke-width: 0.8; stroke-linecap: round"/>
     </g>
     <g id="text_11">
      <!-- 6 -->
      <g style="fill: #262626" transform="translate(29.759063 76.782391) scale(0.1 -0.1)">
       <use xlink:href="#Helvetica-36"/>
      </g>
     </g>
    </g>
    <g id="ytick_8">
     <g id="line2d_11">
      <path d="M 43.62 63.356538 
L 168.525 63.356538 
" clip-path="url(#pd8b478f8f8)" style="fill: none; stroke: #cccccc; stroke-width: 0.8; stroke-linecap: round"/>
     </g>
     <g id="text_12">
      <!-- 7 -->
      <g style="fill: #262626" transform="translate(29.759063 66.943257) scale(0.1 -0.1)">
       <defs>
        <path id="Helvetica-37" d="M 3347 4400 
L 3347 3909 
Q 3131 3700 2773 3181 
Q 2416 2663 2141 2063 
Q 1869 1478 1728 997 
Q 1638 688 1494 0 
L 872 0 
Q 1084 1281 1809 2550 
Q 2238 3294 2709 3834 
L 234 3834 
L 234 4400 
L 3347 4400 
z
" transform="scale(0.015625)"/>
       </defs>
       <use xlink:href="#Helvetica-37"/>
      </g>
     </g>
    </g>
    <g id="ytick_9">
     <g id="line2d_12">
      <path d="M 43.62 53.517404 
L 168.525 53.517404 
" clip-path="url(#pd8b478f8f8)" style="fill: none; stroke: #cccccc; stroke-width: 0.8; stroke-linecap: round"/>
     </g>
     <g id="text_13">
      <!-- 8 -->
      <g style="fill: #262626" transform="translate(29.759063 57.104122) scale(0.1 -0.1)">
       <use xlink:href="#Helvetica-38"/>
      </g>
     </g>
    </g>
    <g id="ytick_10">
     <g id="line2d_13">
      <path d="M 43.62 43.678269 
L 168.525 43.678269 
" clip-path="url(#pd8b478f8f8)" style="fill: none; stroke: #cccccc; stroke-width: 0.8; stroke-linecap: round"/>
     </g>
     <g id="text_14">
      <!-- 9 -->
      <g style="fill: #262626" transform="translate(29.759063 47.264988) scale(0.1 -0.1)">
       <defs>
        <path id="Helvetica-39" d="M 850 1081 
Q 875 616 1209 438 
Q 1381 344 1597 344 
Q 2000 344 2284 680 
Q 2569 1016 2688 2044 
Q 2500 1747 2223 1626 
Q 1947 1506 1628 1506 
Q 981 1506 604 1909 
Q 228 2313 228 2947 
Q 228 3556 600 4018 
Q 972 4481 1697 4481 
Q 2675 4481 3047 3600 
Q 3253 3116 3253 2388 
Q 3253 1566 3006 931 
Q 2597 -125 1619 -125 
Q 963 -125 622 219 
Q 281 563 281 1081 
L 850 1081 
z
M 1703 2000 
Q 2038 2000 2314 2220 
Q 2591 2441 2591 2991 
Q 2591 3484 2342 3726 
Q 2094 3969 1709 3969 
Q 1297 3969 1055 3692 
Q 813 3416 813 2953 
Q 813 2516 1025 2258 
Q 1238 2000 1703 2000 
z
" transform="scale(0.015625)"/>
       </defs>
       <use xlink:href="#Helvetica-39"/>
      </g>
     </g>
    </g>
    <g id="ytick_11">
     <g id="line2d_14">
      <path d="M 43.62 33.839135 
L 168.525 33.839135 
" clip-path="url(#pd8b478f8f8)" style="fill: none; stroke: #cccccc; stroke-width: 0.8; stroke-linecap: round"/>
     </g>
     <g id="text_15">
      <!-- 10 -->
      <g style="fill: #262626" transform="translate(24.198125 37.425853) scale(0.1 -0.1)">
       <use xlink:href="#Helvetica-31"/>
       <use xlink:href="#Helvetica-30" x="55.615234"/>
      </g>
     </g>
    </g>
    <g id="ytick_12">
     <g id="line2d_15">
      <path d="M 43.62 24 
L 168.525 24 
" clip-path="url(#pd8b478f8f8)" style="fill: none; stroke: #cccccc; stroke-width: 0.8; stroke-linecap: round"/>
     </g>
     <g id="text_16">
      <!-- 11 -->
      <g style="fill: #262626" transform="translate(24.198125 27.586719) scale(0.1 -0.1)">
       <use xlink:href="#Helvetica-31"/>
       <use xlink:href="#Helvetica-31" x="55.615234"/>
      </g>
     </g>
    </g>
    <g id="text_17">
     <!-- Rank -->
     <g style="fill: #262626" transform="translate(18.11375 92.761875) rotate(-90) scale(0.1 -0.1)">
      <defs>
       <path id="Helvetica-52" d="M 2622 2488 
Q 3059 2488 3314 2663 
Q 3569 2838 3569 3294 
Q 3569 3784 3213 3963 
Q 3022 4056 2703 4056 
L 1184 4056 
L 1184 2488 
L 2622 2488 
z
M 563 4591 
L 2688 4591 
Q 3213 4591 3553 4438 
Q 4200 4144 4200 3353 
Q 4200 2941 4029 2678 
Q 3859 2416 3553 2256 
Q 3822 2147 3958 1969 
Q 4094 1791 4109 1391 
L 4131 775 
Q 4141 513 4175 384 
Q 4231 166 4375 103 
L 4375 0 
L 3613 0 
Q 3581 59 3562 153 
Q 3544 247 3531 516 
L 3494 1281 
Q 3472 1731 3159 1884 
Q 2981 1969 2600 1969 
L 1184 1969 
L 1184 0 
L 563 0 
L 563 4591 
z
" transform="scale(0.015625)"/>
       <path id="Helvetica-61" d="M 844 891 
Q 844 647 1022 506 
Q 1200 366 1444 366 
Q 1741 366 2019 503 
Q 2488 731 2488 1250 
L 2488 1703 
Q 2384 1638 2221 1594 
Q 2059 1550 1903 1531 
L 1563 1488 
Q 1256 1447 1103 1359 
Q 844 1213 844 891 
z
M 2206 2028 
Q 2400 2053 2466 2191 
Q 2503 2266 2503 2406 
Q 2503 2694 2298 2823 
Q 2094 2953 1713 2953 
Q 1272 2953 1088 2716 
Q 984 2584 953 2325 
L 428 2325 
Q 444 2944 830 3186 
Q 1216 3428 1725 3428 
Q 2316 3428 2684 3203 
Q 3050 2978 3050 2503 
L 3050 575 
Q 3050 488 3086 434 
Q 3122 381 3238 381 
Q 3275 381 3322 386 
Q 3369 391 3422 400 
L 3422 -16 
Q 3291 -53 3222 -62 
Q 3153 -72 3034 -72 
Q 2744 -72 2613 134 
Q 2544 244 2516 444 
Q 2344 219 2022 53 
Q 1700 -113 1313 -113 
Q 847 -113 551 170 
Q 256 453 256 878 
Q 256 1344 547 1600 
Q 838 1856 1309 1916 
L 2206 2028 
z
M 1741 3428 
L 1741 3428 
z
" transform="scale(0.015625)"/>
       <path id="Helvetica-6e" d="M 413 3347 
L 947 3347 
L 947 2872 
Q 1184 3166 1450 3294 
Q 1716 3422 2041 3422 
Q 2753 3422 3003 2925 
Q 3141 2653 3141 2147 
L 3141 0 
L 2569 0 
L 2569 2109 
Q 2569 2416 2478 2603 
Q 2328 2916 1934 2916 
Q 1734 2916 1606 2875 
Q 1375 2806 1200 2600 
Q 1059 2434 1017 2257 
Q 975 2081 975 1753 
L 975 0 
L 413 0 
L 413 3347 
z
M 1734 3428 
L 1734 3428 
z
" transform="scale(0.015625)"/>
       <path id="Helvetica-6b" d="M 400 4591 
L 941 4591 
L 941 1925 
L 2384 3347 
L 3103 3347 
L 1822 2094 
L 3175 0 
L 2456 0 
L 1413 1688 
L 941 1256 
L 941 0 
L 400 0 
L 400 4591 
z
" transform="scale(0.015625)"/>
      </defs>
      <use xlink:href="#Helvetica-52"/>
      <use xlink:href="#Helvetica-61" x="72.216797"/>
      <use xlink:href="#Helvetica-6e" x="127.832031"/>
      <use xlink:href="#Helvetica-6b" x="183.447266"/>
     </g>
    </g>
   </g>
   <g id="PathCollection_1">
    <defs>
     <path id="m2432d28199" d="M 0 2.4 
C 0.636487 2.4 1.246992 2.147121 1.697056 1.697056 
C 2.147121 1.246992 2.4 0.636487 2.4 0 
C 2.4 -0.636487 2.147121 -1.246992 1.697056 -1.697056 
C 1.246992 -2.147121 0.636487 -2.4 0 -2.4 
C -0.636487 -2.4 -1.246992 -2.147121 -1.697056 -1.697056 
C -2.147121 -1.246992 -2.4 -0.636487 -2.4 0 
C -2.4 0.636487 -2.147121 1.246992 -1.697056 1.697056 
C -1.246992 2.147121 -0.636487 2.4 0 2.4 
z
" style="stroke: #1f77b4; stroke-opacity: 0.5"/>
    </defs>
    <g clip-path="url(#pd8b478f8f8)">
     <use xlink:href="#m2432d28199" x="116.008125" y="122.334222" style="fill: #1f77b4; fill-opacity: 0.5; stroke: #1f77b4; stroke-opacity: 0.5"/>
     <use xlink:href="#m2432d28199" x="154.33125" y="113.752079" style="fill: #1f77b4; fill-opacity: 0.5; stroke: #1f77b4; stroke-opacity: 0.5"/>
     <use xlink:href="#m2432d28199" x="128.7825" y="122.731869" style="fill: #1f77b4; fill-opacity: 0.5; stroke: #1f77b4; stroke-opacity: 0.5"/>
     <use xlink:href="#m2432d28199" x="142.97625" y="123.166383" style="fill: #1f77b4; fill-opacity: 0.5; stroke: #1f77b4; stroke-opacity: 0.5"/>
     <use xlink:href="#m2432d28199" x="147.234375" y="61.743678" style="fill: #1f77b4; fill-opacity: 0.5; stroke: #1f77b4; stroke-opacity: 0.5"/>
     <use xlink:href="#m2432d28199" x="125.94375" y="120.803956" style="fill: #1f77b4; fill-opacity: 0.5; stroke: #1f77b4; stroke-opacity: 0.5"/>
     <use xlink:href="#m2432d28199" x="114.58875" y="123.729363" style="fill: #1f77b4; fill-opacity: 0.5; stroke: #1f77b4; stroke-opacity: 0.5"/>
     <use xlink:href="#m2432d28199" x="151.4925" y="122.271744" style="fill: #1f77b4; fill-opacity: 0.5; stroke: #1f77b4; stroke-opacity: 0.5"/>
     <use xlink:href="#m2432d28199" x="145.815" y="121.38991" style="fill: #1f77b4; fill-opacity: 0.5; stroke: #1f77b4; stroke-opacity: 0.5"/>
     <use xlink:href="#m2432d28199" x="144.395625" y="122.00845" style="fill: #1f77b4; fill-opacity: 0.5; stroke: #1f77b4; stroke-opacity: 0.5"/>
     <use xlink:href="#m2432d28199" x="128.7825" y="121.857514" style="fill: #1f77b4; fill-opacity: 0.5; stroke: #1f77b4; stroke-opacity: 0.5"/>
     <use xlink:href="#m2432d28199" x="131.62125" y="113.090842" style="fill: #1f77b4; fill-opacity: 0.5; stroke: #1f77b4; stroke-opacity: 0.5"/>
     <use xlink:href="#m2432d28199" x="141.556875" y="121.886604" style="fill: #1f77b4; fill-opacity: 0.5; stroke: #1f77b4; stroke-opacity: 0.5"/>
     <use xlink:href="#m2432d28199" x="161.428125" y="123.019318" style="fill: #1f77b4; fill-opacity: 0.5; stroke: #1f77b4; stroke-opacity: 0.5"/>
     <use xlink:href="#m2432d28199" x="148.65375" y="121.22401" style="fill: #1f77b4; fill-opacity: 0.5; stroke: #1f77b4; stroke-opacity: 0.5"/>
     <use xlink:href="#m2432d28199" x="118.846875" y="120.517018" style="fill: #1f77b4; fill-opacity: 0.5; stroke: #1f77b4; stroke-opacity: 0.5"/>
     <use xlink:href="#m2432d28199" x="142.97625" y="124.173413" style="fill: #1f77b4; fill-opacity: 0.5; stroke: #1f77b4; stroke-opacity: 0.5"/>
     <use xlink:href="#m2432d28199" x="135.879375" y="123.620148" style="fill: #1f77b4; fill-opacity: 0.5; stroke: #1f77b4; stroke-opacity: 0.5"/>
     <use xlink:href="#m2432d28199" x="135.879375" y="123.918183" style="fill: #1f77b4; fill-opacity: 0.5; stroke: #1f77b4; stroke-opacity: 0.5"/>
     <use xlink:href="#m2432d28199" x="117.4275" y="122.031082" style="fill: #1f77b4; fill-opacity: 0.5; stroke: #1f77b4; stroke-opacity: 0.5"/>
     <use xlink:href="#m2432d28199" x="133.040625" y="123.933506" style="fill: #1f77b4; fill-opacity: 0.5; stroke: #1f77b4; stroke-opacity: 0.5"/>
     <use xlink:href="#m2432d28199" x="145.815" y="121.21226" style="fill: #1f77b4; fill-opacity: 0.5; stroke: #1f77b4; stroke-opacity: 0.5"/>
     <use xlink:href="#m2432d28199" x="134.46" y="121.629975" style="fill: #1f77b4; fill-opacity: 0.5; stroke: #1f77b4; stroke-opacity: 0.5"/>
     <use xlink:href="#m2432d28199" x="162.8475" y="111.511258" style="fill: #1f77b4; fill-opacity: 0.5; stroke: #1f77b4; stroke-opacity: 0.5"/>
     <use xlink:href="#m2432d28199" x="118.846875" y="123.562696" style="fill: #1f77b4; fill-opacity: 0.5; stroke: #1f77b4; stroke-opacity: 0.5"/>
     <use xlink:href="#m2432d28199" x="127.363125" y="123.995766" style="fill: #1f77b4; fill-opacity: 0.5; stroke: #1f77b4; stroke-opacity: 0.5"/>
     <use xlink:href="#m2432d28199" x="154.33125" y="121.739797" style="fill: #1f77b4; fill-opacity: 0.5; stroke: #1f77b4; stroke-opacity: 0.5"/>
     <use xlink:href="#m2432d28199" x="81.943125" y="121.699193" style="fill: #1f77b4; fill-opacity: 0.5; stroke: #1f77b4; stroke-opacity: 0.5"/>
     <use xlink:href="#m2432d28199" x="125.94375" y="121.694797" style="fill: #1f77b4; fill-opacity: 0.5; stroke: #1f77b4; stroke-opacity: 0.5"/>
     <use xlink:href="#m2432d28199" x="101.814375" y="73.535163" style="fill: #1f77b4; fill-opacity: 0.5; stroke: #1f77b4; stroke-opacity: 0.5"/>
     <use xlink:href="#m2432d28199" x="57.81375" y="104.434971" style="fill: #1f77b4; fill-opacity: 0.5; stroke: #1f77b4; stroke-opacity: 0.5"/>
     <use xlink:href="#m2432d28199" x="140.1375" y="122.688593" style="fill: #1f77b4; fill-opacity: 0.5; stroke: #1f77b4; stroke-opacity: 0.5"/>
     <use xlink:href="#m2432d28199" x="137.29875" y="123.749633" style="fill: #1f77b4; fill-opacity: 0.5; stroke: #1f77b4; stroke-opacity: 0.5"/>
     <use xlink:href="#m2432d28199" x="137.29875" y="104.067085" style="fill: #1f77b4; fill-opacity: 0.5; stroke: #1f77b4; stroke-opacity: 0.5"/>
     <use xlink:href="#m2432d28199" x="49.2975" y="51.895081" style="fill: #1f77b4; fill-opacity: 0.5; stroke: #1f77b4; stroke-opacity: 0.5"/>
     <use xlink:href="#m2432d28199" x="138.718125" y="120.466022" style="fill: #1f77b4; fill-opacity: 0.5; stroke: #1f77b4; stroke-opacity: 0.5"/>
     <use xlink:href="#m2432d28199" x="133.040625" y="123.472357" style="fill: #1f77b4; fill-opacity: 0.5; stroke: #1f77b4; stroke-opacity: 0.5"/>
     <use xlink:href="#m2432d28199" x="103.23375" y="71.5514" style="fill: #1f77b4; fill-opacity: 0.5; stroke: #1f77b4; stroke-opacity: 0.5"/>
     <use xlink:href="#m2432d28199" x="94.7175" y="63.997923" style="fill: #1f77b4; fill-opacity: 0.5; stroke: #1f77b4; stroke-opacity: 0.5"/>
     <use xlink:href="#m2432d28199" x="137.29875" y="122.864867" style="fill: #1f77b4; fill-opacity: 0.5; stroke: #1f77b4; stroke-opacity: 0.5"/>
     <use xlink:href="#m2432d28199" x="110.330625" y="124.170968" style="fill: #1f77b4; fill-opacity: 0.5; stroke: #1f77b4; stroke-opacity: 0.5"/>
     <use xlink:href="#m2432d28199" x="73.426875" y="121.899134" style="fill: #1f77b4; fill-opacity: 0.5; stroke: #1f77b4; stroke-opacity: 0.5"/>
     <use xlink:href="#m2432d28199" x="102.2875" y="124.038782" style="fill: #1f77b4; fill-opacity: 0.5; stroke: #1f77b4; stroke-opacity: 0.5"/>
     <use xlink:href="#m2432d28199" x="115.535" y="100.850154" style="fill: #1f77b4; fill-opacity: 0.5; stroke: #1f77b4; stroke-opacity: 0.5"/>
     <use xlink:href="#m2432d28199" x="134.46" y="81.723237" style="fill: #1f77b4; fill-opacity: 0.5; stroke: #1f77b4; stroke-opacity: 0.5"/>
    </g>
   </g>
   <g id="PolyCollection_1">
    <defs>
     <path id="mfa39c8ca3b" d="M 49.2975 -113.377636 
L 49.2975 -63.965244 
L 50.44447 -63.910676 
L 51.591439 -63.856109 
L 52.738409 -63.831013 
L 53.885379 -63.820027 
L 55.032348 -63.809043 
L 56.179318 -63.798058 
L 57.326288 -63.787698 
L 58.473258 -63.790727 
L 59.620227 -63.810878 
L 60.767197 -63.831028 
L 61.914167 -63.851178 
L 63.061136 -63.871329 
L 64.208106 -63.891479 
L 65.355076 -63.91163 
L 66.502045 -63.882202 
L 67.649015 -63.825736 
L 68.795985 -63.769271 
L 69.942955 -63.713013 
L 71.089924 -63.689528 
L 72.236894 -63.702812 
L 73.383864 -63.716097 
L 74.530833 -63.703129 
L 75.677803 -63.67645 
L 76.824773 -63.650342 
L 77.971742 -63.657652 
L 79.118712 -63.697655 
L 80.265682 -63.649566 
L 81.412652 -63.601467 
L 82.559621 -63.553368 
L 83.706591 -63.537124 
L 84.853561 -63.535959 
L 86.00053 -63.554551 
L 87.1475 -63.564982 
L 88.29447 -63.575412 
L 89.441439 -63.585843 
L 90.588409 -63.596273 
L 91.735379 -63.606704 
L 92.882348 -63.617135 
L 94.029318 -63.538063 
L 95.176288 -63.448114 
L 96.323258 -63.415688 
L 97.470227 -63.402751 
L 98.617197 -63.392103 
L 99.764167 -63.383366 
L 100.911136 -63.415153 
L 102.058106 -63.446176 
L 103.205076 -63.39666 
L 104.352045 -63.33994 
L 105.499015 -63.284805 
L 106.645985 -63.189869 
L 107.792955 -63.093818 
L 108.939924 -62.996617 
L 110.086894 -62.902833 
L 111.233864 -62.875804 
L 112.380833 -62.866694 
L 113.527803 -62.794991 
L 114.674773 -62.756422 
L 115.821742 -62.729821 
L 116.968712 -62.7029 
L 118.115682 -62.660174 
L 119.262652 -62.55123 
L 120.409621 -62.457167 
L 121.556591 -62.382887 
L 122.703561 -62.316754 
L 123.85053 -62.176068 
L 124.9975 -62.059683 
L 126.14447 -61.872652 
L 127.291439 -61.682196 
L 128.438409 -61.514154 
L 129.585379 -61.226216 
L 130.732348 -61.013658 
L 131.879318 -60.814541 
L 133.026288 -60.51405 
L 134.173258 -60.141378 
L 135.320227 -59.746391 
L 136.467197 -59.250016 
L 137.614167 -58.958783 
L 138.761136 -58.471751 
L 139.908106 -57.908286 
L 141.055076 -57.360566 
L 142.202045 -56.828479 
L 143.349015 -56.282415 
L 144.495985 -55.691508 
L 145.642955 -55.195752 
L 146.789924 -54.585163 
L 147.936894 -54.058204 
L 149.083864 -53.451275 
L 150.230833 -52.861973 
L 151.377803 -52.192898 
L 152.524773 -51.603074 
L 153.671742 -51.015685 
L 154.818712 -50.378171 
L 155.965682 -49.741038 
L 157.112652 -49.067172 
L 158.259621 -48.467788 
L 159.406591 -47.831162 
L 160.553561 -47.229836 
L 161.70053 -46.571335 
L 162.8475 -45.928806 
L 162.8475 -65.374119 
L 162.8475 -65.374119 
L 161.70053 -65.473622 
L 160.553561 -65.516984 
L 159.406591 -65.557484 
L 158.259621 -65.59719 
L 157.112652 -65.639513 
L 155.965682 -65.724745 
L 154.818712 -65.737641 
L 153.671742 -65.786589 
L 152.524773 -65.841405 
L 151.377803 -65.951118 
L 150.230833 -66.096073 
L 149.083864 -66.230359 
L 147.936894 -66.323365 
L 146.789924 -66.436716 
L 145.642955 -66.645664 
L 144.495985 -66.797127 
L 143.349015 -67.032229 
L 142.202045 -67.244727 
L 141.055076 -67.39435 
L 139.908106 -67.572472 
L 138.761136 -67.673379 
L 137.614167 -67.963251 
L 136.467197 -68.253953 
L 135.320227 -68.459554 
L 134.173258 -68.942548 
L 133.026288 -69.317886 
L 131.879318 -69.605591 
L 130.732348 -70.025797 
L 129.585379 -70.44526 
L 128.438409 -70.873942 
L 127.291439 -71.307311 
L 126.14447 -71.772605 
L 124.9975 -72.312752 
L 123.85053 -72.785308 
L 122.703561 -73.260907 
L 121.556591 -73.849982 
L 120.409621 -74.348289 
L 119.262652 -75.053773 
L 118.115682 -75.590445 
L 116.968712 -76.217499 
L 115.821742 -76.776821 
L 114.674773 -77.340695 
L 113.527803 -77.912068 
L 112.380833 -78.478002 
L 111.233864 -79.006796 
L 110.086894 -79.53515 
L 108.939924 -80.023696 
L 107.792955 -80.672186 
L 106.645985 -81.245737 
L 105.499015 -81.868217 
L 104.352045 -82.467404 
L 103.205076 -83.113149 
L 102.058106 -83.675552 
L 100.911136 -84.278067 
L 99.764167 -84.935001 
L 98.617197 -85.467765 
L 97.470227 -86.020731 
L 96.323258 -86.623957 
L 95.176288 -87.204005 
L 94.029318 -87.826715 
L 92.882348 -88.4315 
L 91.735379 -89.072235 
L 90.588409 -89.697979 
L 89.441439 -90.290267 
L 88.29447 -90.961583 
L 87.1475 -91.666173 
L 86.00053 -92.370764 
L 84.853561 -93.075354 
L 83.706591 -93.763796 
L 82.559621 -94.406816 
L 81.412652 -94.960684 
L 80.265682 -95.514553 
L 79.118712 -96.068422 
L 77.971742 -96.79293 
L 76.824773 -97.518052 
L 75.677803 -98.166625 
L 74.530833 -98.798897 
L 73.383864 -99.428155 
L 72.236894 -100.057413 
L 71.089924 -100.686671 
L 69.942955 -101.315928 
L 68.795985 -101.945186 
L 67.649015 -102.57384 
L 66.502045 -103.27113 
L 65.355076 -103.970889 
L 64.208106 -104.670649 
L 63.061136 -105.370409 
L 61.914167 -106.069433 
L 60.767197 -106.768105 
L 59.620227 -107.466778 
L 58.473258 -108.16545 
L 57.326288 -108.864122 
L 56.179318 -109.562794 
L 55.032348 -110.233874 
L 53.885379 -110.862626 
L 52.738409 -111.491379 
L 51.591439 -112.120131 
L 50.44447 -112.748883 
L 49.2975 -113.377636 
z
" style="stroke: #ffffff; stroke-opacity: 0.15; stroke-width: 0.8"/>
    </defs>
    <g clip-path="url(#pd8b478f8f8)">
     <use xlink:href="#mfa39c8ca3b" x="0" y="180" style="fill: #1f77b4; fill-opacity: 0.15; stroke: #ffffff; stroke-opacity: 0.15; stroke-width: 0.8"/>
    </g>
   </g>
   <g id="line2d_16">
    <path d="M 49.2975 89.156977 
L 50.44447 89.514975 
L 51.591439 89.872972 
L 52.738409 90.23097 
L 53.885379 90.588967 
L 55.032348 90.946965 
L 56.179318 91.304963 
L 57.326288 91.66296 
L 58.473258 92.020958 
L 59.620227 92.378956 
L 60.767197 92.736953 
L 61.914167 93.094951 
L 63.061136 93.452949 
L 64.208106 93.810946 
L 65.355076 94.168944 
L 66.502045 94.526941 
L 67.649015 94.884939 
L 68.795985 95.242937 
L 69.942955 95.600934 
L 71.089924 95.958932 
L 72.236894 96.31693 
L 73.383864 96.674927 
L 74.530833 97.032925 
L 75.677803 97.390923 
L 76.824773 97.74892 
L 77.971742 98.106918 
L 79.118712 98.464915 
L 80.265682 98.822913 
L 81.412652 99.180911 
L 82.559621 99.538908 
L 83.706591 99.896906 
L 84.853561 100.254904 
L 86.00053 100.612901 
L 87.1475 100.970899 
L 88.29447 101.328897 
L 89.441439 101.686894 
L 90.588409 102.044892 
L 91.735379 102.40289 
L 92.882348 102.760887 
L 94.029318 103.118885 
L 95.176288 103.476882 
L 96.323258 103.83488 
L 97.470227 104.192878 
L 98.617197 104.550875 
L 99.764167 104.908873 
L 100.911136 105.266871 
L 102.058106 105.624868 
L 103.205076 105.982866 
L 104.352045 106.340864 
L 105.499015 106.698861 
L 106.645985 107.056859 
L 107.792955 107.414856 
L 108.939924 107.772854 
L 110.086894 108.130852 
L 111.233864 108.488849 
L 112.380833 108.846847 
L 113.527803 109.204845 
L 114.674773 109.562842 
L 115.821742 109.92084 
L 116.968712 110.278838 
L 118.115682 110.636835 
L 119.262652 110.994833 
L 120.409621 111.35283 
L 121.556591 111.710828 
L 122.703561 112.068826 
L 123.85053 112.426823 
L 124.9975 112.784821 
L 126.14447 113.142819 
L 127.291439 113.500816 
L 128.438409 113.858814 
L 129.585379 114.216812 
L 130.732348 114.574809 
L 131.879318 114.932807 
L 133.026288 115.290805 
L 134.173258 115.648802 
L 135.320227 116.0068 
L 136.467197 116.364797 
L 137.614167 116.722795 
L 138.761136 117.080793 
L 139.908106 117.43879 
L 141.055076 117.796788 
L 142.202045 118.154786 
L 143.349015 118.512783 
L 144.495985 118.870781 
L 145.642955 119.228779 
L 146.789924 119.586776 
L 147.936894 119.944774 
L 149.083864 120.302771 
L 150.230833 120.660769 
L 151.377803 121.018767 
L 152.524773 121.376764 
L 153.671742 121.734762 
L 154.818712 122.09276 
L 155.965682 122.450757 
L 157.112652 122.808755 
L 158.259621 123.166753 
L 159.406591 123.52475 
L 160.553561 123.882748 
L 161.70053 124.240745 
L 162.8475 124.598743 
" clip-path="url(#pd8b478f8f8)" style="fill: none; stroke: #1f77b4; stroke-width: 1.8; stroke-linecap: round"/>
   </g>
   <g id="patch_3">
    <path d="M 43.62 138.18 
L 43.62 24 
" style="fill: none; stroke: #cccccc; stroke-linejoin: miter; stroke-linecap: square"/>
   </g>
   <g id="patch_4">
    <path d="M 168.525 138.18 
L 168.525 24 
" style="fill: none; stroke: #cccccc; stroke-linejoin: miter; stroke-linecap: square"/>
   </g>
   <g id="patch_5">
    <path d="M 43.62 138.18 
L 168.525 138.18 
" style="fill: none; stroke: #cccccc; stroke-linejoin: miter; stroke-linecap: square"/>
   </g>
   <g id="patch_6">
    <path d="M 43.62 24 
L 168.525 24 
" style="fill: none; stroke: #cccccc; stroke-linejoin: miter; stroke-linecap: square"/>
   </g>
   <g id="text_18">
    <!-- rho = -0.22 -->
    <g style="fill: #262626" transform="translate(118.563 36.882438) scale(0.1 -0.1)">
     <defs>
      <path id="Helvetica-72" d="M 428 3347 
L 963 3347 
L 963 2769 
Q 1028 2938 1284 3180 
Q 1541 3422 1875 3422 
Q 1891 3422 1928 3419 
Q 1966 3416 2056 3406 
L 2056 2813 
Q 2006 2822 1964 2825 
Q 1922 2828 1872 2828 
Q 1447 2828 1219 2554 
Q 991 2281 991 1925 
L 991 0 
L 428 0 
L 428 3347 
z
" transform="scale(0.015625)"/>
      <path id="Helvetica-68" d="M 413 4606 
L 975 4606 
L 975 2894 
Q 1175 3147 1334 3250 
Q 1606 3428 2013 3428 
Q 2741 3428 3000 2919 
Q 3141 2641 3141 2147 
L 3141 0 
L 2563 0 
L 2563 2109 
Q 2563 2478 2469 2650 
Q 2316 2925 1894 2925 
Q 1544 2925 1259 2684 
Q 975 2444 975 1775 
L 975 0 
L 413 0 
L 413 4606 
z
" transform="scale(0.015625)"/>
      <path id="Helvetica-6f" d="M 1741 363 
Q 2300 363 2508 786 
Q 2716 1209 2716 1728 
Q 2716 2197 2566 2491 
Q 2328 2953 1747 2953 
Q 1231 2953 997 2559 
Q 763 2166 763 1609 
Q 763 1075 997 719 
Q 1231 363 1741 363 
z
M 1763 3444 
Q 2409 3444 2856 3012 
Q 3303 2581 3303 1744 
Q 3303 934 2909 406 
Q 2516 -122 1688 -122 
Q 997 -122 590 345 
Q 184 813 184 1600 
Q 184 2444 612 2944 
Q 1041 3444 1763 3444 
z
M 1744 3428 
L 1744 3428 
z
" transform="scale(0.015625)"/>
      <path id="Helvetica-20" transform="scale(0.015625)"/>
      <path id="Helvetica-3d" d="M 3547 2569 
L 3547 2044 
L 288 2044 
L 288 2569 
L 3547 2569 
z
M 3547 1228 
L 3547 694 
L 288 694 
L 288 1228 
L 3547 1228 
z
" transform="scale(0.015625)"/>
      <path id="Helvetica-2d" d="M 266 2072 
L 1834 2072 
L 1834 1494 
L 266 1494 
L 266 2072 
z
" transform="scale(0.015625)"/>
      <path id="Helvetica-2e" d="M 547 681 
L 1200 681 
L 1200 0 
L 547 0 
L 547 681 
z
" transform="scale(0.015625)"/>
     </defs>
     <use xlink:href="#Helvetica-72"/>
     <use xlink:href="#Helvetica-68" x="33.300781"/>
     <use xlink:href="#Helvetica-6f" x="88.916016"/>
     <use xlink:href="#Helvetica-20" x="144.53125"/>
     <use xlink:href="#Helvetica-3d" x="172.314453"/>
     <use xlink:href="#Helvetica-20" x="230.712891"/>
     <use xlink:href="#Helvetica-2d" x="258.496094"/>
     <use xlink:href="#Helvetica-30" x="291.796875"/>
     <use xlink:href="#Helvetica-2e" x="347.412109"/>
     <use xlink:href="#Helvetica-32" x="375.195312"/>
     <use xlink:href="#Helvetica-32" x="430.810547"/>
    </g>
    <!-- p = 1.54e-01 -->
    <g style="fill: #262626" transform="translate(118.563 47.574938) scale(0.1 -0.1)">
     <defs>
      <path id="Helvetica-65" d="M 1806 3422 
Q 2163 3422 2497 3255 
Q 2831 3088 3006 2822 
Q 3175 2569 3231 2231 
Q 3281 2000 3281 1494 
L 828 1494 
Q 844 984 1069 676 
Q 1294 369 1766 369 
Q 2206 369 2469 659 
Q 2619 828 2681 1050 
L 3234 1050 
Q 3213 866 3089 639 
Q 2966 413 2813 269 
Q 2556 19 2178 -69 
Q 1975 -119 1719 -119 
Q 1094 -119 659 336 
Q 225 791 225 1609 
Q 225 2416 662 2919 
Q 1100 3422 1806 3422 
z
M 2703 1941 
Q 2669 2306 2544 2525 
Q 2313 2931 1772 2931 
Q 1384 2931 1121 2651 
Q 859 2372 844 1941 
L 2703 1941 
z
M 1753 3428 
L 1753 3428 
z
" transform="scale(0.015625)"/>
     </defs>
     <use xlink:href="#Helvetica-70"/>
     <use xlink:href="#Helvetica-20" x="55.615234"/>
     <use xlink:href="#Helvetica-3d" x="83.398438"/>
     <use xlink:href="#Helvetica-20" x="141.796875"/>
     <use xlink:href="#Helvetica-31" x="169.580078"/>
     <use xlink:href="#Helvetica-2e" x="225.195312"/>
     <use xlink:href="#Helvetica-35" x="252.978516"/>
     <use xlink:href="#Helvetica-34" x="308.59375"/>
     <use xlink:href="#Helvetica-65" x="364.208984"/>
     <use xlink:href="#Helvetica-2d" x="419.824219"/>
     <use xlink:href="#Helvetica-30" x="453.125"/>
     <use xlink:href="#Helvetica-31" x="508.740234"/>
    </g>
   </g>
   <g id="text_19">
    <!-- AF2 RIA sc (no templates) vs pKi -->
    <g style="fill: #262626" transform="translate(32.440469 18) scale(0.1 -0.1)">
     <defs>
      <path id="Helvetica-41" d="M 2844 1881 
L 2147 3909 
L 1406 1881 
L 2844 1881 
z
M 1822 4591 
L 2525 4591 
L 4191 0 
L 3509 0 
L 3044 1375 
L 1228 1375 
L 731 0 
L 94 0 
L 1822 4591 
z
" transform="scale(0.015625)"/>
      <path id="Helvetica-46" d="M 547 4591 
L 3731 4591 
L 3731 4028 
L 1169 4028 
L 1169 2634 
L 3422 2634 
L 3422 2088 
L 1169 2088 
L 1169 0 
L 547 0 
L 547 4591 
z
" transform="scale(0.015625)"/>
      <path id="Helvetica-49" d="M 628 4591 
L 1256 4591 
L 1256 0 
L 628 0 
L 628 4591 
z
" transform="scale(0.015625)"/>
      <path id="Helvetica-73" d="M 747 1050 
Q 772 769 888 619 
Q 1100 347 1625 347 
Q 1938 347 2175 483 
Q 2413 619 2413 903 
Q 2413 1119 2222 1231 
Q 2100 1300 1741 1391 
L 1294 1503 
Q 866 1609 663 1741 
Q 300 1969 300 2372 
Q 300 2847 642 3140 
Q 984 3434 1563 3434 
Q 2319 3434 2653 2991 
Q 2863 2709 2856 2384 
L 2325 2384 
Q 2309 2575 2191 2731 
Q 1997 2953 1519 2953 
Q 1200 2953 1036 2831 
Q 872 2709 872 2509 
Q 872 2291 1088 2159 
Q 1213 2081 1456 2022 
L 1828 1931 
Q 2434 1784 2641 1647 
Q 2969 1431 2969 969 
Q 2969 522 2630 197 
Q 2291 -128 1597 -128 
Q 850 -128 539 211 
Q 228 550 206 1050 
L 747 1050 
z
M 1578 3428 
L 1578 3428 
z
" transform="scale(0.015625)"/>
      <path id="Helvetica-63" d="M 1703 3444 
Q 2269 3444 2623 3169 
Q 2978 2894 3050 2222 
L 2503 2222 
Q 2453 2531 2275 2736 
Q 2097 2941 1703 2941 
Q 1166 2941 934 2416 
Q 784 2075 784 1575 
Q 784 1072 996 728 
Q 1209 384 1666 384 
Q 2016 384 2220 598 
Q 2425 813 2503 1184 
L 3050 1184 
Q 2956 519 2581 211 
Q 2206 -97 1622 -97 
Q 966 -97 575 383 
Q 184 863 184 1581 
Q 184 2463 612 2953 
Q 1041 3444 1703 3444 
z
M 1616 3428 
L 1616 3428 
z
" transform="scale(0.015625)"/>
      <path id="Helvetica-28" d="M 1894 4666 
Q 1403 3713 1256 3263 
Q 1034 2578 1034 1681 
Q 1034 775 1288 25 
Q 1444 -438 1903 -1306 
L 1525 -1306 
Q 1069 -594 959 -397 
Q 850 -200 722 138 
Q 547 600 478 1125 
Q 444 1397 444 1644 
Q 444 2569 734 3291 
Q 919 3750 1503 4666 
L 1894 4666 
z
" transform="scale(0.015625)"/>
      <path id="Helvetica-74" d="M 525 4281 
L 1094 4281 
L 1094 3347 
L 1628 3347 
L 1628 2888 
L 1094 2888 
L 1094 703 
Q 1094 528 1213 469 
Q 1278 434 1431 434 
Q 1472 434 1519 436 
Q 1566 438 1628 444 
L 1628 0 
Q 1531 -28 1426 -40 
Q 1322 -53 1200 -53 
Q 806 -53 665 148 
Q 525 350 525 672 
L 525 2888 
L 72 2888 
L 72 3347 
L 525 3347 
L 525 4281 
z
" transform="scale(0.015625)"/>
      <path id="Helvetica-6d" d="M 413 3347 
L 969 3347 
L 969 2872 
Q 1169 3119 1331 3231 
Q 1609 3422 1963 3422 
Q 2363 3422 2606 3225 
Q 2744 3113 2856 2894 
Q 3044 3163 3297 3292 
Q 3550 3422 3866 3422 
Q 4541 3422 4784 2934 
Q 4916 2672 4916 2228 
L 4916 0 
L 4331 0 
L 4331 2325 
Q 4331 2659 4164 2784 
Q 3997 2909 3756 2909 
Q 3425 2909 3186 2687 
Q 2947 2466 2947 1947 
L 2947 0 
L 2375 0 
L 2375 2184 
Q 2375 2525 2294 2681 
Q 2166 2916 1816 2916 
Q 1497 2916 1236 2669 
Q 975 2422 975 1775 
L 975 0 
L 413 0 
L 413 3347 
z
" transform="scale(0.015625)"/>
      <path id="Helvetica-6c" d="M 428 4591 
L 991 4591 
L 991 0 
L 428 0 
L 428 4591 
z
" transform="scale(0.015625)"/>
      <path id="Helvetica-29" d="M 222 -1306 
Q 719 -338 863 106 
Q 1081 778 1081 1681 
Q 1081 2584 828 3334 
Q 672 3797 213 4666 
L 591 4666 
Q 1072 3897 1173 3717 
Q 1275 3538 1394 3222 
Q 1544 2831 1608 2450 
Q 1672 2069 1672 1716 
Q 1672 791 1378 66 
Q 1194 -400 613 -1306 
L 222 -1306 
z
" transform="scale(0.015625)"/>
      <path id="Helvetica-76" d="M 688 3347 
L 1581 622 
L 2516 3347 
L 3131 3347 
L 1869 0 
L 1269 0 
L 34 3347 
L 688 3347 
z
" transform="scale(0.015625)"/>
     </defs>
     <use xlink:href="#Helvetica-41"/>
     <use xlink:href="#Helvetica-46" x="66.699219"/>
     <use xlink:href="#Helvetica-32" x="127.783203"/>
     <use xlink:href="#Helvetica-20" x="183.398438"/>
     <use xlink:href="#Helvetica-52" x="211.181641"/>
     <use xlink:href="#Helvetica-49" x="283.398438"/>
     <use xlink:href="#Helvetica-41" x="311.181641"/>
     <use xlink:href="#Helvetica-20" x="377.880859"/>
     <use xlink:href="#Helvetica-73" x="405.664062"/>
     <use xlink:href="#Helvetica-63" x="455.664062"/>
     <use xlink:href="#Helvetica-20" x="505.664062"/>
     <use xlink:href="#Helvetica-28" x="533.447266"/>
     <use xlink:href="#Helvetica-6e" x="566.748047"/>
     <use xlink:href="#Helvetica-6f" x="622.363281"/>
     <use xlink:href="#Helvetica-20" x="677.978516"/>
     <use xlink:href="#Helvetica-74" x="705.761719"/>
     <use xlink:href="#Helvetica-65" x="733.544922"/>
     <use xlink:href="#Helvetica-6d" x="789.160156"/>
     <use xlink:href="#Helvetica-70" x="872.460938"/>
     <use xlink:href="#Helvetica-6c" x="928.076172"/>
     <use xlink:href="#Helvetica-61" x="950.292969"/>
     <use xlink:href="#Helvetica-74" x="1005.908203"/>
     <use xlink:href="#Helvetica-65" x="1033.691406"/>
     <use xlink:href="#Helvetica-73" x="1089.306641"/>
     <use xlink:href="#Helvetica-29" x="1139.306641"/>
     <use xlink:href="#Helvetica-20" x="1172.607422"/>
     <use xlink:href="#Helvetica-76" x="1200.390625"/>
     <use xlink:href="#Helvetica-73" x="1250.390625"/>
     <use xlink:href="#Helvetica-20" x="1300.390625"/>
     <use xlink:href="#Helvetica-70" x="1328.173828"/>
     <use xlink:href="#Helvetica-4b" x="1383.789062"/>
     <use xlink:href="#Helvetica-69" x="1450.488281"/>
    </g>
   </g>
  </g>
 </g>
 <defs>
  <clipPath id="pd8b478f8f8">
   <rect x="43.62" y="24" width="124.905" height="114.18"/>
  </clipPath>
 </defs>
</svg>
