<?xml version="1.0" encoding="utf-8" standalone="no"?>
<!DOCTYPE svg PUBLIC "-//W3C//DTD SVG 1.1//EN"
  "http://www.w3.org/Graphics/SVG/1.1/DTD/svg11.dtd">
<svg xmlns:xlink="http://www.w3.org/1999/xlink" width="460.8pt" height="345.6pt" viewBox="0 0 460.8 345.6" xmlns="http://www.w3.org/2000/svg" version="1.1">
 <metadata>
  <rdf:RDF xmlns:dc="http://purl.org/dc/elements/1.1/" xmlns:cc="http://creativecommons.org/ns#" xmlns:rdf="http://www.w3.org/1999/02/22-rdf-syntax-ns#">
   <cc:Work>
    <dc:type rdf:resource="http://purl.org/dc/dcmitype/StillImage"/>
    <dc:date>2024-10-17T17:18:24.134142</dc:date>
    <dc:format>image/svg+xml</dc:format>
    <dc:creator>
     <cc:Agent>
      <dc:title>Matplotlib v3.6.3, https://matplotlib.org/</dc:title>
     </cc:Agent>
    </dc:creator>
   </cc:Work>
  </rdf:RDF>
 </metadata>
 <defs>
  <style type="text/css">*{stroke-linejoin: round; stroke-linecap: butt}</style>
 </defs>
 <g id="figure_1">
  <g id="patch_1">
   <path d="M 0 345.6 
L 460.8 345.6 
L 460.8 0 
L 0 0 
z
" style="fill: #ffffff"/>
  </g>
  <g id="axes_1">
   <g id="patch_2">
    <path d="M 57.6 307.584 
L 414.72 307.584 
L 414.72 41.472 
L 57.6 41.472 
z
" style="fill: #ffffff"/>
   </g>
   <g id="matplotlib.axis_1">
    <g id="xtick_1">
     <g id="line2d_1">
      <path d="M 67.929917 307.584 
L 67.929917 41.472 
" clip-path="url(#p2ea4039a2d)" style="fill: none; stroke: #cccccc; stroke-width: 0.8; stroke-linecap: round"/>
     </g>
     <g id="text_1">
      <!-- 0 -->
      <g style="fill: #262626" transform="translate(65.149449 323.057437) scale(0.1 -0.1)">
       <defs>
        <path id="Helvetica-30" d="M 1731 4475 
Q 2600 4475 2988 3759 
Q 3288 3206 3288 2244 
Q 3288 1331 3016 734 
Q 2622 -122 1728 -122 
Q 922 -122 528 578 
Q 200 1163 200 2147 
Q 200 2909 397 3456 
Q 766 4475 1731 4475 
z
M 1725 391 
Q 2163 391 2422 778 
Q 2681 1166 2681 2222 
Q 2681 2984 2493 3476 
Q 2306 3969 1766 3969 
Q 1269 3969 1039 3501 
Q 809 3034 809 2125 
Q 809 1441 956 1025 
Q 1181 391 1725 391 
z
" transform="scale(0.015625)"/>
       </defs>
       <use xlink:href="#Helvetica-30"/>
      </g>
     </g>
    </g>
    <g id="xtick_2">
     <g id="line2d_2">
      <path d="M 126.958017 307.584 
L 126.958017 41.472 
" clip-path="url(#p2ea4039a2d)" style="fill: none; stroke: #cccccc; stroke-width: 0.8; stroke-linecap: round"/>
     </g>
     <g id="text_2">
      <!-- 100 -->
      <g style="fill: #262626" transform="translate(118.61661 323.057437) scale(0.1 -0.1)">
       <defs>
        <path id="Helvetica-31" d="M 613 3169 
L 613 3600 
Q 1222 3659 1462 3798 
Q 1703 3938 1822 4456 
L 2266 4456 
L 2266 0 
L 1666 0 
L 1666 3169 
L 613 3169 
z
" transform="scale(0.015625)"/>
       </defs>
       <use xlink:href="#Helvetica-31"/>
       <use xlink:href="#Helvetica-30" x="55.615234"/>
       <use xlink:href="#Helvetica-30" x="111.230469"/>
      </g>
     </g>
    </g>
    <g id="xtick_3">
     <g id="line2d_3">
      <path d="M 185.986116 307.584 
L 185.986116 41.472 
" clip-path="url(#p2ea4039a2d)" style="fill: none; stroke: #cccccc; stroke-width: 0.8; stroke-linecap: round"/>
     </g>
     <g id="text_3">
      <!-- 200 -->
      <g style="fill: #262626" transform="translate(177.644709 323.057437) scale(0.1 -0.1)">
       <defs>
        <path id="Helvetica-32" d="M 200 0 
Q 231 578 439 1006 
Q 647 1434 1250 1784 
L 1850 2131 
Q 2253 2366 2416 2531 
Q 2672 2791 2672 3125 
Q 2672 3516 2437 3745 
Q 2203 3975 1813 3975 
Q 1234 3975 1013 3538 
Q 894 3303 881 2888 
L 309 2888 
Q 319 3472 525 3841 
Q 891 4491 1816 4491 
Q 2584 4491 2939 4075 
Q 3294 3659 3294 3150 
Q 3294 2613 2916 2231 
Q 2697 2009 2131 1694 
L 1703 1456 
Q 1397 1288 1222 1134 
Q 909 863 828 531 
L 3272 531 
L 3272 0 
L 200 0 
z
" transform="scale(0.015625)"/>
       </defs>
       <use xlink:href="#Helvetica-32"/>
       <use xlink:href="#Helvetica-30" x="55.615234"/>
       <use xlink:href="#Helvetica-30" x="111.230469"/>
      </g>
     </g>
    </g>
    <g id="xtick_4">
     <g id="line2d_4">
      <path d="M 245.014215 307.584 
L 245.014215 41.472 
" clip-path="url(#p2ea4039a2d)" style="fill: none; stroke: #cccccc; stroke-width: 0.8; stroke-linecap: round"/>
     </g>
     <g id="text_4">
      <!-- 300 -->
      <g style="fill: #262626" transform="translate(236.672809 323.057437) scale(0.1 -0.1)">
       <defs>
        <path id="Helvetica-33" d="M 1663 -122 
Q 869 -122 511 314 
Q 153 750 153 1375 
L 741 1375 
Q 778 941 903 744 
Q 1122 391 1694 391 
Q 2138 391 2406 628 
Q 2675 866 2675 1241 
Q 2675 1703 2392 1887 
Q 2109 2072 1606 2072 
Q 1550 2072 1492 2070 
Q 1434 2069 1375 2066 
L 1375 2563 
Q 1463 2553 1522 2550 
Q 1581 2547 1650 2547 
Q 1966 2547 2169 2647 
Q 2525 2822 2525 3272 
Q 2525 3606 2287 3787 
Q 2050 3969 1734 3969 
Q 1172 3969 956 3594 
Q 838 3388 822 3006 
L 266 3006 
Q 266 3506 466 3856 
Q 809 4481 1675 4481 
Q 2359 4481 2734 4176 
Q 3109 3872 3109 3294 
Q 3109 2881 2888 2625 
Q 2750 2466 2531 2375 
Q 2884 2278 3082 2001 
Q 3281 1725 3281 1325 
Q 3281 684 2859 281 
Q 2438 -122 1663 -122 
z
" transform="scale(0.015625)"/>
       </defs>
       <use xlink:href="#Helvetica-33"/>
       <use xlink:href="#Helvetica-30" x="55.615234"/>
       <use xlink:href="#Helvetica-30" x="111.230469"/>
      </g>
     </g>
    </g>
    <g id="xtick_5">
     <g id="line2d_5">
      <path d="M 304.042314 307.584 
L 304.042314 41.472 
" clip-path="url(#p2ea4039a2d)" style="fill: none; stroke: #cccccc; stroke-width: 0.8; stroke-linecap: round"/>
     </g>
     <g id="text_5">
      <!-- 400 -->
      <g style="fill: #262626" transform="translate(295.700908 323.057437) scale(0.1 -0.1)">
       <defs>
        <path id="Helvetica-34" d="M 2116 1584 
L 2116 3613 
L 681 1584 
L 2116 1584 
z
M 2125 0 
L 2125 1094 
L 163 1094 
L 163 1644 
L 2213 4488 
L 2688 4488 
L 2688 1584 
L 3347 1584 
L 3347 1094 
L 2688 1094 
L 2688 0 
L 2125 0 
z
" transform="scale(0.015625)"/>
       </defs>
       <use xlink:href="#Helvetica-34"/>
       <use xlink:href="#Helvetica-30" x="55.615234"/>
       <use xlink:href="#Helvetica-30" x="111.230469"/>
      </g>
     </g>
    </g>
    <g id="xtick_6">
     <g id="line2d_6">
      <path d="M 363.070413 307.584 
L 363.070413 41.472 
" clip-path="url(#p2ea4039a2d)" style="fill: none; stroke: #cccccc; stroke-width: 0.8; stroke-linecap: round"/>
     </g>
     <g id="text_6">
      <!-- 500 -->
      <g style="fill: #262626" transform="translate(354.729007 323.057437) scale(0.1 -0.1)">
       <defs>
        <path id="Helvetica-35" d="M 791 1141 
Q 847 659 1238 475 
Q 1438 381 1700 381 
Q 2200 381 2440 700 
Q 2681 1019 2681 1406 
Q 2681 1875 2395 2131 
Q 2109 2388 1709 2388 
Q 1419 2388 1211 2275 
Q 1003 2163 856 1963 
L 369 1991 
L 709 4400 
L 3034 4400 
L 3034 3856 
L 1131 3856 
L 941 2613 
Q 1097 2731 1238 2791 
Q 1488 2894 1816 2894 
Q 2431 2894 2859 2497 
Q 3288 2100 3288 1491 
Q 3288 856 2895 371 
Q 2503 -113 1644 -113 
Q 1097 -113 676 195 
Q 256 503 206 1141 
L 791 1141 
z
" transform="scale(0.015625)"/>
       </defs>
       <use xlink:href="#Helvetica-35"/>
       <use xlink:href="#Helvetica-30" x="55.615234"/>
       <use xlink:href="#Helvetica-30" x="111.230469"/>
      </g>
     </g>
    </g>
    <g id="text_7">
     <!-- N-term length -->
     <g style="fill: #262626" transform="translate(205.874062 336.338687) scale(0.1 -0.1)">
      <defs>
       <path id="Helvetica-4e" d="M 488 4591 
L 1222 4591 
L 3541 872 
L 3541 4591 
L 4131 4591 
L 4131 0 
L 3434 0 
L 1081 3716 
L 1081 0 
L 488 0 
L 488 4591 
z
M 2269 4591 
L 2269 4591 
z
" transform="scale(0.015625)"/>
       <path id="Helvetica-2d" d="M 266 2072 
L 1834 2072 
L 1834 1494 
L 266 1494 
L 266 2072 
z
" transform="scale(0.015625)"/>
       <path id="Helvetica-74" d="M 525 4281 
L 1094 4281 
L 1094 3347 
L 1628 3347 
L 1628 2888 
L 1094 2888 
L 1094 703 
Q 1094 528 1213 469 
Q 1278 434 1431 434 
Q 1472 434 1519 436 
Q 1566 438 1628 444 
L 1628 0 
Q 1531 -28 1426 -40 
Q 1322 -53 1200 -53 
Q 806 -53 665 148 
Q 525 350 525 672 
L 525 2888 
L 72 2888 
L 72 3347 
L 525 3347 
L 525 4281 
z
" transform="scale(0.015625)"/>
       <path id="Helvetica-65" d="M 1806 3422 
Q 2163 3422 2497 3255 
Q 2831 3088 3006 2822 
Q 3175 2569 3231 2231 
Q 3281 2000 3281 1494 
L 828 1494 
Q 844 984 1069 676 
Q 1294 369 1766 369 
Q 2206 369 2469 659 
Q 2619 828 2681 1050 
L 3234 1050 
Q 3213 866 3089 639 
Q 2966 413 2813 269 
Q 2556 19 2178 -69 
Q 1975 -119 1719 -119 
Q 1094 -119 659 336 
Q 225 791 225 1609 
Q 225 2416 662 2919 
Q 1100 3422 1806 3422 
z
M 2703 1941 
Q 2669 2306 2544 2525 
Q 2313 2931 1772 2931 
Q 1384 2931 1121 2651 
Q 859 2372 844 1941 
L 2703 1941 
z
M 1753 3428 
L 1753 3428 
z
" transform="scale(0.015625)"/>
       <path id="Helvetica-72" d="M 428 3347 
L 963 3347 
L 963 2769 
Q 1028 2938 1284 3180 
Q 1541 3422 1875 3422 
Q 1891 3422 1928 3419 
Q 1966 3416 2056 3406 
L 2056 2813 
Q 2006 2822 1964 2825 
Q 1922 2828 1872 2828 
Q 1447 2828 1219 2554 
Q 991 2281 991 1925 
L 991 0 
L 428 0 
L 428 3347 
z
" transform="scale(0.015625)"/>
       <path id="Helvetica-6d" d="M 413 3347 
L 969 3347 
L 969 2872 
Q 1169 3119 1331 3231 
Q 1609 3422 1963 3422 
Q 2363 3422 2606 3225 
Q 2744 3113 2856 2894 
Q 3044 3163 3297 3292 
Q 3550 3422 3866 3422 
Q 4541 3422 4784 2934 
Q 4916 2672 4916 2228 
L 4916 0 
L 4331 0 
L 4331 2325 
Q 4331 2659 4164 2784 
Q 3997 2909 3756 2909 
Q 3425 2909 3186 2687 
Q 2947 2466 2947 1947 
L 2947 0 
L 2375 0 
L 2375 2184 
Q 2375 2525 2294 2681 
Q 2166 2916 1816 2916 
Q 1497 2916 1236 2669 
Q 975 2422 975 1775 
L 975 0 
L 413 0 
L 413 3347 
z
" transform="scale(0.015625)"/>
       <path id="Helvetica-20" transform="scale(0.015625)"/>
       <path id="Helvetica-6c" d="M 428 4591 
L 991 4591 
L 991 0 
L 428 0 
L 428 4591 
z
" transform="scale(0.015625)"/>
       <path id="Helvetica-6e" d="M 413 3347 
L 947 3347 
L 947 2872 
Q 1184 3166 1450 3294 
Q 1716 3422 2041 3422 
Q 2753 3422 3003 2925 
Q 3141 2653 3141 2147 
L 3141 0 
L 2569 0 
L 2569 2109 
Q 2569 2416 2478 2603 
Q 2328 2916 1934 2916 
Q 1734 2916 1606 2875 
Q 1375 2806 1200 2600 
Q 1059 2434 1017 2257 
Q 975 2081 975 1753 
L 975 0 
L 413 0 
L 413 3347 
z
M 1734 3428 
L 1734 3428 
z
" transform="scale(0.015625)"/>
       <path id="Helvetica-67" d="M 1594 3406 
Q 1988 3406 2281 3213 
Q 2441 3103 2606 2894 
L 2606 3316 
L 3125 3316 
L 3125 272 
Q 3125 -366 2938 -734 
Q 2588 -1416 1616 -1416 
Q 1075 -1416 706 -1173 
Q 338 -931 294 -416 
L 866 -416 
Q 906 -641 1028 -763 
Q 1219 -950 1628 -950 
Q 2275 -950 2475 -494 
Q 2594 -225 2584 466 
Q 2416 209 2178 84 
Q 1941 -41 1550 -41 
Q 1006 -41 598 345 
Q 191 731 191 1622 
Q 191 2463 602 2934 
Q 1013 3406 1594 3406 
z
M 2606 1688 
Q 2606 2309 2350 2609 
Q 2094 2909 1697 2909 
Q 1103 2909 884 2353 
Q 769 2056 769 1575 
Q 769 1009 998 714 
Q 1228 419 1616 419 
Q 2222 419 2469 966 
Q 2606 1275 2606 1688 
z
M 1659 3428 
L 1659 3428 
z
" transform="scale(0.015625)"/>
       <path id="Helvetica-68" d="M 413 4606 
L 975 4606 
L 975 2894 
Q 1175 3147 1334 3250 
Q 1606 3428 2013 3428 
Q 2741 3428 3000 2919 
Q 3141 2641 3141 2147 
L 3141 0 
L 2563 0 
L 2563 2109 
Q 2563 2478 2469 2650 
Q 2316 2925 1894 2925 
Q 1544 2925 1259 2684 
Q 975 2444 975 1775 
L 975 0 
L 413 0 
L 413 4606 
z
" transform="scale(0.015625)"/>
      </defs>
      <use xlink:href="#Helvetica-4e"/>
      <use xlink:href="#Helvetica-2d" x="72.216797"/>
      <use xlink:href="#Helvetica-74" x="105.517578"/>
      <use xlink:href="#Helvetica-65" x="133.300781"/>
      <use xlink:href="#Helvetica-72" x="188.916016"/>
      <use xlink:href="#Helvetica-6d" x="222.216797"/>
      <use xlink:href="#Helvetica-20" x="305.517578"/>
      <use xlink:href="#Helvetica-6c" x="333.300781"/>
      <use xlink:href="#Helvetica-65" x="355.517578"/>
      <use xlink:href="#Helvetica-6e" x="411.132812"/>
      <use xlink:href="#Helvetica-67" x="466.748047"/>
      <use xlink:href="#Helvetica-74" x="522.363281"/>
      <use xlink:href="#Helvetica-68" x="550.146484"/>
     </g>
    </g>
   </g>
   <g id="matplotlib.axis_2">
    <g id="ytick_1">
     <g id="line2d_7">
      <path d="M 57.6 295.270566 
L 414.72 295.270566 
" clip-path="url(#p2ea4039a2d)" style="fill: none; stroke: #cccccc; stroke-width: 0.8; stroke-linecap: round"/>
     </g>
     <g id="text_8">
      <!-- 0 -->
      <g style="fill: #262626" transform="translate(43.739062 298.857285) scale(0.1 -0.1)">
       <use xlink:href="#Helvetica-30"/>
      </g>
     </g>
    </g>
    <g id="ytick_2">
     <g id="line2d_8">
      <path d="M 57.6 273.640714 
L 414.72 273.640714 
" clip-path="url(#p2ea4039a2d)" style="fill: none; stroke: #cccccc; stroke-width: 0.8; stroke-linecap: round"/>
     </g>
     <g id="text_9">
      <!-- 1 -->
      <g style="fill: #262626" transform="translate(43.739062 277.227433) scale(0.1 -0.1)">
       <use xlink:href="#Helvetica-31"/>
      </g>
     </g>
    </g>
    <g id="ytick_3">
     <g id="line2d_9">
      <path d="M 57.6 252.010863 
L 414.72 252.010863 
" clip-path="url(#p2ea4039a2d)" style="fill: none; stroke: #cccccc; stroke-width: 0.8; stroke-linecap: round"/>
     </g>
     <g id="text_10">
      <!-- 2 -->
      <g style="fill: #262626" transform="translate(43.739062 255.597581) scale(0.1 -0.1)">
       <use xlink:href="#Helvetica-32"/>
      </g>
     </g>
    </g>
    <g id="ytick_4">
     <g id="line2d_10">
      <path d="M 57.6 230.381011 
L 414.72 230.381011 
" clip-path="url(#p2ea4039a2d)" style="fill: none; stroke: #cccccc; stroke-width: 0.8; stroke-linecap: round"/>
     </g>
     <g id="text_11">
      <!-- 3 -->
      <g style="fill: #262626" transform="translate(43.739062 233.96773) scale(0.1 -0.1)">
       <use xlink:href="#Helvetica-33"/>
      </g>
     </g>
    </g>
    <g id="ytick_5">
     <g id="line2d_11">
      <path d="M 57.6 208.751159 
L 414.72 208.751159 
" clip-path="url(#p2ea4039a2d)" style="fill: none; stroke: #cccccc; stroke-width: 0.8; stroke-linecap: round"/>
     </g>
     <g id="text_12">
      <!-- 4 -->
      <g style="fill: #262626" transform="translate(43.739062 212.337878) scale(0.1 -0.1)">
       <use xlink:href="#Helvetica-34"/>
      </g>
     </g>
    </g>
    <g id="ytick_6">
     <g id="line2d_12">
      <path d="M 57.6 187.121308 
L 414.72 187.121308 
" clip-path="url(#p2ea4039a2d)" style="fill: none; stroke: #cccccc; stroke-width: 0.8; stroke-linecap: round"/>
     </g>
     <g id="text_13">
      <!-- 5 -->
      <g style="fill: #262626" transform="translate(43.739062 190.708027) scale(0.1 -0.1)">
       <use xlink:href="#Helvetica-35"/>
      </g>
     </g>
    </g>
    <g id="ytick_7">
     <g id="line2d_13">
      <path d="M 57.6 165.491456 
L 414.72 165.491456 
" clip-path="url(#p2ea4039a2d)" style="fill: none; stroke: #cccccc; stroke-width: 0.8; stroke-linecap: round"/>
     </g>
     <g id="text_14">
      <!-- 6 -->
      <g style="fill: #262626" transform="translate(43.739062 169.078175) scale(0.1 -0.1)">
       <defs>
        <path id="Helvetica-36" d="M 1872 4494 
Q 2622 4494 2917 4105 
Q 3213 3716 3213 3303 
L 2656 3303 
Q 2606 3569 2497 3719 
Q 2294 4000 1881 4000 
Q 1409 4000 1131 3564 
Q 853 3128 822 2316 
Q 1016 2600 1309 2741 
Q 1578 2866 1909 2866 
Q 2472 2866 2890 2506 
Q 3309 2147 3309 1434 
Q 3309 825 2912 354 
Q 2516 -116 1781 -116 
Q 1153 -116 697 361 
Q 241 838 241 1966 
Q 241 2800 444 3381 
Q 834 4494 1872 4494 
z
M 1831 384 
Q 2275 384 2495 682 
Q 2716 981 2716 1388 
Q 2716 1731 2519 2042 
Q 2322 2353 1803 2353 
Q 1441 2353 1167 2112 
Q 894 1872 894 1388 
Q 894 963 1142 673 
Q 1391 384 1831 384 
z
" transform="scale(0.015625)"/>
       </defs>
       <use xlink:href="#Helvetica-36"/>
      </g>
     </g>
    </g>
    <g id="ytick_8">
     <g id="line2d_14">
      <path d="M 57.6 143.861605 
L 414.72 143.861605 
" clip-path="url(#p2ea4039a2d)" style="fill: none; stroke: #cccccc; stroke-width: 0.8; stroke-linecap: round"/>
     </g>
     <g id="text_15">
      <!-- 7 -->
      <g style="fill: #262626" transform="translate(43.739062 147.448323) scale(0.1 -0.1)">
       <defs>
        <path id="Helvetica-37" d="M 3347 4400 
L 3347 3909 
Q 3131 3700 2773 3181 
Q 2416 2663 2141 2063 
Q 1869 1478 1728 997 
Q 1638 688 1494 0 
L 872 0 
Q 1084 1281 1809 2550 
Q 2238 3294 2709 3834 
L 234 3834 
L 234 4400 
L 3347 4400 
z
" transform="scale(0.015625)"/>
       </defs>
       <use xlink:href="#Helvetica-37"/>
      </g>
     </g>
    </g>
    <g id="ytick_9">
     <g id="line2d_15">
      <path d="M 57.6 122.231753 
L 414.72 122.231753 
" clip-path="url(#p2ea4039a2d)" style="fill: none; stroke: #cccccc; stroke-width: 0.8; stroke-linecap: round"/>
     </g>
     <g id="text_16">
      <!-- 8 -->
      <g style="fill: #262626" transform="translate(43.739062 125.818472) scale(0.1 -0.1)">
       <defs>
        <path id="Helvetica-38" d="M 1741 2600 
Q 2113 2600 2322 2808 
Q 2531 3016 2531 3303 
Q 2531 3553 2331 3762 
Q 2131 3972 1722 3972 
Q 1316 3972 1134 3762 
Q 953 3553 953 3272 
Q 953 2956 1187 2778 
Q 1422 2600 1741 2600 
z
M 1775 384 
Q 2166 384 2423 595 
Q 2681 806 2681 1225 
Q 2681 1659 2415 1884 
Q 2150 2109 1734 2109 
Q 1331 2109 1076 1879 
Q 822 1650 822 1244 
Q 822 894 1055 639 
Q 1288 384 1775 384 
z
M 975 2384 
Q 741 2484 609 2619 
Q 363 2869 363 3269 
Q 363 3769 725 4128 
Q 1088 4488 1753 4488 
Q 2397 4488 2762 4148 
Q 3128 3809 3128 3356 
Q 3128 2938 2916 2678 
Q 2797 2531 2547 2391 
Q 2825 2263 2984 2097 
Q 3281 1784 3281 1284 
Q 3281 694 2884 283 
Q 2488 -128 1763 -128 
Q 1109 -128 657 226 
Q 206 581 206 1256 
Q 206 1653 400 1942 
Q 594 2231 975 2384 
z
" transform="scale(0.015625)"/>
       </defs>
       <use xlink:href="#Helvetica-38"/>
      </g>
     </g>
    </g>
    <g id="ytick_10">
     <g id="line2d_16">
      <path d="M 57.6 100.601901 
L 414.72 100.601901 
" clip-path="url(#p2ea4039a2d)" style="fill: none; stroke: #cccccc; stroke-width: 0.8; stroke-linecap: round"/>
     </g>
     <g id="text_17">
      <!-- 9 -->
      <g style="fill: #262626" transform="translate(43.739062 104.18862) scale(0.1 -0.1)">
       <defs>
        <path id="Helvetica-39" d="M 850 1081 
Q 875 616 1209 438 
Q 1381 344 1597 344 
Q 2000 344 2284 680 
Q 2569 1016 2688 2044 
Q 2500 1747 2223 1626 
Q 1947 1506 1628 1506 
Q 981 1506 604 1909 
Q 228 2313 228 2947 
Q 228 3556 600 4018 
Q 972 4481 1697 4481 
Q 2675 4481 3047 3600 
Q 3253 3116 3253 2388 
Q 3253 1566 3006 931 
Q 2597 -125 1619 -125 
Q 963 -125 622 219 
Q 281 563 281 1081 
L 850 1081 
z
M 1703 2000 
Q 2038 2000 2314 2220 
Q 2591 2441 2591 2991 
Q 2591 3484 2342 3726 
Q 2094 3969 1709 3969 
Q 1297 3969 1055 3692 
Q 813 3416 813 2953 
Q 813 2516 1025 2258 
Q 1238 2000 1703 2000 
z
" transform="scale(0.015625)"/>
       </defs>
       <use xlink:href="#Helvetica-39"/>
      </g>
     </g>
    </g>
    <g id="ytick_11">
     <g id="line2d_17">
      <path d="M 57.6 78.97205 
L 414.72 78.97205 
" clip-path="url(#p2ea4039a2d)" style="fill: none; stroke: #cccccc; stroke-width: 0.8; stroke-linecap: round"/>
     </g>
     <g id="text_18">
      <!-- 10 -->
      <g style="fill: #262626" transform="translate(38.178125 82.558769) scale(0.1 -0.1)">
       <use xlink:href="#Helvetica-31"/>
       <use xlink:href="#Helvetica-30" x="55.615234"/>
      </g>
     </g>
    </g>
    <g id="ytick_12">
     <g id="line2d_18">
      <path d="M 57.6 57.342198 
L 414.72 57.342198 
" clip-path="url(#p2ea4039a2d)" style="fill: none; stroke: #cccccc; stroke-width: 0.8; stroke-linecap: round"/>
     </g>
     <g id="text_19">
      <!-- 11 -->
      <g style="fill: #262626" transform="translate(38.178125 60.928917) scale(0.1 -0.1)">
       <use xlink:href="#Helvetica-31"/>
       <use xlink:href="#Helvetica-31" x="55.615234"/>
      </g>
     </g>
    </g>
    <g id="text_20">
     <!-- Rank -->
     <g style="fill: #262626" transform="translate(32.09375 186.199875) rotate(-90) scale(0.1 -0.1)">
      <defs>
       <path id="Helvetica-52" d="M 2622 2488 
Q 3059 2488 3314 2663 
Q 3569 2838 3569 3294 
Q 3569 3784 3213 3963 
Q 3022 4056 2703 4056 
L 1184 4056 
L 1184 2488 
L 2622 2488 
z
M 563 4591 
L 2688 4591 
Q 3213 4591 3553 4438 
Q 4200 4144 4200 3353 
Q 4200 2941 4029 2678 
Q 3859 2416 3553 2256 
Q 3822 2147 3958 1969 
Q 4094 1791 4109 1391 
L 4131 775 
Q 4141 513 4175 384 
Q 4231 166 4375 103 
L 4375 0 
L 3613 0 
Q 3581 59 3562 153 
Q 3544 247 3531 516 
L 3494 1281 
Q 3472 1731 3159 1884 
Q 2981 1969 2600 1969 
L 1184 1969 
L 1184 0 
L 563 0 
L 563 4591 
z
" transform="scale(0.015625)"/>
       <path id="Helvetica-61" d="M 844 891 
Q 844 647 1022 506 
Q 1200 366 1444 366 
Q 1741 366 2019 503 
Q 2488 731 2488 1250 
L 2488 1703 
Q 2384 1638 2221 1594 
Q 2059 1550 1903 1531 
L 1563 1488 
Q 1256 1447 1103 1359 
Q 844 1213 844 891 
z
M 2206 2028 
Q 2400 2053 2466 2191 
Q 2503 2266 2503 2406 
Q 2503 2694 2298 2823 
Q 2094 2953 1713 2953 
Q 1272 2953 1088 2716 
Q 984 2584 953 2325 
L 428 2325 
Q 444 2944 830 3186 
Q 1216 3428 1725 3428 
Q 2316 3428 2684 3203 
Q 3050 2978 3050 2503 
L 3050 575 
Q 3050 488 3086 434 
Q 3122 381 3238 381 
Q 3275 381 3322 386 
Q 3369 391 3422 400 
L 3422 -16 
Q 3291 -53 3222 -62 
Q 3153 -72 3034 -72 
Q 2744 -72 2613 134 
Q 2544 244 2516 444 
Q 2344 219 2022 53 
Q 1700 -113 1313 -113 
Q 847 -113 551 170 
Q 256 453 256 878 
Q 256 1344 547 1600 
Q 838 1856 1309 1916 
L 2206 2028 
z
M 1741 3428 
L 1741 3428 
z
" transform="scale(0.015625)"/>
       <path id="Helvetica-6b" d="M 400 4591 
L 941 4591 
L 941 1925 
L 2384 3347 
L 3103 3347 
L 1822 2094 
L 3175 0 
L 2456 0 
L 1413 1688 
L 941 1256 
L 941 0 
L 400 0 
L 400 4591 
z
" transform="scale(0.015625)"/>
      </defs>
      <use xlink:href="#Helvetica-52"/>
      <use xlink:href="#Helvetica-61" x="72.216797"/>
      <use xlink:href="#Helvetica-6e" x="127.832031"/>
      <use xlink:href="#Helvetica-6b" x="183.447266"/>
     </g>
    </g>
   </g>
   <g id="PathCollection_1">
    <defs>
     <path id="mc54aa768b4" d="M 0 2.4 
C 0.636487 2.4 1.246992 2.147121 1.697056 1.697056 
C 2.147121 1.246992 2.4 0.636487 2.4 0 
C 2.4 -0.636487 2.147121 -1.246992 1.697056 -1.697056 
C 1.246992 -2.147121 0.636487 -2.4 0 -2.4 
C -0.636487 -2.4 -1.246992 -2.147121 -1.697056 -1.697056 
C -2.147121 -1.246992 -2.4 -0.636487 -2.4 0 
C -2.4 0.636487 -2.147121 1.246992 -1.697056 1.697056 
C -1.246992 2.147121 -0.636487 2.4 0 2.4 
z
" style="stroke: #1f77b4; stroke-opacity: 0.5"/>
    </defs>
    <g clip-path="url(#p2ea4039a2d)">
     <use xlink:href="#mc54aa768b4" x="121.055207" y="276.252999" style="fill: #1f77b4; fill-opacity: 0.5; stroke: #1f77b4; stroke-opacity: 0.5"/>
     <use xlink:href="#mc54aa768b4" x="108.659306" y="277.937442" style="fill: #1f77b4; fill-opacity: 0.5; stroke: #1f77b4; stroke-opacity: 0.5"/>
     <use xlink:href="#mc54aa768b4" x="95.082843" y="274.446749" style="fill: #1f77b4; fill-opacity: 0.5; stroke: #1f77b4; stroke-opacity: 0.5"/>
     <use xlink:href="#mc54aa768b4" x="80.916099" y="271.000359" style="fill: #1f77b4; fill-opacity: 0.5; stroke: #1f77b4; stroke-opacity: 0.5"/>
     <use xlink:href="#mc54aa768b4" x="80.325818" y="269.617517" style="fill: #1f77b4; fill-opacity: 0.5; stroke: #1f77b4; stroke-opacity: 0.5"/>
     <use xlink:href="#mc54aa768b4" x="92.131438" y="274.277637" style="fill: #1f77b4; fill-opacity: 0.5; stroke: #1f77b4; stroke-opacity: 0.5"/>
     <use xlink:href="#mc54aa768b4" x="87.40919" y="255.406056" style="fill: #1f77b4; fill-opacity: 0.5; stroke: #1f77b4; stroke-opacity: 0.5"/>
     <use xlink:href="#mc54aa768b4" x="90.950876" y="273.412133" style="fill: #1f77b4; fill-opacity: 0.5; stroke: #1f77b4; stroke-opacity: 0.5"/>
     <use xlink:href="#mc54aa768b4" x="87.999471" y="275.480023" style="fill: #1f77b4; fill-opacity: 0.5; stroke: #1f77b4; stroke-opacity: 0.5"/>
     <use xlink:href="#mc54aa768b4" x="95.673124" y="272.518831" style="fill: #1f77b4; fill-opacity: 0.5; stroke: #1f77b4; stroke-opacity: 0.5"/>
     <use xlink:href="#mc54aa768b4" x="92.721719" y="272.443686" style="fill: #1f77b4; fill-opacity: 0.5; stroke: #1f77b4; stroke-opacity: 0.5"/>
     <use xlink:href="#mc54aa768b4" x="85.048066" y="271.405277" style="fill: #1f77b4; fill-opacity: 0.5; stroke: #1f77b4; stroke-opacity: 0.5"/>
     <use xlink:href="#mc54aa768b4" x="91.541157" y="276.68435" style="fill: #1f77b4; fill-opacity: 0.5; stroke: #1f77b4; stroke-opacity: 0.5"/>
     <use xlink:href="#mc54aa768b4" x="89.180033" y="275.162617" style="fill: #1f77b4; fill-opacity: 0.5; stroke: #1f77b4; stroke-opacity: 0.5"/>
     <use xlink:href="#mc54aa768b4" x="86.228628" y="270.544895" style="fill: #1f77b4; fill-opacity: 0.5; stroke: #1f77b4; stroke-opacity: 0.5"/>
     <use xlink:href="#mc54aa768b4" x="100.985653" y="207.058608" style="fill: #1f77b4; fill-opacity: 0.5; stroke: #1f77b4; stroke-opacity: 0.5"/>
     <use xlink:href="#mc54aa768b4" x="86.818909" y="269.756955" style="fill: #1f77b4; fill-opacity: 0.5; stroke: #1f77b4; stroke-opacity: 0.5"/>
     <use xlink:href="#mc54aa768b4" x="90.360595" y="275.014555" style="fill: #1f77b4; fill-opacity: 0.5; stroke: #1f77b4; stroke-opacity: 0.5"/>
     <use xlink:href="#mc54aa768b4" x="89.180033" y="276.06" style="fill: #1f77b4; fill-opacity: 0.5; stroke: #1f77b4; stroke-opacity: 0.5"/>
     <use xlink:href="#mc54aa768b4" x="93.902281" y="274.732419" style="fill: #1f77b4; fill-opacity: 0.5; stroke: #1f77b4; stroke-opacity: 0.5"/>
     <use xlink:href="#mc54aa768b4" x="91.541157" y="277.15845" style="fill: #1f77b4; fill-opacity: 0.5; stroke: #1f77b4; stroke-opacity: 0.5"/>
     <use xlink:href="#mc54aa768b4" x="87.40919" y="277.791378" style="fill: #1f77b4; fill-opacity: 0.5; stroke: #1f77b4; stroke-opacity: 0.5"/>
     <use xlink:href="#mc54aa768b4" x="89.180033" y="255.93234" style="fill: #1f77b4; fill-opacity: 0.5; stroke: #1f77b4; stroke-opacity: 0.5"/>
     <use xlink:href="#mc54aa768b4" x="100.395372" y="277.434818" style="fill: #1f77b4; fill-opacity: 0.5; stroke: #1f77b4; stroke-opacity: 0.5"/>
     <use xlink:href="#mc54aa768b4" x="85.638347" y="277.092805" style="fill: #1f77b4; fill-opacity: 0.5; stroke: #1f77b4; stroke-opacity: 0.5"/>
     <use xlink:href="#mc54aa768b4" x="76.193851" y="271.716133" style="fill: #1f77b4; fill-opacity: 0.5; stroke: #1f77b4; stroke-opacity: 0.5"/>
     <use xlink:href="#mc54aa768b4" x="90.360595" y="277.62406" style="fill: #1f77b4; fill-opacity: 0.5; stroke: #1f77b4; stroke-opacity: 0.5"/>
     <use xlink:href="#mc54aa768b4" x="84.457785" y="253.858424" style="fill: #1f77b4; fill-opacity: 0.5; stroke: #1f77b4; stroke-opacity: 0.5"/>
     <use xlink:href="#mc54aa768b4" x="82.686942" y="250.382139" style="fill: #1f77b4; fill-opacity: 0.5; stroke: #1f77b4; stroke-opacity: 0.5"/>
     <use xlink:href="#mc54aa768b4" x="85.048066" y="271.886683" style="fill: #1f77b4; fill-opacity: 0.5; stroke: #1f77b4; stroke-opacity: 0.5"/>
     <use xlink:href="#mc54aa768b4" x="90.360595" y="270.593823" style="fill: #1f77b4; fill-opacity: 0.5; stroke: #1f77b4; stroke-opacity: 0.5"/>
     <use xlink:href="#mc54aa768b4" x="80.916099" y="277.864111" style="fill: #1f77b4; fill-opacity: 0.5; stroke: #1f77b4; stroke-opacity: 0.5"/>
     <use xlink:href="#mc54aa768b4" x="102.756496" y="275.06012" style="fill: #1f77b4; fill-opacity: 0.5; stroke: #1f77b4; stroke-opacity: 0.5"/>
     <use xlink:href="#mc54aa768b4" x="97.443967" y="269.786057" style="fill: #1f77b4; fill-opacity: 0.5; stroke: #1f77b4; stroke-opacity: 0.5"/>
     <use xlink:href="#mc54aa768b4" x="129.909421" y="276.789723" style="fill: #1f77b4; fill-opacity: 0.5; stroke: #1f77b4; stroke-opacity: 0.5"/>
     <use xlink:href="#mc54aa768b4" x="90.360595" y="255.564161" style="fill: #1f77b4; fill-opacity: 0.5; stroke: #1f77b4; stroke-opacity: 0.5"/>
     <use xlink:href="#mc54aa768b4" x="92.721719" y="275.569765" style="fill: #1f77b4; fill-opacity: 0.5; stroke: #1f77b4; stroke-opacity: 0.5"/>
     <use xlink:href="#mc54aa768b4" x="99.805091" y="274.532924" style="fill: #1f77b4; fill-opacity: 0.5; stroke: #1f77b4; stroke-opacity: 0.5"/>
     <use xlink:href="#mc54aa768b4" x="115.152397" y="269.754884" style="fill: #1f77b4; fill-opacity: 0.5; stroke: #1f77b4; stroke-opacity: 0.5"/>
     <use xlink:href="#mc54aa768b4" x="91.541157" y="275.807701" style="fill: #1f77b4; fill-opacity: 0.5; stroke: #1f77b4; stroke-opacity: 0.5"/>
     <use xlink:href="#mc54aa768b4" x="87.40919" y="272.554621" style="fill: #1f77b4; fill-opacity: 0.5; stroke: #1f77b4; stroke-opacity: 0.5"/>
     <use xlink:href="#mc54aa768b4" x="93.312" y="271.072138" style="fill: #1f77b4; fill-opacity: 0.5; stroke: #1f77b4; stroke-opacity: 0.5"/>
     <use xlink:href="#mc54aa768b4" x="82.686942" y="249.442842" style="fill: #1f77b4; fill-opacity: 0.5; stroke: #1f77b4; stroke-opacity: 0.5"/>
     <use xlink:href="#mc54aa768b4" x="88.589752" y="273.105536" style="fill: #1f77b4; fill-opacity: 0.5; stroke: #1f77b4; stroke-opacity: 0.5"/>
     <use xlink:href="#mc54aa768b4" x="102.166215" y="277.402826" style="fill: #1f77b4; fill-opacity: 0.5; stroke: #1f77b4; stroke-opacity: 0.5"/>
     <use xlink:href="#mc54aa768b4" x="86.818909" y="275.846181" style="fill: #1f77b4; fill-opacity: 0.5; stroke: #1f77b4; stroke-opacity: 0.5"/>
     <use xlink:href="#mc54aa768b4" x="88.589752" y="269.47303" style="fill: #1f77b4; fill-opacity: 0.5; stroke: #1f77b4; stroke-opacity: 0.5"/>
     <use xlink:href="#mc54aa768b4" x="396.126149" y="273.209724" style="fill: #1f77b4; fill-opacity: 0.5; stroke: #1f77b4; stroke-opacity: 0.5"/>
     <use xlink:href="#mc54aa768b4" x="92.721719" y="274.82962" style="fill: #1f77b4; fill-opacity: 0.5; stroke: #1f77b4; stroke-opacity: 0.5"/>
     <use xlink:href="#mc54aa768b4" x="154.110942" y="272.218206" style="fill: #1f77b4; fill-opacity: 0.5; stroke: #1f77b4; stroke-opacity: 0.5"/>
     <use xlink:href="#mc54aa768b4" x="95.673124" y="277.380918" style="fill: #1f77b4; fill-opacity: 0.5; stroke: #1f77b4; stroke-opacity: 0.5"/>
     <use xlink:href="#mc54aa768b4" x="89.770314" y="250.394445" style="fill: #1f77b4; fill-opacity: 0.5; stroke: #1f77b4; stroke-opacity: 0.5"/>
     <use xlink:href="#mc54aa768b4" x="80.916099" y="270.120344" style="fill: #1f77b4; fill-opacity: 0.5; stroke: #1f77b4; stroke-opacity: 0.5"/>
     <use xlink:href="#mc54aa768b4" x="89.770314" y="271.998604" style="fill: #1f77b4; fill-opacity: 0.5; stroke: #1f77b4; stroke-opacity: 0.5"/>
     <use xlink:href="#mc54aa768b4" x="78.554975" y="140.201" style="fill: #1f77b4; fill-opacity: 0.5; stroke: #1f77b4; stroke-opacity: 0.5"/>
     <use xlink:href="#mc54aa768b4" x="83.867504" y="275.210495" style="fill: #1f77b4; fill-opacity: 0.5; stroke: #1f77b4; stroke-opacity: 0.5"/>
     <use xlink:href="#mc54aa768b4" x="79.145256" y="269.90963" style="fill: #1f77b4; fill-opacity: 0.5; stroke: #1f77b4; stroke-opacity: 0.5"/>
     <use xlink:href="#mc54aa768b4" x="88.589752" y="274.472591" style="fill: #1f77b4; fill-opacity: 0.5; stroke: #1f77b4; stroke-opacity: 0.5"/>
     <use xlink:href="#mc54aa768b4" x="85.638347" y="276.673696" style="fill: #1f77b4; fill-opacity: 0.5; stroke: #1f77b4; stroke-opacity: 0.5"/>
     <use xlink:href="#mc54aa768b4" x="384.91081" y="270.250492" style="fill: #1f77b4; fill-opacity: 0.5; stroke: #1f77b4; stroke-opacity: 0.5"/>
     <use xlink:href="#mc54aa768b4" x="93.312" y="276.706151" style="fill: #1f77b4; fill-opacity: 0.5; stroke: #1f77b4; stroke-opacity: 0.5"/>
     <use xlink:href="#mc54aa768b4" x="81.50638" y="277.160015" style="fill: #1f77b4; fill-opacity: 0.5; stroke: #1f77b4; stroke-opacity: 0.5"/>
     <use xlink:href="#mc54aa768b4" x="85.638347" y="274.958302" style="fill: #1f77b4; fill-opacity: 0.5; stroke: #1f77b4; stroke-opacity: 0.5"/>
     <use xlink:href="#mc54aa768b4" x="84.457785" y="274.556722" style="fill: #1f77b4; fill-opacity: 0.5; stroke: #1f77b4; stroke-opacity: 0.5"/>
     <use xlink:href="#mc54aa768b4" x="93.902281" y="275.848754" style="fill: #1f77b4; fill-opacity: 0.5; stroke: #1f77b4; stroke-opacity: 0.5"/>
     <use xlink:href="#mc54aa768b4" x="110.430149" y="276.594601" style="fill: #1f77b4; fill-opacity: 0.5; stroke: #1f77b4; stroke-opacity: 0.5"/>
     <use xlink:href="#mc54aa768b4" x="281.021355" y="123.370442" style="fill: #1f77b4; fill-opacity: 0.5; stroke: #1f77b4; stroke-opacity: 0.5"/>
     <use xlink:href="#mc54aa768b4" x="101.575934" y="275.396891" style="fill: #1f77b4; fill-opacity: 0.5; stroke: #1f77b4; stroke-opacity: 0.5"/>
     <use xlink:href="#mc54aa768b4" x="398.487273" y="270.988472" style="fill: #1f77b4; fill-opacity: 0.5; stroke: #1f77b4; stroke-opacity: 0.5"/>
     <use xlink:href="#mc54aa768b4" x="99.805091" y="272.332553" style="fill: #1f77b4; fill-opacity: 0.5; stroke: #1f77b4; stroke-opacity: 0.5"/>
     <use xlink:href="#mc54aa768b4" x="90.360595" y="161.26277" style="fill: #1f77b4; fill-opacity: 0.5; stroke: #1f77b4; stroke-opacity: 0.5"/>
     <use xlink:href="#mc54aa768b4" x="95.673124" y="276.904523" style="fill: #1f77b4; fill-opacity: 0.5; stroke: #1f77b4; stroke-opacity: 0.5"/>
     <use xlink:href="#mc54aa768b4" x="93.902281" y="162.729084" style="fill: #1f77b4; fill-opacity: 0.5; stroke: #1f77b4; stroke-opacity: 0.5"/>
     <use xlink:href="#mc54aa768b4" x="85.048066" y="270.658316" style="fill: #1f77b4; fill-opacity: 0.5; stroke: #1f77b4; stroke-opacity: 0.5"/>
     <use xlink:href="#mc54aa768b4" x="81.50638" y="254.871783" style="fill: #1f77b4; fill-opacity: 0.5; stroke: #1f77b4; stroke-opacity: 0.5"/>
     <use xlink:href="#mc54aa768b4" x="95.082843" y="276.096339" style="fill: #1f77b4; fill-opacity: 0.5; stroke: #1f77b4; stroke-opacity: 0.5"/>
     <use xlink:href="#mc54aa768b4" x="89.180033" y="271.1759" style="fill: #1f77b4; fill-opacity: 0.5; stroke: #1f77b4; stroke-opacity: 0.5"/>
     <use xlink:href="#mc54aa768b4" x="85.638347" y="271.919168" style="fill: #1f77b4; fill-opacity: 0.5; stroke: #1f77b4; stroke-opacity: 0.5"/>
     <use xlink:href="#mc54aa768b4" x="86.818909" y="274.870797" style="fill: #1f77b4; fill-opacity: 0.5; stroke: #1f77b4; stroke-opacity: 0.5"/>
     <use xlink:href="#mc54aa768b4" x="113.381554" y="271.976959" style="fill: #1f77b4; fill-opacity: 0.5; stroke: #1f77b4; stroke-opacity: 0.5"/>
     <use xlink:href="#mc54aa768b4" x="99.805091" y="252.11527" style="fill: #1f77b4; fill-opacity: 0.5; stroke: #1f77b4; stroke-opacity: 0.5"/>
     <use xlink:href="#mc54aa768b4" x="87.40919" y="53.568" style="fill: #1f77b4; fill-opacity: 0.5; stroke: #1f77b4; stroke-opacity: 0.5"/>
     <use xlink:href="#mc54aa768b4" x="85.048066" y="253.342102" style="fill: #1f77b4; fill-opacity: 0.5; stroke: #1f77b4; stroke-opacity: 0.5"/>
     <use xlink:href="#mc54aa768b4" x="78.554975" y="167.598845" style="fill: #1f77b4; fill-opacity: 0.5; stroke: #1f77b4; stroke-opacity: 0.5"/>
     <use xlink:href="#mc54aa768b4" x="99.805091" y="272.65177" style="fill: #1f77b4; fill-opacity: 0.5; stroke: #1f77b4; stroke-opacity: 0.5"/>
     <use xlink:href="#mc54aa768b4" x="106.888463" y="232.677379" style="fill: #1f77b4; fill-opacity: 0.5; stroke: #1f77b4; stroke-opacity: 0.5"/>
     <use xlink:href="#mc54aa768b4" x="85.048066" y="250.72864" style="fill: #1f77b4; fill-opacity: 0.5; stroke: #1f77b4; stroke-opacity: 0.5"/>
     <use xlink:href="#mc54aa768b4" x="78.554975" y="271.329085" style="fill: #1f77b4; fill-opacity: 0.5; stroke: #1f77b4; stroke-opacity: 0.5"/>
     <use xlink:href="#mc54aa768b4" x="84.457785" y="273.19253" style="fill: #1f77b4; fill-opacity: 0.5; stroke: #1f77b4; stroke-opacity: 0.5"/>
     <use xlink:href="#mc54aa768b4" x="94.492562" y="275.058523" style="fill: #1f77b4; fill-opacity: 0.5; stroke: #1f77b4; stroke-opacity: 0.5"/>
     <use xlink:href="#mc54aa768b4" x="93.902281" y="125.250087" style="fill: #1f77b4; fill-opacity: 0.5; stroke: #1f77b4; stroke-opacity: 0.5"/>
     <use xlink:href="#mc54aa768b4" x="80.325818" y="207.986453" style="fill: #1f77b4; fill-opacity: 0.5; stroke: #1f77b4; stroke-opacity: 0.5"/>
     <use xlink:href="#mc54aa768b4" x="98.624529" y="204.985611" style="fill: #1f77b4; fill-opacity: 0.5; stroke: #1f77b4; stroke-opacity: 0.5"/>
     <use xlink:href="#mc54aa768b4" x="91.541157" y="274.099487" style="fill: #1f77b4; fill-opacity: 0.5; stroke: #1f77b4; stroke-opacity: 0.5"/>
     <use xlink:href="#mc54aa768b4" x="98.034248" y="249.044345" style="fill: #1f77b4; fill-opacity: 0.5; stroke: #1f77b4; stroke-opacity: 0.5"/>
     <use xlink:href="#mc54aa768b4" x="90.360595" y="271.722654" style="fill: #1f77b4; fill-opacity: 0.5; stroke: #1f77b4; stroke-opacity: 0.5"/>
     <use xlink:href="#mc54aa768b4" x="83.277223" y="146.557568" style="fill: #1f77b4; fill-opacity: 0.5; stroke: #1f77b4; stroke-opacity: 0.5"/>
     <use xlink:href="#mc54aa768b4" x="90.360595" y="270.732363" style="fill: #1f77b4; fill-opacity: 0.5; stroke: #1f77b4; stroke-opacity: 0.5"/>
     <use xlink:href="#mc54aa768b4" x="215.500165" y="229.863554" style="fill: #1f77b4; fill-opacity: 0.5; stroke: #1f77b4; stroke-opacity: 0.5"/>
     <use xlink:href="#mc54aa768b4" x="86.228628" y="251.182404" style="fill: #1f77b4; fill-opacity: 0.5; stroke: #1f77b4; stroke-opacity: 0.5"/>
     <use xlink:href="#mc54aa768b4" x="83.277223" y="250.800853" style="fill: #1f77b4; fill-opacity: 0.5; stroke: #1f77b4; stroke-opacity: 0.5"/>
     <use xlink:href="#mc54aa768b4" x="82.686942" y="249.589247" style="fill: #1f77b4; fill-opacity: 0.5; stroke: #1f77b4; stroke-opacity: 0.5"/>
     <use xlink:href="#mc54aa768b4" x="91.541157" y="183.328617" style="fill: #1f77b4; fill-opacity: 0.5; stroke: #1f77b4; stroke-opacity: 0.5"/>
     <use xlink:href="#mc54aa768b4" x="73.832727" y="79.550567" style="fill: #1f77b4; fill-opacity: 0.5; stroke: #1f77b4; stroke-opacity: 0.5"/>
     <use xlink:href="#mc54aa768b4" x="138.173355" y="99.973344" style="fill: #1f77b4; fill-opacity: 0.5; stroke: #1f77b4; stroke-opacity: 0.5"/>
     <use xlink:href="#mc54aa768b4" x="144.666446" y="273.143205" style="fill: #1f77b4; fill-opacity: 0.5; stroke: #1f77b4; stroke-opacity: 0.5"/>
     <use xlink:href="#mc54aa768b4" x="169.458248" y="274.94011" style="fill: #1f77b4; fill-opacity: 0.5; stroke: #1f77b4; stroke-opacity: 0.5"/>
     <use xlink:href="#mc54aa768b4" x="165.326281" y="277.266969" style="fill: #1f77b4; fill-opacity: 0.5; stroke: #1f77b4; stroke-opacity: 0.5"/>
     <use xlink:href="#mc54aa768b4" x="148.798413" y="273.178361" style="fill: #1f77b4; fill-opacity: 0.5; stroke: #1f77b4; stroke-opacity: 0.5"/>
     <use xlink:href="#mc54aa768b4" x="140.534479" y="273.406192" style="fill: #1f77b4; fill-opacity: 0.5; stroke: #1f77b4; stroke-opacity: 0.5"/>
     <use xlink:href="#mc54aa768b4" x="144.076165" y="269.629813" style="fill: #1f77b4; fill-opacity: 0.5; stroke: #1f77b4; stroke-opacity: 0.5"/>
     <use xlink:href="#mc54aa768b4" x="143.485884" y="270.721631" style="fill: #1f77b4; fill-opacity: 0.5; stroke: #1f77b4; stroke-opacity: 0.5"/>
     <use xlink:href="#mc54aa768b4" x="143.485884" y="273.364188" style="fill: #1f77b4; fill-opacity: 0.5; stroke: #1f77b4; stroke-opacity: 0.5"/>
     <use xlink:href="#mc54aa768b4" x="144.666446" y="183.842041" style="fill: #1f77b4; fill-opacity: 0.5; stroke: #1f77b4; stroke-opacity: 0.5"/>
     <use xlink:href="#mc54aa768b4" x="145.256727" y="273.184885" style="fill: #1f77b4; fill-opacity: 0.5; stroke: #1f77b4; stroke-opacity: 0.5"/>
     <use xlink:href="#mc54aa768b4" x="149.388694" y="276.41123" style="fill: #1f77b4; fill-opacity: 0.5; stroke: #1f77b4; stroke-opacity: 0.5"/>
     <use xlink:href="#mc54aa768b4" x="134.041388" y="249.721336" style="fill: #1f77b4; fill-opacity: 0.5; stroke: #1f77b4; stroke-opacity: 0.5"/>
     <use xlink:href="#mc54aa768b4" x="126.367736" y="269.692418" style="fill: #1f77b4; fill-opacity: 0.5; stroke: #1f77b4; stroke-opacity: 0.5"/>
     <use xlink:href="#mc54aa768b4" x="135.812231" y="232.117079" style="fill: #1f77b4; fill-opacity: 0.5; stroke: #1f77b4; stroke-opacity: 0.5"/>
     <use xlink:href="#mc54aa768b4" x="128.138579" y="272.068527" style="fill: #1f77b4; fill-opacity: 0.5; stroke: #1f77b4; stroke-opacity: 0.5"/>
     <use xlink:href="#mc54aa768b4" x="206.64595" y="269.747492" style="fill: #1f77b4; fill-opacity: 0.5; stroke: #1f77b4; stroke-opacity: 0.5"/>
     <use xlink:href="#mc54aa768b4" x="179.493025" y="273.125515" style="fill: #1f77b4; fill-opacity: 0.5; stroke: #1f77b4; stroke-opacity: 0.5"/>
     <use xlink:href="#mc54aa768b4" x="250.917025" y="270.714035" style="fill: #1f77b4; fill-opacity: 0.5; stroke: #1f77b4; stroke-opacity: 0.5"/>
    </g>
   </g>
   <g id="PolyCollection_1">
    <defs>
     <path id="m7aa72d6954" d="M 73.832727 -100.974165 
L 73.832727 -82.227627 
L 77.112066 -82.512201 
L 80.391405 -82.5808 
L 83.670744 -82.729523 
L 86.950083 -82.847707 
L 90.229421 -82.834559 
L 93.50876 -83.179913 
L 96.788099 -83.257245 
L 100.067438 -83.271811 
L 103.346777 -83.25184 
L 106.626116 -83.354766 
L 109.905455 -83.421999 
L 113.184793 -83.388037 
L 116.464132 -83.209572 
L 119.743471 -83.045418 
L 123.02281 -82.881806 
L 126.302149 -82.872745 
L 129.581488 -82.645295 
L 132.860826 -82.567679 
L 136.140165 -82.388332 
L 139.419504 -82.250775 
L 142.698843 -81.971609 
L 145.978182 -81.76493 
L 149.257521 -81.556196 
L 152.53686 -81.24878 
L 155.816198 -80.997047 
L 159.095537 -80.614206 
L 162.374876 -80.185505 
L 165.654215 -79.929726 
L 168.933554 -79.2743 
L 172.212893 -78.995468 
L 175.492231 -78.719685 
L 178.77157 -78.52412 
L 182.050909 -78.164968 
L 185.330248 -77.88485 
L 188.609587 -77.605418 
L 191.888926 -77.331061 
L 195.168264 -77.056704 
L 198.447603 -76.810576 
L 201.726942 -76.498111 
L 205.006281 -76.221435 
L 208.28562 -75.814611 
L 211.564959 -75.349012 
L 214.844298 -75.070432 
L 218.123636 -74.659972 
L 221.402975 -74.188952 
L 224.682314 -73.717977 
L 227.961653 -73.164878 
L 231.240992 -72.55349 
L 234.520331 -71.999468 
L 237.799669 -71.558052 
L 241.079008 -71.18748 
L 244.358347 -70.816907 
L 247.637686 -70.444104 
L 250.917025 -70.021176 
L 254.196364 -69.714506 
L 257.475702 -69.344153 
L 260.755041 -68.9738 
L 264.03438 -68.604367 
L 267.313719 -68.235747 
L 270.593058 -67.867128 
L 273.872397 -67.485449 
L 277.151736 -67.055248 
L 280.431074 -66.625046 
L 283.710413 -66.194844 
L 286.989752 -65.764643 
L 290.269091 -65.334441 
L 293.54843 -64.889274 
L 296.827769 -64.383015 
L 300.107107 -63.876757 
L 303.386446 -63.370499 
L 306.665785 -62.958273 
L 309.945124 -62.556754 
L 313.224463 -62.117361 
L 316.503802 -61.644127 
L 319.78314 -61.289242 
L 323.062479 -60.960003 
L 326.341818 -60.559259 
L 329.621157 -60.158515 
L 332.900496 -59.728949 
L 336.179835 -59.296766 
L 339.459174 -58.864584 
L 342.738512 -58.432401 
L 346.017851 -58.000219 
L 349.29719 -57.568036 
L 352.576529 -57.135854 
L 355.855868 -56.703672 
L 359.135207 -56.271489 
L 362.414545 -55.839307 
L 365.693884 -55.407124 
L 368.973223 -54.974942 
L 372.252562 -54.503888 
L 375.531901 -53.954902 
L 378.81124 -53.405916 
L 382.090579 -52.85693 
L 385.369917 -52.307944 
L 388.649256 -51.758958 
L 391.928595 -51.209972 
L 395.207934 -50.660986 
L 398.487273 -50.112 
L 398.487273 -147.862731 
L 398.487273 -147.862731 
L 395.207934 -147.237277 
L 391.928595 -146.611824 
L 388.649256 -145.986371 
L 385.369917 -145.360918 
L 382.090579 -144.735465 
L 378.81124 -144.110011 
L 375.531901 -143.484558 
L 372.252562 -142.859105 
L 368.973223 -142.233652 
L 365.693884 -141.608199 
L 362.414545 -140.982745 
L 359.135207 -140.357292 
L 355.855868 -139.731839 
L 352.576529 -139.106386 
L 349.29719 -138.480933 
L 346.017851 -137.855479 
L 342.738512 -137.230026 
L 339.459174 -136.604573 
L 336.179835 -135.97912 
L 332.900496 -135.353667 
L 329.621157 -134.728213 
L 326.341818 -134.10276 
L 323.062479 -133.477307 
L 319.78314 -132.851854 
L 316.503802 -132.226401 
L 313.224463 -131.600947 
L 309.945124 -130.975494 
L 306.665785 -130.350041 
L 303.386446 -129.724588 
L 300.107107 -129.099135 
L 296.827769 -128.461759 
L 293.54843 -127.809855 
L 290.269091 -127.15795 
L 286.989752 -126.506045 
L 283.710413 -125.85414 
L 280.431074 -125.279362 
L 277.151736 -124.725871 
L 273.872397 -124.103349 
L 270.593058 -123.480827 
L 267.313719 -122.858306 
L 264.03438 -122.235784 
L 260.755041 -121.613153 
L 257.475702 -120.985137 
L 254.196364 -120.357121 
L 250.917025 -119.794249 
L 247.637686 -119.106093 
L 244.358347 -118.483119 
L 241.079008 -117.860146 
L 237.799669 -117.237173 
L 234.520331 -116.668613 
L 231.240992 -116.258854 
L 227.961653 -115.847627 
L 224.682314 -115.224947 
L 221.402975 -114.586767 
L 218.123636 -113.944956 
L 214.844298 -113.301168 
L 211.564959 -112.661791 
L 208.28562 -112.024946 
L 205.006281 -111.388101 
L 201.726942 -110.751256 
L 198.447603 -110.114411 
L 195.168264 -109.472379 
L 191.888926 -108.831248 
L 188.609587 -108.459824 
L 185.330248 -107.873584 
L 182.050909 -107.149251 
L 178.77157 -106.498842 
L 175.492231 -105.993439 
L 172.212893 -105.826257 
L 168.933554 -105.657181 
L 165.654215 -105.407824 
L 162.374876 -104.679878 
L 159.095537 -103.855445 
L 155.816198 -103.410065 
L 152.53686 -102.88792 
L 149.257521 -102.06744 
L 145.978182 -101.441377 
L 142.698843 -100.936395 
L 139.419504 -100.748306 
L 136.140165 -100.471222 
L 132.860826 -99.976881 
L 129.581488 -99.722049 
L 126.302149 -99.402739 
L 123.02281 -99.232883 
L 119.743471 -99.073728 
L 116.464132 -98.885685 
L 113.184793 -98.721528 
L 109.905455 -98.707871 
L 106.626116 -98.749421 
L 103.346777 -98.815183 
L 100.067438 -98.933093 
L 96.788099 -98.989851 
L 93.50876 -99.223485 
L 90.229421 -99.519066 
L 86.950083 -99.904456 
L 83.670744 -100.10349 
L 80.391405 -100.344918 
L 77.112066 -100.763678 
L 73.832727 -100.974165 
z
" style="stroke: #ffffff; stroke-opacity: 0.15; stroke-width: 0.8"/>
    </defs>
    <g clip-path="url(#p2ea4039a2d)">
     <use xlink:href="#m7aa72d6954" x="0" y="345.6" style="fill: #1f77b4; fill-opacity: 0.15; stroke: #ffffff; stroke-opacity: 0.15; stroke-width: 0.8"/>
    </g>
   </g>
   <g id="line2d_19">
    <path d="M 73.832727 254.383566 
L 77.112066 254.422205 
L 80.391405 254.460844 
L 83.670744 254.499483 
L 86.950083 254.538122 
L 90.229421 254.576761 
L 93.50876 254.6154 
L 96.788099 254.654039 
L 100.067438 254.692677 
L 103.346777 254.731316 
L 106.626116 254.769955 
L 109.905455 254.808594 
L 113.184793 254.847233 
L 116.464132 254.885872 
L 119.743471 254.924511 
L 123.02281 254.963149 
L 126.302149 255.001788 
L 129.581488 255.040427 
L 132.860826 255.079066 
L 136.140165 255.117705 
L 139.419504 255.156344 
L 142.698843 255.194983 
L 145.978182 255.233622 
L 149.257521 255.27226 
L 152.53686 255.310899 
L 155.816198 255.349538 
L 159.095537 255.388177 
L 162.374876 255.426816 
L 165.654215 255.465455 
L 168.933554 255.504094 
L 172.212893 255.542732 
L 175.492231 255.581371 
L 178.77157 255.62001 
L 182.050909 255.658649 
L 185.330248 255.697288 
L 188.609587 255.735927 
L 191.888926 255.774566 
L 195.168264 255.813205 
L 198.447603 255.851843 
L 201.726942 255.890482 
L 205.006281 255.929121 
L 208.28562 255.96776 
L 211.564959 256.006399 
L 214.844298 256.045038 
L 218.123636 256.083677 
L 221.402975 256.122315 
L 224.682314 256.160954 
L 227.961653 256.199593 
L 231.240992 256.238232 
L 234.520331 256.276871 
L 237.799669 256.31551 
L 241.079008 256.354149 
L 244.358347 256.392788 
L 247.637686 256.431426 
L 250.917025 256.470065 
L 254.196364 256.508704 
L 257.475702 256.547343 
L 260.755041 256.585982 
L 264.03438 256.624621 
L 267.313719 256.66326 
L 270.593058 256.701898 
L 273.872397 256.740537 
L 277.151736 256.779176 
L 280.431074 256.817815 
L 283.710413 256.856454 
L 286.989752 256.895093 
L 290.269091 256.933732 
L 293.54843 256.972371 
L 296.827769 257.011009 
L 300.107107 257.049648 
L 303.386446 257.088287 
L 306.665785 257.126926 
L 309.945124 257.165565 
L 313.224463 257.204204 
L 316.503802 257.242843 
L 319.78314 257.281482 
L 323.062479 257.32012 
L 326.341818 257.358759 
L 329.621157 257.397398 
L 332.900496 257.436037 
L 336.179835 257.474676 
L 339.459174 257.513315 
L 342.738512 257.551954 
L 346.017851 257.590592 
L 349.29719 257.629231 
L 352.576529 257.66787 
L 355.855868 257.706509 
L 359.135207 257.745148 
L 362.414545 257.783787 
L 365.693884 257.822426 
L 368.973223 257.861065 
L 372.252562 257.899703 
L 375.531901 257.938342 
L 378.81124 257.976981 
L 382.090579 258.01562 
L 385.369917 258.054259 
L 388.649256 258.092898 
L 391.928595 258.131537 
L 395.207934 258.170175 
L 398.487273 258.208814 
" clip-path="url(#p2ea4039a2d)" style="fill: none; stroke: #1f77b4; stroke-width: 1.8; stroke-linecap: round"/>
   </g>
   <g id="patch_3">
    <path d="M 57.6 307.584 
L 57.6 41.472 
" style="fill: none; stroke: #cccccc; stroke-linejoin: miter; stroke-linecap: square"/>
   </g>
   <g id="patch_4">
    <path d="M 414.72 307.584 
L 414.72 41.472 
" style="fill: none; stroke: #cccccc; stroke-linejoin: miter; stroke-linecap: square"/>
   </g>
   <g id="patch_5">
    <path d="M 57.6 307.584 
L 414.72 307.584 
" style="fill: none; stroke: #cccccc; stroke-linejoin: miter; stroke-linecap: square"/>
   </g>
   <g id="patch_6">
    <path d="M 57.6 41.472 
L 414.72 41.472 
" style="fill: none; stroke: #cccccc; stroke-linejoin: miter; stroke-linecap: square"/>
   </g>
   <g id="text_21">
    <!-- rho = -0.15 -->
    <g style="fill: #262626" transform="translate(236.16 181.701437) scale(0.1 -0.1)">
     <defs>
      <path id="Helvetica-6f" d="M 1741 363 
Q 2300 363 2508 786 
Q 2716 1209 2716 1728 
Q 2716 2197 2566 2491 
Q 2328 2953 1747 2953 
Q 1231 2953 997 2559 
Q 763 2166 763 1609 
Q 763 1075 997 719 
Q 1231 363 1741 363 
z
M 1763 3444 
Q 2409 3444 2856 3012 
Q 3303 2581 3303 1744 
Q 3303 934 2909 406 
Q 2516 -122 1688 -122 
Q 997 -122 590 345 
Q 184 813 184 1600 
Q 184 2444 612 2944 
Q 1041 3444 1763 3444 
z
M 1744 3428 
L 1744 3428 
z
" transform="scale(0.015625)"/>
      <path id="Helvetica-3d" d="M 3547 2569 
L 3547 2044 
L 288 2044 
L 288 2569 
L 3547 2569 
z
M 3547 1228 
L 3547 694 
L 288 694 
L 288 1228 
L 3547 1228 
z
" transform="scale(0.015625)"/>
      <path id="Helvetica-2e" d="M 547 681 
L 1200 681 
L 1200 0 
L 547 0 
L 547 681 
z
" transform="scale(0.015625)"/>
     </defs>
     <use xlink:href="#Helvetica-72"/>
     <use xlink:href="#Helvetica-68" x="33.300781"/>
     <use xlink:href="#Helvetica-6f" x="88.916016"/>
     <use xlink:href="#Helvetica-20" x="144.53125"/>
     <use xlink:href="#Helvetica-3d" x="172.314453"/>
     <use xlink:href="#Helvetica-20" x="230.712891"/>
     <use xlink:href="#Helvetica-2d" x="258.496094"/>
     <use xlink:href="#Helvetica-30" x="291.796875"/>
     <use xlink:href="#Helvetica-2e" x="347.412109"/>
     <use xlink:href="#Helvetica-31" x="375.195312"/>
     <use xlink:href="#Helvetica-35" x="430.810547"/>
    </g>
    <!-- p = 9.83e-02 -->
    <g style="fill: #262626" transform="translate(236.16 192.393937) scale(0.1 -0.1)">
     <defs>
      <path id="Helvetica-70" d="M 1825 378 
Q 2219 378 2480 708 
Q 2741 1038 2741 1694 
Q 2741 2094 2625 2381 
Q 2406 2934 1825 2934 
Q 1241 2934 1025 2350 
Q 909 2038 909 1556 
Q 909 1169 1025 897 
Q 1244 378 1825 378 
z
M 369 3331 
L 916 3331 
L 916 2888 
Q 1084 3116 1284 3241 
Q 1569 3428 1953 3428 
Q 2522 3428 2919 2992 
Q 3316 2556 3316 1747 
Q 3316 653 2744 184 
Q 2381 -113 1900 -113 
Q 1522 -113 1266 53 
Q 1116 147 931 375 
L 931 -1334 
L 369 -1334 
L 369 3331 
z
" transform="scale(0.015625)"/>
     </defs>
     <use xlink:href="#Helvetica-70"/>
     <use xlink:href="#Helvetica-20" x="55.615234"/>
     <use xlink:href="#Helvetica-3d" x="83.398438"/>
     <use xlink:href="#Helvetica-20" x="141.796875"/>
     <use xlink:href="#Helvetica-39" x="169.580078"/>
     <use xlink:href="#Helvetica-2e" x="225.195312"/>
     <use xlink:href="#Helvetica-38" x="252.978516"/>
     <use xlink:href="#Helvetica-33" x="308.59375"/>
     <use xlink:href="#Helvetica-65" x="364.208984"/>
     <use xlink:href="#Helvetica-2d" x="419.824219"/>
     <use xlink:href="#Helvetica-30" x="453.125"/>
     <use xlink:href="#Helvetica-32" x="508.740234"/>
    </g>
   </g>
   <g id="text_22">
    <!-- AF2 LIS (no templates) vs N-term length -->
    <g style="fill: #262626" transform="translate(146.688125 35.472) scale(0.1 -0.1)">
     <defs>
      <path id="Helvetica-41" d="M 2844 1881 
L 2147 3909 
L 1406 1881 
L 2844 1881 
z
M 1822 4591 
L 2525 4591 
L 4191 0 
L 3509 0 
L 3044 1375 
L 1228 1375 
L 731 0 
L 94 0 
L 1822 4591 
z
" transform="scale(0.015625)"/>
      <path id="Helvetica-46" d="M 547 4591 
L 3731 4591 
L 3731 4028 
L 1169 4028 
L 1169 2634 
L 3422 2634 
L 3422 2088 
L 1169 2088 
L 1169 0 
L 547 0 
L 547 4591 
z
" transform="scale(0.015625)"/>
      <path id="Helvetica-4c" d="M 488 4591 
L 1109 4591 
L 1109 547 
L 3434 547 
L 3434 0 
L 488 0 
L 488 4591 
z
" transform="scale(0.015625)"/>
      <path id="Helvetica-49" d="M 628 4591 
L 1256 4591 
L 1256 0 
L 628 0 
L 628 4591 
z
" transform="scale(0.015625)"/>
      <path id="Helvetica-53" d="M 894 1481 
Q 916 1091 1078 847 
Q 1388 391 2169 391 
Q 2519 391 2806 491 
Q 3363 684 3363 1184 
Q 3363 1559 3128 1719 
Q 2891 1875 2384 1991 
L 1763 2131 
Q 1153 2269 900 2434 
Q 463 2722 463 3294 
Q 463 3913 891 4309 
Q 1319 4706 2103 4706 
Q 2825 4706 3329 4357 
Q 3834 4009 3834 3244 
L 3250 3244 
Q 3203 3613 3050 3809 
Q 2766 4169 2084 4169 
Q 1534 4169 1293 3937 
Q 1053 3706 1053 3400 
Q 1053 3063 1334 2906 
Q 1519 2806 2169 2656 
L 2813 2509 
Q 3278 2403 3531 2219 
Q 3969 1897 3969 1284 
Q 3969 522 3414 194 
Q 2859 -134 2125 -134 
Q 1269 -134 784 303 
Q 300 738 309 1481 
L 894 1481 
z
M 2150 4716 
L 2150 4716 
z
" transform="scale(0.015625)"/>
      <path id="Helvetica-28" d="M 1894 4666 
Q 1403 3713 1256 3263 
Q 1034 2578 1034 1681 
Q 1034 775 1288 25 
Q 1444 -438 1903 -1306 
L 1525 -1306 
Q 1069 -594 959 -397 
Q 850 -200 722 138 
Q 547 600 478 1125 
Q 444 1397 444 1644 
Q 444 2569 734 3291 
Q 919 3750 1503 4666 
L 1894 4666 
z
" transform="scale(0.015625)"/>
      <path id="Helvetica-73" d="M 747 1050 
Q 772 769 888 619 
Q 1100 347 1625 347 
Q 1938 347 2175 483 
Q 2413 619 2413 903 
Q 2413 1119 2222 1231 
Q 2100 1300 1741 1391 
L 1294 1503 
Q 866 1609 663 1741 
Q 300 1969 300 2372 
Q 300 2847 642 3140 
Q 984 3434 1563 3434 
Q 2319 3434 2653 2991 
Q 2863 2709 2856 2384 
L 2325 2384 
Q 2309 2575 2191 2731 
Q 1997 2953 1519 2953 
Q 1200 2953 1036 2831 
Q 872 2709 872 2509 
Q 872 2291 1088 2159 
Q 1213 2081 1456 2022 
L 1828 1931 
Q 2434 1784 2641 1647 
Q 2969 1431 2969 969 
Q 2969 522 2630 197 
Q 2291 -128 1597 -128 
Q 850 -128 539 211 
Q 228 550 206 1050 
L 747 1050 
z
M 1578 3428 
L 1578 3428 
z
" transform="scale(0.015625)"/>
      <path id="Helvetica-29" d="M 222 -1306 
Q 719 -338 863 106 
Q 1081 778 1081 1681 
Q 1081 2584 828 3334 
Q 672 3797 213 4666 
L 591 4666 
Q 1072 3897 1173 3717 
Q 1275 3538 1394 3222 
Q 1544 2831 1608 2450 
Q 1672 2069 1672 1716 
Q 1672 791 1378 66 
Q 1194 -400 613 -1306 
L 222 -1306 
z
" transform="scale(0.015625)"/>
      <path id="Helvetica-76" d="M 688 3347 
L 1581 622 
L 2516 3347 
L 3131 3347 
L 1869 0 
L 1269 0 
L 34 3347 
L 688 3347 
z
" transform="scale(0.015625)"/>
     </defs>
     <use xlink:href="#Helvetica-41"/>
     <use xlink:href="#Helvetica-46" x="66.699219"/>
     <use xlink:href="#Helvetica-32" x="127.783203"/>
     <use xlink:href="#Helvetica-20" x="183.398438"/>
     <use xlink:href="#Helvetica-4c" x="211.181641"/>
     <use xlink:href="#Helvetica-49" x="266.796875"/>
     <use xlink:href="#Helvetica-53" x="294.580078"/>
     <use xlink:href="#Helvetica-20" x="361.279297"/>
     <use xlink:href="#Helvetica-28" x="389.0625"/>
     <use xlink:href="#Helvetica-6e" x="422.363281"/>
     <use xlink:href="#Helvetica-6f" x="477.978516"/>
     <use xlink:href="#Helvetica-20" x="533.59375"/>
     <use xlink:href="#Helvetica-74" x="561.376953"/>
     <use xlink:href="#Helvetica-65" x="589.160156"/>
     <use xlink:href="#Helvetica-6d" x="644.775391"/>
     <use xlink:href="#Helvetica-70" x="728.076172"/>
     <use xlink:href="#Helvetica-6c" x="783.691406"/>
     <use xlink:href="#Helvetica-61" x="805.908203"/>
     <use xlink:href="#Helvetica-74" x="861.523438"/>
     <use xlink:href="#Helvetica-65" x="889.306641"/>
     <use xlink:href="#Helvetica-73" x="944.921875"/>
     <use xlink:href="#Helvetica-29" x="994.921875"/>
     <use xlink:href="#Helvetica-20" x="1028.222656"/>
     <use xlink:href="#Helvetica-76" x="1056.005859"/>
     <use xlink:href="#Helvetica-73" x="1106.005859"/>
     <use xlink:href="#Helvetica-20" x="1156.005859"/>
     <use xlink:href="#Helvetica-4e" x="1183.789062"/>
     <use xlink:href="#Helvetica-2d" x="1256.005859"/>
     <use xlink:href="#Helvetica-74" x="1289.306641"/>
     <use xlink:href="#Helvetica-65" x="1317.089844"/>
     <use xlink:href="#Helvetica-72" x="1372.705078"/>
     <use xlink:href="#Helvetica-6d" x="1406.005859"/>
     <use xlink:href="#Helvetica-20" x="1489.306641"/>
     <use xlink:href="#Helvetica-6c" x="1517.089844"/>
     <use xlink:href="#Helvetica-65" x="1539.306641"/>
     <use xlink:href="#Helvetica-6e" x="1594.921875"/>
     <use xlink:href="#Helvetica-67" x="1650.537109"/>
     <use xlink:href="#Helvetica-74" x="1706.152344"/>
     <use xlink:href="#Helvetica-68" x="1733.935547"/>
    </g>
   </g>
  </g>
 </g>
 <defs>
  <clipPath id="p2ea4039a2d">
   <rect x="57.6" y="41.472" width="357.12" height="266.112"/>
  </clipPath>
 </defs>
</svg>
