<?xml version="1.0" encoding="utf-8" standalone="no"?>
<!DOCTYPE svg PUBLIC "-//W3C//DTD SVG 1.1//EN"
  "http://www.w3.org/Graphics/SVG/1.1/DTD/svg11.dtd">
<svg xmlns:xlink="http://www.w3.org/1999/xlink" width="108pt" height="108pt" viewBox="0 0 108 108" xmlns="http://www.w3.org/2000/svg" version="1.1">
 <metadata>
  <rdf:RDF xmlns:dc="http://purl.org/dc/elements/1.1/" xmlns:cc="http://creativecommons.org/ns#" xmlns:rdf="http://www.w3.org/1999/02/22-rdf-syntax-ns#">
   <cc:Work>
    <dc:type rdf:resource="http://purl.org/dc/dcmitype/StillImage"/>
    <dc:date>2025-03-07T14:44:41.617432</dc:date>
    <dc:format>image/svg+xml</dc:format>
    <dc:creator>
     <cc:Agent>
      <dc:title>Matplotlib v3.10.0, https://matplotlib.org/</dc:title>
     </cc:Agent>
    </dc:creator>
   </cc:Work>
  </rdf:RDF>
 </metadata>
 <defs>
  <style type="text/css">*{stroke-linejoin: round; stroke-linecap: butt}</style>
 </defs>
 <g id="figure_1">
  <g id="patch_1">
   <path d="M 0 108 
L 108 108 
L 108 0 
L 0 0 
z
" style="fill: #ffffff"/>
  </g>
  <g id="axes_1">
   <g id="patch_2">
    <path d="M 22.35 87 
L 99.36 87 
L 99.36 20.4 
L 22.35 20.4 
z
" style="fill: #ffffff"/>
   </g>
   <g id="matplotlib.axis_1">
    <g id="xtick_1">
     <g id="line2d_1">
      <path d="M 24.100227 87 
L 24.100227 20.4 
" clip-path="url(#pa3559b8de6)" style="fill: none; stroke: #cccccc; stroke-width: 0.8; stroke-linecap: round"/>
     </g>
     <g id="text_1">
      <!-- 6 -->
      <g style="fill: #262626" transform="translate(21.875852 97.53875) scale(0.08 -0.08)">
       <defs>
        <path id="Helvetica-36" d="M 1872 4494 
Q 2622 4494 2917 4105 
Q 3213 3716 3213 3303 
L 2656 3303 
Q 2606 3569 2497 3719 
Q 2294 4000 1881 4000 
Q 1409 4000 1131 3564 
Q 853 3128 822 2316 
Q 1016 2600 1309 2741 
Q 1578 2866 1909 2866 
Q 2472 2866 2890 2506 
Q 3309 2147 3309 1434 
Q 3309 825 2912 354 
Q 2516 -116 1781 -116 
Q 1153 -116 697 361 
Q 241 838 241 1966 
Q 241 2800 444 3381 
Q 834 4494 1872 4494 
z
M 1831 384 
Q 2275 384 2495 682 
Q 2716 981 2716 1388 
Q 2716 1731 2519 2042 
Q 2322 2353 1803 2353 
Q 1441 2353 1167 2112 
Q 894 1872 894 1388 
Q 894 963 1142 673 
Q 1391 384 1831 384 
z
" transform="scale(0.015625)"/>
       </defs>
       <use xlink:href="#Helvetica-36"/>
      </g>
     </g>
    </g>
    <g id="xtick_2">
     <g id="line2d_2">
      <path d="M 59.104773 87 
L 59.104773 20.4 
" clip-path="url(#pa3559b8de6)" style="fill: none; stroke: #cccccc; stroke-width: 0.8; stroke-linecap: round"/>
     </g>
     <g id="text_2">
      <!-- 8 -->
      <g style="fill: #262626" transform="translate(56.880398 97.53875) scale(0.08 -0.08)">
       <defs>
        <path id="Helvetica-38" d="M 1741 2600 
Q 2113 2600 2322 2808 
Q 2531 3016 2531 3303 
Q 2531 3553 2331 3762 
Q 2131 3972 1722 3972 
Q 1316 3972 1134 3762 
Q 953 3553 953 3272 
Q 953 2956 1187 2778 
Q 1422 2600 1741 2600 
z
M 1775 384 
Q 2166 384 2423 595 
Q 2681 806 2681 1225 
Q 2681 1659 2415 1884 
Q 2150 2109 1734 2109 
Q 1331 2109 1076 1879 
Q 822 1650 822 1244 
Q 822 894 1055 639 
Q 1288 384 1775 384 
z
M 975 2384 
Q 741 2484 609 2619 
Q 363 2869 363 3269 
Q 363 3769 725 4128 
Q 1088 4488 1753 4488 
Q 2397 4488 2762 4148 
Q 3128 3809 3128 3356 
Q 3128 2938 2916 2678 
Q 2797 2531 2547 2391 
Q 2825 2263 2984 2097 
Q 3281 1784 3281 1284 
Q 3281 694 2884 283 
Q 2488 -128 1763 -128 
Q 1109 -128 657 226 
Q 206 581 206 1256 
Q 206 1653 400 1942 
Q 594 2231 975 2384 
z
" transform="scale(0.015625)"/>
       </defs>
       <use xlink:href="#Helvetica-38"/>
      </g>
     </g>
    </g>
    <g id="xtick_3">
     <g id="line2d_3">
      <path d="M 94.109318 87 
L 94.109318 20.4 
" clip-path="url(#pa3559b8de6)" style="fill: none; stroke: #cccccc; stroke-width: 0.8; stroke-linecap: round"/>
     </g>
     <g id="text_3">
      <!-- 10 -->
      <g style="fill: #262626" transform="translate(89.660568 97.53875) scale(0.08 -0.08)">
       <defs>
        <path id="Helvetica-31" d="M 613 3169 
L 613 3600 
Q 1222 3659 1462 3798 
Q 1703 3938 1822 4456 
L 2266 4456 
L 2266 0 
L 1666 0 
L 1666 3169 
L 613 3169 
z
" transform="scale(0.015625)"/>
        <path id="Helvetica-30" d="M 1731 4475 
Q 2600 4475 2988 3759 
Q 3288 3206 3288 2244 
Q 3288 1331 3016 734 
Q 2622 -122 1728 -122 
Q 922 -122 528 578 
Q 200 1163 200 2147 
Q 200 2909 397 3456 
Q 766 4475 1731 4475 
z
M 1725 391 
Q 2163 391 2422 778 
Q 2681 1166 2681 2222 
Q 2681 2984 2493 3476 
Q 2306 3969 1766 3969 
Q 1269 3969 1039 3501 
Q 809 3034 809 2125 
Q 809 1441 956 1025 
Q 1181 391 1725 391 
z
" transform="scale(0.015625)"/>
       </defs>
       <use xlink:href="#Helvetica-31"/>
       <use xlink:href="#Helvetica-30" transform="translate(55.615234 0)"/>
      </g>
     </g>
    </g>
   </g>
   <g id="matplotlib.axis_2">
    <g id="ytick_1">
     <g id="line2d_4">
      <path d="M 22.35 87 
L 99.36 87 
" clip-path="url(#pa3559b8de6)" style="fill: none; stroke: #cccccc; stroke-width: 0.8; stroke-linecap: round"/>
     </g>
     <g id="text_4">
      <!-- 0 -->
      <g style="fill: #262626" transform="translate(13.10125 89.869375) scale(0.08 -0.08)">
       <use xlink:href="#Helvetica-30"/>
      </g>
     </g>
    </g>
    <g id="ytick_2">
     <g id="line2d_5">
      <path d="M 22.35 80.945455 
L 99.36 80.945455 
" clip-path="url(#pa3559b8de6)" style="fill: none; stroke: #cccccc; stroke-width: 0.8; stroke-linecap: round"/>
     </g>
     <g id="text_5">
      <!-- 1 -->
      <g style="fill: #262626" transform="translate(13.10125 83.81483) scale(0.08 -0.08)">
       <use xlink:href="#Helvetica-31"/>
      </g>
     </g>
    </g>
    <g id="ytick_3">
     <g id="line2d_6">
      <path d="M 22.35 74.890909 
L 99.36 74.890909 
" clip-path="url(#pa3559b8de6)" style="fill: none; stroke: #cccccc; stroke-width: 0.8; stroke-linecap: round"/>
     </g>
     <g id="text_6">
      <!-- 2 -->
      <g style="fill: #262626" transform="translate(13.10125 77.760284) scale(0.08 -0.08)">
       <defs>
        <path id="Helvetica-32" d="M 200 0 
Q 231 578 439 1006 
Q 647 1434 1250 1784 
L 1850 2131 
Q 2253 2366 2416 2531 
Q 2672 2791 2672 3125 
Q 2672 3516 2437 3745 
Q 2203 3975 1813 3975 
Q 1234 3975 1013 3538 
Q 894 3303 881 2888 
L 309 2888 
Q 319 3472 525 3841 
Q 891 4491 1816 4491 
Q 2584 4491 2939 4075 
Q 3294 3659 3294 3150 
Q 3294 2613 2916 2231 
Q 2697 2009 2131 1694 
L 1703 1456 
Q 1397 1288 1222 1134 
Q 909 863 828 531 
L 3272 531 
L 3272 0 
L 200 0 
z
" transform="scale(0.015625)"/>
       </defs>
       <use xlink:href="#Helvetica-32"/>
      </g>
     </g>
    </g>
    <g id="ytick_4">
     <g id="line2d_7">
      <path d="M 22.35 68.836364 
L 99.36 68.836364 
" clip-path="url(#pa3559b8de6)" style="fill: none; stroke: #cccccc; stroke-width: 0.8; stroke-linecap: round"/>
     </g>
     <g id="text_7">
      <!-- 3 -->
      <g style="fill: #262626" transform="translate(13.10125 71.705739) scale(0.08 -0.08)">
       <defs>
        <path id="Helvetica-33" d="M 1663 -122 
Q 869 -122 511 314 
Q 153 750 153 1375 
L 741 1375 
Q 778 941 903 744 
Q 1122 391 1694 391 
Q 2138 391 2406 628 
Q 2675 866 2675 1241 
Q 2675 1703 2392 1887 
Q 2109 2072 1606 2072 
Q 1550 2072 1492 2070 
Q 1434 2069 1375 2066 
L 1375 2563 
Q 1463 2553 1522 2550 
Q 1581 2547 1650 2547 
Q 1966 2547 2169 2647 
Q 2525 2822 2525 3272 
Q 2525 3606 2287 3787 
Q 2050 3969 1734 3969 
Q 1172 3969 956 3594 
Q 838 3388 822 3006 
L 266 3006 
Q 266 3506 466 3856 
Q 809 4481 1675 4481 
Q 2359 4481 2734 4176 
Q 3109 3872 3109 3294 
Q 3109 2881 2888 2625 
Q 2750 2466 2531 2375 
Q 2884 2278 3082 2001 
Q 3281 1725 3281 1325 
Q 3281 684 2859 281 
Q 2438 -122 1663 -122 
z
" transform="scale(0.015625)"/>
       </defs>
       <use xlink:href="#Helvetica-33"/>
      </g>
     </g>
    </g>
    <g id="ytick_5">
     <g id="line2d_8">
      <path d="M 22.35 62.781818 
L 99.36 62.781818 
" clip-path="url(#pa3559b8de6)" style="fill: none; stroke: #cccccc; stroke-width: 0.8; stroke-linecap: round"/>
     </g>
     <g id="text_8">
      <!-- 4 -->
      <g style="fill: #262626" transform="translate(13.10125 65.651193) scale(0.08 -0.08)">
       <defs>
        <path id="Helvetica-34" d="M 2116 1584 
L 2116 3613 
L 681 1584 
L 2116 1584 
z
M 2125 0 
L 2125 1094 
L 163 1094 
L 163 1644 
L 2213 4488 
L 2688 4488 
L 2688 1584 
L 3347 1584 
L 3347 1094 
L 2688 1094 
L 2688 0 
L 2125 0 
z
" transform="scale(0.015625)"/>
       </defs>
       <use xlink:href="#Helvetica-34"/>
      </g>
     </g>
    </g>
    <g id="ytick_6">
     <g id="line2d_9">
      <path d="M 22.35 56.727273 
L 99.36 56.727273 
" clip-path="url(#pa3559b8de6)" style="fill: none; stroke: #cccccc; stroke-width: 0.8; stroke-linecap: round"/>
     </g>
     <g id="text_9">
      <!-- 5 -->
      <g style="fill: #262626" transform="translate(13.10125 59.596648) scale(0.08 -0.08)">
       <defs>
        <path id="Helvetica-35" d="M 791 1141 
Q 847 659 1238 475 
Q 1438 381 1700 381 
Q 2200 381 2440 700 
Q 2681 1019 2681 1406 
Q 2681 1875 2395 2131 
Q 2109 2388 1709 2388 
Q 1419 2388 1211 2275 
Q 1003 2163 856 1963 
L 369 1991 
L 709 4400 
L 3034 4400 
L 3034 3856 
L 1131 3856 
L 941 2613 
Q 1097 2731 1238 2791 
Q 1488 2894 1816 2894 
Q 2431 2894 2859 2497 
Q 3288 2100 3288 1491 
Q 3288 856 2895 371 
Q 2503 -113 1644 -113 
Q 1097 -113 676 195 
Q 256 503 206 1141 
L 791 1141 
z
" transform="scale(0.015625)"/>
       </defs>
       <use xlink:href="#Helvetica-35"/>
      </g>
     </g>
    </g>
    <g id="ytick_7">
     <g id="line2d_10">
      <path d="M 22.35 50.672727 
L 99.36 50.672727 
" clip-path="url(#pa3559b8de6)" style="fill: none; stroke: #cccccc; stroke-width: 0.8; stroke-linecap: round"/>
     </g>
     <g id="text_10">
      <!-- 6 -->
      <g style="fill: #262626" transform="translate(13.10125 53.542102) scale(0.08 -0.08)">
       <use xlink:href="#Helvetica-36"/>
      </g>
     </g>
    </g>
    <g id="ytick_8">
     <g id="line2d_11">
      <path d="M 22.35 44.618182 
L 99.36 44.618182 
" clip-path="url(#pa3559b8de6)" style="fill: none; stroke: #cccccc; stroke-width: 0.8; stroke-linecap: round"/>
     </g>
     <g id="text_11">
      <!-- 7 -->
      <g style="fill: #262626" transform="translate(13.10125 47.487557) scale(0.08 -0.08)">
       <defs>
        <path id="Helvetica-37" d="M 3347 4400 
L 3347 3909 
Q 3131 3700 2773 3181 
Q 2416 2663 2141 2063 
Q 1869 1478 1728 997 
Q 1638 688 1494 0 
L 872 0 
Q 1084 1281 1809 2550 
Q 2238 3294 2709 3834 
L 234 3834 
L 234 4400 
L 3347 4400 
z
" transform="scale(0.015625)"/>
       </defs>
       <use xlink:href="#Helvetica-37"/>
      </g>
     </g>
    </g>
    <g id="ytick_9">
     <g id="line2d_12">
      <path d="M 22.35 38.563636 
L 99.36 38.563636 
" clip-path="url(#pa3559b8de6)" style="fill: none; stroke: #cccccc; stroke-width: 0.8; stroke-linecap: round"/>
     </g>
     <g id="text_12">
      <!-- 8 -->
      <g style="fill: #262626" transform="translate(13.10125 41.433011) scale(0.08 -0.08)">
       <use xlink:href="#Helvetica-38"/>
      </g>
     </g>
    </g>
    <g id="ytick_10">
     <g id="line2d_13">
      <path d="M 22.35 32.509091 
L 99.36 32.509091 
" clip-path="url(#pa3559b8de6)" style="fill: none; stroke: #cccccc; stroke-width: 0.8; stroke-linecap: round"/>
     </g>
     <g id="text_13">
      <!-- 9 -->
      <g style="fill: #262626" transform="translate(13.10125 35.378466) scale(0.08 -0.08)">
       <defs>
        <path id="Helvetica-39" d="M 850 1081 
Q 875 616 1209 438 
Q 1381 344 1597 344 
Q 2000 344 2284 680 
Q 2569 1016 2688 2044 
Q 2500 1747 2223 1626 
Q 1947 1506 1628 1506 
Q 981 1506 604 1909 
Q 228 2313 228 2947 
Q 228 3556 600 4018 
Q 972 4481 1697 4481 
Q 2675 4481 3047 3600 
Q 3253 3116 3253 2388 
Q 3253 1566 3006 931 
Q 2597 -125 1619 -125 
Q 963 -125 622 219 
Q 281 563 281 1081 
L 850 1081 
z
M 1703 2000 
Q 2038 2000 2314 2220 
Q 2591 2441 2591 2991 
Q 2591 3484 2342 3726 
Q 2094 3969 1709 3969 
Q 1297 3969 1055 3692 
Q 813 3416 813 2953 
Q 813 2516 1025 2258 
Q 1238 2000 1703 2000 
z
" transform="scale(0.015625)"/>
       </defs>
       <use xlink:href="#Helvetica-39"/>
      </g>
     </g>
    </g>
    <g id="ytick_11">
     <g id="line2d_14">
      <path d="M 22.35 26.454545 
L 99.36 26.454545 
" clip-path="url(#pa3559b8de6)" style="fill: none; stroke: #cccccc; stroke-width: 0.8; stroke-linecap: round"/>
     </g>
     <g id="text_14">
      <!-- 10 -->
      <g style="fill: #262626" transform="translate(8.6525 29.32392) scale(0.08 -0.08)">
       <use xlink:href="#Helvetica-31"/>
       <use xlink:href="#Helvetica-30" transform="translate(55.615234 0)"/>
      </g>
     </g>
    </g>
    <g id="ytick_12">
     <g id="line2d_15">
      <path d="M 22.35 20.4 
L 99.36 20.4 
" clip-path="url(#pa3559b8de6)" style="fill: none; stroke: #cccccc; stroke-width: 0.8; stroke-linecap: round"/>
     </g>
     <g id="text_15">
      <!-- 11 -->
      <g style="fill: #262626" transform="translate(8.6525 23.269375) scale(0.08 -0.08)">
       <use xlink:href="#Helvetica-31"/>
       <use xlink:href="#Helvetica-31" transform="translate(55.615234 0)"/>
      </g>
     </g>
    </g>
   </g>
   <g id="PathCollection_1">
    <defs>
     <path id="m2f86e8a273" d="M 0 1.2 
C 0.318244 1.2 0.623496 1.07356 0.848528 0.848528 
C 1.07356 0.623496 1.2 0.318244 1.2 0 
C 1.2 -0.318244 1.07356 -0.623496 0.848528 -0.848528 
C 0.623496 -1.07356 0.318244 -1.2 0 -1.2 
C -0.318244 -1.2 -0.623496 -1.07356 -0.848528 -0.848528 
C -1.07356 -0.623496 -1.2 -0.318244 -1.2 0 
C -1.2 0.318244 -1.07356 0.623496 -0.848528 0.848528 
C -0.623496 1.07356 -0.318244 1.2 0 1.2 
z
" style="stroke: #000000; stroke-opacity: 0.5"/>
    </defs>
    <g clip-path="url(#pa3559b8de6)">
     <use xlink:href="#m2f86e8a273" x="77.482159" y="81.058212" style="fill-opacity: 0.5; stroke: #000000; stroke-opacity: 0.5"/>
     <use xlink:href="#m2f86e8a273" x="79.232386" y="74.83865" style="fill-opacity: 0.5; stroke: #000000; stroke-opacity: 0.5"/>
     <use xlink:href="#m2f86e8a273" x="90.608864" y="81.317278" style="fill-opacity: 0.5; stroke: #000000; stroke-opacity: 0.5"/>
     <use xlink:href="#m2f86e8a273" x="76.607045" y="82.057455" style="fill-opacity: 0.5; stroke: #000000; stroke-opacity: 0.5"/>
     <use xlink:href="#m2f86e8a273" x="90.608864" y="73.829749" style="fill-opacity: 0.5; stroke: #000000; stroke-opacity: 0.5"/>
     <use xlink:href="#m2f86e8a273" x="68.731023" y="80.549422" style="fill-opacity: 0.5; stroke: #000000; stroke-opacity: 0.5"/>
     <use xlink:href="#m2f86e8a273" x="82.732841" y="80.208944" style="fill-opacity: 0.5; stroke: #000000; stroke-opacity: 0.5"/>
     <use xlink:href="#m2f86e8a273" x="83.607955" y="81.141305" style="fill-opacity: 0.5; stroke: #000000; stroke-opacity: 0.5"/>
     <use xlink:href="#m2f86e8a273" x="78.357273" y="80.120286" style="fill-opacity: 0.5; stroke: #000000; stroke-opacity: 0.5"/>
     <use xlink:href="#m2f86e8a273" x="73.106591" y="81.769825" style="fill-opacity: 0.5; stroke: #000000; stroke-opacity: 0.5"/>
     <use xlink:href="#m2f86e8a273" x="74.856818" y="80.322718" style="fill-opacity: 0.5; stroke: #000000; stroke-opacity: 0.5"/>
     <use xlink:href="#m2f86e8a273" x="73.106591" y="80.789253" style="fill-opacity: 0.5; stroke: #000000; stroke-opacity: 0.5"/>
     <use xlink:href="#m2f86e8a273" x="80.1075" y="82.139062" style="fill-opacity: 0.5; stroke: #000000; stroke-opacity: 0.5"/>
     <use xlink:href="#m2f86e8a273" x="85.358182" y="79.980686" style="fill-opacity: 0.5; stroke: #000000; stroke-opacity: 0.5"/>
     <use xlink:href="#m2f86e8a273" x="74.856818" y="68.370024" style="fill-opacity: 0.5; stroke: #000000; stroke-opacity: 0.5"/>
     <use xlink:href="#m2f86e8a273" x="84.483068" y="81.304175" style="fill-opacity: 0.5; stroke: #000000; stroke-opacity: 0.5"/>
     <use xlink:href="#m2f86e8a273" x="80.1075" y="80.117983" style="fill-opacity: 0.5; stroke: #000000; stroke-opacity: 0.5"/>
     <use xlink:href="#m2f86e8a273" x="66.105682" y="68.142805" style="fill-opacity: 0.5; stroke: #000000; stroke-opacity: 0.5"/>
     <use xlink:href="#m2f86e8a273" x="87.108409" y="81.995987" style="fill-opacity: 0.5; stroke: #000000; stroke-opacity: 0.5"/>
     <use xlink:href="#m2f86e8a273" x="25.850455" y="74.235432" style="fill-opacity: 0.5; stroke: #000000; stroke-opacity: 0.5"/>
     <use xlink:href="#m2f86e8a273" x="59.104773" y="74.317943" style="fill-opacity: 0.5; stroke: #000000; stroke-opacity: 0.5"/>
     <use xlink:href="#m2f86e8a273" x="73.981705" y="76.047708" style="fill-opacity: 0.5; stroke: #000000; stroke-opacity: 0.5"/>
     <use xlink:href="#m2f86e8a273" x="45.978068" y="82.109529" style="fill-opacity: 0.5; stroke: #000000; stroke-opacity: 0.5"/>
     <use xlink:href="#m2f86e8a273" x="79.232386" y="80.23243" style="fill-opacity: 0.5; stroke: #000000; stroke-opacity: 0.5"/>
     <use xlink:href="#m2f86e8a273" x="80.982614" y="74.678194" style="fill-opacity: 0.5; stroke: #000000; stroke-opacity: 0.5"/>
     <use xlink:href="#m2f86e8a273" x="68.731023" y="75.574447" style="fill-opacity: 0.5; stroke: #000000; stroke-opacity: 0.5"/>
     <use xlink:href="#m2f86e8a273" x="94.984432" y="81.938457" style="fill-opacity: 0.5; stroke: #000000; stroke-opacity: 0.5"/>
     <use xlink:href="#m2f86e8a273" x="85.358182" y="79.749369" style="fill-opacity: 0.5; stroke: #000000; stroke-opacity: 0.5"/>
     <use xlink:href="#m2f86e8a273" x="31.101136" y="63.832169" style="fill-opacity: 0.5; stroke: #000000; stroke-opacity: 0.5"/>
     <use xlink:href="#m2f86e8a273" x="66.980795" y="56.973661" style="fill-opacity: 0.5; stroke: #000000; stroke-opacity: 0.5"/>
     <use xlink:href="#m2f86e8a273" x="95.859545" y="81.356378" style="fill-opacity: 0.5; stroke: #000000; stroke-opacity: 0.5"/>
     <use xlink:href="#m2f86e8a273" x="88.858636" y="81.813812" style="fill-opacity: 0.5; stroke: #000000; stroke-opacity: 0.5"/>
     <use xlink:href="#m2f86e8a273" x="77.482159" y="80.834906" style="fill-opacity: 0.5; stroke: #000000; stroke-opacity: 0.5"/>
     <use xlink:href="#m2f86e8a273" x="86.233295" y="37.973434" style="fill-opacity: 0.5; stroke: #000000; stroke-opacity: 0.5"/>
     <use xlink:href="#m2f86e8a273" x="83.607955" y="63.026921" style="fill-opacity: 0.5; stroke: #000000; stroke-opacity: 0.5"/>
     <use xlink:href="#m2f86e8a273" x="53.854091" y="57.555573" style="fill-opacity: 0.5; stroke: #000000; stroke-opacity: 0.5"/>
     <use xlink:href="#m2f86e8a273" x="81.857727" y="80.960853" style="fill-opacity: 0.5; stroke: #000000; stroke-opacity: 0.5"/>
     <use xlink:href="#m2f86e8a273" x="58.229659" y="69.190984" style="fill-opacity: 0.5; stroke: #000000; stroke-opacity: 0.5"/>
     <use xlink:href="#m2f86e8a273" x="67.855909" y="75.827477" style="fill-opacity: 0.5; stroke: #000000; stroke-opacity: 0.5"/>
     <use xlink:href="#m2f86e8a273" x="40.727386" y="81.198828" style="fill-opacity: 0.5; stroke: #000000; stroke-opacity: 0.5"/>
     <use xlink:href="#m2f86e8a273" x="80.1075" y="79.809445" style="fill-opacity: 0.5; stroke: #000000; stroke-opacity: 0.5"/>
     <use xlink:href="#m2f86e8a273" x="66.689091" y="79.972072" style="fill-opacity: 0.5; stroke: #000000; stroke-opacity: 0.5"/>
     <use xlink:href="#m2f86e8a273" x="58.521364" y="75.229059" style="fill-opacity: 0.5; stroke: #000000; stroke-opacity: 0.5"/>
     <use xlink:href="#m2f86e8a273" x="78.357273" y="63.934028" style="fill-opacity: 0.5; stroke: #000000; stroke-opacity: 0.5"/>
     <use xlink:href="#m2f86e8a273" x="63.480341" y="81.451091" style="fill-opacity: 0.5; stroke: #000000; stroke-opacity: 0.5"/>
    </g>
   </g>
   <g id="FillBetweenPolyCollection_1">
    <defs>
     <path id="mff3e115b4f" d="M 25.850455 -45.970034 
L 25.850455 -29.571182 
L 26.557617 -29.627882 
L 27.26478 -29.684582 
L 27.971942 -29.741282 
L 28.679105 -29.797982 
L 29.386267 -29.80953 
L 30.09343 -29.816711 
L 30.800592 -29.853083 
L 31.507755 -29.855365 
L 32.214917 -29.859033 
L 32.92208 -29.912633 
L 33.629242 -29.972913 
L 34.336405 -30.033988 
L 35.043567 -30.049883 
L 35.75073 -30.065048 
L 36.457893 -30.122565 
L 37.165055 -30.168331 
L 37.872218 -30.178823 
L 38.57938 -30.189315 
L 39.286543 -30.225822 
L 39.993705 -30.272244 
L 40.700868 -30.319335 
L 41.40803 -30.368254 
L 42.115193 -30.415024 
L 42.822355 -30.429858 
L 43.529518 -30.447505 
L 44.23668 -30.462494 
L 44.943843 -30.514264 
L 45.651006 -30.507697 
L 46.358168 -30.475715 
L 47.065331 -30.48468 
L 47.772493 -30.493124 
L 48.479656 -30.501155 
L 49.186818 -30.511537 
L 49.893981 -30.520767 
L 50.601143 -30.52898 
L 51.308306 -30.528462 
L 52.015468 -30.546103 
L 52.722631 -30.579722 
L 53.429793 -30.612397 
L 54.136956 -30.645333 
L 54.844118 -30.647628 
L 55.551281 -30.670546 
L 56.258444 -30.677797 
L 56.965606 -30.699544 
L 57.672769 -30.722774 
L 58.379931 -30.72182 
L 59.087094 -30.727122 
L 59.794256 -30.732456 
L 60.501419 -30.723018 
L 61.208581 -30.74 
L 61.915744 -30.74846 
L 62.622906 -30.719158 
L 63.330069 -30.690754 
L 64.037231 -30.699907 
L 64.744394 -30.744388 
L 65.451556 -30.716505 
L 66.158719 -30.679819 
L 66.865882 -30.622303 
L 67.573044 -30.580139 
L 68.280207 -30.516251 
L 68.987369 -30.443823 
L 69.694532 -30.412487 
L 70.401694 -30.351121 
L 71.108857 -30.304075 
L 71.816019 -30.299835 
L 72.523182 -30.20787 
L 73.230344 -30.097845 
L 73.937507 -30.009546 
L 74.644669 -29.928675 
L 75.351832 -29.835866 
L 76.058994 -29.742091 
L 76.766157 -29.638453 
L 77.47332 -29.536421 
L 78.180482 -29.439756 
L 78.887645 -29.315595 
L 79.594807 -29.191541 
L 80.30197 -29.061832 
L 81.009132 -28.922633 
L 81.716295 -28.77609 
L 82.423457 -28.602333 
L 83.13062 -28.456027 
L 83.837782 -28.334775 
L 84.544945 -28.234822 
L 85.252107 -28.091426 
L 85.95927 -27.948029 
L 86.666433 -27.794426 
L 87.373595 -27.634253 
L 88.080758 -27.466996 
L 88.78792 -27.301412 
L 89.495083 -27.143538 
L 90.202245 -27.001679 
L 90.909408 -26.837539 
L 91.61657 -26.659165 
L 92.323733 -26.506601 
L 93.030895 -26.327321 
L 93.738058 -26.141959 
L 94.44522 -25.956411 
L 95.152383 -25.770308 
L 95.859545 -25.585464 
L 95.859545 -35.591461 
L 95.859545 -35.591461 
L 95.152383 -35.561331 
L 94.44522 -35.523268 
L 93.738058 -35.481543 
L 93.030895 -35.466935 
L 92.323733 -35.442241 
L 91.61657 -35.43814 
L 90.909408 -35.429333 
L 90.202245 -35.41626 
L 89.495083 -35.403298 
L 88.78792 -35.364967 
L 88.080758 -35.328521 
L 87.373595 -35.291116 
L 86.666433 -35.262925 
L 85.95927 -35.207912 
L 85.252107 -35.150705 
L 84.544945 -35.114377 
L 83.837782 -35.105974 
L 83.13062 -35.075347 
L 82.423457 -35.033115 
L 81.716295 -34.996654 
L 81.009132 -35.023943 
L 80.30197 -34.975779 
L 79.594807 -34.953272 
L 78.887645 -34.902621 
L 78.180482 -34.8798 
L 77.47332 -34.884907 
L 76.766157 -34.878563 
L 76.058994 -34.935446 
L 75.351832 -34.981053 
L 74.644669 -35.053056 
L 73.937507 -35.117046 
L 73.230344 -35.148837 
L 72.523182 -35.178777 
L 71.816019 -35.196917 
L 71.108857 -35.285746 
L 70.401694 -35.395147 
L 69.694532 -35.499743 
L 68.987369 -35.631256 
L 68.280207 -35.704814 
L 67.573044 -35.849762 
L 66.865882 -35.980939 
L 66.158719 -36.03656 
L 65.451556 -36.034053 
L 64.744394 -36.149736 
L 64.037231 -36.261404 
L 63.330069 -36.345858 
L 62.622906 -36.4509 
L 61.915744 -36.64092 
L 61.208581 -36.852652 
L 60.501419 -37.010993 
L 59.794256 -37.081073 
L 59.087094 -37.313549 
L 58.379931 -37.567221 
L 57.672769 -37.743762 
L 56.965606 -37.917093 
L 56.258444 -37.997335 
L 55.551281 -38.112274 
L 54.844118 -38.28242 
L 54.136956 -38.44408 
L 53.429793 -38.547418 
L 52.722631 -38.73515 
L 52.015468 -38.953482 
L 51.308306 -39.140809 
L 50.601143 -39.222269 
L 49.893981 -39.406845 
L 49.186818 -39.591368 
L 48.479656 -39.742478 
L 47.772493 -39.936355 
L 47.065331 -40.115999 
L 46.358168 -40.295386 
L 45.651006 -40.474228 
L 44.943843 -40.65307 
L 44.23668 -40.831913 
L 43.529518 -41.010755 
L 42.822355 -41.192634 
L 42.115193 -41.391669 
L 41.40803 -41.591056 
L 40.700868 -41.792702 
L 39.993705 -41.994348 
L 39.286543 -42.195994 
L 38.57938 -42.396698 
L 37.872218 -42.581733 
L 37.165055 -42.785224 
L 36.457893 -42.976649 
L 35.75073 -43.162308 
L 35.043567 -43.382166 
L 34.336405 -43.581715 
L 33.629242 -43.780837 
L 32.92208 -43.97996 
L 32.214917 -44.179083 
L 31.507755 -44.378205 
L 30.800592 -44.577328 
L 30.09343 -44.77645 
L 29.386267 -44.975446 
L 28.679105 -45.174364 
L 27.971942 -45.373281 
L 27.26478 -45.580384 
L 26.557617 -45.771116 
L 25.850455 -45.970034 
z
" style="stroke: #ffffff; stroke-opacity: 0.15; stroke-width: 0.8"/>
    </defs>
    <g clip-path="url(#pa3559b8de6)">
     <use xlink:href="#mff3e115b4f" x="0" y="108" style="fill-opacity: 0.15; stroke: #ffffff; stroke-opacity: 0.15; stroke-width: 0.8"/>
    </g>
   </g>
   <g id="line2d_16">
    <path d="M 25.850455 70.45343 
L 26.557617 70.531497 
L 27.26478 70.609564 
L 27.971942 70.687632 
L 28.679105 70.765699 
L 29.386267 70.843766 
L 30.09343 70.921833 
L 30.800592 70.999901 
L 31.507755 71.077968 
L 32.214917 71.156035 
L 32.92208 71.234102 
L 33.629242 71.312169 
L 34.336405 71.390237 
L 35.043567 71.468304 
L 35.75073 71.546371 
L 36.457893 71.624438 
L 37.165055 71.702506 
L 37.872218 71.780573 
L 38.57938 71.85864 
L 39.286543 71.936707 
L 39.993705 72.014775 
L 40.700868 72.092842 
L 41.40803 72.170909 
L 42.115193 72.248976 
L 42.822355 72.327043 
L 43.529518 72.405111 
L 44.23668 72.483178 
L 44.943843 72.561245 
L 45.651006 72.639312 
L 46.358168 72.71738 
L 47.065331 72.795447 
L 47.772493 72.873514 
L 48.479656 72.951581 
L 49.186818 73.029649 
L 49.893981 73.107716 
L 50.601143 73.185783 
L 51.308306 73.26385 
L 52.015468 73.341918 
L 52.722631 73.419985 
L 53.429793 73.498052 
L 54.136956 73.576119 
L 54.844118 73.654186 
L 55.551281 73.732254 
L 56.258444 73.810321 
L 56.965606 73.888388 
L 57.672769 73.966455 
L 58.379931 74.044523 
L 59.087094 74.12259 
L 59.794256 74.200657 
L 60.501419 74.278724 
L 61.208581 74.356792 
L 61.915744 74.434859 
L 62.622906 74.512926 
L 63.330069 74.590993 
L 64.037231 74.669061 
L 64.744394 74.747128 
L 65.451556 74.825195 
L 66.158719 74.903262 
L 66.865882 74.981329 
L 67.573044 75.059397 
L 68.280207 75.137464 
L 68.987369 75.215531 
L 69.694532 75.293598 
L 70.401694 75.371666 
L 71.108857 75.449733 
L 71.816019 75.5278 
L 72.523182 75.605867 
L 73.230344 75.683935 
L 73.937507 75.762002 
L 74.644669 75.840069 
L 75.351832 75.918136 
L 76.058994 75.996203 
L 76.766157 76.074271 
L 77.47332 76.152338 
L 78.180482 76.230405 
L 78.887645 76.308472 
L 79.594807 76.38654 
L 80.30197 76.464607 
L 81.009132 76.542674 
L 81.716295 76.620741 
L 82.423457 76.698809 
L 83.13062 76.776876 
L 83.837782 76.854943 
L 84.544945 76.93301 
L 85.252107 77.011078 
L 85.95927 77.089145 
L 86.666433 77.167212 
L 87.373595 77.245279 
L 88.080758 77.323346 
L 88.78792 77.401414 
L 89.495083 77.479481 
L 90.202245 77.557548 
L 90.909408 77.635615 
L 91.61657 77.713683 
L 92.323733 77.79175 
L 93.030895 77.869817 
L 93.738058 77.947884 
L 94.44522 78.025952 
L 95.152383 78.104019 
L 95.859545 78.182086 
" clip-path="url(#pa3559b8de6)" style="fill: none; stroke: #000000; stroke-width: 1.8; stroke-linecap: round"/>
   </g>
   <g id="patch_3">
    <path d="M 22.35 87 
L 22.35 20.4 
" style="fill: none; stroke: #cccccc; stroke-linejoin: miter; stroke-linecap: square"/>
   </g>
   <g id="patch_4">
    <path d="M 99.36 87 
L 99.36 20.4 
" style="fill: none; stroke: #cccccc; stroke-linejoin: miter; stroke-linecap: square"/>
   </g>
   <g id="patch_5">
    <path d="M 22.35 87 
L 99.36 87 
" style="fill: none; stroke: #cccccc; stroke-linejoin: miter; stroke-linecap: square"/>
   </g>
   <g id="patch_6">
    <path d="M 22.35 20.4 
L 99.36 20.4 
" style="fill: none; stroke: #cccccc; stroke-linejoin: miter; stroke-linecap: square"/>
   </g>
   <g id="text_16">
    <!-- ('rho = -0.33 p=2.64e-02',) -->
    <g style="fill: #262626" transform="translate(14.635625 14.4) scale(0.08 -0.08)">
     <defs>
      <path id="Helvetica-28" d="M 1894 4666 
Q 1403 3713 1256 3263 
Q 1034 2578 1034 1681 
Q 1034 775 1288 25 
Q 1444 -438 1903 -1306 
L 1525 -1306 
Q 1069 -594 959 -397 
Q 850 -200 722 138 
Q 547 600 478 1125 
Q 444 1397 444 1644 
Q 444 2569 734 3291 
Q 919 3750 1503 4666 
L 1894 4666 
z
" transform="scale(0.015625)"/>
      <path id="Helvetica-27" d="M 1056 4591 
L 953 2753 
L 591 2753 
L 488 4591 
L 1056 4591 
z
" transform="scale(0.015625)"/>
      <path id="Helvetica-72" d="M 428 3347 
L 963 3347 
L 963 2769 
Q 1028 2938 1284 3180 
Q 1541 3422 1875 3422 
Q 1891 3422 1928 3419 
Q 1966 3416 2056 3406 
L 2056 2813 
Q 2006 2822 1964 2825 
Q 1922 2828 1872 2828 
Q 1447 2828 1219 2554 
Q 991 2281 991 1925 
L 991 0 
L 428 0 
L 428 3347 
z
" transform="scale(0.015625)"/>
      <path id="Helvetica-68" d="M 413 4606 
L 975 4606 
L 975 2894 
Q 1175 3147 1334 3250 
Q 1606 3428 2013 3428 
Q 2741 3428 3000 2919 
Q 3141 2641 3141 2147 
L 3141 0 
L 2563 0 
L 2563 2109 
Q 2563 2478 2469 2650 
Q 2316 2925 1894 2925 
Q 1544 2925 1259 2684 
Q 975 2444 975 1775 
L 975 0 
L 413 0 
L 413 4606 
z
" transform="scale(0.015625)"/>
      <path id="Helvetica-6f" d="M 1741 363 
Q 2300 363 2508 786 
Q 2716 1209 2716 1728 
Q 2716 2197 2566 2491 
Q 2328 2953 1747 2953 
Q 1231 2953 997 2559 
Q 763 2166 763 1609 
Q 763 1075 997 719 
Q 1231 363 1741 363 
z
M 1763 3444 
Q 2409 3444 2856 3012 
Q 3303 2581 3303 1744 
Q 3303 934 2909 406 
Q 2516 -122 1688 -122 
Q 997 -122 590 345 
Q 184 813 184 1600 
Q 184 2444 612 2944 
Q 1041 3444 1763 3444 
z
M 1744 3428 
L 1744 3428 
z
" transform="scale(0.015625)"/>
      <path id="Helvetica-20" transform="scale(0.015625)"/>
      <path id="Helvetica-3d" d="M 3547 2569 
L 3547 2044 
L 288 2044 
L 288 2569 
L 3547 2569 
z
M 3547 1228 
L 3547 694 
L 288 694 
L 288 1228 
L 3547 1228 
z
" transform="scale(0.015625)"/>
      <path id="Helvetica-2d" d="M 266 2072 
L 1834 2072 
L 1834 1494 
L 266 1494 
L 266 2072 
z
" transform="scale(0.015625)"/>
      <path id="Helvetica-2e" d="M 547 681 
L 1200 681 
L 1200 0 
L 547 0 
L 547 681 
z
" transform="scale(0.015625)"/>
      <path id="Helvetica-70" d="M 1825 378 
Q 2219 378 2480 708 
Q 2741 1038 2741 1694 
Q 2741 2094 2625 2381 
Q 2406 2934 1825 2934 
Q 1241 2934 1025 2350 
Q 909 2038 909 1556 
Q 909 1169 1025 897 
Q 1244 378 1825 378 
z
M 369 3331 
L 916 3331 
L 916 2888 
Q 1084 3116 1284 3241 
Q 1569 3428 1953 3428 
Q 2522 3428 2919 2992 
Q 3316 2556 3316 1747 
Q 3316 653 2744 184 
Q 2381 -113 1900 -113 
Q 1522 -113 1266 53 
Q 1116 147 931 375 
L 931 -1334 
L 369 -1334 
L 369 3331 
z
" transform="scale(0.015625)"/>
      <path id="Helvetica-65" d="M 1806 3422 
Q 2163 3422 2497 3255 
Q 2831 3088 3006 2822 
Q 3175 2569 3231 2231 
Q 3281 2000 3281 1494 
L 828 1494 
Q 844 984 1069 676 
Q 1294 369 1766 369 
Q 2206 369 2469 659 
Q 2619 828 2681 1050 
L 3234 1050 
Q 3213 866 3089 639 
Q 2966 413 2813 269 
Q 2556 19 2178 -69 
Q 1975 -119 1719 -119 
Q 1094 -119 659 336 
Q 225 791 225 1609 
Q 225 2416 662 2919 
Q 1100 3422 1806 3422 
z
M 2703 1941 
Q 2669 2306 2544 2525 
Q 2313 2931 1772 2931 
Q 1384 2931 1121 2651 
Q 859 2372 844 1941 
L 2703 1941 
z
M 1753 3428 
L 1753 3428 
z
" transform="scale(0.015625)"/>
      <path id="Helvetica-2c" d="M 531 -653 
Q 747 -616 834 -350 
Q 881 -209 881 -78 
Q 881 -56 879 -39 
Q 878 -22 872 0 
L 531 0 
L 531 681 
L 1200 681 
L 1200 50 
Q 1200 -322 1050 -603 
Q 900 -884 531 -950 
L 531 -653 
z
" transform="scale(0.015625)"/>
      <path id="Helvetica-29" d="M 222 -1306 
Q 719 -338 863 106 
Q 1081 778 1081 1681 
Q 1081 2584 828 3334 
Q 672 3797 213 4666 
L 591 4666 
Q 1072 3897 1173 3717 
Q 1275 3538 1394 3222 
Q 1544 2831 1608 2450 
Q 1672 2069 1672 1716 
Q 1672 791 1378 66 
Q 1194 -400 613 -1306 
L 222 -1306 
z
" transform="scale(0.015625)"/>
     </defs>
     <use xlink:href="#Helvetica-28"/>
     <use xlink:href="#Helvetica-27" transform="translate(33.300781 0)"/>
     <use xlink:href="#Helvetica-72" transform="translate(52.392578 0)"/>
     <use xlink:href="#Helvetica-68" transform="translate(85.693359 0)"/>
     <use xlink:href="#Helvetica-6f" transform="translate(141.308594 0)"/>
     <use xlink:href="#Helvetica-20" transform="translate(196.923828 0)"/>
     <use xlink:href="#Helvetica-3d" transform="translate(224.707031 0)"/>
     <use xlink:href="#Helvetica-20" transform="translate(283.105469 0)"/>
     <use xlink:href="#Helvetica-2d" transform="translate(310.888672 0)"/>
     <use xlink:href="#Helvetica-30" transform="translate(344.189453 0)"/>
     <use xlink:href="#Helvetica-2e" transform="translate(399.804688 0)"/>
     <use xlink:href="#Helvetica-33" transform="translate(427.587891 0)"/>
     <use xlink:href="#Helvetica-33" transform="translate(483.203125 0)"/>
     <use xlink:href="#Helvetica-20" transform="translate(538.818359 0)"/>
     <use xlink:href="#Helvetica-70" transform="translate(566.601562 0)"/>
     <use xlink:href="#Helvetica-3d" transform="translate(622.216797 0)"/>
     <use xlink:href="#Helvetica-32" transform="translate(680.615234 0)"/>
     <use xlink:href="#Helvetica-2e" transform="translate(736.230469 0)"/>
     <use xlink:href="#Helvetica-36" transform="translate(764.013672 0)"/>
     <use xlink:href="#Helvetica-34" transform="translate(819.628906 0)"/>
     <use xlink:href="#Helvetica-65" transform="translate(875.244141 0)"/>
     <use xlink:href="#Helvetica-2d" transform="translate(930.859375 0)"/>
     <use xlink:href="#Helvetica-30" transform="translate(964.160156 0)"/>
     <use xlink:href="#Helvetica-32" transform="translate(1019.775391 0)"/>
     <use xlink:href="#Helvetica-27" transform="translate(1075.390625 0)"/>
     <use xlink:href="#Helvetica-2c" transform="translate(1094.482422 0)"/>
     <use xlink:href="#Helvetica-29" transform="translate(1122.265625 0)"/>
    </g>
   </g>
  </g>
 </g>
 <defs>
  <clipPath id="pa3559b8de6">
   <rect x="22.35" y="20.4" width="77.01" height="66.6"/>
  </clipPath>
 </defs>
</svg>
