<?xml version="1.0" encoding="utf-8" standalone="no"?>
<!DOCTYPE svg PUBLIC "-//W3C//DTD SVG 1.1//EN"
  "http://www.w3.org/Graphics/SVG/1.1/DTD/svg11.dtd">
<svg xmlns:xlink="http://www.w3.org/1999/xlink" width="108pt" height="108pt" viewBox="0 0 108 108" xmlns="http://www.w3.org/2000/svg" version="1.1">
 <metadata>
  <rdf:RDF xmlns:dc="http://purl.org/dc/elements/1.1/" xmlns:cc="http://creativecommons.org/ns#" xmlns:rdf="http://www.w3.org/1999/02/22-rdf-syntax-ns#">
   <cc:Work>
    <dc:type rdf:resource="http://purl.org/dc/dcmitype/StillImage"/>
    <dc:date>2025-03-07T14:44:41.087925</dc:date>
    <dc:format>image/svg+xml</dc:format>
    <dc:creator>
     <cc:Agent>
      <dc:title>Matplotlib v3.10.0, https://matplotlib.org/</dc:title>
     </cc:Agent>
    </dc:creator>
   </cc:Work>
  </rdf:RDF>
 </metadata>
 <defs>
  <style type="text/css">*{stroke-linejoin: round; stroke-linecap: butt}</style>
 </defs>
 <g id="figure_1">
  <g id="patch_1">
   <path d="M 0 108 
L 108 108 
L 108 0 
L 0 0 
z
" style="fill: #ffffff"/>
  </g>
  <g id="axes_1">
   <g id="patch_2">
    <path d="M 22.35 87 
L 95.665652 87 
L 95.665652 20.4 
L 22.35 20.4 
z
" style="fill: #ffffff"/>
   </g>
   <g id="matplotlib.axis_1">
    <g id="xtick_1">
     <g id="line2d_1">
      <path d="M 25.649826 87 
L 25.649826 20.4 
" clip-path="url(#p6c89003846)" style="fill: none; stroke: #cccccc; stroke-width: 0.8; stroke-linecap: round"/>
     </g>
     <g id="text_1">
      <!-- 0 -->
      <g style="fill: #262626" transform="translate(23.425451 97.53875) scale(0.08 -0.08)">
       <defs>
        <path id="Helvetica-30" d="M 1731 4475 
Q 2600 4475 2988 3759 
Q 3288 3206 3288 2244 
Q 3288 1331 3016 734 
Q 2622 -122 1728 -122 
Q 922 -122 528 578 
Q 200 1163 200 2147 
Q 200 2909 397 3456 
Q 766 4475 1731 4475 
z
M 1725 391 
Q 2163 391 2422 778 
Q 2681 1166 2681 2222 
Q 2681 2984 2493 3476 
Q 2306 3969 1766 3969 
Q 1269 3969 1039 3501 
Q 809 3034 809 2125 
Q 809 1441 956 1025 
Q 1181 391 1725 391 
z
" transform="scale(0.015625)"/>
       </defs>
       <use xlink:href="#Helvetica-30"/>
      </g>
     </g>
    </g>
    <g id="xtick_2">
     <g id="line2d_2">
      <path d="M 58.353748 87 
L 58.353748 20.4 
" clip-path="url(#p6c89003846)" style="fill: none; stroke: #cccccc; stroke-width: 0.8; stroke-linecap: round"/>
     </g>
     <g id="text_2">
      <!-- 1000 -->
      <g style="fill: #262626" transform="translate(49.456248 97.53875) scale(0.08 -0.08)">
       <defs>
        <path id="Helvetica-31" d="M 613 3169 
L 613 3600 
Q 1222 3659 1462 3798 
Q 1703 3938 1822 4456 
L 2266 4456 
L 2266 0 
L 1666 0 
L 1666 3169 
L 613 3169 
z
" transform="scale(0.015625)"/>
       </defs>
       <use xlink:href="#Helvetica-31"/>
       <use xlink:href="#Helvetica-30" transform="translate(55.615234 0)"/>
       <use xlink:href="#Helvetica-30" transform="translate(111.230469 0)"/>
       <use xlink:href="#Helvetica-30" transform="translate(166.845703 0)"/>
      </g>
     </g>
    </g>
    <g id="xtick_3">
     <g id="line2d_3">
      <path d="M 91.05767 87 
L 91.05767 20.4 
" clip-path="url(#p6c89003846)" style="fill: none; stroke: #cccccc; stroke-width: 0.8; stroke-linecap: round"/>
     </g>
     <g id="text_3">
      <!-- 2000 -->
      <g style="fill: #262626" transform="translate(82.16017 97.53875) scale(0.08 -0.08)">
       <defs>
        <path id="Helvetica-32" d="M 200 0 
Q 231 578 439 1006 
Q 647 1434 1250 1784 
L 1850 2131 
Q 2253 2366 2416 2531 
Q 2672 2791 2672 3125 
Q 2672 3516 2437 3745 
Q 2203 3975 1813 3975 
Q 1234 3975 1013 3538 
Q 894 3303 881 2888 
L 309 2888 
Q 319 3472 525 3841 
Q 891 4491 1816 4491 
Q 2584 4491 2939 4075 
Q 3294 3659 3294 3150 
Q 3294 2613 2916 2231 
Q 2697 2009 2131 1694 
L 1703 1456 
Q 1397 1288 1222 1134 
Q 909 863 828 531 
L 3272 531 
L 3272 0 
L 200 0 
z
" transform="scale(0.015625)"/>
       </defs>
       <use xlink:href="#Helvetica-32"/>
       <use xlink:href="#Helvetica-30" transform="translate(55.615234 0)"/>
       <use xlink:href="#Helvetica-30" transform="translate(111.230469 0)"/>
       <use xlink:href="#Helvetica-30" transform="translate(166.845703 0)"/>
      </g>
     </g>
    </g>
   </g>
   <g id="matplotlib.axis_2">
    <g id="ytick_1">
     <g id="line2d_4">
      <path d="M 22.35 87 
L 95.665652 87 
" clip-path="url(#p6c89003846)" style="fill: none; stroke: #cccccc; stroke-width: 0.8; stroke-linecap: round"/>
     </g>
     <g id="text_4">
      <!-- 0 -->
      <g style="fill: #262626" transform="translate(13.10125 89.869375) scale(0.08 -0.08)">
       <use xlink:href="#Helvetica-30"/>
      </g>
     </g>
    </g>
    <g id="ytick_2">
     <g id="line2d_5">
      <path d="M 22.35 81.237231 
L 95.665652 81.237231 
" clip-path="url(#p6c89003846)" style="fill: none; stroke: #cccccc; stroke-width: 0.8; stroke-linecap: round"/>
     </g>
     <g id="text_5">
      <!-- 1 -->
      <g style="fill: #262626" transform="translate(13.10125 84.106606) scale(0.08 -0.08)">
       <use xlink:href="#Helvetica-31"/>
      </g>
     </g>
    </g>
    <g id="ytick_3">
     <g id="line2d_6">
      <path d="M 22.35 75.474462 
L 95.665652 75.474462 
" clip-path="url(#p6c89003846)" style="fill: none; stroke: #cccccc; stroke-width: 0.8; stroke-linecap: round"/>
     </g>
     <g id="text_6">
      <!-- 2 -->
      <g style="fill: #262626" transform="translate(13.10125 78.343837) scale(0.08 -0.08)">
       <use xlink:href="#Helvetica-32"/>
      </g>
     </g>
    </g>
    <g id="ytick_4">
     <g id="line2d_7">
      <path d="M 22.35 69.711693 
L 95.665652 69.711693 
" clip-path="url(#p6c89003846)" style="fill: none; stroke: #cccccc; stroke-width: 0.8; stroke-linecap: round"/>
     </g>
     <g id="text_7">
      <!-- 3 -->
      <g style="fill: #262626" transform="translate(13.10125 72.581068) scale(0.08 -0.08)">
       <defs>
        <path id="Helvetica-33" d="M 1663 -122 
Q 869 -122 511 314 
Q 153 750 153 1375 
L 741 1375 
Q 778 941 903 744 
Q 1122 391 1694 391 
Q 2138 391 2406 628 
Q 2675 866 2675 1241 
Q 2675 1703 2392 1887 
Q 2109 2072 1606 2072 
Q 1550 2072 1492 2070 
Q 1434 2069 1375 2066 
L 1375 2563 
Q 1463 2553 1522 2550 
Q 1581 2547 1650 2547 
Q 1966 2547 2169 2647 
Q 2525 2822 2525 3272 
Q 2525 3606 2287 3787 
Q 2050 3969 1734 3969 
Q 1172 3969 956 3594 
Q 838 3388 822 3006 
L 266 3006 
Q 266 3506 466 3856 
Q 809 4481 1675 4481 
Q 2359 4481 2734 4176 
Q 3109 3872 3109 3294 
Q 3109 2881 2888 2625 
Q 2750 2466 2531 2375 
Q 2884 2278 3082 2001 
Q 3281 1725 3281 1325 
Q 3281 684 2859 281 
Q 2438 -122 1663 -122 
z
" transform="scale(0.015625)"/>
       </defs>
       <use xlink:href="#Helvetica-33"/>
      </g>
     </g>
    </g>
    <g id="ytick_5">
     <g id="line2d_8">
      <path d="M 22.35 63.948925 
L 95.665652 63.948925 
" clip-path="url(#p6c89003846)" style="fill: none; stroke: #cccccc; stroke-width: 0.8; stroke-linecap: round"/>
     </g>
     <g id="text_8">
      <!-- 4 -->
      <g style="fill: #262626" transform="translate(13.10125 66.8183) scale(0.08 -0.08)">
       <defs>
        <path id="Helvetica-34" d="M 2116 1584 
L 2116 3613 
L 681 1584 
L 2116 1584 
z
M 2125 0 
L 2125 1094 
L 163 1094 
L 163 1644 
L 2213 4488 
L 2688 4488 
L 2688 1584 
L 3347 1584 
L 3347 1094 
L 2688 1094 
L 2688 0 
L 2125 0 
z
" transform="scale(0.015625)"/>
       </defs>
       <use xlink:href="#Helvetica-34"/>
      </g>
     </g>
    </g>
    <g id="ytick_6">
     <g id="line2d_9">
      <path d="M 22.35 58.186156 
L 95.665652 58.186156 
" clip-path="url(#p6c89003846)" style="fill: none; stroke: #cccccc; stroke-width: 0.8; stroke-linecap: round"/>
     </g>
     <g id="text_9">
      <!-- 5 -->
      <g style="fill: #262626" transform="translate(13.10125 61.055531) scale(0.08 -0.08)">
       <defs>
        <path id="Helvetica-35" d="M 791 1141 
Q 847 659 1238 475 
Q 1438 381 1700 381 
Q 2200 381 2440 700 
Q 2681 1019 2681 1406 
Q 2681 1875 2395 2131 
Q 2109 2388 1709 2388 
Q 1419 2388 1211 2275 
Q 1003 2163 856 1963 
L 369 1991 
L 709 4400 
L 3034 4400 
L 3034 3856 
L 1131 3856 
L 941 2613 
Q 1097 2731 1238 2791 
Q 1488 2894 1816 2894 
Q 2431 2894 2859 2497 
Q 3288 2100 3288 1491 
Q 3288 856 2895 371 
Q 2503 -113 1644 -113 
Q 1097 -113 676 195 
Q 256 503 206 1141 
L 791 1141 
z
" transform="scale(0.015625)"/>
       </defs>
       <use xlink:href="#Helvetica-35"/>
      </g>
     </g>
    </g>
    <g id="ytick_7">
     <g id="line2d_10">
      <path d="M 22.35 52.423387 
L 95.665652 52.423387 
" clip-path="url(#p6c89003846)" style="fill: none; stroke: #cccccc; stroke-width: 0.8; stroke-linecap: round"/>
     </g>
     <g id="text_10">
      <!-- 6 -->
      <g style="fill: #262626" transform="translate(13.10125 55.292762) scale(0.08 -0.08)">
       <defs>
        <path id="Helvetica-36" d="M 1872 4494 
Q 2622 4494 2917 4105 
Q 3213 3716 3213 3303 
L 2656 3303 
Q 2606 3569 2497 3719 
Q 2294 4000 1881 4000 
Q 1409 4000 1131 3564 
Q 853 3128 822 2316 
Q 1016 2600 1309 2741 
Q 1578 2866 1909 2866 
Q 2472 2866 2890 2506 
Q 3309 2147 3309 1434 
Q 3309 825 2912 354 
Q 2516 -116 1781 -116 
Q 1153 -116 697 361 
Q 241 838 241 1966 
Q 241 2800 444 3381 
Q 834 4494 1872 4494 
z
M 1831 384 
Q 2275 384 2495 682 
Q 2716 981 2716 1388 
Q 2716 1731 2519 2042 
Q 2322 2353 1803 2353 
Q 1441 2353 1167 2112 
Q 894 1872 894 1388 
Q 894 963 1142 673 
Q 1391 384 1831 384 
z
" transform="scale(0.015625)"/>
       </defs>
       <use xlink:href="#Helvetica-36"/>
      </g>
     </g>
    </g>
    <g id="ytick_8">
     <g id="line2d_11">
      <path d="M 22.35 46.660618 
L 95.665652 46.660618 
" clip-path="url(#p6c89003846)" style="fill: none; stroke: #cccccc; stroke-width: 0.8; stroke-linecap: round"/>
     </g>
     <g id="text_11">
      <!-- 7 -->
      <g style="fill: #262626" transform="translate(13.10125 49.529993) scale(0.08 -0.08)">
       <defs>
        <path id="Helvetica-37" d="M 3347 4400 
L 3347 3909 
Q 3131 3700 2773 3181 
Q 2416 2663 2141 2063 
Q 1869 1478 1728 997 
Q 1638 688 1494 0 
L 872 0 
Q 1084 1281 1809 2550 
Q 2238 3294 2709 3834 
L 234 3834 
L 234 4400 
L 3347 4400 
z
" transform="scale(0.015625)"/>
       </defs>
       <use xlink:href="#Helvetica-37"/>
      </g>
     </g>
    </g>
    <g id="ytick_9">
     <g id="line2d_12">
      <path d="M 22.35 40.897849 
L 95.665652 40.897849 
" clip-path="url(#p6c89003846)" style="fill: none; stroke: #cccccc; stroke-width: 0.8; stroke-linecap: round"/>
     </g>
     <g id="text_12">
      <!-- 8 -->
      <g style="fill: #262626" transform="translate(13.10125 43.767224) scale(0.08 -0.08)">
       <defs>
        <path id="Helvetica-38" d="M 1741 2600 
Q 2113 2600 2322 2808 
Q 2531 3016 2531 3303 
Q 2531 3553 2331 3762 
Q 2131 3972 1722 3972 
Q 1316 3972 1134 3762 
Q 953 3553 953 3272 
Q 953 2956 1187 2778 
Q 1422 2600 1741 2600 
z
M 1775 384 
Q 2166 384 2423 595 
Q 2681 806 2681 1225 
Q 2681 1659 2415 1884 
Q 2150 2109 1734 2109 
Q 1331 2109 1076 1879 
Q 822 1650 822 1244 
Q 822 894 1055 639 
Q 1288 384 1775 384 
z
M 975 2384 
Q 741 2484 609 2619 
Q 363 2869 363 3269 
Q 363 3769 725 4128 
Q 1088 4488 1753 4488 
Q 2397 4488 2762 4148 
Q 3128 3809 3128 3356 
Q 3128 2938 2916 2678 
Q 2797 2531 2547 2391 
Q 2825 2263 2984 2097 
Q 3281 1784 3281 1284 
Q 3281 694 2884 283 
Q 2488 -128 1763 -128 
Q 1109 -128 657 226 
Q 206 581 206 1256 
Q 206 1653 400 1942 
Q 594 2231 975 2384 
z
" transform="scale(0.015625)"/>
       </defs>
       <use xlink:href="#Helvetica-38"/>
      </g>
     </g>
    </g>
    <g id="ytick_10">
     <g id="line2d_13">
      <path d="M 22.35 35.13508 
L 95.665652 35.13508 
" clip-path="url(#p6c89003846)" style="fill: none; stroke: #cccccc; stroke-width: 0.8; stroke-linecap: round"/>
     </g>
     <g id="text_13">
      <!-- 9 -->
      <g style="fill: #262626" transform="translate(13.10125 38.004455) scale(0.08 -0.08)">
       <defs>
        <path id="Helvetica-39" d="M 850 1081 
Q 875 616 1209 438 
Q 1381 344 1597 344 
Q 2000 344 2284 680 
Q 2569 1016 2688 2044 
Q 2500 1747 2223 1626 
Q 1947 1506 1628 1506 
Q 981 1506 604 1909 
Q 228 2313 228 2947 
Q 228 3556 600 4018 
Q 972 4481 1697 4481 
Q 2675 4481 3047 3600 
Q 3253 3116 3253 2388 
Q 3253 1566 3006 931 
Q 2597 -125 1619 -125 
Q 963 -125 622 219 
Q 281 563 281 1081 
L 850 1081 
z
M 1703 2000 
Q 2038 2000 2314 2220 
Q 2591 2441 2591 2991 
Q 2591 3484 2342 3726 
Q 2094 3969 1709 3969 
Q 1297 3969 1055 3692 
Q 813 3416 813 2953 
Q 813 2516 1025 2258 
Q 1238 2000 1703 2000 
z
" transform="scale(0.015625)"/>
       </defs>
       <use xlink:href="#Helvetica-39"/>
      </g>
     </g>
    </g>
    <g id="ytick_11">
     <g id="line2d_14">
      <path d="M 22.35 29.372311 
L 95.665652 29.372311 
" clip-path="url(#p6c89003846)" style="fill: none; stroke: #cccccc; stroke-width: 0.8; stroke-linecap: round"/>
     </g>
     <g id="text_14">
      <!-- 10 -->
      <g style="fill: #262626" transform="translate(8.6525 32.241686) scale(0.08 -0.08)">
       <use xlink:href="#Helvetica-31"/>
       <use xlink:href="#Helvetica-30" transform="translate(55.615234 0)"/>
      </g>
     </g>
    </g>
    <g id="ytick_12">
     <g id="line2d_15">
      <path d="M 22.35 23.609543 
L 95.665652 23.609543 
" clip-path="url(#p6c89003846)" style="fill: none; stroke: #cccccc; stroke-width: 0.8; stroke-linecap: round"/>
     </g>
     <g id="text_15">
      <!-- 11 -->
      <g style="fill: #262626" transform="translate(8.6525 26.478918) scale(0.08 -0.08)">
       <use xlink:href="#Helvetica-31"/>
       <use xlink:href="#Helvetica-31" transform="translate(55.615234 0)"/>
      </g>
     </g>
    </g>
   </g>
   <g id="PathCollection_1">
    <defs>
     <path id="mbf79ba493c" d="M 0 1.2 
C 0.318244 1.2 0.623496 1.07356 0.848528 0.848528 
C 1.07356 0.623496 1.2 0.318244 1.2 0 
C 1.2 -0.318244 1.07356 -0.623496 0.848528 -0.848528 
C 0.623496 -1.07356 0.318244 -1.2 0 -1.2 
C -0.318244 -1.2 -0.623496 -1.07356 -0.848528 -0.848528 
C -1.07356 -0.623496 -1.2 -0.318244 -1.2 0 
C -1.2 0.318244 -1.07356 0.623496 -0.848528 0.848528 
C -0.623496 1.07356 -0.318244 1.2 0 1.2 
z
" style="stroke: #000000; stroke-opacity: 0.5"/>
    </defs>
    <g clip-path="url(#p6c89003846)">
     <use xlink:href="#mbf79ba493c" x="91.875268" y="80.305622" style="fill-opacity: 0.5; stroke: #000000; stroke-opacity: 0.5"/>
     <use xlink:href="#mbf79ba493c" x="42.459642" y="81.123593" style="fill-opacity: 0.5; stroke: #000000; stroke-opacity: 0.5"/>
     <use xlink:href="#mbf79ba493c" x="91.875268" y="81.220344" style="fill-opacity: 0.5; stroke: #000000; stroke-opacity: 0.5"/>
     <use xlink:href="#mbf79ba493c" x="84.909332" y="69.372031" style="fill-opacity: 0.5; stroke: #000000; stroke-opacity: 0.5"/>
     <use xlink:href="#mbf79ba493c" x="34.577996" y="68.814418" style="fill-opacity: 0.5; stroke: #000000; stroke-opacity: 0.5"/>
     <use xlink:href="#mbf79ba493c" x="91.842564" y="80.26103" style="fill-opacity: 0.5; stroke: #000000; stroke-opacity: 0.5"/>
     <use xlink:href="#mbf79ba493c" x="40.464702" y="59.315213" style="fill-opacity: 0.5; stroke: #000000; stroke-opacity: 0.5"/>
     <use xlink:href="#mbf79ba493c" x="88.735691" y="81.256303" style="fill-opacity: 0.5; stroke: #000000; stroke-opacity: 0.5"/>
     <use xlink:href="#mbf79ba493c" x="25.68253" y="80.737993" style="fill-opacity: 0.5; stroke: #000000; stroke-opacity: 0.5"/>
     <use xlink:href="#mbf79ba493c" x="71.304501" y="74.909647" style="fill-opacity: 0.5; stroke: #000000; stroke-opacity: 0.5"/>
     <use xlink:href="#mbf79ba493c" x="29.149145" y="81.755073" style="fill-opacity: 0.5; stroke: #000000; stroke-opacity: 0.5"/>
     <use xlink:href="#mbf79ba493c" x="28.037212" y="81.345018" style="fill-opacity: 0.5; stroke: #000000; stroke-opacity: 0.5"/>
     <use xlink:href="#mbf79ba493c" x="25.747937" y="75.885644" style="fill-opacity: 0.5; stroke: #000000; stroke-opacity: 0.5"/>
     <use xlink:href="#mbf79ba493c" x="28.135324" y="41.960874" style="fill-opacity: 0.5; stroke: #000000; stroke-opacity: 0.5"/>
     <use xlink:href="#mbf79ba493c" x="92.006083" y="81.126374" style="fill-opacity: 0.5; stroke: #000000; stroke-opacity: 0.5"/>
     <use xlink:href="#mbf79ba493c" x="42.492346" y="81.184388" style="fill-opacity: 0.5; stroke: #000000; stroke-opacity: 0.5"/>
     <use xlink:href="#mbf79ba493c" x="92.104195" y="70.654819" style="fill-opacity: 0.5; stroke: #000000; stroke-opacity: 0.5"/>
     <use xlink:href="#mbf79ba493c" x="92.104195" y="76.098843" style="fill-opacity: 0.5; stroke: #000000; stroke-opacity: 0.5"/>
     <use xlink:href="#mbf79ba493c" x="42.459642" y="74.906988" style="fill-opacity: 0.5; stroke: #000000; stroke-opacity: 0.5"/>
     <use xlink:href="#mbf79ba493c" x="92.104195" y="69.822526" style="fill-opacity: 0.5; stroke: #000000; stroke-opacity: 0.5"/>
     <use xlink:href="#mbf79ba493c" x="26.827167" y="80.887623" style="fill-opacity: 0.5; stroke: #000000; stroke-opacity: 0.5"/>
     <use xlink:href="#mbf79ba493c" x="91.64634" y="51.653688" style="fill-opacity: 0.5; stroke: #000000; stroke-opacity: 0.5"/>
     <use xlink:href="#mbf79ba493c" x="91.80986" y="80.584549" style="fill-opacity: 0.5; stroke: #000000; stroke-opacity: 0.5"/>
     <use xlink:href="#mbf79ba493c" x="92.235011" y="80.722383" style="fill-opacity: 0.5; stroke: #000000; stroke-opacity: 0.5"/>
     <use xlink:href="#mbf79ba493c" x="92.333123" y="81.465768" style="fill-opacity: 0.5; stroke: #000000; stroke-opacity: 0.5"/>
     <use xlink:href="#mbf79ba493c" x="32.779281" y="75.564092" style="fill-opacity: 0.5; stroke: #000000; stroke-opacity: 0.5"/>
     <use xlink:href="#mbf79ba493c" x="31.111381" y="69.435056" style="fill-opacity: 0.5; stroke: #000000; stroke-opacity: 0.5"/>
     <use xlink:href="#mbf79ba493c" x="36.180489" y="75.344276" style="fill-opacity: 0.5; stroke: #000000; stroke-opacity: 0.5"/>
     <use xlink:href="#mbf79ba493c" x="26.402016" y="75.474483" style="fill-opacity: 0.5; stroke: #000000; stroke-opacity: 0.5"/>
     <use xlink:href="#mbf79ba493c" x="26.827167" y="76.425539" style="fill-opacity: 0.5; stroke: #000000; stroke-opacity: 0.5"/>
     <use xlink:href="#mbf79ba493c" x="25.911457" y="63.008363" style="fill-opacity: 0.5; stroke: #000000; stroke-opacity: 0.5"/>
     <use xlink:href="#mbf79ba493c" x="91.515524" y="30.444105" style="fill-opacity: 0.5; stroke: #000000; stroke-opacity: 0.5"/>
     <use xlink:href="#mbf79ba493c" x="29.868632" y="70.836951" style="fill-opacity: 0.5; stroke: #000000; stroke-opacity: 0.5"/>
     <use xlink:href="#mbf79ba493c" x="77.485542" y="81.307018" style="fill-opacity: 0.5; stroke: #000000; stroke-opacity: 0.5"/>
     <use xlink:href="#mbf79ba493c" x="28.560475" y="57.09721" style="fill-opacity: 0.5; stroke: #000000; stroke-opacity: 0.5"/>
     <use xlink:href="#mbf79ba493c" x="69.015226" y="52.860112" style="fill-opacity: 0.5; stroke: #000000; stroke-opacity: 0.5"/>
     <use xlink:href="#mbf79ba493c" x="66.497024" y="36.181771" style="fill-opacity: 0.5; stroke: #000000; stroke-opacity: 0.5"/>
     <use xlink:href="#mbf79ba493c" x="91.711748" y="81.976854" style="fill-opacity: 0.5; stroke: #000000; stroke-opacity: 0.5"/>
     <use xlink:href="#mbf79ba493c" x="26.761759" y="75.777451" style="fill-opacity: 0.5; stroke: #000000; stroke-opacity: 0.5"/>
     <use xlink:href="#mbf79ba493c" x="27.644765" y="69.640057" style="fill-opacity: 0.5; stroke: #000000; stroke-opacity: 0.5"/>
     <use xlink:href="#mbf79ba493c" x="72.220211" y="80.303802" style="fill-opacity: 0.5; stroke: #000000; stroke-opacity: 0.5"/>
     <use xlink:href="#mbf79ba493c" x="92.333123" y="80.255292" style="fill-opacity: 0.5; stroke: #000000; stroke-opacity: 0.5"/>
     <use xlink:href="#mbf79ba493c" x="88.735691" y="81.245271" style="fill-opacity: 0.5; stroke: #000000; stroke-opacity: 0.5"/>
     <use xlink:href="#mbf79ba493c" x="27.742877" y="41.256645" style="fill-opacity: 0.5; stroke: #000000; stroke-opacity: 0.5"/>
     <use xlink:href="#mbf79ba493c" x="26.663647" y="81.138317" style="fill-opacity: 0.5; stroke: #000000; stroke-opacity: 0.5"/>
     <use xlink:href="#mbf79ba493c" x="92.202307" y="80.424455" style="fill-opacity: 0.5; stroke: #000000; stroke-opacity: 0.5"/>
     <use xlink:href="#mbf79ba493c" x="31.994387" y="57.358697" style="fill-opacity: 0.5; stroke: #000000; stroke-opacity: 0.5"/>
     <use xlink:href="#mbf79ba493c" x="66.693248" y="40.547136" style="fill-opacity: 0.5; stroke: #000000; stroke-opacity: 0.5"/>
     <use xlink:href="#mbf79ba493c" x="25.68253" y="45.745358" style="fill-opacity: 0.5; stroke: #000000; stroke-opacity: 0.5"/>
     <use xlink:href="#mbf79ba493c" x="29.149145" y="75.484698" style="fill-opacity: 0.5; stroke: #000000; stroke-opacity: 0.5"/>
     <use xlink:href="#mbf79ba493c" x="73.037809" y="80.58707" style="fill-opacity: 0.5; stroke: #000000; stroke-opacity: 0.5"/>
     <use xlink:href="#mbf79ba493c" x="28.168028" y="75.934823" style="fill-opacity: 0.5; stroke: #000000; stroke-opacity: 0.5"/>
     <use xlink:href="#mbf79ba493c" x="35.330187" y="81.556923" style="fill-opacity: 0.5; stroke: #000000; stroke-opacity: 0.5"/>
     <use xlink:href="#mbf79ba493c" x="29.149145" y="74.605965" style="fill-opacity: 0.5; stroke: #000000; stroke-opacity: 0.5"/>
     <use xlink:href="#mbf79ba493c" x="72.808881" y="82.059259" style="fill-opacity: 0.5; stroke: #000000; stroke-opacity: 0.5"/>
     <use xlink:href="#mbf79ba493c" x="29.149145" y="81.82761" style="fill-opacity: 0.5; stroke: #000000; stroke-opacity: 0.5"/>
     <use xlink:href="#mbf79ba493c" x="26.107681" y="64.787117" style="fill-opacity: 0.5; stroke: #000000; stroke-opacity: 0.5"/>
     <use xlink:href="#mbf79ba493c" x="32.125202" y="63.304082" style="fill-opacity: 0.5; stroke: #000000; stroke-opacity: 0.5"/>
     <use xlink:href="#mbf79ba493c" x="26.303904" y="57.918403" style="fill-opacity: 0.5; stroke: #000000; stroke-opacity: 0.5"/>
     <use xlink:href="#mbf79ba493c" x="77.485542" y="74.617573" style="fill-opacity: 0.5; stroke: #000000; stroke-opacity: 0.5"/>
     <use xlink:href="#mbf79ba493c" x="29.149145" y="76.305302" style="fill-opacity: 0.5; stroke: #000000; stroke-opacity: 0.5"/>
     <use xlink:href="#mbf79ba493c" x="27.383134" y="81.563326" style="fill-opacity: 0.5; stroke: #000000; stroke-opacity: 0.5"/>
     <use xlink:href="#mbf79ba493c" x="26.042273" y="75.496613" style="fill-opacity: 0.5; stroke: #000000; stroke-opacity: 0.5"/>
     <use xlink:href="#mbf79ba493c" x="28.168028" y="68.903882" style="fill-opacity: 0.5; stroke: #000000; stroke-opacity: 0.5"/>
     <use xlink:href="#mbf79ba493c" x="25.68253" y="64.723239" style="fill-opacity: 0.5; stroke: #000000; stroke-opacity: 0.5"/>
     <use xlink:href="#mbf79ba493c" x="27.383134" y="34.273583" style="fill-opacity: 0.5; stroke: #000000; stroke-opacity: 0.5"/>
     <use xlink:href="#mbf79ba493c" x="31.994387" y="81.034612" style="fill-opacity: 0.5; stroke: #000000; stroke-opacity: 0.5"/>
     <use xlink:href="#mbf79ba493c" x="26.630943" y="30.193814" style="fill-opacity: 0.5; stroke: #000000; stroke-opacity: 0.5"/>
     <use xlink:href="#mbf79ba493c" x="92.136899" y="70.400654" style="fill-opacity: 0.5; stroke: #000000; stroke-opacity: 0.5"/>
     <use xlink:href="#mbf79ba493c" x="44.454581" y="81.757795" style="fill-opacity: 0.5; stroke: #000000; stroke-opacity: 0.5"/>
     <use xlink:href="#mbf79ba493c" x="25.976865" y="80.97375" style="fill-opacity: 0.5; stroke: #000000; stroke-opacity: 0.5"/>
     <use xlink:href="#mbf79ba493c" x="25.944161" y="76.167823" style="fill-opacity: 0.5; stroke: #000000; stroke-opacity: 0.5"/>
     <use xlink:href="#mbf79ba493c" x="32.059794" y="58.448315" style="fill-opacity: 0.5; stroke: #000000; stroke-opacity: 0.5"/>
     <use xlink:href="#mbf79ba493c" x="73.528367" y="70.744716" style="fill-opacity: 0.5; stroke: #000000; stroke-opacity: 0.5"/>
     <use xlink:href="#mbf79ba493c" x="69.015226" y="59.313322" style="fill-opacity: 0.5; stroke: #000000; stroke-opacity: 0.5"/>
     <use xlink:href="#mbf79ba493c" x="41.642044" y="81.62139" style="fill-opacity: 0.5; stroke: #000000; stroke-opacity: 0.5"/>
     <use xlink:href="#mbf79ba493c" x="26.532832" y="52.198215" style="fill-opacity: 0.5; stroke: #000000; stroke-opacity: 0.5"/>
     <use xlink:href="#mbf79ba493c" x="28.625883" y="41.578144" style="fill-opacity: 0.5; stroke: #000000; stroke-opacity: 0.5"/>
     <use xlink:href="#mbf79ba493c" x="27.612061" y="47.606861" style="fill-opacity: 0.5; stroke: #000000; stroke-opacity: 0.5"/>
     <use xlink:href="#mbf79ba493c" x="27.383134" y="68.912457" style="fill-opacity: 0.5; stroke: #000000; stroke-opacity: 0.5"/>
     <use xlink:href="#mbf79ba493c" x="32.059794" y="75.912038" style="fill-opacity: 0.5; stroke: #000000; stroke-opacity: 0.5"/>
     <use xlink:href="#mbf79ba493c" x="29.149145" y="76.495971" style="fill-opacity: 0.5; stroke: #000000; stroke-opacity: 0.5"/>
     <use xlink:href="#mbf79ba493c" x="28.560475" y="63.968187" style="fill-opacity: 0.5; stroke: #000000; stroke-opacity: 0.5"/>
     <use xlink:href="#mbf79ba493c" x="28.985626" y="70.054874" style="fill-opacity: 0.5; stroke: #000000; stroke-opacity: 0.5"/>
     <use xlink:href="#mbf79ba493c" x="26.859871" y="70.49996" style="fill-opacity: 0.5; stroke: #000000; stroke-opacity: 0.5"/>
     <use xlink:href="#mbf79ba493c" x="73.234032" y="40.031868" style="fill-opacity: 0.5; stroke: #000000; stroke-opacity: 0.5"/>
     <use xlink:href="#mbf79ba493c" x="30.882453" y="53.42522" style="fill-opacity: 0.5; stroke: #000000; stroke-opacity: 0.5"/>
     <use xlink:href="#mbf79ba493c" x="37.488645" y="70.345956" style="fill-opacity: 0.5; stroke: #000000; stroke-opacity: 0.5"/>
     <use xlink:href="#mbf79ba493c" x="26.990687" y="34.102777" style="fill-opacity: 0.5; stroke: #000000; stroke-opacity: 0.5"/>
     <use xlink:href="#mbf79ba493c" x="29.868632" y="47.155623" style="fill-opacity: 0.5; stroke: #000000; stroke-opacity: 0.5"/>
     <use xlink:href="#mbf79ba493c" x="30.195671" y="80.244234" style="fill-opacity: 0.5; stroke: #000000; stroke-opacity: 0.5"/>
     <use xlink:href="#mbf79ba493c" x="32.713873" y="64.129946" style="fill-opacity: 0.5; stroke: #000000; stroke-opacity: 0.5"/>
     <use xlink:href="#mbf79ba493c" x="27.252318" y="40.248279" style="fill-opacity: 0.5; stroke: #000000; stroke-opacity: 0.5"/>
     <use xlink:href="#mbf79ba493c" x="27.873692" y="76.038503" style="fill-opacity: 0.5; stroke: #000000; stroke-opacity: 0.5"/>
     <use xlink:href="#mbf79ba493c" x="89.749513" y="74.445693" style="fill-opacity: 0.5; stroke: #000000; stroke-opacity: 0.5"/>
     <use xlink:href="#mbf79ba493c" x="26.238496" y="82.118054" style="fill-opacity: 0.5; stroke: #000000; stroke-opacity: 0.5"/>
     <use xlink:href="#mbf79ba493c" x="25.68253" y="81.97722" style="fill-opacity: 0.5; stroke: #000000; stroke-opacity: 0.5"/>
     <use xlink:href="#mbf79ba493c" x="33.302543" y="23.349358" style="fill-opacity: 0.5; stroke: #000000; stroke-opacity: 0.5"/>
     <use xlink:href="#mbf79ba493c" x="90.697926" y="57.298793" style="fill-opacity: 0.5; stroke: #000000; stroke-opacity: 0.5"/>
     <use xlink:href="#mbf79ba493c" x="28.985626" y="69.984466" style="fill-opacity: 0.5; stroke: #000000; stroke-opacity: 0.5"/>
     <use xlink:href="#mbf79ba493c" x="54.069534" y="51.398138" style="fill-opacity: 0.5; stroke: #000000; stroke-opacity: 0.5"/>
     <use xlink:href="#mbf79ba493c" x="26.729055" y="81.600765" style="fill-opacity: 0.5; stroke: #000000; stroke-opacity: 0.5"/>
     <use xlink:href="#mbf79ba493c" x="32.648465" y="30.261149" style="fill-opacity: 0.5; stroke: #000000; stroke-opacity: 0.5"/>
     <use xlink:href="#mbf79ba493c" x="92.071491" y="53.395827" style="fill-opacity: 0.5; stroke: #000000; stroke-opacity: 0.5"/>
     <use xlink:href="#mbf79ba493c" x="32.648465" y="68.703663" style="fill-opacity: 0.5; stroke: #000000; stroke-opacity: 0.5"/>
     <use xlink:href="#mbf79ba493c" x="50.962661" y="81.009323" style="fill-opacity: 0.5; stroke: #000000; stroke-opacity: 0.5"/>
     <use xlink:href="#mbf79ba493c" x="40.595518" y="82.336515" style="fill-opacity: 0.5; stroke: #000000; stroke-opacity: 0.5"/>
     <use xlink:href="#mbf79ba493c" x="29.051034" y="76.418978" style="fill-opacity: 0.5; stroke: #000000; stroke-opacity: 0.5"/>
     <use xlink:href="#mbf79ba493c" x="48.804202" y="81.434332" style="fill-opacity: 0.5; stroke: #000000; stroke-opacity: 0.5"/>
     <use xlink:href="#mbf79ba493c" x="48.804202" y="74.606405" style="fill-opacity: 0.5; stroke: #000000; stroke-opacity: 0.5"/>
     <use xlink:href="#mbf79ba493c" x="42.394234" y="81.221461" style="fill-opacity: 0.5; stroke: #000000; stroke-opacity: 0.5"/>
     <use xlink:href="#mbf79ba493c" x="44.879732" y="81.21311" style="fill-opacity: 0.5; stroke: #000000; stroke-opacity: 0.5"/>
     <use xlink:href="#mbf79ba493c" x="42.328826" y="82.266101" style="fill-opacity: 0.5; stroke: #000000; stroke-opacity: 0.5"/>
     <use xlink:href="#mbf79ba493c" x="40.69363" y="81.515902" style="fill-opacity: 0.5; stroke: #000000; stroke-opacity: 0.5"/>
     <use xlink:href="#mbf79ba493c" x="39.843328" y="81.285604" style="fill-opacity: 0.5; stroke: #000000; stroke-opacity: 0.5"/>
     <use xlink:href="#mbf79ba493c" x="48.379051" y="76.203314" style="fill-opacity: 0.5; stroke: #000000; stroke-opacity: 0.5"/>
     <use xlink:href="#mbf79ba493c" x="39.189249" y="52.560525" style="fill-opacity: 0.5; stroke: #000000; stroke-opacity: 0.5"/>
     <use xlink:href="#mbf79ba493c" x="39.156545" y="63.558856" style="fill-opacity: 0.5; stroke: #000000; stroke-opacity: 0.5"/>
     <use xlink:href="#mbf79ba493c" x="31.798163" y="82.044697" style="fill-opacity: 0.5; stroke: #000000; stroke-opacity: 0.5"/>
     <use xlink:href="#mbf79ba493c" x="31.798163" y="63.705213" style="fill-opacity: 0.5; stroke: #000000; stroke-opacity: 0.5"/>
     <use xlink:href="#mbf79ba493c" x="85.203668" y="81.739113" style="fill-opacity: 0.5; stroke: #000000; stroke-opacity: 0.5"/>
     <use xlink:href="#mbf79ba493c" x="85.72693" y="40.315732" style="fill-opacity: 0.5; stroke: #000000; stroke-opacity: 0.5"/>
     <use xlink:href="#mbf79ba493c" x="85.530707" y="39.778545" style="fill-opacity: 0.5; stroke: #000000; stroke-opacity: 0.5"/>
    </g>
   </g>
   <g id="FillBetweenPolyCollection_1">
    <defs>
     <path id="m09f4a3a2e5" d="M 25.68253 -44.542395 
L 25.68253 -37.559591 
L 26.355768 -37.553706 
L 27.029006 -37.540037 
L 27.702245 -37.524341 
L 28.375483 -37.567994 
L 29.048721 -37.573499 
L 29.72196 -37.567678 
L 30.395198 -37.559338 
L 31.068436 -37.551671 
L 31.741674 -37.544556 
L 32.414913 -37.56157 
L 33.088151 -37.591595 
L 33.761389 -37.574897 
L 34.434628 -37.549704 
L 35.107866 -37.554541 
L 35.781104 -37.557201 
L 36.454343 -37.556565 
L 37.127581 -37.562 
L 37.800819 -37.52939 
L 38.474058 -37.526649 
L 39.147296 -37.490237 
L 39.820534 -37.454224 
L 40.493773 -37.444999 
L 41.167011 -37.472131 
L 41.840249 -37.476626 
L 42.513487 -37.445782 
L 43.186726 -37.409929 
L 43.859964 -37.383653 
L 44.533202 -37.347658 
L 45.206441 -37.332714 
L 45.879679 -37.314876 
L 46.552917 -37.259825 
L 47.226156 -37.199472 
L 47.899394 -37.123778 
L 48.572632 -37.062387 
L 49.245871 -37.012312 
L 49.919109 -36.995643 
L 50.592347 -36.979406 
L 51.265585 -36.929817 
L 51.938824 -36.838353 
L 52.612062 -36.783064 
L 53.2853 -36.736203 
L 53.958539 -36.703296 
L 54.631777 -36.670389 
L 55.305015 -36.637482 
L 55.978254 -36.576699 
L 56.651492 -36.51329 
L 57.32473 -36.430855 
L 57.997969 -36.394866 
L 58.671207 -36.358926 
L 59.344445 -36.31207 
L 60.017684 -36.262741 
L 60.690922 -36.215633 
L 61.36416 -36.134557 
L 62.037398 -36.074488 
L 62.710637 -36.005352 
L 63.383875 -35.913127 
L 64.057113 -35.820901 
L 64.730352 -35.728676 
L 65.40359 -35.630906 
L 66.076828 -35.526892 
L 66.750067 -35.433466 
L 67.423305 -35.354213 
L 68.096543 -35.257946 
L 68.769782 -35.174672 
L 69.44302 -35.08237 
L 70.116258 -34.991042 
L 70.789497 -34.914522 
L 71.462735 -34.823381 
L 72.135973 -34.729639 
L 72.809211 -34.636016 
L 73.48245 -34.542392 
L 74.155688 -34.448768 
L 74.828926 -34.352857 
L 75.502165 -34.267502 
L 76.175403 -34.197226 
L 76.848641 -34.12695 
L 77.52188 -34.044269 
L 78.195118 -33.952658 
L 78.868356 -33.861047 
L 79.541595 -33.790297 
L 80.214833 -33.714898 
L 80.888071 -33.608036 
L 81.56131 -33.501721 
L 82.234548 -33.406848 
L 82.907786 -33.307321 
L 83.581024 -33.214546 
L 84.254263 -33.121923 
L 84.927501 -33.029305 
L 85.600739 -32.937036 
L 86.273978 -32.833482 
L 86.947216 -32.704848 
L 87.620454 -32.611829 
L 88.293693 -32.49574 
L 88.966931 -32.403327 
L 89.640169 -32.310913 
L 90.313408 -32.218596 
L 90.986646 -32.126255 
L 91.659884 -32.033863 
L 92.333123 -31.941261 
L 92.333123 -42.954608 
L 92.333123 -42.954608 
L 91.659884 -42.923992 
L 90.986646 -42.893376 
L 90.313408 -42.86276 
L 89.640169 -42.85502 
L 88.966931 -42.821847 
L 88.293693 -42.808502 
L 87.620454 -42.798371 
L 86.947216 -42.786272 
L 86.273978 -42.75501 
L 85.600739 -42.70016 
L 84.927501 -42.721669 
L 84.254263 -42.70555 
L 83.581024 -42.666417 
L 82.907786 -42.629726 
L 82.234548 -42.612118 
L 81.56131 -42.59414 
L 80.888071 -42.575525 
L 80.214833 -42.566857 
L 79.541595 -42.538956 
L 78.868356 -42.521428 
L 78.195118 -42.503899 
L 77.52188 -42.486371 
L 76.848641 -42.467549 
L 76.175403 -42.412434 
L 75.502165 -42.405057 
L 74.828926 -42.401488 
L 74.155688 -42.396194 
L 73.48245 -42.378772 
L 72.809211 -42.36135 
L 72.135973 -42.343928 
L 71.462735 -42.330526 
L 70.789497 -42.319368 
L 70.116258 -42.30872 
L 69.44302 -42.272343 
L 68.769782 -42.254762 
L 68.096543 -42.237181 
L 67.423305 -42.221331 
L 66.750067 -42.225842 
L 66.076828 -42.214501 
L 65.40359 -42.203988 
L 64.730352 -42.183864 
L 64.057113 -42.173839 
L 63.383875 -42.148822 
L 62.710637 -42.119409 
L 62.037398 -42.08998 
L 61.36416 -42.06055 
L 60.690922 -42.034709 
L 60.017684 -42.001966 
L 59.344445 -42.004973 
L 58.671207 -42.009358 
L 57.997969 -42.00779 
L 57.32473 -42.038528 
L 56.651492 -42.108327 
L 55.978254 -42.108675 
L 55.305015 -42.125702 
L 54.631777 -42.157912 
L 53.958539 -42.17929 
L 53.2853 -42.154825 
L 52.612062 -42.179557 
L 51.938824 -42.182495 
L 51.265585 -42.219728 
L 50.592347 -42.225915 
L 49.919109 -42.231515 
L 49.245871 -42.2796 
L 48.572632 -42.30939 
L 47.899394 -42.361475 
L 47.226156 -42.390898 
L 46.552917 -42.395824 
L 45.879679 -42.465838 
L 45.206441 -42.499039 
L 44.533202 -42.531933 
L 43.859964 -42.564827 
L 43.186726 -42.607338 
L 42.513487 -42.664894 
L 41.840249 -42.722451 
L 41.167011 -42.78073 
L 40.493773 -42.842343 
L 39.820534 -42.896726 
L 39.147296 -42.954189 
L 38.474058 -43.024801 
L 37.800819 -43.096575 
L 37.127581 -43.203081 
L 36.454343 -43.29851 
L 35.781104 -43.373888 
L 35.107866 -43.468551 
L 34.434628 -43.575826 
L 33.761389 -43.682646 
L 33.088151 -43.747949 
L 32.414913 -43.842201 
L 31.741674 -43.935139 
L 31.068436 -43.985685 
L 30.395198 -44.041557 
L 29.72196 -44.106106 
L 29.048721 -44.158167 
L 28.375483 -44.252081 
L 27.702245 -44.332628 
L 27.029006 -44.385439 
L 26.355768 -44.459854 
L 25.68253 -44.542395 
z
" style="stroke: #ffffff; stroke-opacity: 0.15; stroke-width: 0.8"/>
    </defs>
    <g clip-path="url(#p6c89003846)">
     <use xlink:href="#m09f4a3a2e5" x="0" y="108" style="fill-opacity: 0.15; stroke: #ffffff; stroke-opacity: 0.15; stroke-width: 0.8"/>
    </g>
   </g>
   <g id="line2d_16">
    <path d="M 25.68253 67.124122 
L 26.355768 67.158395 
L 27.029006 67.192668 
L 27.702245 67.22694 
L 28.375483 67.261213 
L 29.048721 67.295486 
L 29.72196 67.329758 
L 30.395198 67.364031 
L 31.068436 67.398303 
L 31.741674 67.432576 
L 32.414913 67.466849 
L 33.088151 67.501121 
L 33.761389 67.535394 
L 34.434628 67.569667 
L 35.107866 67.603939 
L 35.781104 67.638212 
L 36.454343 67.672485 
L 37.127581 67.706757 
L 37.800819 67.74103 
L 38.474058 67.775302 
L 39.147296 67.809575 
L 39.820534 67.843848 
L 40.493773 67.87812 
L 41.167011 67.912393 
L 41.840249 67.946666 
L 42.513487 67.980938 
L 43.186726 68.015211 
L 43.859964 68.049484 
L 44.533202 68.083756 
L 45.206441 68.118029 
L 45.879679 68.152301 
L 46.552917 68.186574 
L 47.226156 68.220847 
L 47.899394 68.255119 
L 48.572632 68.289392 
L 49.245871 68.323665 
L 49.919109 68.357937 
L 50.592347 68.39221 
L 51.265585 68.426483 
L 51.938824 68.460755 
L 52.612062 68.495028 
L 53.2853 68.5293 
L 53.958539 68.563573 
L 54.631777 68.597846 
L 55.305015 68.632118 
L 55.978254 68.666391 
L 56.651492 68.700664 
L 57.32473 68.734936 
L 57.997969 68.769209 
L 58.671207 68.803482 
L 59.344445 68.837754 
L 60.017684 68.872027 
L 60.690922 68.906299 
L 61.36416 68.940572 
L 62.037398 68.974845 
L 62.710637 69.009117 
L 63.383875 69.04339 
L 64.057113 69.077663 
L 64.730352 69.111935 
L 65.40359 69.146208 
L 66.076828 69.180481 
L 66.750067 69.214753 
L 67.423305 69.249026 
L 68.096543 69.283298 
L 68.769782 69.317571 
L 69.44302 69.351844 
L 70.116258 69.386116 
L 70.789497 69.420389 
L 71.462735 69.454662 
L 72.135973 69.488934 
L 72.809211 69.523207 
L 73.48245 69.55748 
L 74.155688 69.591752 
L 74.828926 69.626025 
L 75.502165 69.660297 
L 76.175403 69.69457 
L 76.848641 69.728843 
L 77.52188 69.763115 
L 78.195118 69.797388 
L 78.868356 69.831661 
L 79.541595 69.865933 
L 80.214833 69.900206 
L 80.888071 69.934479 
L 81.56131 69.968751 
L 82.234548 70.003024 
L 82.907786 70.037296 
L 83.581024 70.071569 
L 84.254263 70.105842 
L 84.927501 70.140114 
L 85.600739 70.174387 
L 86.273978 70.20866 
L 86.947216 70.242932 
L 87.620454 70.277205 
L 88.293693 70.311478 
L 88.966931 70.34575 
L 89.640169 70.380023 
L 90.313408 70.414296 
L 90.986646 70.448568 
L 91.659884 70.482841 
L 92.333123 70.517113 
" clip-path="url(#p6c89003846)" style="fill: none; stroke: #000000; stroke-width: 1.8; stroke-linecap: round"/>
   </g>
   <g id="patch_3">
    <path d="M 22.35 87 
L 22.35 20.4 
" style="fill: none; stroke: #cccccc; stroke-linejoin: miter; stroke-linecap: square"/>
   </g>
   <g id="patch_4">
    <path d="M 95.665652 87 
L 95.665652 20.4 
" style="fill: none; stroke: #cccccc; stroke-linejoin: miter; stroke-linecap: square"/>
   </g>
   <g id="patch_5">
    <path d="M 22.35 87 
L 95.665652 87 
" style="fill: none; stroke: #cccccc; stroke-linejoin: miter; stroke-linecap: square"/>
   </g>
   <g id="patch_6">
    <path d="M 22.35 20.4 
L 95.665652 20.4 
" style="fill: none; stroke: #cccccc; stroke-linejoin: miter; stroke-linecap: square"/>
   </g>
   <g id="text_16">
    <!-- ('rho = -0.17 p=5.60e-02',) -->
    <g style="fill: #262626" transform="translate(12.788451 14.4) scale(0.08 -0.08)">
     <defs>
      <path id="Helvetica-28" d="M 1894 4666 
Q 1403 3713 1256 3263 
Q 1034 2578 1034 1681 
Q 1034 775 1288 25 
Q 1444 -438 1903 -1306 
L 1525 -1306 
Q 1069 -594 959 -397 
Q 850 -200 722 138 
Q 547 600 478 1125 
Q 444 1397 444 1644 
Q 444 2569 734 3291 
Q 919 3750 1503 4666 
L 1894 4666 
z
" transform="scale(0.015625)"/>
      <path id="Helvetica-27" d="M 1056 4591 
L 953 2753 
L 591 2753 
L 488 4591 
L 1056 4591 
z
" transform="scale(0.015625)"/>
      <path id="Helvetica-72" d="M 428 3347 
L 963 3347 
L 963 2769 
Q 1028 2938 1284 3180 
Q 1541 3422 1875 3422 
Q 1891 3422 1928 3419 
Q 1966 3416 2056 3406 
L 2056 2813 
Q 2006 2822 1964 2825 
Q 1922 2828 1872 2828 
Q 1447 2828 1219 2554 
Q 991 2281 991 1925 
L 991 0 
L 428 0 
L 428 3347 
z
" transform="scale(0.015625)"/>
      <path id="Helvetica-68" d="M 413 4606 
L 975 4606 
L 975 2894 
Q 1175 3147 1334 3250 
Q 1606 3428 2013 3428 
Q 2741 3428 3000 2919 
Q 3141 2641 3141 2147 
L 3141 0 
L 2563 0 
L 2563 2109 
Q 2563 2478 2469 2650 
Q 2316 2925 1894 2925 
Q 1544 2925 1259 2684 
Q 975 2444 975 1775 
L 975 0 
L 413 0 
L 413 4606 
z
" transform="scale(0.015625)"/>
      <path id="Helvetica-6f" d="M 1741 363 
Q 2300 363 2508 786 
Q 2716 1209 2716 1728 
Q 2716 2197 2566 2491 
Q 2328 2953 1747 2953 
Q 1231 2953 997 2559 
Q 763 2166 763 1609 
Q 763 1075 997 719 
Q 1231 363 1741 363 
z
M 1763 3444 
Q 2409 3444 2856 3012 
Q 3303 2581 3303 1744 
Q 3303 934 2909 406 
Q 2516 -122 1688 -122 
Q 997 -122 590 345 
Q 184 813 184 1600 
Q 184 2444 612 2944 
Q 1041 3444 1763 3444 
z
M 1744 3428 
L 1744 3428 
z
" transform="scale(0.015625)"/>
      <path id="Helvetica-20" transform="scale(0.015625)"/>
      <path id="Helvetica-3d" d="M 3547 2569 
L 3547 2044 
L 288 2044 
L 288 2569 
L 3547 2569 
z
M 3547 1228 
L 3547 694 
L 288 694 
L 288 1228 
L 3547 1228 
z
" transform="scale(0.015625)"/>
      <path id="Helvetica-2d" d="M 266 2072 
L 1834 2072 
L 1834 1494 
L 266 1494 
L 266 2072 
z
" transform="scale(0.015625)"/>
      <path id="Helvetica-2e" d="M 547 681 
L 1200 681 
L 1200 0 
L 547 0 
L 547 681 
z
" transform="scale(0.015625)"/>
      <path id="Helvetica-70" d="M 1825 378 
Q 2219 378 2480 708 
Q 2741 1038 2741 1694 
Q 2741 2094 2625 2381 
Q 2406 2934 1825 2934 
Q 1241 2934 1025 2350 
Q 909 2038 909 1556 
Q 909 1169 1025 897 
Q 1244 378 1825 378 
z
M 369 3331 
L 916 3331 
L 916 2888 
Q 1084 3116 1284 3241 
Q 1569 3428 1953 3428 
Q 2522 3428 2919 2992 
Q 3316 2556 3316 1747 
Q 3316 653 2744 184 
Q 2381 -113 1900 -113 
Q 1522 -113 1266 53 
Q 1116 147 931 375 
L 931 -1334 
L 369 -1334 
L 369 3331 
z
" transform="scale(0.015625)"/>
      <path id="Helvetica-65" d="M 1806 3422 
Q 2163 3422 2497 3255 
Q 2831 3088 3006 2822 
Q 3175 2569 3231 2231 
Q 3281 2000 3281 1494 
L 828 1494 
Q 844 984 1069 676 
Q 1294 369 1766 369 
Q 2206 369 2469 659 
Q 2619 828 2681 1050 
L 3234 1050 
Q 3213 866 3089 639 
Q 2966 413 2813 269 
Q 2556 19 2178 -69 
Q 1975 -119 1719 -119 
Q 1094 -119 659 336 
Q 225 791 225 1609 
Q 225 2416 662 2919 
Q 1100 3422 1806 3422 
z
M 2703 1941 
Q 2669 2306 2544 2525 
Q 2313 2931 1772 2931 
Q 1384 2931 1121 2651 
Q 859 2372 844 1941 
L 2703 1941 
z
M 1753 3428 
L 1753 3428 
z
" transform="scale(0.015625)"/>
      <path id="Helvetica-2c" d="M 531 -653 
Q 747 -616 834 -350 
Q 881 -209 881 -78 
Q 881 -56 879 -39 
Q 878 -22 872 0 
L 531 0 
L 531 681 
L 1200 681 
L 1200 50 
Q 1200 -322 1050 -603 
Q 900 -884 531 -950 
L 531 -653 
z
" transform="scale(0.015625)"/>
      <path id="Helvetica-29" d="M 222 -1306 
Q 719 -338 863 106 
Q 1081 778 1081 1681 
Q 1081 2584 828 3334 
Q 672 3797 213 4666 
L 591 4666 
Q 1072 3897 1173 3717 
Q 1275 3538 1394 3222 
Q 1544 2831 1608 2450 
Q 1672 2069 1672 1716 
Q 1672 791 1378 66 
Q 1194 -400 613 -1306 
L 222 -1306 
z
" transform="scale(0.015625)"/>
     </defs>
     <use xlink:href="#Helvetica-28"/>
     <use xlink:href="#Helvetica-27" transform="translate(33.300781 0)"/>
     <use xlink:href="#Helvetica-72" transform="translate(52.392578 0)"/>
     <use xlink:href="#Helvetica-68" transform="translate(85.693359 0)"/>
     <use xlink:href="#Helvetica-6f" transform="translate(141.308594 0)"/>
     <use xlink:href="#Helvetica-20" transform="translate(196.923828 0)"/>
     <use xlink:href="#Helvetica-3d" transform="translate(224.707031 0)"/>
     <use xlink:href="#Helvetica-20" transform="translate(283.105469 0)"/>
     <use xlink:href="#Helvetica-2d" transform="translate(310.888672 0)"/>
     <use xlink:href="#Helvetica-30" transform="translate(344.189453 0)"/>
     <use xlink:href="#Helvetica-2e" transform="translate(399.804688 0)"/>
     <use xlink:href="#Helvetica-31" transform="translate(427.587891 0)"/>
     <use xlink:href="#Helvetica-37" transform="translate(483.203125 0)"/>
     <use xlink:href="#Helvetica-20" transform="translate(538.818359 0)"/>
     <use xlink:href="#Helvetica-70" transform="translate(566.601562 0)"/>
     <use xlink:href="#Helvetica-3d" transform="translate(622.216797 0)"/>
     <use xlink:href="#Helvetica-35" transform="translate(680.615234 0)"/>
     <use xlink:href="#Helvetica-2e" transform="translate(736.230469 0)"/>
     <use xlink:href="#Helvetica-36" transform="translate(764.013672 0)"/>
     <use xlink:href="#Helvetica-30" transform="translate(819.628906 0)"/>
     <use xlink:href="#Helvetica-65" transform="translate(875.244141 0)"/>
     <use xlink:href="#Helvetica-2d" transform="translate(930.859375 0)"/>
     <use xlink:href="#Helvetica-30" transform="translate(964.160156 0)"/>
     <use xlink:href="#Helvetica-32" transform="translate(1019.775391 0)"/>
     <use xlink:href="#Helvetica-27" transform="translate(1075.390625 0)"/>
     <use xlink:href="#Helvetica-2c" transform="translate(1094.482422 0)"/>
     <use xlink:href="#Helvetica-29" transform="translate(1122.265625 0)"/>
    </g>
   </g>
  </g>
 </g>
 <defs>
  <clipPath id="p6c89003846">
   <rect x="22.35" y="20.4" width="73.315652" height="66.6"/>
  </clipPath>
 </defs>
</svg>
