<?xml version="1.0" encoding="utf-8" standalone="no"?>
<!DOCTYPE svg PUBLIC "-//W3C//DTD SVG 1.1//EN"
  "http://www.w3.org/Graphics/SVG/1.1/DTD/svg11.dtd">
<svg xmlns:xlink="http://www.w3.org/1999/xlink" width="108pt" height="108pt" viewBox="0 0 108 108" xmlns="http://www.w3.org/2000/svg" version="1.1">
 <metadata>
  <rdf:RDF xmlns:dc="http://purl.org/dc/elements/1.1/" xmlns:cc="http://creativecommons.org/ns#" xmlns:rdf="http://www.w3.org/1999/02/22-rdf-syntax-ns#">
   <cc:Work>
    <dc:type rdf:resource="http://purl.org/dc/dcmitype/StillImage"/>
    <dc:date>2025-03-07T14:44:40.976137</dc:date>
    <dc:format>image/svg+xml</dc:format>
    <dc:creator>
     <cc:Agent>
      <dc:title>Matplotlib v3.10.0, https://matplotlib.org/</dc:title>
     </cc:Agent>
    </dc:creator>
   </cc:Work>
  </rdf:RDF>
 </metadata>
 <defs>
  <style type="text/css">*{stroke-linejoin: round; stroke-linecap: butt}</style>
 </defs>
 <g id="figure_1">
  <g id="patch_1">
   <path d="M 0 108 
L 108 108 
L 108 0 
L 0 0 
z
" style="fill: #ffffff"/>
  </g>
  <g id="axes_1">
   <g id="patch_2">
    <path d="M 22.35 87 
L 99.36 87 
L 99.36 20.4 
L 22.35 20.4 
z
" style="fill: #ffffff"/>
   </g>
   <g id="matplotlib.axis_1">
    <g id="xtick_1">
     <g id="line2d_1">
      <path d="M 25.282813 87 
L 25.282813 20.4 
" clip-path="url(#p3170f2ad3c)" style="fill: none; stroke: #cccccc; stroke-width: 0.8; stroke-linecap: round"/>
     </g>
     <g id="text_1">
      <!-- 0 -->
      <g style="fill: #262626" transform="translate(23.058438 97.53875) scale(0.08 -0.08)">
       <defs>
        <path id="Helvetica-30" d="M 1731 4475 
Q 2600 4475 2988 3759 
Q 3288 3206 3288 2244 
Q 3288 1331 3016 734 
Q 2622 -122 1728 -122 
Q 922 -122 528 578 
Q 200 1163 200 2147 
Q 200 2909 397 3456 
Q 766 4475 1731 4475 
z
M 1725 391 
Q 2163 391 2422 778 
Q 2681 1166 2681 2222 
Q 2681 2984 2493 3476 
Q 2306 3969 1766 3969 
Q 1269 3969 1039 3501 
Q 809 3034 809 2125 
Q 809 1441 956 1025 
Q 1181 391 1725 391 
z
" transform="scale(0.015625)"/>
       </defs>
       <use xlink:href="#Helvetica-30"/>
      </g>
     </g>
    </g>
    <g id="xtick_2">
     <g id="line2d_2">
      <path d="M 63.125565 87 
L 63.125565 20.4 
" clip-path="url(#p3170f2ad3c)" style="fill: none; stroke: #cccccc; stroke-width: 0.8; stroke-linecap: round"/>
     </g>
     <g id="text_2">
      <!-- 200 -->
      <g style="fill: #262626" transform="translate(56.45244 97.53875) scale(0.08 -0.08)">
       <defs>
        <path id="Helvetica-32" d="M 200 0 
Q 231 578 439 1006 
Q 647 1434 1250 1784 
L 1850 2131 
Q 2253 2366 2416 2531 
Q 2672 2791 2672 3125 
Q 2672 3516 2437 3745 
Q 2203 3975 1813 3975 
Q 1234 3975 1013 3538 
Q 894 3303 881 2888 
L 309 2888 
Q 319 3472 525 3841 
Q 891 4491 1816 4491 
Q 2584 4491 2939 4075 
Q 3294 3659 3294 3150 
Q 3294 2613 2916 2231 
Q 2697 2009 2131 1694 
L 1703 1456 
Q 1397 1288 1222 1134 
Q 909 863 828 531 
L 3272 531 
L 3272 0 
L 200 0 
z
" transform="scale(0.015625)"/>
       </defs>
       <use xlink:href="#Helvetica-32"/>
       <use xlink:href="#Helvetica-30" transform="translate(55.615234 0)"/>
       <use xlink:href="#Helvetica-30" transform="translate(111.230469 0)"/>
      </g>
     </g>
    </g>
   </g>
   <g id="matplotlib.axis_2">
    <g id="ytick_1">
     <g id="line2d_3">
      <path d="M 22.35 87 
L 99.36 87 
" clip-path="url(#p3170f2ad3c)" style="fill: none; stroke: #cccccc; stroke-width: 0.8; stroke-linecap: round"/>
     </g>
     <g id="text_3">
      <!-- 0 -->
      <g style="fill: #262626" transform="translate(13.10125 89.869375) scale(0.08 -0.08)">
       <use xlink:href="#Helvetica-30"/>
      </g>
     </g>
    </g>
    <g id="ytick_2">
     <g id="line2d_4">
      <path d="M 22.35 81.243842 
L 99.36 81.243842 
" clip-path="url(#p3170f2ad3c)" style="fill: none; stroke: #cccccc; stroke-width: 0.8; stroke-linecap: round"/>
     </g>
     <g id="text_4">
      <!-- 1 -->
      <g style="fill: #262626" transform="translate(13.10125 84.113217) scale(0.08 -0.08)">
       <defs>
        <path id="Helvetica-31" d="M 613 3169 
L 613 3600 
Q 1222 3659 1462 3798 
Q 1703 3938 1822 4456 
L 2266 4456 
L 2266 0 
L 1666 0 
L 1666 3169 
L 613 3169 
z
" transform="scale(0.015625)"/>
       </defs>
       <use xlink:href="#Helvetica-31"/>
      </g>
     </g>
    </g>
    <g id="ytick_3">
     <g id="line2d_5">
      <path d="M 22.35 75.487683 
L 99.36 75.487683 
" clip-path="url(#p3170f2ad3c)" style="fill: none; stroke: #cccccc; stroke-width: 0.8; stroke-linecap: round"/>
     </g>
     <g id="text_5">
      <!-- 2 -->
      <g style="fill: #262626" transform="translate(13.10125 78.357058) scale(0.08 -0.08)">
       <use xlink:href="#Helvetica-32"/>
      </g>
     </g>
    </g>
    <g id="ytick_4">
     <g id="line2d_6">
      <path d="M 22.35 69.731525 
L 99.36 69.731525 
" clip-path="url(#p3170f2ad3c)" style="fill: none; stroke: #cccccc; stroke-width: 0.8; stroke-linecap: round"/>
     </g>
     <g id="text_6">
      <!-- 3 -->
      <g style="fill: #262626" transform="translate(13.10125 72.6009) scale(0.08 -0.08)">
       <defs>
        <path id="Helvetica-33" d="M 1663 -122 
Q 869 -122 511 314 
Q 153 750 153 1375 
L 741 1375 
Q 778 941 903 744 
Q 1122 391 1694 391 
Q 2138 391 2406 628 
Q 2675 866 2675 1241 
Q 2675 1703 2392 1887 
Q 2109 2072 1606 2072 
Q 1550 2072 1492 2070 
Q 1434 2069 1375 2066 
L 1375 2563 
Q 1463 2553 1522 2550 
Q 1581 2547 1650 2547 
Q 1966 2547 2169 2647 
Q 2525 2822 2525 3272 
Q 2525 3606 2287 3787 
Q 2050 3969 1734 3969 
Q 1172 3969 956 3594 
Q 838 3388 822 3006 
L 266 3006 
Q 266 3506 466 3856 
Q 809 4481 1675 4481 
Q 2359 4481 2734 4176 
Q 3109 3872 3109 3294 
Q 3109 2881 2888 2625 
Q 2750 2466 2531 2375 
Q 2884 2278 3082 2001 
Q 3281 1725 3281 1325 
Q 3281 684 2859 281 
Q 2438 -122 1663 -122 
z
" transform="scale(0.015625)"/>
       </defs>
       <use xlink:href="#Helvetica-33"/>
      </g>
     </g>
    </g>
    <g id="ytick_5">
     <g id="line2d_7">
      <path d="M 22.35 63.975366 
L 99.36 63.975366 
" clip-path="url(#p3170f2ad3c)" style="fill: none; stroke: #cccccc; stroke-width: 0.8; stroke-linecap: round"/>
     </g>
     <g id="text_7">
      <!-- 4 -->
      <g style="fill: #262626" transform="translate(13.10125 66.844741) scale(0.08 -0.08)">
       <defs>
        <path id="Helvetica-34" d="M 2116 1584 
L 2116 3613 
L 681 1584 
L 2116 1584 
z
M 2125 0 
L 2125 1094 
L 163 1094 
L 163 1644 
L 2213 4488 
L 2688 4488 
L 2688 1584 
L 3347 1584 
L 3347 1094 
L 2688 1094 
L 2688 0 
L 2125 0 
z
" transform="scale(0.015625)"/>
       </defs>
       <use xlink:href="#Helvetica-34"/>
      </g>
     </g>
    </g>
    <g id="ytick_6">
     <g id="line2d_8">
      <path d="M 22.35 58.219208 
L 99.36 58.219208 
" clip-path="url(#p3170f2ad3c)" style="fill: none; stroke: #cccccc; stroke-width: 0.8; stroke-linecap: round"/>
     </g>
     <g id="text_8">
      <!-- 5 -->
      <g style="fill: #262626" transform="translate(13.10125 61.088583) scale(0.08 -0.08)">
       <defs>
        <path id="Helvetica-35" d="M 791 1141 
Q 847 659 1238 475 
Q 1438 381 1700 381 
Q 2200 381 2440 700 
Q 2681 1019 2681 1406 
Q 2681 1875 2395 2131 
Q 2109 2388 1709 2388 
Q 1419 2388 1211 2275 
Q 1003 2163 856 1963 
L 369 1991 
L 709 4400 
L 3034 4400 
L 3034 3856 
L 1131 3856 
L 941 2613 
Q 1097 2731 1238 2791 
Q 1488 2894 1816 2894 
Q 2431 2894 2859 2497 
Q 3288 2100 3288 1491 
Q 3288 856 2895 371 
Q 2503 -113 1644 -113 
Q 1097 -113 676 195 
Q 256 503 206 1141 
L 791 1141 
z
" transform="scale(0.015625)"/>
       </defs>
       <use xlink:href="#Helvetica-35"/>
      </g>
     </g>
    </g>
    <g id="ytick_7">
     <g id="line2d_9">
      <path d="M 22.35 52.463049 
L 99.36 52.463049 
" clip-path="url(#p3170f2ad3c)" style="fill: none; stroke: #cccccc; stroke-width: 0.8; stroke-linecap: round"/>
     </g>
     <g id="text_9">
      <!-- 6 -->
      <g style="fill: #262626" transform="translate(13.10125 55.332424) scale(0.08 -0.08)">
       <defs>
        <path id="Helvetica-36" d="M 1872 4494 
Q 2622 4494 2917 4105 
Q 3213 3716 3213 3303 
L 2656 3303 
Q 2606 3569 2497 3719 
Q 2294 4000 1881 4000 
Q 1409 4000 1131 3564 
Q 853 3128 822 2316 
Q 1016 2600 1309 2741 
Q 1578 2866 1909 2866 
Q 2472 2866 2890 2506 
Q 3309 2147 3309 1434 
Q 3309 825 2912 354 
Q 2516 -116 1781 -116 
Q 1153 -116 697 361 
Q 241 838 241 1966 
Q 241 2800 444 3381 
Q 834 4494 1872 4494 
z
M 1831 384 
Q 2275 384 2495 682 
Q 2716 981 2716 1388 
Q 2716 1731 2519 2042 
Q 2322 2353 1803 2353 
Q 1441 2353 1167 2112 
Q 894 1872 894 1388 
Q 894 963 1142 673 
Q 1391 384 1831 384 
z
" transform="scale(0.015625)"/>
       </defs>
       <use xlink:href="#Helvetica-36"/>
      </g>
     </g>
    </g>
    <g id="ytick_8">
     <g id="line2d_10">
      <path d="M 22.35 46.706891 
L 99.36 46.706891 
" clip-path="url(#p3170f2ad3c)" style="fill: none; stroke: #cccccc; stroke-width: 0.8; stroke-linecap: round"/>
     </g>
     <g id="text_10">
      <!-- 7 -->
      <g style="fill: #262626" transform="translate(13.10125 49.576266) scale(0.08 -0.08)">
       <defs>
        <path id="Helvetica-37" d="M 3347 4400 
L 3347 3909 
Q 3131 3700 2773 3181 
Q 2416 2663 2141 2063 
Q 1869 1478 1728 997 
Q 1638 688 1494 0 
L 872 0 
Q 1084 1281 1809 2550 
Q 2238 3294 2709 3834 
L 234 3834 
L 234 4400 
L 3347 4400 
z
" transform="scale(0.015625)"/>
       </defs>
       <use xlink:href="#Helvetica-37"/>
      </g>
     </g>
    </g>
    <g id="ytick_9">
     <g id="line2d_11">
      <path d="M 22.35 40.950733 
L 99.36 40.950733 
" clip-path="url(#p3170f2ad3c)" style="fill: none; stroke: #cccccc; stroke-width: 0.8; stroke-linecap: round"/>
     </g>
     <g id="text_11">
      <!-- 8 -->
      <g style="fill: #262626" transform="translate(13.10125 43.820108) scale(0.08 -0.08)">
       <defs>
        <path id="Helvetica-38" d="M 1741 2600 
Q 2113 2600 2322 2808 
Q 2531 3016 2531 3303 
Q 2531 3553 2331 3762 
Q 2131 3972 1722 3972 
Q 1316 3972 1134 3762 
Q 953 3553 953 3272 
Q 953 2956 1187 2778 
Q 1422 2600 1741 2600 
z
M 1775 384 
Q 2166 384 2423 595 
Q 2681 806 2681 1225 
Q 2681 1659 2415 1884 
Q 2150 2109 1734 2109 
Q 1331 2109 1076 1879 
Q 822 1650 822 1244 
Q 822 894 1055 639 
Q 1288 384 1775 384 
z
M 975 2384 
Q 741 2484 609 2619 
Q 363 2869 363 3269 
Q 363 3769 725 4128 
Q 1088 4488 1753 4488 
Q 2397 4488 2762 4148 
Q 3128 3809 3128 3356 
Q 3128 2938 2916 2678 
Q 2797 2531 2547 2391 
Q 2825 2263 2984 2097 
Q 3281 1784 3281 1284 
Q 3281 694 2884 283 
Q 2488 -128 1763 -128 
Q 1109 -128 657 226 
Q 206 581 206 1256 
Q 206 1653 400 1942 
Q 594 2231 975 2384 
z
" transform="scale(0.015625)"/>
       </defs>
       <use xlink:href="#Helvetica-38"/>
      </g>
     </g>
    </g>
    <g id="ytick_10">
     <g id="line2d_12">
      <path d="M 22.35 35.194574 
L 99.36 35.194574 
" clip-path="url(#p3170f2ad3c)" style="fill: none; stroke: #cccccc; stroke-width: 0.8; stroke-linecap: round"/>
     </g>
     <g id="text_12">
      <!-- 9 -->
      <g style="fill: #262626" transform="translate(13.10125 38.063949) scale(0.08 -0.08)">
       <defs>
        <path id="Helvetica-39" d="M 850 1081 
Q 875 616 1209 438 
Q 1381 344 1597 344 
Q 2000 344 2284 680 
Q 2569 1016 2688 2044 
Q 2500 1747 2223 1626 
Q 1947 1506 1628 1506 
Q 981 1506 604 1909 
Q 228 2313 228 2947 
Q 228 3556 600 4018 
Q 972 4481 1697 4481 
Q 2675 4481 3047 3600 
Q 3253 3116 3253 2388 
Q 3253 1566 3006 931 
Q 2597 -125 1619 -125 
Q 963 -125 622 219 
Q 281 563 281 1081 
L 850 1081 
z
M 1703 2000 
Q 2038 2000 2314 2220 
Q 2591 2441 2591 2991 
Q 2591 3484 2342 3726 
Q 2094 3969 1709 3969 
Q 1297 3969 1055 3692 
Q 813 3416 813 2953 
Q 813 2516 1025 2258 
Q 1238 2000 1703 2000 
z
" transform="scale(0.015625)"/>
       </defs>
       <use xlink:href="#Helvetica-39"/>
      </g>
     </g>
    </g>
    <g id="ytick_11">
     <g id="line2d_13">
      <path d="M 22.35 29.438416 
L 99.36 29.438416 
" clip-path="url(#p3170f2ad3c)" style="fill: none; stroke: #cccccc; stroke-width: 0.8; stroke-linecap: round"/>
     </g>
     <g id="text_13">
      <!-- 10 -->
      <g style="fill: #262626" transform="translate(8.6525 32.307791) scale(0.08 -0.08)">
       <use xlink:href="#Helvetica-31"/>
       <use xlink:href="#Helvetica-30" transform="translate(55.615234 0)"/>
      </g>
     </g>
    </g>
    <g id="ytick_12">
     <g id="line2d_14">
      <path d="M 22.35 23.682257 
L 99.36 23.682257 
" clip-path="url(#p3170f2ad3c)" style="fill: none; stroke: #cccccc; stroke-width: 0.8; stroke-linecap: round"/>
     </g>
     <g id="text_14">
      <!-- 11 -->
      <g style="fill: #262626" transform="translate(8.6525 26.551632) scale(0.08 -0.08)">
       <use xlink:href="#Helvetica-31"/>
       <use xlink:href="#Helvetica-31" transform="translate(55.615234 0)"/>
      </g>
     </g>
    </g>
   </g>
   <g id="PathCollection_1">
    <defs>
     <path id="m03db8e6c6e" d="M 0 1.2 
C 0.318244 1.2 0.623496 1.07356 0.848528 0.848528 
C 1.07356 0.623496 1.2 0.318244 1.2 0 
C 1.2 -0.318244 1.07356 -0.623496 0.848528 -0.848528 
C 0.623496 -1.07356 0.318244 -1.2 0 -1.2 
C -0.318244 -1.2 -0.623496 -1.07356 -0.848528 -0.848528 
C -1.07356 -0.623496 -1.2 -0.318244 -1.2 0 
C -1.2 0.318244 -1.07356 0.623496 -0.848528 0.848528 
C -0.623496 1.07356 -0.318244 1.2 0 1.2 
z
" style="stroke: #000000; stroke-opacity: 0.5"/>
    </defs>
    <g clip-path="url(#p3170f2ad3c)">
     <use xlink:href="#m03db8e6c6e" x="39.852273" y="82.230719" style="fill-opacity: 0.5; stroke: #000000; stroke-opacity: 0.5"/>
     <use xlink:href="#m03db8e6c6e" x="32.094509" y="82.248547" style="fill-opacity: 0.5; stroke: #000000; stroke-opacity: 0.5"/>
     <use xlink:href="#m03db8e6c6e" x="39.852273" y="82.114238" style="fill-opacity: 0.5; stroke: #000000; stroke-opacity: 0.5"/>
     <use xlink:href="#m03db8e6c6e" x="41.933624" y="70.773695" style="fill-opacity: 0.5; stroke: #000000; stroke-opacity: 0.5"/>
     <use xlink:href="#m03db8e6c6e" x="67.855909" y="68.985115" style="fill-opacity: 0.5; stroke: #000000; stroke-opacity: 0.5"/>
     <use xlink:href="#m03db8e6c6e" x="38.527776" y="81.041914" style="fill-opacity: 0.5; stroke: #000000; stroke-opacity: 0.5"/>
     <use xlink:href="#m03db8e6c6e" x="28.688661" y="58.474877" style="fill-opacity: 0.5; stroke: #000000; stroke-opacity: 0.5"/>
     <use xlink:href="#m03db8e6c6e" x="69.748047" y="81.840284" style="fill-opacity: 0.5; stroke: #000000; stroke-opacity: 0.5"/>
     <use xlink:href="#m03db8e6c6e" x="26.60731" y="80.877792" style="fill-opacity: 0.5; stroke: #000000; stroke-opacity: 0.5"/>
     <use xlink:href="#m03db8e6c6e" x="49.312961" y="76.265973" style="fill-opacity: 0.5; stroke: #000000; stroke-opacity: 0.5"/>
     <use xlink:href="#m03db8e6c6e" x="29.445516" y="81.96554" style="fill-opacity: 0.5; stroke: #000000; stroke-opacity: 0.5"/>
     <use xlink:href="#m03db8e6c6e" x="26.796523" y="80.424706" style="fill-opacity: 0.5; stroke: #000000; stroke-opacity: 0.5"/>
     <use xlink:href="#m03db8e6c6e" x="26.60731" y="74.59494" style="fill-opacity: 0.5; stroke: #000000; stroke-opacity: 0.5"/>
     <use xlink:href="#m03db8e6c6e" x="29.823943" y="41.008325" style="fill-opacity: 0.5; stroke: #000000; stroke-opacity: 0.5"/>
     <use xlink:href="#m03db8e6c6e" x="38.149349" y="81.212899" style="fill-opacity: 0.5; stroke: #000000; stroke-opacity: 0.5"/>
     <use xlink:href="#m03db8e6c6e" x="32.094509" y="81.897009" style="fill-opacity: 0.5; stroke: #000000; stroke-opacity: 0.5"/>
     <use xlink:href="#m03db8e6c6e" x="38.149349" y="69.730892" style="fill-opacity: 0.5; stroke: #000000; stroke-opacity: 0.5"/>
     <use xlink:href="#m03db8e6c6e" x="38.338563" y="74.945954" style="fill-opacity: 0.5; stroke: #000000; stroke-opacity: 0.5"/>
     <use xlink:href="#m03db8e6c6e" x="32.094509" y="75.833749" style="fill-opacity: 0.5; stroke: #000000; stroke-opacity: 0.5"/>
     <use xlink:href="#m03db8e6c6e" x="38.149349" y="70.25331" style="fill-opacity: 0.5; stroke: #000000; stroke-opacity: 0.5"/>
     <use xlink:href="#m03db8e6c6e" x="27.742592" y="80.74647" style="fill-opacity: 0.5; stroke: #000000; stroke-opacity: 0.5"/>
     <use xlink:href="#m03db8e6c6e" x="41.74441" y="51.960072" style="fill-opacity: 0.5; stroke: #000000; stroke-opacity: 0.5"/>
     <use xlink:href="#m03db8e6c6e" x="39.852273" y="81.988651" style="fill-opacity: 0.5; stroke: #000000; stroke-opacity: 0.5"/>
     <use xlink:href="#m03db8e6c6e" x="39.095418" y="81.829086" style="fill-opacity: 0.5; stroke: #000000; stroke-opacity: 0.5"/>
     <use xlink:href="#m03db8e6c6e" x="38.71699" y="80.1592" style="fill-opacity: 0.5; stroke: #000000; stroke-opacity: 0.5"/>
     <use xlink:href="#m03db8e6c6e" x="30.202371" y="75.828932" style="fill-opacity: 0.5; stroke: #000000; stroke-opacity: 0.5"/>
     <use xlink:href="#m03db8e6c6e" x="29.63473" y="69.372466" style="fill-opacity: 0.5; stroke: #000000; stroke-opacity: 0.5"/>
     <use xlink:href="#m03db8e6c6e" x="95.859545" y="75.45749" style="fill-opacity: 0.5; stroke: #000000; stroke-opacity: 0.5"/>
     <use xlink:href="#m03db8e6c6e" x="28.499447" y="76.081278" style="fill-opacity: 0.5; stroke: #000000; stroke-opacity: 0.5"/>
     <use xlink:href="#m03db8e6c6e" x="27.742592" y="75.566669" style="fill-opacity: 0.5; stroke: #000000; stroke-opacity: 0.5"/>
     <use xlink:href="#m03db8e6c6e" x="26.796523" y="63.860845" style="fill-opacity: 0.5; stroke: #000000; stroke-opacity: 0.5"/>
     <use xlink:href="#m03db8e6c6e" x="42.690479" y="29.122691" style="fill-opacity: 0.5; stroke: #000000; stroke-opacity: 0.5"/>
     <use xlink:href="#m03db8e6c6e" x="28.877875" y="70.604278" style="fill-opacity: 0.5; stroke: #000000; stroke-opacity: 0.5"/>
     <use xlink:href="#m03db8e6c6e" x="38.149349" y="80.183997" style="fill-opacity: 0.5; stroke: #000000; stroke-opacity: 0.5"/>
     <use xlink:href="#m03db8e6c6e" x="29.63473" y="59.300194" style="fill-opacity: 0.5; stroke: #000000; stroke-opacity: 0.5"/>
     <use xlink:href="#m03db8e6c6e" x="50.637457" y="53.514421" style="fill-opacity: 0.5; stroke: #000000; stroke-opacity: 0.5"/>
     <use xlink:href="#m03db8e6c6e" x="44.582617" y="34.754742" style="fill-opacity: 0.5; stroke: #000000; stroke-opacity: 0.5"/>
     <use xlink:href="#m03db8e6c6e" x="39.663059" y="80.3026" style="fill-opacity: 0.5; stroke: #000000; stroke-opacity: 0.5"/>
     <use xlink:href="#m03db8e6c6e" x="27.174951" y="75.360733" style="fill-opacity: 0.5; stroke: #000000; stroke-opacity: 0.5"/>
     <use xlink:href="#m03db8e6c6e" x="28.12102" y="68.702302" style="fill-opacity: 0.5; stroke: #000000; stroke-opacity: 0.5"/>
     <use xlink:href="#m03db8e6c6e" x="65.963771" y="80.404795" style="fill-opacity: 0.5; stroke: #000000; stroke-opacity: 0.5"/>
     <use xlink:href="#m03db8e6c6e" x="39.095418" y="81.174612" style="fill-opacity: 0.5; stroke: #000000; stroke-opacity: 0.5"/>
     <use xlink:href="#m03db8e6c6e" x="69.748047" y="81.760647" style="fill-opacity: 0.5; stroke: #000000; stroke-opacity: 0.5"/>
     <use xlink:href="#m03db8e6c6e" x="26.985737" y="42.095677" style="fill-opacity: 0.5; stroke: #000000; stroke-opacity: 0.5"/>
     <use xlink:href="#m03db8e6c6e" x="27.931806" y="80.537961" style="fill-opacity: 0.5; stroke: #000000; stroke-opacity: 0.5"/>
     <use xlink:href="#m03db8e6c6e" x="38.149349" y="82.319558" style="fill-opacity: 0.5; stroke: #000000; stroke-opacity: 0.5"/>
     <use xlink:href="#m03db8e6c6e" x="30.013157" y="58.547201" style="fill-opacity: 0.5; stroke: #000000; stroke-opacity: 0.5"/>
     <use xlink:href="#m03db8e6c6e" x="44.582617" y="40.069217" style="fill-opacity: 0.5; stroke: #000000; stroke-opacity: 0.5"/>
     <use xlink:href="#m03db8e6c6e" x="25.850455" y="47.186142" style="fill-opacity: 0.5; stroke: #000000; stroke-opacity: 0.5"/>
     <use xlink:href="#m03db8e6c6e" x="27.931806" y="75.282055" style="fill-opacity: 0.5; stroke: #000000; stroke-opacity: 0.5"/>
     <use xlink:href="#m03db8e6c6e" x="65.963771" y="81.812028" style="fill-opacity: 0.5; stroke: #000000; stroke-opacity: 0.5"/>
     <use xlink:href="#m03db8e6c6e" x="29.256302" y="75.165179" style="fill-opacity: 0.5; stroke: #000000; stroke-opacity: 0.5"/>
     <use xlink:href="#m03db8e6c6e" x="30.959226" y="80.735086" style="fill-opacity: 0.5; stroke: #000000; stroke-opacity: 0.5"/>
     <use xlink:href="#m03db8e6c6e" x="27.931806" y="76.581938" style="fill-opacity: 0.5; stroke: #000000; stroke-opacity: 0.5"/>
     <use xlink:href="#m03db8e6c6e" x="65.963771" y="80.405785" style="fill-opacity: 0.5; stroke: #000000; stroke-opacity: 0.5"/>
     <use xlink:href="#m03db8e6c6e" x="27.931806" y="81.970698" style="fill-opacity: 0.5; stroke: #000000; stroke-opacity: 0.5"/>
     <use xlink:href="#m03db8e6c6e" x="27.364165" y="64.597504" style="fill-opacity: 0.5; stroke: #000000; stroke-opacity: 0.5"/>
     <use xlink:href="#m03db8e6c6e" x="30.391585" y="62.957069" style="fill-opacity: 0.5; stroke: #000000; stroke-opacity: 0.5"/>
     <use xlink:href="#m03db8e6c6e" x="27.364165" y="58.825104" style="fill-opacity: 0.5; stroke: #000000; stroke-opacity: 0.5"/>
     <use xlink:href="#m03db8e6c6e" x="38.149349" y="74.561778" style="fill-opacity: 0.5; stroke: #000000; stroke-opacity: 0.5"/>
     <use xlink:href="#m03db8e6c6e" x="27.931806" y="75.102016" style="fill-opacity: 0.5; stroke: #000000; stroke-opacity: 0.5"/>
     <use xlink:href="#m03db8e6c6e" x="26.985737" y="80.606405" style="fill-opacity: 0.5; stroke: #000000; stroke-opacity: 0.5"/>
     <use xlink:href="#m03db8e6c6e" x="26.796523" y="74.808347" style="fill-opacity: 0.5; stroke: #000000; stroke-opacity: 0.5"/>
     <use xlink:href="#m03db8e6c6e" x="29.067088" y="69.712723" style="fill-opacity: 0.5; stroke: #000000; stroke-opacity: 0.5"/>
     <use xlink:href="#m03db8e6c6e" x="26.039668" y="64.007535" style="fill-opacity: 0.5; stroke: #000000; stroke-opacity: 0.5"/>
     <use xlink:href="#m03db8e6c6e" x="26.985737" y="34.394221" style="fill-opacity: 0.5; stroke: #000000; stroke-opacity: 0.5"/>
     <use xlink:href="#m03db8e6c6e" x="30.013157" y="81.627296" style="fill-opacity: 0.5; stroke: #000000; stroke-opacity: 0.5"/>
     <use xlink:href="#m03db8e6c6e" x="27.174951" y="30.541035" style="fill-opacity: 0.5; stroke: #000000; stroke-opacity: 0.5"/>
     <use xlink:href="#m03db8e6c6e" x="38.149349" y="68.965003" style="fill-opacity: 0.5; stroke: #000000; stroke-opacity: 0.5"/>
     <use xlink:href="#m03db8e6c6e" x="30.391585" y="80.610604" style="fill-opacity: 0.5; stroke: #000000; stroke-opacity: 0.5"/>
     <use xlink:href="#m03db8e6c6e" x="26.985737" y="80.565595" style="fill-opacity: 0.5; stroke: #000000; stroke-opacity: 0.5"/>
     <use xlink:href="#m03db8e6c6e" x="27.174951" y="76.165161" style="fill-opacity: 0.5; stroke: #000000; stroke-opacity: 0.5"/>
     <use xlink:href="#m03db8e6c6e" x="30.580799" y="58.398173" style="fill-opacity: 0.5; stroke: #000000; stroke-opacity: 0.5"/>
     <use xlink:href="#m03db8e6c6e" x="39.284631" y="70.813039" style="fill-opacity: 0.5; stroke: #000000; stroke-opacity: 0.5"/>
     <use xlink:href="#m03db8e6c6e" x="50.637457" y="58.533372" style="fill-opacity: 0.5; stroke: #000000; stroke-opacity: 0.5"/>
     <use xlink:href="#m03db8e6c6e" x="32.094509" y="80.598973" style="fill-opacity: 0.5; stroke: #000000; stroke-opacity: 0.5"/>
     <use xlink:href="#m03db8e6c6e" x="27.174951" y="53.563107" style="fill-opacity: 0.5; stroke: #000000; stroke-opacity: 0.5"/>
     <use xlink:href="#m03db8e6c6e" x="29.067088" y="41.687105" style="fill-opacity: 0.5; stroke: #000000; stroke-opacity: 0.5"/>
     <use xlink:href="#m03db8e6c6e" x="26.985737" y="46.825077" style="fill-opacity: 0.5; stroke: #000000; stroke-opacity: 0.5"/>
     <use xlink:href="#m03db8e6c6e" x="26.985737" y="70.627845" style="fill-opacity: 0.5; stroke: #000000; stroke-opacity: 0.5"/>
     <use xlink:href="#m03db8e6c6e" x="30.580799" y="76.301034" style="fill-opacity: 0.5; stroke: #000000; stroke-opacity: 0.5"/>
     <use xlink:href="#m03db8e6c6e" x="27.931806" y="75.856483" style="fill-opacity: 0.5; stroke: #000000; stroke-opacity: 0.5"/>
     <use xlink:href="#m03db8e6c6e" x="29.63473" y="63.404589" style="fill-opacity: 0.5; stroke: #000000; stroke-opacity: 0.5"/>
     <use xlink:href="#m03db8e6c6e" x="27.742592" y="70.487596" style="fill-opacity: 0.5; stroke: #000000; stroke-opacity: 0.5"/>
     <use xlink:href="#m03db8e6c6e" x="27.174951" y="69.520197" style="fill-opacity: 0.5; stroke: #000000; stroke-opacity: 0.5"/>
     <use xlink:href="#m03db8e6c6e" x="39.095418" y="41.332956" style="fill-opacity: 0.5; stroke: #000000; stroke-opacity: 0.5"/>
     <use xlink:href="#m03db8e6c6e" x="30.580799" y="53.421002" style="fill-opacity: 0.5; stroke: #000000; stroke-opacity: 0.5"/>
     <use xlink:href="#m03db8e6c6e" x="31.14844" y="68.687515" style="fill-opacity: 0.5; stroke: #000000; stroke-opacity: 0.5"/>
     <use xlink:href="#m03db8e6c6e" x="29.067088" y="34.271622" style="fill-opacity: 0.5; stroke: #000000; stroke-opacity: 0.5"/>
     <use xlink:href="#m03db8e6c6e" x="28.877875" y="46.103223" style="fill-opacity: 0.5; stroke: #000000; stroke-opacity: 0.5"/>
     <use xlink:href="#m03db8e6c6e" x="29.256302" y="80.965974" style="fill-opacity: 0.5; stroke: #000000; stroke-opacity: 0.5"/>
     <use xlink:href="#m03db8e6c6e" x="29.256302" y="62.977092" style="fill-opacity: 0.5; stroke: #000000; stroke-opacity: 0.5"/>
     <use xlink:href="#m03db8e6c6e" x="28.499447" y="40.497283" style="fill-opacity: 0.5; stroke: #000000; stroke-opacity: 0.5"/>
     <use xlink:href="#m03db8e6c6e" x="28.688661" y="74.850882" style="fill-opacity: 0.5; stroke: #000000; stroke-opacity: 0.5"/>
     <use xlink:href="#m03db8e6c6e" x="39.852273" y="74.453854" style="fill-opacity: 0.5; stroke: #000000; stroke-opacity: 0.5"/>
     <use xlink:href="#m03db8e6c6e" x="26.796523" y="81.347881" style="fill-opacity: 0.5; stroke: #000000; stroke-opacity: 0.5"/>
     <use xlink:href="#m03db8e6c6e" x="26.039668" y="80.586444" style="fill-opacity: 0.5; stroke: #000000; stroke-opacity: 0.5"/>
     <use xlink:href="#m03db8e6c6e" x="36.635639" y="23.34855" style="fill-opacity: 0.5; stroke: #000000; stroke-opacity: 0.5"/>
     <use xlink:href="#m03db8e6c6e" x="42.879693" y="58.368044" style="fill-opacity: 0.5; stroke: #000000; stroke-opacity: 0.5"/>
     <use xlink:href="#m03db8e6c6e" x="27.742592" y="70.620504" style="fill-opacity: 0.5; stroke: #000000; stroke-opacity: 0.5"/>
     <use xlink:href="#m03db8e6c6e" x="32.66215" y="53.491989" style="fill-opacity: 0.5; stroke: #000000; stroke-opacity: 0.5"/>
     <use xlink:href="#m03db8e6c6e" x="27.364165" y="81.267976" style="fill-opacity: 0.5; stroke: #000000; stroke-opacity: 0.5"/>
     <use xlink:href="#m03db8e6c6e" x="29.445516" y="30.309841" style="fill-opacity: 0.5; stroke: #000000; stroke-opacity: 0.5"/>
     <use xlink:href="#m03db8e6c6e" x="43.636548" y="52.971829" style="fill-opacity: 0.5; stroke: #000000; stroke-opacity: 0.5"/>
     <use xlink:href="#m03db8e6c6e" x="29.445516" y="69.557701" style="fill-opacity: 0.5; stroke: #000000; stroke-opacity: 0.5"/>
     <use xlink:href="#m03db8e6c6e" x="33.608219" y="80.945723" style="fill-opacity: 0.5; stroke: #000000; stroke-opacity: 0.5"/>
     <use xlink:href="#m03db8e6c6e" x="30.391585" y="81.616558" style="fill-opacity: 0.5; stroke: #000000; stroke-opacity: 0.5"/>
     <use xlink:href="#m03db8e6c6e" x="30.391585" y="75.710384" style="fill-opacity: 0.5; stroke: #000000; stroke-opacity: 0.5"/>
     <use xlink:href="#m03db8e6c6e" x="30.770012" y="82.224161" style="fill-opacity: 0.5; stroke: #000000; stroke-opacity: 0.5"/>
     <use xlink:href="#m03db8e6c6e" x="30.770012" y="76.501199" style="fill-opacity: 0.5; stroke: #000000; stroke-opacity: 0.5"/>
     <use xlink:href="#m03db8e6c6e" x="30.580799" y="80.683525" style="fill-opacity: 0.5; stroke: #000000; stroke-opacity: 0.5"/>
     <use xlink:href="#m03db8e6c6e" x="33.229791" y="80.738786" style="fill-opacity: 0.5; stroke: #000000; stroke-opacity: 0.5"/>
     <use xlink:href="#m03db8e6c6e" x="30.580799" y="81.408296" style="fill-opacity: 0.5; stroke: #000000; stroke-opacity: 0.5"/>
     <use xlink:href="#m03db8e6c6e" x="32.283722" y="82.053478" style="fill-opacity: 0.5; stroke: #000000; stroke-opacity: 0.5"/>
     <use xlink:href="#m03db8e6c6e" x="32.283722" y="81.79602" style="fill-opacity: 0.5; stroke: #000000; stroke-opacity: 0.5"/>
     <use xlink:href="#m03db8e6c6e" x="31.526867" y="74.459673" style="fill-opacity: 0.5; stroke: #000000; stroke-opacity: 0.5"/>
     <use xlink:href="#m03db8e6c6e" x="32.094509" y="51.921876" style="fill-opacity: 0.5; stroke: #000000; stroke-opacity: 0.5"/>
     <use xlink:href="#m03db8e6c6e" x="32.094509" y="63.455452" style="fill-opacity: 0.5; stroke: #000000; stroke-opacity: 0.5"/>
     <use xlink:href="#m03db8e6c6e" x="32.472936" y="81.184772" style="fill-opacity: 0.5; stroke: #000000; stroke-opacity: 0.5"/>
     <use xlink:href="#m03db8e6c6e" x="32.472936" y="64.906005" style="fill-opacity: 0.5; stroke: #000000; stroke-opacity: 0.5"/>
     <use xlink:href="#m03db8e6c6e" x="85.642002" y="80.181189" style="fill-opacity: 0.5; stroke: #000000; stroke-opacity: 0.5"/>
     <use xlink:href="#m03db8e6c6e" x="85.642002" y="41.287231" style="fill-opacity: 0.5; stroke: #000000; stroke-opacity: 0.5"/>
     <use xlink:href="#m03db8e6c6e" x="85.642002" y="40.773906" style="fill-opacity: 0.5; stroke: #000000; stroke-opacity: 0.5"/>
    </g>
   </g>
   <g id="FillBetweenPolyCollection_1">
    <defs>
     <path id="m4021788ceb" d="M 25.850455 -43.242086 
L 25.850455 -36.278269 
L 26.557617 -36.373593 
L 27.26478 -36.474116 
L 27.971942 -36.586122 
L 28.679105 -36.686891 
L 29.386267 -36.827082 
L 30.09343 -36.894217 
L 30.800592 -36.948775 
L 31.507755 -37.044314 
L 32.214917 -37.126182 
L 32.92208 -37.116423 
L 33.629242 -37.106283 
L 34.336405 -37.126542 
L 35.043567 -37.154374 
L 35.75073 -37.099649 
L 36.457893 -37.126469 
L 37.165055 -37.061179 
L 37.872218 -37.067519 
L 38.57938 -37.059714 
L 39.286543 -37.024735 
L 39.993705 -36.959647 
L 40.700868 -36.89871 
L 41.40803 -36.838547 
L 42.115193 -36.74926 
L 42.822355 -36.658974 
L 43.529518 -36.570279 
L 44.23668 -36.437967 
L 44.943843 -36.259316 
L 45.651006 -36.194691 
L 46.358168 -36.108921 
L 47.065331 -36.026491 
L 47.772493 -35.921944 
L 48.479656 -35.745194 
L 49.186818 -35.629921 
L 49.893981 -35.50803 
L 50.601143 -35.340867 
L 51.308306 -35.318605 
L 52.015468 -35.172386 
L 52.722631 -35.027684 
L 53.429793 -34.950083 
L 54.136956 -34.888226 
L 54.844118 -34.82637 
L 55.551281 -34.701488 
L 56.258444 -34.553571 
L 56.965606 -34.405714 
L 57.672769 -34.257856 
L 58.379931 -34.110074 
L 59.087094 -33.937433 
L 59.794256 -33.795961 
L 60.501419 -33.636765 
L 61.208581 -33.478211 
L 61.915744 -33.320299 
L 62.622906 -33.182076 
L 63.330069 -33.055686 
L 64.037231 -32.924962 
L 64.744394 -32.776637 
L 65.451556 -32.629151 
L 66.158719 -32.481666 
L 66.865882 -32.367207 
L 67.573044 -32.255588 
L 68.280207 -32.145141 
L 68.987369 -32.034825 
L 69.694532 -31.92451 
L 70.401694 -31.793816 
L 71.108857 -31.665765 
L 71.816019 -31.471492 
L 72.523182 -31.301288 
L 73.230344 -31.144533 
L 73.937507 -30.989442 
L 74.644669 -30.857512 
L 75.351832 -30.725582 
L 76.058994 -30.593651 
L 76.766157 -30.461896 
L 77.47332 -30.298038 
L 78.180482 -30.169305 
L 78.887645 -30.067289 
L 79.594807 -29.934859 
L 80.30197 -29.796157 
L 81.009132 -29.643893 
L 81.716295 -29.489203 
L 82.423457 -29.325233 
L 83.13062 -29.16167 
L 83.837782 -28.998107 
L 84.544945 -28.834545 
L 85.252107 -28.681476 
L 85.95927 -28.567035 
L 86.666433 -28.433686 
L 87.373595 -28.282549 
L 88.080758 -28.131413 
L 88.78792 -27.979701 
L 89.495083 -27.826902 
L 90.202245 -27.674103 
L 90.909408 -27.521305 
L 91.61657 -27.368506 
L 92.323733 -27.216177 
L 93.030895 -27.064071 
L 93.738058 -26.912477 
L 94.44522 -26.761487 
L 95.152383 -26.610496 
L 95.859545 -26.459506 
L 95.859545 -56.495373 
L 95.859545 -56.495373 
L 95.152383 -56.303052 
L 94.44522 -56.110731 
L 93.738058 -55.918409 
L 93.030895 -55.726088 
L 92.323733 -55.533767 
L 91.61657 -55.341446 
L 90.909408 -55.149124 
L 90.202245 -54.948088 
L 89.495083 -54.752816 
L 88.78792 -54.562971 
L 88.080758 -54.370473 
L 87.373595 -54.175522 
L 86.666433 -53.980571 
L 85.95927 -53.785602 
L 85.252107 -53.591563 
L 84.544945 -53.406418 
L 83.837782 -53.221274 
L 83.13062 -53.03633 
L 82.423457 -52.851321 
L 81.716295 -52.66582 
L 81.009132 -52.481682 
L 80.30197 -52.29769 
L 79.594807 -52.113698 
L 78.887645 -51.929026 
L 78.180482 -51.743269 
L 77.47332 -51.557513 
L 76.766157 -51.371756 
L 76.058994 -51.164897 
L 75.351832 -50.9595 
L 74.644669 -50.769909 
L 73.937507 -50.580318 
L 73.230344 -50.390727 
L 72.523182 -50.201136 
L 71.816019 -50.021592 
L 71.108857 -49.868651 
L 70.401694 -49.707085 
L 69.694532 -49.552254 
L 68.987369 -49.408939 
L 68.280207 -49.265849 
L 67.573044 -49.126797 
L 66.865882 -49.000183 
L 66.158719 -48.869146 
L 65.451556 -48.736135 
L 64.744394 -48.603124 
L 64.037231 -48.470114 
L 63.330069 -48.334749 
L 62.622906 -48.12179 
L 61.915744 -47.957042 
L 61.208581 -47.76492 
L 60.501419 -47.587897 
L 59.794256 -47.415817 
L 59.087094 -47.185463 
L 58.379931 -47.022423 
L 57.672769 -46.880141 
L 56.965606 -46.737115 
L 56.258444 -46.574855 
L 55.551281 -46.348305 
L 54.844118 -46.184877 
L 54.136956 -45.983161 
L 53.429793 -45.780708 
L 52.722631 -45.618612 
L 52.015468 -45.473191 
L 51.308306 -45.368574 
L 50.601143 -45.253062 
L 49.893981 -45.145071 
L 49.186818 -45.039836 
L 48.479656 -44.868431 
L 47.772493 -44.635241 
L 47.065331 -44.460098 
L 46.358168 -44.319451 
L 45.651006 -44.200209 
L 44.943843 -44.144862 
L 44.23668 -43.985552 
L 43.529518 -43.82792 
L 42.822355 -43.696237 
L 42.115193 -43.506452 
L 41.40803 -43.404002 
L 40.700868 -43.327354 
L 39.993705 -43.177206 
L 39.286543 -43.178516 
L 38.57938 -43.044673 
L 37.872218 -43.007635 
L 37.165055 -42.890643 
L 36.457893 -42.8016 
L 35.75073 -42.682467 
L 35.043567 -42.645873 
L 34.336405 -42.632871 
L 33.629242 -42.645591 
L 32.92208 -42.610395 
L 32.214917 -42.619232 
L 31.507755 -42.670368 
L 30.800592 -42.7958 
L 30.09343 -42.754145 
L 29.386267 -42.889757 
L 28.679105 -42.956344 
L 27.971942 -43.020174 
L 27.26478 -43.11371 
L 26.557617 -43.168293 
L 25.850455 -43.242086 
z
" style="stroke: #ffffff; stroke-opacity: 0.15; stroke-width: 0.8"/>
    </defs>
    <g clip-path="url(#p3170f2ad3c)">
     <use xlink:href="#m4021788ceb" x="0" y="108" style="fill-opacity: 0.15; stroke: #ffffff; stroke-opacity: 0.15; stroke-width: 0.8"/>
    </g>
   </g>
   <g id="line2d_15">
    <path d="M 25.850455 68.4144 
L 26.557617 68.404924 
L 27.26478 68.395449 
L 27.971942 68.385973 
L 28.679105 68.376497 
L 29.386267 68.367021 
L 30.09343 68.357545 
L 30.800592 68.34807 
L 31.507755 68.338594 
L 32.214917 68.329118 
L 32.92208 68.319642 
L 33.629242 68.310166 
L 34.336405 68.30069 
L 35.043567 68.291215 
L 35.75073 68.281739 
L 36.457893 68.272263 
L 37.165055 68.262787 
L 37.872218 68.253311 
L 38.57938 68.243836 
L 39.286543 68.23436 
L 39.993705 68.224884 
L 40.700868 68.215408 
L 41.40803 68.205932 
L 42.115193 68.196457 
L 42.822355 68.186981 
L 43.529518 68.177505 
L 44.23668 68.168029 
L 44.943843 68.158553 
L 45.651006 68.149077 
L 46.358168 68.139602 
L 47.065331 68.130126 
L 47.772493 68.12065 
L 48.479656 68.111174 
L 49.186818 68.101698 
L 49.893981 68.092223 
L 50.601143 68.082747 
L 51.308306 68.073271 
L 52.015468 68.063795 
L 52.722631 68.054319 
L 53.429793 68.044844 
L 54.136956 68.035368 
L 54.844118 68.025892 
L 55.551281 68.016416 
L 56.258444 68.00694 
L 56.965606 67.997464 
L 57.672769 67.987989 
L 58.379931 67.978513 
L 59.087094 67.969037 
L 59.794256 67.959561 
L 60.501419 67.950085 
L 61.208581 67.94061 
L 61.915744 67.931134 
L 62.622906 67.921658 
L 63.330069 67.912182 
L 64.037231 67.902706 
L 64.744394 67.893231 
L 65.451556 67.883755 
L 66.158719 67.874279 
L 66.865882 67.864803 
L 67.573044 67.855327 
L 68.280207 67.845851 
L 68.987369 67.836376 
L 69.694532 67.8269 
L 70.401694 67.817424 
L 71.108857 67.807948 
L 71.816019 67.798472 
L 72.523182 67.788997 
L 73.230344 67.779521 
L 73.937507 67.770045 
L 74.644669 67.760569 
L 75.351832 67.751093 
L 76.058994 67.741618 
L 76.766157 67.732142 
L 77.47332 67.722666 
L 78.180482 67.71319 
L 78.887645 67.703714 
L 79.594807 67.694238 
L 80.30197 67.684763 
L 81.009132 67.675287 
L 81.716295 67.665811 
L 82.423457 67.656335 
L 83.13062 67.646859 
L 83.837782 67.637384 
L 84.544945 67.627908 
L 85.252107 67.618432 
L 85.95927 67.608956 
L 86.666433 67.59948 
L 87.373595 67.590005 
L 88.080758 67.580529 
L 88.78792 67.571053 
L 89.495083 67.561577 
L 90.202245 67.552101 
L 90.909408 67.542625 
L 91.61657 67.53315 
L 92.323733 67.523674 
L 93.030895 67.514198 
L 93.738058 67.504722 
L 94.44522 67.495246 
L 95.152383 67.485771 
L 95.859545 67.476295 
" clip-path="url(#p3170f2ad3c)" style="fill: none; stroke: #000000; stroke-width: 1.8; stroke-linecap: round"/>
   </g>
   <g id="patch_3">
    <path d="M 22.35 87 
L 22.35 20.4 
" style="fill: none; stroke: #cccccc; stroke-linejoin: miter; stroke-linecap: square"/>
   </g>
   <g id="patch_4">
    <path d="M 99.36 87 
L 99.36 20.4 
" style="fill: none; stroke: #cccccc; stroke-linejoin: miter; stroke-linecap: square"/>
   </g>
   <g id="patch_5">
    <path d="M 22.35 87 
L 99.36 87 
" style="fill: none; stroke: #cccccc; stroke-linejoin: miter; stroke-linecap: square"/>
   </g>
   <g id="patch_6">
    <path d="M 22.35 20.4 
L 99.36 20.4 
" style="fill: none; stroke: #cccccc; stroke-linejoin: miter; stroke-linecap: square"/>
   </g>
   <g id="text_15">
    <!-- ('rho = -0.08 p=3.62e-01',) -->
    <g style="fill: #262626" transform="translate(14.635625 14.4) scale(0.08 -0.08)">
     <defs>
      <path id="Helvetica-28" d="M 1894 4666 
Q 1403 3713 1256 3263 
Q 1034 2578 1034 1681 
Q 1034 775 1288 25 
Q 1444 -438 1903 -1306 
L 1525 -1306 
Q 1069 -594 959 -397 
Q 850 -200 722 138 
Q 547 600 478 1125 
Q 444 1397 444 1644 
Q 444 2569 734 3291 
Q 919 3750 1503 4666 
L 1894 4666 
z
" transform="scale(0.015625)"/>
      <path id="Helvetica-27" d="M 1056 4591 
L 953 2753 
L 591 2753 
L 488 4591 
L 1056 4591 
z
" transform="scale(0.015625)"/>
      <path id="Helvetica-72" d="M 428 3347 
L 963 3347 
L 963 2769 
Q 1028 2938 1284 3180 
Q 1541 3422 1875 3422 
Q 1891 3422 1928 3419 
Q 1966 3416 2056 3406 
L 2056 2813 
Q 2006 2822 1964 2825 
Q 1922 2828 1872 2828 
Q 1447 2828 1219 2554 
Q 991 2281 991 1925 
L 991 0 
L 428 0 
L 428 3347 
z
" transform="scale(0.015625)"/>
      <path id="Helvetica-68" d="M 413 4606 
L 975 4606 
L 975 2894 
Q 1175 3147 1334 3250 
Q 1606 3428 2013 3428 
Q 2741 3428 3000 2919 
Q 3141 2641 3141 2147 
L 3141 0 
L 2563 0 
L 2563 2109 
Q 2563 2478 2469 2650 
Q 2316 2925 1894 2925 
Q 1544 2925 1259 2684 
Q 975 2444 975 1775 
L 975 0 
L 413 0 
L 413 4606 
z
" transform="scale(0.015625)"/>
      <path id="Helvetica-6f" d="M 1741 363 
Q 2300 363 2508 786 
Q 2716 1209 2716 1728 
Q 2716 2197 2566 2491 
Q 2328 2953 1747 2953 
Q 1231 2953 997 2559 
Q 763 2166 763 1609 
Q 763 1075 997 719 
Q 1231 363 1741 363 
z
M 1763 3444 
Q 2409 3444 2856 3012 
Q 3303 2581 3303 1744 
Q 3303 934 2909 406 
Q 2516 -122 1688 -122 
Q 997 -122 590 345 
Q 184 813 184 1600 
Q 184 2444 612 2944 
Q 1041 3444 1763 3444 
z
M 1744 3428 
L 1744 3428 
z
" transform="scale(0.015625)"/>
      <path id="Helvetica-20" transform="scale(0.015625)"/>
      <path id="Helvetica-3d" d="M 3547 2569 
L 3547 2044 
L 288 2044 
L 288 2569 
L 3547 2569 
z
M 3547 1228 
L 3547 694 
L 288 694 
L 288 1228 
L 3547 1228 
z
" transform="scale(0.015625)"/>
      <path id="Helvetica-2d" d="M 266 2072 
L 1834 2072 
L 1834 1494 
L 266 1494 
L 266 2072 
z
" transform="scale(0.015625)"/>
      <path id="Helvetica-2e" d="M 547 681 
L 1200 681 
L 1200 0 
L 547 0 
L 547 681 
z
" transform="scale(0.015625)"/>
      <path id="Helvetica-70" d="M 1825 378 
Q 2219 378 2480 708 
Q 2741 1038 2741 1694 
Q 2741 2094 2625 2381 
Q 2406 2934 1825 2934 
Q 1241 2934 1025 2350 
Q 909 2038 909 1556 
Q 909 1169 1025 897 
Q 1244 378 1825 378 
z
M 369 3331 
L 916 3331 
L 916 2888 
Q 1084 3116 1284 3241 
Q 1569 3428 1953 3428 
Q 2522 3428 2919 2992 
Q 3316 2556 3316 1747 
Q 3316 653 2744 184 
Q 2381 -113 1900 -113 
Q 1522 -113 1266 53 
Q 1116 147 931 375 
L 931 -1334 
L 369 -1334 
L 369 3331 
z
" transform="scale(0.015625)"/>
      <path id="Helvetica-65" d="M 1806 3422 
Q 2163 3422 2497 3255 
Q 2831 3088 3006 2822 
Q 3175 2569 3231 2231 
Q 3281 2000 3281 1494 
L 828 1494 
Q 844 984 1069 676 
Q 1294 369 1766 369 
Q 2206 369 2469 659 
Q 2619 828 2681 1050 
L 3234 1050 
Q 3213 866 3089 639 
Q 2966 413 2813 269 
Q 2556 19 2178 -69 
Q 1975 -119 1719 -119 
Q 1094 -119 659 336 
Q 225 791 225 1609 
Q 225 2416 662 2919 
Q 1100 3422 1806 3422 
z
M 2703 1941 
Q 2669 2306 2544 2525 
Q 2313 2931 1772 2931 
Q 1384 2931 1121 2651 
Q 859 2372 844 1941 
L 2703 1941 
z
M 1753 3428 
L 1753 3428 
z
" transform="scale(0.015625)"/>
      <path id="Helvetica-2c" d="M 531 -653 
Q 747 -616 834 -350 
Q 881 -209 881 -78 
Q 881 -56 879 -39 
Q 878 -22 872 0 
L 531 0 
L 531 681 
L 1200 681 
L 1200 50 
Q 1200 -322 1050 -603 
Q 900 -884 531 -950 
L 531 -653 
z
" transform="scale(0.015625)"/>
      <path id="Helvetica-29" d="M 222 -1306 
Q 719 -338 863 106 
Q 1081 778 1081 1681 
Q 1081 2584 828 3334 
Q 672 3797 213 4666 
L 591 4666 
Q 1072 3897 1173 3717 
Q 1275 3538 1394 3222 
Q 1544 2831 1608 2450 
Q 1672 2069 1672 1716 
Q 1672 791 1378 66 
Q 1194 -400 613 -1306 
L 222 -1306 
z
" transform="scale(0.015625)"/>
     </defs>
     <use xlink:href="#Helvetica-28"/>
     <use xlink:href="#Helvetica-27" transform="translate(33.300781 0)"/>
     <use xlink:href="#Helvetica-72" transform="translate(52.392578 0)"/>
     <use xlink:href="#Helvetica-68" transform="translate(85.693359 0)"/>
     <use xlink:href="#Helvetica-6f" transform="translate(141.308594 0)"/>
     <use xlink:href="#Helvetica-20" transform="translate(196.923828 0)"/>
     <use xlink:href="#Helvetica-3d" transform="translate(224.707031 0)"/>
     <use xlink:href="#Helvetica-20" transform="translate(283.105469 0)"/>
     <use xlink:href="#Helvetica-2d" transform="translate(310.888672 0)"/>
     <use xlink:href="#Helvetica-30" transform="translate(344.189453 0)"/>
     <use xlink:href="#Helvetica-2e" transform="translate(399.804688 0)"/>
     <use xlink:href="#Helvetica-30" transform="translate(427.587891 0)"/>
     <use xlink:href="#Helvetica-38" transform="translate(483.203125 0)"/>
     <use xlink:href="#Helvetica-20" transform="translate(538.818359 0)"/>
     <use xlink:href="#Helvetica-70" transform="translate(566.601562 0)"/>
     <use xlink:href="#Helvetica-3d" transform="translate(622.216797 0)"/>
     <use xlink:href="#Helvetica-33" transform="translate(680.615234 0)"/>
     <use xlink:href="#Helvetica-2e" transform="translate(736.230469 0)"/>
     <use xlink:href="#Helvetica-36" transform="translate(764.013672 0)"/>
     <use xlink:href="#Helvetica-32" transform="translate(819.628906 0)"/>
     <use xlink:href="#Helvetica-65" transform="translate(875.244141 0)"/>
     <use xlink:href="#Helvetica-2d" transform="translate(930.859375 0)"/>
     <use xlink:href="#Helvetica-30" transform="translate(964.160156 0)"/>
     <use xlink:href="#Helvetica-31" transform="translate(1019.775391 0)"/>
     <use xlink:href="#Helvetica-27" transform="translate(1075.390625 0)"/>
     <use xlink:href="#Helvetica-2c" transform="translate(1094.482422 0)"/>
     <use xlink:href="#Helvetica-29" transform="translate(1122.265625 0)"/>
    </g>
   </g>
  </g>
 </g>
 <defs>
  <clipPath id="p3170f2ad3c">
   <rect x="22.35" y="20.4" width="77.01" height="66.6"/>
  </clipPath>
 </defs>
</svg>
