<?xml version="1.0" encoding="utf-8" standalone="no"?>
<!DOCTYPE svg PUBLIC "-//W3C//DTD SVG 1.1//EN"
  "http://www.w3.org/Graphics/SVG/1.1/DTD/svg11.dtd">
<svg xmlns:xlink="http://www.w3.org/1999/xlink" width="180pt" height="180pt" viewBox="0 0 180 180" xmlns="http://www.w3.org/2000/svg" version="1.1">
 <metadata>
  <rdf:RDF xmlns:dc="http://purl.org/dc/elements/1.1/" xmlns:cc="http://creativecommons.org/ns#" xmlns:rdf="http://www.w3.org/1999/02/22-rdf-syntax-ns#">
   <cc:Work>
    <dc:type rdf:resource="http://purl.org/dc/dcmitype/StillImage"/>
    <dc:date>2024-11-12T13:44:01.439930</dc:date>
    <dc:format>image/svg+xml</dc:format>
    <dc:creator>
     <cc:Agent>
      <dc:title>Matplotlib v3.6.3, https://matplotlib.org/</dc:title>
     </cc:Agent>
    </dc:creator>
   </cc:Work>
  </rdf:RDF>
 </metadata>
 <defs>
  <style type="text/css">*{stroke-linejoin: round; stroke-linecap: butt}</style>
 </defs>
 <g id="figure_1">
  <g id="patch_1">
   <path d="M 0 180 
L 180 180 
L 180 0 
L 0 0 
z
" style="fill: #ffffff"/>
  </g>
  <g id="axes_1">
   <g id="patch_2">
    <path d="M 38.04 138.163125 
L 168.525 138.163125 
L 168.525 24.016875 
L 38.04 24.016875 
z
" style="fill: #ffffff"/>
   </g>
   <g id="matplotlib.axis_1">
    <g id="xtick_1">
     <g id="line2d_1">
      <path d="M 72.329922 138.163125 
L 72.329922 24.016875 
" clip-path="url(#pd35d036c3e)" style="fill: none; stroke: #cccccc; stroke-width: 0.8; stroke-linecap: round"/>
     </g>
     <g id="text_1">
      <!-- 100 -->
      <g style="fill: #262626" transform="translate(63.988516 153.636562) scale(0.1 -0.1)">
       <defs>
        <path id="Helvetica-31" d="M 613 3169 
L 613 3600 
Q 1222 3659 1462 3798 
Q 1703 3938 1822 4456 
L 2266 4456 
L 2266 0 
L 1666 0 
L 1666 3169 
L 613 3169 
z
" transform="scale(0.015625)"/>
        <path id="Helvetica-30" d="M 1731 4475 
Q 2600 4475 2988 3759 
Q 3288 3206 3288 2244 
Q 3288 1331 3016 734 
Q 2622 -122 1728 -122 
Q 922 -122 528 578 
Q 200 1163 200 2147 
Q 200 2909 397 3456 
Q 766 4475 1731 4475 
z
M 1725 391 
Q 2163 391 2422 778 
Q 2681 1166 2681 2222 
Q 2681 2984 2493 3476 
Q 2306 3969 1766 3969 
Q 1269 3969 1039 3501 
Q 809 3034 809 2125 
Q 809 1441 956 1025 
Q 1181 391 1725 391 
z
" transform="scale(0.015625)"/>
       </defs>
       <use xlink:href="#Helvetica-31"/>
       <use xlink:href="#Helvetica-30" x="55.615234"/>
       <use xlink:href="#Helvetica-30" x="111.230469"/>
      </g>
     </g>
    </g>
    <g id="xtick_2">
     <g id="line2d_2">
      <path d="M 106.913808 138.163125 
L 106.913808 24.016875 
" clip-path="url(#pd35d036c3e)" style="fill: none; stroke: #cccccc; stroke-width: 0.8; stroke-linecap: round"/>
     </g>
     <g id="text_2">
      <!-- 200 -->
      <g style="fill: #262626" transform="translate(98.572402 153.636562) scale(0.1 -0.1)">
       <defs>
        <path id="Helvetica-32" d="M 200 0 
Q 231 578 439 1006 
Q 647 1434 1250 1784 
L 1850 2131 
Q 2253 2366 2416 2531 
Q 2672 2791 2672 3125 
Q 2672 3516 2437 3745 
Q 2203 3975 1813 3975 
Q 1234 3975 1013 3538 
Q 894 3303 881 2888 
L 309 2888 
Q 319 3472 525 3841 
Q 891 4491 1816 4491 
Q 2584 4491 2939 4075 
Q 3294 3659 3294 3150 
Q 3294 2613 2916 2231 
Q 2697 2009 2131 1694 
L 1703 1456 
Q 1397 1288 1222 1134 
Q 909 863 828 531 
L 3272 531 
L 3272 0 
L 200 0 
z
" transform="scale(0.015625)"/>
       </defs>
       <use xlink:href="#Helvetica-32"/>
       <use xlink:href="#Helvetica-30" x="55.615234"/>
       <use xlink:href="#Helvetica-30" x="111.230469"/>
      </g>
     </g>
    </g>
    <g id="xtick_3">
     <g id="line2d_3">
      <path d="M 141.497693 138.163125 
L 141.497693 24.016875 
" clip-path="url(#pd35d036c3e)" style="fill: none; stroke: #cccccc; stroke-width: 0.8; stroke-linecap: round"/>
     </g>
     <g id="text_3">
      <!-- 300 -->
      <g style="fill: #262626" transform="translate(133.156287 153.636562) scale(0.1 -0.1)">
       <defs>
        <path id="Helvetica-33" d="M 1663 -122 
Q 869 -122 511 314 
Q 153 750 153 1375 
L 741 1375 
Q 778 941 903 744 
Q 1122 391 1694 391 
Q 2138 391 2406 628 
Q 2675 866 2675 1241 
Q 2675 1703 2392 1887 
Q 2109 2072 1606 2072 
Q 1550 2072 1492 2070 
Q 1434 2069 1375 2066 
L 1375 2563 
Q 1463 2553 1522 2550 
Q 1581 2547 1650 2547 
Q 1966 2547 2169 2647 
Q 2525 2822 2525 3272 
Q 2525 3606 2287 3787 
Q 2050 3969 1734 3969 
Q 1172 3969 956 3594 
Q 838 3388 822 3006 
L 266 3006 
Q 266 3506 466 3856 
Q 809 4481 1675 4481 
Q 2359 4481 2734 4176 
Q 3109 3872 3109 3294 
Q 3109 2881 2888 2625 
Q 2750 2466 2531 2375 
Q 2884 2278 3082 2001 
Q 3281 1725 3281 1325 
Q 3281 684 2859 281 
Q 2438 -122 1663 -122 
z
" transform="scale(0.015625)"/>
       </defs>
       <use xlink:href="#Helvetica-33"/>
       <use xlink:href="#Helvetica-30" x="55.615234"/>
       <use xlink:href="#Helvetica-30" x="111.230469"/>
      </g>
     </g>
    </g>
    <g id="text_4">
     <!-- N-term length -->
     <g style="fill: #262626" transform="translate(72.996562 166.917812) scale(0.1 -0.1)">
      <defs>
       <path id="Helvetica-4e" d="M 488 4591 
L 1222 4591 
L 3541 872 
L 3541 4591 
L 4131 4591 
L 4131 0 
L 3434 0 
L 1081 3716 
L 1081 0 
L 488 0 
L 488 4591 
z
M 2269 4591 
L 2269 4591 
z
" transform="scale(0.015625)"/>
       <path id="Helvetica-2d" d="M 266 2072 
L 1834 2072 
L 1834 1494 
L 266 1494 
L 266 2072 
z
" transform="scale(0.015625)"/>
       <path id="Helvetica-74" d="M 525 4281 
L 1094 4281 
L 1094 3347 
L 1628 3347 
L 1628 2888 
L 1094 2888 
L 1094 703 
Q 1094 528 1213 469 
Q 1278 434 1431 434 
Q 1472 434 1519 436 
Q 1566 438 1628 444 
L 1628 0 
Q 1531 -28 1426 -40 
Q 1322 -53 1200 -53 
Q 806 -53 665 148 
Q 525 350 525 672 
L 525 2888 
L 72 2888 
L 72 3347 
L 525 3347 
L 525 4281 
z
" transform="scale(0.015625)"/>
       <path id="Helvetica-65" d="M 1806 3422 
Q 2163 3422 2497 3255 
Q 2831 3088 3006 2822 
Q 3175 2569 3231 2231 
Q 3281 2000 3281 1494 
L 828 1494 
Q 844 984 1069 676 
Q 1294 369 1766 369 
Q 2206 369 2469 659 
Q 2619 828 2681 1050 
L 3234 1050 
Q 3213 866 3089 639 
Q 2966 413 2813 269 
Q 2556 19 2178 -69 
Q 1975 -119 1719 -119 
Q 1094 -119 659 336 
Q 225 791 225 1609 
Q 225 2416 662 2919 
Q 1100 3422 1806 3422 
z
M 2703 1941 
Q 2669 2306 2544 2525 
Q 2313 2931 1772 2931 
Q 1384 2931 1121 2651 
Q 859 2372 844 1941 
L 2703 1941 
z
M 1753 3428 
L 1753 3428 
z
" transform="scale(0.015625)"/>
       <path id="Helvetica-72" d="M 428 3347 
L 963 3347 
L 963 2769 
Q 1028 2938 1284 3180 
Q 1541 3422 1875 3422 
Q 1891 3422 1928 3419 
Q 1966 3416 2056 3406 
L 2056 2813 
Q 2006 2822 1964 2825 
Q 1922 2828 1872 2828 
Q 1447 2828 1219 2554 
Q 991 2281 991 1925 
L 991 0 
L 428 0 
L 428 3347 
z
" transform="scale(0.015625)"/>
       <path id="Helvetica-6d" d="M 413 3347 
L 969 3347 
L 969 2872 
Q 1169 3119 1331 3231 
Q 1609 3422 1963 3422 
Q 2363 3422 2606 3225 
Q 2744 3113 2856 2894 
Q 3044 3163 3297 3292 
Q 3550 3422 3866 3422 
Q 4541 3422 4784 2934 
Q 4916 2672 4916 2228 
L 4916 0 
L 4331 0 
L 4331 2325 
Q 4331 2659 4164 2784 
Q 3997 2909 3756 2909 
Q 3425 2909 3186 2687 
Q 2947 2466 2947 1947 
L 2947 0 
L 2375 0 
L 2375 2184 
Q 2375 2525 2294 2681 
Q 2166 2916 1816 2916 
Q 1497 2916 1236 2669 
Q 975 2422 975 1775 
L 975 0 
L 413 0 
L 413 3347 
z
" transform="scale(0.015625)"/>
       <path id="Helvetica-20" transform="scale(0.015625)"/>
       <path id="Helvetica-6c" d="M 428 4591 
L 991 4591 
L 991 0 
L 428 0 
L 428 4591 
z
" transform="scale(0.015625)"/>
       <path id="Helvetica-6e" d="M 413 3347 
L 947 3347 
L 947 2872 
Q 1184 3166 1450 3294 
Q 1716 3422 2041 3422 
Q 2753 3422 3003 2925 
Q 3141 2653 3141 2147 
L 3141 0 
L 2569 0 
L 2569 2109 
Q 2569 2416 2478 2603 
Q 2328 2916 1934 2916 
Q 1734 2916 1606 2875 
Q 1375 2806 1200 2600 
Q 1059 2434 1017 2257 
Q 975 2081 975 1753 
L 975 0 
L 413 0 
L 413 3347 
z
M 1734 3428 
L 1734 3428 
z
" transform="scale(0.015625)"/>
       <path id="Helvetica-67" d="M 1594 3406 
Q 1988 3406 2281 3213 
Q 2441 3103 2606 2894 
L 2606 3316 
L 3125 3316 
L 3125 272 
Q 3125 -366 2938 -734 
Q 2588 -1416 1616 -1416 
Q 1075 -1416 706 -1173 
Q 338 -931 294 -416 
L 866 -416 
Q 906 -641 1028 -763 
Q 1219 -950 1628 -950 
Q 2275 -950 2475 -494 
Q 2594 -225 2584 466 
Q 2416 209 2178 84 
Q 1941 -41 1550 -41 
Q 1006 -41 598 345 
Q 191 731 191 1622 
Q 191 2463 602 2934 
Q 1013 3406 1594 3406 
z
M 2606 1688 
Q 2606 2309 2350 2609 
Q 2094 2909 1697 2909 
Q 1103 2909 884 2353 
Q 769 2056 769 1575 
Q 769 1009 998 714 
Q 1228 419 1616 419 
Q 2222 419 2469 966 
Q 2606 1275 2606 1688 
z
M 1659 3428 
L 1659 3428 
z
" transform="scale(0.015625)"/>
       <path id="Helvetica-68" d="M 413 4606 
L 975 4606 
L 975 2894 
Q 1175 3147 1334 3250 
Q 1606 3428 2013 3428 
Q 2741 3428 3000 2919 
Q 3141 2641 3141 2147 
L 3141 0 
L 2563 0 
L 2563 2109 
Q 2563 2478 2469 2650 
Q 2316 2925 1894 2925 
Q 1544 2925 1259 2684 
Q 975 2444 975 1775 
L 975 0 
L 413 0 
L 413 4606 
z
" transform="scale(0.015625)"/>
      </defs>
      <use xlink:href="#Helvetica-4e"/>
      <use xlink:href="#Helvetica-2d" x="72.216797"/>
      <use xlink:href="#Helvetica-74" x="105.517578"/>
      <use xlink:href="#Helvetica-65" x="133.300781"/>
      <use xlink:href="#Helvetica-72" x="188.916016"/>
      <use xlink:href="#Helvetica-6d" x="222.216797"/>
      <use xlink:href="#Helvetica-20" x="305.517578"/>
      <use xlink:href="#Helvetica-6c" x="333.300781"/>
      <use xlink:href="#Helvetica-65" x="355.517578"/>
      <use xlink:href="#Helvetica-6e" x="411.132812"/>
      <use xlink:href="#Helvetica-67" x="466.748047"/>
      <use xlink:href="#Helvetica-74" x="522.363281"/>
      <use xlink:href="#Helvetica-68" x="550.146484"/>
     </g>
    </g>
   </g>
   <g id="matplotlib.axis_2">
    <g id="ytick_1">
     <g id="line2d_4">
      <path d="M 38.04 101.501027 
L 168.525 101.501027 
" clip-path="url(#pd35d036c3e)" style="fill: none; stroke: #cccccc; stroke-width: 0.8; stroke-linecap: round"/>
     </g>
     <g id="text_5">
      <!-- 0 -->
      <g style="fill: #262626" transform="translate(24.179063 105.087746) scale(0.1 -0.1)">
       <use xlink:href="#Helvetica-30"/>
      </g>
     </g>
    </g>
    <g id="ytick_2">
     <g id="line2d_5">
      <path d="M 38.04 92.387895 
L 168.525 92.387895 
" clip-path="url(#pd35d036c3e)" style="fill: none; stroke: #cccccc; stroke-width: 0.8; stroke-linecap: round"/>
     </g>
     <g id="text_6">
      <!-- 1 -->
      <g style="fill: #262626" transform="translate(24.179063 95.974614) scale(0.1 -0.1)">
       <use xlink:href="#Helvetica-31"/>
      </g>
     </g>
    </g>
    <g id="ytick_3">
     <g id="line2d_6">
      <path d="M 38.04 83.274763 
L 168.525 83.274763 
" clip-path="url(#pd35d036c3e)" style="fill: none; stroke: #cccccc; stroke-width: 0.8; stroke-linecap: round"/>
     </g>
     <g id="text_7">
      <!-- 2 -->
      <g style="fill: #262626" transform="translate(24.179063 86.861481) scale(0.1 -0.1)">
       <use xlink:href="#Helvetica-32"/>
      </g>
     </g>
    </g>
    <g id="ytick_4">
     <g id="line2d_7">
      <path d="M 38.04 74.16163 
L 168.525 74.16163 
" clip-path="url(#pd35d036c3e)" style="fill: none; stroke: #cccccc; stroke-width: 0.8; stroke-linecap: round"/>
     </g>
     <g id="text_8">
      <!-- 3 -->
      <g style="fill: #262626" transform="translate(24.179063 77.748349) scale(0.1 -0.1)">
       <use xlink:href="#Helvetica-33"/>
      </g>
     </g>
    </g>
    <g id="ytick_5">
     <g id="line2d_8">
      <path d="M 38.04 65.048498 
L 168.525 65.048498 
" clip-path="url(#pd35d036c3e)" style="fill: none; stroke: #cccccc; stroke-width: 0.8; stroke-linecap: round"/>
     </g>
     <g id="text_9">
      <!-- 4 -->
      <g style="fill: #262626" transform="translate(24.179063 68.635217) scale(0.1 -0.1)">
       <defs>
        <path id="Helvetica-34" d="M 2116 1584 
L 2116 3613 
L 681 1584 
L 2116 1584 
z
M 2125 0 
L 2125 1094 
L 163 1094 
L 163 1644 
L 2213 4488 
L 2688 4488 
L 2688 1584 
L 3347 1584 
L 3347 1094 
L 2688 1094 
L 2688 0 
L 2125 0 
z
" transform="scale(0.015625)"/>
       </defs>
       <use xlink:href="#Helvetica-34"/>
      </g>
     </g>
    </g>
    <g id="ytick_6">
     <g id="line2d_9">
      <path d="M 38.04 55.935366 
L 168.525 55.935366 
" clip-path="url(#pd35d036c3e)" style="fill: none; stroke: #cccccc; stroke-width: 0.8; stroke-linecap: round"/>
     </g>
     <g id="text_10">
      <!-- 5 -->
      <g style="fill: #262626" transform="translate(24.179063 59.522085) scale(0.1 -0.1)">
       <defs>
        <path id="Helvetica-35" d="M 791 1141 
Q 847 659 1238 475 
Q 1438 381 1700 381 
Q 2200 381 2440 700 
Q 2681 1019 2681 1406 
Q 2681 1875 2395 2131 
Q 2109 2388 1709 2388 
Q 1419 2388 1211 2275 
Q 1003 2163 856 1963 
L 369 1991 
L 709 4400 
L 3034 4400 
L 3034 3856 
L 1131 3856 
L 941 2613 
Q 1097 2731 1238 2791 
Q 1488 2894 1816 2894 
Q 2431 2894 2859 2497 
Q 3288 2100 3288 1491 
Q 3288 856 2895 371 
Q 2503 -113 1644 -113 
Q 1097 -113 676 195 
Q 256 503 206 1141 
L 791 1141 
z
" transform="scale(0.015625)"/>
       </defs>
       <use xlink:href="#Helvetica-35"/>
      </g>
     </g>
    </g>
    <g id="ytick_7">
     <g id="line2d_10">
      <path d="M 38.04 46.822234 
L 168.525 46.822234 
" clip-path="url(#pd35d036c3e)" style="fill: none; stroke: #cccccc; stroke-width: 0.8; stroke-linecap: round"/>
     </g>
     <g id="text_11">
      <!-- 6 -->
      <g style="fill: #262626" transform="translate(24.179063 50.408952) scale(0.1 -0.1)">
       <defs>
        <path id="Helvetica-36" d="M 1872 4494 
Q 2622 4494 2917 4105 
Q 3213 3716 3213 3303 
L 2656 3303 
Q 2606 3569 2497 3719 
Q 2294 4000 1881 4000 
Q 1409 4000 1131 3564 
Q 853 3128 822 2316 
Q 1016 2600 1309 2741 
Q 1578 2866 1909 2866 
Q 2472 2866 2890 2506 
Q 3309 2147 3309 1434 
Q 3309 825 2912 354 
Q 2516 -116 1781 -116 
Q 1153 -116 697 361 
Q 241 838 241 1966 
Q 241 2800 444 3381 
Q 834 4494 1872 4494 
z
M 1831 384 
Q 2275 384 2495 682 
Q 2716 981 2716 1388 
Q 2716 1731 2519 2042 
Q 2322 2353 1803 2353 
Q 1441 2353 1167 2112 
Q 894 1872 894 1388 
Q 894 963 1142 673 
Q 1391 384 1831 384 
z
" transform="scale(0.015625)"/>
       </defs>
       <use xlink:href="#Helvetica-36"/>
      </g>
     </g>
    </g>
    <g id="ytick_8">
     <g id="line2d_11">
      <path d="M 38.04 37.709101 
L 168.525 37.709101 
" clip-path="url(#pd35d036c3e)" style="fill: none; stroke: #cccccc; stroke-width: 0.8; stroke-linecap: round"/>
     </g>
     <g id="text_12">
      <!-- 7 -->
      <g style="fill: #262626" transform="translate(24.179063 41.29582) scale(0.1 -0.1)">
       <defs>
        <path id="Helvetica-37" d="M 3347 4400 
L 3347 3909 
Q 3131 3700 2773 3181 
Q 2416 2663 2141 2063 
Q 1869 1478 1728 997 
Q 1638 688 1494 0 
L 872 0 
Q 1084 1281 1809 2550 
Q 2238 3294 2709 3834 
L 234 3834 
L 234 4400 
L 3347 4400 
z
" transform="scale(0.015625)"/>
       </defs>
       <use xlink:href="#Helvetica-37"/>
      </g>
     </g>
    </g>
    <g id="ytick_9">
     <g id="line2d_12">
      <path d="M 38.04 28.595969 
L 168.525 28.595969 
" clip-path="url(#pd35d036c3e)" style="fill: none; stroke: #cccccc; stroke-width: 0.8; stroke-linecap: round"/>
     </g>
     <g id="text_13">
      <!-- 8 -->
      <g style="fill: #262626" transform="translate(24.179063 32.182688) scale(0.1 -0.1)">
       <defs>
        <path id="Helvetica-38" d="M 1741 2600 
Q 2113 2600 2322 2808 
Q 2531 3016 2531 3303 
Q 2531 3553 2331 3762 
Q 2131 3972 1722 3972 
Q 1316 3972 1134 3762 
Q 953 3553 953 3272 
Q 953 2956 1187 2778 
Q 1422 2600 1741 2600 
z
M 1775 384 
Q 2166 384 2423 595 
Q 2681 806 2681 1225 
Q 2681 1659 2415 1884 
Q 2150 2109 1734 2109 
Q 1331 2109 1076 1879 
Q 822 1650 822 1244 
Q 822 894 1055 639 
Q 1288 384 1775 384 
z
M 975 2384 
Q 741 2484 609 2619 
Q 363 2869 363 3269 
Q 363 3769 725 4128 
Q 1088 4488 1753 4488 
Q 2397 4488 2762 4148 
Q 3128 3809 3128 3356 
Q 3128 2938 2916 2678 
Q 2797 2531 2547 2391 
Q 2825 2263 2984 2097 
Q 3281 1784 3281 1284 
Q 3281 694 2884 283 
Q 2488 -128 1763 -128 
Q 1109 -128 657 226 
Q 206 581 206 1256 
Q 206 1653 400 1942 
Q 594 2231 975 2384 
z
" transform="scale(0.015625)"/>
       </defs>
       <use xlink:href="#Helvetica-38"/>
      </g>
     </g>
    </g>
    <g id="text_14">
     <!-- Rank -->
     <g style="fill: #262626" transform="translate(18.094688 92.761875) rotate(-90) scale(0.1 -0.1)">
      <defs>
       <path id="Helvetica-52" d="M 2622 2488 
Q 3059 2488 3314 2663 
Q 3569 2838 3569 3294 
Q 3569 3784 3213 3963 
Q 3022 4056 2703 4056 
L 1184 4056 
L 1184 2488 
L 2622 2488 
z
M 563 4591 
L 2688 4591 
Q 3213 4591 3553 4438 
Q 4200 4144 4200 3353 
Q 4200 2941 4029 2678 
Q 3859 2416 3553 2256 
Q 3822 2147 3958 1969 
Q 4094 1791 4109 1391 
L 4131 775 
Q 4141 513 4175 384 
Q 4231 166 4375 103 
L 4375 0 
L 3613 0 
Q 3581 59 3562 153 
Q 3544 247 3531 516 
L 3494 1281 
Q 3472 1731 3159 1884 
Q 2981 1969 2600 1969 
L 1184 1969 
L 1184 0 
L 563 0 
L 563 4591 
z
" transform="scale(0.015625)"/>
       <path id="Helvetica-61" d="M 844 891 
Q 844 647 1022 506 
Q 1200 366 1444 366 
Q 1741 366 2019 503 
Q 2488 731 2488 1250 
L 2488 1703 
Q 2384 1638 2221 1594 
Q 2059 1550 1903 1531 
L 1563 1488 
Q 1256 1447 1103 1359 
Q 844 1213 844 891 
z
M 2206 2028 
Q 2400 2053 2466 2191 
Q 2503 2266 2503 2406 
Q 2503 2694 2298 2823 
Q 2094 2953 1713 2953 
Q 1272 2953 1088 2716 
Q 984 2584 953 2325 
L 428 2325 
Q 444 2944 830 3186 
Q 1216 3428 1725 3428 
Q 2316 3428 2684 3203 
Q 3050 2978 3050 2503 
L 3050 575 
Q 3050 488 3086 434 
Q 3122 381 3238 381 
Q 3275 381 3322 386 
Q 3369 391 3422 400 
L 3422 -16 
Q 3291 -53 3222 -62 
Q 3153 -72 3034 -72 
Q 2744 -72 2613 134 
Q 2544 244 2516 444 
Q 2344 219 2022 53 
Q 1700 -113 1313 -113 
Q 847 -113 551 170 
Q 256 453 256 878 
Q 256 1344 547 1600 
Q 838 1856 1309 1916 
L 2206 2028 
z
M 1741 3428 
L 1741 3428 
z
" transform="scale(0.015625)"/>
       <path id="Helvetica-6b" d="M 400 4591 
L 941 4591 
L 941 1925 
L 2384 3347 
L 3103 3347 
L 1822 2094 
L 3175 0 
L 2456 0 
L 1413 1688 
L 941 1256 
L 941 0 
L 400 0 
L 400 4591 
z
" transform="scale(0.015625)"/>
      </defs>
      <use xlink:href="#Helvetica-52"/>
      <use xlink:href="#Helvetica-61" x="72.216797"/>
      <use xlink:href="#Helvetica-6e" x="127.832031"/>
      <use xlink:href="#Helvetica-6b" x="183.447266"/>
     </g>
    </g>
   </g>
   <g id="PathCollection_1">
    <defs>
     <path id="m5057e4278f" d="M 0 2.4 
C 0.636487 2.4 1.246992 2.147121 1.697056 1.697056 
C 2.147121 1.246992 2.4 0.636487 2.4 0 
C 2.4 -0.636487 2.147121 -1.246992 1.697056 -1.697056 
C 1.246992 -2.147121 0.636487 -2.4 0 -2.4 
C -0.636487 -2.4 -1.246992 -2.147121 -1.697056 -1.697056 
C -2.147121 -1.246992 -2.4 -0.636487 -2.4 0 
C -2.4 0.636487 -2.147121 1.246992 -1.697056 1.697056 
C -1.246992 2.147121 -0.636487 2.4 0 2.4 
z
" style="stroke: #1f77b4; stroke-opacity: 0.5"/>
    </defs>
    <g clip-path="url(#pd35d036c3e)">
     <use xlink:href="#m5057e4278f" x="47.775364" y="91.593801" style="fill: #1f77b4; fill-opacity: 0.5; stroke: #1f77b4; stroke-opacity: 0.5"/>
     <use xlink:href="#m5057e4278f" x="52.271269" y="29.205341" style="fill: #1f77b4; fill-opacity: 0.5; stroke: #1f77b4; stroke-opacity: 0.5"/>
     <use xlink:href="#m5057e4278f" x="56.421335" y="46.331541" style="fill: #1f77b4; fill-opacity: 0.5; stroke: #1f77b4; stroke-opacity: 0.5"/>
     <use xlink:href="#m5057e4278f" x="45.700331" y="81.900668" style="fill: #1f77b4; fill-opacity: 0.5; stroke: #1f77b4; stroke-opacity: 0.5"/>
     <use xlink:href="#m5057e4278f" x="51.92543" y="91.986099" style="fill: #1f77b4; fill-opacity: 0.5; stroke: #1f77b4; stroke-opacity: 0.5"/>
     <use xlink:href="#m5057e4278f" x="48.467041" y="75.20363" style="fill: #1f77b4; fill-opacity: 0.5; stroke: #1f77b4; stroke-opacity: 0.5"/>
     <use xlink:href="#m5057e4278f" x="47.775364" y="47.295138" style="fill: #1f77b4; fill-opacity: 0.5; stroke: #1f77b4; stroke-opacity: 0.5"/>
     <use xlink:href="#m5057e4278f" x="49.158719" y="74.945111" style="fill: #1f77b4; fill-opacity: 0.5; stroke: #1f77b4; stroke-opacity: 0.5"/>
     <use xlink:href="#m5057e4278f" x="43.971136" y="92.785219" style="fill: #1f77b4; fill-opacity: 0.5; stroke: #1f77b4; stroke-opacity: 0.5"/>
     <use xlink:href="#m5057e4278f" x="50.887913" y="91.072344" style="fill: #1f77b4; fill-opacity: 0.5; stroke: #1f77b4; stroke-opacity: 0.5"/>
     <use xlink:href="#m5057e4278f" x="46.392008" y="57.015593" style="fill: #1f77b4; fill-opacity: 0.5; stroke: #1f77b4; stroke-opacity: 0.5"/>
     <use xlink:href="#m5057e4278f" x="50.196236" y="30.116695" style="fill: #1f77b4; fill-opacity: 0.5; stroke: #1f77b4; stroke-opacity: 0.5"/>
     <use xlink:href="#m5057e4278f" x="43.971136" y="81.65623" style="fill: #1f77b4; fill-opacity: 0.5; stroke: #1f77b4; stroke-opacity: 0.5"/>
     <use xlink:href="#m5057e4278f" x="51.579591" y="91.437567" style="fill: #1f77b4; fill-opacity: 0.5; stroke: #1f77b4; stroke-opacity: 0.5"/>
     <use xlink:href="#m5057e4278f" x="57.113013" y="72.820513" style="fill: #1f77b4; fill-opacity: 0.5; stroke: #1f77b4; stroke-opacity: 0.5"/>
     <use xlink:href="#m5057e4278f" x="47.083686" y="63.939823" style="fill: #1f77b4; fill-opacity: 0.5; stroke: #1f77b4; stroke-opacity: 0.5"/>
     <use xlink:href="#m5057e4278f" x="53.654624" y="47.283838" style="fill: #1f77b4; fill-opacity: 0.5; stroke: #1f77b4; stroke-opacity: 0.5"/>
     <use xlink:href="#m5057e4278f" x="52.962947" y="82.094427" style="fill: #1f77b4; fill-opacity: 0.5; stroke: #1f77b4; stroke-opacity: 0.5"/>
     <use xlink:href="#m5057e4278f" x="162.593864" y="56.404425" style="fill: #1f77b4; fill-opacity: 0.5; stroke: #1f77b4; stroke-opacity: 0.5"/>
     <use xlink:href="#m5057e4278f" x="47.775364" y="82.060077" style="fill: #1f77b4; fill-opacity: 0.5; stroke: #1f77b4; stroke-opacity: 0.5"/>
     <use xlink:href="#m5057e4278f" x="47.429525" y="48.336687" style="fill: #1f77b4; fill-opacity: 0.5; stroke: #1f77b4; stroke-opacity: 0.5"/>
     <use xlink:href="#m5057e4278f" x="65.413145" y="66.266648" style="fill: #1f77b4; fill-opacity: 0.5; stroke: #1f77b4; stroke-opacity: 0.5"/>
     <use xlink:href="#m5057e4278f" x="56.421335" y="36.893863" style="fill: #1f77b4; fill-opacity: 0.5; stroke: #1f77b4; stroke-opacity: 0.5"/>
     <use xlink:href="#m5057e4278f" x="47.429525" y="83.405935" style="fill: #1f77b4; fill-opacity: 0.5; stroke: #1f77b4; stroke-opacity: 0.5"/>
     <use xlink:href="#m5057e4278f" x="45.354492" y="56.974806" style="fill: #1f77b4; fill-opacity: 0.5; stroke: #1f77b4; stroke-opacity: 0.5"/>
     <use xlink:href="#m5057e4278f" x="51.579591" y="74.24166" style="fill: #1f77b4; fill-opacity: 0.5; stroke: #1f77b4; stroke-opacity: 0.5"/>
     <use xlink:href="#m5057e4278f" x="54.000463" y="73.727541" style="fill: #1f77b4; fill-opacity: 0.5; stroke: #1f77b4; stroke-opacity: 0.5"/>
     <use xlink:href="#m5057e4278f" x="48.121203" y="64.941472" style="fill: #1f77b4; fill-opacity: 0.5; stroke: #1f77b4; stroke-opacity: 0.5"/>
     <use xlink:href="#m5057e4278f" x="50.887913" y="64.105641" style="fill: #1f77b4; fill-opacity: 0.5; stroke: #1f77b4; stroke-opacity: 0.5"/>
     <use xlink:href="#m5057e4278f" x="51.579591" y="37.086901" style="fill: #1f77b4; fill-opacity: 0.5; stroke: #1f77b4; stroke-opacity: 0.5"/>
     <use xlink:href="#m5057e4278f" x="74.059117" y="91.4594" style="fill: #1f77b4; fill-opacity: 0.5; stroke: #1f77b4; stroke-opacity: 0.5"/>
     <use xlink:href="#m5057e4278f" x="52.617108" y="46.861843" style="fill: #1f77b4; fill-opacity: 0.5; stroke: #1f77b4; stroke-opacity: 0.5"/>
     <use xlink:href="#m5057e4278f" x="57.458852" y="74.561922" style="fill: #1f77b4; fill-opacity: 0.5; stroke: #1f77b4; stroke-opacity: 0.5"/>
     <use xlink:href="#m5057e4278f" x="51.233752" y="65.883097" style="fill: #1f77b4; fill-opacity: 0.5; stroke: #1f77b4; stroke-opacity: 0.5"/>
     <use xlink:href="#m5057e4278f" x="82.705088" y="75.933464" style="fill: #1f77b4; fill-opacity: 0.5; stroke: #1f77b4; stroke-opacity: 0.5"/>
     <use xlink:href="#m5057e4278f" x="82.705088" y="81.93704" style="fill: #1f77b4; fill-opacity: 0.5; stroke: #1f77b4; stroke-opacity: 0.5"/>
     <use xlink:href="#m5057e4278f" x="76.479989" y="94.160728" style="fill: #1f77b4; fill-opacity: 0.5; stroke: #1f77b4; stroke-opacity: 0.5"/>
     <use xlink:href="#m5057e4278f" x="85.12596" y="63.805228" style="fill: #1f77b4; fill-opacity: 0.5; stroke: #1f77b4; stroke-opacity: 0.5"/>
     <use xlink:href="#m5057e4278f" x="82.01341" y="91.473197" style="fill: #1f77b4; fill-opacity: 0.5; stroke: #1f77b4; stroke-opacity: 0.5"/>
     <use xlink:href="#m5057e4278f" x="85.471799" y="84.110355" style="fill: #1f77b4; fill-opacity: 0.5; stroke: #1f77b4; stroke-opacity: 0.5"/>
    </g>
   </g>
   <g id="PolyCollection_1">
    <defs>
     <path id="m2744b7c838" d="M 43.971136 -121.446448 
L 43.971136 -105.430046 
L 45.169346 -105.47569 
L 46.367555 -105.464085 
L 47.565764 -105.489661 
L 48.763974 -105.541208 
L 49.962183 -105.500069 
L 51.160393 -105.493692 
L 52.358602 -105.46 
L 53.556811 -105.547912 
L 54.755021 -105.354269 
L 55.95323 -105.228391 
L 57.151439 -105.179777 
L 58.349649 -105.132218 
L 59.547858 -104.923735 
L 60.746067 -104.570647 
L 61.944277 -104.227321 
L 63.142486 -103.856491 
L 64.340696 -103.473017 
L 65.538905 -103.220915 
L 66.737114 -102.725851 
L 67.935324 -102.337316 
L 69.133533 -101.901559 
L 70.331742 -101.458265 
L 71.529952 -100.967195 
L 72.728161 -100.491406 
L 73.926371 -99.902995 
L 75.12458 -99.311488 
L 76.322789 -98.723725 
L 77.520999 -98.267552 
L 78.719208 -97.751951 
L 79.917417 -97.037842 
L 81.115627 -96.362705 
L 82.313836 -95.763569 
L 83.512045 -95.180901 
L 84.710255 -94.415776 
L 85.908464 -93.859949 
L 87.106674 -93.119295 
L 88.304883 -92.48059 
L 89.503092 -91.767853 
L 90.701302 -91.018072 
L 91.899511 -90.335486 
L 93.09772 -89.648184 
L 94.29593 -88.936549 
L 95.494139 -88.224915 
L 96.692348 -87.513281 
L 97.890558 -86.804567 
L 99.088767 -86.088041 
L 100.286977 -85.356024 
L 101.485186 -84.7422 
L 102.683395 -84.158479 
L 103.881605 -83.537597 
L 105.079814 -82.857265 
L 106.278023 -82.176933 
L 107.476233 -81.492182 
L 108.674442 -80.760855 
L 109.872652 -80.029529 
L 111.070861 -79.298203 
L 112.26907 -78.569797 
L 113.46728 -77.84183 
L 114.665489 -77.230193 
L 115.863698 -76.465988 
L 117.061908 -75.701783 
L 118.260117 -74.937578 
L 119.458326 -74.182841 
L 120.656536 -73.45016 
L 121.854745 -72.717478 
L 123.052955 -71.984942 
L 124.251164 -71.253616 
L 125.449373 -70.52229 
L 126.647583 -69.772478 
L 127.845792 -69.0123 
L 129.044001 -68.243222 
L 130.242211 -67.47787 
L 131.44042 -66.712518 
L 132.638629 -65.947167 
L 133.836839 -65.181815 
L 135.035048 -64.416464 
L 136.233258 -63.651812 
L 137.431467 -62.887255 
L 138.629676 -62.122698 
L 139.827886 -61.358141 
L 141.026095 -60.593584 
L 142.224304 -59.829027 
L 143.422514 -59.06447 
L 144.620723 -58.299913 
L 145.818933 -57.535356 
L 147.017142 -56.77108 
L 148.215351 -56.008258 
L 149.413561 -55.245437 
L 150.61177 -54.501229 
L 151.809979 -53.803898 
L 153.008189 -53.106567 
L 154.206398 -52.409236 
L 155.404607 -51.711905 
L 156.602817 -51.014939 
L 157.801026 -50.274174 
L 158.999236 -49.461966 
L 160.197445 -48.649757 
L 161.395654 -47.837549 
L 162.593864 -47.025341 
L 162.593864 -121.645167 
L 162.593864 -121.645167 
L 161.395654 -121.556752 
L 160.197445 -121.468336 
L 158.999236 -121.379921 
L 157.801026 -121.297427 
L 156.602817 -121.212437 
L 155.404607 -121.115342 
L 154.206398 -121.027299 
L 153.008189 -120.939257 
L 151.809979 -120.851215 
L 150.61177 -120.763172 
L 149.413561 -120.714011 
L 148.215351 -120.6389 
L 147.017142 -120.527792 
L 145.818933 -120.399284 
L 144.620723 -120.272251 
L 143.422514 -120.145218 
L 142.224304 -120.042564 
L 141.026095 -119.949508 
L 139.827886 -119.856452 
L 138.629676 -119.762809 
L 137.431467 -119.668379 
L 136.233258 -119.570492 
L 135.035048 -119.43269 
L 133.836839 -119.286025 
L 132.638629 -119.181166 
L 131.44042 -119.106618 
L 130.242211 -118.97462 
L 129.044001 -118.900182 
L 127.845792 -118.825062 
L 126.647583 -118.749941 
L 125.449373 -118.674747 
L 124.251164 -118.567766 
L 123.052955 -118.459678 
L 121.854745 -118.392305 
L 120.656536 -118.295942 
L 119.458326 -118.190403 
L 118.260117 -118.070537 
L 117.061908 -117.957226 
L 115.863698 -117.906914 
L 114.665489 -117.808013 
L 113.46728 -117.638199 
L 112.26907 -117.467889 
L 111.070861 -117.385552 
L 109.872652 -117.338304 
L 108.674442 -117.211601 
L 107.476233 -117.230044 
L 106.278023 -117.13582 
L 105.079814 -117.039074 
L 103.881605 -116.982356 
L 102.683395 -116.9667 
L 101.485186 -116.956759 
L 100.286977 -116.883896 
L 99.088767 -116.834404 
L 97.890558 -116.771413 
L 96.692348 -116.748706 
L 95.494139 -116.674583 
L 94.29593 -116.598884 
L 93.09772 -116.589028 
L 91.899511 -116.587643 
L 90.701302 -116.514038 
L 89.503092 -116.440434 
L 88.304883 -116.366829 
L 87.106674 -116.333073 
L 85.908464 -116.351727 
L 84.710255 -116.331985 
L 83.512045 -116.239869 
L 82.313836 -116.264668 
L 81.115627 -116.205972 
L 79.917417 -116.142666 
L 78.719208 -116.079069 
L 77.520999 -116.064419 
L 76.322789 -116.049953 
L 75.12458 -116.035756 
L 73.926371 -116.052827 
L 72.728161 -116.03903 
L 71.529952 -116.003333 
L 70.331742 -116.010919 
L 69.133533 -115.991526 
L 67.935324 -116.067496 
L 66.737114 -116.035576 
L 65.538905 -116.00484 
L 64.340696 -116.088388 
L 63.142486 -116.23259 
L 61.944277 -116.322683 
L 60.746067 -116.461735 
L 59.547858 -116.609557 
L 58.349649 -116.691567 
L 57.151439 -116.980746 
L 55.95323 -117.315613 
L 54.755021 -117.634354 
L 53.556811 -117.899577 
L 52.358602 -117.899972 
L 51.160393 -118.092302 
L 49.962183 -118.826335 
L 48.763974 -119.277674 
L 47.565764 -119.761577 
L 46.367555 -120.289809 
L 45.169346 -120.933871 
L 43.971136 -121.446448 
z
" style="stroke: #ffffff; stroke-opacity: 0.15; stroke-width: 0.8"/>
    </defs>
    <g clip-path="url(#pd35d036c3e)">
     <use xlink:href="#m2744b7c838" x="0" y="180" style="fill: #1f77b4; fill-opacity: 0.15; stroke: #ffffff; stroke-opacity: 0.15; stroke-width: 0.8"/>
    </g>
   </g>
   <g id="line2d_13">
    <path d="M 43.971136 68.477835 
L 45.169346 68.531758 
L 46.367555 68.58568 
L 47.565764 68.639603 
L 48.763974 68.693526 
L 49.962183 68.747448 
L 51.160393 68.801371 
L 52.358602 68.855294 
L 53.556811 68.909216 
L 54.755021 68.963139 
L 55.95323 69.017061 
L 57.151439 69.070984 
L 58.349649 69.124907 
L 59.547858 69.178829 
L 60.746067 69.232752 
L 61.944277 69.286675 
L 63.142486 69.340597 
L 64.340696 69.39452 
L 65.538905 69.448442 
L 66.737114 69.502365 
L 67.935324 69.556288 
L 69.133533 69.61021 
L 70.331742 69.664133 
L 71.529952 69.718056 
L 72.728161 69.771978 
L 73.926371 69.825901 
L 75.12458 69.879823 
L 76.322789 69.933746 
L 77.520999 69.987669 
L 78.719208 70.041591 
L 79.917417 70.095514 
L 81.115627 70.149437 
L 82.313836 70.203359 
L 83.512045 70.257282 
L 84.710255 70.311204 
L 85.908464 70.365127 
L 87.106674 70.41905 
L 88.304883 70.472972 
L 89.503092 70.526895 
L 90.701302 70.580818 
L 91.899511 70.63474 
L 93.09772 70.688663 
L 94.29593 70.742585 
L 95.494139 70.796508 
L 96.692348 70.850431 
L 97.890558 70.904353 
L 99.088767 70.958276 
L 100.286977 71.012199 
L 101.485186 71.066121 
L 102.683395 71.120044 
L 103.881605 71.173966 
L 105.079814 71.227889 
L 106.278023 71.281812 
L 107.476233 71.335734 
L 108.674442 71.389657 
L 109.872652 71.44358 
L 111.070861 71.497502 
L 112.26907 71.551425 
L 113.46728 71.605347 
L 114.665489 71.65927 
L 115.863698 71.713193 
L 117.061908 71.767115 
L 118.260117 71.821038 
L 119.458326 71.87496 
L 120.656536 71.928883 
L 121.854745 71.982806 
L 123.052955 72.036728 
L 124.251164 72.090651 
L 125.449373 72.144574 
L 126.647583 72.198496 
L 127.845792 72.252419 
L 129.044001 72.306341 
L 130.242211 72.360264 
L 131.44042 72.414187 
L 132.638629 72.468109 
L 133.836839 72.522032 
L 135.035048 72.575955 
L 136.233258 72.629877 
L 137.431467 72.6838 
L 138.629676 72.737722 
L 139.827886 72.791645 
L 141.026095 72.845568 
L 142.224304 72.89949 
L 143.422514 72.953413 
L 144.620723 73.007336 
L 145.818933 73.061258 
L 147.017142 73.115181 
L 148.215351 73.169103 
L 149.413561 73.223026 
L 150.61177 73.276949 
L 151.809979 73.330871 
L 153.008189 73.384794 
L 154.206398 73.438717 
L 155.404607 73.492639 
L 156.602817 73.546562 
L 157.801026 73.600484 
L 158.999236 73.654407 
L 160.197445 73.70833 
L 161.395654 73.762252 
L 162.593864 73.816175 
" clip-path="url(#pd35d036c3e)" style="fill: none; stroke: #1f77b4; stroke-width: 1.8; stroke-linecap: round"/>
   </g>
   <g id="patch_3">
    <path d="M 38.04 138.163125 
L 38.04 24.016875 
" style="fill: none; stroke: #cccccc; stroke-linejoin: miter; stroke-linecap: square"/>
   </g>
   <g id="patch_4">
    <path d="M 168.525 138.163125 
L 168.525 24.016875 
" style="fill: none; stroke: #cccccc; stroke-linejoin: miter; stroke-linecap: square"/>
   </g>
   <g id="patch_5">
    <path d="M 38.04 138.163125 
L 168.525 138.163125 
" style="fill: none; stroke: #cccccc; stroke-linejoin: miter; stroke-linecap: square"/>
   </g>
   <g id="patch_6">
    <path d="M 38.04 24.016875 
L 168.525 24.016875 
" style="fill: none; stroke: #cccccc; stroke-linejoin: miter; stroke-linecap: square"/>
   </g>
   <g id="text_15">
    <!-- rho = -0.03 -->
    <g style="fill: #262626" transform="translate(116.331 36.897625) scale(0.1 -0.1)">
     <defs>
      <path id="Helvetica-6f" d="M 1741 363 
Q 2300 363 2508 786 
Q 2716 1209 2716 1728 
Q 2716 2197 2566 2491 
Q 2328 2953 1747 2953 
Q 1231 2953 997 2559 
Q 763 2166 763 1609 
Q 763 1075 997 719 
Q 1231 363 1741 363 
z
M 1763 3444 
Q 2409 3444 2856 3012 
Q 3303 2581 3303 1744 
Q 3303 934 2909 406 
Q 2516 -122 1688 -122 
Q 997 -122 590 345 
Q 184 813 184 1600 
Q 184 2444 612 2944 
Q 1041 3444 1763 3444 
z
M 1744 3428 
L 1744 3428 
z
" transform="scale(0.015625)"/>
      <path id="Helvetica-3d" d="M 3547 2569 
L 3547 2044 
L 288 2044 
L 288 2569 
L 3547 2569 
z
M 3547 1228 
L 3547 694 
L 288 694 
L 288 1228 
L 3547 1228 
z
" transform="scale(0.015625)"/>
      <path id="Helvetica-2e" d="M 547 681 
L 1200 681 
L 1200 0 
L 547 0 
L 547 681 
z
" transform="scale(0.015625)"/>
     </defs>
     <use xlink:href="#Helvetica-72"/>
     <use xlink:href="#Helvetica-68" x="33.300781"/>
     <use xlink:href="#Helvetica-6f" x="88.916016"/>
     <use xlink:href="#Helvetica-20" x="144.53125"/>
     <use xlink:href="#Helvetica-3d" x="172.314453"/>
     <use xlink:href="#Helvetica-20" x="230.712891"/>
     <use xlink:href="#Helvetica-2d" x="258.496094"/>
     <use xlink:href="#Helvetica-30" x="291.796875"/>
     <use xlink:href="#Helvetica-2e" x="347.412109"/>
     <use xlink:href="#Helvetica-30" x="375.195312"/>
     <use xlink:href="#Helvetica-33" x="430.810547"/>
    </g>
    <!-- p = 8.63e-01 -->
    <g style="fill: #262626" transform="translate(116.331 47.590125) scale(0.1 -0.1)">
     <defs>
      <path id="Helvetica-70" d="M 1825 378 
Q 2219 378 2480 708 
Q 2741 1038 2741 1694 
Q 2741 2094 2625 2381 
Q 2406 2934 1825 2934 
Q 1241 2934 1025 2350 
Q 909 2038 909 1556 
Q 909 1169 1025 897 
Q 1244 378 1825 378 
z
M 369 3331 
L 916 3331 
L 916 2888 
Q 1084 3116 1284 3241 
Q 1569 3428 1953 3428 
Q 2522 3428 2919 2992 
Q 3316 2556 3316 1747 
Q 3316 653 2744 184 
Q 2381 -113 1900 -113 
Q 1522 -113 1266 53 
Q 1116 147 931 375 
L 931 -1334 
L 369 -1334 
L 369 3331 
z
" transform="scale(0.015625)"/>
     </defs>
     <use xlink:href="#Helvetica-70"/>
     <use xlink:href="#Helvetica-20" x="55.615234"/>
     <use xlink:href="#Helvetica-3d" x="83.398438"/>
     <use xlink:href="#Helvetica-20" x="141.796875"/>
     <use xlink:href="#Helvetica-38" x="169.580078"/>
     <use xlink:href="#Helvetica-2e" x="225.195312"/>
     <use xlink:href="#Helvetica-36" x="252.978516"/>
     <use xlink:href="#Helvetica-33" x="308.59375"/>
     <use xlink:href="#Helvetica-65" x="364.208984"/>
     <use xlink:href="#Helvetica-2d" x="419.824219"/>
     <use xlink:href="#Helvetica-30" x="453.125"/>
     <use xlink:href="#Helvetica-31" x="508.740234"/>
    </g>
   </g>
   <g id="text_16">
    <!-- Peptriever vs N-term length -->
    <g style="fill: #262626" transform="translate(42.431719 18.016875) scale(0.1 -0.1)">
     <defs>
      <path id="Helvetica-50" d="M 547 4591 
L 2613 4591 
Q 3225 4591 3600 4245 
Q 3975 3900 3975 3275 
Q 3975 2738 3640 2339 
Q 3306 1941 2613 1941 
L 1169 1941 
L 1169 0 
L 547 0 
L 547 4591 
z
M 3347 3272 
Q 3347 3778 2972 3959 
Q 2766 4056 2406 4056 
L 1169 4056 
L 1169 2466 
L 2406 2466 
Q 2825 2466 3086 2644 
Q 3347 2822 3347 3272 
z
" transform="scale(0.015625)"/>
      <path id="Helvetica-69" d="M 413 3331 
L 984 3331 
L 984 0 
L 413 0 
L 413 3331 
z
M 413 4591 
L 984 4591 
L 984 3953 
L 413 3953 
L 413 4591 
z
" transform="scale(0.015625)"/>
      <path id="Helvetica-76" d="M 688 3347 
L 1581 622 
L 2516 3347 
L 3131 3347 
L 1869 0 
L 1269 0 
L 34 3347 
L 688 3347 
z
" transform="scale(0.015625)"/>
      <path id="Helvetica-73" d="M 747 1050 
Q 772 769 888 619 
Q 1100 347 1625 347 
Q 1938 347 2175 483 
Q 2413 619 2413 903 
Q 2413 1119 2222 1231 
Q 2100 1300 1741 1391 
L 1294 1503 
Q 866 1609 663 1741 
Q 300 1969 300 2372 
Q 300 2847 642 3140 
Q 984 3434 1563 3434 
Q 2319 3434 2653 2991 
Q 2863 2709 2856 2384 
L 2325 2384 
Q 2309 2575 2191 2731 
Q 1997 2953 1519 2953 
Q 1200 2953 1036 2831 
Q 872 2709 872 2509 
Q 872 2291 1088 2159 
Q 1213 2081 1456 2022 
L 1828 1931 
Q 2434 1784 2641 1647 
Q 2969 1431 2969 969 
Q 2969 522 2630 197 
Q 2291 -128 1597 -128 
Q 850 -128 539 211 
Q 228 550 206 1050 
L 747 1050 
z
M 1578 3428 
L 1578 3428 
z
" transform="scale(0.015625)"/>
     </defs>
     <use xlink:href="#Helvetica-50"/>
     <use xlink:href="#Helvetica-65" x="66.699219"/>
     <use xlink:href="#Helvetica-70" x="122.314453"/>
     <use xlink:href="#Helvetica-74" x="177.929688"/>
     <use xlink:href="#Helvetica-72" x="205.712891"/>
     <use xlink:href="#Helvetica-69" x="239.013672"/>
     <use xlink:href="#Helvetica-65" x="261.230469"/>
     <use xlink:href="#Helvetica-76" x="316.845703"/>
     <use xlink:href="#Helvetica-65" x="366.845703"/>
     <use xlink:href="#Helvetica-72" x="422.460938"/>
     <use xlink:href="#Helvetica-20" x="455.761719"/>
     <use xlink:href="#Helvetica-76" x="483.544922"/>
     <use xlink:href="#Helvetica-73" x="533.544922"/>
     <use xlink:href="#Helvetica-20" x="583.544922"/>
     <use xlink:href="#Helvetica-4e" x="611.328125"/>
     <use xlink:href="#Helvetica-2d" x="683.544922"/>
     <use xlink:href="#Helvetica-74" x="716.845703"/>
     <use xlink:href="#Helvetica-65" x="744.628906"/>
     <use xlink:href="#Helvetica-72" x="800.244141"/>
     <use xlink:href="#Helvetica-6d" x="833.544922"/>
     <use xlink:href="#Helvetica-20" x="916.845703"/>
     <use xlink:href="#Helvetica-6c" x="944.628906"/>
     <use xlink:href="#Helvetica-65" x="966.845703"/>
     <use xlink:href="#Helvetica-6e" x="1022.460938"/>
     <use xlink:href="#Helvetica-67" x="1078.076172"/>
     <use xlink:href="#Helvetica-74" x="1133.691406"/>
     <use xlink:href="#Helvetica-68" x="1161.474609"/>
    </g>
   </g>
  </g>
 </g>
 <defs>
  <clipPath id="pd35d036c3e">
   <rect x="38.04" y="24.016875" width="130.485" height="114.14625"/>
  </clipPath>
 </defs>
</svg>
