<?xml version="1.0" encoding="utf-8" standalone="no"?>
<!DOCTYPE svg PUBLIC "-//W3C//DTD SVG 1.1//EN"
  "http://www.w3.org/Graphics/SVG/1.1/DTD/svg11.dtd">
<svg xmlns:xlink="http://www.w3.org/1999/xlink" width="180pt" height="180pt" viewBox="0 0 180 180" xmlns="http://www.w3.org/2000/svg" version="1.1">
 <metadata>
  <rdf:RDF xmlns:dc="http://purl.org/dc/elements/1.1/" xmlns:cc="http://creativecommons.org/ns#" xmlns:rdf="http://www.w3.org/1999/02/22-rdf-syntax-ns#">
   <cc:Work>
    <dc:type rdf:resource="http://purl.org/dc/dcmitype/StillImage"/>
    <dc:date>2024-11-12T13:44:01.112757</dc:date>
    <dc:format>image/svg+xml</dc:format>
    <dc:creator>
     <cc:Agent>
      <dc:title>Matplotlib v3.6.3, https://matplotlib.org/</dc:title>
     </cc:Agent>
    </dc:creator>
   </cc:Work>
  </rdf:RDF>
 </metadata>
 <defs>
  <style type="text/css">*{stroke-linejoin: round; stroke-linecap: butt}</style>
 </defs>
 <g id="figure_1">
  <g id="patch_1">
   <path d="M 0 180 
L 180 180 
L 180 0 
L 0 0 
z
" style="fill: #ffffff"/>
  </g>
  <g id="axes_1">
   <g id="patch_2">
    <path d="M 38.04 138.18 
L 168.57 138.18 
L 168.57 24 
L 38.04 24 
z
" style="fill: #ffffff"/>
   </g>
   <g id="matplotlib.axis_1">
    <g id="xtick_1">
     <g id="line2d_1">
      <path d="M 73.639091 138.18 
L 73.639091 24 
" clip-path="url(#pa2969e41c2)" style="fill: none; stroke: #cccccc; stroke-width: 0.8; stroke-linecap: round"/>
     </g>
     <g id="text_1">
      <!-- 2 -->
      <g style="fill: #262626" transform="translate(70.858622 153.653437) scale(0.1 -0.1)">
       <defs>
        <path id="Helvetica-32" d="M 200 0 
Q 231 578 439 1006 
Q 647 1434 1250 1784 
L 1850 2131 
Q 2253 2366 2416 2531 
Q 2672 2791 2672 3125 
Q 2672 3516 2437 3745 
Q 2203 3975 1813 3975 
Q 1234 3975 1013 3538 
Q 894 3303 881 2888 
L 309 2888 
Q 319 3472 525 3841 
Q 891 4491 1816 4491 
Q 2584 4491 2939 4075 
Q 3294 3659 3294 3150 
Q 3294 2613 2916 2231 
Q 2697 2009 2131 1694 
L 1703 1456 
Q 1397 1288 1222 1134 
Q 909 863 828 531 
L 3272 531 
L 3272 0 
L 200 0 
z
" transform="scale(0.015625)"/>
       </defs>
       <use xlink:href="#Helvetica-32"/>
      </g>
     </g>
    </g>
    <g id="xtick_2">
     <g id="line2d_2">
      <path d="M 132.970909 138.18 
L 132.970909 24 
" clip-path="url(#pa2969e41c2)" style="fill: none; stroke: #cccccc; stroke-width: 0.8; stroke-linecap: round"/>
     </g>
     <g id="text_2">
      <!-- 4 -->
      <g style="fill: #262626" transform="translate(130.19044 153.653437) scale(0.1 -0.1)">
       <defs>
        <path id="Helvetica-34" d="M 2116 1584 
L 2116 3613 
L 681 1584 
L 2116 1584 
z
M 2125 0 
L 2125 1094 
L 163 1094 
L 163 1644 
L 2213 4488 
L 2688 4488 
L 2688 1584 
L 3347 1584 
L 3347 1094 
L 2688 1094 
L 2688 0 
L 2125 0 
z
" transform="scale(0.015625)"/>
       </defs>
       <use xlink:href="#Helvetica-34"/>
      </g>
     </g>
    </g>
    <g id="text_3">
     <!-- agonist selectivity -->
     <g style="fill: #262626" transform="translate(64.122187 166.91125) scale(0.1 -0.1)">
      <defs>
       <path id="Helvetica-61" d="M 844 891 
Q 844 647 1022 506 
Q 1200 366 1444 366 
Q 1741 366 2019 503 
Q 2488 731 2488 1250 
L 2488 1703 
Q 2384 1638 2221 1594 
Q 2059 1550 1903 1531 
L 1563 1488 
Q 1256 1447 1103 1359 
Q 844 1213 844 891 
z
M 2206 2028 
Q 2400 2053 2466 2191 
Q 2503 2266 2503 2406 
Q 2503 2694 2298 2823 
Q 2094 2953 1713 2953 
Q 1272 2953 1088 2716 
Q 984 2584 953 2325 
L 428 2325 
Q 444 2944 830 3186 
Q 1216 3428 1725 3428 
Q 2316 3428 2684 3203 
Q 3050 2978 3050 2503 
L 3050 575 
Q 3050 488 3086 434 
Q 3122 381 3238 381 
Q 3275 381 3322 386 
Q 3369 391 3422 400 
L 3422 -16 
Q 3291 -53 3222 -62 
Q 3153 -72 3034 -72 
Q 2744 -72 2613 134 
Q 2544 244 2516 444 
Q 2344 219 2022 53 
Q 1700 -113 1313 -113 
Q 847 -113 551 170 
Q 256 453 256 878 
Q 256 1344 547 1600 
Q 838 1856 1309 1916 
L 2206 2028 
z
M 1741 3428 
L 1741 3428 
z
" transform="scale(0.015625)"/>
       <path id="Helvetica-67" d="M 1594 3406 
Q 1988 3406 2281 3213 
Q 2441 3103 2606 2894 
L 2606 3316 
L 3125 3316 
L 3125 272 
Q 3125 -366 2938 -734 
Q 2588 -1416 1616 -1416 
Q 1075 -1416 706 -1173 
Q 338 -931 294 -416 
L 866 -416 
Q 906 -641 1028 -763 
Q 1219 -950 1628 -950 
Q 2275 -950 2475 -494 
Q 2594 -225 2584 466 
Q 2416 209 2178 84 
Q 1941 -41 1550 -41 
Q 1006 -41 598 345 
Q 191 731 191 1622 
Q 191 2463 602 2934 
Q 1013 3406 1594 3406 
z
M 2606 1688 
Q 2606 2309 2350 2609 
Q 2094 2909 1697 2909 
Q 1103 2909 884 2353 
Q 769 2056 769 1575 
Q 769 1009 998 714 
Q 1228 419 1616 419 
Q 2222 419 2469 966 
Q 2606 1275 2606 1688 
z
M 1659 3428 
L 1659 3428 
z
" transform="scale(0.015625)"/>
       <path id="Helvetica-6f" d="M 1741 363 
Q 2300 363 2508 786 
Q 2716 1209 2716 1728 
Q 2716 2197 2566 2491 
Q 2328 2953 1747 2953 
Q 1231 2953 997 2559 
Q 763 2166 763 1609 
Q 763 1075 997 719 
Q 1231 363 1741 363 
z
M 1763 3444 
Q 2409 3444 2856 3012 
Q 3303 2581 3303 1744 
Q 3303 934 2909 406 
Q 2516 -122 1688 -122 
Q 997 -122 590 345 
Q 184 813 184 1600 
Q 184 2444 612 2944 
Q 1041 3444 1763 3444 
z
M 1744 3428 
L 1744 3428 
z
" transform="scale(0.015625)"/>
       <path id="Helvetica-6e" d="M 413 3347 
L 947 3347 
L 947 2872 
Q 1184 3166 1450 3294 
Q 1716 3422 2041 3422 
Q 2753 3422 3003 2925 
Q 3141 2653 3141 2147 
L 3141 0 
L 2569 0 
L 2569 2109 
Q 2569 2416 2478 2603 
Q 2328 2916 1934 2916 
Q 1734 2916 1606 2875 
Q 1375 2806 1200 2600 
Q 1059 2434 1017 2257 
Q 975 2081 975 1753 
L 975 0 
L 413 0 
L 413 3347 
z
M 1734 3428 
L 1734 3428 
z
" transform="scale(0.015625)"/>
       <path id="Helvetica-69" d="M 413 3331 
L 984 3331 
L 984 0 
L 413 0 
L 413 3331 
z
M 413 4591 
L 984 4591 
L 984 3953 
L 413 3953 
L 413 4591 
z
" transform="scale(0.015625)"/>
       <path id="Helvetica-73" d="M 747 1050 
Q 772 769 888 619 
Q 1100 347 1625 347 
Q 1938 347 2175 483 
Q 2413 619 2413 903 
Q 2413 1119 2222 1231 
Q 2100 1300 1741 1391 
L 1294 1503 
Q 866 1609 663 1741 
Q 300 1969 300 2372 
Q 300 2847 642 3140 
Q 984 3434 1563 3434 
Q 2319 3434 2653 2991 
Q 2863 2709 2856 2384 
L 2325 2384 
Q 2309 2575 2191 2731 
Q 1997 2953 1519 2953 
Q 1200 2953 1036 2831 
Q 872 2709 872 2509 
Q 872 2291 1088 2159 
Q 1213 2081 1456 2022 
L 1828 1931 
Q 2434 1784 2641 1647 
Q 2969 1431 2969 969 
Q 2969 522 2630 197 
Q 2291 -128 1597 -128 
Q 850 -128 539 211 
Q 228 550 206 1050 
L 747 1050 
z
M 1578 3428 
L 1578 3428 
z
" transform="scale(0.015625)"/>
       <path id="Helvetica-74" d="M 525 4281 
L 1094 4281 
L 1094 3347 
L 1628 3347 
L 1628 2888 
L 1094 2888 
L 1094 703 
Q 1094 528 1213 469 
Q 1278 434 1431 434 
Q 1472 434 1519 436 
Q 1566 438 1628 444 
L 1628 0 
Q 1531 -28 1426 -40 
Q 1322 -53 1200 -53 
Q 806 -53 665 148 
Q 525 350 525 672 
L 525 2888 
L 72 2888 
L 72 3347 
L 525 3347 
L 525 4281 
z
" transform="scale(0.015625)"/>
       <path id="Helvetica-20" transform="scale(0.015625)"/>
       <path id="Helvetica-65" d="M 1806 3422 
Q 2163 3422 2497 3255 
Q 2831 3088 3006 2822 
Q 3175 2569 3231 2231 
Q 3281 2000 3281 1494 
L 828 1494 
Q 844 984 1069 676 
Q 1294 369 1766 369 
Q 2206 369 2469 659 
Q 2619 828 2681 1050 
L 3234 1050 
Q 3213 866 3089 639 
Q 2966 413 2813 269 
Q 2556 19 2178 -69 
Q 1975 -119 1719 -119 
Q 1094 -119 659 336 
Q 225 791 225 1609 
Q 225 2416 662 2919 
Q 1100 3422 1806 3422 
z
M 2703 1941 
Q 2669 2306 2544 2525 
Q 2313 2931 1772 2931 
Q 1384 2931 1121 2651 
Q 859 2372 844 1941 
L 2703 1941 
z
M 1753 3428 
L 1753 3428 
z
" transform="scale(0.015625)"/>
       <path id="Helvetica-6c" d="M 428 4591 
L 991 4591 
L 991 0 
L 428 0 
L 428 4591 
z
" transform="scale(0.015625)"/>
       <path id="Helvetica-63" d="M 1703 3444 
Q 2269 3444 2623 3169 
Q 2978 2894 3050 2222 
L 2503 2222 
Q 2453 2531 2275 2736 
Q 2097 2941 1703 2941 
Q 1166 2941 934 2416 
Q 784 2075 784 1575 
Q 784 1072 996 728 
Q 1209 384 1666 384 
Q 2016 384 2220 598 
Q 2425 813 2503 1184 
L 3050 1184 
Q 2956 519 2581 211 
Q 2206 -97 1622 -97 
Q 966 -97 575 383 
Q 184 863 184 1581 
Q 184 2463 612 2953 
Q 1041 3444 1703 3444 
z
M 1616 3428 
L 1616 3428 
z
" transform="scale(0.015625)"/>
       <path id="Helvetica-76" d="M 688 3347 
L 1581 622 
L 2516 3347 
L 3131 3347 
L 1869 0 
L 1269 0 
L 34 3347 
L 688 3347 
z
" transform="scale(0.015625)"/>
       <path id="Helvetica-79" d="M 2503 3347 
L 3125 3347 
Q 3006 3025 2597 1878 
Q 2291 1016 2084 472 
Q 1597 -809 1397 -1090 
Q 1197 -1372 709 -1372 
Q 591 -1372 527 -1362 
Q 463 -1353 369 -1328 
L 369 -816 
Q 516 -856 581 -865 
Q 647 -875 697 -875 
Q 853 -875 926 -823 
Q 1000 -772 1050 -697 
Q 1066 -672 1162 -440 
Q 1259 -209 1303 -97 
L 66 3347 
L 703 3347 
L 1600 622 
L 2503 3347 
z
M 1597 3428 
L 1597 3428 
z
" transform="scale(0.015625)"/>
      </defs>
      <use xlink:href="#Helvetica-61"/>
      <use xlink:href="#Helvetica-67" x="55.615234"/>
      <use xlink:href="#Helvetica-6f" x="111.230469"/>
      <use xlink:href="#Helvetica-6e" x="166.845703"/>
      <use xlink:href="#Helvetica-69" x="222.460938"/>
      <use xlink:href="#Helvetica-73" x="244.677734"/>
      <use xlink:href="#Helvetica-74" x="294.677734"/>
      <use xlink:href="#Helvetica-20" x="322.460938"/>
      <use xlink:href="#Helvetica-73" x="350.244141"/>
      <use xlink:href="#Helvetica-65" x="400.244141"/>
      <use xlink:href="#Helvetica-6c" x="455.859375"/>
      <use xlink:href="#Helvetica-65" x="478.076172"/>
      <use xlink:href="#Helvetica-63" x="533.691406"/>
      <use xlink:href="#Helvetica-74" x="583.691406"/>
      <use xlink:href="#Helvetica-69" x="611.474609"/>
      <use xlink:href="#Helvetica-76" x="633.691406"/>
      <use xlink:href="#Helvetica-69" x="683.691406"/>
      <use xlink:href="#Helvetica-74" x="705.908203"/>
      <use xlink:href="#Helvetica-79" x="733.691406"/>
     </g>
    </g>
   </g>
   <g id="matplotlib.axis_2">
    <g id="ytick_1">
     <g id="line2d_3">
      <path d="M 38.04 138.18 
L 168.57 138.18 
" clip-path="url(#pa2969e41c2)" style="fill: none; stroke: #cccccc; stroke-width: 0.8; stroke-linecap: round"/>
     </g>
     <g id="text_4">
      <!-- 0 -->
      <g style="fill: #262626" transform="translate(24.179063 141.766719) scale(0.1 -0.1)">
       <defs>
        <path id="Helvetica-30" d="M 1731 4475 
Q 2600 4475 2988 3759 
Q 3288 3206 3288 2244 
Q 3288 1331 3016 734 
Q 2622 -122 1728 -122 
Q 922 -122 528 578 
Q 200 1163 200 2147 
Q 200 2909 397 3456 
Q 766 4475 1731 4475 
z
M 1725 391 
Q 2163 391 2422 778 
Q 2681 1166 2681 2222 
Q 2681 2984 2493 3476 
Q 2306 3969 1766 3969 
Q 1269 3969 1039 3501 
Q 809 3034 809 2125 
Q 809 1441 956 1025 
Q 1181 391 1725 391 
z
" transform="scale(0.015625)"/>
       </defs>
       <use xlink:href="#Helvetica-30"/>
      </g>
     </g>
    </g>
    <g id="ytick_2">
     <g id="line2d_4">
      <path d="M 38.04 124.43722 
L 168.57 124.43722 
" clip-path="url(#pa2969e41c2)" style="fill: none; stroke: #cccccc; stroke-width: 0.8; stroke-linecap: round"/>
     </g>
     <g id="text_5">
      <!-- 1 -->
      <g style="fill: #262626" transform="translate(24.179063 128.023939) scale(0.1 -0.1)">
       <defs>
        <path id="Helvetica-31" d="M 613 3169 
L 613 3600 
Q 1222 3659 1462 3798 
Q 1703 3938 1822 4456 
L 2266 4456 
L 2266 0 
L 1666 0 
L 1666 3169 
L 613 3169 
z
" transform="scale(0.015625)"/>
       </defs>
       <use xlink:href="#Helvetica-31"/>
      </g>
     </g>
    </g>
    <g id="ytick_3">
     <g id="line2d_5">
      <path d="M 38.04 110.694441 
L 168.57 110.694441 
" clip-path="url(#pa2969e41c2)" style="fill: none; stroke: #cccccc; stroke-width: 0.8; stroke-linecap: round"/>
     </g>
     <g id="text_6">
      <!-- 2 -->
      <g style="fill: #262626" transform="translate(24.179063 114.28116) scale(0.1 -0.1)">
       <use xlink:href="#Helvetica-32"/>
      </g>
     </g>
    </g>
    <g id="ytick_4">
     <g id="line2d_6">
      <path d="M 38.04 96.951661 
L 168.57 96.951661 
" clip-path="url(#pa2969e41c2)" style="fill: none; stroke: #cccccc; stroke-width: 0.8; stroke-linecap: round"/>
     </g>
     <g id="text_7">
      <!-- 3 -->
      <g style="fill: #262626" transform="translate(24.179063 100.53838) scale(0.1 -0.1)">
       <defs>
        <path id="Helvetica-33" d="M 1663 -122 
Q 869 -122 511 314 
Q 153 750 153 1375 
L 741 1375 
Q 778 941 903 744 
Q 1122 391 1694 391 
Q 2138 391 2406 628 
Q 2675 866 2675 1241 
Q 2675 1703 2392 1887 
Q 2109 2072 1606 2072 
Q 1550 2072 1492 2070 
Q 1434 2069 1375 2066 
L 1375 2563 
Q 1463 2553 1522 2550 
Q 1581 2547 1650 2547 
Q 1966 2547 2169 2647 
Q 2525 2822 2525 3272 
Q 2525 3606 2287 3787 
Q 2050 3969 1734 3969 
Q 1172 3969 956 3594 
Q 838 3388 822 3006 
L 266 3006 
Q 266 3506 466 3856 
Q 809 4481 1675 4481 
Q 2359 4481 2734 4176 
Q 3109 3872 3109 3294 
Q 3109 2881 2888 2625 
Q 2750 2466 2531 2375 
Q 2884 2278 3082 2001 
Q 3281 1725 3281 1325 
Q 3281 684 2859 281 
Q 2438 -122 1663 -122 
z
" transform="scale(0.015625)"/>
       </defs>
       <use xlink:href="#Helvetica-33"/>
      </g>
     </g>
    </g>
    <g id="ytick_5">
     <g id="line2d_7">
      <path d="M 38.04 83.208882 
L 168.57 83.208882 
" clip-path="url(#pa2969e41c2)" style="fill: none; stroke: #cccccc; stroke-width: 0.8; stroke-linecap: round"/>
     </g>
     <g id="text_8">
      <!-- 4 -->
      <g style="fill: #262626" transform="translate(24.179063 86.7956) scale(0.1 -0.1)">
       <use xlink:href="#Helvetica-34"/>
      </g>
     </g>
    </g>
    <g id="ytick_6">
     <g id="line2d_8">
      <path d="M 38.04 69.466102 
L 168.57 69.466102 
" clip-path="url(#pa2969e41c2)" style="fill: none; stroke: #cccccc; stroke-width: 0.8; stroke-linecap: round"/>
     </g>
     <g id="text_9">
      <!-- 5 -->
      <g style="fill: #262626" transform="translate(24.179063 73.052821) scale(0.1 -0.1)">
       <defs>
        <path id="Helvetica-35" d="M 791 1141 
Q 847 659 1238 475 
Q 1438 381 1700 381 
Q 2200 381 2440 700 
Q 2681 1019 2681 1406 
Q 2681 1875 2395 2131 
Q 2109 2388 1709 2388 
Q 1419 2388 1211 2275 
Q 1003 2163 856 1963 
L 369 1991 
L 709 4400 
L 3034 4400 
L 3034 3856 
L 1131 3856 
L 941 2613 
Q 1097 2731 1238 2791 
Q 1488 2894 1816 2894 
Q 2431 2894 2859 2497 
Q 3288 2100 3288 1491 
Q 3288 856 2895 371 
Q 2503 -113 1644 -113 
Q 1097 -113 676 195 
Q 256 503 206 1141 
L 791 1141 
z
" transform="scale(0.015625)"/>
       </defs>
       <use xlink:href="#Helvetica-35"/>
      </g>
     </g>
    </g>
    <g id="ytick_7">
     <g id="line2d_9">
      <path d="M 38.04 55.723322 
L 168.57 55.723322 
" clip-path="url(#pa2969e41c2)" style="fill: none; stroke: #cccccc; stroke-width: 0.8; stroke-linecap: round"/>
     </g>
     <g id="text_10">
      <!-- 6 -->
      <g style="fill: #262626" transform="translate(24.179063 59.310041) scale(0.1 -0.1)">
       <defs>
        <path id="Helvetica-36" d="M 1872 4494 
Q 2622 4494 2917 4105 
Q 3213 3716 3213 3303 
L 2656 3303 
Q 2606 3569 2497 3719 
Q 2294 4000 1881 4000 
Q 1409 4000 1131 3564 
Q 853 3128 822 2316 
Q 1016 2600 1309 2741 
Q 1578 2866 1909 2866 
Q 2472 2866 2890 2506 
Q 3309 2147 3309 1434 
Q 3309 825 2912 354 
Q 2516 -116 1781 -116 
Q 1153 -116 697 361 
Q 241 838 241 1966 
Q 241 2800 444 3381 
Q 834 4494 1872 4494 
z
M 1831 384 
Q 2275 384 2495 682 
Q 2716 981 2716 1388 
Q 2716 1731 2519 2042 
Q 2322 2353 1803 2353 
Q 1441 2353 1167 2112 
Q 894 1872 894 1388 
Q 894 963 1142 673 
Q 1391 384 1831 384 
z
" transform="scale(0.015625)"/>
       </defs>
       <use xlink:href="#Helvetica-36"/>
      </g>
     </g>
    </g>
    <g id="ytick_8">
     <g id="line2d_10">
      <path d="M 38.04 41.980543 
L 168.57 41.980543 
" clip-path="url(#pa2969e41c2)" style="fill: none; stroke: #cccccc; stroke-width: 0.8; stroke-linecap: round"/>
     </g>
     <g id="text_11">
      <!-- 7 -->
      <g style="fill: #262626" transform="translate(24.179063 45.567261) scale(0.1 -0.1)">
       <defs>
        <path id="Helvetica-37" d="M 3347 4400 
L 3347 3909 
Q 3131 3700 2773 3181 
Q 2416 2663 2141 2063 
Q 1869 1478 1728 997 
Q 1638 688 1494 0 
L 872 0 
Q 1084 1281 1809 2550 
Q 2238 3294 2709 3834 
L 234 3834 
L 234 4400 
L 3347 4400 
z
" transform="scale(0.015625)"/>
       </defs>
       <use xlink:href="#Helvetica-37"/>
      </g>
     </g>
    </g>
    <g id="ytick_9">
     <g id="line2d_11">
      <path d="M 38.04 28.237763 
L 168.57 28.237763 
" clip-path="url(#pa2969e41c2)" style="fill: none; stroke: #cccccc; stroke-width: 0.8; stroke-linecap: round"/>
     </g>
     <g id="text_12">
      <!-- 8 -->
      <g style="fill: #262626" transform="translate(24.179063 31.824482) scale(0.1 -0.1)">
       <defs>
        <path id="Helvetica-38" d="M 1741 2600 
Q 2113 2600 2322 2808 
Q 2531 3016 2531 3303 
Q 2531 3553 2331 3762 
Q 2131 3972 1722 3972 
Q 1316 3972 1134 3762 
Q 953 3553 953 3272 
Q 953 2956 1187 2778 
Q 1422 2600 1741 2600 
z
M 1775 384 
Q 2166 384 2423 595 
Q 2681 806 2681 1225 
Q 2681 1659 2415 1884 
Q 2150 2109 1734 2109 
Q 1331 2109 1076 1879 
Q 822 1650 822 1244 
Q 822 894 1055 639 
Q 1288 384 1775 384 
z
M 975 2384 
Q 741 2484 609 2619 
Q 363 2869 363 3269 
Q 363 3769 725 4128 
Q 1088 4488 1753 4488 
Q 2397 4488 2762 4148 
Q 3128 3809 3128 3356 
Q 3128 2938 2916 2678 
Q 2797 2531 2547 2391 
Q 2825 2263 2984 2097 
Q 3281 1784 3281 1284 
Q 3281 694 2884 283 
Q 2488 -128 1763 -128 
Q 1109 -128 657 226 
Q 206 581 206 1256 
Q 206 1653 400 1942 
Q 594 2231 975 2384 
z
" transform="scale(0.015625)"/>
       </defs>
       <use xlink:href="#Helvetica-38"/>
      </g>
     </g>
    </g>
    <g id="text_13">
     <!-- Rank -->
     <g style="fill: #262626" transform="translate(18.094688 92.761875) rotate(-90) scale(0.1 -0.1)">
      <defs>
       <path id="Helvetica-52" d="M 2622 2488 
Q 3059 2488 3314 2663 
Q 3569 2838 3569 3294 
Q 3569 3784 3213 3963 
Q 3022 4056 2703 4056 
L 1184 4056 
L 1184 2488 
L 2622 2488 
z
M 563 4591 
L 2688 4591 
Q 3213 4591 3553 4438 
Q 4200 4144 4200 3353 
Q 4200 2941 4029 2678 
Q 3859 2416 3553 2256 
Q 3822 2147 3958 1969 
Q 4094 1791 4109 1391 
L 4131 775 
Q 4141 513 4175 384 
Q 4231 166 4375 103 
L 4375 0 
L 3613 0 
Q 3581 59 3562 153 
Q 3544 247 3531 516 
L 3494 1281 
Q 3472 1731 3159 1884 
Q 2981 1969 2600 1969 
L 1184 1969 
L 1184 0 
L 563 0 
L 563 4591 
z
" transform="scale(0.015625)"/>
       <path id="Helvetica-6b" d="M 400 4591 
L 941 4591 
L 941 1925 
L 2384 3347 
L 3103 3347 
L 1822 2094 
L 3175 0 
L 2456 0 
L 1413 1688 
L 941 1256 
L 941 0 
L 400 0 
L 400 4591 
z
" transform="scale(0.015625)"/>
      </defs>
      <use xlink:href="#Helvetica-52"/>
      <use xlink:href="#Helvetica-61" x="72.216797"/>
      <use xlink:href="#Helvetica-6e" x="127.832031"/>
      <use xlink:href="#Helvetica-6b" x="183.447266"/>
     </g>
    </g>
   </g>
   <g id="PathCollection_1">
    <defs>
     <path id="mcbf0da6c80" d="M 0 2.4 
C 0.636487 2.4 1.246992 2.147121 1.697056 1.697056 
C 2.147121 1.246992 2.4 0.636487 2.4 0 
C 2.4 -0.636487 2.147121 -1.246992 1.697056 -1.697056 
C 1.246992 -2.147121 0.636487 -2.4 0 -2.4 
C -0.636487 -2.4 -1.246992 -2.147121 -1.697056 -1.697056 
C -2.147121 -1.246992 -2.4 -0.636487 -2.4 0 
C -2.4 0.636487 -2.147121 1.246992 -1.697056 1.697056 
C -1.246992 2.147121 -0.636487 2.4 0 2.4 
z
" style="stroke: #1f77b4; stroke-opacity: 0.5"/>
    </defs>
    <g clip-path="url(#pa2969e41c2)">
     <use xlink:href="#mcbf0da6c80" x="103.305" y="126.512174" style="fill: #1f77b4; fill-opacity: 0.5; stroke: #1f77b4; stroke-opacity: 0.5"/>
     <use xlink:href="#mcbf0da6c80" x="43.973182" y="28.881532" style="fill: #1f77b4; fill-opacity: 0.5; stroke: #1f77b4; stroke-opacity: 0.5"/>
     <use xlink:href="#mcbf0da6c80" x="73.639091" y="55.44525" style="fill: #1f77b4; fill-opacity: 0.5; stroke: #1f77b4; stroke-opacity: 0.5"/>
     <use xlink:href="#mcbf0da6c80" x="73.639091" y="112.429615" style="fill: #1f77b4; fill-opacity: 0.5; stroke: #1f77b4; stroke-opacity: 0.5"/>
     <use xlink:href="#mcbf0da6c80" x="73.639091" y="125.109807" style="fill: #1f77b4; fill-opacity: 0.5; stroke: #1f77b4; stroke-opacity: 0.5"/>
     <use xlink:href="#mcbf0da6c80" x="73.639091" y="94.760204" style="fill: #1f77b4; fill-opacity: 0.5; stroke: #1f77b4; stroke-opacity: 0.5"/>
     <use xlink:href="#mcbf0da6c80" x="43.973182" y="53.372179" style="fill: #1f77b4; fill-opacity: 0.5; stroke: #1f77b4; stroke-opacity: 0.5"/>
     <use xlink:href="#mcbf0da6c80" x="73.639091" y="97.77757" style="fill: #1f77b4; fill-opacity: 0.5; stroke: #1f77b4; stroke-opacity: 0.5"/>
     <use xlink:href="#mcbf0da6c80" x="43.973182" y="126.448343" style="fill: #1f77b4; fill-opacity: 0.5; stroke: #1f77b4; stroke-opacity: 0.5"/>
     <use xlink:href="#mcbf0da6c80" x="132.970909" y="126.029991" style="fill: #1f77b4; fill-opacity: 0.5; stroke: #1f77b4; stroke-opacity: 0.5"/>
     <use xlink:href="#mcbf0da6c80" x="43.973182" y="67.853295" style="fill: #1f77b4; fill-opacity: 0.5; stroke: #1f77b4; stroke-opacity: 0.5"/>
     <use xlink:href="#mcbf0da6c80" x="162.636818" y="30.444326" style="fill: #1f77b4; fill-opacity: 0.5; stroke: #1f77b4; stroke-opacity: 0.5"/>
     <use xlink:href="#mcbf0da6c80" x="73.639091" y="112.833608" style="fill: #1f77b4; fill-opacity: 0.5; stroke: #1f77b4; stroke-opacity: 0.5"/>
     <use xlink:href="#mcbf0da6c80" x="132.970909" y="123.799775" style="fill: #1f77b4; fill-opacity: 0.5; stroke: #1f77b4; stroke-opacity: 0.5"/>
     <use xlink:href="#mcbf0da6c80" x="103.305" y="94.270149" style="fill: #1f77b4; fill-opacity: 0.5; stroke: #1f77b4; stroke-opacity: 0.5"/>
     <use xlink:href="#mcbf0da6c80" x="103.305" y="82.492207" style="fill: #1f77b4; fill-opacity: 0.5; stroke: #1f77b4; stroke-opacity: 0.5"/>
     <use xlink:href="#mcbf0da6c80" x="132.970909" y="58.139428" style="fill: #1f77b4; fill-opacity: 0.5; stroke: #1f77b4; stroke-opacity: 0.5"/>
     <use xlink:href="#mcbf0da6c80" x="43.973182" y="112.556503" style="fill: #1f77b4; fill-opacity: 0.5; stroke: #1f77b4; stroke-opacity: 0.5"/>
     <use xlink:href="#mcbf0da6c80" x="43.973182" y="69.935496" style="fill: #1f77b4; fill-opacity: 0.5; stroke: #1f77b4; stroke-opacity: 0.5"/>
     <use xlink:href="#mcbf0da6c80" x="43.973182" y="108.737252" style="fill: #1f77b4; fill-opacity: 0.5; stroke: #1f77b4; stroke-opacity: 0.5"/>
     <use xlink:href="#mcbf0da6c80" x="43.973182" y="56.37152" style="fill: #1f77b4; fill-opacity: 0.5; stroke: #1f77b4; stroke-opacity: 0.5"/>
     <use xlink:href="#mcbf0da6c80" x="103.305" y="82.153599" style="fill: #1f77b4; fill-opacity: 0.5; stroke: #1f77b4; stroke-opacity: 0.5"/>
     <use xlink:href="#mcbf0da6c80" x="162.636818" y="42.364382" style="fill: #1f77b4; fill-opacity: 0.5; stroke: #1f77b4; stroke-opacity: 0.5"/>
     <use xlink:href="#mcbf0da6c80" x="103.305" y="109.578459" style="fill: #1f77b4; fill-opacity: 0.5; stroke: #1f77b4; stroke-opacity: 0.5"/>
     <use xlink:href="#mcbf0da6c80" x="73.639091" y="66.996129" style="fill: #1f77b4; fill-opacity: 0.5; stroke: #1f77b4; stroke-opacity: 0.5"/>
     <use xlink:href="#mcbf0da6c80" x="132.970909" y="97.851584" style="fill: #1f77b4; fill-opacity: 0.5; stroke: #1f77b4; stroke-opacity: 0.5"/>
     <use xlink:href="#mcbf0da6c80" x="43.973182" y="99.38804" style="fill: #1f77b4; fill-opacity: 0.5; stroke: #1f77b4; stroke-opacity: 0.5"/>
     <use xlink:href="#mcbf0da6c80" x="73.639091" y="81.695324" style="fill: #1f77b4; fill-opacity: 0.5; stroke: #1f77b4; stroke-opacity: 0.5"/>
     <use xlink:href="#mcbf0da6c80" x="73.639091" y="82.368543" style="fill: #1f77b4; fill-opacity: 0.5; stroke: #1f77b4; stroke-opacity: 0.5"/>
     <use xlink:href="#mcbf0da6c80" x="162.636818" y="40.513406" style="fill: #1f77b4; fill-opacity: 0.5; stroke: #1f77b4; stroke-opacity: 0.5"/>
     <use xlink:href="#mcbf0da6c80" x="73.639091" y="124.111833" style="fill: #1f77b4; fill-opacity: 0.5; stroke: #1f77b4; stroke-opacity: 0.5"/>
     <use xlink:href="#mcbf0da6c80" x="162.636818" y="57.992468" style="fill: #1f77b4; fill-opacity: 0.5; stroke: #1f77b4; stroke-opacity: 0.5"/>
     <use xlink:href="#mcbf0da6c80" x="43.973182" y="96.8964" style="fill: #1f77b4; fill-opacity: 0.5; stroke: #1f77b4; stroke-opacity: 0.5"/>
     <use xlink:href="#mcbf0da6c80" x="162.636818" y="81.977239" style="fill: #1f77b4; fill-opacity: 0.5; stroke: #1f77b4; stroke-opacity: 0.5"/>
     <use xlink:href="#mcbf0da6c80" x="103.305" y="96.584737" style="fill: #1f77b4; fill-opacity: 0.5; stroke: #1f77b4; stroke-opacity: 0.5"/>
     <use xlink:href="#mcbf0da6c80" x="73.639091" y="111.969393" style="fill: #1f77b4; fill-opacity: 0.5; stroke: #1f77b4; stroke-opacity: 0.5"/>
     <use xlink:href="#mcbf0da6c80" x="103.305" y="124.077827" style="fill: #1f77b4; fill-opacity: 0.5; stroke: #1f77b4; stroke-opacity: 0.5"/>
     <use xlink:href="#mcbf0da6c80" x="73.639091" y="82.138797" style="fill: #1f77b4; fill-opacity: 0.5; stroke: #1f77b4; stroke-opacity: 0.5"/>
     <use xlink:href="#mcbf0da6c80" x="103.305" y="122.852039" style="fill: #1f77b4; fill-opacity: 0.5; stroke: #1f77b4; stroke-opacity: 0.5"/>
     <use xlink:href="#mcbf0da6c80" x="103.305" y="110.274359" style="fill: #1f77b4; fill-opacity: 0.5; stroke: #1f77b4; stroke-opacity: 0.5"/>
    </g>
   </g>
   <g id="PolyCollection_1">
    <defs>
     <path id="m90ade08a30" d="M 43.973182 -97.895216 
L 43.973182 -70.391917 
L 45.171804 -70.804068 
L 46.370427 -71.216219 
L 47.56905 -71.62837 
L 48.767672 -72.041898 
L 49.966295 -72.458023 
L 51.164917 -72.933055 
L 52.36354 -73.428336 
L 53.562163 -73.697868 
L 54.760785 -74.107379 
L 55.959408 -74.410922 
L 57.15803 -74.669661 
L 58.356653 -74.933388 
L 59.555275 -75.224226 
L 60.753898 -75.645406 
L 61.952521 -76.099673 
L 63.151143 -76.363751 
L 64.349766 -76.738782 
L 65.548388 -77.11886 
L 66.747011 -77.500418 
L 67.945634 -77.882408 
L 69.144256 -78.215361 
L 70.342879 -78.490974 
L 71.541501 -78.845961 
L 72.740124 -79.155396 
L 73.938747 -79.545198 
L 75.137369 -79.882857 
L 76.335992 -80.101536 
L 77.534614 -80.291006 
L 78.733237 -80.555296 
L 79.93186 -80.696409 
L 81.130482 -80.871487 
L 82.329105 -81.096943 
L 83.527727 -81.380846 
L 84.72635 -81.535347 
L 85.924972 -81.722955 
L 87.123595 -81.886079 
L 88.322218 -82.001988 
L 89.52084 -82.115937 
L 90.719463 -82.166988 
L 91.918085 -82.335954 
L 93.116708 -82.251497 
L 94.315331 -82.443105 
L 95.513953 -82.407526 
L 96.712576 -82.502545 
L 97.911198 -82.551685 
L 99.109821 -82.470165 
L 100.308444 -82.578942 
L 101.507066 -82.294394 
L 102.705689 -82.009845 
L 103.904311 -81.812827 
L 105.102934 -81.478212 
L 106.301556 -81.199574 
L 107.500179 -81.052326 
L 108.698802 -81.115158 
L 109.897424 -80.816851 
L 111.096047 -80.6342 
L 112.294669 -80.349395 
L 113.493292 -80.198453 
L 114.691915 -80.110819 
L 115.890537 -79.958574 
L 117.08916 -79.858686 
L 118.287782 -79.719325 
L 119.486405 -79.443663 
L 120.685028 -79.316405 
L 121.88365 -79.2141 
L 123.082273 -79.111794 
L 124.280895 -79.009488 
L 125.479518 -78.907182 
L 126.67814 -78.804876 
L 127.876763 -78.70257 
L 129.075386 -78.483461 
L 130.274008 -78.25477 
L 131.472631 -78.026079 
L 132.671253 -77.797388 
L 133.869876 -77.415518 
L 135.068499 -77.164893 
L 136.267121 -77.0737 
L 137.465744 -76.882624 
L 138.664366 -76.653933 
L 139.862989 -76.425242 
L 141.061612 -76.196551 
L 142.260234 -75.989103 
L 143.458857 -75.81333 
L 144.657479 -75.637557 
L 145.856102 -75.461784 
L 147.054725 -75.286011 
L 148.253347 -75.110238 
L 149.45197 -74.934636 
L 150.650592 -74.736605 
L 151.849215 -74.524819 
L 153.047837 -74.302736 
L 154.24646 -74.036398 
L 155.445083 -73.770059 
L 156.643705 -73.519921 
L 157.842328 -73.338801 
L 159.04095 -73.157682 
L 160.239573 -72.976562 
L 161.438196 -72.795443 
L 162.636818 -72.607097 
L 162.636818 -118.932302 
L 162.636818 -118.932302 
L 161.438196 -118.523365 
L 160.239573 -118.057519 
L 159.04095 -117.591673 
L 157.842328 -117.12383 
L 156.643705 -116.65539 
L 155.445083 -116.230787 
L 154.24646 -115.850303 
L 153.047837 -115.470283 
L 151.849215 -115.090263 
L 150.650592 -114.699523 
L 149.45197 -114.23673 
L 148.253347 -113.770586 
L 147.054725 -113.307233 
L 145.856102 -112.857197 
L 144.657479 -112.460954 
L 143.458857 -112.160344 
L 142.260234 -111.8588 
L 141.061612 -111.545767 
L 139.862989 -111.087317 
L 138.664366 -110.671299 
L 137.465744 -110.339535 
L 136.267121 -109.959786 
L 135.068499 -109.526294 
L 133.869876 -109.092802 
L 132.671253 -108.65931 
L 131.472631 -108.232623 
L 130.274008 -107.880652 
L 129.075386 -107.543673 
L 127.876763 -107.277554 
L 126.67814 -106.890986 
L 125.479518 -106.448957 
L 124.280895 -106.007961 
L 123.082273 -105.667802 
L 121.88365 -105.272018 
L 120.685028 -105.028512 
L 119.486405 -104.567642 
L 118.287782 -104.277856 
L 117.08916 -104.004416 
L 115.890537 -103.672364 
L 114.691915 -103.370147 
L 113.493292 -103.12151 
L 112.294669 -102.917412 
L 111.096047 -102.761025 
L 109.897424 -102.550105 
L 108.698802 -102.276016 
L 107.500179 -101.961401 
L 106.301556 -101.59148 
L 105.102934 -101.244968 
L 103.904311 -100.976891 
L 102.705689 -100.744962 
L 101.507066 -100.462264 
L 100.308444 -100.254119 
L 99.109821 -100.002805 
L 97.911198 -99.78452 
L 96.712576 -99.528252 
L 95.513953 -99.25145 
L 94.315331 -99.038155 
L 93.116708 -98.798872 
L 91.918085 -98.68431 
L 90.719463 -98.453794 
L 89.52084 -98.316217 
L 88.322218 -98.092647 
L 87.123595 -97.940757 
L 85.924972 -97.822833 
L 84.72635 -97.674849 
L 83.527727 -97.565136 
L 82.329105 -97.49097 
L 81.130482 -97.349954 
L 79.93186 -97.206309 
L 78.733237 -97.091755 
L 77.534614 -96.973694 
L 76.335992 -96.994424 
L 75.137369 -97.019599 
L 73.938747 -96.973674 
L 72.740124 -96.899844 
L 71.541501 -96.950984 
L 70.342879 -96.848668 
L 69.144256 -96.76592 
L 67.945634 -96.763163 
L 66.747011 -96.867434 
L 65.548388 -96.802693 
L 64.349766 -96.848129 
L 63.151143 -96.867663 
L 61.952521 -96.802365 
L 60.753898 -96.735566 
L 59.555275 -96.670211 
L 58.356653 -96.794748 
L 57.15803 -96.686164 
L 55.959408 -96.797929 
L 54.760785 -96.746949 
L 53.562163 -96.755166 
L 52.36354 -96.893718 
L 51.164917 -97.093428 
L 49.966295 -97.227313 
L 48.767672 -97.456789 
L 47.56905 -97.585617 
L 46.370427 -97.636729 
L 45.171804 -97.780837 
L 43.973182 -97.895216 
z
" style="stroke: #ffffff; stroke-opacity: 0.15; stroke-width: 0.8"/>
    </defs>
    <g clip-path="url(#pa2969e41c2)">
     <use xlink:href="#m90ade08a30" x="0" y="180" style="fill: #1f77b4; fill-opacity: 0.15; stroke: #ffffff; stroke-opacity: 0.15; stroke-width: 0.8"/>
    </g>
   </g>
   <g id="line2d_12">
    <path d="M 43.973182 95.636078 
L 45.171804 95.473343 
L 46.370427 95.310607 
L 47.56905 95.147871 
L 48.767672 94.985136 
L 49.966295 94.8224 
L 51.164917 94.659665 
L 52.36354 94.496929 
L 53.562163 94.334193 
L 54.760785 94.171458 
L 55.959408 94.008722 
L 57.15803 93.845986 
L 58.356653 93.683251 
L 59.555275 93.520515 
L 60.753898 93.357779 
L 61.952521 93.195044 
L 63.151143 93.032308 
L 64.349766 92.869573 
L 65.548388 92.706837 
L 66.747011 92.544101 
L 67.945634 92.381366 
L 69.144256 92.21863 
L 70.342879 92.055894 
L 71.541501 91.893159 
L 72.740124 91.730423 
L 73.938747 91.567687 
L 75.137369 91.404952 
L 76.335992 91.242216 
L 77.534614 91.07948 
L 78.733237 90.916745 
L 79.93186 90.754009 
L 81.130482 90.591274 
L 82.329105 90.428538 
L 83.527727 90.265802 
L 84.72635 90.103067 
L 85.924972 89.940331 
L 87.123595 89.777595 
L 88.322218 89.61486 
L 89.52084 89.452124 
L 90.719463 89.289388 
L 91.918085 89.126653 
L 93.116708 88.963917 
L 94.315331 88.801181 
L 95.513953 88.638446 
L 96.712576 88.47571 
L 97.911198 88.312975 
L 99.109821 88.150239 
L 100.308444 87.987503 
L 101.507066 87.824768 
L 102.705689 87.662032 
L 103.904311 87.499296 
L 105.102934 87.336561 
L 106.301556 87.173825 
L 107.500179 87.011089 
L 108.698802 86.848354 
L 109.897424 86.685618 
L 111.096047 86.522882 
L 112.294669 86.360147 
L 113.493292 86.197411 
L 114.691915 86.034676 
L 115.890537 85.87194 
L 117.08916 85.709204 
L 118.287782 85.546469 
L 119.486405 85.383733 
L 120.685028 85.220997 
L 121.88365 85.058262 
L 123.082273 84.895526 
L 124.280895 84.73279 
L 125.479518 84.570055 
L 126.67814 84.407319 
L 127.876763 84.244583 
L 129.075386 84.081848 
L 130.274008 83.919112 
L 131.472631 83.756377 
L 132.671253 83.593641 
L 133.869876 83.430905 
L 135.068499 83.26817 
L 136.267121 83.105434 
L 137.465744 82.942698 
L 138.664366 82.779963 
L 139.862989 82.617227 
L 141.061612 82.454491 
L 142.260234 82.291756 
L 143.458857 82.12902 
L 144.657479 81.966285 
L 145.856102 81.803549 
L 147.054725 81.640813 
L 148.253347 81.478078 
L 149.45197 81.315342 
L 150.650592 81.152606 
L 151.849215 80.989871 
L 153.047837 80.827135 
L 154.24646 80.664399 
L 155.445083 80.501664 
L 156.643705 80.338928 
L 157.842328 80.176192 
L 159.04095 80.013457 
L 160.239573 79.850721 
L 161.438196 79.687986 
L 162.636818 79.52525 
" clip-path="url(#pa2969e41c2)" style="fill: none; stroke: #1f77b4; stroke-width: 1.8; stroke-linecap: round"/>
   </g>
   <g id="patch_3">
    <path d="M 38.04 138.18 
L 38.04 24 
" style="fill: none; stroke: #cccccc; stroke-linejoin: miter; stroke-linecap: square"/>
   </g>
   <g id="patch_4">
    <path d="M 168.57 138.18 
L 168.57 24 
" style="fill: none; stroke: #cccccc; stroke-linejoin: miter; stroke-linecap: square"/>
   </g>
   <g id="patch_5">
    <path d="M 38.04 138.18 
L 168.57 138.18 
" style="fill: none; stroke: #cccccc; stroke-linejoin: miter; stroke-linecap: square"/>
   </g>
   <g id="patch_6">
    <path d="M 38.04 24 
L 168.57 24 
" style="fill: none; stroke: #cccccc; stroke-linejoin: miter; stroke-linecap: square"/>
   </g>
   <g id="text_14">
    <!-- rho = 0.05 -->
    <g style="fill: #262626" transform="translate(116.358 36.882438) scale(0.1 -0.1)">
     <defs>
      <path id="Helvetica-72" d="M 428 3347 
L 963 3347 
L 963 2769 
Q 1028 2938 1284 3180 
Q 1541 3422 1875 3422 
Q 1891 3422 1928 3419 
Q 1966 3416 2056 3406 
L 2056 2813 
Q 2006 2822 1964 2825 
Q 1922 2828 1872 2828 
Q 1447 2828 1219 2554 
Q 991 2281 991 1925 
L 991 0 
L 428 0 
L 428 3347 
z
" transform="scale(0.015625)"/>
      <path id="Helvetica-68" d="M 413 4606 
L 975 4606 
L 975 2894 
Q 1175 3147 1334 3250 
Q 1606 3428 2013 3428 
Q 2741 3428 3000 2919 
Q 3141 2641 3141 2147 
L 3141 0 
L 2563 0 
L 2563 2109 
Q 2563 2478 2469 2650 
Q 2316 2925 1894 2925 
Q 1544 2925 1259 2684 
Q 975 2444 975 1775 
L 975 0 
L 413 0 
L 413 4606 
z
" transform="scale(0.015625)"/>
      <path id="Helvetica-3d" d="M 3547 2569 
L 3547 2044 
L 288 2044 
L 288 2569 
L 3547 2569 
z
M 3547 1228 
L 3547 694 
L 288 694 
L 288 1228 
L 3547 1228 
z
" transform="scale(0.015625)"/>
      <path id="Helvetica-2e" d="M 547 681 
L 1200 681 
L 1200 0 
L 547 0 
L 547 681 
z
" transform="scale(0.015625)"/>
     </defs>
     <use xlink:href="#Helvetica-72"/>
     <use xlink:href="#Helvetica-68" x="33.300781"/>
     <use xlink:href="#Helvetica-6f" x="88.916016"/>
     <use xlink:href="#Helvetica-20" x="144.53125"/>
     <use xlink:href="#Helvetica-3d" x="172.314453"/>
     <use xlink:href="#Helvetica-20" x="230.712891"/>
     <use xlink:href="#Helvetica-30" x="258.496094"/>
     <use xlink:href="#Helvetica-2e" x="314.111328"/>
     <use xlink:href="#Helvetica-30" x="341.894531"/>
     <use xlink:href="#Helvetica-35" x="397.509766"/>
    </g>
    <!-- p = 7.47e-01 -->
    <g style="fill: #262626" transform="translate(116.358 47.574938) scale(0.1 -0.1)">
     <defs>
      <path id="Helvetica-70" d="M 1825 378 
Q 2219 378 2480 708 
Q 2741 1038 2741 1694 
Q 2741 2094 2625 2381 
Q 2406 2934 1825 2934 
Q 1241 2934 1025 2350 
Q 909 2038 909 1556 
Q 909 1169 1025 897 
Q 1244 378 1825 378 
z
M 369 3331 
L 916 3331 
L 916 2888 
Q 1084 3116 1284 3241 
Q 1569 3428 1953 3428 
Q 2522 3428 2919 2992 
Q 3316 2556 3316 1747 
Q 3316 653 2744 184 
Q 2381 -113 1900 -113 
Q 1522 -113 1266 53 
Q 1116 147 931 375 
L 931 -1334 
L 369 -1334 
L 369 3331 
z
" transform="scale(0.015625)"/>
      <path id="Helvetica-2d" d="M 266 2072 
L 1834 2072 
L 1834 1494 
L 266 1494 
L 266 2072 
z
" transform="scale(0.015625)"/>
     </defs>
     <use xlink:href="#Helvetica-70"/>
     <use xlink:href="#Helvetica-20" x="55.615234"/>
     <use xlink:href="#Helvetica-3d" x="83.398438"/>
     <use xlink:href="#Helvetica-20" x="141.796875"/>
     <use xlink:href="#Helvetica-37" x="169.580078"/>
     <use xlink:href="#Helvetica-2e" x="225.195312"/>
     <use xlink:href="#Helvetica-34" x="252.978516"/>
     <use xlink:href="#Helvetica-37" x="308.59375"/>
     <use xlink:href="#Helvetica-65" x="364.208984"/>
     <use xlink:href="#Helvetica-2d" x="419.824219"/>
     <use xlink:href="#Helvetica-30" x="453.125"/>
     <use xlink:href="#Helvetica-31" x="508.740234"/>
    </g>
   </g>
   <g id="text_15">
    <!-- Peptriever vs agonist selectivity -->
    <g style="fill: #262626" transform="translate(33.557344 18) scale(0.1 -0.1)">
     <defs>
      <path id="Helvetica-50" d="M 547 4591 
L 2613 4591 
Q 3225 4591 3600 4245 
Q 3975 3900 3975 3275 
Q 3975 2738 3640 2339 
Q 3306 1941 2613 1941 
L 1169 1941 
L 1169 0 
L 547 0 
L 547 4591 
z
M 3347 3272 
Q 3347 3778 2972 3959 
Q 2766 4056 2406 4056 
L 1169 4056 
L 1169 2466 
L 2406 2466 
Q 2825 2466 3086 2644 
Q 3347 2822 3347 3272 
z
" transform="scale(0.015625)"/>
     </defs>
     <use xlink:href="#Helvetica-50"/>
     <use xlink:href="#Helvetica-65" x="66.699219"/>
     <use xlink:href="#Helvetica-70" x="122.314453"/>
     <use xlink:href="#Helvetica-74" x="177.929688"/>
     <use xlink:href="#Helvetica-72" x="205.712891"/>
     <use xlink:href="#Helvetica-69" x="239.013672"/>
     <use xlink:href="#Helvetica-65" x="261.230469"/>
     <use xlink:href="#Helvetica-76" x="316.845703"/>
     <use xlink:href="#Helvetica-65" x="366.845703"/>
     <use xlink:href="#Helvetica-72" x="422.460938"/>
     <use xlink:href="#Helvetica-20" x="455.761719"/>
     <use xlink:href="#Helvetica-76" x="483.544922"/>
     <use xlink:href="#Helvetica-73" x="533.544922"/>
     <use xlink:href="#Helvetica-20" x="583.544922"/>
     <use xlink:href="#Helvetica-61" x="611.328125"/>
     <use xlink:href="#Helvetica-67" x="666.943359"/>
     <use xlink:href="#Helvetica-6f" x="722.558594"/>
     <use xlink:href="#Helvetica-6e" x="778.173828"/>
     <use xlink:href="#Helvetica-69" x="833.789062"/>
     <use xlink:href="#Helvetica-73" x="856.005859"/>
     <use xlink:href="#Helvetica-74" x="906.005859"/>
     <use xlink:href="#Helvetica-20" x="933.789062"/>
     <use xlink:href="#Helvetica-73" x="961.572266"/>
     <use xlink:href="#Helvetica-65" x="1011.572266"/>
     <use xlink:href="#Helvetica-6c" x="1067.1875"/>
     <use xlink:href="#Helvetica-65" x="1089.404297"/>
     <use xlink:href="#Helvetica-63" x="1145.019531"/>
     <use xlink:href="#Helvetica-74" x="1195.019531"/>
     <use xlink:href="#Helvetica-69" x="1222.802734"/>
     <use xlink:href="#Helvetica-76" x="1245.019531"/>
     <use xlink:href="#Helvetica-69" x="1295.019531"/>
     <use xlink:href="#Helvetica-74" x="1317.236328"/>
     <use xlink:href="#Helvetica-79" x="1345.019531"/>
    </g>
   </g>
  </g>
 </g>
 <defs>
  <clipPath id="pa2969e41c2">
   <rect x="38.04" y="24" width="130.53" height="114.18"/>
  </clipPath>
 </defs>
</svg>
