<?xml version="1.0" encoding="utf-8" standalone="no"?>
<!DOCTYPE svg PUBLIC "-//W3C//DTD SVG 1.1//EN"
  "http://www.w3.org/Graphics/SVG/1.1/DTD/svg11.dtd">
<svg xmlns:xlink="http://www.w3.org/1999/xlink" width="180pt" height="180pt" viewBox="0 0 180 180" xmlns="http://www.w3.org/2000/svg" version="1.1">
 <metadata>
  <rdf:RDF xmlns:dc="http://purl.org/dc/elements/1.1/" xmlns:cc="http://creativecommons.org/ns#" xmlns:rdf="http://www.w3.org/1999/02/22-rdf-syntax-ns#">
   <cc:Work>
    <dc:type rdf:resource="http://purl.org/dc/dcmitype/StillImage"/>
    <dc:date>2025-01-06T14:44:49.461796</dc:date>
    <dc:format>image/svg+xml</dc:format>
    <dc:creator>
     <cc:Agent>
      <dc:title>Matplotlib v3.6.3, https://matplotlib.org/</dc:title>
     </cc:Agent>
    </dc:creator>
   </cc:Work>
  </rdf:RDF>
 </metadata>
 <defs>
  <style type="text/css">*{stroke-linejoin: round; stroke-linecap: butt}</style>
 </defs>
 <g id="figure_1">
  <g id="patch_1">
   <path d="M 0 180 
L 180 180 
L 180 0 
L 0 0 
z
" style="fill: #ffffff"/>
  </g>
  <g id="axes_1">
   <g id="patch_2">
    <path d="M 43.62 138.18 
L 168.525 138.18 
L 168.525 24 
L 43.62 24 
z
" style="fill: #ffffff"/>
   </g>
   <g id="matplotlib.axis_1">
    <g id="xtick_1">
     <g id="line2d_1">
      <path d="M 46.45875 138.18 
L 46.45875 24 
" clip-path="url(#pab321084df)" style="fill: none; stroke: #cccccc; stroke-width: 0.8; stroke-linecap: round"/>
     </g>
     <g id="text_1">
      <!-- 6 -->
      <g style="fill: #262626" transform="translate(43.678281 153.653437) scale(0.1 -0.1)">
       <defs>
        <path id="Helvetica-36" d="M 1872 4494 
Q 2622 4494 2917 4105 
Q 3213 3716 3213 3303 
L 2656 3303 
Q 2606 3569 2497 3719 
Q 2294 4000 1881 4000 
Q 1409 4000 1131 3564 
Q 853 3128 822 2316 
Q 1016 2600 1309 2741 
Q 1578 2866 1909 2866 
Q 2472 2866 2890 2506 
Q 3309 2147 3309 1434 
Q 3309 825 2912 354 
Q 2516 -116 1781 -116 
Q 1153 -116 697 361 
Q 241 838 241 1966 
Q 241 2800 444 3381 
Q 834 4494 1872 4494 
z
M 1831 384 
Q 2275 384 2495 682 
Q 2716 981 2716 1388 
Q 2716 1731 2519 2042 
Q 2322 2353 1803 2353 
Q 1441 2353 1167 2112 
Q 894 1872 894 1388 
Q 894 963 1142 673 
Q 1391 384 1831 384 
z
" transform="scale(0.015625)"/>
       </defs>
       <use xlink:href="#Helvetica-36"/>
      </g>
     </g>
    </g>
    <g id="xtick_2">
     <g id="line2d_2">
      <path d="M 103.23375 138.18 
L 103.23375 24 
" clip-path="url(#pab321084df)" style="fill: none; stroke: #cccccc; stroke-width: 0.8; stroke-linecap: round"/>
     </g>
     <g id="text_2">
      <!-- 8 -->
      <g style="fill: #262626" transform="translate(100.453281 153.653437) scale(0.1 -0.1)">
       <defs>
        <path id="Helvetica-38" d="M 1741 2600 
Q 2113 2600 2322 2808 
Q 2531 3016 2531 3303 
Q 2531 3553 2331 3762 
Q 2131 3972 1722 3972 
Q 1316 3972 1134 3762 
Q 953 3553 953 3272 
Q 953 2956 1187 2778 
Q 1422 2600 1741 2600 
z
M 1775 384 
Q 2166 384 2423 595 
Q 2681 806 2681 1225 
Q 2681 1659 2415 1884 
Q 2150 2109 1734 2109 
Q 1331 2109 1076 1879 
Q 822 1650 822 1244 
Q 822 894 1055 639 
Q 1288 384 1775 384 
z
M 975 2384 
Q 741 2484 609 2619 
Q 363 2869 363 3269 
Q 363 3769 725 4128 
Q 1088 4488 1753 4488 
Q 2397 4488 2762 4148 
Q 3128 3809 3128 3356 
Q 3128 2938 2916 2678 
Q 2797 2531 2547 2391 
Q 2825 2263 2984 2097 
Q 3281 1784 3281 1284 
Q 3281 694 2884 283 
Q 2488 -128 1763 -128 
Q 1109 -128 657 226 
Q 206 581 206 1256 
Q 206 1653 400 1942 
Q 594 2231 975 2384 
z
" transform="scale(0.015625)"/>
       </defs>
       <use xlink:href="#Helvetica-38"/>
      </g>
     </g>
    </g>
    <g id="xtick_3">
     <g id="line2d_3">
      <path d="M 160.00875 138.18 
L 160.00875 24 
" clip-path="url(#pab321084df)" style="fill: none; stroke: #cccccc; stroke-width: 0.8; stroke-linecap: round"/>
     </g>
     <g id="text_3">
      <!-- 10 -->
      <g style="fill: #262626" transform="translate(154.447812 153.653437) scale(0.1 -0.1)">
       <defs>
        <path id="Helvetica-31" d="M 613 3169 
L 613 3600 
Q 1222 3659 1462 3798 
Q 1703 3938 1822 4456 
L 2266 4456 
L 2266 0 
L 1666 0 
L 1666 3169 
L 613 3169 
z
" transform="scale(0.015625)"/>
        <path id="Helvetica-30" d="M 1731 4475 
Q 2600 4475 2988 3759 
Q 3288 3206 3288 2244 
Q 3288 1331 3016 734 
Q 2622 -122 1728 -122 
Q 922 -122 528 578 
Q 200 1163 200 2147 
Q 200 2909 397 3456 
Q 766 4475 1731 4475 
z
M 1725 391 
Q 2163 391 2422 778 
Q 2681 1166 2681 2222 
Q 2681 2984 2493 3476 
Q 2306 3969 1766 3969 
Q 1269 3969 1039 3501 
Q 809 3034 809 2125 
Q 809 1441 956 1025 
Q 1181 391 1725 391 
z
" transform="scale(0.015625)"/>
       </defs>
       <use xlink:href="#Helvetica-31"/>
       <use xlink:href="#Helvetica-30" x="55.615234"/>
      </g>
     </g>
    </g>
    <g id="text_4">
     <!-- pKi -->
     <g style="fill: #262626" transform="translate(98.845937 166.91125) scale(0.1 -0.1)">
      <defs>
       <path id="Helvetica-70" d="M 1825 378 
Q 2219 378 2480 708 
Q 2741 1038 2741 1694 
Q 2741 2094 2625 2381 
Q 2406 2934 1825 2934 
Q 1241 2934 1025 2350 
Q 909 2038 909 1556 
Q 909 1169 1025 897 
Q 1244 378 1825 378 
z
M 369 3331 
L 916 3331 
L 916 2888 
Q 1084 3116 1284 3241 
Q 1569 3428 1953 3428 
Q 2522 3428 2919 2992 
Q 3316 2556 3316 1747 
Q 3316 653 2744 184 
Q 2381 -113 1900 -113 
Q 1522 -113 1266 53 
Q 1116 147 931 375 
L 931 -1334 
L 369 -1334 
L 369 3331 
z
" transform="scale(0.015625)"/>
       <path id="Helvetica-4b" d="M 488 4591 
L 1094 4591 
L 1094 2353 
L 3331 4591 
L 4191 4591 
L 2281 2741 
L 4244 0 
L 3434 0 
L 1828 2303 
L 1094 1600 
L 1094 0 
L 488 0 
L 488 4591 
z
" transform="scale(0.015625)"/>
       <path id="Helvetica-69" d="M 413 3331 
L 984 3331 
L 984 0 
L 413 0 
L 413 3331 
z
M 413 4591 
L 984 4591 
L 984 3953 
L 413 3953 
L 413 4591 
z
" transform="scale(0.015625)"/>
      </defs>
      <use xlink:href="#Helvetica-70"/>
      <use xlink:href="#Helvetica-4b" x="55.615234"/>
      <use xlink:href="#Helvetica-69" x="122.314453"/>
     </g>
    </g>
   </g>
   <g id="matplotlib.axis_2">
    <g id="ytick_1">
     <g id="line2d_4">
      <path d="M 43.62 138.18 
L 168.525 138.18 
" clip-path="url(#pab321084df)" style="fill: none; stroke: #cccccc; stroke-width: 0.8; stroke-linecap: round"/>
     </g>
     <g id="text_5">
      <!-- 0 -->
      <g style="fill: #262626" transform="translate(29.759063 141.766719) scale(0.1 -0.1)">
       <use xlink:href="#Helvetica-30"/>
      </g>
     </g>
    </g>
    <g id="ytick_2">
     <g id="line2d_5">
      <path d="M 43.62 127.8 
L 168.525 127.8 
" clip-path="url(#pab321084df)" style="fill: none; stroke: #cccccc; stroke-width: 0.8; stroke-linecap: round"/>
     </g>
     <g id="text_6">
      <!-- 1 -->
      <g style="fill: #262626" transform="translate(29.759063 131.386719) scale(0.1 -0.1)">
       <use xlink:href="#Helvetica-31"/>
      </g>
     </g>
    </g>
    <g id="ytick_3">
     <g id="line2d_6">
      <path d="M 43.62 117.42 
L 168.525 117.42 
" clip-path="url(#pab321084df)" style="fill: none; stroke: #cccccc; stroke-width: 0.8; stroke-linecap: round"/>
     </g>
     <g id="text_7">
      <!-- 2 -->
      <g style="fill: #262626" transform="translate(29.759063 121.006719) scale(0.1 -0.1)">
       <defs>
        <path id="Helvetica-32" d="M 200 0 
Q 231 578 439 1006 
Q 647 1434 1250 1784 
L 1850 2131 
Q 2253 2366 2416 2531 
Q 2672 2791 2672 3125 
Q 2672 3516 2437 3745 
Q 2203 3975 1813 3975 
Q 1234 3975 1013 3538 
Q 894 3303 881 2888 
L 309 2888 
Q 319 3472 525 3841 
Q 891 4491 1816 4491 
Q 2584 4491 2939 4075 
Q 3294 3659 3294 3150 
Q 3294 2613 2916 2231 
Q 2697 2009 2131 1694 
L 1703 1456 
Q 1397 1288 1222 1134 
Q 909 863 828 531 
L 3272 531 
L 3272 0 
L 200 0 
z
" transform="scale(0.015625)"/>
       </defs>
       <use xlink:href="#Helvetica-32"/>
      </g>
     </g>
    </g>
    <g id="ytick_4">
     <g id="line2d_7">
      <path d="M 43.62 107.04 
L 168.525 107.04 
" clip-path="url(#pab321084df)" style="fill: none; stroke: #cccccc; stroke-width: 0.8; stroke-linecap: round"/>
     </g>
     <g id="text_8">
      <!-- 3 -->
      <g style="fill: #262626" transform="translate(29.759063 110.626719) scale(0.1 -0.1)">
       <defs>
        <path id="Helvetica-33" d="M 1663 -122 
Q 869 -122 511 314 
Q 153 750 153 1375 
L 741 1375 
Q 778 941 903 744 
Q 1122 391 1694 391 
Q 2138 391 2406 628 
Q 2675 866 2675 1241 
Q 2675 1703 2392 1887 
Q 2109 2072 1606 2072 
Q 1550 2072 1492 2070 
Q 1434 2069 1375 2066 
L 1375 2563 
Q 1463 2553 1522 2550 
Q 1581 2547 1650 2547 
Q 1966 2547 2169 2647 
Q 2525 2822 2525 3272 
Q 2525 3606 2287 3787 
Q 2050 3969 1734 3969 
Q 1172 3969 956 3594 
Q 838 3388 822 3006 
L 266 3006 
Q 266 3506 466 3856 
Q 809 4481 1675 4481 
Q 2359 4481 2734 4176 
Q 3109 3872 3109 3294 
Q 3109 2881 2888 2625 
Q 2750 2466 2531 2375 
Q 2884 2278 3082 2001 
Q 3281 1725 3281 1325 
Q 3281 684 2859 281 
Q 2438 -122 1663 -122 
z
" transform="scale(0.015625)"/>
       </defs>
       <use xlink:href="#Helvetica-33"/>
      </g>
     </g>
    </g>
    <g id="ytick_5">
     <g id="line2d_8">
      <path d="M 43.62 96.66 
L 168.525 96.66 
" clip-path="url(#pab321084df)" style="fill: none; stroke: #cccccc; stroke-width: 0.8; stroke-linecap: round"/>
     </g>
     <g id="text_9">
      <!-- 4 -->
      <g style="fill: #262626" transform="translate(29.759063 100.246719) scale(0.1 -0.1)">
       <defs>
        <path id="Helvetica-34" d="M 2116 1584 
L 2116 3613 
L 681 1584 
L 2116 1584 
z
M 2125 0 
L 2125 1094 
L 163 1094 
L 163 1644 
L 2213 4488 
L 2688 4488 
L 2688 1584 
L 3347 1584 
L 3347 1094 
L 2688 1094 
L 2688 0 
L 2125 0 
z
" transform="scale(0.015625)"/>
       </defs>
       <use xlink:href="#Helvetica-34"/>
      </g>
     </g>
    </g>
    <g id="ytick_6">
     <g id="line2d_9">
      <path d="M 43.62 86.28 
L 168.525 86.28 
" clip-path="url(#pab321084df)" style="fill: none; stroke: #cccccc; stroke-width: 0.8; stroke-linecap: round"/>
     </g>
     <g id="text_10">
      <!-- 5 -->
      <g style="fill: #262626" transform="translate(29.759063 89.866719) scale(0.1 -0.1)">
       <defs>
        <path id="Helvetica-35" d="M 791 1141 
Q 847 659 1238 475 
Q 1438 381 1700 381 
Q 2200 381 2440 700 
Q 2681 1019 2681 1406 
Q 2681 1875 2395 2131 
Q 2109 2388 1709 2388 
Q 1419 2388 1211 2275 
Q 1003 2163 856 1963 
L 369 1991 
L 709 4400 
L 3034 4400 
L 3034 3856 
L 1131 3856 
L 941 2613 
Q 1097 2731 1238 2791 
Q 1488 2894 1816 2894 
Q 2431 2894 2859 2497 
Q 3288 2100 3288 1491 
Q 3288 856 2895 371 
Q 2503 -113 1644 -113 
Q 1097 -113 676 195 
Q 256 503 206 1141 
L 791 1141 
z
" transform="scale(0.015625)"/>
       </defs>
       <use xlink:href="#Helvetica-35"/>
      </g>
     </g>
    </g>
    <g id="ytick_7">
     <g id="line2d_10">
      <path d="M 43.62 75.9 
L 168.525 75.9 
" clip-path="url(#pab321084df)" style="fill: none; stroke: #cccccc; stroke-width: 0.8; stroke-linecap: round"/>
     </g>
     <g id="text_11">
      <!-- 6 -->
      <g style="fill: #262626" transform="translate(29.759063 79.486719) scale(0.1 -0.1)">
       <use xlink:href="#Helvetica-36"/>
      </g>
     </g>
    </g>
    <g id="ytick_8">
     <g id="line2d_11">
      <path d="M 43.62 65.52 
L 168.525 65.52 
" clip-path="url(#pab321084df)" style="fill: none; stroke: #cccccc; stroke-width: 0.8; stroke-linecap: round"/>
     </g>
     <g id="text_12">
      <!-- 7 -->
      <g style="fill: #262626" transform="translate(29.759063 69.106719) scale(0.1 -0.1)">
       <defs>
        <path id="Helvetica-37" d="M 3347 4400 
L 3347 3909 
Q 3131 3700 2773 3181 
Q 2416 2663 2141 2063 
Q 1869 1478 1728 997 
Q 1638 688 1494 0 
L 872 0 
Q 1084 1281 1809 2550 
Q 2238 3294 2709 3834 
L 234 3834 
L 234 4400 
L 3347 4400 
z
" transform="scale(0.015625)"/>
       </defs>
       <use xlink:href="#Helvetica-37"/>
      </g>
     </g>
    </g>
    <g id="ytick_9">
     <g id="line2d_12">
      <path d="M 43.62 55.14 
L 168.525 55.14 
" clip-path="url(#pab321084df)" style="fill: none; stroke: #cccccc; stroke-width: 0.8; stroke-linecap: round"/>
     </g>
     <g id="text_13">
      <!-- 8 -->
      <g style="fill: #262626" transform="translate(29.759063 58.726719) scale(0.1 -0.1)">
       <use xlink:href="#Helvetica-38"/>
      </g>
     </g>
    </g>
    <g id="ytick_10">
     <g id="line2d_13">
      <path d="M 43.62 44.76 
L 168.525 44.76 
" clip-path="url(#pab321084df)" style="fill: none; stroke: #cccccc; stroke-width: 0.8; stroke-linecap: round"/>
     </g>
     <g id="text_14">
      <!-- 9 -->
      <g style="fill: #262626" transform="translate(29.759063 48.346719) scale(0.1 -0.1)">
       <defs>
        <path id="Helvetica-39" d="M 850 1081 
Q 875 616 1209 438 
Q 1381 344 1597 344 
Q 2000 344 2284 680 
Q 2569 1016 2688 2044 
Q 2500 1747 2223 1626 
Q 1947 1506 1628 1506 
Q 981 1506 604 1909 
Q 228 2313 228 2947 
Q 228 3556 600 4018 
Q 972 4481 1697 4481 
Q 2675 4481 3047 3600 
Q 3253 3116 3253 2388 
Q 3253 1566 3006 931 
Q 2597 -125 1619 -125 
Q 963 -125 622 219 
Q 281 563 281 1081 
L 850 1081 
z
M 1703 2000 
Q 2038 2000 2314 2220 
Q 2591 2441 2591 2991 
Q 2591 3484 2342 3726 
Q 2094 3969 1709 3969 
Q 1297 3969 1055 3692 
Q 813 3416 813 2953 
Q 813 2516 1025 2258 
Q 1238 2000 1703 2000 
z
" transform="scale(0.015625)"/>
       </defs>
       <use xlink:href="#Helvetica-39"/>
      </g>
     </g>
    </g>
    <g id="ytick_11">
     <g id="line2d_14">
      <path d="M 43.62 34.38 
L 168.525 34.38 
" clip-path="url(#pab321084df)" style="fill: none; stroke: #cccccc; stroke-width: 0.8; stroke-linecap: round"/>
     </g>
     <g id="text_15">
      <!-- 10 -->
      <g style="fill: #262626" transform="translate(24.198125 37.966719) scale(0.1 -0.1)">
       <use xlink:href="#Helvetica-31"/>
       <use xlink:href="#Helvetica-30" x="55.615234"/>
      </g>
     </g>
    </g>
    <g id="ytick_12">
     <g id="line2d_15">
      <path d="M 43.62 24 
L 168.525 24 
" clip-path="url(#pab321084df)" style="fill: none; stroke: #cccccc; stroke-width: 0.8; stroke-linecap: round"/>
     </g>
     <g id="text_16">
      <!-- 11 -->
      <g style="fill: #262626" transform="translate(24.198125 27.586719) scale(0.1 -0.1)">
       <use xlink:href="#Helvetica-31"/>
       <use xlink:href="#Helvetica-31" x="55.615234"/>
      </g>
     </g>
    </g>
    <g id="text_17">
     <!-- Rank -->
     <g style="fill: #262626" transform="translate(18.11375 92.761875) rotate(-90) scale(0.1 -0.1)">
      <defs>
       <path id="Helvetica-52" d="M 2622 2488 
Q 3059 2488 3314 2663 
Q 3569 2838 3569 3294 
Q 3569 3784 3213 3963 
Q 3022 4056 2703 4056 
L 1184 4056 
L 1184 2488 
L 2622 2488 
z
M 563 4591 
L 2688 4591 
Q 3213 4591 3553 4438 
Q 4200 4144 4200 3353 
Q 4200 2941 4029 2678 
Q 3859 2416 3553 2256 
Q 3822 2147 3958 1969 
Q 4094 1791 4109 1391 
L 4131 775 
Q 4141 513 4175 384 
Q 4231 166 4375 103 
L 4375 0 
L 3613 0 
Q 3581 59 3562 153 
Q 3544 247 3531 516 
L 3494 1281 
Q 3472 1731 3159 1884 
Q 2981 1969 2600 1969 
L 1184 1969 
L 1184 0 
L 563 0 
L 563 4591 
z
" transform="scale(0.015625)"/>
       <path id="Helvetica-61" d="M 844 891 
Q 844 647 1022 506 
Q 1200 366 1444 366 
Q 1741 366 2019 503 
Q 2488 731 2488 1250 
L 2488 1703 
Q 2384 1638 2221 1594 
Q 2059 1550 1903 1531 
L 1563 1488 
Q 1256 1447 1103 1359 
Q 844 1213 844 891 
z
M 2206 2028 
Q 2400 2053 2466 2191 
Q 2503 2266 2503 2406 
Q 2503 2694 2298 2823 
Q 2094 2953 1713 2953 
Q 1272 2953 1088 2716 
Q 984 2584 953 2325 
L 428 2325 
Q 444 2944 830 3186 
Q 1216 3428 1725 3428 
Q 2316 3428 2684 3203 
Q 3050 2978 3050 2503 
L 3050 575 
Q 3050 488 3086 434 
Q 3122 381 3238 381 
Q 3275 381 3322 386 
Q 3369 391 3422 400 
L 3422 -16 
Q 3291 -53 3222 -62 
Q 3153 -72 3034 -72 
Q 2744 -72 2613 134 
Q 2544 244 2516 444 
Q 2344 219 2022 53 
Q 1700 -113 1313 -113 
Q 847 -113 551 170 
Q 256 453 256 878 
Q 256 1344 547 1600 
Q 838 1856 1309 1916 
L 2206 2028 
z
M 1741 3428 
L 1741 3428 
z
" transform="scale(0.015625)"/>
       <path id="Helvetica-6e" d="M 413 3347 
L 947 3347 
L 947 2872 
Q 1184 3166 1450 3294 
Q 1716 3422 2041 3422 
Q 2753 3422 3003 2925 
Q 3141 2653 3141 2147 
L 3141 0 
L 2569 0 
L 2569 2109 
Q 2569 2416 2478 2603 
Q 2328 2916 1934 2916 
Q 1734 2916 1606 2875 
Q 1375 2806 1200 2600 
Q 1059 2434 1017 2257 
Q 975 2081 975 1753 
L 975 0 
L 413 0 
L 413 3347 
z
M 1734 3428 
L 1734 3428 
z
" transform="scale(0.015625)"/>
       <path id="Helvetica-6b" d="M 400 4591 
L 941 4591 
L 941 1925 
L 2384 3347 
L 3103 3347 
L 1822 2094 
L 3175 0 
L 2456 0 
L 1413 1688 
L 941 1256 
L 941 0 
L 400 0 
L 400 4591 
z
" transform="scale(0.015625)"/>
      </defs>
      <use xlink:href="#Helvetica-52"/>
      <use xlink:href="#Helvetica-61" x="72.216797"/>
      <use xlink:href="#Helvetica-6e" x="127.832031"/>
      <use xlink:href="#Helvetica-6b" x="183.447266"/>
     </g>
    </g>
   </g>
   <g id="PathCollection_1">
    <defs>
     <path id="md13a47435e" d="M 0 2.4 
C 0.636487 2.4 1.246992 2.147121 1.697056 1.697056 
C 2.147121 1.246992 2.4 0.636487 2.4 0 
C 2.4 -0.636487 2.147121 -1.246992 1.697056 -1.697056 
C 1.246992 -2.147121 0.636487 -2.4 0 -2.4 
C -0.636487 -2.4 -1.246992 -2.147121 -1.697056 -1.697056 
C -2.147121 -1.246992 -2.4 -0.636487 -2.4 0 
C -2.4 0.636487 -2.147121 1.246992 -1.697056 1.697056 
C -1.246992 2.147121 -0.636487 2.4 0 2.4 
z
" style="stroke: #1f77b4; stroke-opacity: 0.5"/>
    </defs>
    <g clip-path="url(#pab321084df)">
     <use xlink:href="#md13a47435e" x="135.879375" y="75.049046" style="fill: #1f77b4; fill-opacity: 0.5; stroke: #1f77b4; stroke-opacity: 0.5"/>
     <use xlink:href="#md13a47435e" x="125.94375" y="118.906327" style="fill: #1f77b4; fill-opacity: 0.5; stroke: #1f77b4; stroke-opacity: 0.5"/>
     <use xlink:href="#md13a47435e" x="133.040625" y="97.50111" style="fill: #1f77b4; fill-opacity: 0.5; stroke: #1f77b4; stroke-opacity: 0.5"/>
     <use xlink:href="#md13a47435e" x="151.4925" y="75.071336" style="fill: #1f77b4; fill-opacity: 0.5; stroke: #1f77b4; stroke-opacity: 0.5"/>
     <use xlink:href="#md13a47435e" x="49.2975" y="43.257772" style="fill: #1f77b4; fill-opacity: 0.5; stroke: #1f77b4; stroke-opacity: 0.5"/>
     <use xlink:href="#md13a47435e" x="131.62125" y="108.094929" style="fill: #1f77b4; fill-opacity: 0.5; stroke: #1f77b4; stroke-opacity: 0.5"/>
     <use xlink:href="#md13a47435e" x="116.008125" y="54.688413" style="fill: #1f77b4; fill-opacity: 0.5; stroke: #1f77b4; stroke-opacity: 0.5"/>
     <use xlink:href="#md13a47435e" x="127.363125" y="76.177174" style="fill: #1f77b4; fill-opacity: 0.5; stroke: #1f77b4; stroke-opacity: 0.5"/>
     <use xlink:href="#md13a47435e" x="137.29875" y="107.789804" style="fill: #1f77b4; fill-opacity: 0.5; stroke: #1f77b4; stroke-opacity: 0.5"/>
     <use xlink:href="#md13a47435e" x="125.94375" y="108.652699" style="fill: #1f77b4; fill-opacity: 0.5; stroke: #1f77b4; stroke-opacity: 0.5"/>
     <use xlink:href="#md13a47435e" x="161.428125" y="88.137087" style="fill: #1f77b4; fill-opacity: 0.5; stroke: #1f77b4; stroke-opacity: 0.5"/>
     <use xlink:href="#md13a47435e" x="154.33125" y="119.189773" style="fill: #1f77b4; fill-opacity: 0.5; stroke: #1f77b4; stroke-opacity: 0.5"/>
     <use xlink:href="#md13a47435e" x="114.58875" y="126.134397" style="fill: #1f77b4; fill-opacity: 0.5; stroke: #1f77b4; stroke-opacity: 0.5"/>
     <use xlink:href="#md13a47435e" x="144.395625" y="126.95085" style="fill: #1f77b4; fill-opacity: 0.5; stroke: #1f77b4; stroke-opacity: 0.5"/>
     <use xlink:href="#md13a47435e" x="128.7825" y="107.120931" style="fill: #1f77b4; fill-opacity: 0.5; stroke: #1f77b4; stroke-opacity: 0.5"/>
     <use xlink:href="#md13a47435e" x="117.4275" y="105.784376" style="fill: #1f77b4; fill-opacity: 0.5; stroke: #1f77b4; stroke-opacity: 0.5"/>
     <use xlink:href="#md13a47435e" x="128.7825" y="86.293012" style="fill: #1f77b4; fill-opacity: 0.5; stroke: #1f77b4; stroke-opacity: 0.5"/>
     <use xlink:href="#md13a47435e" x="134.46" y="129.683461" style="fill: #1f77b4; fill-opacity: 0.5; stroke: #1f77b4; stroke-opacity: 0.5"/>
     <use xlink:href="#md13a47435e" x="135.879375" y="106.13243" style="fill: #1f77b4; fill-opacity: 0.5; stroke: #1f77b4; stroke-opacity: 0.5"/>
     <use xlink:href="#md13a47435e" x="138.718125" y="87.875811" style="fill: #1f77b4; fill-opacity: 0.5; stroke: #1f77b4; stroke-opacity: 0.5"/>
     <use xlink:href="#md13a47435e" x="142.97625" y="115.92101" style="fill: #1f77b4; fill-opacity: 0.5; stroke: #1f77b4; stroke-opacity: 0.5"/>
     <use xlink:href="#md13a47435e" x="162.8475" y="108.685284" style="fill: #1f77b4; fill-opacity: 0.5; stroke: #1f77b4; stroke-opacity: 0.5"/>
     <use xlink:href="#md13a47435e" x="118.846875" y="129.397377" style="fill: #1f77b4; fill-opacity: 0.5; stroke: #1f77b4; stroke-opacity: 0.5"/>
     <use xlink:href="#md13a47435e" x="154.33125" y="96.800062" style="fill: #1f77b4; fill-opacity: 0.5; stroke: #1f77b4; stroke-opacity: 0.5"/>
     <use xlink:href="#md13a47435e" x="133.040625" y="66.412123" style="fill: #1f77b4; fill-opacity: 0.5; stroke: #1f77b4; stroke-opacity: 0.5"/>
     <use xlink:href="#md13a47435e" x="147.234375" y="106.82486" style="fill: #1f77b4; fill-opacity: 0.5; stroke: #1f77b4; stroke-opacity: 0.5"/>
     <use xlink:href="#md13a47435e" x="57.81375" y="63.602378" style="fill: #1f77b4; fill-opacity: 0.5; stroke: #1f77b4; stroke-opacity: 0.5"/>
     <use xlink:href="#md13a47435e" x="94.7175" y="97.015163" style="fill: #1f77b4; fill-opacity: 0.5; stroke: #1f77b4; stroke-opacity: 0.5"/>
     <use xlink:href="#md13a47435e" x="101.814375" y="116.309181" style="fill: #1f77b4; fill-opacity: 0.5; stroke: #1f77b4; stroke-opacity: 0.5"/>
     <use xlink:href="#md13a47435e" x="148.65375" y="108.525157" style="fill: #1f77b4; fill-opacity: 0.5; stroke: #1f77b4; stroke-opacity: 0.5"/>
     <use xlink:href="#md13a47435e" x="103.23375" y="85.572107" style="fill: #1f77b4; fill-opacity: 0.5; stroke: #1f77b4; stroke-opacity: 0.5"/>
     <use xlink:href="#md13a47435e" x="140.1375" y="33.000109" style="fill: #1f77b4; fill-opacity: 0.5; stroke: #1f77b4; stroke-opacity: 0.5"/>
     <use xlink:href="#md13a47435e" x="141.556875" y="44.771358" style="fill: #1f77b4; fill-opacity: 0.5; stroke: #1f77b4; stroke-opacity: 0.5"/>
     <use xlink:href="#md13a47435e" x="145.815" y="129.351471" style="fill: #1f77b4; fill-opacity: 0.5; stroke: #1f77b4; stroke-opacity: 0.5"/>
     <use xlink:href="#md13a47435e" x="118.846875" y="95.007493" style="fill: #1f77b4; fill-opacity: 0.5; stroke: #1f77b4; stroke-opacity: 0.5"/>
     <use xlink:href="#md13a47435e" x="145.815" y="106.184177" style="fill: #1f77b4; fill-opacity: 0.5; stroke: #1f77b4; stroke-opacity: 0.5"/>
     <use xlink:href="#md13a47435e" x="142.97625" y="35.034097" style="fill: #1f77b4; fill-opacity: 0.5; stroke: #1f77b4; stroke-opacity: 0.5"/>
     <use xlink:href="#md13a47435e" x="137.29875" y="57.167522" style="fill: #1f77b4; fill-opacity: 0.5; stroke: #1f77b4; stroke-opacity: 0.5"/>
     <use xlink:href="#md13a47435e" x="81.943125" y="108.422218" style="fill: #1f77b4; fill-opacity: 0.5; stroke: #1f77b4; stroke-opacity: 0.5"/>
     <use xlink:href="#md13a47435e" x="134.46" y="98.091927" style="fill: #1f77b4; fill-opacity: 0.5; stroke: #1f77b4; stroke-opacity: 0.5"/>
     <use xlink:href="#md13a47435e" x="115.535" y="118.615849" style="fill: #1f77b4; fill-opacity: 0.5; stroke: #1f77b4; stroke-opacity: 0.5"/>
     <use xlink:href="#md13a47435e" x="102.2875" y="98.610726" style="fill: #1f77b4; fill-opacity: 0.5; stroke: #1f77b4; stroke-opacity: 0.5"/>
     <use xlink:href="#md13a47435e" x="73.426875" y="129.313321" style="fill: #1f77b4; fill-opacity: 0.5; stroke: #1f77b4; stroke-opacity: 0.5"/>
     <use xlink:href="#md13a47435e" x="137.29875" y="84.780762" style="fill: #1f77b4; fill-opacity: 0.5; stroke: #1f77b4; stroke-opacity: 0.5"/>
     <use xlink:href="#md13a47435e" x="110.330625" y="54.406457" style="fill: #1f77b4; fill-opacity: 0.5; stroke: #1f77b4; stroke-opacity: 0.5"/>
    </g>
   </g>
   <g id="PolyCollection_1">
    <defs>
     <path id="ma3963b4e50" d="M 49.2975 -118.460771 
L 49.2975 -57.186168 
L 50.44447 -57.471226 
L 51.591439 -57.846854 
L 52.738409 -58.265174 
L 53.885379 -58.683494 
L 55.032348 -59.101814 
L 56.179318 -59.46586 
L 57.326288 -59.870448 
L 58.473258 -60.205652 
L 59.620227 -60.642147 
L 60.767197 -61.090888 
L 61.914167 -61.49651 
L 63.061136 -61.902132 
L 64.208106 -62.308677 
L 65.355076 -62.715632 
L 66.502045 -63.122588 
L 67.649015 -63.529543 
L 68.795985 -63.936499 
L 69.942955 -64.343572 
L 71.089924 -64.664495 
L 72.236894 -64.905686 
L 73.383864 -65.146876 
L 74.530833 -65.441299 
L 75.677803 -65.900054 
L 76.824773 -66.335615 
L 77.971742 -66.6413 
L 79.118712 -66.949337 
L 80.265682 -67.257373 
L 81.412652 -67.565409 
L 82.559621 -67.943055 
L 83.706591 -68.376032 
L 84.853561 -68.80901 
L 86.00053 -69.243722 
L 87.1475 -69.682904 
L 88.29447 -70.010633 
L 89.441439 -70.388702 
L 90.588409 -70.773815 
L 91.735379 -71.295663 
L 92.882348 -71.580335 
L 94.029318 -71.829423 
L 95.176288 -72.210651 
L 96.323258 -72.72225 
L 97.470227 -73.059745 
L 98.617197 -73.285582 
L 99.764167 -73.511419 
L 100.911136 -73.700341 
L 102.058106 -73.798055 
L 103.205076 -74.191642 
L 104.352045 -74.568992 
L 105.499015 -74.895484 
L 106.645985 -75.227408 
L 107.792955 -75.46814 
L 108.939924 -75.688404 
L 110.086894 -75.873407 
L 111.233864 -76.054554 
L 112.380833 -76.235702 
L 113.527803 -76.418119 
L 114.674773 -76.75985 
L 115.821742 -76.901564 
L 116.968712 -77.187457 
L 118.115682 -77.405682 
L 119.262652 -77.711589 
L 120.409621 -77.927298 
L 121.556591 -78.009068 
L 122.703561 -78.112373 
L 123.85053 -78.197031 
L 124.9975 -78.308643 
L 126.14447 -78.403381 
L 127.291439 -78.49118 
L 128.438409 -78.350974 
L 129.585379 -78.126838 
L 130.732348 -78.146818 
L 131.879318 -78.040334 
L 133.026288 -77.895613 
L 134.173258 -77.869565 
L 135.320227 -77.773892 
L 136.467197 -77.522809 
L 137.614167 -77.278691 
L 138.761136 -77.230261 
L 139.908106 -76.813897 
L 141.055076 -76.520438 
L 142.202045 -76.252608 
L 143.349015 -75.818871 
L 144.495985 -75.57506 
L 145.642955 -75.210888 
L 146.789924 -74.823107 
L 147.936894 -74.521815 
L 149.083864 -74.181946 
L 150.230833 -73.784748 
L 151.377803 -73.439419 
L 152.524773 -73.034732 
L 153.671742 -72.597881 
L 154.818712 -72.178881 
L 155.965682 -71.75459 
L 157.112652 -71.339189 
L 158.259621 -70.970627 
L 159.406591 -70.606119 
L 160.553561 -70.23028 
L 161.70053 -69.819874 
L 162.8475 -69.567925 
L 162.8475 -97.974483 
L 162.8475 -97.974483 
L 161.70053 -97.875243 
L 160.553561 -97.61097 
L 159.406591 -97.175147 
L 158.259621 -96.779342 
L 157.112652 -96.556542 
L 155.965682 -96.338411 
L 154.818712 -96.146732 
L 153.671742 -95.907894 
L 152.524773 -95.546561 
L 151.377803 -95.241097 
L 150.230833 -95.069683 
L 149.083864 -94.939701 
L 147.936894 -94.731681 
L 146.789924 -94.458639 
L 145.642955 -94.243398 
L 144.495985 -93.979353 
L 143.349015 -93.899816 
L 142.202045 -93.810496 
L 141.055076 -93.712241 
L 139.908106 -93.590154 
L 138.761136 -93.442406 
L 137.614167 -93.388658 
L 136.467197 -93.38378 
L 135.320227 -93.383114 
L 134.173258 -93.31881 
L 133.026288 -93.229963 
L 131.879318 -93.159515 
L 130.732348 -93.243677 
L 129.585379 -93.288726 
L 128.438409 -93.329323 
L 127.291439 -93.30426 
L 126.14447 -93.524006 
L 124.9975 -93.799351 
L 123.85053 -93.929572 
L 122.703561 -94.208949 
L 121.556591 -94.360778 
L 120.409621 -94.690299 
L 119.262652 -94.792475 
L 118.115682 -95.057749 
L 116.968712 -95.343237 
L 115.821742 -95.578312 
L 114.674773 -95.905619 
L 113.527803 -96.148413 
L 112.380833 -96.420981 
L 111.233864 -96.693548 
L 110.086894 -97.06395 
L 108.939924 -97.47387 
L 107.792955 -97.795286 
L 106.645985 -98.112762 
L 105.499015 -98.440923 
L 104.352045 -98.763274 
L 103.205076 -99.085626 
L 102.058106 -99.406924 
L 100.911136 -99.663536 
L 99.764167 -100.001191 
L 98.617197 -100.372452 
L 97.470227 -100.793292 
L 96.323258 -101.130227 
L 95.176288 -101.456812 
L 94.029318 -101.786492 
L 92.882348 -102.119669 
L 91.735379 -102.562114 
L 90.588409 -103.002217 
L 89.441439 -103.439603 
L 88.29447 -103.883318 
L 87.1475 -104.327033 
L 86.00053 -104.770748 
L 84.853561 -105.212244 
L 83.706591 -105.652019 
L 82.559621 -106.046499 
L 81.412652 -106.531299 
L 80.265682 -107.014613 
L 79.118712 -107.515184 
L 77.971742 -107.934618 
L 76.824773 -108.305389 
L 75.677803 -108.74707 
L 74.530833 -109.184105 
L 73.383864 -109.547986 
L 72.236894 -109.911769 
L 71.089924 -110.300233 
L 69.942955 -110.81426 
L 68.795985 -111.294078 
L 67.649015 -111.715641 
L 66.502045 -112.134851 
L 65.355076 -112.553091 
L 64.208106 -112.993708 
L 63.061136 -113.448519 
L 61.914167 -113.907765 
L 60.767197 -114.367011 
L 59.620227 -114.826257 
L 58.473258 -115.285113 
L 57.326288 -115.729743 
L 56.179318 -116.120252 
L 55.032348 -116.510338 
L 53.885379 -116.900425 
L 52.738409 -117.290511 
L 51.591439 -117.680598 
L 50.44447 -118.070684 
L 49.2975 -118.460771 
z
" style="stroke: #ffffff; stroke-opacity: 0.15; stroke-width: 0.8"/>
    </defs>
    <g clip-path="url(#pab321084df)">
     <use xlink:href="#ma3963b4e50" x="0" y="180" style="fill: #1f77b4; fill-opacity: 0.15; stroke: #ffffff; stroke-opacity: 0.15; stroke-width: 0.8"/>
    </g>
   </g>
   <g id="line2d_16">
    <path d="M 49.2975 85.891487 
L 50.44447 86.010573 
L 51.591439 86.12966 
L 52.738409 86.248746 
L 53.885379 86.367832 
L 55.032348 86.486918 
L 56.179318 86.606005 
L 57.326288 86.725091 
L 58.473258 86.844177 
L 59.620227 86.963264 
L 60.767197 87.08235 
L 61.914167 87.201436 
L 63.061136 87.320522 
L 64.208106 87.439609 
L 65.355076 87.558695 
L 66.502045 87.677781 
L 67.649015 87.796867 
L 68.795985 87.915954 
L 69.942955 88.03504 
L 71.089924 88.154126 
L 72.236894 88.273212 
L 73.383864 88.392299 
L 74.530833 88.511385 
L 75.677803 88.630471 
L 76.824773 88.749557 
L 77.971742 88.868644 
L 79.118712 88.98773 
L 80.265682 89.106816 
L 81.412652 89.225903 
L 82.559621 89.344989 
L 83.706591 89.464075 
L 84.853561 89.583161 
L 86.00053 89.702248 
L 87.1475 89.821334 
L 88.29447 89.94042 
L 89.441439 90.059506 
L 90.588409 90.178593 
L 91.735379 90.297679 
L 92.882348 90.416765 
L 94.029318 90.535851 
L 95.176288 90.654938 
L 96.323258 90.774024 
L 97.470227 90.89311 
L 98.617197 91.012196 
L 99.764167 91.131283 
L 100.911136 91.250369 
L 102.058106 91.369455 
L 103.205076 91.488542 
L 104.352045 91.607628 
L 105.499015 91.726714 
L 106.645985 91.8458 
L 107.792955 91.964887 
L 108.939924 92.083973 
L 110.086894 92.203059 
L 111.233864 92.322145 
L 112.380833 92.441232 
L 113.527803 92.560318 
L 114.674773 92.679404 
L 115.821742 92.79849 
L 116.968712 92.917577 
L 118.115682 93.036663 
L 119.262652 93.155749 
L 120.409621 93.274835 
L 121.556591 93.393922 
L 122.703561 93.513008 
L 123.85053 93.632094 
L 124.9975 93.75118 
L 126.14447 93.870267 
L 127.291439 93.989353 
L 128.438409 94.108439 
L 129.585379 94.227526 
L 130.732348 94.346612 
L 131.879318 94.465698 
L 133.026288 94.584784 
L 134.173258 94.703871 
L 135.320227 94.822957 
L 136.467197 94.942043 
L 137.614167 95.061129 
L 138.761136 95.180216 
L 139.908106 95.299302 
L 141.055076 95.418388 
L 142.202045 95.537474 
L 143.349015 95.656561 
L 144.495985 95.775647 
L 145.642955 95.894733 
L 146.789924 96.013819 
L 147.936894 96.132906 
L 149.083864 96.251992 
L 150.230833 96.371078 
L 151.377803 96.490165 
L 152.524773 96.609251 
L 153.671742 96.728337 
L 154.818712 96.847423 
L 155.965682 96.96651 
L 157.112652 97.085596 
L 158.259621 97.204682 
L 159.406591 97.323768 
L 160.553561 97.442855 
L 161.70053 97.561941 
L 162.8475 97.681027 
" clip-path="url(#pab321084df)" style="fill: none; stroke: #1f77b4; stroke-width: 1.8; stroke-linecap: round"/>
   </g>
   <g id="patch_3">
    <path d="M 43.62 138.18 
L 43.62 24 
" style="fill: none; stroke: #cccccc; stroke-linejoin: miter; stroke-linecap: square"/>
   </g>
   <g id="patch_4">
    <path d="M 168.525 138.18 
L 168.525 24 
" style="fill: none; stroke: #cccccc; stroke-linejoin: miter; stroke-linecap: square"/>
   </g>
   <g id="patch_5">
    <path d="M 43.62 138.18 
L 168.525 138.18 
" style="fill: none; stroke: #cccccc; stroke-linejoin: miter; stroke-linecap: square"/>
   </g>
   <g id="patch_6">
    <path d="M 43.62 24 
L 168.525 24 
" style="fill: none; stroke: #cccccc; stroke-linejoin: miter; stroke-linecap: square"/>
   </g>
   <g id="text_18">
    <!-- rho = -0.01 -->
    <g style="fill: #262626" transform="translate(118.563 36.882438) scale(0.1 -0.1)">
     <defs>
      <path id="Helvetica-72" d="M 428 3347 
L 963 3347 
L 963 2769 
Q 1028 2938 1284 3180 
Q 1541 3422 1875 3422 
Q 1891 3422 1928 3419 
Q 1966 3416 2056 3406 
L 2056 2813 
Q 2006 2822 1964 2825 
Q 1922 2828 1872 2828 
Q 1447 2828 1219 2554 
Q 991 2281 991 1925 
L 991 0 
L 428 0 
L 428 3347 
z
" transform="scale(0.015625)"/>
      <path id="Helvetica-68" d="M 413 4606 
L 975 4606 
L 975 2894 
Q 1175 3147 1334 3250 
Q 1606 3428 2013 3428 
Q 2741 3428 3000 2919 
Q 3141 2641 3141 2147 
L 3141 0 
L 2563 0 
L 2563 2109 
Q 2563 2478 2469 2650 
Q 2316 2925 1894 2925 
Q 1544 2925 1259 2684 
Q 975 2444 975 1775 
L 975 0 
L 413 0 
L 413 4606 
z
" transform="scale(0.015625)"/>
      <path id="Helvetica-6f" d="M 1741 363 
Q 2300 363 2508 786 
Q 2716 1209 2716 1728 
Q 2716 2197 2566 2491 
Q 2328 2953 1747 2953 
Q 1231 2953 997 2559 
Q 763 2166 763 1609 
Q 763 1075 997 719 
Q 1231 363 1741 363 
z
M 1763 3444 
Q 2409 3444 2856 3012 
Q 3303 2581 3303 1744 
Q 3303 934 2909 406 
Q 2516 -122 1688 -122 
Q 997 -122 590 345 
Q 184 813 184 1600 
Q 184 2444 612 2944 
Q 1041 3444 1763 3444 
z
M 1744 3428 
L 1744 3428 
z
" transform="scale(0.015625)"/>
      <path id="Helvetica-20" transform="scale(0.015625)"/>
      <path id="Helvetica-3d" d="M 3547 2569 
L 3547 2044 
L 288 2044 
L 288 2569 
L 3547 2569 
z
M 3547 1228 
L 3547 694 
L 288 694 
L 288 1228 
L 3547 1228 
z
" transform="scale(0.015625)"/>
      <path id="Helvetica-2d" d="M 266 2072 
L 1834 2072 
L 1834 1494 
L 266 1494 
L 266 2072 
z
" transform="scale(0.015625)"/>
      <path id="Helvetica-2e" d="M 547 681 
L 1200 681 
L 1200 0 
L 547 0 
L 547 681 
z
" transform="scale(0.015625)"/>
     </defs>
     <use xlink:href="#Helvetica-72"/>
     <use xlink:href="#Helvetica-68" x="33.300781"/>
     <use xlink:href="#Helvetica-6f" x="88.916016"/>
     <use xlink:href="#Helvetica-20" x="144.53125"/>
     <use xlink:href="#Helvetica-3d" x="172.314453"/>
     <use xlink:href="#Helvetica-20" x="230.712891"/>
     <use xlink:href="#Helvetica-2d" x="258.496094"/>
     <use xlink:href="#Helvetica-30" x="291.796875"/>
     <use xlink:href="#Helvetica-2e" x="347.412109"/>
     <use xlink:href="#Helvetica-30" x="375.195312"/>
     <use xlink:href="#Helvetica-31" x="430.810547"/>
    </g>
    <!-- p = 9.53e-01 -->
    <g style="fill: #262626" transform="translate(118.563 47.574938) scale(0.1 -0.1)">
     <defs>
      <path id="Helvetica-65" d="M 1806 3422 
Q 2163 3422 2497 3255 
Q 2831 3088 3006 2822 
Q 3175 2569 3231 2231 
Q 3281 2000 3281 1494 
L 828 1494 
Q 844 984 1069 676 
Q 1294 369 1766 369 
Q 2206 369 2469 659 
Q 2619 828 2681 1050 
L 3234 1050 
Q 3213 866 3089 639 
Q 2966 413 2813 269 
Q 2556 19 2178 -69 
Q 1975 -119 1719 -119 
Q 1094 -119 659 336 
Q 225 791 225 1609 
Q 225 2416 662 2919 
Q 1100 3422 1806 3422 
z
M 2703 1941 
Q 2669 2306 2544 2525 
Q 2313 2931 1772 2931 
Q 1384 2931 1121 2651 
Q 859 2372 844 1941 
L 2703 1941 
z
M 1753 3428 
L 1753 3428 
z
" transform="scale(0.015625)"/>
     </defs>
     <use xlink:href="#Helvetica-70"/>
     <use xlink:href="#Helvetica-20" x="55.615234"/>
     <use xlink:href="#Helvetica-3d" x="83.398438"/>
     <use xlink:href="#Helvetica-20" x="141.796875"/>
     <use xlink:href="#Helvetica-39" x="169.580078"/>
     <use xlink:href="#Helvetica-2e" x="225.195312"/>
     <use xlink:href="#Helvetica-35" x="252.978516"/>
     <use xlink:href="#Helvetica-33" x="308.59375"/>
     <use xlink:href="#Helvetica-65" x="364.208984"/>
     <use xlink:href="#Helvetica-2d" x="419.824219"/>
     <use xlink:href="#Helvetica-30" x="453.125"/>
     <use xlink:href="#Helvetica-31" x="508.740234"/>
    </g>
   </g>
   <g id="text_19">
    <!-- RF-AA RIA energy vs pKi -->
    <g style="fill: #262626" transform="translate(49.667812 18) scale(0.1 -0.1)">
     <defs>
      <path id="Helvetica-46" d="M 547 4591 
L 3731 4591 
L 3731 4028 
L 1169 4028 
L 1169 2634 
L 3422 2634 
L 3422 2088 
L 1169 2088 
L 1169 0 
L 547 0 
L 547 4591 
z
" transform="scale(0.015625)"/>
      <path id="Helvetica-41" d="M 2844 1881 
L 2147 3909 
L 1406 1881 
L 2844 1881 
z
M 1822 4591 
L 2525 4591 
L 4191 0 
L 3509 0 
L 3044 1375 
L 1228 1375 
L 731 0 
L 94 0 
L 1822 4591 
z
" transform="scale(0.015625)"/>
      <path id="Helvetica-49" d="M 628 4591 
L 1256 4591 
L 1256 0 
L 628 0 
L 628 4591 
z
" transform="scale(0.015625)"/>
      <path id="Helvetica-67" d="M 1594 3406 
Q 1988 3406 2281 3213 
Q 2441 3103 2606 2894 
L 2606 3316 
L 3125 3316 
L 3125 272 
Q 3125 -366 2938 -734 
Q 2588 -1416 1616 -1416 
Q 1075 -1416 706 -1173 
Q 338 -931 294 -416 
L 866 -416 
Q 906 -641 1028 -763 
Q 1219 -950 1628 -950 
Q 2275 -950 2475 -494 
Q 2594 -225 2584 466 
Q 2416 209 2178 84 
Q 1941 -41 1550 -41 
Q 1006 -41 598 345 
Q 191 731 191 1622 
Q 191 2463 602 2934 
Q 1013 3406 1594 3406 
z
M 2606 1688 
Q 2606 2309 2350 2609 
Q 2094 2909 1697 2909 
Q 1103 2909 884 2353 
Q 769 2056 769 1575 
Q 769 1009 998 714 
Q 1228 419 1616 419 
Q 2222 419 2469 966 
Q 2606 1275 2606 1688 
z
M 1659 3428 
L 1659 3428 
z
" transform="scale(0.015625)"/>
      <path id="Helvetica-79" d="M 2503 3347 
L 3125 3347 
Q 3006 3025 2597 1878 
Q 2291 1016 2084 472 
Q 1597 -809 1397 -1090 
Q 1197 -1372 709 -1372 
Q 591 -1372 527 -1362 
Q 463 -1353 369 -1328 
L 369 -816 
Q 516 -856 581 -865 
Q 647 -875 697 -875 
Q 853 -875 926 -823 
Q 1000 -772 1050 -697 
Q 1066 -672 1162 -440 
Q 1259 -209 1303 -97 
L 66 3347 
L 703 3347 
L 1600 622 
L 2503 3347 
z
M 1597 3428 
L 1597 3428 
z
" transform="scale(0.015625)"/>
      <path id="Helvetica-76" d="M 688 3347 
L 1581 622 
L 2516 3347 
L 3131 3347 
L 1869 0 
L 1269 0 
L 34 3347 
L 688 3347 
z
" transform="scale(0.015625)"/>
      <path id="Helvetica-73" d="M 747 1050 
Q 772 769 888 619 
Q 1100 347 1625 347 
Q 1938 347 2175 483 
Q 2413 619 2413 903 
Q 2413 1119 2222 1231 
Q 2100 1300 1741 1391 
L 1294 1503 
Q 866 1609 663 1741 
Q 300 1969 300 2372 
Q 300 2847 642 3140 
Q 984 3434 1563 3434 
Q 2319 3434 2653 2991 
Q 2863 2709 2856 2384 
L 2325 2384 
Q 2309 2575 2191 2731 
Q 1997 2953 1519 2953 
Q 1200 2953 1036 2831 
Q 872 2709 872 2509 
Q 872 2291 1088 2159 
Q 1213 2081 1456 2022 
L 1828 1931 
Q 2434 1784 2641 1647 
Q 2969 1431 2969 969 
Q 2969 522 2630 197 
Q 2291 -128 1597 -128 
Q 850 -128 539 211 
Q 228 550 206 1050 
L 747 1050 
z
M 1578 3428 
L 1578 3428 
z
" transform="scale(0.015625)"/>
     </defs>
     <use xlink:href="#Helvetica-52"/>
     <use xlink:href="#Helvetica-46" x="72.216797"/>
     <use xlink:href="#Helvetica-2d" x="133.300781"/>
     <use xlink:href="#Helvetica-41" x="166.601562"/>
     <use xlink:href="#Helvetica-41" x="233.300781"/>
     <use xlink:href="#Helvetica-20" x="300"/>
     <use xlink:href="#Helvetica-52" x="327.783203"/>
     <use xlink:href="#Helvetica-49" x="400"/>
     <use xlink:href="#Helvetica-41" x="427.783203"/>
     <use xlink:href="#Helvetica-20" x="494.482422"/>
     <use xlink:href="#Helvetica-65" x="522.265625"/>
     <use xlink:href="#Helvetica-6e" x="577.880859"/>
     <use xlink:href="#Helvetica-65" x="633.496094"/>
     <use xlink:href="#Helvetica-72" x="689.111328"/>
     <use xlink:href="#Helvetica-67" x="722.412109"/>
     <use xlink:href="#Helvetica-79" x="778.027344"/>
     <use xlink:href="#Helvetica-20" x="828.027344"/>
     <use xlink:href="#Helvetica-76" x="855.810547"/>
     <use xlink:href="#Helvetica-73" x="905.810547"/>
     <use xlink:href="#Helvetica-20" x="955.810547"/>
     <use xlink:href="#Helvetica-70" x="983.59375"/>
     <use xlink:href="#Helvetica-4b" x="1039.208984"/>
     <use xlink:href="#Helvetica-69" x="1105.908203"/>
    </g>
   </g>
  </g>
 </g>
 <defs>
  <clipPath id="pab321084df">
   <rect x="43.62" y="24" width="124.905" height="114.18"/>
  </clipPath>
 </defs>
</svg>
