<?xml version="1.0" encoding="utf-8" standalone="no"?>
<!DOCTYPE svg PUBLIC "-//W3C//DTD SVG 1.1//EN"
  "http://www.w3.org/Graphics/SVG/1.1/DTD/svg11.dtd">
<svg xmlns:xlink="http://www.w3.org/1999/xlink" width="216pt" height="216pt" viewBox="0 0 216 216" xmlns="http://www.w3.org/2000/svg" version="1.1">
 <metadata>
  <rdf:RDF xmlns:dc="http://purl.org/dc/elements/1.1/" xmlns:cc="http://creativecommons.org/ns#" xmlns:rdf="http://www.w3.org/1999/02/22-rdf-syntax-ns#">
   <cc:Work>
    <dc:type rdf:resource="http://purl.org/dc/dcmitype/StillImage"/>
    <dc:date>2024-10-10T16:26:50.071961</dc:date>
    <dc:format>image/svg+xml</dc:format>
    <dc:creator>
     <cc:Agent>
      <dc:title>Matplotlib v3.6.3, https://matplotlib.org/</dc:title>
     </cc:Agent>
    </dc:creator>
   </cc:Work>
  </rdf:RDF>
 </metadata>
 <defs>
  <style type="text/css">*{stroke-linejoin: round; stroke-linecap: butt}</style>
 </defs>
 <g id="figure_1">
  <g id="patch_1">
   <path d="M 0 216 
L 216 216 
L 216 0 
L 0 0 
z
" style="fill: #ffffff"/>
  </g>
  <g id="axes_1">
   <g id="patch_2">
    <path d="M 32.573 187.972 
L 203.502639 187.972 
L 203.502639 12.339775 
L 32.573 12.339775 
z
" style="fill: #ffffff"/>
   </g>
   <g id="matplotlib.axis_1">
    <g id="xtick_1">
     <g id="line2d_1">
      <path d="M 35.860108 187.972 
L 35.860108 12.339775 
" clip-path="url(#p759c64ce08)" style="fill: none; stroke-dasharray: 2.96,1.28; stroke-dashoffset: 0; stroke: #cccccc; stroke-opacity: 0.5; stroke-width: 0.8"/>
     </g>
     <g id="text_1">
      <!-- 1 -->
      <g style="fill: #262626" transform="translate(33.07964 203.429812) scale(0.1 -0.1)">
       <defs>
        <path id="ArialMT-31" d="M 2384 0 
L 1822 0 
L 1822 3584 
Q 1619 3391 1289 3197 
Q 959 3003 697 2906 
L 697 3450 
Q 1169 3672 1522 3987 
Q 1875 4303 2022 4600 
L 2384 4600 
L 2384 0 
z
" transform="scale(0.015625)"/>
       </defs>
       <use xlink:href="#ArialMT-31"/>
      </g>
     </g>
    </g>
    <g id="xtick_2">
     <g id="line2d_2">
      <path d="M 52.295651 187.972 
L 52.295651 12.339775 
" clip-path="url(#p759c64ce08)" style="fill: none; stroke-dasharray: 2.96,1.28; stroke-dashoffset: 0; stroke: #cccccc; stroke-opacity: 0.5; stroke-width: 0.8"/>
     </g>
     <g id="text_2">
      <!-- 2 -->
      <g style="fill: #262626" transform="translate(49.515182 203.429812) scale(0.1 -0.1)">
       <defs>
        <path id="ArialMT-32" d="M 3222 541 
L 3222 0 
L 194 0 
Q 188 203 259 391 
Q 375 700 629 1000 
Q 884 1300 1366 1694 
Q 2113 2306 2375 2664 
Q 2638 3022 2638 3341 
Q 2638 3675 2398 3904 
Q 2159 4134 1775 4134 
Q 1369 4134 1125 3890 
Q 881 3647 878 3216 
L 300 3275 
Q 359 3922 746 4261 
Q 1134 4600 1788 4600 
Q 2447 4600 2831 4234 
Q 3216 3869 3216 3328 
Q 3216 3053 3103 2787 
Q 2991 2522 2730 2228 
Q 2469 1934 1863 1422 
Q 1356 997 1212 845 
Q 1069 694 975 541 
L 3222 541 
z
" transform="scale(0.015625)"/>
       </defs>
       <use xlink:href="#ArialMT-32"/>
      </g>
     </g>
    </g>
    <g id="xtick_3">
     <g id="line2d_3">
      <path d="M 68.731193 187.972 
L 68.731193 12.339775 
" clip-path="url(#p759c64ce08)" style="fill: none; stroke-dasharray: 2.96,1.28; stroke-dashoffset: 0; stroke: #cccccc; stroke-opacity: 0.5; stroke-width: 0.8"/>
     </g>
     <g id="text_3">
      <!-- 3 -->
      <g style="fill: #262626" transform="translate(65.950724 203.429812) scale(0.1 -0.1)">
       <defs>
        <path id="ArialMT-33" d="M 269 1209 
L 831 1284 
Q 928 806 1161 595 
Q 1394 384 1728 384 
Q 2125 384 2398 659 
Q 2672 934 2672 1341 
Q 2672 1728 2419 1979 
Q 2166 2231 1775 2231 
Q 1616 2231 1378 2169 
L 1441 2663 
Q 1497 2656 1531 2656 
Q 1891 2656 2178 2843 
Q 2466 3031 2466 3422 
Q 2466 3731 2256 3934 
Q 2047 4138 1716 4138 
Q 1388 4138 1169 3931 
Q 950 3725 888 3313 
L 325 3413 
Q 428 3978 793 4289 
Q 1159 4600 1703 4600 
Q 2078 4600 2393 4439 
Q 2709 4278 2876 4000 
Q 3044 3722 3044 3409 
Q 3044 3113 2884 2869 
Q 2725 2625 2413 2481 
Q 2819 2388 3044 2092 
Q 3269 1797 3269 1353 
Q 3269 753 2831 336 
Q 2394 -81 1725 -81 
Q 1122 -81 723 278 
Q 325 638 269 1209 
z
" transform="scale(0.015625)"/>
       </defs>
       <use xlink:href="#ArialMT-33"/>
      </g>
     </g>
    </g>
    <g id="xtick_4">
     <g id="line2d_4">
      <path d="M 85.166735 187.972 
L 85.166735 12.339775 
" clip-path="url(#p759c64ce08)" style="fill: none; stroke-dasharray: 2.96,1.28; stroke-dashoffset: 0; stroke: #cccccc; stroke-opacity: 0.5; stroke-width: 0.8"/>
     </g>
     <g id="text_4">
      <!-- 4 -->
      <g style="fill: #262626" transform="translate(82.386266 203.429812) scale(0.1 -0.1)">
       <defs>
        <path id="ArialMT-34" d="M 2069 0 
L 2069 1097 
L 81 1097 
L 81 1613 
L 2172 4581 
L 2631 4581 
L 2631 1613 
L 3250 1613 
L 3250 1097 
L 2631 1097 
L 2631 0 
L 2069 0 
z
M 2069 1613 
L 2069 3678 
L 634 1613 
L 2069 1613 
z
" transform="scale(0.015625)"/>
       </defs>
       <use xlink:href="#ArialMT-34"/>
      </g>
     </g>
    </g>
    <g id="xtick_5">
     <g id="line2d_5">
      <path d="M 101.602277 187.972 
L 101.602277 12.339775 
" clip-path="url(#p759c64ce08)" style="fill: none; stroke-dasharray: 2.96,1.28; stroke-dashoffset: 0; stroke: #cccccc; stroke-opacity: 0.5; stroke-width: 0.8"/>
     </g>
     <g id="text_5">
      <!-- 5 -->
      <g style="fill: #262626" transform="translate(98.821809 203.429812) scale(0.1 -0.1)">
       <defs>
        <path id="ArialMT-35" d="M 266 1200 
L 856 1250 
Q 922 819 1161 601 
Q 1400 384 1738 384 
Q 2144 384 2425 690 
Q 2706 997 2706 1503 
Q 2706 1984 2436 2262 
Q 2166 2541 1728 2541 
Q 1456 2541 1237 2417 
Q 1019 2294 894 2097 
L 366 2166 
L 809 4519 
L 3088 4519 
L 3088 3981 
L 1259 3981 
L 1013 2750 
Q 1425 3038 1878 3038 
Q 2478 3038 2890 2622 
Q 3303 2206 3303 1553 
Q 3303 931 2941 478 
Q 2500 -78 1738 -78 
Q 1113 -78 717 272 
Q 322 622 266 1200 
z
" transform="scale(0.015625)"/>
       </defs>
       <use xlink:href="#ArialMT-35"/>
      </g>
     </g>
    </g>
    <g id="xtick_6">
     <g id="line2d_6">
      <path d="M 118.03782 187.972 
L 118.03782 12.339775 
" clip-path="url(#p759c64ce08)" style="fill: none; stroke-dasharray: 2.96,1.28; stroke-dashoffset: 0; stroke: #cccccc; stroke-opacity: 0.5; stroke-width: 0.8"/>
     </g>
     <g id="text_6">
      <!-- 6 -->
      <g style="fill: #262626" transform="translate(115.257351 203.429812) scale(0.1 -0.1)">
       <defs>
        <path id="ArialMT-36" d="M 3184 3459 
L 2625 3416 
Q 2550 3747 2413 3897 
Q 2184 4138 1850 4138 
Q 1581 4138 1378 3988 
Q 1113 3794 959 3422 
Q 806 3050 800 2363 
Q 1003 2672 1297 2822 
Q 1591 2972 1913 2972 
Q 2475 2972 2870 2558 
Q 3266 2144 3266 1488 
Q 3266 1056 3080 686 
Q 2894 316 2569 119 
Q 2244 -78 1831 -78 
Q 1128 -78 684 439 
Q 241 956 241 2144 
Q 241 3472 731 4075 
Q 1159 4600 1884 4600 
Q 2425 4600 2770 4297 
Q 3116 3994 3184 3459 
z
M 888 1484 
Q 888 1194 1011 928 
Q 1134 663 1356 523 
Q 1578 384 1822 384 
Q 2178 384 2434 671 
Q 2691 959 2691 1453 
Q 2691 1928 2437 2201 
Q 2184 2475 1800 2475 
Q 1419 2475 1153 2201 
Q 888 1928 888 1484 
z
" transform="scale(0.015625)"/>
       </defs>
       <use xlink:href="#ArialMT-36"/>
      </g>
     </g>
    </g>
    <g id="xtick_7">
     <g id="line2d_7">
      <path d="M 134.473362 187.972 
L 134.473362 12.339775 
" clip-path="url(#p759c64ce08)" style="fill: none; stroke-dasharray: 2.96,1.28; stroke-dashoffset: 0; stroke: #cccccc; stroke-opacity: 0.5; stroke-width: 0.8"/>
     </g>
     <g id="text_7">
      <!-- 7 -->
      <g style="fill: #262626" transform="translate(131.692893 203.429812) scale(0.1 -0.1)">
       <defs>
        <path id="ArialMT-37" d="M 303 3981 
L 303 4522 
L 3269 4522 
L 3269 4084 
Q 2831 3619 2401 2847 
Q 1972 2075 1738 1259 
Q 1569 684 1522 0 
L 944 0 
Q 953 541 1156 1306 
Q 1359 2072 1739 2783 
Q 2119 3494 2547 3981 
L 303 3981 
z
" transform="scale(0.015625)"/>
       </defs>
       <use xlink:href="#ArialMT-37"/>
      </g>
     </g>
    </g>
    <g id="xtick_8">
     <g id="line2d_8">
      <path d="M 150.908904 187.972 
L 150.908904 12.339775 
" clip-path="url(#p759c64ce08)" style="fill: none; stroke-dasharray: 2.96,1.28; stroke-dashoffset: 0; stroke: #cccccc; stroke-opacity: 0.5; stroke-width: 0.8"/>
     </g>
     <g id="text_8">
      <!-- 8 -->
      <g style="fill: #262626" transform="translate(148.128435 203.429812) scale(0.1 -0.1)">
       <defs>
        <path id="ArialMT-38" d="M 1131 2484 
Q 781 2613 612 2850 
Q 444 3088 444 3419 
Q 444 3919 803 4259 
Q 1163 4600 1759 4600 
Q 2359 4600 2725 4251 
Q 3091 3903 3091 3403 
Q 3091 3084 2923 2848 
Q 2756 2613 2416 2484 
Q 2838 2347 3058 2040 
Q 3278 1734 3278 1309 
Q 3278 722 2862 322 
Q 2447 -78 1769 -78 
Q 1091 -78 675 323 
Q 259 725 259 1325 
Q 259 1772 486 2073 
Q 713 2375 1131 2484 
z
M 1019 3438 
Q 1019 3113 1228 2906 
Q 1438 2700 1772 2700 
Q 2097 2700 2305 2904 
Q 2513 3109 2513 3406 
Q 2513 3716 2298 3927 
Q 2084 4138 1766 4138 
Q 1444 4138 1231 3931 
Q 1019 3725 1019 3438 
z
M 838 1322 
Q 838 1081 952 856 
Q 1066 631 1291 507 
Q 1516 384 1775 384 
Q 2178 384 2440 643 
Q 2703 903 2703 1303 
Q 2703 1709 2433 1975 
Q 2163 2241 1756 2241 
Q 1359 2241 1098 1978 
Q 838 1716 838 1322 
z
" transform="scale(0.015625)"/>
       </defs>
       <use xlink:href="#ArialMT-38"/>
      </g>
     </g>
    </g>
    <g id="xtick_9">
     <g id="line2d_9">
      <path d="M 167.344446 187.972 
L 167.344446 12.339775 
" clip-path="url(#p759c64ce08)" style="fill: none; stroke-dasharray: 2.96,1.28; stroke-dashoffset: 0; stroke: #cccccc; stroke-opacity: 0.5; stroke-width: 0.8"/>
     </g>
     <g id="text_9">
      <!-- 9 -->
      <g style="fill: #262626" transform="translate(164.563977 203.429812) scale(0.1 -0.1)">
       <defs>
        <path id="ArialMT-39" d="M 350 1059 
L 891 1109 
Q 959 728 1153 556 
Q 1347 384 1650 384 
Q 1909 384 2104 503 
Q 2300 622 2425 820 
Q 2550 1019 2634 1356 
Q 2719 1694 2719 2044 
Q 2719 2081 2716 2156 
Q 2547 1888 2255 1720 
Q 1963 1553 1622 1553 
Q 1053 1553 659 1965 
Q 266 2378 266 3053 
Q 266 3750 677 4175 
Q 1088 4600 1706 4600 
Q 2153 4600 2523 4359 
Q 2894 4119 3086 3673 
Q 3278 3228 3278 2384 
Q 3278 1506 3087 986 
Q 2897 466 2520 194 
Q 2144 -78 1638 -78 
Q 1100 -78 759 220 
Q 419 519 350 1059 
z
M 2653 3081 
Q 2653 3566 2395 3850 
Q 2138 4134 1775 4134 
Q 1400 4134 1122 3828 
Q 844 3522 844 3034 
Q 844 2597 1108 2323 
Q 1372 2050 1759 2050 
Q 2150 2050 2401 2323 
Q 2653 2597 2653 3081 
z
" transform="scale(0.015625)"/>
       </defs>
       <use xlink:href="#ArialMT-39"/>
      </g>
     </g>
    </g>
    <g id="xtick_10">
     <g id="line2d_10">
      <path d="M 183.779988 187.972 
L 183.779988 12.339775 
" clip-path="url(#p759c64ce08)" style="fill: none; stroke-dasharray: 2.96,1.28; stroke-dashoffset: 0; stroke: #cccccc; stroke-opacity: 0.5; stroke-width: 0.8"/>
     </g>
     <g id="text_10">
      <!-- 10 -->
      <g style="fill: #262626" transform="translate(178.219051 203.429812) scale(0.1 -0.1)">
       <defs>
        <path id="ArialMT-30" d="M 266 2259 
Q 266 3072 433 3567 
Q 600 4063 929 4331 
Q 1259 4600 1759 4600 
Q 2128 4600 2406 4451 
Q 2684 4303 2865 4023 
Q 3047 3744 3150 3342 
Q 3253 2941 3253 2259 
Q 3253 1453 3087 958 
Q 2922 463 2592 192 
Q 2263 -78 1759 -78 
Q 1097 -78 719 397 
Q 266 969 266 2259 
z
M 844 2259 
Q 844 1131 1108 757 
Q 1372 384 1759 384 
Q 2147 384 2411 759 
Q 2675 1134 2675 2259 
Q 2675 3391 2411 3762 
Q 2147 4134 1753 4134 
Q 1366 4134 1134 3806 
Q 844 3388 844 2259 
z
" transform="scale(0.015625)"/>
       </defs>
       <use xlink:href="#ArialMT-31"/>
       <use xlink:href="#ArialMT-30" x="55.615234"/>
      </g>
     </g>
    </g>
    <g id="xtick_11">
     <g id="line2d_11">
      <path d="M 200.215531 187.972 
L 200.215531 12.339775 
" clip-path="url(#p759c64ce08)" style="fill: none; stroke-dasharray: 2.96,1.28; stroke-dashoffset: 0; stroke: #cccccc; stroke-opacity: 0.5; stroke-width: 0.8"/>
     </g>
     <g id="text_11">
      <!-- 11 -->
      <g style="fill: #262626" transform="translate(195.023343 203.429812) scale(0.1 -0.1)">
       <use xlink:href="#ArialMT-31"/>
       <use xlink:href="#ArialMT-31" x="48.240234"/>
      </g>
     </g>
    </g>
   </g>
   <g id="matplotlib.axis_2">
    <g id="ytick_1">
     <g id="line2d_12">
      <path d="M 32.573 187.972 
L 203.502639 187.972 
" clip-path="url(#p759c64ce08)" style="fill: none; stroke-dasharray: 2.96,1.28; stroke-dashoffset: 0; stroke: #cccccc; stroke-opacity: 0.5; stroke-width: 0.8"/>
     </g>
     <g id="text_12">
      <!-- 0.0 -->
      <g style="fill: #262626" transform="translate(10.373 191.550906) scale(0.1 -0.1)">
       <defs>
        <path id="ArialMT-2e" d="M 581 0 
L 581 641 
L 1222 641 
L 1222 0 
L 581 0 
z
" transform="scale(0.015625)"/>
       </defs>
       <use xlink:href="#ArialMT-30"/>
       <use xlink:href="#ArialMT-2e" x="55.615234"/>
       <use xlink:href="#ArialMT-30" x="83.398438"/>
      </g>
     </g>
    </g>
    <g id="ytick_2">
     <g id="line2d_13">
      <path d="M 32.573 153.193342 
L 203.502639 153.193342 
" clip-path="url(#p759c64ce08)" style="fill: none; stroke-dasharray: 2.96,1.28; stroke-dashoffset: 0; stroke: #cccccc; stroke-opacity: 0.5; stroke-width: 0.8"/>
     </g>
     <g id="text_13">
      <!-- 0.2 -->
      <g style="fill: #262626" transform="translate(10.373 156.772248) scale(0.1 -0.1)">
       <use xlink:href="#ArialMT-30"/>
       <use xlink:href="#ArialMT-2e" x="55.615234"/>
       <use xlink:href="#ArialMT-32" x="83.398438"/>
      </g>
     </g>
    </g>
    <g id="ytick_3">
     <g id="line2d_14">
      <path d="M 32.573 118.414683 
L 203.502639 118.414683 
" clip-path="url(#p759c64ce08)" style="fill: none; stroke-dasharray: 2.96,1.28; stroke-dashoffset: 0; stroke: #cccccc; stroke-opacity: 0.5; stroke-width: 0.8"/>
     </g>
     <g id="text_14">
      <!-- 0.4 -->
      <g style="fill: #262626" transform="translate(10.373 121.993589) scale(0.1 -0.1)">
       <use xlink:href="#ArialMT-30"/>
       <use xlink:href="#ArialMT-2e" x="55.615234"/>
       <use xlink:href="#ArialMT-34" x="83.398438"/>
      </g>
     </g>
    </g>
    <g id="ytick_4">
     <g id="line2d_15">
      <path d="M 32.573 83.636025 
L 203.502639 83.636025 
" clip-path="url(#p759c64ce08)" style="fill: none; stroke-dasharray: 2.96,1.28; stroke-dashoffset: 0; stroke: #cccccc; stroke-opacity: 0.5; stroke-width: 0.8"/>
     </g>
     <g id="text_15">
      <!-- 0.6 -->
      <g style="fill: #262626" transform="translate(10.373 87.214931) scale(0.1 -0.1)">
       <use xlink:href="#ArialMT-30"/>
       <use xlink:href="#ArialMT-2e" x="55.615234"/>
       <use xlink:href="#ArialMT-36" x="83.398438"/>
      </g>
     </g>
    </g>
    <g id="ytick_5">
     <g id="line2d_16">
      <path d="M 32.573 48.857366 
L 203.502639 48.857366 
" clip-path="url(#p759c64ce08)" style="fill: none; stroke-dasharray: 2.96,1.28; stroke-dashoffset: 0; stroke: #cccccc; stroke-opacity: 0.5; stroke-width: 0.8"/>
     </g>
     <g id="text_16">
      <!-- 0.8 -->
      <g style="fill: #262626" transform="translate(10.373 52.436273) scale(0.1 -0.1)">
       <use xlink:href="#ArialMT-30"/>
       <use xlink:href="#ArialMT-2e" x="55.615234"/>
       <use xlink:href="#ArialMT-38" x="83.398438"/>
      </g>
     </g>
    </g>
    <g id="ytick_6">
     <g id="line2d_17">
      <path d="M 32.573 14.078708 
L 203.502639 14.078708 
" clip-path="url(#p759c64ce08)" style="fill: none; stroke-dasharray: 2.96,1.28; stroke-dashoffset: 0; stroke: #cccccc; stroke-opacity: 0.5; stroke-width: 0.8"/>
     </g>
     <g id="text_17">
      <!-- 1.0 -->
      <g style="fill: #262626" transform="translate(10.373 17.657614) scale(0.1 -0.1)">
       <use xlink:href="#ArialMT-31"/>
       <use xlink:href="#ArialMT-2e" x="55.615234"/>
       <use xlink:href="#ArialMT-30" x="83.398438"/>
      </g>
     </g>
    </g>
   </g>
   <g id="PolyCollection_1"/>
   <g id="PolyCollection_2"/>
   <g id="PolyCollection_3"/>
   <g id="PolyCollection_4"/>
   <g id="PolyCollection_5"/>
   <g id="PolyCollection_6"/>
   <g id="PolyCollection_7"/>
   <g id="PolyCollection_8"/>
   <g id="PolyCollection_9"/>
   <g id="PolyCollection_10"/>
   <g id="PathCollection_1">
    <path d="M 35.860108 77.568842 
C 36.178352 77.568842 36.483604 77.442403 36.708637 77.21737 
C 36.933669 76.992338 37.060108 76.687086 37.060108 76.368842 
C 37.060108 76.050599 36.933669 75.745347 36.708637 75.520314 
C 36.483604 75.295282 36.178352 75.168842 35.860108 75.168842 
C 35.541865 75.168842 35.236613 75.295282 35.01158 75.520314 
C 34.786548 75.745347 34.660108 76.050599 34.660108 76.368842 
C 34.660108 76.687086 34.786548 76.992338 35.01158 77.21737 
C 35.236613 77.442403 35.541865 77.568842 35.860108 77.568842 
z
" clip-path="url(#p759c64ce08)" style="fill: #008fd7; stroke: #000000; stroke-width: 0.384"/>
    <path d="M 52.295651 61.996309 
C 52.613894 61.996309 52.919147 61.869869 53.144179 61.644837 
C 53.369211 61.419805 53.495651 61.114552 53.495651 60.796309 
C 53.495651 60.478065 53.369211 60.172813 53.144179 59.947781 
C 52.919147 59.722748 52.613894 59.596309 52.295651 59.596309 
C 51.977407 59.596309 51.672155 59.722748 51.447123 59.947781 
C 51.22209 60.172813 51.095651 60.478065 51.095651 60.796309 
C 51.095651 61.114552 51.22209 61.419805 51.447123 61.644837 
C 51.672155 61.869869 51.977407 61.996309 52.295651 61.996309 
z
" clip-path="url(#p759c64ce08)" style="fill: #008fd7; stroke: #000000; stroke-width: 0.384"/>
    <path d="M 68.731193 46.423775 
C 69.049437 46.423775 69.354689 46.297336 69.579721 46.072303 
C 69.804753 45.847271 69.931193 45.542019 69.931193 45.223775 
C 69.931193 44.905531 69.804753 44.600279 69.579721 44.375247 
C 69.354689 44.150215 69.049437 44.023775 68.731193 44.023775 
C 68.412949 44.023775 68.107697 44.150215 67.882665 44.375247 
C 67.657632 44.600279 67.531193 44.905531 67.531193 45.223775 
C 67.531193 45.542019 67.657632 45.847271 67.882665 46.072303 
C 68.107697 46.297336 68.412949 46.423775 68.731193 46.423775 
z
" clip-path="url(#p759c64ce08)" style="fill: #008fd7; stroke: #000000; stroke-width: 0.384"/>
    <path d="M 85.166735 33.446664 
C 85.484979 33.446664 85.790231 33.320224 86.015263 33.095192 
C 86.240296 32.87016 86.366735 32.564907 86.366735 32.246664 
C 86.366735 31.92842 86.240296 31.623168 86.015263 31.398136 
C 85.790231 31.173103 85.484979 31.046664 85.166735 31.046664 
C 84.848491 31.046664 84.543239 31.173103 84.318207 31.398136 
C 84.093175 31.623168 83.966735 31.92842 83.966735 32.246664 
C 83.966735 32.564907 84.093175 32.87016 84.318207 33.095192 
C 84.543239 33.320224 84.848491 33.446664 85.166735 33.446664 
z
" clip-path="url(#p759c64ce08)" style="fill: #008fd7; stroke: #000000; stroke-width: 0.384"/>
    <path d="M 101.602277 25.660397 
C 101.920521 25.660397 102.225773 25.533957 102.450805 25.308925 
C 102.675838 25.083893 102.802277 24.778641 102.802277 24.460397 
C 102.802277 24.142153 102.675838 23.836901 102.450805 23.611869 
C 102.225773 23.386836 101.920521 23.260397 101.602277 23.260397 
C 101.284034 23.260397 100.978781 23.386836 100.753749 23.611869 
C 100.528717 23.836901 100.402277 24.142153 100.402277 24.460397 
C 100.402277 24.778641 100.528717 25.083893 100.753749 25.308925 
C 100.978781 25.533957 101.284034 25.660397 101.602277 25.660397 
z
" clip-path="url(#p759c64ce08)" style="fill: #008fd7; stroke: #000000; stroke-width: 0.384"/>
    <path d="M 118.03782 20.469552 
C 118.356063 20.469552 118.661315 20.343113 118.886348 20.118081 
C 119.11138 19.893048 119.23782 19.587796 119.23782 19.269552 
C 119.23782 18.951309 119.11138 18.646057 118.886348 18.421024 
C 118.661315 18.195992 118.356063 18.069552 118.03782 18.069552 
C 117.719576 18.069552 117.414324 18.195992 117.189291 18.421024 
C 116.964259 18.646057 116.83782 18.951309 116.83782 19.269552 
C 116.83782 19.587796 116.964259 19.893048 117.189291 20.118081 
C 117.414324 20.343113 117.719576 20.469552 118.03782 20.469552 
z
" clip-path="url(#p759c64ce08)" style="fill: #008fd7; stroke: #000000; stroke-width: 0.384"/>
    <path d="M 134.473362 17.87413 
C 134.791605 17.87413 135.096858 17.747691 135.32189 17.522658 
C 135.546922 17.297626 135.673362 16.992374 135.673362 16.67413 
C 135.673362 16.355886 135.546922 16.050634 135.32189 15.825602 
C 135.096858 15.60057 134.791605 15.47413 134.473362 15.47413 
C 134.155118 15.47413 133.849866 15.60057 133.624834 15.825602 
C 133.399801 16.050634 133.273362 16.355886 133.273362 16.67413 
C 133.273362 16.992374 133.399801 17.297626 133.624834 17.522658 
C 133.849866 17.747691 134.155118 17.87413 134.473362 17.87413 
z
" clip-path="url(#p759c64ce08)" style="fill: #008fd7; stroke: #000000; stroke-width: 0.384"/>
    <path d="M 150.908904 15.278708 
C 151.227148 15.278708 151.5324 15.152268 151.757432 14.927236 
C 151.982464 14.702204 152.108904 14.396952 152.108904 14.078708 
C 152.108904 13.760464 151.982464 13.455212 151.757432 13.23018 
C 151.5324 13.005147 151.227148 12.878708 150.908904 12.878708 
C 150.59066 12.878708 150.285408 13.005147 150.060376 13.23018 
C 149.835344 13.455212 149.708904 13.760464 149.708904 14.078708 
C 149.708904 14.396952 149.835344 14.702204 150.060376 14.927236 
C 150.285408 15.152268 150.59066 15.278708 150.908904 15.278708 
z
" clip-path="url(#p759c64ce08)" style="fill: #008fd7; stroke: #000000; stroke-width: 0.384"/>
    <path d="M 167.344446 15.278708 
C 167.66269 15.278708 167.967942 15.152268 168.192974 14.927236 
C 168.418007 14.702204 168.544446 14.396952 168.544446 14.078708 
C 168.544446 13.760464 168.418007 13.455212 168.192974 13.23018 
C 167.967942 13.005147 167.66269 12.878708 167.344446 12.878708 
C 167.026202 12.878708 166.72095 13.005147 166.495918 13.23018 
C 166.270886 13.455212 166.144446 13.760464 166.144446 14.078708 
C 166.144446 14.396952 166.270886 14.702204 166.495918 14.927236 
C 166.72095 15.152268 167.026202 15.278708 167.344446 15.278708 
z
" clip-path="url(#p759c64ce08)" style="fill: #008fd7; stroke: #000000; stroke-width: 0.384"/>
    <path d="M 183.779988 15.278708 
C 184.098232 15.278708 184.403484 15.152268 184.628517 14.927236 
C 184.853549 14.702204 184.979988 14.396952 184.979988 14.078708 
C 184.979988 13.760464 184.853549 13.455212 184.628517 13.23018 
C 184.403484 13.005147 184.098232 12.878708 183.779988 12.878708 
C 183.461745 12.878708 183.156493 13.005147 182.93146 13.23018 
C 182.706428 13.455212 182.579988 13.760464 182.579988 14.078708 
C 182.579988 14.396952 182.706428 14.702204 182.93146 14.927236 
C 183.156493 15.152268 183.461745 15.278708 183.779988 15.278708 
z
" clip-path="url(#p759c64ce08)" style="fill: #008fd7; stroke: #000000; stroke-width: 0.384"/>
    <path d="M 200.215531 15.278708 
C 200.533774 15.278708 200.839026 15.152268 201.064059 14.927236 
C 201.289091 14.702204 201.415531 14.396952 201.415531 14.078708 
C 201.415531 13.760464 201.289091 13.455212 201.064059 13.23018 
C 200.839026 13.005147 200.533774 12.878708 200.215531 12.878708 
C 199.897287 12.878708 199.592035 13.005147 199.367002 13.23018 
C 199.14197 13.455212 199.015531 13.760464 199.015531 14.078708 
C 199.015531 14.396952 199.14197 14.702204 199.367002 14.927236 
C 199.592035 15.152268 199.897287 15.278708 200.215531 15.278708 
z
" clip-path="url(#p759c64ce08)" style="fill: #008fd7; stroke: #000000; stroke-width: 0.384"/>
    <path d="M 35.860108 118.091021 
L 33.460108 122.891021 
L 38.260108 122.891021 
z
" clip-path="url(#p759c64ce08)" style="fill: #008fd7; stroke: #000000; stroke-width: 0.384"/>
    <path d="M 52.295651 86.945954 
L 49.895651 91.745954 
L 54.695651 91.745954 
z
" clip-path="url(#p759c64ce08)" style="fill: #008fd7; stroke: #000000; stroke-width: 0.384"/>
    <path d="M 68.731193 60.991731 
L 66.331193 65.791731 
L 71.131193 65.791731 
z
" clip-path="url(#p759c64ce08)" style="fill: #008fd7; stroke: #000000; stroke-width: 0.384"/>
    <path d="M 85.166735 53.205464 
L 82.766735 58.005464 
L 87.566735 58.005464 
z
" clip-path="url(#p759c64ce08)" style="fill: #008fd7; stroke: #000000; stroke-width: 0.384"/>
    <path d="M 101.602277 45.419197 
L 99.202277 50.219197 
L 104.002277 50.219197 
z
" clip-path="url(#p759c64ce08)" style="fill: #008fd7; stroke: #000000; stroke-width: 0.384"/>
    <path d="M 118.03782 40.228353 
L 115.63782 45.028353 
L 120.43782 45.028353 
z
" clip-path="url(#p759c64ce08)" style="fill: #008fd7; stroke: #000000; stroke-width: 0.384"/>
    <path d="M 134.473362 32.442086 
L 132.073362 37.242086 
L 136.873362 37.242086 
z
" clip-path="url(#p759c64ce08)" style="fill: #008fd7; stroke: #000000; stroke-width: 0.384"/>
    <path d="M 150.908904 22.060397 
L 148.508904 26.860397 
L 153.308904 26.860397 
z
" clip-path="url(#p759c64ce08)" style="fill: #008fd7; stroke: #000000; stroke-width: 0.384"/>
    <path d="M 167.344446 14.27413 
L 164.944446 19.07413 
L 169.744446 19.07413 
z
" clip-path="url(#p759c64ce08)" style="fill: #008fd7; stroke: #000000; stroke-width: 0.384"/>
    <path d="M 183.779988 14.27413 
L 181.379988 19.07413 
L 186.179988 19.07413 
z
" clip-path="url(#p759c64ce08)" style="fill: #008fd7; stroke: #000000; stroke-width: 0.384"/>
    <path d="M 200.215531 11.678708 
L 197.815531 16.478708 
L 202.615531 16.478708 
z
" clip-path="url(#p759c64ce08)" style="fill: #008fd7; stroke: #000000; stroke-width: 0.384"/>
    <path d="M 34.660108 68.387153 
L 35.860108 67.187153 
L 37.060108 68.387153 
L 38.260108 67.187153 
L 37.060108 65.987153 
L 38.260108 64.787153 
L 37.060108 63.587153 
L 35.860108 64.787153 
L 34.660108 63.587153 
L 33.460108 64.787153 
L 34.660108 65.987153 
L 33.460108 67.187153 
z
" clip-path="url(#p759c64ce08)" style="fill: #008fd7; stroke: #000000; stroke-width: 0.384"/>
    <path d="M 51.095651 39.837508 
L 52.295651 38.637508 
L 53.495651 39.837508 
L 54.695651 38.637508 
L 53.495651 37.437508 
L 54.695651 36.237508 
L 53.495651 35.037508 
L 52.295651 36.237508 
L 51.095651 35.037508 
L 49.895651 36.237508 
L 51.095651 37.437508 
L 49.895651 38.637508 
z
" clip-path="url(#p759c64ce08)" style="fill: #008fd7; stroke: #000000; stroke-width: 0.384"/>
    <path d="M 67.531193 34.646664 
L 68.731193 33.446664 
L 69.931193 34.646664 
L 71.131193 33.446664 
L 69.931193 32.246664 
L 71.131193 31.046664 
L 69.931193 29.846664 
L 68.731193 31.046664 
L 67.531193 29.846664 
L 66.331193 31.046664 
L 67.531193 32.246664 
L 66.331193 33.446664 
z
" clip-path="url(#p759c64ce08)" style="fill: #008fd7; stroke: #000000; stroke-width: 0.384"/>
    <path d="M 83.966735 26.860397 
L 85.166735 25.660397 
L 86.366735 26.860397 
L 87.566735 25.660397 
L 86.366735 24.460397 
L 87.566735 23.260397 
L 86.366735 22.060397 
L 85.166735 23.260397 
L 83.966735 22.060397 
L 82.766735 23.260397 
L 83.966735 24.460397 
L 82.766735 25.660397 
z
" clip-path="url(#p759c64ce08)" style="fill: #008fd7; stroke: #000000; stroke-width: 0.384"/>
    <path d="M 100.402277 24.264975 
L 101.602277 23.064975 
L 102.802277 24.264975 
L 104.002277 23.064975 
L 102.802277 21.864975 
L 104.002277 20.664975 
L 102.802277 19.464975 
L 101.602277 20.664975 
L 100.402277 19.464975 
L 99.202277 20.664975 
L 100.402277 21.864975 
L 99.202277 23.064975 
z
" clip-path="url(#p759c64ce08)" style="fill: #008fd7; stroke: #000000; stroke-width: 0.384"/>
    <path d="M 116.83782 21.669552 
L 118.03782 20.469552 
L 119.23782 21.669552 
L 120.43782 20.469552 
L 119.23782 19.269552 
L 120.43782 18.069552 
L 119.23782 16.869552 
L 118.03782 18.069552 
L 116.83782 16.869552 
L 115.63782 18.069552 
L 116.83782 19.269552 
L 115.63782 20.469552 
z
" clip-path="url(#p759c64ce08)" style="fill: #008fd7; stroke: #000000; stroke-width: 0.384"/>
    <path d="M 133.273362 19.07413 
L 134.473362 17.87413 
L 135.673362 19.07413 
L 136.873362 17.87413 
L 135.673362 16.67413 
L 136.873362 15.47413 
L 135.673362 14.27413 
L 134.473362 15.47413 
L 133.273362 14.27413 
L 132.073362 15.47413 
L 133.273362 16.67413 
L 132.073362 17.87413 
z
" clip-path="url(#p759c64ce08)" style="fill: #008fd7; stroke: #000000; stroke-width: 0.384"/>
    <path d="M 149.708904 16.478708 
L 150.908904 15.278708 
L 152.108904 16.478708 
L 153.308904 15.278708 
L 152.108904 14.078708 
L 153.308904 12.878708 
L 152.108904 11.678708 
L 150.908904 12.878708 
L 149.708904 11.678708 
L 148.508904 12.878708 
L 149.708904 14.078708 
L 148.508904 15.278708 
z
" clip-path="url(#p759c64ce08)" style="fill: #008fd7; stroke: #000000; stroke-width: 0.384"/>
    <path d="M 166.144446 16.478708 
L 167.344446 15.278708 
L 168.544446 16.478708 
L 169.744446 15.278708 
L 168.544446 14.078708 
L 169.744446 12.878708 
L 168.544446 11.678708 
L 167.344446 12.878708 
L 166.144446 11.678708 
L 164.944446 12.878708 
L 166.144446 14.078708 
L 164.944446 15.278708 
z
" clip-path="url(#p759c64ce08)" style="fill: #008fd7; stroke: #000000; stroke-width: 0.384"/>
    <path d="M 182.579988 16.478708 
L 183.779988 15.278708 
L 184.979988 16.478708 
L 186.179988 15.278708 
L 184.979988 14.078708 
L 186.179988 12.878708 
L 184.979988 11.678708 
L 183.779988 12.878708 
L 182.579988 11.678708 
L 181.379988 12.878708 
L 182.579988 14.078708 
L 181.379988 15.278708 
z
" clip-path="url(#p759c64ce08)" style="fill: #008fd7; stroke: #000000; stroke-width: 0.384"/>
    <path d="M 199.015531 16.478708 
L 200.215531 15.278708 
L 201.415531 16.478708 
L 202.615531 15.278708 
L 201.415531 14.078708 
L 202.615531 12.878708 
L 201.415531 11.678708 
L 200.215531 12.878708 
L 199.015531 11.678708 
L 197.815531 12.878708 
L 199.015531 14.078708 
L 197.815531 15.278708 
z
" clip-path="url(#p759c64ce08)" style="fill: #008fd7; stroke: #000000; stroke-width: 0.384"/>
    <path d="M 35.060108 91.745954 
L 36.660108 91.745954 
L 36.660108 90.145954 
L 38.260108 90.145954 
L 38.260108 88.545954 
L 36.660108 88.545954 
L 36.660108 86.945954 
L 35.060108 86.945954 
L 35.060108 88.545954 
L 33.460108 88.545954 
L 33.460108 90.145954 
L 35.060108 90.145954 
z
" clip-path="url(#p759c64ce08)" style="fill: #008fd7; stroke: #000000; stroke-width: 0.384"/>
    <path d="M 51.495651 60.600886 
L 53.095651 60.600886 
L 53.095651 59.000886 
L 54.695651 59.000886 
L 54.695651 57.400886 
L 53.095651 57.400886 
L 53.095651 55.800886 
L 51.495651 55.800886 
L 51.495651 57.400886 
L 49.895651 57.400886 
L 49.895651 59.000886 
L 51.495651 59.000886 
z
" clip-path="url(#p759c64ce08)" style="fill: #008fd7; stroke: #000000; stroke-width: 0.384"/>
    <path d="M 67.931193 47.623775 
L 69.531193 47.623775 
L 69.531193 46.023775 
L 71.131193 46.023775 
L 71.131193 44.423775 
L 69.531193 44.423775 
L 69.531193 42.823775 
L 67.931193 42.823775 
L 67.931193 44.423775 
L 66.331193 44.423775 
L 66.331193 46.023775 
L 67.931193 46.023775 
z
" clip-path="url(#p759c64ce08)" style="fill: #008fd7; stroke: #000000; stroke-width: 0.384"/>
    <path d="M 84.366735 37.242086 
L 85.966735 37.242086 
L 85.966735 35.642086 
L 87.566735 35.642086 
L 87.566735 34.042086 
L 85.966735 34.042086 
L 85.966735 32.442086 
L 84.366735 32.442086 
L 84.366735 34.042086 
L 82.766735 34.042086 
L 82.766735 35.642086 
L 84.366735 35.642086 
z
" clip-path="url(#p759c64ce08)" style="fill: #008fd7; stroke: #000000; stroke-width: 0.384"/>
    <path d="M 100.802277 29.455819 
L 102.402277 29.455819 
L 102.402277 27.855819 
L 104.002277 27.855819 
L 104.002277 26.255819 
L 102.402277 26.255819 
L 102.402277 24.655819 
L 100.802277 24.655819 
L 100.802277 26.255819 
L 99.202277 26.255819 
L 99.202277 27.855819 
L 100.802277 27.855819 
z
" clip-path="url(#p759c64ce08)" style="fill: #008fd7; stroke: #000000; stroke-width: 0.384"/>
    <path d="M 117.23782 29.455819 
L 118.83782 29.455819 
L 118.83782 27.855819 
L 120.43782 27.855819 
L 120.43782 26.255819 
L 118.83782 26.255819 
L 118.83782 24.655819 
L 117.23782 24.655819 
L 117.23782 26.255819 
L 115.63782 26.255819 
L 115.63782 27.855819 
L 117.23782 27.855819 
z
" clip-path="url(#p759c64ce08)" style="fill: #008fd7; stroke: #000000; stroke-width: 0.384"/>
    <path d="M 133.673362 21.669552 
L 135.273362 21.669552 
L 135.273362 20.069552 
L 136.873362 20.069552 
L 136.873362 18.469552 
L 135.273362 18.469552 
L 135.273362 16.869552 
L 133.673362 16.869552 
L 133.673362 18.469552 
L 132.073362 18.469552 
L 132.073362 20.069552 
L 133.673362 20.069552 
z
" clip-path="url(#p759c64ce08)" style="fill: #008fd7; stroke: #000000; stroke-width: 0.384"/>
    <path d="M 150.108904 21.669552 
L 151.708904 21.669552 
L 151.708904 20.069552 
L 153.308904 20.069552 
L 153.308904 18.469552 
L 151.708904 18.469552 
L 151.708904 16.869552 
L 150.108904 16.869552 
L 150.108904 18.469552 
L 148.508904 18.469552 
L 148.508904 20.069552 
L 150.108904 20.069552 
z
" clip-path="url(#p759c64ce08)" style="fill: #008fd7; stroke: #000000; stroke-width: 0.384"/>
    <path d="M 166.544446 16.478708 
L 168.144446 16.478708 
L 168.144446 14.878708 
L 169.744446 14.878708 
L 169.744446 13.278708 
L 168.144446 13.278708 
L 168.144446 11.678708 
L 166.544446 11.678708 
L 166.544446 13.278708 
L 164.944446 13.278708 
L 164.944446 14.878708 
L 166.544446 14.878708 
z
" clip-path="url(#p759c64ce08)" style="fill: #008fd7; stroke: #000000; stroke-width: 0.384"/>
    <path d="M 182.979988 16.478708 
L 184.579988 16.478708 
L 184.579988 14.878708 
L 186.179988 14.878708 
L 186.179988 13.278708 
L 184.579988 13.278708 
L 184.579988 11.678708 
L 182.979988 11.678708 
L 182.979988 13.278708 
L 181.379988 13.278708 
L 181.379988 14.878708 
L 182.979988 14.878708 
z
" clip-path="url(#p759c64ce08)" style="fill: #008fd7; stroke: #000000; stroke-width: 0.384"/>
    <path d="M 199.415531 16.478708 
L 201.015531 16.478708 
L 201.015531 14.878708 
L 202.615531 14.878708 
L 202.615531 13.278708 
L 201.015531 13.278708 
L 201.015531 11.678708 
L 199.415531 11.678708 
L 199.415531 13.278708 
L 197.815531 13.278708 
L 197.815531 14.878708 
L 199.415531 14.878708 
z
" clip-path="url(#p759c64ce08)" style="fill: #008fd7; stroke: #000000; stroke-width: 0.384"/>
    <path d="M 35.860108 82.358377 
L 37.896576 78.964265 
L 35.860108 75.570152 
L 33.823641 78.964265 
z
" clip-path="url(#p759c64ce08)" style="fill: #008fd7; stroke: #000000; stroke-width: 0.384"/>
    <path d="M 52.295651 66.785844 
L 54.332118 63.391731 
L 52.295651 59.997618 
L 50.259183 63.391731 
z
" clip-path="url(#p759c64ce08)" style="fill: #008fd7; stroke: #000000; stroke-width: 0.384"/>
    <path d="M 68.731193 61.594999 
L 70.76766 58.200886 
L 68.731193 54.806774 
L 66.694725 58.200886 
z
" clip-path="url(#p759c64ce08)" style="fill: #008fd7; stroke: #000000; stroke-width: 0.384"/>
    <path d="M 85.166735 53.808732 
L 87.203203 50.41462 
L 85.166735 47.020507 
L 83.130268 50.41462 
z
" clip-path="url(#p759c64ce08)" style="fill: #008fd7; stroke: #000000; stroke-width: 0.384"/>
    <path d="M 101.602277 46.022465 
L 103.638745 42.628353 
L 101.602277 39.23424 
L 99.56581 42.628353 
z
" clip-path="url(#p759c64ce08)" style="fill: #008fd7; stroke: #000000; stroke-width: 0.384"/>
    <path d="M 118.03782 43.427043 
L 120.074287 40.032931 
L 118.03782 36.638818 
L 116.001352 40.032931 
z
" clip-path="url(#p759c64ce08)" style="fill: #008fd7; stroke: #000000; stroke-width: 0.384"/>
    <path d="M 134.473362 27.854509 
L 136.509829 24.460397 
L 134.473362 21.066284 
L 132.436894 24.460397 
z
" clip-path="url(#p759c64ce08)" style="fill: #008fd7; stroke: #000000; stroke-width: 0.384"/>
    <path d="M 150.908904 25.259087 
L 152.945371 21.864975 
L 150.908904 18.470862 
L 148.872436 21.864975 
z
" clip-path="url(#p759c64ce08)" style="fill: #008fd7; stroke: #000000; stroke-width: 0.384"/>
    <path d="M 167.344446 25.259087 
L 169.380914 21.864975 
L 167.344446 18.470862 
L 165.307979 21.864975 
z
" clip-path="url(#p759c64ce08)" style="fill: #008fd7; stroke: #000000; stroke-width: 0.384"/>
    <path d="M 183.779988 22.663665 
L 185.816456 19.269552 
L 183.779988 15.87544 
L 181.743521 19.269552 
z
" clip-path="url(#p759c64ce08)" style="fill: #008fd7; stroke: #000000; stroke-width: 0.384"/>
    <path d="M 200.215531 17.47282 
L 202.251998 14.078708 
L 200.215531 10.684595 
L 198.179063 14.078708 
z
" clip-path="url(#p759c64ce08)" style="fill: #008fd7; stroke: #000000; stroke-width: 0.384"/>
    <path d="M 35.860108 162.419186 
C 36.178352 162.419186 36.483604 162.292746 36.708637 162.067714 
C 36.933669 161.842682 37.060108 161.53743 37.060108 161.219186 
C 37.060108 160.900942 36.933669 160.59569 36.708637 160.370658 
C 36.483604 160.145625 36.178352 160.019186 35.860108 160.019186 
C 35.541865 160.019186 35.236613 160.145625 35.01158 160.370658 
C 34.786548 160.59569 34.660108 160.900942 34.660108 161.219186 
C 34.660108 161.53743 34.786548 161.842682 35.01158 162.067714 
C 35.236613 162.292746 35.541865 162.419186 35.860108 162.419186 
z
" clip-path="url(#p759c64ce08)" style="fill: #9e005d; stroke: #000000; stroke-width: 0.384"/>
    <path d="M 52.295651 115.601761 
C 52.613894 115.601761 52.919147 115.475321 53.144179 115.250289 
C 53.369211 115.025257 53.495651 114.720005 53.495651 114.401761 
C 53.495651 114.083517 53.369211 113.778265 53.144179 113.553233 
C 52.919147 113.328201 52.613894 113.201761 52.295651 113.201761 
C 51.977407 113.201761 51.672155 113.328201 51.447123 113.553233 
C 51.22209 113.778265 51.095651 114.083517 51.095651 114.401761 
C 51.095651 114.720005 51.22209 115.025257 51.447123 115.250289 
C 51.672155 115.475321 51.977407 115.601761 52.295651 115.601761 
z
" clip-path="url(#p759c64ce08)" style="fill: #9e005d; stroke: #000000; stroke-width: 0.384"/>
    <path d="M 68.731193 95.53715 
C 69.049437 95.53715 69.354689 95.410711 69.579721 95.185679 
C 69.804753 94.960646 69.931193 94.655394 69.931193 94.33715 
C 69.931193 94.018907 69.804753 93.713655 69.579721 93.488622 
C 69.354689 93.26359 69.049437 93.13715 68.731193 93.13715 
C 68.412949 93.13715 68.107697 93.26359 67.882665 93.488622 
C 67.657632 93.713655 67.531193 94.018907 67.531193 94.33715 
C 67.531193 94.655394 67.657632 94.960646 67.882665 95.185679 
C 68.107697 95.410711 68.412949 95.53715 68.731193 95.53715 
z
" clip-path="url(#p759c64ce08)" style="fill: #9e005d; stroke: #000000; stroke-width: 0.384"/>
    <path d="M 85.166735 68.784336 
C 85.484979 68.784336 85.790231 68.657897 86.015263 68.432864 
C 86.240296 68.207832 86.366735 67.90258 86.366735 67.584336 
C 86.366735 67.266092 86.240296 66.96084 86.015263 66.735808 
C 85.790231 66.510776 85.484979 66.384336 85.166735 66.384336 
C 84.848491 66.384336 84.543239 66.510776 84.318207 66.735808 
C 84.093175 66.96084 83.966735 67.266092 83.966735 67.584336 
C 83.966735 67.90258 84.093175 68.207832 84.318207 68.432864 
C 84.543239 68.657897 84.848491 68.784336 85.166735 68.784336 
z
" clip-path="url(#p759c64ce08)" style="fill: #9e005d; stroke: #000000; stroke-width: 0.384"/>
    <path d="M 101.602277 48.719726 
C 101.920521 48.719726 102.225773 48.593286 102.450805 48.368254 
C 102.675838 48.143221 102.802277 47.837969 102.802277 47.519726 
C 102.802277 47.201482 102.675838 46.89623 102.450805 46.671197 
C 102.225773 46.446165 101.920521 46.319726 101.602277 46.319726 
C 101.284034 46.319726 100.978781 46.446165 100.753749 46.671197 
C 100.528717 46.89623 100.402277 47.201482 100.402277 47.519726 
C 100.402277 47.837969 100.528717 48.143221 100.753749 48.368254 
C 100.978781 48.593286 101.284034 48.719726 101.602277 48.719726 
z
" clip-path="url(#p759c64ce08)" style="fill: #9e005d; stroke: #000000; stroke-width: 0.384"/>
    <path d="M 118.03782 15.278708 
C 118.356063 15.278708 118.661315 15.152268 118.886348 14.927236 
C 119.11138 14.702204 119.23782 14.396952 119.23782 14.078708 
C 119.23782 13.760464 119.11138 13.455212 118.886348 13.23018 
C 118.661315 13.005147 118.356063 12.878708 118.03782 12.878708 
C 117.719576 12.878708 117.414324 13.005147 117.189291 13.23018 
C 116.964259 13.455212 116.83782 13.760464 116.83782 14.078708 
C 116.83782 14.396952 116.964259 14.702204 117.189291 14.927236 
C 117.414324 15.152268 117.719576 15.278708 118.03782 15.278708 
z
" clip-path="url(#p759c64ce08)" style="fill: #9e005d; stroke: #000000; stroke-width: 0.384"/>
    <path d="M 134.473362 15.278708 
C 134.791605 15.278708 135.096858 15.152268 135.32189 14.927236 
C 135.546922 14.702204 135.673362 14.396952 135.673362 14.078708 
C 135.673362 13.760464 135.546922 13.455212 135.32189 13.23018 
C 135.096858 13.005147 134.791605 12.878708 134.473362 12.878708 
C 134.155118 12.878708 133.849866 13.005147 133.624834 13.23018 
C 133.399801 13.455212 133.273362 13.760464 133.273362 14.078708 
C 133.273362 14.396952 133.399801 14.702204 133.624834 14.927236 
C 133.849866 15.152268 134.155118 15.278708 134.473362 15.278708 
z
" clip-path="url(#p759c64ce08)" style="fill: #9e005d; stroke: #000000; stroke-width: 0.384"/>
    <path d="M 150.908904 15.278708 
C 151.227148 15.278708 151.5324 15.152268 151.757432 14.927236 
C 151.982464 14.702204 152.108904 14.396952 152.108904 14.078708 
C 152.108904 13.760464 151.982464 13.455212 151.757432 13.23018 
C 151.5324 13.005147 151.227148 12.878708 150.908904 12.878708 
C 150.59066 12.878708 150.285408 13.005147 150.060376 13.23018 
C 149.835344 13.455212 149.708904 13.760464 149.708904 14.078708 
C 149.708904 14.396952 149.835344 14.702204 150.060376 14.927236 
C 150.285408 15.152268 150.59066 15.278708 150.908904 15.278708 
z
" clip-path="url(#p759c64ce08)" style="fill: #9e005d; stroke: #000000; stroke-width: 0.384"/>
    <path d="M 167.344446 15.278708 
C 167.66269 15.278708 167.967942 15.152268 168.192974 14.927236 
C 168.418007 14.702204 168.544446 14.396952 168.544446 14.078708 
C 168.544446 13.760464 168.418007 13.455212 168.192974 13.23018 
C 167.967942 13.005147 167.66269 12.878708 167.344446 12.878708 
C 167.026202 12.878708 166.72095 13.005147 166.495918 13.23018 
C 166.270886 13.455212 166.144446 13.760464 166.144446 14.078708 
C 166.144446 14.396952 166.270886 14.702204 166.495918 14.927236 
C 166.72095 15.152268 167.026202 15.278708 167.344446 15.278708 
z
" clip-path="url(#p759c64ce08)" style="fill: #9e005d; stroke: #000000; stroke-width: 0.384"/>
    <path d="M 183.779988 15.278708 
C 184.098232 15.278708 184.403484 15.152268 184.628517 14.927236 
C 184.853549 14.702204 184.979988 14.396952 184.979988 14.078708 
C 184.979988 13.760464 184.853549 13.455212 184.628517 13.23018 
C 184.403484 13.005147 184.098232 12.878708 183.779988 12.878708 
C 183.461745 12.878708 183.156493 13.005147 182.93146 13.23018 
C 182.706428 13.455212 182.579988 13.760464 182.579988 14.078708 
C 182.579988 14.396952 182.706428 14.702204 182.93146 14.927236 
C 183.156493 15.152268 183.461745 15.278708 183.779988 15.278708 
z
" clip-path="url(#p759c64ce08)" style="fill: #9e005d; stroke: #000000; stroke-width: 0.384"/>
    <path d="M 200.215531 15.278708 
C 200.533774 15.278708 200.839026 15.152268 201.064059 14.927236 
C 201.289091 14.702204 201.415531 14.396952 201.415531 14.078708 
C 201.415531 13.760464 201.289091 13.455212 201.064059 13.23018 
C 200.839026 13.005147 200.533774 12.878708 200.215531 12.878708 
C 199.897287 12.878708 199.592035 13.005147 199.367002 13.23018 
C 199.14197 13.455212 199.015531 13.760464 199.015531 14.078708 
C 199.015531 14.396952 199.14197 14.702204 199.367002 14.927236 
C 199.592035 15.152268 199.897287 15.278708 200.215531 15.278708 
z
" clip-path="url(#p759c64ce08)" style="fill: #9e005d; stroke: #000000; stroke-width: 0.384"/>
    <path d="M 35.860108 154.920291 
C 36.178352 154.920291 36.483604 154.793851 36.708637 154.568819 
C 36.933669 154.343787 37.060108 154.038535 37.060108 153.720291 
C 37.060108 153.402047 36.933669 153.096795 36.708637 152.871763 
C 36.483604 152.646731 36.178352 152.520291 35.860108 152.520291 
C 35.541865 152.520291 35.236613 152.646731 35.01158 152.871763 
C 34.786548 153.096795 34.660108 153.402047 34.660108 153.720291 
C 34.660108 154.038535 34.786548 154.343787 35.01158 154.568819 
C 35.236613 154.793851 35.541865 154.920291 35.860108 154.920291 
z
" clip-path="url(#p759c64ce08)" style="fill: #a676d6; stroke: #000000; stroke-width: 0.384"/>
    <path d="M 52.295651 115.399088 
C 52.613894 115.399088 52.919147 115.272649 53.144179 115.047616 
C 53.369211 114.822584 53.495651 114.517332 53.495651 114.199088 
C 53.495651 113.880844 53.369211 113.575592 53.144179 113.35056 
C 52.919147 113.125528 52.613894 112.999088 52.295651 112.999088 
C 51.977407 112.999088 51.672155 113.125528 51.447123 113.35056 
C 51.22209 113.575592 51.095651 113.880844 51.095651 114.199088 
C 51.095651 114.517332 51.22209 114.822584 51.447123 115.047616 
C 51.672155 115.272649 51.977407 115.399088 52.295651 115.399088 
z
" clip-path="url(#p759c64ce08)" style="fill: #a676d6; stroke: #000000; stroke-width: 0.384"/>
    <path d="M 68.731193 104.860101 
C 69.049437 104.860101 69.354689 104.733661 69.579721 104.508629 
C 69.804753 104.283597 69.931193 103.978344 69.931193 103.660101 
C 69.931193 103.341857 69.804753 103.036605 69.579721 102.811573 
C 69.354689 102.58654 69.049437 102.460101 68.731193 102.460101 
C 68.412949 102.460101 68.107697 102.58654 67.882665 102.811573 
C 67.657632 103.036605 67.531193 103.341857 67.531193 103.660101 
C 67.531193 103.978344 67.657632 104.283597 67.882665 104.508629 
C 68.107697 104.733661 68.412949 104.860101 68.731193 104.860101 
z
" clip-path="url(#p759c64ce08)" style="fill: #a676d6; stroke: #000000; stroke-width: 0.384"/>
    <path d="M 85.166735 86.416873 
C 85.484979 86.416873 85.790231 86.290433 86.015263 86.065401 
C 86.240296 85.840369 86.366735 85.535117 86.366735 85.216873 
C 86.366735 84.898629 86.240296 84.593377 86.015263 84.368345 
C 85.790231 84.143312 85.484979 84.016873 85.166735 84.016873 
C 84.848491 84.016873 84.543239 84.143312 84.318207 84.368345 
C 84.093175 84.593377 83.966735 84.898629 83.966735 85.216873 
C 83.966735 85.535117 84.093175 85.840369 84.318207 86.065401 
C 84.543239 86.290433 84.848491 86.416873 85.166735 86.416873 
z
" clip-path="url(#p759c64ce08)" style="fill: #a676d6; stroke: #000000; stroke-width: 0.384"/>
    <path d="M 101.602277 73.243139 
C 101.920521 73.243139 102.225773 73.116699 102.450805 72.891667 
C 102.675838 72.666634 102.802277 72.361382 102.802277 72.043139 
C 102.802277 71.724895 102.675838 71.419643 102.450805 71.19461 
C 102.225773 70.969578 101.920521 70.843139 101.602277 70.843139 
C 101.284034 70.843139 100.978781 70.969578 100.753749 71.19461 
C 100.528717 71.419643 100.402277 71.724895 100.402277 72.043139 
C 100.402277 72.361382 100.528717 72.666634 100.753749 72.891667 
C 100.978781 73.116699 101.284034 73.243139 101.602277 73.243139 
z
" clip-path="url(#p759c64ce08)" style="fill: #a676d6; stroke: #000000; stroke-width: 0.384"/>
    <path d="M 118.03782 52.165164 
C 118.356063 52.165164 118.661315 52.038724 118.886348 51.813692 
C 119.11138 51.58866 119.23782 51.283407 119.23782 50.965164 
C 119.23782 50.64692 119.11138 50.341668 118.886348 50.116636 
C 118.661315 49.891603 118.356063 49.765164 118.03782 49.765164 
C 117.719576 49.765164 117.414324 49.891603 117.189291 50.116636 
C 116.964259 50.341668 116.83782 50.64692 116.83782 50.965164 
C 116.83782 51.283407 116.964259 51.58866 117.189291 51.813692 
C 117.414324 52.038724 117.719576 52.165164 118.03782 52.165164 
z
" clip-path="url(#p759c64ce08)" style="fill: #a676d6; stroke: #000000; stroke-width: 0.384"/>
    <path d="M 134.473362 44.260923 
C 134.791605 44.260923 135.096858 44.134484 135.32189 43.909451 
C 135.546922 43.684419 135.673362 43.379167 135.673362 43.060923 
C 135.673362 42.742679 135.546922 42.437427 135.32189 42.212395 
C 135.096858 41.987363 134.791605 41.860923 134.473362 41.860923 
C 134.155118 41.860923 133.849866 41.987363 133.624834 42.212395 
C 133.399801 42.437427 133.273362 42.742679 133.273362 43.060923 
C 133.273362 43.379167 133.399801 43.684419 133.624834 43.909451 
C 133.849866 44.134484 134.155118 44.260923 134.473362 44.260923 
z
" clip-path="url(#p759c64ce08)" style="fill: #a676d6; stroke: #000000; stroke-width: 0.384"/>
    <path d="M 150.908904 36.356683 
C 151.227148 36.356683 151.5324 36.230243 151.757432 36.005211 
C 151.982464 35.780178 152.108904 35.474926 152.108904 35.156683 
C 152.108904 34.838439 151.982464 34.533187 151.757432 34.308155 
C 151.5324 34.083122 151.227148 33.956683 150.908904 33.956683 
C 150.59066 33.956683 150.285408 34.083122 150.060376 34.308155 
C 149.835344 34.533187 149.708904 34.838439 149.708904 35.156683 
C 149.708904 35.474926 149.835344 35.780178 150.060376 36.005211 
C 150.285408 36.230243 150.59066 36.356683 150.908904 36.356683 
z
" clip-path="url(#p759c64ce08)" style="fill: #a676d6; stroke: #000000; stroke-width: 0.384"/>
    <path d="M 167.344446 25.817695 
C 167.66269 25.817695 167.967942 25.691256 168.192974 25.466223 
C 168.418007 25.241191 168.544446 24.935939 168.544446 24.617695 
C 168.544446 24.299452 168.418007 23.994199 168.192974 23.769167 
C 167.967942 23.544135 167.66269 23.417695 167.344446 23.417695 
C 167.026202 23.417695 166.72095 23.544135 166.495918 23.769167 
C 166.270886 23.994199 166.144446 24.299452 166.144446 24.617695 
C 166.144446 24.935939 166.270886 25.241191 166.495918 25.466223 
C 166.72095 25.691256 167.026202 25.817695 167.344446 25.817695 
z
" clip-path="url(#p759c64ce08)" style="fill: #a676d6; stroke: #000000; stroke-width: 0.384"/>
    <path d="M 183.779988 20.548202 
C 184.098232 20.548202 184.403484 20.421762 184.628517 20.19673 
C 184.853549 19.971697 184.979988 19.666445 184.979988 19.348202 
C 184.979988 19.029958 184.853549 18.724706 184.628517 18.499673 
C 184.403484 18.274641 184.098232 18.148202 183.779988 18.148202 
C 183.461745 18.148202 183.156493 18.274641 182.93146 18.499673 
C 182.706428 18.724706 182.579988 19.029958 182.579988 19.348202 
C 182.579988 19.666445 182.706428 19.971697 182.93146 20.19673 
C 183.156493 20.421762 183.461745 20.548202 183.779988 20.548202 
z
" clip-path="url(#p759c64ce08)" style="fill: #a676d6; stroke: #000000; stroke-width: 0.384"/>
    <path d="M 200.215531 15.278708 
C 200.533774 15.278708 200.839026 15.152268 201.064059 14.927236 
C 201.289091 14.702204 201.415531 14.396952 201.415531 14.078708 
C 201.415531 13.760464 201.289091 13.455212 201.064059 13.23018 
C 200.839026 13.005147 200.533774 12.878708 200.215531 12.878708 
C 199.897287 12.878708 199.592035 13.005147 199.367002 13.23018 
C 199.14197 13.455212 199.015531 13.760464 199.015531 14.078708 
C 199.015531 14.396952 199.14197 14.702204 199.367002 14.927236 
C 199.592035 15.152268 199.897287 15.278708 200.215531 15.278708 
z
" clip-path="url(#p759c64ce08)" style="fill: #a676d6; stroke: #000000; stroke-width: 0.384"/>
    <path d="M 35.860108 167.128772 
L 33.460108 171.928772 
L 38.260108 171.928772 
z
" clip-path="url(#p759c64ce08)" style="fill: #a676d6; stroke: #000000; stroke-width: 0.384"/>
    <path d="M 52.295651 159.224531 
L 49.895651 164.024531 
L 54.695651 164.024531 
z
" clip-path="url(#p759c64ce08)" style="fill: #a676d6; stroke: #000000; stroke-width: 0.384"/>
    <path d="M 68.731193 148.685544 
L 66.331193 153.485544 
L 71.131193 153.485544 
z
" clip-path="url(#p759c64ce08)" style="fill: #a676d6; stroke: #000000; stroke-width: 0.384"/>
    <path d="M 85.166735 124.972822 
L 82.766735 129.772822 
L 87.566735 129.772822 
z
" clip-path="url(#p759c64ce08)" style="fill: #a676d6; stroke: #000000; stroke-width: 0.384"/>
    <path d="M 101.602277 95.990607 
L 99.202277 100.790607 
L 104.002277 100.790607 
z
" clip-path="url(#p759c64ce08)" style="fill: #a676d6; stroke: #000000; stroke-width: 0.384"/>
    <path d="M 118.03782 80.182126 
L 115.63782 84.982126 
L 120.43782 84.982126 
z
" clip-path="url(#p759c64ce08)" style="fill: #a676d6; stroke: #000000; stroke-width: 0.384"/>
    <path d="M 134.473362 53.834657 
L 132.073362 58.634657 
L 136.873362 58.634657 
z
" clip-path="url(#p759c64ce08)" style="fill: #a676d6; stroke: #000000; stroke-width: 0.384"/>
    <path d="M 150.908904 43.29567 
L 148.508904 48.09567 
L 153.308904 48.09567 
z
" clip-path="url(#p759c64ce08)" style="fill: #a676d6; stroke: #000000; stroke-width: 0.384"/>
    <path d="M 167.344446 38.026176 
L 164.944446 42.826176 
L 169.744446 42.826176 
z
" clip-path="url(#p759c64ce08)" style="fill: #a676d6; stroke: #000000; stroke-width: 0.384"/>
    <path d="M 183.779988 32.756683 
L 181.379988 37.556683 
L 186.179988 37.556683 
z
" clip-path="url(#p759c64ce08)" style="fill: #a676d6; stroke: #000000; stroke-width: 0.384"/>
    <path d="M 200.215531 11.678708 
L 197.815531 16.478708 
L 202.615531 16.478708 
z
" clip-path="url(#p759c64ce08)" style="fill: #a676d6; stroke: #000000; stroke-width: 0.384"/>
    <path d="M 35.060108 166.659278 
L 36.660108 166.659278 
L 36.660108 165.059278 
L 38.260108 165.059278 
L 38.260108 163.459278 
L 36.660108 163.459278 
L 36.660108 161.859278 
L 35.060108 161.859278 
L 35.060108 163.459278 
L 33.460108 163.459278 
L 33.460108 165.059278 
L 35.060108 165.059278 
z
" clip-path="url(#p759c64ce08)" style="fill: #a676d6; stroke: #000000; stroke-width: 0.384"/>
    <path d="M 51.495651 137.677063 
L 53.095651 137.677063 
L 53.095651 136.077063 
L 54.695651 136.077063 
L 54.695651 134.477063 
L 53.095651 134.477063 
L 53.095651 132.877063 
L 51.495651 132.877063 
L 51.495651 134.477063 
L 49.895651 134.477063 
L 49.895651 136.077063 
L 51.495651 136.077063 
z
" clip-path="url(#p759c64ce08)" style="fill: #a676d6; stroke: #000000; stroke-width: 0.384"/>
    <path d="M 67.931193 111.329594 
L 69.531193 111.329594 
L 69.531193 109.729594 
L 71.131193 109.729594 
L 71.131193 108.129594 
L 69.531193 108.129594 
L 69.531193 106.529594 
L 67.931193 106.529594 
L 67.931193 108.129594 
L 66.331193 108.129594 
L 66.331193 109.729594 
L 67.931193 109.729594 
z
" clip-path="url(#p759c64ce08)" style="fill: #a676d6; stroke: #000000; stroke-width: 0.384"/>
    <path d="M 84.366735 90.25162 
L 85.966735 90.25162 
L 85.966735 88.65162 
L 87.566735 88.65162 
L 87.566735 87.05162 
L 85.966735 87.05162 
L 85.966735 85.45162 
L 84.366735 85.45162 
L 84.366735 87.05162 
L 82.766735 87.05162 
L 82.766735 88.65162 
L 84.366735 88.65162 
z
" clip-path="url(#p759c64ce08)" style="fill: #a676d6; stroke: #000000; stroke-width: 0.384"/>
    <path d="M 100.802277 79.712632 
L 102.402277 79.712632 
L 102.402277 78.112632 
L 104.002277 78.112632 
L 104.002277 76.512632 
L 102.402277 76.512632 
L 102.402277 74.912632 
L 100.802277 74.912632 
L 100.802277 76.512632 
L 99.202277 76.512632 
L 99.202277 78.112632 
L 100.802277 78.112632 
z
" clip-path="url(#p759c64ce08)" style="fill: #a676d6; stroke: #000000; stroke-width: 0.384"/>
    <path d="M 117.23782 66.538898 
L 118.83782 66.538898 
L 118.83782 64.938898 
L 120.43782 64.938898 
L 120.43782 63.338898 
L 118.83782 63.338898 
L 118.83782 61.738898 
L 117.23782 61.738898 
L 117.23782 63.338898 
L 115.63782 63.338898 
L 115.63782 64.938898 
L 117.23782 64.938898 
z
" clip-path="url(#p759c64ce08)" style="fill: #a676d6; stroke: #000000; stroke-width: 0.384"/>
    <path d="M 133.673362 45.460923 
L 135.273362 45.460923 
L 135.273362 43.860923 
L 136.873362 43.860923 
L 136.873362 42.260923 
L 135.273362 42.260923 
L 135.273362 40.660923 
L 133.673362 40.660923 
L 133.673362 42.260923 
L 132.073362 42.260923 
L 132.073362 43.860923 
L 133.673362 43.860923 
z
" clip-path="url(#p759c64ce08)" style="fill: #a676d6; stroke: #000000; stroke-width: 0.384"/>
    <path d="M 150.108904 37.556683 
L 151.708904 37.556683 
L 151.708904 35.956683 
L 153.308904 35.956683 
L 153.308904 34.356683 
L 151.708904 34.356683 
L 151.708904 32.756683 
L 150.108904 32.756683 
L 150.108904 34.356683 
L 148.508904 34.356683 
L 148.508904 35.956683 
L 150.108904 35.956683 
z
" clip-path="url(#p759c64ce08)" style="fill: #a676d6; stroke: #000000; stroke-width: 0.384"/>
    <path d="M 166.544446 32.287189 
L 168.144446 32.287189 
L 168.144446 30.687189 
L 169.744446 30.687189 
L 169.744446 29.087189 
L 168.144446 29.087189 
L 168.144446 27.487189 
L 166.544446 27.487189 
L 166.544446 29.087189 
L 164.944446 29.087189 
L 164.944446 30.687189 
L 166.544446 30.687189 
z
" clip-path="url(#p759c64ce08)" style="fill: #a676d6; stroke: #000000; stroke-width: 0.384"/>
    <path d="M 182.979988 24.382948 
L 184.579988 24.382948 
L 184.579988 22.782948 
L 186.179988 22.782948 
L 186.179988 21.182948 
L 184.579988 21.182948 
L 184.579988 19.582948 
L 182.979988 19.582948 
L 182.979988 21.182948 
L 181.379988 21.182948 
L 181.379988 22.782948 
L 182.979988 22.782948 
z
" clip-path="url(#p759c64ce08)" style="fill: #a676d6; stroke: #000000; stroke-width: 0.384"/>
    <path d="M 199.415531 16.478708 
L 201.015531 16.478708 
L 201.015531 14.878708 
L 202.615531 14.878708 
L 202.615531 13.278708 
L 201.015531 13.278708 
L 201.015531 11.678708 
L 199.415531 11.678708 
L 199.415531 13.278708 
L 197.815531 13.278708 
L 197.815531 14.878708 
L 199.415531 14.878708 
z
" clip-path="url(#p759c64ce08)" style="fill: #a676d6; stroke: #000000; stroke-width: 0.384"/>
    <path d="M 35.860108 151.84491 
L 37.896576 148.450797 
L 35.860108 145.056685 
L 33.823641 148.450797 
z
" clip-path="url(#p759c64ce08)" style="fill: #a676d6; stroke: #000000; stroke-width: 0.384"/>
    <path d="M 52.295651 122.862694 
L 54.332118 119.468582 
L 52.295651 116.074469 
L 50.259183 119.468582 
z
" clip-path="url(#p759c64ce08)" style="fill: #a676d6; stroke: #000000; stroke-width: 0.384"/>
    <path d="M 68.731193 104.419466 
L 70.76766 101.025354 
L 68.731193 97.631241 
L 66.694725 101.025354 
z
" clip-path="url(#p759c64ce08)" style="fill: #a676d6; stroke: #000000; stroke-width: 0.384"/>
    <path d="M 85.166735 85.976239 
L 87.203203 82.582126 
L 85.166735 79.188013 
L 83.130268 82.582126 
z
" clip-path="url(#p759c64ce08)" style="fill: #a676d6; stroke: #000000; stroke-width: 0.384"/>
    <path d="M 101.602277 72.802504 
L 103.638745 69.408392 
L 101.602277 66.014279 
L 99.56581 69.408392 
z
" clip-path="url(#p759c64ce08)" style="fill: #a676d6; stroke: #000000; stroke-width: 0.384"/>
    <path d="M 118.03782 67.533011 
L 120.074287 64.138898 
L 118.03782 60.744785 
L 116.001352 64.138898 
z
" clip-path="url(#p759c64ce08)" style="fill: #a676d6; stroke: #000000; stroke-width: 0.384"/>
    <path d="M 134.473362 51.724529 
L 136.509829 48.330417 
L 134.473362 44.936304 
L 132.436894 48.330417 
z
" clip-path="url(#p759c64ce08)" style="fill: #a676d6; stroke: #000000; stroke-width: 0.384"/>
    <path d="M 150.908904 30.646555 
L 152.945371 27.252442 
L 150.908904 23.85833 
L 148.872436 27.252442 
z
" clip-path="url(#p759c64ce08)" style="fill: #a676d6; stroke: #000000; stroke-width: 0.384"/>
    <path d="M 167.344446 22.742314 
L 169.380914 19.348202 
L 167.344446 15.954089 
L 165.307979 19.348202 
z
" clip-path="url(#p759c64ce08)" style="fill: #a676d6; stroke: #000000; stroke-width: 0.384"/>
    <path d="M 183.779988 20.107567 
L 185.816456 16.713455 
L 183.779988 13.319342 
L 181.743521 16.713455 
z
" clip-path="url(#p759c64ce08)" style="fill: #a676d6; stroke: #000000; stroke-width: 0.384"/>
    <path d="M 200.215531 17.47282 
L 202.251998 14.078708 
L 200.215531 10.684595 
L 198.179063 14.078708 
z
" clip-path="url(#p759c64ce08)" style="fill: #a676d6; stroke: #000000; stroke-width: 0.384"/>
   </g>
   <g id="PathCollection_2"/>
   <g id="PathCollection_3"/>
   <g id="PathCollection_4"/>
   <g id="PathCollection_5"/>
   <g id="PathCollection_6"/>
   <g id="PathCollection_7"/>
   <g id="PathCollection_8"/>
   <g id="PathCollection_9"/>
   <g id="PathCollection_10"/>
   <g id="PathCollection_11"/>
   <g id="line2d_18">
    <path d="M 35.860108 172.163519 
L 52.295651 156.355038 
L 68.731193 140.546557 
L 85.166735 124.738076 
L 101.602277 108.929594 
L 118.03782 93.121113 
L 134.473362 77.312632 
L 150.908904 61.504151 
L 167.344446 45.69567 
L 183.779988 29.887189 
L 200.215531 14.078708 
L 35.860108 172.163519 
L 52.295651 156.355038 
L 68.731193 140.546557 
L 85.166735 124.738076 
L 101.602277 108.929594 
L 118.03782 93.121113 
L 134.473362 77.312632 
L 150.908904 61.504151 
L 167.344446 45.69567 
L 183.779988 29.887189 
L 200.215531 14.078708 
L 35.860108 172.163519 
L 52.295651 156.355038 
L 68.731193 140.546557 
L 85.166735 124.738076 
L 101.602277 108.929594 
L 118.03782 93.121113 
L 134.473362 77.312632 
L 150.908904 61.504151 
L 167.344446 45.69567 
L 183.779988 29.887189 
L 200.215531 14.078708 
L 35.860108 172.163519 
L 52.295651 156.355038 
L 68.731193 140.546557 
L 85.166735 124.738076 
L 101.602277 108.929594 
L 118.03782 93.121113 
L 134.473362 77.312632 
L 150.908904 61.504151 
L 167.344446 45.69567 
L 183.779988 29.887189 
L 200.215531 14.078708 
L 35.860108 172.163519 
L 52.295651 156.355038 
L 68.731193 140.546557 
L 85.166735 124.738076 
L 101.602277 108.929594 
L 118.03782 93.121113 
L 134.473362 77.312632 
L 150.908904 61.504151 
L 167.344446 45.69567 
L 183.779988 29.887189 
L 200.215531 14.078708 
L 35.860108 172.163519 
L 52.295651 156.355038 
L 68.731193 140.546557 
L 85.166735 124.738076 
L 101.602277 108.929594 
L 118.03782 93.121113 
L 134.473362 77.312632 
L 150.908904 61.504151 
L 167.344446 45.69567 
L 183.779988 29.887189 
L 200.215531 14.078708 
L 35.860108 172.163519 
L 52.295651 156.355038 
L 68.731193 140.546557 
L 85.166735 124.738076 
L 101.602277 108.929594 
L 118.03782 93.121113 
L 134.473362 77.312632 
L 150.908904 61.504151 
L 167.344446 45.69567 
L 183.779988 29.887189 
L 200.215531 14.078708 
L 35.860108 172.163519 
L 52.295651 156.355038 
L 68.731193 140.546557 
L 85.166735 124.738076 
L 101.602277 108.929594 
L 118.03782 93.121113 
L 134.473362 77.312632 
L 150.908904 61.504151 
L 167.344446 45.69567 
L 183.779988 29.887189 
L 200.215531 14.078708 
L 35.860108 172.163519 
L 52.295651 156.355038 
L 68.731193 140.546557 
L 85.166735 124.738076 
L 101.602277 108.929594 
L 118.03782 93.121113 
L 134.473362 77.312632 
L 150.908904 61.504151 
L 167.344446 45.69567 
L 183.779988 29.887189 
L 200.215531 14.078708 
L 35.860108 172.163519 
L 52.295651 156.355038 
L 68.731193 140.546557 
L 85.166735 124.738076 
L 101.602277 108.929594 
L 118.03782 93.121113 
L 134.473362 77.312632 
L 150.908904 61.504151 
L 167.344446 45.69567 
L 183.779988 29.887189 
L 200.215531 14.078708 
" clip-path="url(#p759c64ce08)" style="fill: none; stroke-dasharray: 3.7,1.6; stroke-dashoffset: 0; stroke: #000000; stroke-opacity: 0.5"/>
   </g>
   <g id="line2d_19">
    <path d="M 35.860108 76.368842 
L 52.295651 60.796309 
L 68.731193 45.223775 
L 85.166735 32.246664 
L 101.602277 24.460397 
L 118.03782 19.269552 
L 134.473362 16.67413 
L 150.908904 14.078708 
L 167.344446 14.078708 
L 183.779988 14.078708 
L 200.215531 14.078708 
" clip-path="url(#p759c64ce08)" style="fill: none; stroke-dasharray: 3.7,1.6; stroke-dashoffset: 0; stroke: #008fd7; stroke-opacity: 0.5"/>
   </g>
   <g id="line2d_20">
    <path d="M 35.860108 120.491021 
L 52.295651 89.345954 
L 68.731193 63.391731 
L 85.166735 55.605464 
L 101.602277 47.819197 
L 118.03782 42.628353 
L 134.473362 34.842086 
L 150.908904 24.460397 
L 167.344446 16.67413 
L 183.779988 16.67413 
L 200.215531 14.078708 
" clip-path="url(#p759c64ce08)" style="fill: none; stroke-dasharray: 3.7,1.6; stroke-dashoffset: 0; stroke: #008fd7; stroke-opacity: 0.5"/>
   </g>
   <g id="line2d_21">
    <path d="M 35.860108 65.987153 
L 52.295651 37.437508 
L 68.731193 32.246664 
L 85.166735 24.460397 
L 101.602277 21.864975 
L 118.03782 19.269552 
L 134.473362 16.67413 
L 150.908904 14.078708 
L 167.344446 14.078708 
L 183.779988 14.078708 
L 200.215531 14.078708 
" clip-path="url(#p759c64ce08)" style="fill: none; stroke-dasharray: 3.7,1.6; stroke-dashoffset: 0; stroke: #008fd7; stroke-opacity: 0.5"/>
   </g>
   <g id="line2d_22">
    <path d="M 35.860108 89.345954 
L 52.295651 58.200886 
L 68.731193 45.223775 
L 85.166735 34.842086 
L 101.602277 27.055819 
L 118.03782 27.055819 
L 134.473362 19.269552 
L 150.908904 19.269552 
L 167.344446 14.078708 
L 183.779988 14.078708 
L 200.215531 14.078708 
" clip-path="url(#p759c64ce08)" style="fill: none; stroke-dasharray: 3.7,1.6; stroke-dashoffset: 0; stroke: #008fd7; stroke-opacity: 0.5"/>
   </g>
   <g id="line2d_23">
    <path d="M 35.860108 78.964265 
L 52.295651 63.391731 
L 68.731193 58.200886 
L 85.166735 50.41462 
L 101.602277 42.628353 
L 118.03782 40.032931 
L 134.473362 24.460397 
L 150.908904 21.864975 
L 167.344446 21.864975 
L 183.779988 19.269552 
L 200.215531 14.078708 
" clip-path="url(#p759c64ce08)" style="fill: none; stroke-dasharray: 3.7,1.6; stroke-dashoffset: 0; stroke: #008fd7; stroke-opacity: 0.5"/>
   </g>
   <g id="line2d_24">
    <path d="M 35.860108 161.219186 
L 52.295651 114.401761 
L 68.731193 94.33715 
L 85.166735 67.584336 
L 101.602277 47.519726 
L 118.03782 14.078708 
L 134.473362 14.078708 
L 150.908904 14.078708 
L 167.344446 14.078708 
L 183.779988 14.078708 
L 200.215531 14.078708 
" clip-path="url(#p759c64ce08)" style="fill: none; stroke-dasharray: 3.7,1.6; stroke-dashoffset: 0; stroke: #9e005d; stroke-opacity: 0.5"/>
   </g>
   <g id="line2d_25">
    <path d="M 35.860108 153.720291 
L 52.295651 114.199088 
L 68.731193 103.660101 
L 85.166735 85.216873 
L 101.602277 72.043139 
L 118.03782 50.965164 
L 134.473362 43.060923 
L 150.908904 35.156683 
L 167.344446 24.617695 
L 183.779988 19.348202 
L 200.215531 14.078708 
" clip-path="url(#p759c64ce08)" style="fill: none; stroke-dasharray: 3.7,1.6; stroke-dashoffset: 0; stroke: #a676d6; stroke-opacity: 0.5"/>
   </g>
   <g id="line2d_26">
    <path d="M 35.860108 169.528772 
L 52.295651 161.624531 
L 68.731193 151.085544 
L 85.166735 127.372822 
L 101.602277 98.390607 
L 118.03782 82.582126 
L 134.473362 56.234657 
L 150.908904 45.69567 
L 167.344446 40.426176 
L 183.779988 35.156683 
L 200.215531 14.078708 
" clip-path="url(#p759c64ce08)" style="fill: none; stroke-dasharray: 3.7,1.6; stroke-dashoffset: 0; stroke: #a676d6; stroke-opacity: 0.5"/>
   </g>
   <g id="line2d_27">
    <path d="M 35.860108 164.259278 
L 52.295651 135.277063 
L 68.731193 108.929594 
L 85.166735 87.85162 
L 101.602277 77.312632 
L 118.03782 64.138898 
L 134.473362 43.060923 
L 150.908904 35.156683 
L 167.344446 29.887189 
L 183.779988 21.982948 
L 200.215531 14.078708 
" clip-path="url(#p759c64ce08)" style="fill: none; stroke-dasharray: 3.7,1.6; stroke-dashoffset: 0; stroke: #a676d6; stroke-opacity: 0.5"/>
   </g>
   <g id="line2d_28">
    <path d="M 35.860108 148.450797 
L 52.295651 119.468582 
L 68.731193 101.025354 
L 85.166735 82.582126 
L 101.602277 69.408392 
L 118.03782 64.138898 
L 134.473362 48.330417 
L 150.908904 27.252442 
L 167.344446 19.348202 
L 183.779988 16.713455 
L 200.215531 14.078708 
" clip-path="url(#p759c64ce08)" style="fill: none; stroke-dasharray: 3.7,1.6; stroke-dashoffset: 0; stroke: #a676d6; stroke-opacity: 0.5"/>
   </g>
   <g id="patch_3">
    <path d="M 32.573 187.972 
L 32.573 12.339775 
" style="fill: none; stroke: #cccccc; stroke-linejoin: miter; stroke-linecap: square"/>
   </g>
   <g id="patch_4">
    <path d="M 203.502639 187.972 
L 203.502639 12.339775 
" style="fill: none; stroke: #cccccc; stroke-linejoin: miter; stroke-linecap: square"/>
   </g>
   <g id="patch_5">
    <path d="M 32.573 187.972 
L 203.502639 187.972 
" style="fill: none; stroke: #cccccc; stroke-linejoin: miter; stroke-linecap: square"/>
   </g>
   <g id="patch_6">
    <path d="M 32.573 12.339775 
L 203.502639 12.339775 
" style="fill: none; stroke: #cccccc; stroke-linejoin: miter; stroke-linecap: square"/>
   </g>
   <g id="legend_1">
    <g id="patch_7">
     <path d="M 38.733 183.572 
L 187.69775 183.572 
Q 189.45775 183.572 189.45775 181.812 
L 189.45775 31.430875 
Q 189.45775 29.670875 187.69775 29.670875 
L 38.733 29.670875 
Q 36.973 29.670875 36.973 31.430875 
L 36.973 181.812 
Q 36.973 183.572 38.733 183.572 
z
" style="fill: #ffffff; opacity: 0.8; stroke: #cccccc; stroke-width: 0.8; stroke-linejoin: miter"/>
    </g>
    <g id="text_18">
     <!-- model -->
     <g style="fill: #262626" transform="translate(100.142875 40.062375) scale(0.096 -0.096)">
      <defs>
       <path id="ArialMT-6d" d="M 422 0 
L 422 3319 
L 925 3319 
L 925 2853 
Q 1081 3097 1340 3245 
Q 1600 3394 1931 3394 
Q 2300 3394 2536 3241 
Q 2772 3088 2869 2813 
Q 3263 3394 3894 3394 
Q 4388 3394 4653 3120 
Q 4919 2847 4919 2278 
L 4919 0 
L 4359 0 
L 4359 2091 
Q 4359 2428 4304 2576 
Q 4250 2725 4106 2815 
Q 3963 2906 3769 2906 
Q 3419 2906 3187 2673 
Q 2956 2441 2956 1928 
L 2956 0 
L 2394 0 
L 2394 2156 
Q 2394 2531 2256 2718 
Q 2119 2906 1806 2906 
Q 1569 2906 1367 2781 
Q 1166 2656 1075 2415 
Q 984 2175 984 1722 
L 984 0 
L 422 0 
z
" transform="scale(0.015625)"/>
       <path id="ArialMT-6f" d="M 213 1659 
Q 213 2581 725 3025 
Q 1153 3394 1769 3394 
Q 2453 3394 2887 2945 
Q 3322 2497 3322 1706 
Q 3322 1066 3130 698 
Q 2938 331 2570 128 
Q 2203 -75 1769 -75 
Q 1072 -75 642 372 
Q 213 819 213 1659 
z
M 791 1659 
Q 791 1022 1069 705 
Q 1347 388 1769 388 
Q 2188 388 2466 706 
Q 2744 1025 2744 1678 
Q 2744 2294 2464 2611 
Q 2184 2928 1769 2928 
Q 1347 2928 1069 2612 
Q 791 2297 791 1659 
z
" transform="scale(0.015625)"/>
       <path id="ArialMT-64" d="M 2575 0 
L 2575 419 
Q 2259 -75 1647 -75 
Q 1250 -75 917 144 
Q 584 363 401 755 
Q 219 1147 219 1656 
Q 219 2153 384 2558 
Q 550 2963 881 3178 
Q 1213 3394 1622 3394 
Q 1922 3394 2156 3267 
Q 2391 3141 2538 2938 
L 2538 4581 
L 3097 4581 
L 3097 0 
L 2575 0 
z
M 797 1656 
Q 797 1019 1065 703 
Q 1334 388 1700 388 
Q 2069 388 2326 689 
Q 2584 991 2584 1609 
Q 2584 2291 2321 2609 
Q 2059 2928 1675 2928 
Q 1300 2928 1048 2622 
Q 797 2316 797 1656 
z
" transform="scale(0.015625)"/>
       <path id="ArialMT-65" d="M 2694 1069 
L 3275 997 
Q 3138 488 2766 206 
Q 2394 -75 1816 -75 
Q 1088 -75 661 373 
Q 234 822 234 1631 
Q 234 2469 665 2931 
Q 1097 3394 1784 3394 
Q 2450 3394 2872 2941 
Q 3294 2488 3294 1666 
Q 3294 1616 3291 1516 
L 816 1516 
Q 847 969 1125 678 
Q 1403 388 1819 388 
Q 2128 388 2347 550 
Q 2566 713 2694 1069 
z
M 847 1978 
L 2700 1978 
Q 2663 2397 2488 2606 
Q 2219 2931 1791 2931 
Q 1403 2931 1139 2672 
Q 875 2413 847 1978 
z
" transform="scale(0.015625)"/>
       <path id="ArialMT-6c" d="M 409 0 
L 409 4581 
L 972 4581 
L 972 0 
L 409 0 
z
" transform="scale(0.015625)"/>
      </defs>
      <use xlink:href="#ArialMT-6d"/>
      <use xlink:href="#ArialMT-6f" x="83.300781"/>
      <use xlink:href="#ArialMT-64" x="138.916016"/>
      <use xlink:href="#ArialMT-65" x="194.53125"/>
      <use xlink:href="#ArialMT-6c" x="250.146484"/>
     </g>
    </g>
    <g id="line2d_29">
     <path d="M 40.493 49.58925 
L 49.293 49.58925 
L 58.093 49.58925 
" style="fill: none; stroke-dasharray: 3.7,1.6; stroke-dashoffset: 0; stroke: #000000; stroke-opacity: 0.5"/>
    </g>
    <g id="text_19">
     <!-- Random -->
     <g style="fill: #262626" transform="translate(65.133 52.66925) scale(0.088 -0.088)">
      <defs>
       <path id="ArialMT-52" d="M 503 0 
L 503 4581 
L 2534 4581 
Q 3147 4581 3465 4457 
Q 3784 4334 3975 4021 
Q 4166 3709 4166 3331 
Q 4166 2844 3850 2509 
Q 3534 2175 2875 2084 
Q 3116 1969 3241 1856 
Q 3506 1613 3744 1247 
L 4541 0 
L 3778 0 
L 3172 953 
Q 2906 1366 2734 1584 
Q 2563 1803 2427 1890 
Q 2291 1978 2150 2013 
Q 2047 2034 1813 2034 
L 1109 2034 
L 1109 0 
L 503 0 
z
M 1109 2559 
L 2413 2559 
Q 2828 2559 3062 2645 
Q 3297 2731 3419 2920 
Q 3541 3109 3541 3331 
Q 3541 3656 3305 3865 
Q 3069 4075 2559 4075 
L 1109 4075 
L 1109 2559 
z
" transform="scale(0.015625)"/>
       <path id="ArialMT-61" d="M 2588 409 
Q 2275 144 1986 34 
Q 1697 -75 1366 -75 
Q 819 -75 525 192 
Q 231 459 231 875 
Q 231 1119 342 1320 
Q 453 1522 633 1644 
Q 813 1766 1038 1828 
Q 1203 1872 1538 1913 
Q 2219 1994 2541 2106 
Q 2544 2222 2544 2253 
Q 2544 2597 2384 2738 
Q 2169 2928 1744 2928 
Q 1347 2928 1158 2789 
Q 969 2650 878 2297 
L 328 2372 
Q 403 2725 575 2942 
Q 747 3159 1072 3276 
Q 1397 3394 1825 3394 
Q 2250 3394 2515 3294 
Q 2781 3194 2906 3042 
Q 3031 2891 3081 2659 
Q 3109 2516 3109 2141 
L 3109 1391 
Q 3109 606 3145 398 
Q 3181 191 3288 0 
L 2700 0 
Q 2613 175 2588 409 
z
M 2541 1666 
Q 2234 1541 1622 1453 
Q 1275 1403 1131 1340 
Q 988 1278 909 1158 
Q 831 1038 831 891 
Q 831 666 1001 516 
Q 1172 366 1500 366 
Q 1825 366 2078 508 
Q 2331 650 2450 897 
Q 2541 1088 2541 1459 
L 2541 1666 
z
" transform="scale(0.015625)"/>
       <path id="ArialMT-6e" d="M 422 0 
L 422 3319 
L 928 3319 
L 928 2847 
Q 1294 3394 1984 3394 
Q 2284 3394 2536 3286 
Q 2788 3178 2913 3003 
Q 3038 2828 3088 2588 
Q 3119 2431 3119 2041 
L 3119 0 
L 2556 0 
L 2556 2019 
Q 2556 2363 2490 2533 
Q 2425 2703 2258 2804 
Q 2091 2906 1866 2906 
Q 1506 2906 1245 2678 
Q 984 2450 984 1813 
L 984 0 
L 422 0 
z
" transform="scale(0.015625)"/>
      </defs>
      <use xlink:href="#ArialMT-52"/>
      <use xlink:href="#ArialMT-61" x="72.216797"/>
      <use xlink:href="#ArialMT-6e" x="127.832031"/>
      <use xlink:href="#ArialMT-64" x="183.447266"/>
      <use xlink:href="#ArialMT-6f" x="239.0625"/>
      <use xlink:href="#ArialMT-6d" x="294.677734"/>
     </g>
    </g>
    <g id="PathCollection_12">
     <defs>
      <path id="maecd3a0942" d="M 0 1.2 
C 0.318244 1.2 0.623496 1.07356 0.848528 0.848528 
C 1.07356 0.623496 1.2 0.318244 1.2 0 
C 1.2 -0.318244 1.07356 -0.623496 0.848528 -0.848528 
C 0.623496 -1.07356 0.318244 -1.2 0 -1.2 
C -0.318244 -1.2 -0.623496 -1.07356 -0.848528 -0.848528 
C -1.07356 -0.623496 -1.2 -0.318244 -1.2 0 
C -1.2 0.318244 -1.07356 0.623496 -0.848528 0.848528 
C -0.623496 1.07356 -0.318244 1.2 0 1.2 
z
" style="stroke: #008fd7; stroke-width: 0.8"/>
     </defs>
     <g>
      <use xlink:href="#maecd3a0942" x="49.293" y="62.914375" style="fill: #008fd7; stroke: #008fd7; stroke-width: 0.8"/>
     </g>
    </g>
    <g id="text_20">
     <!-- AF2 (no templates) -->
     <g style="fill: #262626" transform="translate(65.133 65.224375) scale(0.088 -0.088)">
      <defs>
       <path id="ArialMT-41" d="M -9 0 
L 1750 4581 
L 2403 4581 
L 4278 0 
L 3588 0 
L 3053 1388 
L 1138 1388 
L 634 0 
L -9 0 
z
M 1313 1881 
L 2866 1881 
L 2388 3150 
Q 2169 3728 2063 4100 
Q 1975 3659 1816 3225 
L 1313 1881 
z
" transform="scale(0.015625)"/>
       <path id="ArialMT-46" d="M 525 0 
L 525 4581 
L 3616 4581 
L 3616 4041 
L 1131 4041 
L 1131 2622 
L 3281 2622 
L 3281 2081 
L 1131 2081 
L 1131 0 
L 525 0 
z
" transform="scale(0.015625)"/>
       <path id="ArialMT-20" transform="scale(0.015625)"/>
       <path id="ArialMT-28" d="M 1497 -1347 
Q 1031 -759 709 28 
Q 388 816 388 1659 
Q 388 2403 628 3084 
Q 909 3875 1497 4659 
L 1900 4659 
Q 1522 4009 1400 3731 
Q 1209 3300 1100 2831 
Q 966 2247 966 1656 
Q 966 153 1900 -1347 
L 1497 -1347 
z
" transform="scale(0.015625)"/>
       <path id="ArialMT-74" d="M 1650 503 
L 1731 6 
Q 1494 -44 1306 -44 
Q 1000 -44 831 53 
Q 663 150 594 308 
Q 525 466 525 972 
L 525 2881 
L 113 2881 
L 113 3319 
L 525 3319 
L 525 4141 
L 1084 4478 
L 1084 3319 
L 1650 3319 
L 1650 2881 
L 1084 2881 
L 1084 941 
Q 1084 700 1114 631 
Q 1144 563 1211 522 
Q 1278 481 1403 481 
Q 1497 481 1650 503 
z
" transform="scale(0.015625)"/>
       <path id="ArialMT-70" d="M 422 -1272 
L 422 3319 
L 934 3319 
L 934 2888 
Q 1116 3141 1344 3267 
Q 1572 3394 1897 3394 
Q 2322 3394 2647 3175 
Q 2972 2956 3137 2557 
Q 3303 2159 3303 1684 
Q 3303 1175 3120 767 
Q 2938 359 2589 142 
Q 2241 -75 1856 -75 
Q 1575 -75 1351 44 
Q 1128 163 984 344 
L 984 -1272 
L 422 -1272 
z
M 931 1641 
Q 931 1000 1190 694 
Q 1450 388 1819 388 
Q 2194 388 2461 705 
Q 2728 1022 2728 1688 
Q 2728 2322 2467 2637 
Q 2206 2953 1844 2953 
Q 1484 2953 1207 2617 
Q 931 2281 931 1641 
z
" transform="scale(0.015625)"/>
       <path id="ArialMT-73" d="M 197 991 
L 753 1078 
Q 800 744 1014 566 
Q 1228 388 1613 388 
Q 2000 388 2187 545 
Q 2375 703 2375 916 
Q 2375 1106 2209 1216 
Q 2094 1291 1634 1406 
Q 1016 1563 777 1677 
Q 538 1791 414 1992 
Q 291 2194 291 2438 
Q 291 2659 392 2848 
Q 494 3038 669 3163 
Q 800 3259 1026 3326 
Q 1253 3394 1513 3394 
Q 1903 3394 2198 3281 
Q 2494 3169 2634 2976 
Q 2775 2784 2828 2463 
L 2278 2388 
Q 2241 2644 2061 2787 
Q 1881 2931 1553 2931 
Q 1166 2931 1000 2803 
Q 834 2675 834 2503 
Q 834 2394 903 2306 
Q 972 2216 1119 2156 
Q 1203 2125 1616 2013 
Q 2213 1853 2448 1751 
Q 2684 1650 2818 1456 
Q 2953 1263 2953 975 
Q 2953 694 2789 445 
Q 2625 197 2315 61 
Q 2006 -75 1616 -75 
Q 969 -75 630 194 
Q 291 463 197 991 
z
" transform="scale(0.015625)"/>
       <path id="ArialMT-29" d="M 791 -1347 
L 388 -1347 
Q 1322 153 1322 1656 
Q 1322 2244 1188 2822 
Q 1081 3291 891 3722 
Q 769 4003 388 4659 
L 791 4659 
Q 1378 3875 1659 3084 
Q 1900 2403 1900 1659 
Q 1900 816 1576 28 
Q 1253 -759 791 -1347 
z
" transform="scale(0.015625)"/>
      </defs>
      <use xlink:href="#ArialMT-41"/>
      <use xlink:href="#ArialMT-46" x="66.699219"/>
      <use xlink:href="#ArialMT-32" x="127.783203"/>
      <use xlink:href="#ArialMT-20" x="183.398438"/>
      <use xlink:href="#ArialMT-28" x="211.181641"/>
      <use xlink:href="#ArialMT-6e" x="244.482422"/>
      <use xlink:href="#ArialMT-6f" x="300.097656"/>
      <use xlink:href="#ArialMT-20" x="355.712891"/>
      <use xlink:href="#ArialMT-74" x="383.496094"/>
      <use xlink:href="#ArialMT-65" x="411.279297"/>
      <use xlink:href="#ArialMT-6d" x="466.894531"/>
      <use xlink:href="#ArialMT-70" x="550.195312"/>
      <use xlink:href="#ArialMT-6c" x="605.810547"/>
      <use xlink:href="#ArialMT-61" x="628.027344"/>
      <use xlink:href="#ArialMT-74" x="683.642578"/>
      <use xlink:href="#ArialMT-65" x="711.425781"/>
      <use xlink:href="#ArialMT-73" x="767.041016"/>
      <use xlink:href="#ArialMT-29" x="817.041016"/>
     </g>
    </g>
    <g id="PathCollection_13">
     <defs>
      <path id="mf19c5fccdd" d="M 0 -2.4 
L -2.4 2.4 
L 2.4 2.4 
z
" style="stroke: #008fd7; stroke-width: 0.8"/>
     </defs>
     <g>
      <use xlink:href="#mf19c5fccdd" x="49.293" y="75.572625" style="fill: #008fd7; stroke: #008fd7; stroke-width: 0.8"/>
     </g>
    </g>
    <g id="text_21">
     <!-- AF2 APPRAISE (no templates) -->
     <g style="fill: #262626" transform="translate(65.133 77.882625) scale(0.088 -0.088)">
      <defs>
       <path id="ArialMT-50" d="M 494 0 
L 494 4581 
L 2222 4581 
Q 2678 4581 2919 4538 
Q 3256 4481 3484 4323 
Q 3713 4166 3852 3881 
Q 3991 3597 3991 3256 
Q 3991 2672 3619 2267 
Q 3247 1863 2275 1863 
L 1100 1863 
L 1100 0 
L 494 0 
z
M 1100 2403 
L 2284 2403 
Q 2872 2403 3119 2622 
Q 3366 2841 3366 3238 
Q 3366 3525 3220 3729 
Q 3075 3934 2838 4000 
Q 2684 4041 2272 4041 
L 1100 4041 
L 1100 2403 
z
" transform="scale(0.015625)"/>
       <path id="ArialMT-49" d="M 597 0 
L 597 4581 
L 1203 4581 
L 1203 0 
L 597 0 
z
" transform="scale(0.015625)"/>
       <path id="ArialMT-53" d="M 288 1472 
L 859 1522 
Q 900 1178 1048 958 
Q 1197 738 1509 602 
Q 1822 466 2213 466 
Q 2559 466 2825 569 
Q 3091 672 3220 851 
Q 3350 1031 3350 1244 
Q 3350 1459 3225 1620 
Q 3100 1781 2813 1891 
Q 2628 1963 1997 2114 
Q 1366 2266 1113 2400 
Q 784 2572 623 2826 
Q 463 3081 463 3397 
Q 463 3744 659 4045 
Q 856 4347 1234 4503 
Q 1613 4659 2075 4659 
Q 2584 4659 2973 4495 
Q 3363 4331 3572 4012 
Q 3781 3694 3797 3291 
L 3216 3247 
Q 3169 3681 2898 3903 
Q 2628 4125 2100 4125 
Q 1550 4125 1298 3923 
Q 1047 3722 1047 3438 
Q 1047 3191 1225 3031 
Q 1400 2872 2139 2705 
Q 2878 2538 3153 2413 
Q 3553 2228 3743 1945 
Q 3934 1663 3934 1294 
Q 3934 928 3725 604 
Q 3516 281 3123 101 
Q 2731 -78 2241 -78 
Q 1619 -78 1198 103 
Q 778 284 539 648 
Q 300 1013 288 1472 
z
" transform="scale(0.015625)"/>
       <path id="ArialMT-45" d="M 506 0 
L 506 4581 
L 3819 4581 
L 3819 4041 
L 1113 4041 
L 1113 2638 
L 3647 2638 
L 3647 2100 
L 1113 2100 
L 1113 541 
L 3925 541 
L 3925 0 
L 506 0 
z
" transform="scale(0.015625)"/>
      </defs>
      <use xlink:href="#ArialMT-41"/>
      <use xlink:href="#ArialMT-46" x="66.699219"/>
      <use xlink:href="#ArialMT-32" x="127.783203"/>
      <use xlink:href="#ArialMT-20" x="183.398438"/>
      <use xlink:href="#ArialMT-41" x="205.681641"/>
      <use xlink:href="#ArialMT-50" x="272.380859"/>
      <use xlink:href="#ArialMT-50" x="339.080078"/>
      <use xlink:href="#ArialMT-52" x="405.779297"/>
      <use xlink:href="#ArialMT-41" x="477.996094"/>
      <use xlink:href="#ArialMT-49" x="544.695312"/>
      <use xlink:href="#ArialMT-53" x="572.478516"/>
      <use xlink:href="#ArialMT-45" x="639.177734"/>
      <use xlink:href="#ArialMT-20" x="705.876953"/>
      <use xlink:href="#ArialMT-28" x="733.660156"/>
      <use xlink:href="#ArialMT-6e" x="766.960938"/>
      <use xlink:href="#ArialMT-6f" x="822.576172"/>
      <use xlink:href="#ArialMT-20" x="878.191406"/>
      <use xlink:href="#ArialMT-74" x="905.974609"/>
      <use xlink:href="#ArialMT-65" x="933.757812"/>
      <use xlink:href="#ArialMT-6d" x="989.373047"/>
      <use xlink:href="#ArialMT-70" x="1072.673828"/>
      <use xlink:href="#ArialMT-6c" x="1128.289062"/>
      <use xlink:href="#ArialMT-61" x="1150.505859"/>
      <use xlink:href="#ArialMT-74" x="1206.121094"/>
      <use xlink:href="#ArialMT-65" x="1233.904297"/>
      <use xlink:href="#ArialMT-73" x="1289.519531"/>
      <use xlink:href="#ArialMT-29" x="1339.519531"/>
     </g>
    </g>
    <g id="PathCollection_14">
     <defs>
      <path id="m86ed2c371d" d="M -1.2 2.4 
L 0 1.2 
L 1.2 2.4 
L 2.4 1.2 
L 1.2 0 
L 2.4 -1.2 
L 1.2 -2.4 
L 0 -1.2 
L -1.2 -2.4 
L -2.4 -1.2 
L -1.2 0 
L -2.4 1.2 
z
" style="stroke: #008fd7; stroke-width: 0.8"/>
     </defs>
     <g>
      <use xlink:href="#m86ed2c371d" x="49.293" y="88.230875" style="fill: #008fd7; stroke: #008fd7; stroke-width: 0.8"/>
     </g>
    </g>
    <g id="text_22">
     <!-- AF2 LIS (no templates) -->
     <g style="fill: #262626" transform="translate(65.133 90.540875) scale(0.088 -0.088)">
      <defs>
       <path id="ArialMT-4c" d="M 469 0 
L 469 4581 
L 1075 4581 
L 1075 541 
L 3331 541 
L 3331 0 
L 469 0 
z
" transform="scale(0.015625)"/>
      </defs>
      <use xlink:href="#ArialMT-41"/>
      <use xlink:href="#ArialMT-46" x="66.699219"/>
      <use xlink:href="#ArialMT-32" x="127.783203"/>
      <use xlink:href="#ArialMT-20" x="183.398438"/>
      <use xlink:href="#ArialMT-4c" x="211.181641"/>
      <use xlink:href="#ArialMT-49" x="266.796875"/>
      <use xlink:href="#ArialMT-53" x="294.580078"/>
      <use xlink:href="#ArialMT-20" x="361.279297"/>
      <use xlink:href="#ArialMT-28" x="389.0625"/>
      <use xlink:href="#ArialMT-6e" x="422.363281"/>
      <use xlink:href="#ArialMT-6f" x="477.978516"/>
      <use xlink:href="#ArialMT-20" x="533.59375"/>
      <use xlink:href="#ArialMT-74" x="561.376953"/>
      <use xlink:href="#ArialMT-65" x="589.160156"/>
      <use xlink:href="#ArialMT-6d" x="644.775391"/>
      <use xlink:href="#ArialMT-70" x="728.076172"/>
      <use xlink:href="#ArialMT-6c" x="783.691406"/>
      <use xlink:href="#ArialMT-61" x="805.908203"/>
      <use xlink:href="#ArialMT-74" x="861.523438"/>
      <use xlink:href="#ArialMT-65" x="889.306641"/>
      <use xlink:href="#ArialMT-73" x="944.921875"/>
      <use xlink:href="#ArialMT-29" x="994.921875"/>
     </g>
    </g>
    <g id="PathCollection_15">
     <defs>
      <path id="m818d746a12" d="M -0.8 2.4 
L 0.8 2.4 
L 0.8 0.8 
L 2.4 0.8 
L 2.4 -0.8 
L 0.8 -0.8 
L 0.8 -2.4 
L -0.8 -2.4 
L -0.8 -0.8 
L -2.4 -0.8 
L -2.4 0.8 
L -0.8 0.8 
z
" style="stroke: #008fd7; stroke-width: 0.8"/>
     </defs>
     <g>
      <use xlink:href="#m818d746a12" x="49.293" y="100.889125" style="fill: #008fd7; stroke: #008fd7; stroke-width: 0.8"/>
     </g>
    </g>
    <g id="text_23">
     <!-- AF2 RIA energy (no templates) -->
     <g style="fill: #262626" transform="translate(65.133 103.199125) scale(0.088 -0.088)">
      <defs>
       <path id="ArialMT-72" d="M 416 0 
L 416 3319 
L 922 3319 
L 922 2816 
Q 1116 3169 1280 3281 
Q 1444 3394 1641 3394 
Q 1925 3394 2219 3213 
L 2025 2691 
Q 1819 2813 1613 2813 
Q 1428 2813 1281 2702 
Q 1134 2591 1072 2394 
Q 978 2094 978 1738 
L 978 0 
L 416 0 
z
" transform="scale(0.015625)"/>
       <path id="ArialMT-67" d="M 319 -275 
L 866 -356 
Q 900 -609 1056 -725 
Q 1266 -881 1628 -881 
Q 2019 -881 2231 -725 
Q 2444 -569 2519 -288 
Q 2563 -116 2559 434 
Q 2191 0 1641 0 
Q 956 0 581 494 
Q 206 988 206 1678 
Q 206 2153 378 2554 
Q 550 2956 876 3175 
Q 1203 3394 1644 3394 
Q 2231 3394 2613 2919 
L 2613 3319 
L 3131 3319 
L 3131 450 
Q 3131 -325 2973 -648 
Q 2816 -972 2473 -1159 
Q 2131 -1347 1631 -1347 
Q 1038 -1347 672 -1080 
Q 306 -813 319 -275 
z
M 784 1719 
Q 784 1066 1043 766 
Q 1303 466 1694 466 
Q 2081 466 2343 764 
Q 2606 1063 2606 1700 
Q 2606 2309 2336 2618 
Q 2066 2928 1684 2928 
Q 1309 2928 1046 2623 
Q 784 2319 784 1719 
z
" transform="scale(0.015625)"/>
       <path id="ArialMT-79" d="M 397 -1278 
L 334 -750 
Q 519 -800 656 -800 
Q 844 -800 956 -737 
Q 1069 -675 1141 -563 
Q 1194 -478 1313 -144 
Q 1328 -97 1363 -6 
L 103 3319 
L 709 3319 
L 1400 1397 
Q 1534 1031 1641 628 
Q 1738 1016 1872 1384 
L 2581 3319 
L 3144 3319 
L 1881 -56 
Q 1678 -603 1566 -809 
Q 1416 -1088 1222 -1217 
Q 1028 -1347 759 -1347 
Q 597 -1347 397 -1278 
z
" transform="scale(0.015625)"/>
      </defs>
      <use xlink:href="#ArialMT-41"/>
      <use xlink:href="#ArialMT-46" x="66.699219"/>
      <use xlink:href="#ArialMT-32" x="127.783203"/>
      <use xlink:href="#ArialMT-20" x="183.398438"/>
      <use xlink:href="#ArialMT-52" x="211.181641"/>
      <use xlink:href="#ArialMT-49" x="283.398438"/>
      <use xlink:href="#ArialMT-41" x="311.181641"/>
      <use xlink:href="#ArialMT-20" x="372.380859"/>
      <use xlink:href="#ArialMT-65" x="400.164062"/>
      <use xlink:href="#ArialMT-6e" x="455.779297"/>
      <use xlink:href="#ArialMT-65" x="511.394531"/>
      <use xlink:href="#ArialMT-72" x="567.009766"/>
      <use xlink:href="#ArialMT-67" x="600.310547"/>
      <use xlink:href="#ArialMT-79" x="655.925781"/>
      <use xlink:href="#ArialMT-20" x="705.925781"/>
      <use xlink:href="#ArialMT-28" x="733.708984"/>
      <use xlink:href="#ArialMT-6e" x="767.009766"/>
      <use xlink:href="#ArialMT-6f" x="822.625"/>
      <use xlink:href="#ArialMT-20" x="878.240234"/>
      <use xlink:href="#ArialMT-74" x="906.023438"/>
      <use xlink:href="#ArialMT-65" x="933.806641"/>
      <use xlink:href="#ArialMT-6d" x="989.421875"/>
      <use xlink:href="#ArialMT-70" x="1072.722656"/>
      <use xlink:href="#ArialMT-6c" x="1128.337891"/>
      <use xlink:href="#ArialMT-61" x="1150.554688"/>
      <use xlink:href="#ArialMT-74" x="1206.169922"/>
      <use xlink:href="#ArialMT-65" x="1233.953125"/>
      <use xlink:href="#ArialMT-73" x="1289.568359"/>
      <use xlink:href="#ArialMT-29" x="1339.568359"/>
     </g>
    </g>
    <g id="PathCollection_16">
     <defs>
      <path id="m291a5a8fcf" d="M -0 3.394113 
L 2.036468 0 
L 0 -3.394113 
L -2.036468 -0 
z
" style="stroke: #008fd7; stroke-width: 0.8"/>
     </defs>
     <g>
      <use xlink:href="#m291a5a8fcf" x="49.293" y="113.547375" style="fill: #008fd7; stroke: #008fd7; stroke-width: 0.8"/>
     </g>
    </g>
    <g id="text_24">
     <!-- AF2 RIA sc (no templates) -->
     <g style="fill: #262626" transform="translate(65.133 115.857375) scale(0.088 -0.088)">
      <defs>
       <path id="ArialMT-63" d="M 2588 1216 
L 3141 1144 
Q 3050 572 2676 248 
Q 2303 -75 1759 -75 
Q 1078 -75 664 370 
Q 250 816 250 1647 
Q 250 2184 428 2587 
Q 606 2991 970 3192 
Q 1334 3394 1763 3394 
Q 2303 3394 2647 3120 
Q 2991 2847 3088 2344 
L 2541 2259 
Q 2463 2594 2264 2762 
Q 2066 2931 1784 2931 
Q 1359 2931 1093 2626 
Q 828 2322 828 1663 
Q 828 994 1084 691 
Q 1341 388 1753 388 
Q 2084 388 2306 591 
Q 2528 794 2588 1216 
z
" transform="scale(0.015625)"/>
      </defs>
      <use xlink:href="#ArialMT-41"/>
      <use xlink:href="#ArialMT-46" x="66.699219"/>
      <use xlink:href="#ArialMT-32" x="127.783203"/>
      <use xlink:href="#ArialMT-20" x="183.398438"/>
      <use xlink:href="#ArialMT-52" x="211.181641"/>
      <use xlink:href="#ArialMT-49" x="283.398438"/>
      <use xlink:href="#ArialMT-41" x="311.181641"/>
      <use xlink:href="#ArialMT-20" x="372.380859"/>
      <use xlink:href="#ArialMT-73" x="400.164062"/>
      <use xlink:href="#ArialMT-63" x="450.164062"/>
      <use xlink:href="#ArialMT-20" x="500.164062"/>
      <use xlink:href="#ArialMT-28" x="527.947266"/>
      <use xlink:href="#ArialMT-6e" x="561.248047"/>
      <use xlink:href="#ArialMT-6f" x="616.863281"/>
      <use xlink:href="#ArialMT-20" x="672.478516"/>
      <use xlink:href="#ArialMT-74" x="700.261719"/>
      <use xlink:href="#ArialMT-65" x="728.044922"/>
      <use xlink:href="#ArialMT-6d" x="783.660156"/>
      <use xlink:href="#ArialMT-70" x="866.960938"/>
      <use xlink:href="#ArialMT-6c" x="922.576172"/>
      <use xlink:href="#ArialMT-61" x="944.792969"/>
      <use xlink:href="#ArialMT-74" x="1000.408203"/>
      <use xlink:href="#ArialMT-65" x="1028.191406"/>
      <use xlink:href="#ArialMT-73" x="1083.806641"/>
      <use xlink:href="#ArialMT-29" x="1133.806641"/>
     </g>
    </g>
    <g id="PathCollection_17">
     <defs>
      <path id="m1994246215" d="M 0 1.2 
C 0.318244 1.2 0.623496 1.07356 0.848528 0.848528 
C 1.07356 0.623496 1.2 0.318244 1.2 0 
C 1.2 -0.318244 1.07356 -0.623496 0.848528 -0.848528 
C 0.623496 -1.07356 0.318244 -1.2 0 -1.2 
C -0.318244 -1.2 -0.623496 -1.07356 -0.848528 -0.848528 
C -1.07356 -0.623496 -1.2 -0.318244 -1.2 0 
C -1.2 0.318244 -1.07356 0.623496 -0.848528 0.848528 
C -0.623496 1.07356 -0.318244 1.2 0 1.2 
z
" style="stroke: #9e005d; stroke-width: 0.8"/>
     </defs>
     <g>
      <use xlink:href="#m1994246215" x="49.293" y="126.098375" style="fill: #9e005d; stroke: #9e005d; stroke-width: 0.8"/>
     </g>
    </g>
    <g id="text_25">
     <!-- Peptriever -->
     <g style="fill: #262626" transform="translate(65.133 128.408375) scale(0.088 -0.088)">
      <defs>
       <path id="ArialMT-69" d="M 425 3934 
L 425 4581 
L 988 4581 
L 988 3934 
L 425 3934 
z
M 425 0 
L 425 3319 
L 988 3319 
L 988 0 
L 425 0 
z
" transform="scale(0.015625)"/>
       <path id="ArialMT-76" d="M 1344 0 
L 81 3319 
L 675 3319 
L 1388 1331 
Q 1503 1009 1600 663 
Q 1675 925 1809 1294 
L 2547 3319 
L 3125 3319 
L 1869 0 
L 1344 0 
z
" transform="scale(0.015625)"/>
      </defs>
      <use xlink:href="#ArialMT-50"/>
      <use xlink:href="#ArialMT-65" x="66.699219"/>
      <use xlink:href="#ArialMT-70" x="122.314453"/>
      <use xlink:href="#ArialMT-74" x="177.929688"/>
      <use xlink:href="#ArialMT-72" x="205.712891"/>
      <use xlink:href="#ArialMT-69" x="239.013672"/>
      <use xlink:href="#ArialMT-65" x="261.230469"/>
      <use xlink:href="#ArialMT-76" x="316.845703"/>
      <use xlink:href="#ArialMT-65" x="366.845703"/>
      <use xlink:href="#ArialMT-72" x="422.460938"/>
     </g>
    </g>
    <g id="PathCollection_18">
     <defs>
      <path id="m42db620d13" d="M 0 1.2 
C 0.318244 1.2 0.623496 1.07356 0.848528 0.848528 
C 1.07356 0.623496 1.2 0.318244 1.2 0 
C 1.2 -0.318244 1.07356 -0.623496 0.848528 -0.848528 
C 0.623496 -1.07356 0.318244 -1.2 0 -1.2 
C -0.318244 -1.2 -0.623496 -1.07356 -0.848528 -0.848528 
C -1.07356 -0.623496 -1.2 -0.318244 -1.2 0 
C -1.2 0.318244 -1.07356 0.623496 -0.848528 0.848528 
C -0.623496 1.07356 -0.318244 1.2 0 1.2 
z
" style="stroke: #a676d6; stroke-width: 0.8"/>
     </defs>
     <g>
      <use xlink:href="#m42db620d13" x="49.293" y="138.54625" style="fill: #a676d6; stroke: #a676d6; stroke-width: 0.8"/>
     </g>
    </g>
    <g id="text_26">
     <!-- RF-AA -->
     <g style="fill: #262626" transform="translate(65.133 140.85625) scale(0.088 -0.088)">
      <defs>
       <path id="ArialMT-2d" d="M 203 1375 
L 203 1941 
L 1931 1941 
L 1931 1375 
L 203 1375 
z
" transform="scale(0.015625)"/>
      </defs>
      <use xlink:href="#ArialMT-52"/>
      <use xlink:href="#ArialMT-46" x="72.216797"/>
      <use xlink:href="#ArialMT-2d" x="133.300781"/>
      <use xlink:href="#ArialMT-41" x="166.601562"/>
      <use xlink:href="#ArialMT-41" x="233.300781"/>
     </g>
    </g>
    <g id="PathCollection_19">
     <defs>
      <path id="mcca0cbda6a" d="M 0 -2.4 
L -2.4 2.4 
L 2.4 2.4 
z
" style="stroke: #a676d6; stroke-width: 0.8"/>
     </defs>
     <g>
      <use xlink:href="#mcca0cbda6a" x="49.293" y="150.994125" style="fill: #a676d6; stroke: #a676d6; stroke-width: 0.8"/>
     </g>
    </g>
    <g id="text_27">
     <!-- RF-AA APPRAISE -->
     <g style="fill: #262626" transform="translate(65.133 153.304125) scale(0.088 -0.088)">
      <use xlink:href="#ArialMT-52"/>
      <use xlink:href="#ArialMT-46" x="72.216797"/>
      <use xlink:href="#ArialMT-2d" x="133.300781"/>
      <use xlink:href="#ArialMT-41" x="166.601562"/>
      <use xlink:href="#ArialMT-41" x="233.300781"/>
      <use xlink:href="#ArialMT-20" x="294.5"/>
      <use xlink:href="#ArialMT-41" x="316.783203"/>
      <use xlink:href="#ArialMT-50" x="383.482422"/>
      <use xlink:href="#ArialMT-50" x="450.181641"/>
      <use xlink:href="#ArialMT-52" x="516.880859"/>
      <use xlink:href="#ArialMT-41" x="589.097656"/>
      <use xlink:href="#ArialMT-49" x="655.796875"/>
      <use xlink:href="#ArialMT-53" x="683.580078"/>
      <use xlink:href="#ArialMT-45" x="750.279297"/>
     </g>
    </g>
    <g id="PathCollection_20">
     <defs>
      <path id="mc99ef57ee2" d="M -0.8 2.4 
L 0.8 2.4 
L 0.8 0.8 
L 2.4 0.8 
L 2.4 -0.8 
L 0.8 -0.8 
L 0.8 -2.4 
L -0.8 -2.4 
L -0.8 -0.8 
L -2.4 -0.8 
L -2.4 0.8 
L -0.8 0.8 
z
" style="stroke: #a676d6; stroke-width: 0.8"/>
     </defs>
     <g>
      <use xlink:href="#mc99ef57ee2" x="49.293" y="163.442" style="fill: #a676d6; stroke: #a676d6; stroke-width: 0.8"/>
     </g>
    </g>
    <g id="text_28">
     <!-- RF-AA RIA energy -->
     <g style="fill: #262626" transform="translate(65.133 165.752) scale(0.088 -0.088)">
      <use xlink:href="#ArialMT-52"/>
      <use xlink:href="#ArialMT-46" x="72.216797"/>
      <use xlink:href="#ArialMT-2d" x="133.300781"/>
      <use xlink:href="#ArialMT-41" x="166.601562"/>
      <use xlink:href="#ArialMT-41" x="233.300781"/>
      <use xlink:href="#ArialMT-20" x="294.5"/>
      <use xlink:href="#ArialMT-52" x="322.283203"/>
      <use xlink:href="#ArialMT-49" x="394.5"/>
      <use xlink:href="#ArialMT-41" x="422.283203"/>
      <use xlink:href="#ArialMT-20" x="483.482422"/>
      <use xlink:href="#ArialMT-65" x="511.265625"/>
      <use xlink:href="#ArialMT-6e" x="566.880859"/>
      <use xlink:href="#ArialMT-65" x="622.496094"/>
      <use xlink:href="#ArialMT-72" x="678.111328"/>
      <use xlink:href="#ArialMT-67" x="711.412109"/>
      <use xlink:href="#ArialMT-79" x="767.027344"/>
     </g>
    </g>
    <g id="PathCollection_21">
     <defs>
      <path id="ma2fbe75e64" d="M -0 3.394113 
L 2.036468 0 
L 0 -3.394113 
L -2.036468 -0 
z
" style="stroke: #a676d6; stroke-width: 0.8"/>
     </defs>
     <g>
      <use xlink:href="#ma2fbe75e64" x="49.293" y="175.993" style="fill: #a676d6; stroke: #a676d6; stroke-width: 0.8"/>
     </g>
    </g>
    <g id="text_29">
     <!-- RF-AA RIA sc -->
     <g style="fill: #262626" transform="translate(65.133 178.303) scale(0.088 -0.088)">
      <use xlink:href="#ArialMT-52"/>
      <use xlink:href="#ArialMT-46" x="72.216797"/>
      <use xlink:href="#ArialMT-2d" x="133.300781"/>
      <use xlink:href="#ArialMT-41" x="166.601562"/>
      <use xlink:href="#ArialMT-41" x="233.300781"/>
      <use xlink:href="#ArialMT-20" x="294.5"/>
      <use xlink:href="#ArialMT-52" x="322.283203"/>
      <use xlink:href="#ArialMT-49" x="394.5"/>
      <use xlink:href="#ArialMT-41" x="422.283203"/>
      <use xlink:href="#ArialMT-20" x="483.482422"/>
      <use xlink:href="#ArialMT-73" x="511.265625"/>
      <use xlink:href="#ArialMT-63" x="561.265625"/>
     </g>
    </g>
   </g>
  </g>
 </g>
 <defs>
  <clipPath id="p759c64ce08">
   <rect x="32.573" y="12.339775" width="170.929639" height="175.632225"/>
  </clipPath>
 </defs>
</svg>
